<svg xmlns="http://www.w3.org/2000/svg" width="520" height="320"><rect x="0" y="0" width="520" height="320" fill="floralwhite"/><rect x="10" y="10" width="500" height="300" stroke="black" stroke-width="1" fill="none"/><path stroke="black" stroke-width="1" fill="none" stroke-linecap="round" stroke-linejoin="round" d="
M 116.59 88.08 126.13 86.58 145.37 83.97 154.99 83.17 164.6 83.39 174.22 84.47 183.84 85.78 203.08 87.7 212.69 88.96 222.31 89.83 241.55 90.53 251.17 91.11 260.78 91.91 280.02 92.85 299.26 94.46 308.87 95.42 328.11 97.75 337.73 99.15 347.35 101.04 356.96 103.66 357.75 104.11 
M 357.75 148.62 356.96 149.33 347.35 153.02 328.11 159.1 318.49 161.61 308.87 163.42 289.64 166.31 280.02 168.54 260.78 174.07 251.17 175.83 241.55 176.69 231.93 176.95 222.31 176.97 200.19 178.02 
M 160.71 176.09 154.99 175.4 145.37 173.61 135.75 171.19 126.14 168.2 
M 357.75 114.71 351.78 115.06 342.38 114.93 332.99 115.35 316.41 117.93 313.02 118.36 309.64 118.6 303.15 118.66 285.3 117.89 
M 281.86 117.73 273.38 117.53 270.1 117.67 263.65 118.56 258.62 119.53 
M 255.23 120.25 250.21 121.24 240.49 122.18 230.53 122.38 224.31 122.13 219.27 121.65 
M 208.74 120.34 206.41 120.13 
M 203.58 119.92 200.75 119.74 
M 191.83 119.1 185.59 118.22 
M 182.47 117.56 169.85 114.57 
M 166.66 113.88 160.25 112.71 
M 153.87 112.08 150.7 111.98 
M 138.22 113.37 132.26 114.45 
M 129.37 114.83 123.88 115.03 
M 130.84 164.13 132.17 165.68 
M 126.25 141.06 127.67 142.88 
M 126.6 133.31 131.96 140.68 
M 125.62 123.44 127.71 126.44 
M 129.71 129.36 133.48 134.71 
M 123.51 113.52 123.86 113.98 
M 126.19 116.95 132.04 124.31 136.91 131.14 
M 138.81 133.82 140.81 136.61 
M 121.93 103.97 125.62 109.29 127.76 112.08 133.87 119.02 
M 136.19 121.78 139.27 125.91 145.51 134.87 
M 119.58 94.82 122.88 98.5 130.67 108.61 140.36 119.09 142.5 121.82 145.5 126.18 
M 147.55 129.23 150.66 133.94 
M 118.06 87.85 120.55 90.05 124.17 93.68 133.89 105.14 137.29 108.86 
M 142.22 113.94 145.71 117.9 147.85 120.79 153.14 129.01 
M 155.3 132.51 155.69 133.15 
M 122.97 87.08 125.72 89.39 130.17 93.95 
M 132.08 96.06 146.71 111.7 150.16 115.81 
M 152.38 118.85 155.62 123.91 158.81 129.32 
M 128.1 86.32 130.84 88.57 140.98 98.49 150.15 108.5 153.62 112.65 
M 155.9 115.65 158.12 118.93 
M 133.41 85.6 140.45 91.18 144.85 95.35 149.21 100.19 153.67 105.46 159.45 112.63 
M 161.71 115.85 163.91 119.33 
M 166.05 123.02 168.72 127.85 
M 139.25 84.8 142.37 86.81 144.55 88.44 148.83 92.39 159.61 105.18 163.06 109.63 
M 165.33 112.84 168.64 118.04 173.63 126.93 
M 145.6 83.95 148.69 85.96 150.77 87.7 152.77 89.68 163.36 102.12 167.91 108.13 170.13 111.44 174.45 118.6 177.6 124.4 
M 152.09 83.41 154.68 85.41 156.56 87.26 167.11 99.1 169.47 101.95 171.69 105.04 174.95 110.04 
M 179.18 117.39 181.26 121.31 
M 158.13 83.24 160.19 85.13 170.78 96.18 173.23 98.91 175.54 101.87 179.79 108.44 184.94 117.97 
M 163.9 83.38 174.47 93.34 179.31 98.68 181.54 101.69 185.64 108.49 193.34 123.23 
M 218.82 165.38 221 167.91 
M 170.69 84.07 173.58 86.42 178.2 90.6 182.97 95.59 185.28 98.41 187.44 101.48 189.44 104.84 196.3 118.17 
M 198.17 121.88 198.38 122.28 
M 217.91 156.56 222.2 162.57 
M 178.64 85.07 181.96 88.06 186.56 92.72 188.88 95.36 191.13 98.25 193.23 101.41 195.21 104.88 199.04 112.46 203.25 121.37 
M 227.56 162.46 231.67 167.59 
M 186 85.99 190.12 90.12 194.66 95.33 196.91 98.34 199.04 101.66 202.84 108.96 208.03 120.47 
M 225.32 150.88 226.94 153.44 
M 228.89 156.51 232.85 162.17 
M 192.55 86.61 198.2 92.69 200.53 95.55 202.81 98.71 204.9 102.13 208.47 109.34 212.72 119.59 
M 229.95 149.69 230.23 150.14 
M 234.11 156.2 236.13 159.03 
M 199.03 87.28 204.16 92.91 206.5 95.89 208.73 99.11 210.74 102.53 214.01 109.59 218.19 121.37 
M 232.97 146.08 235.29 149.85 
M 237.27 152.88 239.34 155.79 
M 241.48 158.62 243.64 161.37 
M 205.72 88.05 210.18 93.13 212.47 96.13 214.6 99.33 216.46 102.71 218.02 106.22 219.37 109.79 221.12 115.27 
M 222.28 118.97 222.88 120.83 224.6 124.98 
M 232.51 137.33 234.31 139.95 
M 236.38 143.18 238.34 146.36 
M 248.98 161.28 250.96 164.06 
M 212.52 88.93 216.24 93.27 218.44 96.28 220.39 99.47 222.04 102.84 223.49 106.37 227.08 117.39 228.41 121.04 230.01 124.59 233.04 129.72 
M 235.25 133.07 237.43 136.34 
M 241.48 142.78 244.55 147.6 250.05 155.41 
M 219.24 89.55 222.49 93.46 224.45 96.45 226.14 99.63 229.12 106.56 231.05 112.05 
M 232.29 115.69 234.35 121.06 236.02 124.51 243.87 137.53 249.08 145.74 
M 251.27 149.04 255.38 155.48 
M 259.15 161.5 261.22 164.27 
M 226 89.97 228.77 93.73 230.45 96.7 231.99 99.88 235 106.78 238.97 117.41 240.44 120.89 242.08 124.26 245.66 130.69 250.59 138.8 
M 252.75 142.19 258.11 150.7 262.77 158.57 
M 232.38 90.21 234.84 94.06 239.46 103.44 240.96 106.82 245.69 118.88 
M 248.76 125.42 254.49 135.07 
M 256.59 138.54 260.94 145.57 
M 262.98 148.98 264.86 152.28 
M 266.74 155.43 268.75 158.43 
M 238.27 90.42 240.74 94.42 245.42 103.55 248.25 110.16 250.78 116.89 253.04 121.65 
M 254.78 124.72 262.63 138.36 
M 266.85 145.49 268.85 148.9 
M 274.95 158.18 277.27 160.9 
M 243.92 90.67 246.55 94.84 249.77 100.67 252.69 106.94 255.18 113.41 256.59 116.51 261.86 125.6 264.62 130.83 
M 266.52 134.53 270.55 141.97 
M 272.61 145.51 276.7 152.05 
M 249.41 91 252.31 95.42 255.48 101.15 259.3 110.35 261.57 114.74 
M 263.34 117.58 266.09 122.01 272.37 134.7 
M 276.29 142.14 280.48 148.78 
M 254.83 91.41 257.92 96.18 259.39 98.95 263.2 107.68 264.61 110.53 270.1 118.88 271.95 122.12 279.24 137.03 281.14 140.59 284.3 145.47 
M 286.49 148.42 288.69 151.14 
M 259.97 91.84 263.1 97.02 267.85 106.52 
M 269.37 109.22 275.09 117.69 
M 277.08 121.03 284.46 135.53 
M 286.33 138.91 288.36 142.07 
M 290.53 144.97 294.88 150.25 
M 264.66 92.1 268.97 98.87 
M 270.47 101.36 275.24 109.1 
M 277.14 111.86 281.26 118.21 
M 283.31 121.74 287.17 128.81 
M 288.96 132.25 290.74 135.54 
M 292.68 138.6 293.7 140.06 297 144.1 
M 301.22 149.47 303.27 152.27 
M 269.52 92.34 274.53 98.91 
M 276.22 101.23 282.35 110.28 285.43 115.15 
M 287.53 118.64 289.59 122.17 
M 291.49 125.64 294.09 130.7 295.89 133.83 299.08 138.01 
M 301.33 140.67 304.6 144.78 309.65 152.22 
M 275.11 92.61 279.57 97.48 283.2 101.97 286.72 107.18 291.65 115.34 
M 297.1 125.88 298.84 129.15 
M 309.94 143.23 311.98 146.26 
M 315.88 152.47 317.87 155.58 
M 281.74 92.98 282.76 93.96 
M 284.73 95.95 287.6 99.19 290.3 102.92 
M 292.06 105.7 296.82 113.88 299.32 119.18 
M 302.53 126.01 303.43 127.66 305.59 130.66 309.31 134.76 
M 311.78 137.47 314.1 140.33 
M 289.03 93.56 291.88 96.56 293.76 98.91 297.55 104.38 301.33 110.82 302.96 114.25 305.02 119.35 
M 308.41 125.96 309.47 127.56 311.84 130.46 315.62 134.58 
M 320.33 140.41 324.37 146.73 
M 296.15 94.18 300.17 98.87 302.2 101.7 306.07 107.9 308.37 112.75 
M 309.68 115.99 311.77 120.83 313.6 124 314.7 125.54 
M 317 128.51 321.89 134.29 
M 324.25 137.3 326.48 140.42 
M 303.48 94.88 306.72 98.92 310.62 104.96 312.34 107.97 316.41 117.18 318.01 120.23 318.97 121.75 
M 321.05 124.79 328.06 133.92 
M 310.71 95.64 312.99 98.86 317.36 106.2 
M 318.87 109.11 322.48 116.47 324.21 119.43 327.27 124.03 
M 329.49 127.19 331.79 130.39 
M 340.55 144.23 342.48 147.57 
M 317.34 96.42 322.09 104.34 328.45 115.75 333.32 123.52 
M 335.52 126.84 340.1 133.8 
M 323.34 97.16 335.25 116.82 
M 339.32 123.31 343.75 130.33 
M 350.2 141.2 352.21 144.58 
M 329.1 97.9 334.6 106.26 354.01 137.52 
M 334.98 98.75 341.57 109.09 344.62 113.57 
M 348.94 119.9 351.06 123.27 
M 340.56 99.7 344.82 106.27 348.02 110.61 
M 350.27 113.58 353.69 118.19 357.75 124.22 
M 346.28 100.83 350.34 106.32 357.75 115.32 
M 353.38 102.69 357.75 107.66 
M 121.82 87.26 117.96 90.41 
M 127.13 86.45 123.49 89.72 119.36 93.87 
M 132.14 85.77 128.6 88.93 123.2 94.92 
M 121.16 97.42 120.46 98.28 
M 137.56 85.03 133.82 88.13 131.52 90.43 129.32 92.91 125.2 98.27 121.74 103.21 
M 143.56 84.22 139.65 87.22 137.05 89.58 134.61 92.1 132.35 94.77 128.23 100.51 122.76 109.05 
M 149.54 83.62 145.95 86.3 143.21 88.63 140.54 91.17 138 93.88 135.63 96.73 133.43 99.7 130.36 104.36 
M 128.39 107.51 124.01 115.57 
M 155.38 83.18 152.13 85.61 146.8 90.29 141.56 95.81 139.12 98.77 134.65 105 132.58 108.25 130.78 111.62 127.58 118.41 125.43 122.46 
M 160.32 83.29 155.38 87.33 150.27 92.24 145.15 97.93 142.71 100.95 138.15 107.23 136.17 110.56 132.01 119.4 
M 165.23 83.46 160.85 87.07 158.5 89.33 151.13 97.31 148.7 100.24 144.04 106.33 141.89 109.52 139.07 114.63 
M 137.33 118.23 134.62 123.8 132.54 127.43 130.33 130.81 126.52 135.69 
M 169.88 83.98 166.31 86.87 163.98 89.1 158.17 95.51 
M 155.77 98.35 149.96 105.7 145.63 111.85 143.64 115.18 137.78 126.28 135.64 129.89 132.26 134.86 
M 174.73 84.54 172.26 86.52 169.74 88.82 165.14 93.82 155.81 105.35 151.39 111.26 148.2 116 
M 146.11 119.45 144.03 123.13 
M 139.78 130.5 135.38 137.33 
M 179.59 85.2 175.94 88.41 173.5 90.89 167.73 97.69 
M 165.39 100.61 158.33 109.6 
M 156.1 112.59 152.79 117.2 149.44 122.31 
M 147.25 125.9 142.95 133.08 
M 140.79 136.58 140.51 137.02 
M 184.48 85.85 182.05 88.06 177.32 93.17 169.08 103.48 
M 166.64 106.55 159.68 115.73 
M 155.12 122.19 147.46 134.02 
M 189.65 86.34 185.66 90.24 183.37 92.85 175.12 103.46 
M 172.65 106.65 166.67 114.51 160.86 122.5 
M 156.27 129.12 152.73 134.43 
M 132.86 162.01 131.03 164.07 
M 194.84 86.84 191.5 90.11 189.28 92.64 184.77 98.43 176.14 110.06 
M 173.73 113.33 168.99 119.8 
M 166.63 123.07 162.35 129.05 
M 200.13 87.39 197.31 90.14 192.86 95.31 185.74 104.9 174.79 120.42 
M 172.42 123.71 169.54 127.7 
M 205.52 88.02 200.95 92.79 194.03 101.43 189.05 108.49 181.73 119.52 176.82 126.33 
M 210.97 88.73 206.95 93.02 197.31 104.98 194.8 108.53 187.47 120.07 184.13 124.96 
M 216.71 89.32 215.4 90.53 212.97 93.2 200.51 108.8 197.99 112.43 191 123.67 
M 222.94 89.85 219.12 93.35 216.58 96.23 206.16 109.19 203.53 112.62 201.02 116.23 197.16 122.51 
M 229.61 90.11 229 90.57 
M 226.9 92.31 222.58 96.39 219.89 99.46 209 112.86 205.12 118.05 
M 235.97 90.34 231.62 93.87 228.59 96.61 225.64 99.62 218.59 107.99 
M 215.78 111.41 211.69 116.48 208.8 120.33 
M 242.05 90.56 237.59 94.22 231.48 99.86 228.46 103.04 221.05 111.64 
M 218.19 115.09 214.71 119.54 
M 247.99 90.92 243.44 94.6 237.42 100.14 234.32 103.3 223.38 115.38 
M 220.51 118.85 218.55 121.41 
M 254.07 91.35 250.59 93.99 
M 247.8 96.33 243.37 100.36 240.29 103.45 227.29 117.39 224.28 120.9 222.31 123.48 
M 260.14 91.85 254.97 95.75 249.27 100.64 243.13 106.81 234.83 115.69 
M 231.54 119.28 227.04 124.56 226.04 125.96 
M 266.01 92.16 260.35 96.58 255.01 101.1 249.02 106.84 244.18 111.97 
M 240.87 115.58 235.95 121.03 231.58 126.31 
M 271.49 92.43 262.91 99.48 257.56 104.25 251.64 110.15 246.82 115.37 
M 243.62 118.99 237.6 126.16 
M 234.98 129.68 233.77 131.43 231.81 134.82 
M 222.58 150.95 218.63 156.59 
M 276.73 92.69 265.38 102.36 259.93 107.43 257.12 110.27 251 116.87 247.9 120.48 242.18 127.61 238.42 132.91 
M 234.34 139.96 234.01 140.6 
M 224.22 156.61 217.7 165.39 
M 281.83 92.99 269.31 103.89 
M 266.49 106.48 259.69 113.33 253.78 119.95 247.94 127.16 245.31 130.72 241.69 136.03 
M 239.52 139.57 235.59 146.57 
M 233.65 149.96 231.63 153.27 
M 229.53 156.48 225.31 162.52 
M 223.21 165.31 221.12 167.91 
M 286.87 93.39 276.54 102.43 270.6 107.88 265.25 113.26 259.83 119.34 253.92 126.48 248.47 133.8 243.74 140.91 238.67 149.6 
M 291.98 93.81 278.06 106.24 
M 275.09 109.08 270.97 113.22 265.82 118.92 260.09 125.76 255.83 131.4 
M 248.21 142.34 239.97 155.75 
M 297.24 94.28 288.89 101.62 281.26 108.84 
M 278.38 111.8 271.65 118.94 267.52 123.67 
M 264.71 127.19 261.93 130.94 
M 259.21 134.76 254.09 142.15 
M 251.7 145.66 249.44 149.06 
M 247.35 152.32 245.35 155.47 
M 302.73 94.81 292.03 104.23 288.99 107.14 279.08 117.97 
M 276.31 120.92 272.01 125.52 270.6 127.23 
M 267.85 130.79 262.62 138.35 
M 260.12 142.04 257.66 145.6 
M 255.21 149.01 250.75 155.41 
M 246.74 161.28 244.67 164.09 
M 242.57 166.81 240.5 169.43 
M 308.35 95.37 304.69 98.91 295.29 107.24 292.28 110.29 288.09 115.21 
M 285.33 118.49 276.67 127.81 
M 268.5 138.3 263.62 145.54 
M 261.07 149 256.09 155.48 
M 313.73 96 308.17 101.9 298.67 110.64 294.28 115.47 
M 291.56 118.8 287.4 123.77 281.38 130.1 276.99 135.08 
M 274.31 138.53 271.84 142.02 
M 269.45 145.49 266.93 148.93 
M 264.27 152.29 257.97 160.06 254.93 164.17 
M 318.77 96.59 311.47 104.96 301.81 114.19 298.78 117.44 290.69 127.28 283.08 135.49 
M 277.6 142.21 272.73 148.91 
M 267.46 155.43 264.81 158.54 
M 323.51 97.18 317.34 104.7 314.5 107.87 304.56 117.67 301.53 120.98 296.37 127.52 292.28 132.32 
M 289.31 135.61 284.87 140.61 274.81 153.7 270.88 158.37 
M 328.04 97.74 327.85 97.98 
M 326.48 99.68 320.19 107.47 317.22 110.78 307.25 121.01 303.07 126.02 
M 300.61 129.19 298.13 132.26 
M 292.64 138.64 288.39 143.67 284.51 148.6 
M 279.59 154.97 277.1 158.07 
M 332.49 98.39 322.91 110.24 313.4 120.71 309.02 125.93 
M 306.44 129.15 301.62 135.02 
M 299.03 138.05 296.25 141.27 
M 288.09 151.23 285.62 154.42 
M 336.99 99.04 328.52 109.65 318.17 121.85 
M 310.26 131.94 305.43 137.58 
M 299.95 143.74 297.07 147.03 
M 294.28 150.34 291.65 153.6 
M 341.38 99.87 334.12 109.22 325.82 119.23 321.67 124.7 
M 319.07 128.27 313.01 136.05 309.2 140.3 
M 303.52 146.34 300.59 149.52 
M 295.16 155.92 292.72 159.06 
M 345.84 100.74 333.17 116.94 
M 330.49 120.38 327.88 123.97 
M 325.35 127.57 320.49 134.32 
M 318.05 137.38 315.5 140.32 
M 350.43 101.88 346.76 106.3 333.91 123.49 
M 329.06 130.54 326.68 133.98 
M 319.03 143.42 316.2 146.38 
M 313.31 149.32 310.43 152.24 
M 355.07 103.15 350.23 109.16 337.48 126.78 
M 335.11 130.26 332.76 133.69 
M 330.36 137.07 326.56 142 323.81 145.13 319.5 149.61 
M 316.64 152.51 313.89 155.33 
M 311.28 158.09 309.81 159.67 
M 357.75 107.02 351.64 115.08 343.44 126.76 
M 341.09 130.27 336.38 137.11 
M 333.9 140.4 329.92 145.23 325.6 149.91 
M 357.75 114.72 352.85 121.52 349.27 126.79 
M 346.97 130.36 342.31 137.41 
M 337.28 143.97 331.7 150.15 
M 357.75 122.91 352.79 130.33 
M 350.46 134 346.95 139.41 344.47 142.84 341.89 146 337.79 150.41 
M 357.75 131.78 352.77 139.38 348.99 144.62 
M 357.75 140.67 357.58 140.91 
M 354.92 144.48 352.31 147.66 
M 211.59 88.07 241.81 52.04 242.42 52.53 214.36 89.11 
M 223.27 89.14 240.82 63.75 241.48 64.17 226.07 89.97 
M 235 89.7 243.93 74.47 244.63 74.83 237.78 90.4 
M 246.75 90.36 250.61 84.03 251.33 84.34 249.48 91.01 
M 259.45 91.43 260.79 91.91 
M 239.56 56.26 238.03 59.54 237.74 61.75 238.16 64.01 239.06 66.29 
M 239.9 66.82 239.64 69.19 239.83 71.4 240.7 73.38 243.04 75.99 
M 243.92 76.45 244.52 78.89 245.49 81.04 247.04 82.75 250.23 84.66 
M 251.14 85.05 252.58 87.36 254.3 89.28 256.45 90.61 260.32 91.74 
M 238.97 57.35 238.03 59.54 237.79 60.64 237.87 62.88 238.58 65.15 
M 234.21 64.84 233.49 66.51 233.31 67.36 233.37 69.07 233.91 70.81 
M 229.45 72.32 228.83 74.08 228.87 75.27 229.25 76.48 
M 239.74 68.02 239.65 70.32 239.83 71.4 240.7 73.38 242.18 75.15 
M 236.45 75.76 236.4 77.25 236.74 78.62 238.04 80.39 
M 126.15 143.18 129.69 142.36 132.17 140.84 133.92 139.42 136.16 138.67 138.06 137.65 142.01 136.5 143.43 135.73 148.25 133.68 151.44 134.02 152.93 134.49 156.82 132.6 159.25 130.44 162.16 129.09 214.28 119.3 218 121.35 218.96 121.46 221 122.67 228.55 127.71 230.43 130.07 230.73 131.64 232.43 137.15 234.58 141.84 234.22 144.16 232.93 146.15 231.88 148.37 229.93 149.7 227.46 150.52 224.65 150.99 221.3 150.93 219.29 152.2 218.36 154.55 216.96 156.42 214.8 160.66 213.6 162.58 212.86 164.95 211.35 166.56 211.28 169.6 209.51 171.16 206.31 174.63 204.27 175.94 201.92 176.92 199.88 178.22 198.27 179.98 162.25 177.06 159.03 175.03 156.88 174.59 153.97 173.18 151.59 171.58 149.28 170.32 146.44 170.08 142.98 167.63 141.44 166.95 136.96 164.08 134.52 163.02 132.3 161.67 128.36 159.83 
M 126.1 144.7 129.47 144.08 132.09 143.18 134.36 141.89 136.28 141.39 140.76 139.86 144.88 139.03 147.24 138.17 149.78 138.03 151.97 138.14 156.71 136.34 158.53 134.78 160.5 133.8 163.28 133.18 167.22 133.1 171.64 130.41 173.59 128.9 176.47 128.27 178.5 128.53 182.7 128.45 185.5 127.44 188.08 126.94 190.38 125.98 
M 126.05 146.93 129.33 146.39 132.19 146.27 134.6 145.92 137.26 145.32 141.48 143.89 145.97 142.82 150.56 142.88 152.13 142.58 157.86 142.52 160.66 141.53 163.39 141.22 165.6 140.66 167.79 139.81 170.12 139.25 172.31 138.94 173.74 139.08 175.93 138.55 177.97 138.27 180.48 138.53 184.3 138.56 186.37 138.11 188.25 138.35 189.73 137.45 193.96 135.44 197.05 135.08 203.26 134 206.49 133.73 
M 126.49 149.29 137.25 148.97 141.61 148.03 144.26 147.78 146.8 148.17 149.19 148.03 151.93 148.84 154.32 148.83 157.04 148.19 161 147.91 164.21 148.1 166.53 147.75 168.88 147.72 171.09 147.06 175.21 146.69 177.37 147.3 180.02 147.56 182.84 147.46 185.31 147 188.32 146.73 
M 126.97 151.66 132.59 152.32 134.95 152.36 137.48 152.69 140.05 152.47 142.22 152.05 144.27 152.18 149.72 153.66 152.43 154.15 155.04 154.37 156.93 154.99 163.7 155.04 166.4 155.53 169.44 155.82 171.89 155.72 172.88 155.33 174.57 154.32 177.15 154.47 182.43 155.76 185.52 155.59 187.99 155.65 
M 127.66 154.28 129.59 154.73 132.45 155.14 134.95 155.36 137.45 155.18 140.21 155.5 142.07 156.24 148.51 158.02 150.56 159.37 155.74 160.46 158.76 160.24 161.3 159.68 166.47 162.02 172.62 162.97 173.84 162.33 175.76 162.9 
M 128.1 157 131.87 158.07 137.21 158.5 139.59 159.47 141.43 160.94 143.15 162.05 145.25 162.94 147.37 163.31 154.83 165.83 157.52 166.92 160.58 168.67 162.92 169.31 165.13 169.32 166.75 170.36 171.12 171.56 173.19 171.86 174.34 173 176.6 173.45 179.19 174.31 182.23 173.94 185.25 174.59 186.74 174.47 193.6 178.41 
M 154.99 175.4 157.48 177.81 159.12 179.93 160.93 181.91 165.84 186.25 169.35 190.08 172.57 194.18 173.77 196.1 175.14 199.31 177.14 201.53 178.97 203.25 180.19 203.84 181.82 205.91 183.46 207.48 182.68 214.57 182.91 219.67 182.43 221.63 181.79 223.42 180.73 225.36 179.96 227.7 179.43 230.27 176.98 234.49 175.94 236.79 173.97 238.16 171.83 239.36 170.25 241.11 168.15 245.52 166.6 247.23 164.82 248.5 157.12 257.95 156.76 256.7 157.16 250.68 156.2 247.26 155.83 244.59 154.46 242.45 154.37 241.34 153.78 239.02 153.56 237.33 153.53 234.01 153.78 228.71 152.49 224.87 152.07 222.6 151.11 219.2 150.75 213.82 150.76 211.12 150.24 209.16 150.31 206.96 148.93 202.43 148.56 200.02 148.33 197.51 148.29 189.54 148.02 186.66 147.67 183.95 147.03 181.61 145.37 173.61 
M 153.44 175.11 155.68 177.59 158.67 182.08 160.51 184.33 162.71 186.48 164.11 188.95 167.66 193.37 168.96 195.6 169.21 198.08 172 200.95 173.91 202.67 174.72 204.79 176.24 206.53 
M 151.89 174.82 155.2 179.32 158.11 184.29 160.92 188.49 162.21 191.18 163.9 193.58 165.15 195.85 166.61 200.59 169.27 201.66 170.89 203.17 171.92 205.05 173 210.35 175.16 213.41 176.51 216.05 178.43 219.05 
M 150.35 174.54 153.31 179.36 154.36 181.66 155.27 184.43 158.96 191.14 159.96 193.29 161.71 195.65 163.01 200.19 164.34 202.21 165.02 204.29 169.32 211.64 170.14 214.9 170.43 216.94 
M 148.8 174.25 150.23 177.27 151.38 179.26 152.36 181.48 153.64 187.38 155.47 192.21 156.06 194.6 158.88 201.45 159.15 204.29 160.54 208.49 161.39 210.31 163.26 212.74 164.04 215.34 164.12 217.57 164.84 219.71 166.02 221.72 167.26 224.86 
M 147.25 173.96 149.15 179.2 151.96 189.97 152.99 197.49 153.83 202.22 155.65 206.62 155.99 209.57 156.59 211.83 156.71 213.52 157.54 215.83 159.19 222.3 160.4 225 161.07 227.81 160.8 229.82 161.94 231.98 163.17 233.57 164.38 237.89 165.01 240.81 164.76 244.62 165.69 246.94 
M 329.25 158.27 332.07 163.83 331.44 164.29 326.97 159.94 
M 317.83 161.16 320.71 167.25 320.06 167.69 315.48 162.75 
M 306.24 163.23 309.58 170.74 308.91 171.15 303.81 164.7 
M 294.55 164.97 299.34 174.56 298.67 174.98 292.15 166.47 
M 282.95 167.31 290.35 179.46 289.71 179.92 280.64 168.95 
M 271.57 170.51 281.97 186.1 281.34 186.57 269.31 172.21 
M 260.21 173.6 272.88 194.29 272.22 194.73 257.86 175.18 
M 252.37 175.09 267.56 201.87 266.89 202.28 249.96 176.57 
M 330.99 163.86 328.39 163.5 325.9 163.6 323.6 164.4 320.42 166.64 
M 319.6 167.2 317.04 166.84 314.6 166.94 312.34 167.75 309.25 169.99 
M 308.4 170.51 305.97 170.23 303.68 170.41 301.62 171.28 298.86 173.6 
M 298.02 174.13 294.62 174.28 292.67 175.02 291.03 176.42 289.61 178.24 
M 288.8 178.82 286.46 179.27 284.39 180.11 282.76 181.53 280.93 184.54 
M 280.14 185.14 277.6 185.93 275.36 187.09 273.58 188.81 271.61 192.22 
M 270.79 192.77 268.11 194.1 266.9 195.42 266.28 197.16 266.04 199.19 
M 307.17 170.34 304.8 170.24 303.68 170.41 301.62 171.28 299.75 172.75 
M 296.85 174.1 294.62 174.28 292.67 175.02 291.81 175.65 290.31 177.3 
M 287.61 179.02 285.38 179.62 284.39 180.11 282.76 181.53 281.49 183.47 
M 278.85 185.51 276.43 186.45 275.36 187.09 273.58 188.81 272.21 191.02 
M 273.91 181.09 272.33 181.7 271.02 182.63 269.6 184.67 
M 269.83 193.17 268.11 194.1 267.43 194.71 266.53 196.24 266.14 198.16 
M 266.39 188.95 265.07 189.67 264.55 190.13 263.86 191.31 263.56 192.78 
M 262.95 184.74 261.68 185.56 261.19 186.38 260.99 187.4 
M 356.96 103.66 361.91 101.93 363.9 100.68 368.38 98.37 373.09 96.61 374.99 95.59 376.68 94.59 377.64 92.73 379.42 91.09 382.07 89.61 383.55 89.37 385.75 88.2 388.25 86.59 393.24 84.68 395.63 82.73 400.78 80.29 402.69 78.26 403.87 76.67 405.74 75.86 407.29 74.69 408.28 73.36 410.68 72.51 413.39 70.87 424.31 70.51 429.11 70.77 433.62 70.78 442.9 74.54 448.4 76.28 456.92 81.34 462.81 86.05 467.6 89.23 469.35 90.08 470.63 90.46 472.58 92.31 473.47 93.96 478.22 101 480.2 103.57 484.57 108.37 485.87 110.4 486.04 112.28 487.87 117.51 488.13 119.48 487.67 123.02 488.1 125.46 489.08 128.45 489.54 130.96 489.94 133.61 490 135.91 489.44 137.6 488.51 139.18 489.04 148.43 488.24 150.54 484.66 153.5 483.2 155.38 481.34 156.86 479.96 158.81 477.95 160.11 476.44 161.89 475.33 164.07 473.95 165.98 472.72 168.06 470.92 169.56 469.05 170.99 466.72 171.95 464.84 173.37 462.74 174.54 460.57 175.63 458.14 176.46 456.36 177.94 454.21 178.97 451.61 179.41 445.73 182.65 440.17 182.97 438.74 184.46 436.29 184.93 434.25 185.82 432.58 186.97 430.6 187.7 425.26 188.79 412.88 189.78 411.65 188.32 408.81 187.19 402.24 183.11 400.13 181.09 396.26 178.15 395.25 176.15 394.04 174.37 389.28 171.66 384.97 169.49 383.76 167.25 381.92 165.57 376.53 162.6 374.58 161.23 370.28 158.64 367.91 157.47 363.77 154.77 361.93 152.98 356.96 149.33 
M 364.05 103.24 365.98 102.29 368.11 101.72 372.81 99.82 374.78 98.5 378.29 96.93 385.43 93 390.86 89.77 398.45 86.52 
M 356.96 108.23 359.72 107.84 364.37 105.74 366.59 105.13 368.62 104.37 370.88 103.92 373.09 102.97 377.22 100.5 381.48 99.09 386.32 97 388.72 96.26 394.1 92.62 396.83 92.5 398.99 91.15 403.96 89.22 406.25 87.77 408.37 86.73 
M 356.96 110.51 359.93 110.07 362.18 109.31 364.33 108.3 366.89 107.56 371.41 106.78 373.41 105.92 377.76 103.39 380.44 102.13 391.48 99.27 393.83 98.4 395.52 96.77 400.66 94.86 403.8 93.91 
M 359.83 112.59 364.5 111 369.31 109.95 371.8 109.66 373.89 108.97 375.59 107.95 377.51 106.39 380.24 105.42 382.91 105.22 385.78 104.63 387.75 104.43 390.07 103.73 392.05 102.38 394.79 101.92 396.76 100.73 399.33 100.22 401.92 100.01 406.95 97.91 410.84 96.62 412.84 96.54 415.91 95.36 419.99 91.76 422.35 90.63 424.82 90.38 426.5 91.11 428.59 91.37 430.39 89.92 432.08 88.06 438.12 85.61 443.26 84.04 445.49 83 
M 364.72 113.71 369.35 112.71 371.85 112.6 374.38 112.03 375.97 111.22 378.14 109.84 380.48 108.9 382.99 108.77 385.56 108.25 388.34 107.9 392.77 106.2 395.44 105.55 398.37 105.09 405.07 104.73 407.42 103.6 409.86 103.34 412.58 102.76 414.69 102.09 416.44 100.55 418.78 99.07 421.99 98.21 423.28 96.94 426.89 95.63 431.69 94.94 435.77 94.04 441.58 93.96 444.81 93.04 
M 356.96 117.36 359.74 117.12 367 116.03 369.39 115.46 371.57 115.15 376.88 113.75 378.95 113.44 386.04 111.77 388.03 110.84 391.49 110.88 394.29 110.3 396.48 109.47 398.85 108.99 401.05 109.75 403.44 109.94 406.01 109.9 408 108.63 410.3 107.52 412.63 107.39 415.19 106.75 417.41 105.95 419.41 104.67 422.08 104.4 423.99 104.39 426.03 103.52 
M 359.78 119.66 364.63 119.13 372.04 117.77 377.01 117.45 378.83 117.62 381.45 116.97 384.14 115.86 393.48 114.44 396.21 113.79 398.69 113.8 401.41 114.1 403.44 114.94 405.88 114.47 408.45 113.2 410.85 112.46 415.62 112.26 417.76 111.66 419.55 110.77 421.94 110.26 423.92 110.09 426.24 109.22 428.36 108.77 430.66 108.52 436.31 109.65 440.18 108.93 443.44 107.4 
M 359.68 122.14 362.3 122.35 364.88 122.35 366.91 122.05 369.33 121.38 371.78 121.06 377.14 121.16 381.67 120.48 386.38 119.54 388.66 119.35 405.88 119.21 408.29 118.75 409.9 117.5 412.29 117.19 415.27 116.88 419.36 117.64 421.34 116.61 423.79 115.93 426.02 115.06 428.93 114.95 431.46 115.15 434.51 115.96 439.43 115.74 441.2 115.96 442.77 116.52 
M 364.73 125.02 369.32 124.34 374.5 124.05 377.42 124.37 382.48 124.19 384.81 123.62 389.7 123.3 391.91 123.32 393.87 123.56 398.94 123.28 401.28 123.3 403.81 123.84 408.9 123.14 410.85 123.13 415.96 123.57 423.21 122.27 425.22 122.74 428.97 122.62 431.21 122.83 434.94 123.65 437.82 123.85 439.36 123.19 441.3 123.07 442.96 122.71 445.8 122.43 448.43 121.73 451.03 121.72 453.84 121.43 457.21 121.69 463.1 121.33 467.34 120.31 469.58 120.82 471.99 120 473.94 120.71 474.69 121.71 477.36 122.07 480.13 121.31 
M 362.4 127.48 364.81 127.67 374.47 127.4 380.16 128.14 382.93 128.05 385.46 127.73 390.05 127.84 392.3 127.41 396.68 127.66 399.07 127.54 401.49 127.81 403.38 128.51 406.08 128.5 408.86 129.02 413.82 128.86 421.72 128.06 423.51 128.21 
M 365 130.44 372.34 131.08 379.69 131.45 382.34 131.73 385.06 132.27 389.96 132.64 391.77 132.15 394.4 132.05 396.79 132.18 399.33 132.92 401.92 133.39 404.85 134.65 407.34 134.88 409.85 134.61 412.16 134.86 414.29 135.43 416.89 135.41 419.14 135.63 421.83 136.19 425.29 135.14 427.67 134.83 430.49 135.9 432.42 136.99 435.85 137.37 438.46 137.31 
M 359.9 131.9 367.39 133.62 372.2 134.12 374.81 134.72 385.03 136.1 389.74 136.7 392.24 136.62 394.35 136.34 396.38 136.59 401.75 138.57 406.54 139.29 408.51 140.27 413.31 140.21 415.65 140.5 418.36 141.5 421.38 142 425.67 141.62 427.27 140.82 429.52 141.22 432 141.05 433.27 141.8 435.45 142.21 441.52 142.9 444.93 143.06 449.68 144.79 454.42 145.59 457.49 146.51 459.72 146.23 464.48 146.88 466.44 147.74 468.96 148.24 470.87 148.05 472.27 148.43 474.91 149.6 477.29 149.69 
M 362.51 135.07 369.87 136.91 374.92 137.7 377.31 138.53 381.99 139.56 387.23 139.94 389.79 139.67 392.31 140.11 394.18 140.89 398.46 142.22 400.5 142.69 402.71 144.03 405.37 144.6 407.77 145.01 410.89 145.02 413.39 144.58 418.33 146.71 419.95 146.79 422.11 147.47 424.43 147.56 425.72 147.28 430.48 148.92 433.53 150.19 441.91 151.62 443.08 152.46 445.18 153.29 454.07 154.4 456.1 154.34 458.26 153.84 460.33 154.59 462.75 154.58 465.1 155.5 466.99 156.71 469.23 157.35 
M 362.57 137.35 365.15 138.01 367.55 138.94 369.98 139.43 372.63 139.67 375.21 140.51 377.66 141.87 384.21 143.76 386.62 143.71 389.33 144.12 391.54 144.94 393.46 146.34 395.39 146.98 399.71 148.04 402.38 148.44 412.85 152.28 415.16 152.55 417.36 152.53 419.24 153.48 421.68 153.89 425.57 155.03 429.41 156.39 432.02 156.64 435.3 156.6 437.69 156.94 
M 359.97 139 364.95 140.36 367.3 141.36 372.56 143.13 374.9 144.02 376.94 145.29 384.15 147.54 388.65 149.58 393.38 151.38 394.84 151.76 396.96 152.8 401.38 153.55 409.9 156.78 411.79 157.1 414.12 158.14 415.82 158.09 
M 356.96 140.2 359.87 141.46 365.01 143.3 369.81 145.47 374.34 148.03 376.94 148.36 379.28 149.02 381.57 150.02 383.55 151.01 385.86 152.6 388.21 153.97 390.48 154.69 394.1 156.18 399.29 157.63 401.76 159.01 403.64 160.97 405.97 161.82 408.06 161.53 410.86 161.91 413.26 162.74 417.53 164.54 420.37 164.73 422.99 165.5 427.09 168.76 431.58 171.11 432.85 171.07 435.9 171.61 438.11 172.5 444.47 176.23 
M 362.55 145.33 371.69 150.31 374.18 151.38 376.64 151.54 378.62 152.25 382.33 154.36 384.51 156.02 386.56 157.21 388.51 157.83 391.11 159.38 397.47 162.39 399.64 163.2 402.62 163.88 405.28 164.14 406.94 164.82 409.09 165.43 410.9 167.71 413.17 169.27 419.79 171.64 422.22 173.16 424.4 174.22 426.6 175.62 427.23 176.66 428.43 177.91 
M 359.96 146.52 364.37 149.64 371.14 153.14 373.3 154.04 377.84 155.28 379.57 156.52 381.8 157.8 383.58 159.46 385.99 160.94 390.38 164.07 394.5 165.89 397.47 166.55 399.21 167.91 402.1 168.46 406 171.16 
M 364.15 152.43 366.19 153.73 368.58 154.88 373.28 156.77 375.21 157.77 381.19 162.18 383.89 163.69 387.44 167.87 389.7 169.42 391.79 169.7 393.9 170.34 395.82 171.82 400.65 174.37 402.97 176.18 404.73 178.25 406.76 179.76 407.95 180.22 
M 55.66 116.25 57.95 112.43 59.92 109.76 62.78 107.01 66.4 104.53 70.57 102.59 84.26 96.82 93.41 93.39 106.26 89.58 109.93 88.73 113.03 88.16 115.38 87.92 116.56 88.04 118.94 92.08 122.07 104.53 123.37 112.93 124.37 117.08 126.02 125.44 126.53 129.66 126.62 133.92 126.03 146.82 126.8 151.01 127.89 155.15 128.38 159.37 128.22 163.67 126.14 168.12 116.78 167.5 109.73 166.45 103.43 165.26 97.67 163.78 92.23 161.73 87.2 159.27 82.47 156.57 78.06 153.47 
M 76.87 152.36 73.83 149.45 70.43 144.97 65.04 136.56 60.49 129.98 58.41 126.63 
M 107.05 112.13 107.64 115.72 107.93 119.11 107.72 122.27 106.28 127.86 105.79 130.38 105.7 132.87 106.73 135.32 108.31 137.84 109.68 140.72 110.78 144.04 110.44 147.95 104.15 148.23 94.85 148.39 90.39 148.14 85.92 147.19 81.63 145.58 77.54 143.42 
M 77.15 152.78 72.14 145.7 68.3 140.89 64.88 136.16 58.24 126.38 53.65 120 53.15 118.03 54.28 116.39 56.2 116.19 57.7 117.51 65.23 131.25 70.31 139.8 74.55 146.45 78.43 153.23 
M 76.25 153.55 66.18 151.77 56.32 150.33 48.56 149 43 147.61 41.04 147.27 33.22 146.22 31.24 145.73 29.99 144.13 30.45 142.21 32.31 141.24 43.65 143.99 54.84 147.34 64.35 149.47 76.98 152.73 
M 77.41 152.85 78.17 153.06 
M 81.77 120.85 80.78 117.1 81.06 113.24 82.59 109.68 85.18 106.8 88.57 104.92 92.38 104.25 96.21 104.85 99.64 106.66 102.29 109.48 103.88 113.01 104.24 116.87 103.32 120.64 101.24 123.9 98.2 126.31 94.55 127.6 90.68 127.64 87 126.42 83.92 124.07 81.77 120.85 
M 81.63 120.52 80.86 117.71 80.8 114.8 81.45 111.96 82.04 110.63 83.68 108.23 85.86 106.3 87.11 105.55 89.85 104.55 92.74 104.25 94.2 104.37 97 105.14 
M 83.08 119.92 82.67 118.72 82.31 116.23 82.36 114.96 82.68 113.35 
M 85.36 108.77 86.75 107.6 87.84 106.95 90.2 106.08 92.71 105.82 95.21 106.19 96.4 106.6 
M 84.54 119.31 83.97 117.26 83.88 116.19 83.93 115.13 84.31 113.38 
M 86.49 109.86 88.56 108.35 90.56 107.62 91.61 107.44 93.74 107.48 95.8 108.05 
M 85.99 118.71 85.71 117.89 85.46 116.16 85.82 113.81 
M 87.63 110.94 89.28 109.75 90.91 109.15 92.65 108.97 93.52 109.04 95.2 109.5 
M 88.21 117.95 87.81 116.45 87.93 114.91 88.08 114.55 
M 89.29 112.64 89.57 112.33 90.93 111.58 92.45 111.31 93.99 111.55 95.36 112.27 96.42 113.4 97.05 114.81 97.2 116.36 96.83 117.86 96 119.17 94.78 120.13 93.32 120.65 91.77 120.67 90.3 120.18 89.07 119.24 88.21 117.95 
M 90.52 111.81 89.81 113.21 
M 89 114.83 87.94 116.95 
M 91.9 111.41 90.59 114.02 
M 90.05 115.1 88.45 118.31 
M 93.08 111.41 91.37 114.82 
M 91.14 115.29 89.14 119.29 
M 94.14 111.63 89.99 119.94 
M 95.08 112.13 90.94 120.39 
M 95.9 112.85 91.99 120.66 
M 96.6 113.81 93.18 120.65 
M 97.09 115.19 94.58 120.2 
M 72.15 147.24 74.63 149.72 
M 62.45 132.82 63.17 133.53 
M 57.3 113.5 61.04 117.24 
M 59.22 110.7 61.87 113.34 
M 61.49 108.25 64.27 111.03 
M 64.08 106.12 66.6 108.64 
M 66.96 104.27 70.48 107.79 
M 70.18 102.77 72.78 105.37 
M 73.52 101.39 77.96 105.83 
M 76.84 99.99 79.84 102.98 
M 80.13 98.55 84.49 102.92 
M 83.45 97.16 87.73 101.43 
M 86.82 95.8 90.91 99.89 
M 90.24 94.5 93.05 97.31 
M 93.75 93.29 97.81 97.35 
M 97.4 92.21 100.56 95.38 
M 101.01 91.1 105.11 95.2 
M 104.66 90.03 107.77 93.15 
M 108.42 89.08 112.97 93.63 
M 112.35 88.29 115.36 91.29 
M 114.76 90.92 114.33 91.17 113.92 91.13 113.41 90.65 112.45 89.13 112.03 88.86 110.95 88.7 
M 73.34 135.92 70.84 137.19 69.73 137.22 68.49 136.72 
M 120.27 150.3 119.3 151.09 118.43 152.18 114.86 154.16 114.24 154.62 113.6 155.51 
M 120.52 98.49 117.66 99.71 117.22 99.53 116.73 98.92 
M 87.83 138 86.65 138.28 84.86 138.36 83.23 138.65 82.72 138.61 82.58 138.16 
M 97.57 131.31 98.51 130.49 99.59 128.45 99.58 127.55 98.88 125.77 
M 122.74 112.68 122.6 111.1 122.7 110.26 122.9 109.92 
M 71.91 132.5 69.8 134.09 67.52 135.14 
M 82.93 142.63 82.63 141.76 82.23 141.21 
M 116.31 98.75 115.14 96.33 114.54 95.47 113.97 93.9 
M 105.3 95.69 106.11 94.56 106.62 93.16 107.12 89.38 
M 92.98 100.31 93.98 100.43 94.42 100.75 95.13 102.29 95.15 103.67 
M 93.4 144.27 93.75 144.14 94.36 144.26 95.83 145.2 95.87 145.78 95.2 146.42 
M 79.59 128 78.72 128.37 78.3 129.02 78.34 131.25 78.54 131.87 80.39 133.94 81.93 135.17 
M 79.97 152.37 79.86 152.66 79.59 152.76 78.9 152.47 
M 94.82 101.5 95.21 102.65 95.15 103.79 95.31 104.71 
M 110.98 135.87 110.89 136.65 111.95 139.73 114.03 142.53 114.31 143.53 
M 111.15 141.42 111.81 142.34 112.73 144.22 112.33 145.96 111.73 146.43 
M 103.43 165.26 104.18 164.28 104.51 163.3 104.5 162.75 
M 110.6 144.68 111.01 145.8 110.48 146.46 
M 84.99 142.69 83.26 142.32 82.43 141.46 
M 92.94 159.03 93.75 157.07 94.18 155.05 94.16 154.15 93.88 153.28 
M 115.97 148.35 115.44 148.54 113.32 148.74 111.55 148.44 110.18 147.68 
M 69.52 105.94 69.07 104.69 68.67 104.18 68.06 103.76 
M 75.95 126.88 76.41 128.06 76.81 129.89 76.94 131.66 76.67 134.29 
M 65.7 128.23 63.92 128.69 
M 60.99 130.39 60.78 130.39 
M 126.38 138.28 124.05 136.77 
M 100.04 102.6 98.86 106.25 
M 118.07 133.49 117.02 131.88 116.19 131.61 115.48 131.81 114.73 132.25 113.46 133.58 
M 70.46 124.17 72.74 125.06 73.52 125.57 74.37 126.47 75.41 128.33 75.62 128.96 75.9 130.46 75.78 131.4 
M 107.45 114.33 105.48 113.37 103.5 112.17 
M 110.45 116.22 108.32 114.99 105.14 113.73 103.75 112.73 
M 79 115.13 77.51 114.9 75.84 116.07 
M 84.75 130.75 85.41 131.45 85.82 131.57 87.34 131.37 89.44 129.7 89.69 129.09 
M 81.27 112.77 80.8 112.47 
M 105.27 165.61 105.22 164.79 105.71 163.4 
M 109.41 99 109.17 96.54 109.77 94.44 109.22 92.35 109.19 91.23 
M 88.87 104.87 90.81 103.15 
M 75.77 132.43 74.87 133.08 73.57 133.57 71.43 134.8 70 135.42 67.99 135.91 
M 94.06 95.11 95.44 92.79 
M 111.05 123.9 112.7 121.42 112.85 120.66 112.57 119.9 110.63 117.85 
M 125.48 122.74 123.92 122.74 120.89 121.72 120.25 121.16 120.02 120.11 
M 93.44 153.47 92.91 151.68 89.58 148.68 87.9 145.73 
M 95.37 146.41 93.26 147.35 92.5 147.5 91.61 147.36 90.77 146.82 90.26 146.27 89.64 145.13 89.25 144.78 86.48 144.17 
M 125.98 133.91 126.18 135.52 126.09 135.94 125.42 136.58 124.36 136.71 
M 123.2 136.66 123.69 136.29 123.95 136.32 
M 73.33 131.67 71.36 132.52 70.04 133.68 68.7 134.54 67.48 135.08 
M 116.8 116.36 116.67 115.39 116.38 114.73 115.7 113.65 115.24 113.26 114.07 112.69 109.73 111.46 107.67 110.44 
M 110.54 135.96 110.69 137.12 111.68 139.81 113.94 142.59 114.27 143.57 
M 81.95 140.41 81.97 139.79 82.5 138.78 
M 120.61 98.83 119.56 99.2 118.51 99.85 
M 77.82 133.13 78.85 134.48 80.02 135.46 81.46 135.71 82.54 136.18 
M 108.24 126.65 108.96 125.77 110 125.1 110.79 124.29 112.47 121.88 112.87 120.67 
M 104.76 153.1 102.17 150.62 101.54 148.79 100.97 147.66 100.54 147.24 98.52 146.58 
M 78.79 154.24 77.99 154.92 77.45 155.67 77.1 156.56 76.96 158.55 77.2 159.54 77.66 160.45 78.33 161.22 79.19 161.79 80.2 162.11 81.29 162.15 82.39 161.98 83.46 161.59 87.64 159.41 85.6 160.58 83.67 161.98 82.58 162.54 81.38 162.88 80.1 162.99 78.81 162.75 77.62 162.16 76.62 161.27 75.86 160.15 75.37 158.89 75.16 157.55 75.22 156.18 75.57 154.82 76.25 153.55 77.12 152.57 
M 78.02 153.5 78.38 154.06 
M 75.67 150.57 75.7 150.82 75.86 150.86 
M 73.53 147.62 73.45 148.24 73.94 148.18 
M 71.46 144.78 71.2 145.66 71.91 145.4 
M 69.28 142.12 68.94 143.08 69.39 142.71 69.71 142.65 
M 67.17 139.35 66.69 140.5 67.22 139.99 67.57 139.89 
M 65.13 136.5 64.79 136.87 64.43 137.92 65.05 137.27 65.57 137.1 
M 63.19 133.57 62.62 134.15 62.18 135.34 62.87 134.55 63.63 134.27 
M 61.21 130.69 60.44 131.43 59.92 132.76 60.7 131.83 61.73 131.41 
M 59.21 127.84 58.27 128.71 57.67 130.18 58.53 129.1 59.73 128.6 
M 57.2 125.01 56.1 125.99 55.42 127.6 56.35 126.38 57.77 125.75 
M 55.14 122.21 53.93 123.26 53.16 125.02 54.18 123.66 55.68 122.97 
M 53.43 119.12 51.75 120.54 50.91 122.44 52.01 120.94 53.73 120.12 
M 78.1 153.43 78.73 153.57 
M 70.97 151.16 71.28 151.02 71.31 151.24 
M 67.31 150.26 67.94 149.83 67.94 150.42 
M 63.79 149.34 64.6 148.64 64.44 149.16 64.51 149.52 
M 60.2 148.56 60.55 147.98 61.26 147.45 61.01 148.08 61.08 148.74 
M 56.65 147.78 57.11 146.91 57.92 146.26 57.57 147.01 57.63 148 
M 53.19 146.84 53.67 145.84 54.58 145.08 54.14 145.94 54.17 147.13 
M 49.78 145.78 50.24 144.76 51.24 143.89 50.7 144.86 50.7 146.06 
M 46.34 144.78 46.8 143.69 47.9 142.7 47.26 143.79 47.23 145.04 
M 42.89 143.8 43.37 142.62 44.56 141.51 43.83 142.72 43.77 144.02 
M 39.39 142.96 39.93 141.54 41.22 140.32 40.39 141.64 40.3 143.18 
M 35.9 142.09 36.49 140.47 37.87 139.13 36.96 140.57 36.83 142.32 
M 32.39 141.26 33.06 139.4 34.53 137.94 33.52 139.5 33.36 141.44 
M 39.73 147.05 45.24 149.58 51.7 152.27 58.11 154.71 64.58 156.54 75.36 158.8 
M 77.11 159.14 85.3 160.59 
M 85.54 160.63 92.23 161.73 
M 120.36 97.89 120.62 98.14 
M 116.81 88.04 124.03 95.26 
M 122.25 87.19 130.67 95.61 
M 127.73 86.37 134.74 93.38 
M 133.27 85.61 138.97 91.31 
M 138.81 84.86 143.86 89.91 
M 144.36 84.11 150.19 89.94 
M 150.12 83.57 155.41 88.87 
M 156.03 83.19 164.99 92.15 
M 162.48 83.34 169.69 90.56 
M 169.35 83.92 176.12 90.69 
M 176.51 84.78 184.05 92.33 
M 183.8 85.78 189.22 91.2 
M 190.76 86.44 196.59 92.28 
M 197.76 87.15 204.94 94.33 
M 204.84 87.93 211.81 94.9 
M 212.08 88.87 220.8 97.6 
M 219.03 89.53 224 94.51 
M 225.75 89.96 231.04 95.25 
M 232.3 90.21 238.01 95.92 
M 238.82 90.44 247.37 98.98 
M 245.45 90.77 254.87 100.19 
M 252.17 91.19 259.6 98.63 
M 259.03 91.76 267.12 99.84 
M 265.72 92.15 271.62 98.05 
M 272.34 92.48 279.52 99.66 
M 278.96 92.8 284.57 98.41 
M 285.76 93.3 294.05 101.6 
M 292.62 93.87 299.56 100.81 
M 299.53 94.49 305.35 100.3 
M 306.53 95.19 315.47 104.13 
M 313.62 95.98 321.18 103.54 
M 320.78 96.84 327.5 103.56 
M 327.96 97.74 334.07 103.84 
M 335.32 98.8 340.12 103.6 
M 343.01 100.19 351.99 109.17 
M 351.21 102.09 358.77 109.65 
M 361.9 106.49 365.11 109.7 
M 132.71 166.25 135.07 170.98 
M 133.55 162.43 133.63 162.6 
M 135.74 166.82 137.15 169.64 
M 126.19 142.2 126.64 143.11 
M 127.1 138.52 129.1 142.51 
M 130.18 139.16 131.29 141.38 
M 125.98 125.25 127.68 128.65 
M 125.23 118.24 130.86 129.5 
M 123.48 109.23 126.29 114.87 
M 131.22 124.72 133.33 128.94 
M 137.56 137.39 137.76 137.81 
M 120.12 97.02 121.03 98.82 
M 122.43 101.64 130.88 118.53 
M 134.4 125.57 135.81 128.38 
M 118.28 87.81 132.71 116.67 
M 134.11 119.49 138.34 127.94 
M 120.83 87.41 123.29 92.34 
M 126.11 97.97 131.04 107.83 
M 136.67 119.09 140.89 127.53 
M 123.39 87.01 125.14 90.53 
M 128.66 97.57 131.48 103.2 
M 139.93 120.1 140.63 121.5 
M 125.94 86.61 127.7 90.13 
M 130.51 95.76 131.22 97.17 
M 131.92 98.58 133.33 101.4 
M 134.03 102.8 134.74 104.21 
M 148.11 130.96 149.54 133.82 
M 128.52 86.26 134.5 98.23 
M 135.91 101.04 136.61 102.45 
M 138.72 106.67 140.13 109.49 
M 142.24 113.71 142.95 115.12 
M 145.76 120.75 146.47 122.16 
M 150.69 130.6 152.58 134.38 
M 131.1 85.91 141.3 106.32 
M 144.12 111.95 145.53 114.77 
M 147.64 118.99 148.34 120.4 
M 152.56 128.85 153.97 131.66 
M 133.67 85.56 144.58 107.38 
M 145.99 110.19 147.4 113.01 
M 150.22 118.64 150.92 120.05 
M 154.44 127.09 155.14 128.5 
M 136.25 85.21 157.72 128.14 
M 138.83 84.86 147.63 102.46 
M 148.34 103.86 160.3 127.79 
M 141.41 84.51 148.8 99.29 
M 150.21 102.11 162.88 127.44 
M 143.99 84.16 152.09 100.35 
M 153.49 103.16 163.35 122.87 
M 164.76 125.69 165.46 127.09 
M 146.6 83.87 146.95 84.57 
M 150.47 91.61 153.99 98.65 
M 156.1 102.87 164.55 119.77 
M 166.66 123.99 168.07 126.8 
M 152.41 89.98 158.04 101.24 
M 158.75 102.65 162.97 111.1 
M 163.67 112.51 167.19 119.54 
M 151.89 83.43 152.24 84.13 
M 155.06 89.76 170.54 120.73 
M 157 88.13 164.04 102.21 
M 166.15 106.43 172.48 119.1 
M 159.06 86.74 164.69 98 
M 168.21 105.04 168.91 106.45 
M 172.43 113.49 175.24 119.12 
M 161.14 85.4 166.77 96.66 
M 167.47 98.07 168.18 99.48 
M 170.29 103.7 171.7 106.52 
M 174.51 112.15 176.62 116.37 
M 162.87 83.35 167.44 92.5 
M 168.85 95.32 173.78 105.17 
M 165.71 83.52 176.62 105.34 
M 168.62 83.84 182.35 111.29 
M 171.54 84.17 177.52 96.14 
M 178.93 98.95 179.64 100.36 
M 181.75 104.58 186.67 114.44 
M 187.38 115.84 189.49 120.07 
M 174.46 84.5 180.44 96.47 
M 184.67 104.91 191.71 118.99 
M 177.42 84.91 184.1 98.28 
M 186.92 103.91 192.55 115.17 
M 180.37 85.31 194.1 112.76 
M 183.33 85.71 195.65 110.35 
M 186.23 86.01 193.62 100.79 
M 219.32 152.18 221.78 157.1 
M 189.13 86.29 197.22 102.48 
M 221.45 150.93 226.08 160.19 
M 192.02 86.56 205.74 114.01 
M 226.16 154.84 227.56 157.65 
M 195.27 87.56 200.9 98.82 
M 204.42 105.86 207.94 112.89 
M 229.05 155.13 230.46 157.94 
M 198.17 87.86 202.4 96.3 
M 208.03 107.57 208.73 108.97 
M 231.26 154.02 231.96 155.43 
M 201.08 88.16 203.9 93.79 
M 234.87 155.73 236.27 158.55 
M 242.61 171.22 244.02 174.03 
M 209.62 99.74 211.74 103.96 
M 217.37 115.23 221.13 122.75 
M 237.08 154.64 238.48 157.46 
M 244.82 170.13 246.23 172.94 
M 209.05 93.09 214.68 104.35 
M 218.2 111.39 225.2 125.39 
M 209.53 88.54 224.67 118.81 
M 234.52 138.52 236.63 142.74 
M 212.48 88.93 226.21 116.38 
M 237.47 138.9 238.17 140.31 
M 215.02 88.49 227.33 113.13 
M 239.3 137.06 242.12 142.69 
M 244.23 146.91 245.64 149.73 
M 216.73 86.41 229.75 112.45 
M 234.68 122.3 236.79 126.53 
M 241.72 136.38 243.12 139.2 
M 218.44 84.32 232.17 111.77 
M 237.8 123.04 239.21 125.85 
M 244.13 135.71 245.54 138.52 
M 220.15 82.24 235.99 113.91 
M 240.92 123.77 241.62 125.18 
M 242.33 126.58 243.03 127.99 
M 246.55 135.03 247.25 136.44 
M 259.92 161.78 261.33 164.59 
M 221.87 80.16 238.41 113.24 
M 242.63 121.68 245.45 127.32 
M 246.85 130.13 248.97 134.35 
M 257.41 151.25 259.52 155.47 
M 260.93 158.29 262.34 161.1 
M 223.58 78.07 233.08 97.08 
M 233.79 98.48 235.19 101.3 
M 236.6 104.12 240.12 111.15 
M 245.75 122.42 247.16 125.23 
M 249.97 130.86 252.79 136.49 
M 259.12 149.16 261.94 154.79 
M 263.35 157.61 264.05 159.02 
M 225.29 75.99 235.5 96.4 
M 248.17 121.74 248.87 123.15 
M 252.39 130.19 255.21 135.82 
M 260.13 145.67 263.65 152.71 
M 227 73.9 236.51 92.91 
M 237.91 95.72 239.32 98.54 
M 254.81 129.51 257.62 135.14 
M 263.25 146.4 263.96 147.81 
M 274.61 169.11 275.05 170 
M 228.72 71.82 238.92 92.23 
M 240.33 95.05 241.74 97.86 
M 250.18 114.76 253.7 121.8 
M 264.97 144.32 265.67 145.73 
M 266.37 147.13 268.49 151.36 
M 277.02 168.42 277.45 169.3 
M 230.43 69.74 240.63 90.15 
M 250.49 109.86 256.82 122.53 
M 265.97 140.83 272.31 153.5 
M 232.14 67.65 243.76 90.88 
M 248.68 100.73 255.72 114.81 
M 256.42 116.22 259.24 121.85 
M 262.76 128.89 265.58 134.52 
M 266.28 135.93 269.8 142.97 
M 270.5 144.38 274.02 151.41 
M 233.85 65.57 234.91 67.68 
M 237.02 71.9 256.03 109.91 
M 258.14 114.14 258.84 115.54 
M 260.25 118.36 261.66 121.18 
M 269.4 136.66 270.1 138.07 
M 239.36 71.08 239.64 71.63 
M 242.97 78.28 244.73 81.82 
M 245.58 83.51 258.6 109.56 
M 260.01 112.37 264.23 120.82 
M 269.16 130.67 271.27 134.9 
M 251.1 89.03 258.13 103.11 
M 262.36 111.56 266.58 120.01 
M 272.92 132.67 273.62 134.08 
M 255.05 91.43 257.51 96.36 
M 265.25 111.84 268.77 118.88 
M 273 127.33 273.7 128.73 
M 274.4 130.14 275.11 131.55 
M 275.81 132.96 276.51 134.37 
M 282.85 147.04 284.26 149.85 
M 290.59 162.52 291.96 165.26 
M 257.92 91.67 261.09 98 
M 269.53 114.9 270.94 117.71 
M 273.76 123.34 275.87 127.57 
M 285.72 147.27 286.43 148.68 
M 294.32 164.47 294.83 165.48 
M 260.79 91.91 266.78 103.87 
M 267.48 105.28 268.89 108.1 
M 271 112.32 271.7 113.73 
M 275.93 122.17 279.45 129.21 
M 263.62 92.05 267.49 99.79 
M 269.6 104.01 271.01 106.83 
M 273.12 111.05 274.53 113.87 
M 278.05 120.9 279.46 123.72 
M 266.44 92.19 270.31 99.93 
M 271.72 102.74 273.83 106.97 
M 275.24 109.78 276.65 112.6 
M 280.17 119.64 280.87 121.04 
M 293.54 146.38 295.65 150.61 
M 269.27 92.33 282.99 119.78 
M 296.37 146.52 297.77 149.34 
M 272.09 92.46 285.82 119.91 
M 298.49 145.25 300.6 149.48 
M 301.3 150.88 302.71 153.7 
M 274.91 92.6 289.34 121.46 
M 299.2 141.17 302.01 146.8 
M 277.74 92.74 278.09 93.44 
M 278.79 94.85 291.46 120.19 
M 294.28 125.82 295.68 128.63 
M 280.57 92.89 290.77 113.3 
M 292.18 116.12 294.29 120.34 
M 296.4 124.57 297.11 125.97 
M 283.43 93.12 292.94 112.12 
M 295.05 116.35 295.75 117.75 
M 297.86 121.98 298.57 123.38 
M 286.3 93.34 296.51 113.76 
M 299.32 119.39 300.73 122.2 
M 289.17 93.57 290.22 95.68 
M 290.93 97.09 297.97 111.17 
M 314.16 143.54 316.97 149.18 
M 293.1 95.93 295.22 100.16 
M 297.33 104.38 300.85 111.42 
M 312.81 135.35 316.33 142.39 
M 317.74 145.2 319.15 148.02 
M 295.28 94.78 297.39 99 
M 300.21 104.63 303.03 110.27 
M 313.58 131.38 319.21 142.64 
M 321.33 146.87 323.44 151.09 
M 297.81 94.33 299.57 97.85 
M 302.39 103.48 304.5 107.71 
M 315.76 130.23 319.28 137.27 
M 319.99 138.68 321.39 141.49 
M 322.8 144.31 325.62 149.94 
M 300.7 94.6 302.46 98.12 
M 317.95 129.09 321.47 136.13 
M 322.17 137.54 324.99 143.17 
M 329.21 151.62 329.91 153.03 
M 303.6 94.89 308.18 104.04 
M 320.14 127.98 325.07 137.83 
M 330 147.68 332.11 151.91 
M 306.85 95.89 312.48 107.15 
M 313.89 109.97 315.3 112.78 
M 324.45 131.08 327.97 138.12 
M 330.79 143.75 334.31 150.79 
M 309.76 96.19 317.5 111.67 
M 326.65 129.97 330.87 138.42 
M 334.39 145.46 335.8 148.27 
M 312.69 96.53 318.32 107.8 
M 328.87 128.91 332.39 135.95 
M 334.51 140.17 335.91 142.99 
M 315.26 96.18 320.54 106.73 
M 331.8 129.26 333.91 133.48 
M 318.19 96.52 321.36 102.86 
M 321.12 96.89 321.48 97.59 
M 327.81 110.26 328.52 111.67 
M 335.55 125.74 336.96 128.56 
M 342.59 139.82 344 142.64 
M 344.7 144.05 347.52 149.68 
M 336.38 121.89 339.9 128.92 
M 344.83 138.78 351.21 151.54 
M 327 97.62 331.57 106.77 
M 338.61 120.84 342.13 127.88 
M 347.76 139.14 349.87 143.37 
M 351.28 146.18 353.28 150.18 
M 329.96 98.02 333.83 105.76 
M 340.87 119.84 344.38 126.88 
M 354.24 146.59 355.83 149.77 
M 332.92 98.45 334.68 101.97 
M 341.72 116.05 343.83 120.27 
M 357.21 147.02 357.75 148.09 
M 341.17 109.44 341.88 110.85 
M 343.99 115.07 346.8 120.7 
M 351.73 130.56 353.14 133.37 
M 342.77 107.12 350.51 122.6 
M 342.3 100.68 343.01 102.09 
M 343.71 103.5 351.45 118.98 
M 357.08 130.24 358.49 133.06 
M 345.01 100.58 350.99 112.55 
M 359.44 129.44 362.25 135.07 
M 348.09 101.24 351.96 108.99 
M 362.52 130.1 363.93 132.92 
M 351.28 102.11 353.75 107.04 
M 364.3 128.16 366.58 132.71 
M 354.47 102.98 355.53 105.09 
M 360.45 114.95 362.57 119.17 
M 357.81 104.15 358.16 104.85 
M 363.09 114.7 365.2 118.93 
M 365.54 114.1 366.58 116.19 
M 221.03 292.89 220.91 292.3 220.49 291.7 219.98 291.39 218.78 291.39 218.09 291.7 217.31 292.3 216.83 292.89 216.26 293.8 215.81 295.3 215.96 296.8 216.38 297.39 216.88 297.7 218.09 297.7 218.78 297.39 219.56 296.8 220.04 296.2 
M 223.58 291.39 221.69 297.7 
M 222.59 294.7 223.76 293.8 224.45 293.5 225.35 293.5 225.86 293.8 225.89 294.7 224.99 297.7 
M 231.95 293.5 230.69 297.7 
M 231.68 294.39 231.26 293.8 230.75 293.5 229.85 293.5 229.16 293.8 228.38 294.39 227.81 295.3 227.63 295.89 227.66 296.8 228.08 297.39 228.59 297.7 229.49 297.7 230.18 297.39 230.96 296.8 
M 233.51 295.3 237.11 295.3 237.29 294.7 237.17 294.1 236.45 293.5 235.55 293.5 234.86 293.8 234.08 294.39 233.51 295.3 233.33 295.89 233.36 296.8 233.78 297.39 234.29 297.7 235.19 297.7 235.88 297.39 236.66 296.8 
M 239.75 293.5 238.49 297.7 
M 239.21 295.3 239.78 294.39 240.56 293.8 241.25 293.5 242.15 293.5 
M 244.85 293.5 244.16 293.8 243.38 294.39 242.81 295.3 242.63 295.89 242.66 296.8 243.08 297.39 243.59 297.7 244.49 297.7 245.18 297.39 245.96 296.8 246.53 295.89 246.71 295.3 246.68 294.39 246.26 293.8 245.75 293.5 244.85 293.5 
M 252.38 294.39 251.96 293.8 251.45 293.5 250.55 293.5 249.86 293.8 249.08 294.39 248.51 295.3 248.33 295.89 248.36 296.8 248.78 297.39 249.29 297.7 250.19 297.7 250.88 297.39 251.66 296.8 
M 253.91 295.3 257.51 295.3 257.69 294.7 257.57 294.1 256.85 293.5 255.95 293.5 255.26 293.8 254.48 294.39 253.91 295.3 253.73 295.89 253.76 296.8 254.18 297.39 254.69 297.7 255.59 297.7 256.27 297.39 257.06 296.8 
M 260.14 293.5 258.89 297.7 
M 259.78 294.7 260.96 293.8 261.64 293.5 262.55 293.5 263.06 293.8 263.09 294.7 262.19 297.7 
M 266.77 291.39 265.25 296.5 265.27 297.39 265.78 297.7 266.39 297.7 
M 265.25 293.5 267.35 293.5 
M 270.08 291.39 268.19 297.7 
M 271.85 293.5 270.95 296.5 270.98 297.39 271.49 297.7 272.39 297.7 273.08 297.39 274.25 296.5 
M 275.14 293.5 273.89 297.7 
M 280.27 294.39 280.15 293.8 279.35 293.5 278.45 293.5 277.45 293.8 276.98 294.39 277.1 295 277.61 295.3 279.02 295.6 279.52 295.89 279.56 296.8 279.08 297.39 278.08 297.7 277.19 297.7 276.38 297.39 276.26 296.8 
M 285.05 293.5 285.58 297.7 
M 288.64 293.5 285.58 297.7 
M 293.75 293.5 292.49 297.7 
M 293.48 294.39 293.06 293.8 292.55 293.5 291.64 293.5 290.95 293.8 290.18 294.39 289.61 295.3 289.43 295.89 289.45 296.8 289.88 297.39 290.39 297.7 291.29 297.7 291.98 297.39 292.76 296.8 
M 299.14 293.5 294.58 297.7 
M 295.85 293.5 299.14 293.5 
M 294.58 297.7 297.89 297.7 
M 301.58 291.39 301.79 291.7 302.18 291.39 301.96 291.1 301.58 291.39 
M 301.25 293.5 299.99 297.7 
M 302.87 297.1 302.48 297.39 302.69 297.7 303.08 297.39 302.87 297.1 
"/></svg>
