<svg xmlns="http://www.w3.org/2000/svg" width="520" height="320"><rect x="0" y="0" width="520" height="320" fill="floralwhite"/><rect x="10" y="10" width="500" height="300" stroke="black" stroke-width="1" fill="none"/><path stroke="black" stroke-width="1" fill="none" stroke-linecap="round" stroke-linejoin="round" d="
M 158.79 98.97 166.76 94.89 182.67 87.3 198.58 80.24 206.53 77.26 222.44 72.35 230.39 70.65 238.35 69.64 246.3 69.81 262.21 73.73 270.17 75.01 278.12 76.77 286.08 79.03 294.03 82.01 317.9 93.41 349.71 109.19 365.62 116.65 
M 365.62 163.27 349.71 171.4 341.76 175.22 325.85 182.71 317.9 186.05 309.94 188.49 294.03 193.77 286.08 196.1 278.12 198.82 270.17 200.52 246.3 202.78 238.35 202.78 222.44 201.24 214.49 200.29 206.53 197.98 198.58 195.02 182.67 189.89 166.77 184.04 
M 158.9 99.32 159.79 98.46 
M 161.89 109.05 165.71 106.46 168.29 103.38 168.29 101.48 165.71 98.4 163.21 96.71 
M 159.25 100.47 163.8 100.06 
M 159.93 102.69 163.82 102.75 
M 160.48 104.57 163.47 104.88 
M 166.86 103.91 168.7 102.68 171.06 99.53 172.58 95.97 172.58 93.76 171.97 92.35 
M 166.6 94.97 170.06 94.9 
M 165.18 96.75 169.78 97.26 
M 167.4 121.5 170.02 120.42 173.55 117.51 175.82 114.21 175.82 112.17 173.55 108.87 170.02 105.96 167.27 104.82 
M 164.94 111.37 171.64 110.68 
M 164.53 113.45 171.85 113.54 
M 164.86 114.98 171.95 115.55 
M 168.56 127.91 169.85 126.52 169.85 124.5 167.51 121.98 
M 175.01 111.48 175.34 111.3 178.45 107.98 180.45 104.22 180.45 101.89 178.45 98.12 175.34 94.8 172.91 93.5 
M 170.31 101.39 176.95 99.9 
M 170.27 103.03 176.85 103.19 
M 170.85 105.3 177.09 105.8 
M 171.64 130.54 175.01 129.27 179.33 126.03 182.11 122.36 182.11 120.08 179.33 116.41 175.01 113.17 171.64 111.9 
M 168.44 119.61 177.17 118.68 
M 168.72 121.08 177.23 121.42 
M 168.38 123.33 176.74 124.19 
M 171.76 146.15 176.67 143.24 180.08 139.67 180.08 137.46 176.67 133.9 171.37 130.75 168.86 130.01 
M 170.91 136.25 173.84 136.06 
M 171.65 138.32 174.1 138.21 
M 171.9 140.78 173.88 140.96 
M 172.55 157.68 174.01 156.2 174.01 154.05 171.53 151.52 
M 176.76 101.35 178.39 99.97 180.48 96.43 181.83 92.42 181.83 89.93 181.17 87.99 
M 175.2 91.34 179.37 91.13 
M 175.08 93 179.34 94.4 
M 181.12 123.28 182.61 122.13 185.01 118.44 186.56 114.26 186.56 111.68 185.01 107.5 182.61 103.81 180.74 102.37 
M 178.77 110.76 183.68 109.75 
M 178.67 112.87 183.71 113.08 
M 178.92 115.04 183.76 115.94 
M 180.09 143.23 183.04 141.87 186.82 138.38 189.25 134.44 189.25 131.99 186.82 128.05 183.04 124.56 181.12 123.67 
M 176.94 131.27 184.96 130.26 
M 177.16 133.03 185.19 133.09 
M 178.18 135.12 185.2 135.92 
M 187.5 152.09 187.5 151.71 184.77 148.16 180.52 145.02 177.2 143.8 
M 173.72 150.71 182.21 150.1 
M 173.99 152.99 182.5 152.82 
M 174.15 154.68 180.88 155.42 
M 172.7 172.13 174.37 171.05 
M 179.03 89.26 180.52 88.3 
M 183.68 111.07 185.83 109.6 188.59 105.81 190.36 101.53 190.36 98.88 188.59 94.59 185.83 90.81 183.68 89.33 
M 181.44 98.08 187.12 96.64 
M 181.31 100.52 186.87 100.54 
M 181.44 102.12 187.33 103.16 
M 186.66 133.56 189.26 132.05 192.58 128.21 194.73 123.85 194.73 121.15 192.58 116.8 189.26 112.95 186.66 111.45 
M 184.12 120.07 190.78 119.26 
M 184.08 122.44 190.78 122.47 
M 183.99 124.59 190.97 125.66 
M 190.63 151.92 193.81 149.2 196.46 145.21 196.46 142.73 193.81 138.74 189.7 135.21 186.49 133.83 
M 183.37 141.78 191.53 141.18 
M 183.25 144.32 191.51 144.01 
M 183.6 146.07 191.69 146.87 
M 183.79 153.42 181.9 152.8 
M 188.95 95.48 190.64 92.8 192.16 88.57 192.16 85.96 191.25 83.42 
M 184.69 87.3 189.24 86.94 
M 184.49 89.42 189.55 90.34 
M 190.77 121.39 192.6 119.76 194.94 115.59 196.45 110.86 196.45 107.94 194.94 103.22 192.6 99.04 190.77 97.42 
M 188.84 107 193.57 105.91 
M 189.19 109.11 194.03 109.66 
M 189.01 111.59 193.39 112.95 
M 195.04 146.04 197.04 144.46 199.61 140.42 201.26 135.84 201.26 133.01 199.61 128.43 197.04 124.39 195.04 122.82 
M 193.39 132.27 198.57 131.23 
M 192.84 134.62 198.39 134.67 
M 193.19 136.66 197.99 138.01 
M 199.18 150.38 196.04 146.87 193.61 145.53 
M 189.19 86.86 191.23 85.44 193.33 82.52 
M 195.15 109.46 197.33 107.91 200.13 103.93 201.93 99.43 201.93 96.65 200.13 92.15 197.33 88.17 195.15 86.62 
M 192.85 95.45 198.77 94.27 
M 192.8 98.39 198.42 98.17 
M 193.13 100.11 198.7 101.44 
M 200.67 131.16 203.77 126.92 205.61 122.31 205.61 119.46 203.77 114.85 200.92 110.79 198.7 109.2 
M 196.56 118.37 202.52 117.61 
M 196.75 121.23 202.33 120.95 
M 196.34 123.55 202.57 124.28 
M 206.31 149.96 208.25 145.72 208.25 142.95 206.21 138.47 203.04 134.51 200.67 133.04 
M 198.06 142.39 204.37 141.19 
M 197.82 144.06 204.69 144.2 
M 198.1 146.65 204.42 147.53 
M 199.74 98.68 201.53 97.08 203.82 92.97 205.29 88.32 205.29 85.44 203.82 80.79 202.66 78.71 
M 198.09 84.44 202.72 83.6 
M 197.88 86.8 202.42 86.62 
M 197.78 89.15 202.49 90.45 
M 203.65 119.77 205.47 118.25 207.8 114.37 209.3 109.97 209.3 107.25 207.8 102.85 205.47 98.97 203.65 97.45 
M 202.24 106.27 206.87 104.92 
M 201.66 108.68 206.27 108.45 
M 202.2 110.58 206.65 112.15 
M 205.32 143.1 207.09 141.47 209.36 137.29 210.82 132.57 210.82 129.64 209.36 124.91 207.09 120.74 205.32 119.11 
M 203.3 128.52 208.2 127.63 
M 203.83 130.92 207.9 130.79 
M 203.92 133.71 208.23 134.71 
M 212.56 149.6 210.32 146.05 208.27 144.43 
M 202.87 79.56 203.73 78.31 
M 206.11 107.16 208.16 105.56 210.79 101.46 212.48 96.82 212.48 93.95 210.79 89.3 208.16 85.2 206.11 83.6 
M 203.79 93.04 209.21 91.52 
M 204.48 95.72 209.34 95.51 
M 203.8 97.9 209.6 98.89 
M 209.89 130.42 212.02 128.8 214.75 124.63 216.52 119.91 216.52 116.99 214.75 112.27 212.02 108.1 209.89 106.48 
M 207.6 116.32 213.22 114.99 
M 208.13 118.73 213.66 118.78 
M 208.18 121.17 213.1 121.89 
M 217.6 149.3 219.6 144.26 219.6 141.27 217.75 136.44 214.88 132.18 212.64 130.52 
M 210.7 140.55 216.32 139.43 
M 210.57 143.05 216.12 142.49 
M 210.68 145.26 216.01 146.56 
M 210.38 89.11 211.19 87.41 212.47 82.72 212.47 79.81 211.38 75.82 
M 205.92 78.94 210.44 77.37 
M 206.28 81.1 209.89 81.36 
M 206.02 83.56 209.99 85.08 
M 215.7 114.14 217.23 111.1 218.62 106.27 218.62 103.28 217.23 98.44 215.08 94.18 213.4 92.51 
M 211.66 102.17 215.81 101.31 
M 211.95 104.95 216.44 104.88 
M 211.65 107.3 215.91 108.11 
M 217.19 141.8 219.03 140.1 221.39 135.76 222.91 130.84 222.91 127.8 221.39 122.88 219.03 118.54 217.19 116.84 
M 215.68 126.63 220.13 125.23 
M 215.62 129.27 219.83 129.03 
M 215.69 131.52 220.12 132.88 
M 224.67 150.29 223.91 147.77 221.6 143.4 219.8 141.69 
M 228.24 182.15 228.78 180.69 228.78 179.59 
M 208.65 78.46 210.77 77.13 211.96 75.65 
M 215.55 103.44 217.69 101.78 220.42 97.54 222.19 92.73 222.19 89.76 220.42 84.95 217.69 80.71 215.55 79.05 
M 213.21 88.49 219.3 87.55 
M 213.81 91.25 219.09 91.22 
M 213.5 93.96 219 95.03 
M 220.87 128.37 223.12 126.66 226 122.29 227.86 117.34 227.86 114.27 226 109.32 223.12 104.95 220.87 103.24 
M 218.4 113.06 224.29 111.99 
M 218.89 116.02 224.36 115.52 
M 218.68 118.14 224.81 119.43 
M 227.02 150.65 229.37 147.14 231.25 142.19 231.25 139.13 229.37 134.18 226.45 129.82 224.18 128.11 
M 222.2 138.09 227.72 136.77 
M 221.66 140.6 228.03 140.36 
M 221.92 143.48 227.95 144.26 
M 233.39 182.45 231.1 179.69 229.53 178.75 
M 216.97 88.71 218.87 87.12 221.3 83.04 222.86 78.43 222.86 75.58 221.83 72.55 
M 215.33 74.65 220.17 73.77 
M 214.87 76.88 220.38 77.1 
M 215.1 79.21 219.72 80.39 
M 224.18 114.83 226.18 113.08 228.73 108.59 230.37 103.51 230.37 100.36 228.73 95.27 226.18 90.78 224.18 89.03 
M 221.9 99.33 227.53 97.95 
M 222.13 101.66 227.47 101.97 
M 222.45 104.73 227.59 105.57 
M 230.57 138.18 233.23 133.7 234.87 128.73 234.87 125.65 233.23 120.68 230.68 116.29 228.7 114.58 
M 226.98 124.68 231.66 123.31 
M 226.58 127.38 231.57 127.43 
M 226.86 129.87 231.98 130.8 
M 236.32 155.79 237.1 153.39 237.1 150.33 235.49 145.39 232.99 141.03 231.03 139.33 
M 228.92 149.34 233.9 147.91 
M 231.48 151.8 234.53 151.8 
M 238.19 182.79 239.51 178.54 239.51 175.58 238.02 170.79 236.87 168.67 
M 232.47 174.63 237.04 173.54 
M 232.47 177.07 236.78 177.34 
M 232.01 179.22 237.01 180.76 
M 220.69 76.81 223.17 75.49 226.35 72.1 226.71 71.44 
M 229.78 100.78 230.25 100.47 233.47 96.16 235.54 91.28 235.54 88.26 233.47 83.38 230.25 79.08 227.74 77.4 
M 225.37 87.05 231.76 85.9 
M 225.35 89.63 231.87 89.88 
M 226.83 92.46 232.09 93.61 
M 233.53 127.48 236.11 125.76 239.4 121.35 241.53 116.35 241.53 113.25 239.4 108.25 236.11 103.84 233.53 102.12 
M 231.39 112.42 237.74 111.28 
M 231.16 115.03 237.54 114.7 
M 230.73 117.16 238.02 118.75 
M 236.75 151.91 239.3 150.24 242.58 145.94 244.69 141.07 244.69 138.05 242.58 133.19 239.3 128.89 236.75 127.21 
M 234.1 136.78 240.68 135.88 
M 234.22 139.76 240.72 139.87 
M 234.48 141.85 240.56 143.28 
M 238.98 175.67 241.1 174.21 244.12 170.06 246.07 165.35 246.07 162.43 244.12 157.72 241.1 153.57 238.73 151.94 
M 237.3 161.26 242.77 160.56 
M 237.18 163.87 242.2 163.85 
M 237.14 166.62 242.29 167.19 
M 246.18 182.84 245.59 181.44 242.69 177.58 240.43 176.07 
M 231.12 89.51 233.4 87.87 236.31 83.67 238.19 78.91 238.19 75.97 236.31 71.21 235.47 70 
M 229.19 74.91 234.66 73.9 
M 228.89 77.19 235.01 77.48 
M 229.04 79.76 234.61 81.18 
M 238.68 115.54 240.89 113.8 243.72 109.33 245.54 104.28 245.54 101.14 243.72 96.09 240.89 91.62 238.68 89.88 
M 236.83 100.14 242.19 99.14 
M 236.35 102.38 242.08 102.96 
M 236.64 105.19 242.46 106.33 
M 242.57 139.74 244.97 138.06 248.03 133.76 250 128.88 250 125.86 248.03 120.98 244.97 116.67 242.57 114.99 
M 240.27 125.18 246.31 123.72 
M 240.3 127.35 246.26 127.1 
M 240.29 129.67 246.72 130.91 
M 244.69 163.71 246.88 162.1 249.68 157.96 251.48 153.27 251.48 150.37 249.68 145.69 246.88 141.55 244.69 139.94 
M 242.41 149.44 248.3 148.01 
M 242.44 151.99 248.41 151.56 
M 242.37 154.02 248.1 155.26 
M 248.35 182.73 249.7 180.59 251.3 176.18 251.3 173.45 249.7 169.03 247.23 165.13 245.3 163.61 
M 243.45 172.5 248.34 171.35 
M 243.41 175.01 248.09 175.06 
M 243.22 177 248.18 178.23 
M 237.52 76.54 240.71 72.98 242.38 69.73 
M 235.38 70.33 238.82 70.78 
M 244.89 101.2 248.25 96.92 250.45 91.99 250.45 88.94 248.25 84.01 244.83 79.66 242.15 77.96 
M 239.35 87.81 246.21 86.83 
M 239.7 90.25 246.57 90.8 
M 241.79 93.55 246.69 94.23 
M 249.3 127.97 251.14 126.85 254.8 122.41 257.17 117.37 257.17 114.25 254.8 109.22 251.14 104.78 248.27 103.04 
M 245.24 113.09 253.17 112.12 
M 245.26 115.58 252.94 116.03 
M 245.65 118.14 253.17 119.75 
M 251.41 152.47 254.26 150.85 257.9 146.68 260.24 141.96 260.24 139.04 257.9 134.32 254.26 130.15 251.41 128.52 
M 248.89 138.2 256 137.02 
M 248.46 140.44 256.26 140.38 
M 248.42 142.74 255.63 144.08 
M 251.92 174.67 254.55 173.13 257.92 169.21 260.09 164.77 260.09 162.02 257.92 157.58 254.55 153.66 251.92 152.13 
M 249.16 161.32 255.88 160.12 
M 249.4 163.32 255.95 163.65 
M 249.47 165.88 256.22 166.81 
M 259.09 182.2 258.05 180.05 254.9 176.35 252.44 174.91 
M 246.21 90.66 248.27 89.05 250.9 84.91 252.6 80.23 252.6 77.34 250.9 72.66 249.6 70.62 
M 244.32 76.52 249.47 75.37 
M 244.16 78.48 249.41 78.47 
M 244.08 81.22 249.71 82.02 
M 252.61 116.2 254.97 114.4 257.99 109.78 259.94 104.55 259.94 101.31 257.99 96.08 254.97 91.46 252.61 89.66 
M 250.09 100.62 256.08 98.62 
M 250.08 103 256.06 102.9 
M 250.12 105.48 256.62 106.66 
M 259.24 142.85 261.82 141.14 265.12 136.75 267.25 131.78 267.25 128.71 265.12 123.74 261.82 119.35 259.24 117.64 
M 256.89 128.06 263.58 126.28 
M 256.91 130.06 263.62 130.43 
M 256.98 133.04 263.43 134.19 
M 259.14 163.59 261.47 162.09 264.44 158.25 266.36 153.9 266.36 151.21 264.44 146.86 261.47 143.01 260.47 142.37 
M 257.16 150.34 262.77 149.59 
M 257.15 152.9 262.79 152.22 
M 256.81 154.81 262.65 156.1 
M 262.3 182.06 263.87 180.05 265.79 175.73 265.79 173.06 263.87 168.74 260.89 164.93 258.57 163.44 
M 256.3 172.02 262.43 171.31 
M 256.58 174.6 262.37 174.38 
M 256.2 176.94 262.49 177.72 
M 251.17 73.5 252.36 71.92 252.6 71.36 
M 259.24 102.06 262.19 97.87 264.35 92.51 264.35 89.18 262.19 83.81 258.85 79.07 256.24 77.22 
M 253.48 87.81 260.78 87.06 
M 254.14 90.77 260.45 90.91 
M 256.32 94.05 260.46 95.23 
M 266.49 129.54 266.92 129.27 270.63 124.65 273.02 119.42 273.02 116.18 270.63 110.95 266.92 106.33 264.02 104.53 
M 261.09 115.25 268.7 114.03 
M 261.04 117.59 269.01 117.87 
M 262.27 120.47 268.97 121.47 
M 267.06 154.18 269.92 152.58 273.58 148.47 275.95 143.83 275.95 140.95 273.58 136.31 269.92 132.21 267.06 130.61 
M 264.22 140.22 271.97 139.18 
M 264.36 142.36 271.91 142.11 
M 264.51 144.97 272 145.72 
M 266.81 175.44 269.61 173.96 273.19 170.17 275.5 165.87 275.5 163.22 273.19 158.92 269.61 155.13 266.81 153.65 
M 264.16 162.02 271.64 161.26 
M 263.95 164.69 271.37 164.34 
M 264.04 166.55 271.16 167.49 
M 272.87 181.29 272.63 180.87 269.22 177.45 266.55 176.12 
M 257.27 90.72 259.19 88.75 261.65 83.71 263.23 77.99 263.23 74.46 263.07 73.86 
M 255.28 73.68 257.74 72.63 
M 255.37 76.24 260.34 76.52 
M 255.27 79.25 260.6 80.3 
M 268.89 120.28 271.25 118.26 274.27 113.1 276.22 107.25 276.22 103.63 274.27 97.78 271.25 92.61 268.89 90.6 
M 266.43 102.61 272.98 100.81 
M 266.46 105.14 272.7 105.73 
M 266.33 108.68 272.76 110.06 
M 275.36 144.98 277.71 143.3 280.72 138.99 282.66 134.11 282.66 131.09 280.72 126.22 277.71 121.91 275.36 120.23 
M 273.25 129.84 279.08 129 
M 273 132.73 278.97 132.91 
M 272.97 134.86 279.13 136.25 
M 274.5 165.29 276.78 163.77 279.7 159.9 281.59 155.52 281.59 152.81 279.7 148.42 276.56 144.4 
M 272.41 152.22 278.34 150.51 
M 272.16 154.47 277.96 153.97 
M 272.47 156.73 278.23 157.61 
M 281.87 179.58 282.46 178.35 282.46 175.79 280.49 171.66 277.42 168.02 275.02 166.59 
M 272.48 175.16 278.57 173.93 
M 272.4 176.98 279.05 177.33 
M 272.54 179.42 278.97 180.01 
M 258.53 75.81 261.23 74.2 261.72 73.61 
M 275 99.55 275.72 98.42 277.83 92.6 277.83 88.99 275.72 83.17 272.45 78.03 269.89 76.03 
M 267.11 88.19 274.02 86.28 
M 267.7 90.96 274.2 90.85 
M 272.37 95.13 274.25 95.51 
M 281.97 130.61 285.11 126.19 287.28 120.8 287.28 117.47 285.11 112.09 281.73 107.33 279.09 105.48 
M 276.65 116.64 283.11 115.15 
M 276.46 119.41 283.56 119.09 
M 277.37 121.95 283.14 123.38 
M 281.91 155.27 284.58 153.67 288 149.58 290.21 144.94 290.21 142.07 288 137.43 284.58 133.34 281.97 131.78 
M 279.47 141.13 286.44 140.19 
M 279.3 143.46 286.45 143.46 
M 278.97 145.9 286.55 146.81 
M 281.79 176.59 284.48 175.12 287.93 171.36 290.15 167.11 290.15 164.47 287.93 160.22 284.48 156.46 281.79 155 
M 279.07 163.57 286.38 162.22 
M 279.1 165.97 286.03 165.93 
M 278.9 167.69 285.88 169.05 
M 284.13 179.02 283.58 178.5 281.76 177.62 
M 270.61 90.56 272.88 88.56 275.79 83.45 277.67 77.66 277.67 76.67 
M 268.34 75.59 272.54 75.54 
M 268.18 78.57 274.58 80.1 
M 282.8 120.69 284.77 118.65 287.29 113.41 288.91 107.48 288.91 103.81 287.29 97.88 284.77 92.65 282.8 90.61 
M 281.11 102.35 286.1 101.15 
M 281.18 105.87 285.64 105.32 
M 281.08 108.86 286.19 110.2 
M 289.33 145.25 291.43 143.56 294.13 139.25 295.87 134.37 295.87 131.35 294.13 126.47 291.43 122.16 289.33 120.48 
M 287.34 130.03 292.63 128.98 
M 287.23 132.52 292.75 132.77 
M 287.01 135.34 292.57 136.29 
M 288.44 165.58 290.61 164.06 293.39 160.17 295.18 155.76 295.18 153.04 293.39 148.63 290.43 144.62 
M 286.22 151.84 291.95 150.72 
M 286.45 154.59 291.8 154.63 
M 286.41 156.73 291.84 157.8 
M 295.8 176.64 295.8 176.26 294.04 172.16 291.32 168.54 289.19 167.13 
M 287.17 175.72 292.33 174.37 
M 286.86 177.57 290.21 177.74 
M 275.05 77.44 277.05 76.53 
M 287.86 99.61 289.14 97.71 291.2 92.32 291.2 88.98 289.14 83.59 286.08 79.03 
M 280.91 87.72 287.15 86.83 
M 281.02 90.3 287.37 90.72 
M 285.27 94.31 287.22 94.72 
M 295.25 129.26 297.65 125.57 299.64 120.17 299.64 116.83 297.65 111.43 294.55 106.66 292.14 104.8 
M 289.69 115.91 295.98 114.64 
M 289.51 118.59 296.29 118.18 
M 289.75 121.06 289.94 121.1 
M 290.53 121.26 296.08 122.7 
M 295.66 155.54 298.24 153.91 301.54 149.75 303.67 145.02 303.67 142.1 301.54 137.38 298.24 133.21 295.66 131.58 
M 292.89 141.5 300.04 139.8 
M 293.05 143.86 299.88 143.43 
M 292.87 146.05 300.02 147.02 
M 295.82 176.64 298.22 175.29 301.57 171.51 303.74 167.23 303.74 164.58 301.57 160.3 298.22 156.52 295.6 155.05 
M 293.35 163.55 299.85 162.35 
M 292.76 165.62 299.48 165.87 
M 293.24 168.11 300.15 169.48 
M 286.43 88.76 288.59 87.29 291.36 83.52 292.27 81.35 
M 284.21 80.11 289.6 81.22 
M 293.94 117.34 295.86 115.41 298.31 110.48 299.89 104.89 299.89 101.43 298.31 95.84 295.86 90.9 293.94 88.97 
M 292.41 100.63 296.99 98.87 
M 292.35 103.37 297.16 103.18 
M 291.97 106.31 297.37 107.4 
M 302.49 145.52 304.54 143.73 307.18 139.14 308.88 133.94 308.88 130.73 307.18 125.53 304.54 120.94 302.49 119.15 
M 300.41 129.4 305.8 128.07 
M 300.61 132.43 305.66 132.55 
M 300.49 134.71 305.7 136 
M 302.4 165.83 304.66 164.31 307.55 160.42 309.41 156.02 309.41 153.29 307.55 148.89 304.66 145 303.81 144.43 
M 300.49 152.49 305.96 151.11 
M 300.38 155.01 306.03 154.83 
M 300.58 157.1 306.05 158.06 
M 308.39 173.98 307.34 171.52 304.55 167.8 302.38 166.35 
M 300.38 175.06 305.66 174.15 
M 296.44 102.35 299.02 100.67 302.32 96.36 304.45 91.48 304.45 88.45 303.62 86.55 
M 293.61 87.66 300.94 86.52 
M 293.64 89.61 300.62 90.16 
M 293.88 92.55 300.77 93.86 
M 308.27 128.08 310.44 124.73 312.46 119.25 312.46 115.85 310.44 110.37 307.31 105.52 304.86 103.63 
M 302.72 114.99 308.61 113.62 
M 302.3 117.77 308.68 117.41 
M 302.51 120.22 302.52 120.22 
M 303.97 120.51 309.1 121.56 
M 309.54 156.11 312.11 154.43 315.42 150.12 317.54 145.24 317.54 142.22 315.42 137.34 312.11 133.03 309.54 131.35 
M 307.33 140.95 313.5 139.79 
M 306.88 143.51 313.48 143.81 
M 307.02 146.42 313.93 147.24 
M 315.67 172.57 316.03 172.17 318.28 167.79 318.28 165.07 316.03 160.69 312.56 156.81 309.84 155.3 
M 307.04 164.51 314.29 163.41 
M 306.94 166.33 314.14 166.13 
M 307.16 168.66 313.88 169.95 
M 298.19 85.91 300.03 84.85 
M 307.19 117.38 309.38 115.39 312.18 110.29 313.98 104.51 313.98 100.93 312.18 95.15 309.38 90.05 307.58 88.42 
M 305.09 99.93 310.78 98.45 
M 305.43 102.69 310.75 102.53 
M 305 105.47 310.9 107.01 
M 315.82 145.61 317.81 143.76 320.37 139.02 322.01 133.64 322.01 130.32 320.37 124.94 317.81 120.2 315.82 118.35 
M 313.67 129.61 319.15 128.01 
M 314.12 131.9 318.74 131.92 
M 313.78 134.88 318.69 136.23 
M 317.44 167.49 319.72 165.92 322.65 161.91 324.53 157.36 324.53 154.55 322.65 150 319.72 145.99 317.44 144.42 
M 315.56 154 321.38 152.25 
M 315.09 155.97 321.36 155.97 
M 314.98 157.98 321.21 159.25 
M 321.54 171.12 319.48 168.46 317.15 166.95 
M 310.83 102.26 313.75 100.68 317.49 96.64 318.92 93.91 
M 308.01 90.55 311.88 90.47 
M 308.01 92.82 315.54 93.94 
M 321.42 128.39 324.3 124.34 326.49 118.95 326.49 115.61 324.3 110.22 320.92 105.45 318.28 103.6 
M 315.97 114.49 322.85 113.35 
M 315.49 117.07 322.23 117.13 
M 317.69 120.54 322.49 121.62 
M 323.86 156.08 325.85 154.75 329.17 150.32 331.31 145.31 331.31 142.2 329.17 137.19 325.85 132.76 323.26 131.04 
M 320.77 140.98 327.3 139.85 
M 321.02 143.42 327.66 143.87 
M 320.79 146.42 327.25 147.71 
M 333.09 167.49 333.09 166.11 330.85 161.59 327.37 157.59 324.66 156.03 
M 322.14 165.49 328.77 163.74 
M 321.7 167.82 328.92 167.23 
M 322.26 169.6 324.84 170.19 
M 322.04 116.86 324.53 115.09 325.71 113.42 
M 325.71 113.42 327.71 110.56 329.76 105.43 329.76 102.25 328.26 98.49 
M 319.54 100.9 326.25 99.89 
M 319.45 103.58 325.68 103.58 
M 319.58 106.72 321.6 106.97 
M 321.6 106.97 326.17 107.53 
M 328.06 143.96 330.2 142.14 332.95 137.48 334.72 132.2 334.72 128.93 332.95 123.65 330.2 118.98 328.06 117.16 
M 325.9 127.72 331.52 126.24 
M 325.81 130.75 331.42 130.37 
M 326.22 133.29 331.55 134.92 
M 333.8 167.26 336.79 162.87 338.63 158.02 338.63 155.02 336.79 150.17 333.94 145.89 331.72 144.22 
M 329.51 153.88 335.43 153.11 
M 329.89 156.23 335.39 156.85 
M 329.32 158.74 335.02 160.45 
M 327.36 104.43 330.41 102.93 332.69 100.68 
M 333.06 131.25 335.93 129.49 339.6 124.99 341.97 119.9 341.97 116.75 339.6 111.66 335.93 107.16 333.06 105.41 
M 330.27 115.41 337.54 114.18 
M 330.38 118.48 338.02 118.64 
M 330.26 121.22 337.58 122.22 
M 337.27 156.6 339.94 154.89 343.37 150.53 345.58 145.58 345.58 142.52 343.37 137.58 339.94 133.21 337.27 131.51 
M 334.37 141.66 341.43 140.19 
M 334.5 144.41 341.84 144.38 
M 334.69 146.32 341.32 148.1 
M 345.42 163.51 344.76 162.11 341.46 158.12 338.89 156.56 
M 336.23 165.58 340.6 165.1 
M 338.87 119.45 341.4 117.74 344.63 113.37 346.72 108.41 346.72 107.72 
M 336.46 104.4 339.06 103.91 
M 336.08 106.94 342.76 107.03 
M 336.38 109.75 343.27 110.48 
M 343.26 144.71 345.67 142.98 348.76 138.57 350.76 133.57 350.76 130.47 348.76 125.47 345.67 121.05 343.26 119.33 
M 340.8 129.61 347.3 127.88 
M 341.01 131.69 347.25 132.08 
M 340.67 134.79 347.47 135.93 
M 351.58 161.4 352.66 158.55 352.66 155.67 350.9 151.03 348.16 146.93 346.03 145.33 
M 343.71 154.58 349.72 153.46 
M 343.76 156.91 349.83 157.39 
M 344.12 159.41 349.63 160.31 
M 350.04 132.25 351.78 131.25 355.57 126.85 358.01 121.87 358.01 118.79 355.57 113.81 352.87 110.68 
M 346.31 117.88 353.47 116.6 
M 346.06 120.36 353.5 120.15 
M 346.89 123.3 353.64 124.44 
M 352.03 156.73 354.54 155.21 357.97 151.07 360.18 146.37 360.18 143.47 357.97 138.77 354.54 134.63 351.86 133.01 
M 349.09 142.62 356 141.36 
M 349.01 144.74 355.96 144.63 
M 349.13 147.4 356.38 148.16 
M 356.08 159.8 354.68 158.08 352.23 156.57 
M 354.21 121.6 356.87 119.81 360.27 115.25 360.66 114.34 
M 351.33 110.88 355.43 111.89 
M 359.38 145.78 361.21 144.45 364.11 140.22 365.62 136.34 
M 365.62 131.58 365.62 131.58 
M 356.45 131.59 362.46 130.47 
M 357.03 134.05 362.91 133.64 
M 356.61 136.41 362.73 137.95 
M 365.62 154.89 365.62 154.89 
M 357.28 154.62 362.72 153.28 
M 357.08 156.36 362.95 156.24 
M 356.82 158.7 358.33 158.99 
M 364.47 131.87 365.62 131.33 
M 362.05 120.27 365.62 119.95 
M 361.91 122.32 365.62 122.2 
M 362 124.13 365.62 124.87 
M 363.7 143.22 365.62 142.94 
M 363.4 145.49 365.62 145.41 
M 363.44 147.04 365.62 147.31 
M 163.21 96.71 163.21 96.71 
M 171.97 92.35 171.97 92.35 
M 169.17 173.77 171.16 173.13 172.7 172.13 
M 173.7 181.89 173.7 181.19 170.84 177.84 168.82 176.5 
M 168.31 179.79 168.71 179.75 
M 180.52 88.3 180.52 88.3 
M 182.49 184.7 185.92 182.76 189.32 179.37 189.32 179.13 
M 172.37 176.5 182.87 175.5 
M 172.31 178.36 183.08 178.39 
M 172.67 180.26 183.15 180.54 
M 191.25 83.42 191.25 83.42 
M 203.94 191.08 205.7 189.89 208.75 186.3 208.75 184.08 207.94 183.13 
M 193.76 183.09 203.45 182.58 
M 193.37 185.45 203.25 185.29 
M 193.88 187.17 203.53 187.67 
M 202.66 78.71 202.66 78.71 
M 208.19 188.89 210.84 187.5 214.28 183.87 
M 212.7 193.55 212 192.54 208.37 189.55 205.54 188.38 
M 203.73 78.31 203.73 78.31 
M 220.38 194.59 221.32 193.74 223.77 189.85 223.77 187.43 221.32 183.53 220.67 182.95 
M 211.6 188.69 219.32 188.58 
M 211.79 190.67 219.38 191.52 
M 211.38 75.82 211.38 75.82 
M 222.89 190.39 224.54 189.13 227.12 185.17 228.24 182.15 
M 222.34 181.95 225.68 182.47 
M 233.38 195.65 234.23 194.62 236.26 190.36 236.26 187.72 234.23 183.46 233.39 182.45 
M 226.28 187.04 232.25 186.15 
M 226.22 189.29 232.62 189.35 
M 226.58 191.19 232.46 192.19 
M 233.91 189.22 235.71 187.57 238.02 183.34 238.19 182.79 
M 238.42 185.13 244.13 184.14 
M 238.01 187.43 244.39 187.05 
M 245.3 186.01 247.23 184.49 248.35 182.73 
M 242.38 69.73 242.38 69.73 
M 250.19 183.06 256.22 182.68 
M 257.59 194.34 263.35 193.65 
M 269.34 194.3 272.63 191 274.83 187.13 274.83 184.74 272.87 181.29 
M 263.07 73.86 263.07 73.86 
M 257.74 72.63 257.74 72.63 
M 287.98 189.75 289.18 187.73 289.18 185.45 286.98 181.75 284.13 179.02 
M 278.46 184.46 284.89 183.66 
M 277.67 76.67 277.67 76.67 
M 272.54 75.54 272.54 75.54 
M 290.21 177.74 292.53 177.86 
M 286.98 179.67 292.65 180.66 
M 295.6 176.76 295.82 176.64 
M 292.23 186.7 299.03 186.71 
M 305.62 184.83 307.34 182.54 309.13 178.33 309.13 175.73 308.39 173.98 
M 300.62 177.2 306 177.2 
M 300.25 179.44 305.82 179.97 
M 307.58 88.42 307.58 88.42 
M 324.4 178.99 324.4 176.72 322.47 172.33 321.54 171.12 
M 315.14 176.05 321.27 174.61 
M 314.58 180.27 318.81 181.08 
M 325.19 178.69 327.37 177.44 330.85 173.44 333.09 168.91 333.09 167.49 
M 324.84 170.19 328.77 171.08 
M 328.26 98.49 328.26 98.49 
M 332.69 100.68 332.69 100.68 
M 346.83 169.53 346.88 166.63 345.42 163.51 
M 336.57 167.84 342.76 168.02 
M 336.64 170.5 342.89 171.24 
M 346.72 107.72 346.72 107.72 
M 346.03 168.89 348.16 167.29 350.9 163.19 351.58 161.4 
M 347.17 169.39 345.48 168.15 
M 352.87 110.68 352.87 110.68 
M 358.83 164.14 357.82 161.95 356.08 159.8 
M 349.89 165.39 356.51 164.25 
M 355.43 111.89 355.43 111.89 
M 365.62 131.58 364.11 127.69 361.21 123.47 358.95 121.82 
M 364.32 161.55 365.62 158.3 
M 358.33 158.99 362.46 159.79 
M 365.62 158.32 365.14 158.09 
M 190.62 83.7 190.62 83.7 
M 195.06 81.77 195.64 75.04 196.12 72.84 197.08 71.11 197.03 68.37 197.85 66.35 199.51 65.09 200.42 63.08 201.14 60.83 202.33 59 205.25 55.86 207.04 54.6 208.12 52.63 209.84 51.34 211.72 47.3 213 45.6 215.23 44.92 217.57 41.3 220.63 38.27 221.9 36.5 225.89 34.8 230.54 33.83 235.1 33.36 239.06 32.63 240.31 31.19 241.8 30 247.04 30.86 254.07 32.83 255.81 33.04 259.71 33.06 261.88 33.26 266.87 36.19 269.94 37.69 271.91 38.88 276.55 39.02 279.03 39.41 281.6 40.34 284.95 40.94 286.39 41.4 292.01 45.34 297.38 48.06 298.9 47.28 300.64 47.12 304.49 51.88 306.04 53.48 307.24 55.36 307.92 57.06 308.92 60.81 308.96 62.67 310.06 64.81 312.75 68.31 314.53 72.3 314.02 74.16 314.15 76.52 315.09 78.65 316.68 81.41 319.07 84.66 313.79 91.4 
M 309.94 89.53 309.94 89.53 
M 193.92 82.26 193.93 82.26 
M 194.66 81.95 195.98 78.26 
M 197.22 80.83 197.64 80.23 198.23 78.63 198.53 76.87 198.43 75.24 
M 200.56 79.49 201.34 78.25 201.95 73.23 202.57 71.54 
M 203.93 78.23 204.65 76.55 205.48 72.6 205.56 71.27 205.28 69.09 204.88 67.87 205.11 66.25 
M 207.32 77.02 209.38 71.99 208.89 68.13 208.94 67.4 209.67 65.89 209.71 63.5 208.6 60.99 209.3 59.48 
M 210.77 76 212.26 73.22 213.31 68.94 213.29 66.98 213.08 65.65 212.56 63.88 212.22 59.21 
M 214.22 74.98 215 73.89 215.29 72.14 215.13 68.16 215.43 64.8 215.65 62.71 216.45 60.36 216.19 56.07 215.66 54.4 
M 217.65 73.88 218.31 72.48 217.96 66.66 219.71 55.77 219.62 54.01 219.18 52.6 219.3 51.73 219.15 47.77 218.68 44.9 218.55 42.55 
M 221.08 72.79 221.55 71.66 221.9 66.14 222.13 64.35 222.65 62.17 222.7 59.48 222.97 58.04 223.2 53.97 223.9 52.33 224.26 48.81 
M 224.57 71.9 225.08 68.87 226.01 67.31 226.88 63.29 226.84 61.54 227.01 59.74 227.73 55.72 227.33 53.4 229.1 49.15 227.89 47.3 226.98 45.18 226.83 43.23 227.02 40.65 227.83 37.98 
M 228.08 71.14 229.12 69.75 229.8 67.87 230.16 62.43 231.73 55.44 231.71 53.71 231.4 52.17 232.39 50.87 232.25 46.69 232.69 42.18 
M 231.62 70.49 233.14 69.19 233.55 67.16 233.29 63.27 233.64 61.37 235.24 56.74 235.85 52.83 236.2 51.57 236.71 50.55 237.08 48.14 237.14 45.17 237.6 41.72 239.2 34.56 
M 235.19 70.04 236.26 68.26 237.26 61.54 238.21 59.54 238.03 57.29 238.59 55.14 239.83 52.73 
M 238.77 69.65 239.67 68.07 241.49 63.19 242.47 61.23 243.28 59.09 244.49 54.04 245.93 51.32 
M 242.37 69.72 245.73 64.63 247.03 63.24 247.6 61.34 247.8 58.79 248.64 56.04 249.49 54.17 250.8 52.1 
M 245.97 69.8 247.18 68.44 249.61 65.04 250.6 63.44 251.35 61.68 253.12 60.07 254.47 57.98 255.78 54.54 
M 249.48 70.59 251.51 69.28 252.91 67.51 254.44 66.14 255.4 64.7 256.24 63.03 257.79 61.11 259.04 58.99 261.84 55.15 262.95 51.36 265.52 47.84 
M 252.97 71.45 255.2 70.07 256.73 68.57 259.33 65.15 263.9 57.45 266.21 54.46 267.8 52.74 268.68 51.07 270.02 50.18 
M 256.46 72.31 258.41 71.25 261.37 67.91 262.45 65.69 264.97 62.46 266.72 61.47 267.92 59.54 268.81 57.44 269.41 55.03 270.72 53.44 272.08 52.21 272.73 51.02 274.17 46.97 275.4 45.28 
M 259.96 73.17 261.6 72.26 263.31 70.49 264.68 68.78 265.56 66.69 266.87 64.84 268.72 63.61 270.22 61.95 272.1 58.37 273.71 56.59 274.45 55.23 275.34 52.12 
M 263.48 73.93 264.74 72.74 267.28 69.42 268.41 67.34 270.22 65.65 271.64 64.05 272.38 62.05 273.14 61.32 275.73 57.8 276.77 56 277.36 54.29 
M 267.03 74.51 269.28 71.64 270.92 70.12 272.13 68.58 274.16 64.67 274.25 62.23 275.9 60.87 278.64 57.89 279.49 55.83 280.51 54.22 282.73 49.23 284.03 46.86 285.67 44.81 
M 270.58 75.1 272.04 74.04 275.25 71 276.57 69.25 277.38 67.54 278 65.48 278.13 63.58 280.47 59.73 
M 274.09 75.88 275.79 74.87 277.12 73.24 278.55 71.96 280.05 70.91 281.14 68.93 281.63 66.39 282.95 64.46 284.04 62.37 284.72 60.28 287.44 57.02 288.31 55.35 289.65 53.74 290.48 52.45 
M 277.6 76.66 279.24 75.78 280.61 74.19 282.37 72.64 283.64 71.11 286.15 67.5 288.87 62.91 290.91 60.55 292.86 56.66 
M 281.08 77.61 282.86 76.68 284.25 75.34 285.88 74.27 287.29 72.72 288.48 70.65 289.82 68.86 291.98 67.49 292.95 64.89 294.73 61.22 
M 284.54 78.59 286.26 77.94 290.82 73.81 295.32 67.65 296.54 65.58 
M 287.95 79.73 290.1 79.11 293.19 76.67 294.47 74.48 296.11 72.48 297.91 71.43 300.74 68.14 
M 291.32 81 293.74 80.37 295.61 78.72 301.37 72.52 
M 294.67 82.32 297.6 81.51 299.17 80.07 300.9 79.05 305.68 75.53 
M 297.92 83.86 300.83 83.55 302.43 82.51 304.36 81.58 306.53 79.9 308.68 78.52 309.04 77.76 
M 301.17 85.39 303.84 85.36 305.29 84.66 307.57 83.12 308.9 81.41 309.99 81.08 
M 304.43 86.93 307.64 86.34 309.58 85.53 
M 307.68 88.46 310.81 88.45 312.82 87.61 314.76 86.04 
M 171.27 157.83 172.45 157.71 176.89 156.38 179.83 155.82 182.52 154.8 184.27 152.9 186.76 152.02 188.23 152.17 191.05 151.88 192.06 150.8 218.83 149.23 220.93 149.49 231.08 151.45 236.32 155.79 237.29 157.39 237.39 159.98 237.14 167.24 236.66 169.77 234.99 171.11 232.48 174.6 231.71 176.81 230.07 178.14 228.66 179.72 226.8 180.88 222.69 181.76 219.61 183.66 217.34 183.89 214.79 183.83 212.64 183.98 189.97 179.87 189.16 178.94 186.81 177.56 185.36 176.35 183.64 175.56 182.14 174.6 169.85 168.95 
M 171.18 158.91 174.74 158.59 176.76 158.11 181.74 156.49 183.66 155.66 186.09 155.88 187.68 155.7 189.82 155.26 192.14 154.42 
M 171.04 160.54 172.34 160.45 174.89 160.6 177.12 160.25 179.05 159.47 181.57 158.7 183.89 158.51 188.53 158.53 190.24 158.17 192.32 158.12 194.44 157.55 201.93 156.33 204.07 156.79 205.75 156.64 209.95 155.49 211.94 154.26 214.63 154.21 216.73 153.89 218.06 154.59 
M 172.46 162.27 174.86 162.55 177.1 162.33 178.87 161.79 180.94 161.88 183.35 161.69 185.94 161.81 188.66 161.08 191.12 160.72 192.9 161.12 194.86 161.22 199.69 160.47 201.89 160.36 204.77 160.74 206.66 161.24 207.9 161.1 209.4 160.5 211.51 159.2 214.33 159.48 
M 170.57 163.81 174.93 164.38 177.13 164.48 179.01 164.3 180.92 164.65 183.14 164.64 186.01 164.91 188.83 164.41 191.16 164.85 193.22 164.72 195.02 164.94 197.33 165.55 199.83 165.7 202.15 165.42 204.35 165.4 208.76 166.05 210.53 166.68 212.15 166.56 214.71 166.71 217.57 166.22 220.48 164.67 222.81 165.7 
M 170.37 165.05 177.32 166.24 179.65 166.36 181.56 166.81 183.59 166.91 186.4 167.49 189.02 167.7 191.3 168.07 193.39 167.99 195.26 168.16 202.55 169.47 204.46 168.92 206.77 168.78 208.99 169.16 213.54 171.18 215.24 171.47 216.44 172.04 217.73 171.67 220.72 172.03 227.03 172.42 
M 170.18 166.4 175.01 167.43 181.77 169.19 186.22 170.07 188.54 170.86 190.61 171.86 193.27 172.09 195.16 172.53 197.17 172.67 201.69 173.8 206.1 174.18 
M 172.29 168.62 174.83 169.56 177.34 170.21 181.75 171.7 185.92 173.74 187.3 175.14 191.32 176.58 194 177.35 197.05 177.44 199.15 178.16 
M 206.53 197.98 209.53 203.17 211.42 205.33 213.67 209.29 214.52 211.3 215.65 213.07 216.57 214.93 220.21 217.91 222.68 222.01 223.71 224.59 224.76 226.33 226.15 227.48 227.34 229.57 228.98 233.09 230.55 234.8 228.82 246.64 227.74 248.52 224.78 251.49 223.67 253.37 222.27 255.03 221.07 256.88 219.54 258.4 217.7 262.61 215.93 263.87 213.48 267.47 212.01 269.04 210.92 270.92 208.24 271.22 205.85 271.8 193.36 280 193.26 278.36 194.68 272.79 194.33 268.49 194.44 266.93 194.88 264.82 195.26 260.32 194.67 257.57 194.69 255.25 194.46 253.03 195.03 252.05 195.17 250.09 195.94 247.85 195.94 245.2 196.46 242.87 196.56 240.98 195.92 237.28 196.74 232.9 196.62 230.85 197.11 228.56 197.29 226.06 196.92 223.25 197.24 220.96 198.36 215.83 198.7 204.59 199.16 200.52 199.11 198.03 198.58 195.02 
M 205.18 197.48 207.58 202.69 209.06 204.99 210.26 207.32 212.9 213.81 213.94 215.76 214.53 217.36 219.07 222.95 220.33 225.8 221 228.27 221.96 230.42 222.83 231.75 
M 203.83 196.98 205.68 202.09 208.69 209.39 209.46 211.57 209.79 213.71 211.85 217.89 213.7 222.32 215.8 226.8 216.85 228.7 217.39 230.6 217 234.86 217.79 237.02 218.73 238.9 219.88 240.54 
M 202.48 196.47 205 206.09 207.43 212.86 207.77 215.3 208.75 217.99 208.98 220.02 209.56 222.56 210.24 224.76 211.57 226.84 212.27 228.82 212.8 231.28 213.47 232.94 213.08 233.87 213.39 235.55 213.55 238.92 213.25 241.5 213.97 243.06 214.29 245.39 216.76 250.65 217.51 252.64 217.51 254.05 218.59 256.36 218.45 258.25 
M 201.14 195.97 201.87 198.98 202.59 205.4 203.23 207.99 204.75 212.23 204.46 217.45 204.51 220.17 204.78 222.63 206.84 225.77 207.48 227.6 207.53 236.62 208.45 239.42 208.84 242.28 209.49 244.23 208.86 246.26 209.18 248.35 
M 199.79 195.47 200.47 198.53 200.65 205.21 201.32 211.97 201.22 216.67 200.77 219.21 200.83 223.96 202.46 227.69 201.85 231.46 202.04 234.09 202.43 236.69 202.32 239.56 202.87 246.71 202.85 248.94 202.01 251.24 202.04 253.62 202.72 255.28 204.21 256.91 204.34 259.04 203.49 264.16 204.31 266.64 204.6 269.34 203.74 271.84 
M 333.8 178.91 337.89 182.07 338.83 184.85 339.58 186.19 337.5 186.85 335.67 187.94 334.19 189.46 332.48 190.79 331.06 192.29 328.8 192.71 325.92 195.91 320.98 196.87 318.34 196.92 317.23 198.85 316.58 201.21 315.68 203.35 312.21 205.98 310.28 207.09 308.95 208.78 307.88 210.6 308.01 212.96 307.57 215.44 305.39 216.31 303.77 217.74 302.65 218.44 299.3 221.21 298.09 220.16 296.27 217.17 294.32 215.45 292.7 213.53 291.4 211.63 289.06 210.26 287.73 209.05 284.88 205.28 278.12 198.82 
M 330.56 180.46 334.4 182.97 
M 327.31 182.01 331.53 185.6 333.79 187.08 
M 324.03 183.48 327.5 187.42 330.31 189.72 
M 320.71 184.87 324.18 188.72 326.25 190.71 
M 317.37 186.22 320.32 189.92 
M 313.93 187.27 317.21 191.44 318.68 194 319.6 196.28 
M 310.49 188.32 314.22 192.67 
M 307.07 189.46 310.7 193.4 313 195.6 
M 303.67 190.62 308.78 195.94 
M 300.25 191.75 303.58 195.27 305.64 197.89 307.83 199.84 309.19 201.49 
M 296.83 192.86 299.52 196 303.99 200.76 305.87 202.46 306.36 203.82 307.43 205.31 
M 293.4 193.95 295.76 196.97 298.26 198.8 300.05 201.29 
M 289.95 194.97 294.42 200.28 296.24 201.97 298.31 204.28 
M 286.49 195.98 293.05 202.92 297.73 209.09 
M 283.08 197.12 285.81 199.43 288.08 201.66 289.56 203.7 290.71 206.19 292 207.74 293.87 209.34 
M 365.62 116.65 367.51 115.13 370.33 111.72 373.48 108.44 376.49 104.93 377.86 103.45 380.1 101.41 383.84 96.91 385.38 94.57 387.36 93.02 390.87 92.12 394.51 90.18 396.76 88.59 399.42 87.35 401.51 86.17 403.75 85.78 408.3 84.35 410.4 84.18 412.07 83.54 413.47 81.82 416.63 80.69 419.92 80.18 422.06 79.63 423.94 78.83 427.93 79.07 429.09 78.65 430.01 84.54 430.49 89.15 430.52 91.27 429.7 94.69 429.26 98.6 430.03 101.56 429.58 104.07 426.61 107.02 425.47 108.84 424.62 110.91 421.68 113.89 420.81 116.06 419.73 118.04 417.95 119.31 415.67 120.08 414.29 121.76 413.36 123.88 412.1 125.68 409.09 128.73 405.83 131.52 404.43 133.17 402.17 133.96 400.18 135.03 397.85 135.69 395.99 136.79 388.82 141.49 387.18 142.83 385.83 144.46 387.14 145.77 388.44 145.85 394.59 148.21 396.3 148.64 402.51 151.57 406.44 153.7 410.79 156.87 412.34 157.84 415.5 162.08 416.27 163.58 417.01 165.54 421.62 171.83 426.17 176.98 427.59 179.34 429.21 184.55 429.05 185.75 430.53 190.08 430.74 192.71 431.48 195.88 431.69 198.3 431.25 200.06 431.19 201.26 427.78 208.64 426.15 207.65 425.19 207.85 423.3 207.37 419.6 205.48 417.14 204.69 414.95 204.45 413.27 204.44 407.35 201.75 405.25 201.35 403.65 200.09 401.4 199.45 400.16 197.55 398.14 195.93 395.42 194.37 393.26 193.39 391.86 192.15 389.82 191.36 384.99 186.61 381.15 183.78 379.12 181.77 377.47 179.86 373.01 174.57 371.83 172.19 369.13 167.72 367.56 165.53 365.62 163.27 
M 369.36 115.57 370.76 113.99 375.69 109.63 377.1 107.92 379.17 106.25 380.62 104.72 382.22 103.66 383.7 102.23 385.22 99.66 386.75 98.08 388.29 97.1 390.46 96.87 392.44 96.32 
M 369.6 117.56 374.46 113.69 376.23 112.52 381.89 107.42 385.5 105.63 387.22 103.67 389.3 102.06 390.47 101.43 396.36 99.34 400.97 96.91 
M 371.59 118.7 373.18 117.49 375.12 116.47 384.67 109.55 389.21 107.56 392.66 105.07 394.42 104.5 396.03 103.35 400.45 102.33 405.77 101.44 407.42 100.09 409.95 98.61 
M 365.62 124.27 367.73 123.46 369.76 122.27 371.72 120.88 375.6 119.2 377.4 117.4 381.19 115.22 386.87 112.36 389.03 110.73 393.99 108.48 397.39 106.5 400.22 106.91 404.16 106.84 406.21 106.19 408.19 104.82 410.15 104.55 412.1 104.67 414.44 103.9 422.79 102.67 424.85 101.72 427.45 101.56 
M 369.78 124.41 371.79 123.11 376.19 121.54 377.92 120.33 385.57 116.72 389.27 115.85 393.49 113.63 395.78 113.07 
M 367.93 127.6 369.94 126.81 374.42 124.63 378.66 123.07 380.8 122.36 383.28 121.77 390.28 119.48 392.44 119.06 394.3 118.36 397.05 118.29 399.33 117.1 404.85 114.92 407.26 115.34 410.59 114.58 
M 365.62 129.99 368.16 129.86 370.52 129.16 372.86 128.34 377.1 126.5 379.29 125.91 383.66 125.33 388.52 123.77 392.49 122.98 394.75 122.34 396.85 122.5 401.12 121.58 403.45 120.23 
M 373.08 130.83 377.83 129.25 379.41 128.95 384.36 127.55 386.95 127.61 393.54 126.47 398.57 127.39 401.55 127.52 402.26 126.92 
M 365.62 133.8 367.9 134.13 370.4 133.81 378.77 132.2 380.78 132.28 382.25 131.58 386.4 130.63 
M 368.15 136.21 370.58 136.02 373.46 135.55 382.83 135.45 386.95 134.59 
M 373.66 138.31 381.01 139.2 
M 371.48 141.35 373.51 142.05 
M 373.71 144.21 375.62 144.87 380.97 145.91 
M 365.62 143.33 368.6 144.73 373.69 145.93 375.36 146.95 377.4 147.58 382.57 147.7 
M 371.01 147.27 379.28 150.71 381.23 150.98 383.65 150.52 
M 368.45 148.43 372.92 150.51 376.93 152.97 378.85 153.95 381.12 154.85 383.28 155.26 388.2 157.26 391.33 156.85 393.79 157.31 395.58 157.83 396.65 157.02 398.49 156.53 401.6 157.53 404.53 158.21 
M 368.3 150.68 372.55 153.36 376.31 156.02 378.74 157.1 383.82 158.64 386.18 159.62 388.47 160.21 392.94 160.73 
M 372.16 155.74 373.9 157.4 375.93 158.96 380.76 160.65 383.18 161.72 384.98 162.85 387.43 163.78 389.77 164.11 392.25 164.72 394.17 166.11 394.93 166.99 396.65 167.77 401.68 168.78 406.61 170.36 410.8 169.81 
M 370.01 156.56 371.99 158.03 373.68 159.74 375.71 161.13 377.69 162.05 379.88 163.44 382.11 165.11 384.04 166.26 386.56 167.18 391.11 169.45 394.2 170.58 395.42 171.76 
M 370.06 158.49 372.04 160.46 377.27 164.39 382.8 168.9 389.53 172.45 391.34 173.91 393.44 174.92 394.6 175.72 397.01 176.32 398.76 177.37 400.88 178.02 403.65 178.15 406.09 178.99 409.87 181.05 412.78 181.71 
M 367.94 158.66 369.98 160.49 373.25 163.99 378.62 169.12 382.7 171.46 386.62 174.78 387.99 176.48 390.15 177.83 392.04 178.8 396.06 180.45 398.05 180.82 402.63 182.68 404.96 183.39 408.03 185.81 410.27 186.64 411.75 187.43 417.57 188.15 
M 367.91 160.61 371.3 164.3 372.81 166.28 374.02 168.38 375.98 170.13 381.75 174.01 383.3 175.37 387.07 179.81 391.45 181.65 395.53 183 399.64 185.57 402 186.79 405.67 189.22 408.83 192.03 410.75 192.47 413.08 192.71 416.24 193.56 421.01 195.39 423.21 194.91 
M 367.73 162.61 369.42 164.54 370.99 166.86 373.42 171.22 375.2 173.2 379.02 175.67 380.4 176.91 382.28 178.96 386.33 182.31 387.99 182.76 390.39 184.21 392.12 186.01 393.54 187.2 397.93 189.94 402.28 193.22 404.04 193.59 406.02 195.31 408.8 196.33 414.35 197.68 416.54 199.18 419.16 199.35 420.48 199.23 421.58 199.52 424.4 199.64 
M 333.8 101.23 339.75 99.93 348.47 98.98 350.48 98.58 352.34 98.03 355.74 96.6 357.42 96.46 358.78 97.42 359.58 99.33 359.67 101.76 358.99 104.09 357.67 105.68 356.02 106.68 352.33 108.28 349.71 109.19 
M 340.8 102.65 348.47 101.86 350.48 101.46 352.34 100.91 355.74 99.48 356.58 99.41 
M 100.36 131.4 103.52 128.78 117.73 118.72 125.57 112.66 129.81 110.16 134.38 107.89 151.84 100.97 154.95 99.87 158.79 98.97 161.38 107.76 163.08 112.12 165.43 116.41 167.23 120.76 168.26 125.18 168.75 129.65 171.69 138.41 172.1 142.89 171.62 147.45 171.38 156.5 171 161.05 168.46 179.36 166.77 184.01 157.85 183.69 151.24 182.84 145.45 181.64 139.94 179.89 134.72 177.71 129.8 174.88 125.27 171.68 121.43 168.51 110.67 157.41 
M 110.26 156.89 107.53 153.42 104.96 149.17 103.02 145.07 101.93 142.39 
M 151.31 146.71 150.69 150.69 150.8 153.36 151.15 156.26 151.85 159.65 151.82 163.59 141.64 164.23 137.53 164.24 133.29 163.73 129.02 162.65 124.84 160.69 120.95 158.05 
M 109.36 154.96 101.52 141.69 98.16 135.06 97.5 133.35 98.14 131.67 99.81 131.09 101.43 131.98 102.19 133.67 104.52 140.6 106.85 145.7 108.86 150.59 110.17 153.97 111.19 157.15 
M 110.6 157.6 107.93 155.25 103.49 152.16 96.21 146.56 89.31 140.66 88.3 139.25 88.69 137.42 90.37 136.46 92.07 137.06 94.66 139.81 98.12 143.89 108.53 154.05 111.11 157.03 
M 127.66 145.79 124.28 141.05 122.61 135.46 122.86 129.64 124.97 124.22 128.74 119.77 133.74 116.79 139.44 115.6 145.22 116.32 150.45 118.88 154.57 122.99 157.13 128.23 157.85 134.01 156.66 139.71 153.67 144.71 149.23 148.48 143.8 150.59 137.98 150.83 132.4 149.17 127.66 145.79 
M 151.69 125.05 153.74 129.24 154.32 133.86 153.36 138.42 150.97 142.42 147.42 145.44 143.08 147.13 138.42 147.32 133.96 145.99 130.16 143.28 
M 134.63 137.74 133.27 135.84 132.61 133.61 132.71 131.28 133.55 129.11 135.06 127.34 137.06 126.14 139.34 125.66 141.65 125.95 143.75 126.98 145.39 128.62 146.42 130.72 146.7 133.03 146.23 135.31 145.03 137.31 143.26 138.82 141.09 139.66 138.76 139.76 136.52 139.09 134.63 137.74 
M 134.99 136.31 138.3 139.62 
M 133.98 133.35 140.32 139.69 
M 138.08 135.51 141.91 139.34 
M 136.34 131.83 143.29 138.78 
M 138.5 132.04 144.35 137.89 
M 138.48 130.08 145.28 136.89 
M 140.1 129.76 146.01 135.67 
M 142.3 130.02 146.46 134.18 
M 142.18 127.95 146.63 132.4 
M 143.68 127.52 145.97 129.8 
M 107.09 152.69 109.36 154.96 
M 102.5 143.78 103.31 144.59 
M 102.76 135.4 103.53 136.17 
M 101.8 130.13 105.72 134.04 
M 104.24 128.25 107.01 131.02 
M 106.77 126.46 110.93 130.62 
M 109.35 124.72 112.97 128.34 
M 111.88 122.93 114.78 125.83 
M 114.36 121.09 116.64 123.37 
M 116.89 119.31 119.32 121.74 
M 119.37 117.47 123.47 121.57 
M 121.81 115.59 124.54 118.32 
M 124.24 113.7 127.33 116.79 
M 126.79 111.94 128.99 114.13 
M 129.51 110.34 133.7 114.53 
M 132.38 108.89 135.87 112.38 
M 135.33 107.52 139.42 111.61 
M 138.43 106.3 142.25 110.13 
M 141.53 105.09 144.56 108.12 
M 144.64 103.87 148.6 107.83 
M 147.71 102.62 150.03 104.95 
M 150.79 101.39 154.76 105.35 
M 153.95 100.23 156.19 102.48 
M 157.28 99.24 158.59 100.55 
M 165.45 157.38 164.93 157.87 163.77 159.97 163.52 160.7 163.61 161.26 
M 159.71 111.32 159.26 107.7 158.69 106.45 158.25 105.96 157.7 105.71 154.8 105.6 
M 158.25 133.85 159.32 132 161.26 129.58 162.25 129.07 164.14 128.81 
M 124.32 123.12 123.51 125.07 123.25 126.9 122.17 128.7 121.77 129.77 
M 132.28 117.17 131.79 117.03 
M 147.24 181.22 147.97 181.4 148.84 181.2 149.32 180.96 150.16 180 152.31 175.11 152.81 173.6 
M 133.55 149.51 131.65 150.75 130.04 152.41 129.32 155.26 128.91 155.98 
M 115.5 154.57 117.27 153.21 117.47 152.78 117.58 151.39 
M 146.32 162.13 144.98 160.53 143.75 159.39 142.44 158.75 141.38 157.8 
M 109.35 137.12 109.85 136.65 110.8 136.51 
M 134.11 113.84 134.07 113.06 134.59 110.81 
M 156.64 163.85 157.55 163.67 159.69 163.76 162.84 164.22 163.73 163.96 
M 160.26 160.66 162.31 161.65 163.27 161.6 
M 144.04 171.42 144.74 167.21 144.63 166.45 144.35 165.9 142.79 164.31 142.41 163.72 
M 169.37 172.4 169.09 171.27 169.11 169.04 169.69 167.08 170.14 166.71 
M 136.14 116.29 134.75 114.79 134.16 113.66 
M 114.33 137.16 113.34 135.69 113.1 133.87 112.5 132.4 
M 106.01 129.67 105.04 128.51 103.92 128.49 
M 127.62 168.59 125.09 166.25 123.39 165.17 
M 97.47 147.47 102.57 153.34 105.99 156.78 109.63 160.02 113.47 163.05 121.43 168.51 
M 106.61 156.43 106.62 157.33 
M 161.07 106.64 162.48 108.05 
M 159.04 98.85 166.63 106.44 
M 162.84 96.9 169.56 103.61 
M 166.65 94.95 171.92 100.22 
M 170.52 93.06 177.88 100.42 
M 174.39 91.17 182.65 99.43 
M 178.31 89.33 185.05 96.08 
M 182.23 87.5 190.43 95.69 
M 186.19 85.7 191.46 90.96 
M 190.16 83.91 197.47 91.22 
M 194.16 82.16 198.65 86.64 
M 198.18 80.41 206.42 88.66 
M 202.35 78.83 209.58 86.06 
M 206.53 77.26 214.39 85.11 
M 210.98 75.94 218.67 83.64 
M 215.4 74.61 223.96 83.16 
M 219.76 73.21 225.01 78.46 
M 224.27 71.96 230.37 78.06 
M 229.01 70.94 236.13 78.07 
M 234.01 70.19 241.97 78.14 
M 239.24 69.66 243.93 74.35 
M 245.13 69.78 250.21 74.87 
M 252.41 71.32 258.19 77.1 
M 260.05 73.19 266.79 79.94 
M 267.14 74.52 273.02 80.41 
M 274.3 75.93 279.43 81.06 
M 282 77.87 289.54 85.41 
M 290.62 80.73 296.12 86.24 
M 300.92 85.27 305.86 90.22 
M 311.87 90.47 319.96 98.55 
M 323.13 95.97 331.49 104.33 
M 334.5 101.59 340.74 107.82 
M 346.08 107.41 351.01 112.33 
M 357.13 112.7 362.79 118.36 
M 222.53 291.39 220.64 297.7 
M 222.53 291.39 225.23 291.39 226.04 291.7 226.37 292.6 226.1 293.5 225.23 294.39 224.24 294.7 221.54 294.7 
M 231.5 293.5 230.24 297.7 
M 231.23 294.39 230.81 293.8 230.3 293.5 229.4 293.5 228.71 293.8 227.93 294.39 227.36 295.3 227.18 295.89 227.21 296.8 227.63 297.39 228.14 297.7 229.04 297.7 229.73 297.39 230.51 296.8 
M 236.93 294.39 236.51 293.8 236 293.5 235.1 293.5 234.41 293.8 233.63 294.39 233.06 295.3 232.88 295.89 232.91 296.8 233.33 297.39 233.84 297.7 234.74 297.7 235.43 297.39 236.21 296.8 
M 239.93 291.39 238.04 297.7 
M 238.94 294.7 240.11 293.8 240.8 293.5 241.7 293.5 242.21 293.8 242.24 294.7 241.34 297.7 
M 244.16 295.3 247.76 295.3 247.94 294.7 247.82 294.1 247.1 293.5 246.2 293.5 245.51 293.8 244.73 294.39 244.16 295.3 243.98 295.89 244.01 296.8 244.43 297.39 244.94 297.7 245.84 297.7 246.53 297.39 247.31 296.8 
M 250.73 291.39 250.94 291.7 251.33 291.39 251.12 291.1 250.73 291.39 
M 250.4 293.5 249.14 297.7 
M 252.8 293.5 251.54 297.7 
M 252.44 294.7 253.61 293.8 254.3 293.5 255.2 293.5 255.71 293.8 255.74 294.7 254.84 297.7 
M 255.74 294.7 256.9 293.8 257.6 293.5 258.5 293.5 259.01 293.8 259.03 294.7 258.14 297.7 
M 265.1 293.5 263.84 297.7 
M 264.83 294.39 264.4 293.8 263.89 293.5 263 293.5 262.31 293.8 261.52 294.39 260.96 295.3 260.77 295.89 260.81 296.8 261.23 297.39 261.74 297.7 262.64 297.7 263.33 297.39 264.11 296.8 
M 270.5 293.5 268.61 299.8 
M 270.23 294.39 271.01 293.8 271.7 293.5 272.6 293.5 273.11 293.8 273.52 294.39 273.56 295.3 273.38 295.89 272.81 296.8 272.02 297.39 271.33 297.7 270.44 297.7 269.93 297.39 269.51 296.8 
M 275.36 295.3 278.95 295.3 279.14 294.7 279.02 294.1 278.3 293.5 277.39 293.5 276.7 293.8 275.93 294.39 275.36 295.3 275.18 295.89 275.2 296.8 275.63 297.39 276.14 297.7 277.04 297.7 277.73 297.39 278.51 296.8 
M 284.63 294.39 284.2 293.8 283.7 293.5 282.8 293.5 282.11 293.8 281.33 294.39 280.76 295.3 280.58 295.89 280.61 296.8 281.02 297.39 281.54 297.7 282.44 297.7 283.13 297.39 283.9 296.8 
M 287 293.5 285.74 297.7 
M 286.45 295.3 287.02 294.39 287.81 293.8 288.5 293.5 289.39 293.5 
M 291.23 291.39 291.44 291.7 291.83 291.39 291.62 291.1 291.23 291.39 
M 290.89 293.5 289.64 297.7 
M 296.02 294.39 295.9 293.8 295.1 293.5 294.2 293.5 293.2 293.8 292.73 294.39 292.85 295 293.36 295.3 294.77 295.6 295.27 295.89 295.31 296.8 294.83 297.39 293.83 297.7 292.94 297.7 292.13 297.39 292.01 296.8 
M 297.62 297.1 297.23 297.39 297.44 297.7 297.83 297.39 297.62 297.1 
"/></svg>
