<svg xmlns="http://www.w3.org/2000/svg" width="520" height="320"><rect x="0" y="0" width="520" height="320" fill="floralwhite"/><rect x="10" y="10" width="500" height="300" stroke="black" stroke-width="1" fill="none"/><path stroke="black" stroke-width="1" fill="none" stroke-linecap="round" stroke-linejoin="round" d="
M 147.51 138.29 169.01 132.77 190.58 126.94 201.36 124.74 212.14 123.16 244.49 117.6 255.27 115.51 266.06 115.38 276.84 116.71 298.4 118.55 309.18 118.9 319.97 118.6 330.75 119.77 341.53 121.97 352.31 125.09 363.1 128.73 373.88 132.67 384.66 137.03 395.44 141.86 406.23 146.97 417.98 152.95 
M 417.98 187.83 406.23 192.23 395.44 195.82 384.66 199.21 373.88 202.08 352.31 207.39 341.53 209.82 309.18 218.48 298.4 220.71 287.62 221.8 276.84 222.42 255.27 222.36 244.49 222.01 222.93 222.35 201.36 222.17 190.58 220.62 169.01 215.01 158.27 211.72 
M 149.95 140.98 149.95 139.37 148.94 137.92 
M 151.24 141.89 153.59 140.89 156.59 138.32 158.52 135.41 
M 154.06 136.58 154.75 136.72 
M 153.46 150.68 153.53 148.23 152.4 146.1 
M 159.45 135.22 160.07 135.02 
M 156.07 151.83 158.99 150.67 162.72 147.7 165.13 144.34 165.13 142.26 162.72 138.89 158.99 135.92 158.03 135.54 
M 153.45 141.3 160.86 141.19 
M 153.06 143.57 160.77 143.48 
M 153.65 145.04 161.12 145.52 
M 158.5 168.19 159.82 166.97 162.18 163.13 162.18 160.76 159.82 156.92 156.16 153.53 153.7 152.39 
M 155.28 159.3 158.29 158.72 
M 156.36 162.04 158.17 162.01 
M 157.59 165.08 157.64 165.09 
M 165.07 143.84 167.36 142.78 170.3 140.08 172.19 137.01 172.19 135.12 170.49 132.37 
M 163.08 134.87 168.47 134.18 
M 162.94 135.9 168.71 136.03 
M 162.5 138.08 169.23 138.38 
M 161.97 162.67 164.63 161.39 168.04 158.11 170.24 154.39 170.24 152.08 168.04 148.36 164.63 145.08 164.27 144.91 
M 159.5 150.97 166.17 149.97 
M 159.12 152.98 166.41 153.35 
M 159.83 154.74 166.35 156.41 
M 162.37 181.11 164.77 178.36 166.64 174.57 166.64 172.23 164.77 168.45 161.85 165.11 161.33 164.81 
M 159.47 171.26 163.16 170.49 
M 159.92 172.99 163.54 173.05 
M 160.49 175.79 163.72 176.03 
M 173.96 137.69 176.8 136.76 180.43 134.38 182.78 131.68 182.78 130.01 182.1 129.23 
M 176.5 130.75 178.61 130.77 
M 171.78 132.03 178.93 133.29 
M 171.63 155.46 174.68 154.27 178.6 151.23 181.13 147.79 181.13 145.66 178.6 142.22 174.68 139.18 171.63 138 
M 168.33 144.77 176.93 144.09 
M 168.9 146.44 177.01 146.87 
M 168.85 148.85 176.72 148.95 
M 168.81 174.64 171.82 173.37 175.68 170.13 178.17 166.46 178.17 164.18 175.68 160.51 171.82 157.26 169.45 156.27 
M 166.27 163.82 173.34 162.7 
M 166.17 165.12 174.05 165.18 
M 165.43 167.32 174.1 167.8 
M 172.51 183.88 172.51 181.89 170.29 178.1 166.86 174.75 165.97 174.31 
M 162.45 181.31 168.39 180.42 
M 163.16 183.08 168.55 183.33 
M 163.34 185.38 164.45 185.42 
M 182.67 131.08 185.02 130.31 188.03 128.34 188.84 127.41 
M 180.36 147.52 182.9 146.39 186.16 143.5 188.26 140.23 188.26 138.21 186.16 134.93 182.9 132.05 181.94 131.62 
M 178.32 137.68 184.87 136.39 
M 178.32 139.64 184.2 139.54 
M 178.07 141.14 184.15 142.09 
M 179.11 167.8 181.81 166.52 185.26 163.25 187.48 159.54 187.48 157.24 185.26 153.54 181.81 150.26 180.22 149.51 
M 176.75 156.56 183.71 155.7 
M 176.68 158.58 183.12 158.44 
M 176.62 159.99 183.34 160.74 
M 177.37 183.51 180.08 180.81 182.07 177.32 182.07 175.17 180.08 171.69 177.05 168.66 
M 172.54 174.78 178.33 173.76 
M 172.69 176.15 178 175.76 
M 172.61 178.27 178.79 178.81 
M 189.37 141.38 192.23 140.4 195.89 137.87 198.26 135 198.26 133.23 195.89 130.37 192.23 127.84 190.05 127.09 
M 186.14 132.54 193.82 131.55 
M 186.34 133.89 194.42 133.68 
M 186.62 135.64 194.43 136.16 
M 187.93 159.85 190.95 158.64 194.81 155.55 197.3 152.05 197.3 149.89 194.81 146.39 190.95 143.3 187.93 142.09 
M 185.31 149.63 192.54 147.97 
M 184.55 150.68 192.45 151.43 
M 185.32 152.91 192.86 153.9 
M 184.76 178.19 187.72 176.97 191.49 173.83 193.93 170.28 193.93 168.08 191.49 164.53 187.72 161.4 186.69 160.97 
M 182.29 167.29 189.99 166.51 
M 181.77 169.34 189.87 169.09 
M 181.55 170.71 189.52 172.21 
M 186.82 183.35 185.19 180.73 181.36 177.37 
M 178.24 183.5 183.12 182.94 
M 197.56 134.61 199.78 133.73 202.62 131.48 204.45 128.93 204.45 127.35 202.36 124.59 
M 194.97 127.31 201.36 126.39 
M 195.52 127.89 200.98 128.17 
M 195.54 129.64 201.27 129.79 
M 196.88 152.32 199.3 151.15 202.4 148.15 204.4 144.75 204.4 142.64 202.4 139.24 199.3 136.24 197.41 135.32 
M 194.15 141.93 200.43 141.07 
M 194.22 144.16 201.09 143.67 
M 194.62 145.03 200.32 146.02 
M 195.36 171.75 197.76 170.5 200.83 167.31 202.82 163.69 202.82 161.45 200.83 157.83 197.76 154.64 196.41 153.94 
M 193.35 160.37 199.37 160.15 
M 193.04 162.24 199.23 162.68 
M 193.23 164.02 199.3 165.74 
M 194.72 184.56 195.31 183.97 197.24 180.57 197.24 178.47 195.31 175.08 192.73 172.49 
M 188 177.66 193.75 176.89 
M 188.19 179.07 193.57 179.53 
M 188.12 181.61 193.27 182.49 
M 204.17 128.47 206.65 127.78 209.82 126 211.86 123.99 211.86 123.2 
M 202.81 124.53 208.36 124.59 
M 204.06 144.29 206.66 143.25 209.98 140.58 212.12 137.56 212.12 135.69 209.98 132.66 206.66 129.99 204.06 128.95 
M 201.82 135.21 208.2 133.96 
M 201.77 136.24 208.41 136.63 
M 201.1 138.25 208.21 138.63 
M 203.12 162.96 205.76 161.74 209.15 158.63 211.33 155.1 211.33 152.91 209.15 149.38 205.76 146.27 203.69 145.32 
M 200.93 152.19 207.58 150.89 
M 200.12 153.96 206.95 154.31 
M 201.01 155.84 207.38 157.01 
M 199.72 180.88 202.41 179.67 205.86 176.57 208.09 173.05 208.09 170.88 205.86 167.36 202.11 164.13 
M 197.24 170.66 204.31 168.83 
M 196.64 172.3 204.53 172.11 
M 197.19 173.5 204.07 174.31 
M 202 189.15 202 186.92 199.75 183.3 196.55 180.36 
M 196.27 185.56 197.94 185.4 
M 211.36 135.86 212.97 135.12 215.54 132.75 217.2 130.07 217.2 128.42 215.54 125.74 212.97 123.38 212.4 123.12 
M 209.22 127.92 213.98 127.57 
M 208.69 129.32 213.89 129.28 
M 209.21 130.9 214.66 131.03 
M 210.85 154.2 212.85 153 215.41 149.94 217.06 146.48 217.06 144.34 215.41 140.87 212.85 137.81 211.36 136.92 
M 208.54 143.4 214.28 142.29 
M 209.28 144.94 214.15 145.74 
M 208.54 146.99 214.12 148.15 
M 209.38 173.56 211.37 172.31 213.91 169.1 215.55 165.47 215.55 163.22 213.91 159.59 211.37 156.38 210.55 155.87 
M 207.9 162.6 212.77 161.61 
M 207.14 164.02 213.04 164.57 
M 207.19 166.42 212.26 167.33 
M 204.13 190.07 206.39 188.89 209.29 185.88 211.16 182.47 211.16 180.36 209.29 176.95 207.29 174.88 
M 202.5 179.21 208.01 179.16 
M 201.81 181.85 207.4 181.5 
M 202.34 183.52 207.85 183.84 
M 217.08 129.02 219.48 128.33 222.55 126.56 224.53 124.56 224.53 123.32 222.58 121.34 
M 214.86 123.07 221.22 122.53 
M 214.81 123.64 221.35 123.94 
M 214.67 125.2 220.56 125.06 
M 216.92 144.77 219.26 143.74 222.26 141.08 224.2 138.07 224.2 136.21 222.26 133.2 219.26 130.54 216.92 129.51 
M 215.11 135.34 220.7 135.31 
M 214.49 137.16 220.26 137.38 
M 215.02 138.46 220.74 139.35 
M 215.88 163.52 218.17 162.28 221.09 159.11 222.98 155.53 222.98 153.31 221.09 149.72 218.17 146.56 216.47 145.64 
M 213.57 152.9 219.45 151.27 
M 213.64 154.64 219.58 154.81 
M 213.46 156 219.08 157.16 
M 213.27 182.46 215.76 181.21 218.95 178 221.01 174.36 221.01 172.1 218.95 168.47 215.76 165.25 214.97 164.85 
M 212.08 171.04 217.48 170.64 
M 210.92 173.49 216.82 173.64 
M 210.63 174.99 217.44 175.58 
M 207.7 199.39 210.39 198.11 213.85 194.83 216.07 191.11 216.07 188.81 213.85 185.09 210.49 181.89 
M 207.05 187.86 212.28 186.66 
M 205.27 189.85 211.58 189.6 
M 204.8 191.95 211.91 192.59 
M 213.65 207.33 211.5 203.61 207.93 200.08 205.14 198.71 
M 204.63 206.67 209.33 206.26 
M 223.82 122.38 225.55 121.98 228.15 120.77 228.76 120.28 
M 223.51 135.63 225.32 134.82 227.83 132.58 229.45 130.05 229.45 128.49 227.83 125.96 225.32 123.72 223.82 123.05 
M 221.4 128.14 226.85 127.14 
M 221.91 129.18 226.98 129.63 
M 221.95 130.99 226.14 131.46 
M 222.52 153.17 224.36 152.01 226.72 149.04 228.24 145.68 228.24 143.6 226.72 140.24 224.36 137.27 223.51 136.73 
M 221 142.51 225.03 142.22 
M 220.85 144.22 225.8 144.8 
M 220.94 146.54 225.26 147.53 
M 220.78 173.14 222.56 171.8 224.85 168.37 226.33 164.49 226.33 162.08 224.85 158.2 222.56 154.77 222.3 154.57 
M 218.84 161.18 223.34 160.58 
M 219.23 163.18 223.41 163.64 
M 219.07 165.05 223.53 166.02 
M 218.78 193.09 221.05 191.84 223.96 188.63 225.83 185 225.83 182.75 223.96 179.12 221.05 175.91 220.27 175.48 
M 216.67 182.22 222.08 181.55 
M 216.78 184.35 222.51 184.21 
M 216.74 185.73 222.5 186.74 
M 212.98 206.7 215.91 203.15 217.8 199.14 217.8 196.65 215.91 192.64 215.28 191.87 
M 213.76 194.56 213.99 194.5 
M 210.23 197.86 214.11 198.13 
M 208.96 200.35 214.08 201.3 
M 229.9 129.28 232.29 128.62 235.36 126.93 237.33 125.01 237.33 123.82 235.36 121.91 232.29 120.21 231.08 119.88 
M 227.42 123.38 234.22 122.89 
M 227.19 124.69 233.46 124.31 
M 227.71 125.57 234.19 125.65 
M 229.15 144.31 231.5 143.31 234.52 140.76 236.47 137.87 236.47 136.08 234.52 133.19 231.5 130.64 229.15 129.64 
M 226.89 135.91 232.83 134.42 
M 226.99 136.75 233.23 136.76 
M 226.46 138.19 232.99 138.92 
M 227.54 162.9 229.86 161.64 232.83 158.42 234.75 154.77 234.75 152.51 232.83 148.86 229.86 145.64 227.7 144.46 
M 225.3 151.82 230.99 151.13 
M 225.45 153.89 231.06 154.04 
M 225.36 155.9 230.83 156.26 
M 226.22 183.75 228.66 182.4 231.79 178.96 233.81 175.06 233.81 172.64 231.79 168.74 228.66 165.3 226.22 163.95 
M 224.18 172.04 230.05 170.64 
M 223.51 173.53 230.6 174.07 
M 223.62 175.44 230.11 176.55 
M 222.16 202.19 224.94 200.83 228.5 197.36 230.8 193.43 230.8 191 228.5 187.06 225.16 183.81 
M 222.93 189.41 226.89 188.96 
M 220.61 191.94 226.52 191.99 
M 219.06 194.63 226.42 195.16 
M 227.32 207 226.99 206.45 223.2 202.86 220.24 201.46 
M 236.62 123.08 238.54 122.63 241.08 121.45 242.72 120.1 242.72 119.27 241.33 118.14 
M 236.25 118.99 239.4 118.52 
M 234.95 119.76 240.01 119.26 
M 234.53 120.67 239.57 120.36 
M 236.16 135.89 238.16 135.05 240.73 132.91 242.38 130.48 242.38 128.97 240.73 126.54 238.16 124.39 236.62 123.75 
M 234.32 128.49 239.1 127.78 
M 234.11 129.41 239.66 130.05 
M 234.01 131.21 239.8 131.23 
M 234.55 152.48 236.6 151.36 239.23 148.5 240.93 145.27 240.93 143.26 239.23 140.02 236.6 137.16 235.77 136.71 
M 233.03 143.08 237.83 141.52 
M 232.25 144.4 237.57 143.99 
M 233.02 145.69 238.02 146.33 
M 233.08 172.27 234.37 171.39 237 167.76 238.7 163.64 238.7 161.09 237 156.98 234.37 153.34 234.07 153.14 
M 230.5 160.57 235.57 159.12 
M 230.76 162.66 235.38 162.44 
M 230.57 164.55 235.33 165.12 
M 233.02 195.96 235.04 194.59 237.63 191.08 239.3 187.11 239.3 184.65 237.63 180.68 235.04 177.17 233.08 175.85 
M 230.76 183.93 236.37 182.47 
M 231.06 185.68 236.75 186.19 
M 231.26 188.04 236.08 189.38 
M 232.08 206.8 234.51 202.47 234.51 199.93 232.28 195.82 230.12 193.54 
M 226.91 198.53 230.41 198.13 
M 224.06 201.26 230.05 200.97 
M 223.13 203.04 230.49 204.37 
M 242.72 129.82 245.05 129.15 248.02 127.44 249.94 125.5 249.94 124.29 248.02 122.35 245.05 120.64 242.72 119.97 
M 240.64 123.62 246.55 123.29 
M 240.58 124.48 246.02 124.98 
M 240.67 125.63 246.94 125.99 
M 242.16 145.07 244.57 144.06 247.67 141.48 249.66 138.56 249.66 136.75 247.67 133.83 244.57 131.25 242.16 130.24 
M 239.99 136.53 246.32 135.2 
M 239.94 137.76 246.51 137.85 
M 239.52 139.44 246.11 139.69 
M 240.67 163.72 243.22 162.46 246.47 159.24 248.57 155.59 248.57 153.33 246.47 149.67 243.22 146.45 240.67 145.19 
M 238.43 152.52 245 151.9 
M 237.96 154.2 244.31 154.6 
M 238 156.35 245.16 157.36 
M 239.25 184.77 241.75 183.39 244.94 179.83 247.01 175.8 247.01 173.31 244.94 169.28 241.75 165.72 239.25 164.33 
M 236.71 172.36 243.05 171.31 
M 237.09 174.44 243.66 174.76 
M 236.58 176.74 243.72 177.75 
M 236.97 205.29 239.79 203.87 243.4 200.23 245.73 196.11 245.73 193.56 243.4 189.44 239.79 185.8 238.7 185.25 
M 236.26 192.54 241.93 191.67 
M 234.26 195.21 241.44 194.53 
M 233.83 196.68 241.32 197.53 
M 238.48 206.56 236.09 205.48 
M 249.25 123.31 250.94 122.88 253.33 121.66 254.87 120.27 254.87 119.41 253.33 118.02 250.94 116.79 249.96 116.54 
M 247.63 118.97 251.8 118.55 
M 247.57 119.78 251.76 120.08 
M 246.85 120.3 252.08 121.07 
M 249.11 136.95 251 136.05 253.42 133.75 254.99 131.14 254.99 129.52 253.42 126.92 251 124.61 249.25 123.79 
M 247.12 128.72 252.19 127.92 
M 247.72 130.56 252.14 130.21 
M 247.7 131.82 251.79 132.67 
M 248.81 154.97 250.92 153.79 253.61 150.77 255.34 147.36 255.34 145.25 253.61 141.83 250.92 138.82 248.95 137.72 
M 246.54 144.95 252.23 143.82 
M 246.51 146.34 252.32 145.92 
M 246.43 148.07 251.8 148.79 
M 247.02 174.64 249.28 173.32 252.18 169.92 254.05 166.08 254.05 163.7 252.18 159.86 249.28 156.47 247.82 155.61 
M 245.3 163.32 251.12 161.82 
M 245.11 164.68 250.66 164.56 
M 244.57 166.39 250.74 168 
M 244.9 195.51 246.63 194.25 249.17 190.55 250.8 186.37 250.8 183.78 249.17 179.6 246.63 175.91 246.27 175.64 
M 243.16 182.95 247.83 181.69 
M 242.66 184.7 247.39 185.41 
M 243.2 187.21 247.78 188.26 
M 252.48 206.34 252.48 205.88 250.24 201.65 246.77 197.93 244.9 196.92 
M 241.17 204.95 248.3 204.29 
M 254.8 129.71 257 129.01 259.82 127.22 261.64 125.19 261.64 123.94 259.82 121.91 257 120.12 254.8 119.42 
M 252.59 124.02 257.88 123 
M 252.44 124.95 257.97 124.56 
M 252.55 125.28 258 126.5 
M 254.96 146.02 257.29 144.94 260.28 142.19 262.2 139.08 262.2 137.15 260.28 134.04 257.29 131.29 254.96 130.22 
M 252.93 136.73 258.86 135.42 
M 253.18 138.48 258.87 137.88 
M 253.03 139.46 258.27 140.2 
M 254.6 165.58 257.12 164.3 260.34 161.01 262.43 157.28 262.43 154.97 260.34 151.24 257.12 147.95 254.72 146.73 
M 252.52 154.17 258.3 153.43 
M 252.56 156.06 258.19 156.01 
M 252.37 158.19 258.84 159.06 
M 252.79 186.17 255.38 184.76 258.7 181.16 260.84 177.07 260.84 174.55 258.7 170.46 255.38 166.86 253.38 165.77 
M 250.04 173.85 257.06 172.51 
M 250.73 175.77 256.78 176.1 
M 250.06 177.53 257.07 178.64 
M 254.87 206.33 258.07 202.97 260.38 198.7 260.38 196.06 258.07 191.79 254.49 188.02 251.7 186.55 
M 249.42 195.57 256.55 194.25 
M 249.17 197.19 255.73 197.01 
M 249.07 199.13 256.66 200.91 
M 260.55 122.35 262.3 121.88 264.54 120.67 265.98 119.29 265.98 118.44 264.54 117.07 262.3 115.85 260.79 115.44 
M 258.38 118.03 263.32 117.62 
M 258.93 118.54 263.16 118.78 
M 258.85 119.46 263.65 120.36 
M 261.51 135.64 262.3 135.23 264.65 132.82 266.17 130.08 266.17 128.39 264.65 125.65 262.3 123.24 260.47 122.29 
M 259.07 127.5 263.41 127.18 
M 258.61 129.7 263.18 128.77 
M 258.42 130.52 263.85 131.32 
M 261.68 155.83 263.4 154.7 265.89 151.44 267.49 147.74 267.49 145.45 265.89 141.76 263.4 138.49 261.51 137.25 
M 260.02 144.33 264.39 144.13 
M 259.32 146.62 264.27 146.75 
M 259.27 148.19 265.05 149.84 
M 261.09 176.75 263.18 175.38 265.87 171.89 267.6 167.93 267.6 165.48 265.87 161.53 263.18 158.04 261.68 157.06 
M 258.9 165.09 264.28 163.29 
M 258.83 166.43 264.79 166.89 
M 258.72 169.18 264.62 169.88 
M 259.56 196.86 260.71 196.11 263.66 192.26 265.56 187.91 265.56 185.21 263.66 180.86 260.71 177.01 260.08 176.6 
M 256.37 184.72 261.71 183.48 
M 256.27 186.42 261.83 186.87 
M 255.88 188.38 261.99 190.15 
M 265.58 206.4 264.98 205.05 262.01 201.24 259.68 199.76 
M 266.27 129.01 268.47 128.27 271.29 126.39 273.11 124.25 273.11 122.93 271.29 120.79 268.47 118.9 266.27 118.17 
M 264.27 122.82 269.75 122.22 
M 263.8 123.88 269.7 123.4 
M 264.04 124.36 270.09 125 
M 267.1 146.16 269.37 145.03 272.29 142.14 274.17 138.87 274.17 136.84 272.29 133.57 269.37 130.68 267.1 129.55 
M 264.44 136.65 271.03 135.32 
M 264.42 138.05 270.95 137.97 
M 264.88 139.18 270.73 140.47 
M 267.56 166.71 269.92 165.36 272.93 161.89 274.88 157.97 274.88 155.54 272.93 151.62 269.92 148.16 267.56 146.81 
M 265.38 154.68 271.05 154.17 
M 265.71 156.91 271.47 156.51 
M 265.73 159.02 270.91 160.06 
M 266.81 188.38 269.35 186.92 272.6 183.16 274.7 178.9 274.7 176.27 272.6 172.01 269.35 168.25 266.98 166.88 
M 264.51 175.68 271.11 174.19 
M 264.48 177.22 271.32 177.2 
M 264.65 179.77 271.23 181.3 
M 271.54 206.49 272.41 205.51 274.6 201.19 274.6 198.51 272.41 194.18 269.01 190.36 266.36 188.87 
M 263.39 197.88 270.68 196.95 
M 263.96 199.69 270.28 200.32 
M 263.6 202.02 270.5 203.52 
M 271.47 121.11 273.24 120.6 275.59 119.24 277.1 117.7 277.08 116.73 
M 269.17 116.37 271.55 116.06 
M 269.27 117.25 274.19 116.86 
M 269.65 117.54 274.74 117.95 
M 273.5 135.95 274.58 135.39 277.04 132.83 278.63 129.93 278.63 128.13 277.04 125.23 274.58 122.67 272.66 121.67 
M 270.49 127.45 275.39 127.08 
M 271.04 128.97 275.47 129.51 
M 271.21 130.11 275.31 131.06 
M 274.18 155.83 275.69 154.8 278.11 151.48 279.67 147.71 279.67 145.38 278.11 141.62 275.69 138.3 273.8 137 
M 271.69 144.81 277.24 143.88 
M 272.32 146.37 276.73 146.16 
M 271.77 148.12 276.58 149.09 
M 273.95 177.98 275.82 176.54 278.29 172.77 279.87 168.5 279.87 165.86 278.29 161.59 275.82 157.82 274.18 156.56 
M 271.95 165.35 277.04 163.82 
M 272.24 167.36 276.72 167.05 
M 272.07 169 277.04 170.83 
M 273.86 201.16 276 199.63 278.74 195.7 280.5 191.26 280.5 188.51 278.74 184.07 276 180.15 273.95 178.68 
M 271.33 188.09 277.39 186.25 
M 271.6 189.71 277.44 189.57 
M 271.57 192.37 276.98 193.28 
M 278.07 206.52 275.58 203.04 273.82 201.81 
M 278.32 128.81 280.62 128.05 283.56 126.11 285.46 123.91 285.46 122.54 283.56 120.34 280.62 118.4 278.32 117.64 
M 276.3 122.09 281.96 121.07 
M 276.42 123.39 281.59 123.27 
M 276.05 124.36 282.08 125.08 
M 279.37 146.1 281.61 144.96 284.48 142.05 286.33 138.75 286.33 136.71 284.48 133.41 281.61 130.5 279.37 129.36 
M 277.48 136.4 282.69 134.95 
M 276.81 138.14 282.96 137.67 
M 276.77 139.49 283.01 140.09 
M 279.83 166.76 282.05 165.39 284.89 161.86 286.72 157.87 286.72 155.4 284.89 151.41 282.05 147.89 279.83 146.51 
M 277.92 154.87 283.12 153.73 
M 278.11 156.73 283.09 156.58 
M 277.73 158.51 283.11 159.86 
M 279.87 189.26 282.12 187.81 285.11 183.95 287.03 179.58 287.03 176.87 285.11 172.5 282.12 168.64 279.79 167.14 
M 277.98 175.59 283.85 174.57 
M 277.54 178.49 283.93 177.95 
M 277.34 180.89 283.64 181.8 
M 285.49 206.25 287.26 202.35 287.26 199.64 285.28 195.26 282.2 191.39 279.87 189.93 
M 277.54 198.75 283.47 197.67 
M 277.43 201.21 283.33 200.59 
M 277.35 203.55 284.08 204.54 
M 284.55 121.19 286.01 120.81 288.59 119.45 290.25 117.84 
M 282.43 117.46 286.26 117.5 
M 282.06 118.66 287.05 118.49 
M 285.66 136.16 287.1 135.42 289.53 132.92 291.09 130.08 291.09 128.33 289.53 125.49 287.1 122.99 285.2 122.01 
M 282.92 127.85 288.49 127.04 
M 283.27 129.21 288.23 129.69 
M 283.69 130.59 288.24 131.33 
M 286.06 155.32 287.56 154.24 289.82 150.98 291.27 147.28 291.27 144.99 289.82 141.3 287.56 138.04 285.8 136.77 
M 284.27 143.98 288.21 143.12 
M 284.38 146.11 288.33 145.95 
M 284.23 148.11 288.7 149.08 
M 286.34 177.02 287.64 175.98 289.96 172.23 291.46 168 291.46 165.37 289.96 161.14 287.64 157.39 286.06 156.12 
M 284.02 164.77 289.21 163.29 
M 284.18 166.62 289.13 166.25 
M 284.42 169.04 288.31 169.97 
M 286.55 199.83 287.46 199.09 289.9 195.08 291.47 190.55 291.47 187.74 289.9 183.21 287.46 179.21 286.34 178.29 
M 283.24 186.71 288.25 185.41 
M 283.59 188.7 288.41 189.4 
M 283.36 191.91 288.97 192.37 
M 289.96 206 288.17 203.17 286.55 201.88 
M 290.89 128.67 293.23 127.96 296.23 126.14 298.17 124.07 298.17 122.8 296.23 120.74 293.23 118.91 290.89 118.2 
M 288.47 122.72 294.69 122.25 
M 288.6 123.42 294.56 123.07 
M 288.92 124.46 294.53 125.4 
M 291.08 145.07 293.26 143.97 296.05 141.17 297.85 137.99 297.85 136.03 296.05 132.85 293.26 130.05 291.08 128.95 
M 289.44 135.14 294.58 134.31 
M 288.8 137.44 294.9 136.7 
M 288.96 139.07 294.58 139.82 
M 291.27 165.82 293.42 164.43 296.16 160.88 297.93 156.87 297.93 154.38 296.16 150.36 293.42 146.82 291.27 145.43 
M 288.89 153.38 294.67 152.16 
M 288.89 155.36 294.54 155.62 
M 289.25 157.71 294.51 159.04 
M 291.73 189.05 293.99 187.51 296.88 183.58 298.74 179.13 298.74 176.38 296.88 171.93 293.99 168 291.73 166.46 
M 289.44 175.88 295.71 174.77 
M 289.81 177.71 294.98 177.71 
M 289.86 179.89 295.56 181.38 
M 297.65 205.44 299.05 202.15 299.05 199.4 297.17 194.97 294.26 191.06 291.98 189.54 
M 289.91 198.48 295.47 197.5 
M 289.58 200.57 295.2 200.35 
M 290.21 202.62 295.54 203.83 
M 297.47 121.87 299.34 121.44 301.93 120.24 303.6 118.88 303.6 118.72 
M 294.96 118.82 298.9 118.57 
M 295.79 119.54 300.22 119.25 
M 297.21 134.97 298.93 134.17 301.32 131.94 302.87 129.42 302.87 127.85 301.32 125.33 298.93 123.1 297.47 122.43 
M 295.54 127.08 300.41 126.55 
M 295.22 129.01 300.24 128.79 
M 294.86 129.49 300.37 130.5 
M 297.3 152.56 298 152.06 300.22 148.84 301.65 145.19 301.65 142.93 300.22 139.28 298 136.06 297.21 135.49 
M 295.17 141.74 299 141.33 
M 294.53 144.07 298.99 144.39 
M 294.96 146.26 299.13 147.2 
M 298.07 176.27 299.04 175.46 301.39 171.49 302.91 167 302.91 164.22 301.39 159.73 299.04 155.77 297.3 154.3 
M 295.54 163.68 300.22 162.06 
M 295.27 165.97 299.79 165.93 
M 295.55 167.64 300.61 168.98 
M 298.38 201.07 300.3 199.54 302.83 195.53 304.45 190.98 304.45 188.17 302.83 183.63 300.3 179.62 298.33 178.05 
M 296.18 187.38 301.56 186.32 
M 296.14 189.23 301.26 189.56 
M 296.67 191.9 301.86 192.62 
M 301.2 204.91 299.57 202.26 298.38 201.29 
M 303.41 128.42 305.77 127.76 308.8 126.08 310.74 124.18 310.74 123 308.8 121.1 305.77 119.42 303.41 118.76 
M 300.88 122.99 307.34 121.79 
M 301.28 123.44 307.07 123.69 
M 300.66 124.55 306.73 125.09 
M 302.64 143.89 304.9 142.83 307.8 140.13 309.67 137.07 309.67 135.17 307.8 132.11 304.9 129.41 302.64 128.35 
M 300.18 134.65 306.64 133.87 
M 300.39 136.53 306.22 135.83 
M 300.31 137.79 306.41 138.27 
M 302.7 164.98 304.95 163.57 307.83 159.96 309.68 155.86 309.68 153.33 307.83 149.23 304.95 145.62 302.7 144.21 
M 300.31 152.47 306.54 151.26 
M 300.36 154.74 306.46 154.85 
M 300.57 157.04 305.85 157.53 
M 303.96 189.11 306.27 187.54 309.23 183.54 311.14 179 311.14 176.19 309.23 171.65 306.27 167.65 303.96 166.08 
M 301.79 175.18 307.65 174.05 
M 301.46 177.99 307.94 177.55 
M 301.43 180.09 307.49 181.29 
M 310.85 203.14 311.37 201.94 311.37 199.21 309.46 194.79 306.49 190.9 304.17 189.37 
M 301.9 197.93 307.64 196.9 
M 302.03 200.34 308.22 200.53 
M 301.72 202.62 306.84 203.94 
M 310.05 122.09 311.99 121.65 314.55 120.5 316.2 119.19 316.2 118.71 
M 307.59 119.84 312.94 120.15 
M 309.29 134.63 311.26 133.8 313.79 131.65 315.41 129.23 315.41 127.73 313.79 125.3 311.26 123.16 310.05 122.65 
M 307.49 127.29 312.83 126.47 
M 307.71 128.27 312.47 128.82 
M 307.16 129.97 312.33 130.22 
M 309.02 151.88 309.91 151.31 312.43 148.08 314.06 144.43 314.06 142.18 312.43 138.53 309.91 135.3 309 134.73 
M 305.95 141.78 311.5 140.94 
M 306.07 142.99 311.32 143.68 
M 305.93 145.1 310.66 146.5 
M 310.46 176.19 311.35 175.47 313.84 171.41 315.45 166.82 315.45 163.98 313.84 159.39 311.35 155.34 309.4 153.76 
M 307.75 163.38 312.98 161.6 
M 307.17 165.7 312.75 165.1 
M 307.35 168.09 312.21 169.27 
M 310.91 201.27 312.86 199.71 315.35 195.71 316.96 191.19 316.96 188.39 315.35 183.86 312.86 179.87 310.91 178.31 
M 309.41 187.35 313.86 186.17 
M 308.98 189.7 314.47 190.11 
M 308.83 192.42 314.13 192.98 
M 312.32 202.79 311.69 201.85 310.68 201.09 
M 316.18 128.78 318.56 128.13 321.62 126.47 323.59 124.59 323.59 123.42 321.62 121.54 318.56 119.88 316.18 119.23 
M 313.72 123.19 319.74 122.7 
M 314.25 123.83 319.9 123.75 
M 314.02 124.75 319.92 125.36 
M 315.29 144.14 317.71 143.09 320.8 140.41 322.8 137.36 322.8 135.48 320.8 132.44 317.71 129.75 315.29 128.7 
M 312.64 134.64 319.2 133.95 
M 313.18 136.36 318.71 136.21 
M 313.39 138.37 319.44 139.14 
M 315.29 165.17 317.71 163.77 320.81 160.16 322.81 156.08 322.81 153.56 320.81 149.48 317.71 145.87 315.29 144.47 
M 313.39 152.66 319.59 151.43 
M 313.14 155.07 319.24 154.35 
M 312.64 157.23 319.56 158.31 
M 316.5 189.29 318.86 187.72 321.87 183.72 323.81 179.17 323.81 176.36 321.87 171.82 318.86 167.81 316.5 166.25 
M 314.62 175.26 320.64 174.56 
M 314.24 177.58 320.11 177.9 
M 313.98 179.85 320.54 181.1 
M 324.11 200.1 324.11 199.47 322.17 195.06 319.15 191.16 316.8 189.64 
M 314.17 198.45 320.25 197.63 
M 314.95 201.16 320.93 200.44 
M 323.01 122.82 324.99 122.37 327.53 121.2 329.17 119.88 329.17 119.6 
M 320.75 119.04 322.36 118.86 
M 321.24 119.39 325.92 119.36 
M 321.08 119.81 326.46 120.11 
M 322.41 135.58 324.42 134.73 326.98 132.53 328.63 130.05 328.63 128.52 326.98 126.03 324.42 123.84 322.88 123.19 
M 320.89 127.8 325.25 127.53 
M 320.09 129.57 325.97 129.2 
M 320.28 130.91 325.51 131.62 
M 322.1 153.47 323.64 152.55 326.34 149.36 328.08 145.74 328.08 143.5 326.34 139.89 323.64 136.69 322.08 135.77 
M 319.5 143.17 325.17 141.5 
M 319.46 144.16 324.49 145 
M 319.06 146.22 325.23 146.94 
M 323.12 176.66 324.33 175.75 326.95 171.8 328.64 167.33 328.64 164.57 326.95 160.1 324.33 156.15 322.28 154.61 
M 319.96 163.67 325.94 162.74 
M 320.68 166.26 325.82 165.99 
M 319.91 168.2 325.41 169.73 
M 325.42 199.83 327.76 195.93 329.33 191.36 329.33 188.52 327.76 183.94 325.33 179.9 323.43 178.32 
M 321.54 188.08 326.91 186.78 
M 321.39 189.89 326.35 190.27 
M 322.02 191.95 326.48 193.76 
M 328.99 129.37 331.35 128.7 334.37 127 336.31 125.07 336.31 123.87 334.37 121.94 331.35 120.24 329.01 119.58 
M 326.5 123.96 332.62 122.59 
M 326.98 124.46 332.52 124.67 
M 326.29 125.09 332.72 126.28 
M 328.49 145.16 330.92 144.09 334.04 141.36 336.04 138.26 336.04 136.35 334.04 133.25 330.92 130.52 328.49 129.45 
M 325.68 135.25 332.8 135.09 
M 326.33 137.78 332.42 137.48 
M 325.9 139.35 332.54 139.7 
M 328.62 166.05 331.07 164.67 334.22 161.11 336.24 157.09 336.24 154.6 334.22 150.58 331.07 147.03 328.62 145.64 
M 326.19 154.06 332.74 153.08 
M 326.69 155.46 332.11 155.41 
M 326.57 157.84 332.54 158.8 
M 329.19 189.42 331.52 187.88 334.49 183.94 336.41 179.48 336.41 176.72 334.49 172.27 331.52 168.33 329.19 166.79 
M 327.39 176.13 332.83 174.56 
M 327.11 178 332.61 178.19 
M 327.35 180.27 333.25 181.61 
M 335.57 197.79 334.53 195.31 331.65 191.42 329.4 189.91 
M 326.77 199.13 333.2 197.98 
M 335.62 122.92 337.41 122.5 339.41 121.54 
M 333.25 120.57 335.42 120.72 
M 335.33 135.98 336.99 135.22 339.48 132.94 341.09 130.35 341.09 128.76 339.48 126.17 336.99 123.89 335.62 123.27 
M 332.74 128.25 337.7 127.94 
M 332.74 130.01 337.94 129.31 
M 333.52 131.17 338.36 131.29 
M 335.52 154.79 337.02 153.86 339.64 150.6 341.33 146.9 341.33 144.61 339.64 140.92 337.02 137.65 335.33 136.6 
M 332.78 144.27 338.18 142.52 
M 333.16 146.16 338.69 145.94 
M 333.13 147.85 338.65 149.01 
M 335.72 177.97 337.67 176.51 340.2 172.7 341.84 168.39 341.84 165.73 340.2 161.42 337.67 157.61 335.69 156.13 
M 333.79 164.85 338.76 163.79 
M 334.25 166.87 338.95 167.12 
M 334.2 169.56 339 170.37 
M 338.39 197.25 339.51 195.34 341.01 190.86 341.01 188.08 339.51 183.6 337.19 179.65 335.72 178.4 
M 333.19 187.33 338.53 185.91 
M 333.6 189.74 338.02 189.12 
M 333.62 192.16 338.71 192.92 
M 341.47 129.59 343.77 128.91 346.72 127.17 348.62 125.19 348.62 124.02 
M 339.13 123.14 344.99 123.28 
M 338.81 124.79 344.82 124.31 
M 338.82 125.69 345.11 126.57 
M 341.34 145.78 343.69 144.7 346.7 141.92 348.64 138.78 348.64 136.84 346.7 133.69 343.69 130.92 341.34 129.84 
M 339.48 136.19 345.01 135.24 
M 338.71 137.72 345.52 137.73 
M 339.38 139.74 345.48 140.06 
M 341.56 166.48 343.92 165.12 346.94 161.63 348.89 157.68 348.89 155.23 346.94 151.28 343.92 147.79 341.56 146.43 
M 338.88 154.91 345.69 153.3 
M 339.24 156.93 345.19 156.81 
M 339.61 158.84 345.38 159.17 
M 341.38 188.79 343.62 187.31 346.5 183.52 348.36 179.22 348.36 176.56 346.5 172.27 343.62 168.48 341.38 167 
M 339.38 176.05 345.02 174.64 
M 338.76 178.32 345.46 177.66 
M 339.54 180.09 345.19 180.74 
M 346.26 195.94 345.61 194.33 342.9 190.5 340.79 189.01 
M 347.95 136.06 349.36 135.38 351.79 133.05 353.35 130.42 353.35 128.79 351.79 126.16 349.96 124.41 
M 345.9 128.64 350.11 127.52 
M 345.54 129.62 350.35 129.84 
M 345.53 130.72 350.6 131.69 
M 348.19 155.37 349.81 154.33 352.31 151.1 353.92 147.44 353.92 145.18 352.31 141.53 349.81 138.3 347.95 137.1 
M 345.85 144.41 350.78 143.47 
M 345.74 146.35 350.83 146.79 
M 345.83 147.83 350.52 148.83 
M 347.72 177.2 349.61 175.77 352.02 172.11 353.58 167.97 353.58 165.4 352.02 161.26 349.61 157.6 348.19 156.53 
M 346.12 164.18 350.86 163.25 
M 345.94 166.21 350.68 167.06 
M 345.94 168.63 350.48 170.27 
M 349.94 195.39 350.86 193.91 352.36 189.66 352.36 187.04 350.86 182.79 348.53 179.04 347.7 178.37 
M 345.15 185.81 349.84 185.24 
M 345.44 188.79 349.61 187.99 
M 344.54 190.8 349.53 191.66 
M 353.69 129.44 355.9 128.76 358.47 127.17 
M 351.6 125.1 352.5 125.15 
M 353.7 145.8 355.92 144.71 358.76 141.93 360.59 138.77 360.59 136.82 358.76 133.66 355.92 130.87 353.7 129.79 
M 352.01 136.67 357.01 135.84 
M 351.27 138.05 357.64 137.93 
M 351.41 138.95 356.79 139.89 
M 353.91 166.32 356.17 164.97 359.08 161.53 360.95 157.63 360.95 155.21 359.08 151.31 356.17 147.87 353.91 146.52 
M 351.83 154.07 357.99 153.27 
M 352.16 156.24 357.1 156.49 
M 351.97 158.23 357.95 159.16 
M 353.27 187.92 355.57 186.48 358.51 182.81 360.41 178.66 360.41 176.08 358.51 171.92 355.57 168.25 353.27 166.82 
M 351.2 175.28 356.84 174.48 
M 351.44 177.13 356.7 177.77 
M 351.35 179.95 356.96 180.63 
M 357.48 194.23 356.92 192.96 354.05 189.2 351.82 187.74 
M 359.94 135.56 361.17 134.93 363.44 132.59 364.91 129.94 364.91 129.39 
M 357.89 127.34 358.89 127.31 
M 357.8 129.35 361.86 128.77 
M 357.65 130.8 362.57 130.91 
M 360.28 155.35 361.86 154.22 364.14 150.97 365.61 147.28 365.61 145 364.14 141.31 361.86 138.05 360.08 136.78 
M 358.59 144.4 362.59 143.43 
M 358.5 145.73 362.53 146.23 
M 358.1 147.53 362.46 148.58 
M 359.97 176.99 361.91 175.57 364.39 171.93 366 167.81 366 165.26 364.39 161.14 361.91 157.51 360.28 156.32 
M 358.28 164.18 362.63 163.07 
M 357.84 166.23 363.27 166.9 
M 358.05 168.48 362.69 169.5 
M 363.26 193.32 364.95 189.17 364.95 186.62 363.28 182.5 360.7 178.87 359.73 178.19 
M 356.73 185.82 361.95 185.09 
M 356.41 187.91 361.91 187.61 
M 356.85 190.41 361.58 191.47 
M 365.08 144.79 367.08 143.7 369.68 140.87 371.36 137.67 371.36 135.68 369.68 132.48 367.82 130.46 
M 362.69 134.57 368.76 134.1 
M 362.86 136.36 368.8 136.85 
M 362.83 137.85 368.66 139.5 
M 365.83 166.21 367.96 164.81 370.69 161.23 372.45 157.18 372.45 154.67 370.69 150.62 367.96 147.04 365.83 145.65 
M 364.06 153.74 369.6 153.08 
M 363.74 155.97 369.25 155.7 
M 363.69 158 369.59 159.13 
M 365.99 188.53 368.34 187.06 371.35 183.3 373.29 179.05 373.29 176.42 371.35 172.16 368.34 168.41 365.99 166.94 
M 363.28 175.86 369.55 174.61 
M 363.26 177.36 369.54 177.78 
M 363.46 179.81 369.99 180.83 
M 369.38 192.37 367.12 189.72 364.63 188.26 
M 370.51 133.66 371.78 132.97 372.52 132.17 
M 371.82 152.96 372.15 152.68 374.16 149.22 375.46 145.31 375.46 142.89 374.16 138.98 372.15 135.52 370.75 134.33 
M 368.65 141.68 373.41 140.9 
M 369.49 144.35 373.25 144.46 
M 369.07 145.95 372.94 146.96 
M 372.71 178.33 374.52 176.78 376.83 172.82 378.32 168.33 378.32 165.55 376.83 161.06 374.52 157.09 372.71 155.55 
M 371.29 164.78 375.26 163.7 
M 370.94 167.05 375.25 166.82 
M 371.34 169.19 376 170.72 
M 379.03 190.82 379.03 188.23 377.32 183.94 374.67 180.15 372.6 178.67 
M 370.5 187.84 375.58 186.24 
M 370.74 189.45 376.2 189.96 
M 370.22 192.11 370.58 192.19 
M 375.01 142.19 376.94 141.09 379.41 138.26 380.8 135.47 
M 373.53 132.76 373.88 132.66 
M 373.43 134.24 377.87 134.33 
M 373.51 135.92 377.78 136.19 
M 377.79 163.86 378.37 163.42 380.92 159.61 382.56 155.28 382.56 152.6 380.92 148.28 378.37 144.46 376.38 142.97 
M 374.75 151.75 379.75 150.6 
M 374.04 153.95 379.98 154.07 
M 374.19 156.44 379.1 157.42 
M 378.42 189.38 380.61 187.83 383.48 183.76 385.33 179.16 385.33 176.31 383.48 171.71 380.61 167.64 378.37 166.06 
M 375.76 175.51 381.56 174.36 
M 376 177.51 382.34 177.79 
M 375.93 179.69 381.65 181.16 
M 380.27 190.61 378.42 189.49 
M 380.92 148.69 382.84 145.33 384.12 141.37 384.12 138.91 383.34 136.49 
M 379.91 137.4 381.5 137.08 
M 377.69 139.9 381.75 140.23 
M 377.78 142.42 382.11 143.31 
M 384.67 175.34 386.81 171.06 388.22 166.12 388.22 163.07 386.81 158.13 384.63 153.77 382.93 152.07 
M 380.89 161.95 386 160.55 
M 380.97 164.89 385.66 164.82 
M 381.1 166.81 385.63 168.37 
M 391.11 188.6 389.55 183.7 387.13 179.55 385.25 177.94 
M 383.9 187.15 388.5 186.31 
M 383.77 189.67 385.76 189.67 
M 384.95 139.44 387.12 138.13 
M 387.71 162 388.49 161.39 391.04 157.41 392.68 152.9 392.68 150.11 391.04 145.6 388.49 141.62 386.5 140.06 
M 384.59 149.16 390.16 147.92 
M 384.51 151.67 389.39 151.61 
M 384.75 154.25 389.36 154.87 
M 390.55 188.62 391.97 187.49 394.7 183.17 396.46 178.27 396.46 175.23 394.7 170.33 391.97 166.01 389.84 164.32 
M 387.51 174.67 393.23 173.28 
M 388.17 176.31 393.62 176.51 
M 387.86 179.42 393.33 180.48 
M 391.25 146.35 393.22 143.03 393.86 141.15 
M 387.76 139.87 392.08 141.19 
M 395.83 174.97 398.25 170.23 399.68 165.12 399.68 161.96 398.25 156.85 396.05 152.33 394.33 150.57 
M 392.33 161.13 397.3 159.33 
M 392.69 164.01 396.89 163.31 
M 392.33 165.96 396.81 167.69 
M 402.05 186.32 400.93 182.66 398.64 178.37 396.86 176.7 
M 395.4 186.98 399.42 185.4 
M 399.17 159.8 401.89 155.69 403.59 151.1 403.59 148.26 402.45 145.18 
M 395.32 147.69 400.2 145.82 
M 395.16 150.14 400.74 149.6 
M 395.52 151.82 400.13 153.1 
M 403.45 186.03 405.79 182.11 407.5 177.06 407.5 173.93 405.79 168.88 403.13 164.42 401.06 162.68 
M 399.31 173.11 404.42 171.9 
M 398.79 175.54 404.62 175.15 
M 399.31 178.27 404.16 179.48 
M 406.89 171.97 408.53 168.32 409.87 163.13 409.87 159.92 408.53 154.74 406.47 150.16 404.85 148.37 
M 403.08 159.07 406.98 157.82 
M 403.47 161.31 407.64 161.56 
M 403.17 164.62 407.31 165.3 
M 413.01 183.81 412.27 181.27 409.98 176.8 408.19 175.06 
M 406.57 185.26 410.75 183.88 
M 408.23 159.64 410.47 158.09 413.33 154.12 414.54 151.19 
M 405.76 148.08 408.65 148.2 
M 406.3 150.31 411.47 151.25 
M 414.99 183.34 416.69 180.5 417.98 176.74 
M 417.98 170.77 416.69 167.01 413.96 162.46 411.83 160.68 
M 409.66 170.84 415.62 170.15 
M 409.56 173.88 415.11 173.59 
M 409.75 176.21 414.85 177.63 
M 416.98 168.35 417.98 166.51 
M 412.94 155.83 417.26 155.02 
M 412.42 158.95 417.23 158.17 
M 412.49 160.92 417.49 162.15 
M 158.52 135.41 158.52 135.41 
M 154.06 136.58 154.06 136.58 
M 160.07 135.02 160.07 135.02 
M 158.03 135.54 158.03 135.54 
M 161.68 208.86 161.53 208.53 
M 176.5 130.75 176.5 130.75 
M 166.15 210.11 168.18 207.92 169.56 205.32 
M 164.39 202.44 165.41 202.44 
M 163.51 205.51 166.19 206.1 
M 188.84 127.41 188.84 127.41 
M 176.97 212.75 175.49 209.33 174.62 208.19 
M 179.33 213.29 182.61 209.9 183.13 208.94 
M 191.52 216.05 191.52 215.76 189.7 211.66 187.79 209.21 
M 184.93 214.61 187.87 213.58 
M 192.03 216.12 193.52 215.37 196.98 211.89 198.75 208.76 
M 205.71 217.28 203.83 213.38 200.84 209.85 198.94 208.72 
M 222.58 121.34 222.58 121.34 
M 208.25 217.27 211.5 214.06 213.8 210.07 213.8 207.6 213.65 207.33 
M 202.64 208.43 209.6 208.91 
M 228.76 120.28 228.76 120.28 
M 226.89 217.19 229.43 213.03 229.43 210.51 227.32 207 
M 217.6 209.5 225.15 208.21 
M 216.92 211.35 225.17 211.5 
M 217.15 213.89 225 214.55 
M 241.33 118.14 241.33 118.14 
M 228.55 210.35 232.08 206.8 
M 232.32 217.04 229.93 215.63 
M 233.12 213.3 241.18 212.39 
M 246.05 216.82 246.77 216.44 250.24 212.71 252.48 208.49 252.48 206.34 
M 241.88 207.31 247.99 206.84 
M 241.8 208.92 248.31 210.41 
M 251.7 208.2 254.49 206.73 254.87 206.33 
M 256.97 208.03 263.13 207.5 
M 257.74 213.19 263.39 213.9 
M 272.76 217.13 272.35 216.4 268.96 213.01 266.31 211.69 
M 278.52 217.05 279.94 213.55 279.94 210.95 278.07 206.52 
M 271.46 210.33 276.81 209.38 
M 279.8 212.1 282.2 210.59 285.28 206.73 285.49 206.25 
M 284.62 216.74 282.25 214.13 279.83 212.79 
M 290.25 117.84 290.25 117.84 
M 291.35 216.25 292.15 214.03 292.15 211.34 290.59 207 289.96 206 
M 284.41 210.76 289.65 209.04 
M 283.99 212.9 289.61 212.55 
M 291.98 212.02 294.26 210.49 297.17 206.58 297.65 205.44 
M 298.9 118.57 298.9 118.57 
M 302.81 214.74 303.41 213.02 303.41 210.36 301.9 206.06 301.2 204.91 
M 296.36 213.65 300.99 214.75 
M 304.17 211.77 306.49 210.25 309.46 206.36 310.85 203.14 
M 306.84 203.94 307.86 204.21 
M 306.88 213.95 306.59 213.6 304.29 212.23 
M 315.86 211.74 315.86 209.92 314.22 205.63 312.32 202.79 
M 307.44 208.77 313.24 208.38 
M 308.19 211.42 312.92 211.34 
M 307.51 213.15 308.8 213.58 
M 318.24 211.11 319.15 210.52 322.17 206.62 324.11 202.21 324.11 200.1 
M 323.43 201.56 325.42 199.83 
M 328.45 208.58 327.76 206.81 325.17 203.04 323.42 201.76 
M 321.09 209.83 325 209.42 
M 334.29 207.16 336.39 202.44 336.39 199.72 335.57 197.79 
M 327.44 201.25 332.76 201.2 
M 335.72 200.54 337.19 199.29 338.39 197.25 
M 339.13 206 337.41 203.11 335.72 201.69 
M 338.31 197.51 343.85 197.12 
M 338.79 200.2 344.39 199.65 
M 338.67 202.39 343.97 203.17 
M 358.47 127.17 358.47 127.17 
M 357.8 202.09 358.77 199.85 358.77 197.22 357.48 194.23 
M 349.35 196.16 355.74 195.01 
M 349.85 200.49 355.17 201.52 
M 358.68 198.35 360.7 196.93 363.26 193.32 
M 361.99 196.99 368.28 195.46 
M 362.42 198.84 369.07 199.04 
M 362.21 200.9 362.82 201.01 
M 375.11 198.33 377.32 195.17 379.03 190.82 
M 370.58 192.19 375.53 193.28 
M 384.66 196.1 384.04 194.8 380.86 190.97 380.27 190.61 
M 383.34 136.49 383.34 136.49 
M 383.04 191.89 388.21 193.61 
M 395.1 193.22 393.48 191.04 391.16 189.48 
M 393.86 141.15 393.86 141.15 
M 402.22 191.14 402.41 190.52 402.41 187.52 402.05 186.32 
M 395.05 189.28 399.89 188.83 
M 395.53 191.57 398.42 192.25 
M 401.88 187.62 403.13 186.57 403.45 186.03 
M 405.31 190.23 403.18 188.69 
M 413.74 187.5 413.74 186.33 413.01 183.81 
M 406.58 187.74 410.87 188.35 
M 199.62 124.67 201.37 124.74 
M 213.98 122.47 216.83 82.26 217.8 82.3 217.46 122.24 
M 228.29 119.98 232.23 58.14 233.19 58.18 231.78 119.76 
M 242.61 117.51 248.89 41.7 249.86 41.76 246.11 117.29 
M 257 115.14 273.58 35.26 274.53 35.44 260.49 115.45 
M 271.56 115.71 301.49 30 302.41 30.3 274.98 116.48 
M 286.03 117.03 313.82 42.84 314.74 43.16 289.46 117.77 
M 300.5 118.14 321.41 56.62 322.33 56.92 303.96 118.73 
M 315.03 118.14 331.02 74.16 331.93 74.46 318.52 118.65 
M 329.12 119.14 330.75 119.77 
M 202.04 124.64 206.37 116.65 208.4 112.53 210.23 108.33 211.85 104.06 213.26 99.7 214.47 95.27 216.55 86.28 
M 217.77 86.33 221.94 82.11 223.87 79.89 225.63 77.57 227.19 75.13 228.56 72.56 229.76 69.88 231.83 64.32 
M 233.05 64.37 237.31 61.9 239.3 60.53 241.15 59.02 242.84 57.34 244.37 55.5 245.76 53.52 248.26 49.28 
M 249.48 49.36 254.79 49.2 257.4 48.94 259.95 48.48 262.45 47.8 264.88 46.9 267.26 45.8 271.92 43.24 
M 273.12 43.47 279 43.61 281.9 43.48 284.76 43.17 287.58 42.62 290.36 41.85 293.1 40.88 298.5 38.57 
M 299.66 38.95 301.31 42.35 302.27 43.91 303.38 45.33 304.64 46.59 307.64 48.63 311.05 50.26 
M 312.19 50.67 312.7 53.99 313.12 55.55 313.72 57.02 314.51 58.36 316.66 60.72 319.32 62.78 
M 320.48 63.15 321.39 67.2 322.01 69.12 322.8 70.95 323.8 72.66 326.35 75.76 329.42 78.56 
M 330.57 78.94 329.24 87.95 328.77 92.46 328.49 96.97 328.45 101.48 328.64 106 329.02 110.51 330.18 119.55 
M 219.89 84.24 223.87 79.89 225.63 77.57 227.19 75.13 228.56 72.56 230.83 67.12 
M 220.41 90.72 223.7 87.14 226.43 83.21 227.56 81.09 229.44 76.6 
M 220.93 97.21 223.52 94.39 224.66 92.88 226.57 89.62 228.04 86.08 
M 221.46 103.69 224.18 100.53 225.57 98.15 226.65 95.56 
M 235.21 63.17 239.3 60.53 241.15 59.02 242.84 57.34 244.37 55.5 247.04 51.43 
M 235.44 69.66 239.06 67.34 240.69 66 242.19 64.52 243.53 62.89 245.89 59.29 
M 235.67 76.16 238.81 74.14 241.53 71.69 242.7 70.28 244.74 67.16 
M 235.9 82.65 238.56 80.94 240.87 78.87 241.86 77.67 243.59 75.02 
M 236.13 89.15 239.3 86.94 241.02 85.06 242.44 82.89 
M 236.36 95.64 238.07 94.55 239.55 93.22 241.29 90.75 
M 252.15 49.32 257.4 48.94 259.95 48.48 262.45 47.8 264.88 46.9 269.6 44.56 
M 252.08 56.04 256.81 55.7 259.11 55.29 261.36 54.68 263.55 53.87 267.8 51.76 
M 252.02 62.77 256.23 62.46 258.27 62.1 262.21 60.83 265.99 58.96 
M 251.96 69.49 255.64 69.22 257.43 68.9 260.88 67.8 264.18 66.16 
M 251.9 76.21 255.05 75.98 256.59 75.71 259.54 74.76 262.37 73.36 
M 251.84 82.93 255.74 82.51 258.21 81.72 260.57 80.56 
M 251.78 89.66 253.88 89.5 255.9 89.05 258.76 87.75 
M 276.07 43.58 281.9 43.48 284.76 43.17 287.58 42.62 290.36 41.85 295.81 39.76 
M 275.18 49.9 280.5 49.82 283.12 49.53 285.69 49.03 288.22 48.33 293.19 46.42 
M 274.3 56.23 279.11 56.15 281.47 55.89 286.09 54.8 290.58 53.08 
M 273.41 62.55 277.72 62.48 279.83 62.25 283.95 61.28 287.97 59.74 
M 272.53 68.88 276.32 68.82 280.02 68.26 281.82 67.75 285.36 66.4 
M 271.65 75.2 274.93 75.15 276.54 74.97 279.69 74.23 282.75 73.06 
M 270.76 81.53 274.89 81.33 277.55 80.71 280.14 79.72 
M 269.88 87.85 273.25 87.69 275.42 87.18 277.53 86.38 
M 300.46 40.68 302.27 43.91 303.38 45.33 304.64 46.59 306.07 47.68 309.31 49.47 
M 298.71 47.35 300.36 50.3 301.37 51.6 302.52 52.74 303.83 53.74 306.79 55.37 
M 296.95 54.02 298.45 56.69 299.36 57.86 301.58 59.8 304.26 61.28 
M 295.2 60.7 296.54 63.08 298.29 65.05 299.34 65.86 301.74 67.18 
M 293.45 67.37 294.63 69.47 295.35 70.39 297.1 71.92 299.21 73.09 
M 291.7 74.04 292.72 75.86 293.34 76.66 294.86 77.98 296.68 78.99 
M 289.95 80.72 291.34 82.93 292.62 84.04 294.16 84.89 
M 288.2 87.39 289.33 89.19 290.37 90.1 291.63 90.8 
M 312.42 52.35 313.12 55.55 313.72 57.02 314.51 58.36 315.5 59.59 317.95 61.77 
M 310.37 60.02 311 62.86 311.52 64.15 312.22 65.34 313.1 66.42 315.27 68.34 
M 308.33 67.7 308.88 70.16 309.94 72.31 310.7 73.25 312.58 74.92 
M 306.29 75.38 306.75 77.46 307.14 78.41 308.3 80.08 309.89 81.5 
M 304.25 83.05 304.94 85.54 305.89 86.92 307.21 88.08 
M 302.21 90.73 302.5 92.06 303.08 93.23 304.52 94.65 
M 320.9 65.19 322.01 69.12 322.8 70.95 323.8 72.66 324.99 74.26 327.85 77.18 
M 318.89 74.55 319.81 77.8 321.28 80.72 322.26 82.03 324.63 84.44 
M 316.88 83.91 317.6 86.47 318.12 87.66 319.54 89.81 321.4 91.7 
M 314.88 93.27 315.4 95.14 316.25 96.82 318.18 98.97 
M 163.35 185.75 165.65 185.06 168.97 184.71 172.47 183.88 175.11 183.55 192.7 183.24 198.49 186.96 200.88 188.32 202.48 189.5 203.07 191.67 204.18 194.37 204.79 197.91 204.83 201.04 205.6 204.91 204.15 207.52 198.27 208.87 195.54 209.65 175.06 208.49 172.07 206.46 169.18 205.16 166.49 203.61 164.54 201.49 
M 163.4 187.12 165.53 186.53 168.6 186.76 171.37 186.51 174.32 185.98 177.56 186.28 180.43 185.8 
M 163.58 189.24 169.06 189.54 175.09 190.09 190.44 188.51 193.33 188.75 196.38 189.33 199.14 189.17 
M 163.91 191.79 172.44 193.51 175.63 194 183.13 194.01 185.77 194.57 188.13 194.21 190.6 193.29 193.8 193.93 
M 164.68 194.91 168.69 196.24 172.56 197.25 175.38 198.66 178.64 199.71 181.62 199.79 186.63 200.64 190.19 199.56 194.05 199.88 
M 164.91 198.51 171.78 201.55 173.84 202.73 
M 181.23 216.8 198.74 244.21 197.94 244.77 178.37 218.79 
M 179.44 216.46 180.05 217.63 
M 185.68 228.5 196.9 250.14 196.06 250.62 176.4 218.17 
M 177.64 216.13 178.09 217.22 
M 182.72 228.59 193.99 256.28 193.1 256.67 174.45 217.53 
M 175.83 215.8 176.13 216.79 
M 179.66 228.47 189.96 262.47 189.04 262.78 172.52 216.89 
M 174 215.47 174.17 216.35 
M 176.58 228.19 184.81 268.57 183.86 268.78 170.6 216.25 
M 172.15 215.15 172.23 215.88 
M 173.51 227.78 178.53 274.41 177.57 274.53 168.69 215.6 
M 170.76 214.96 170.76 215.33 
M 170.96 230.68 171.61 279.96 170.65 280 167.27 215.07 
M 195.98 242.17 194.57 242.97 193.74 243.88 193.65 244.39 193.78 244.94 195.15 246.78 
M 194.09 247.37 192.53 248.04 191.52 248.91 191.33 249.45 191.35 250.07 192.35 252.26 
M 191.24 252.76 189.54 253.29 188.36 254.1 188.06 254.66 187.96 255.33 188.55 257.8 
M 187.39 258.19 185.56 258.58 184.21 259.32 183.81 259.89 183.59 260.58 183.72 263.26 
M 182.53 263.53 180.59 263.78 179.08 264.43 178.56 264.98 178.21 265.68 178.01 266.53 177.89 268.48 
M 176.68 268.64 174.68 268.8 173.09 269.39 172.51 269.93 172.1 270.63 171.82 271.48 171.53 273.46 
M 195.24 242.56 194.06 243.41 193.74 243.88 193.65 244.39 193.78 244.94 194.59 246.15 
M 191.42 236.73 190.51 237.38 190.27 237.74 190.3 238.55 190.92 239.48 
M 187.6 230.89 186.79 231.59 186.82 232.16 187.25 232.8 
M 193.27 247.69 191.93 248.44 191.52 248.91 191.33 249.45 191.35 250.07 191.92 251.5 
M 189.47 240.55 188.44 241.12 188.13 241.48 188 242.37 188.44 243.47 
M 185.67 233.4 184.74 234.05 184.65 234.67 184.95 235.43 
M 190.35 253.01 188.86 253.65 188.36 254.1 188.06 254.66 187.96 255.33 188.26 256.93 
M 187.68 246.63 186.45 247.16 186.04 247.54 185.71 248.55 185.96 249.87 
M 185.02 240.26 184.05 240.68 183.72 240.97 183.46 241.77 183.66 242.81 
M 182.35 233.89 181.4 234.41 181.21 234.99 181.36 235.75 
M 186.44 258.36 184.81 258.89 184.21 259.32 183.81 259.89 183.59 260.58 183.59 262.31 
M 184.59 252.45 183.19 252.9 182.33 253.76 182.14 254.36 182.14 255.84 
M 182.75 246.53 181.57 246.91 180.85 247.63 180.69 248.13 180.69 249.37 
M 180.9 240.61 179.95 240.92 179.37 241.5 179.24 242.9 
M 179.05 234.7 178.33 234.93 177.89 235.37 177.79 236.43 
M 181.54 263.63 179.76 264.03 179.08 264.43 178.56 264.98 178.21 265.68 177.92 267.48 
M 180.11 256.9 178.59 257.25 178 257.59 177.25 258.68 177 260.22 
M 178.69 250.18 177.41 250.48 176.92 250.76 176.29 251.67 176.08 252.96 
M 177.26 243.46 175.84 243.93 175.33 244.66 175.17 245.7 
M 175.84 236.74 174.76 237.09 174.37 237.65 174.25 238.44 
M 175.65 268.69 173.81 269.02 173.09 269.39 172.51 269.93 172.1 270.63 171.65 272.44 
M 174.96 262.45 173.34 262.74 172.69 263.07 172.19 263.54 171.82 264.16 171.42 265.76 
M 174.27 256.21 172.86 256.46 172.3 256.75 171.54 257.7 171.2 259.09 
M 173.58 249.97 172.38 250.18 171.91 250.42 171.26 251.23 170.97 252.41 
M 172.88 243.73 171.51 244.1 170.99 244.76 170.75 245.73 
M 172.19 237.49 171.42 237.62 170.88 238 170.52 239.05 
M 375.26 201.01 379.72 208.82 378.96 209.42 372.5 203.15 
M 361.16 204.51 366.01 212.93 365.24 213.51 358.39 206.62 
M 347.02 207.83 353.2 217.98 352.43 218.57 344.25 209.95 
M 332.93 211.37 341.47 224.31 340.7 224.91 330.18 213.52 
M 318.89 215.1 330.5 232.1 329.73 232.7 316.14 217.24 
M 304.86 218.69 319.04 241.81 318.24 242.35 301.98 220.65 
M 290.56 220.82 306.4 252.15 305.55 252.61 287.51 222.5 
M 278.4 221.64 297.22 262.03 296.36 262.46 275.28 223.2 
M 378.31 208.79 375.16 208.32 372.15 208.41 370.73 208.77 369.37 209.36 368.06 210.15 365.53 212.08 
M 364.56 212.82 361.49 212.57 358.61 212.86 357.28 213.32 356.03 214 354.84 214.87 352.58 216.97 
M 351.61 217.71 348.63 217.77 345.9 218.35 344.67 218.94 343.55 219.74 342.52 220.72 340.61 223.02 
M 339.65 223.77 336.69 224.2 335.31 224.57 334.04 225.11 332.89 225.85 330.96 227.88 329.34 230.4 
M 328.37 231.15 325.22 232.02 322.43 233.35 321.23 234.28 320.18 235.39 319.25 236.66 317.62 239.49 
M 316.62 240.18 313.25 241.15 310.23 242.58 308.92 243.56 307.75 244.73 306.69 246.05 304.82 249.01 
M 303.75 249.6 301 250.58 298.67 251.98 297.73 252.91 296.96 254 296.33 255.24 295.34 257.99 
M 363.01 212.66 360.02 212.62 358.61 212.86 357.28 213.32 356.03 214 353.7 215.88 
M 350.1 217.7 347.22 217.97 345.9 218.35 344.67 218.94 343.55 219.74 341.55 221.83 
M 338.15 223.95 335.31 224.57 334.04 225.11 332.89 225.85 331.87 226.78 330.13 229.11 
M 326.77 231.55 323.76 232.61 322.43 233.35 321.23 234.28 320.18 235.39 318.41 238.04 
M 321.07 226.78 319.11 227.47 318.24 227.95 316.78 229.28 315.63 231 
M 314.91 240.63 311.68 241.78 310.23 242.58 308.92 243.56 307.75 244.73 305.73 247.5 
M 308.37 233.64 306.27 234.39 304.48 235.55 303.71 236.31 302.41 238.11 
M 302.35 250.07 299.76 251.21 298.67 251.98 297.73 252.91 296.96 254 295.81 256.59 
M 297.82 243.53 295.84 244.4 294.99 244.99 293.69 246.55 292.8 248.53 
M 293.29 236.99 291.32 238.01 290.41 239.09 289.8 240.47 
M 417.01 152.44 419.99 152.1 422.72 151.13 428 148.38 432.87 145.38 439.54 143.44 441.78 140.53 446.78 136.22 452.5 133.12 455.17 132.26 457.08 131.32 458.75 129.66 460.19 127.8 462.36 126.15 465.36 126.11 469.01 124.26 471.49 122.26 473.61 120.3 479.05 119.78 464.84 131.95 464.9 135.88 463.88 138.72 462.37 141.11 461.08 143.74 459.03 148.92 457.65 151.41 455.96 153.76 454.57 156.33 454.83 160.35 454.59 163.41 452.67 168.48 454.69 170.73 455.35 173.79 454.81 176.26 453.03 178.02 452.56 181.02 454 184.2 454.98 187.82 455.46 191.21 454.66 193.41 454.71 195.66 455.85 199 457.52 202.23 458.49 204.57 462.66 208.6 464.41 210.8 467.89 219.89 478.8 233.04 477.23 230.87 473.7 228.25 472.23 226.63 469.78 226.57 466.63 225.9 463.37 223.53 462.03 221.7 459.25 219.23 456.19 216.97 453.43 215.39 448.72 211.48 445.67 209.31 443.3 206.71 441.12 204.88 433.65 199.78 431.18 198.34 429.06 196.67 423.15 192.7 417.01 188.22 
M 426.12 152.6 428.52 151.28 431.19 150.22 433.73 148.9 437.34 148.12 439.91 147.2 442.88 145.87 446.2 142.78 448.51 140.04 450.55 139 
M 420.48 156.28 426.65 155.07 429.01 153.83 434.14 151.9 438.41 151.16 440.87 149.55 443.49 149.05 447.56 147.11 
M 420.72 158.32 426.9 157.72 429.6 156.74 431.91 155.67 441.92 152.24 445 151.75 448.44 150.28 451.62 148.02 
M 420.93 159.87 423.93 159.69 432.55 158.34 435.05 156.76 
M 427.9 161.05 430.48 161.14 432.84 160.73 436.22 159.3 439.92 158.58 447.03 158.22 448.93 156.48 450.48 155.68 
M 417.01 163.18 421.28 163.56 424.6 163.19 428.17 163.17 431.08 163.6 433.92 163.77 
M 425.05 165.35 428.38 165.31 431.23 166.53 434.53 166.61 438.32 165.73 444.92 163.08 447.14 164.14 
M 421.44 167.56 424.91 167.51 427.84 168.06 431.16 168.91 434.66 169.15 441.24 167.13 444.23 165.73 
M 421.4 169.68 424.66 170.52 427.6 171.08 430.64 172.07 434.16 172.15 437.39 170.38 439.9 169.57 442.55 169.47 447.22 170.31 451.67 171.32 
M 424.84 172.86 427.74 174.03 430.48 174.77 433.75 174.82 436.78 173.78 439.79 173.07 442.05 173.46 447.08 173.66 
M 421.42 173.79 427.84 176.26 430.69 177.19 434.21 177.48 437.47 177.19 439.94 176.3 447.46 177.1 451.15 177.2 
M 427.95 178.3 434.27 180.1 
M 425.51 178.95 428.35 180.25 431.64 181.07 438.5 182.44 444.52 182.82 449.99 184.52 
M 421.71 179.49 428.88 182.26 432.44 182.9 435.61 183.8 438.34 185.15 444.21 185.76 446.85 187.25 451.95 187.78 
M 425.03 182.98 437.64 187.81 
M 417.01 181.07 421.23 183.28 424.93 184.48 430.68 187.28 433.41 189.36 439.69 190.89 442.3 191.12 
M 417.01 182.86 421.22 185.13 424.63 186.69 426.84 187.98 429.75 190.47 433.02 192.26 436.02 193.54 438.26 193.63 441.66 194.33 444.6 196.33 447.1 197.53 
M 426.07 190.3 432.53 194.93 434.98 195.91 437.79 196.04 440.6 197.94 443.79 199.24 448.09 202.51 451.61 204.22 454.51 206.29 457.32 207.68 
M 423.51 190.62 425.64 192.61 431.73 196.78 437.14 198.99 439.79 200.35 442.74 201.33 444.89 203.13 446.75 205.91 
M 404.28 190.28 400.61 191.51 399.15 192.77 397.08 196.06 394.99 196.43 391.34 195.03 389.35 194.85 385.79 196.15 384.62 197.7 383.47 199.6 384.66 199.21 
M 59.05 150.83 70.37 148.93 79.9 146.77 86.02 145.14 92.93 144.33 115.1 143.38 132.72 141.05 145.76 138.81 147.51 138.37 150.69 141.78 152.24 145.5 153.27 149.29 154.44 157.01 155.81 160.76 157.41 164.47 159.72 172.03 160.51 175.86 161.77 179.62 163.27 183.35 163.41 187.27 163.75 191.17 164.7 194.97 164.93 198.89 164.32 202.92 163.03 207.06 158.26 211.73 145.17 211.63 135.56 210.96 127.12 209.76 119.33 208.03 112.13 205.88 105.51 203.32 99.77 200.31 94.15 196.96 88.44 192.5 82.49 187.15 
M 80.09 184.86 73.04 177.99 68.94 173.74 65.25 169.21 62.14 164.2 61.36 162.66 
M 132.22 155.16 133.02 158.42 133.51 161.53 133.39 164.49 133.57 167.17 133.95 169.63 133.41 172.09 133.52 174.4 136 179.2 137.18 182.28 138.11 185.79 136.32 190.08 120.95 191.21 114.86 191.21 108.84 190.63 102.94 189.49 97.31 187.69 92.36 185.16 
M 79.97 184.72 66.69 169.22 55.78 156.05 54.37 154.02 54.35 151.52 56.29 150.08 58.77 150.49 60.29 152.37 63.11 156.48 64.27 158.67 68.1 164.82 72.14 170.55 75.95 176.38 78.79 180.29 82.98 186.77 
M 82.41 187.46 77.93 185.18 69.43 181.26 52.29 172.18 41.68 165.61 40.94 163.39 42.21 161.45 44.67 161.33 52.93 167.06 71.04 179.19 79.01 184.07 82.84 186.64 
M 92.93 168.58 91.59 163.49 91.97 158.24 94.04 153.4 97.56 149.49 102.16 146.94 107.35 146.03 112.54 146.84 117.2 149.3 120.8 153.14 122.96 157.93 123.45 163.17 122.21 168.29 119.37 172.72 115.25 175.99 110.29 177.75 105.03 177.8 100.04 176.14 95.85 172.95 92.93 168.58 
M 92.74 168.13 92.09 166.25 91.69 164.32 91.52 162.34 91.61 160.36 91.93 158.41 92.5 156.51 93.29 154.69 94.31 152.99 95.52 151.43 96.92 150.03 98.49 148.81 100.19 147.8 102 147 103.9 146.44 105.86 146.11 107.84 146.03 109.81 146.19 111.75 146.6 113.62 147.24 
M 94.53 167.39 93.96 165.74 93.6 164.04 93.46 162.3 93.53 160.56 93.82 158.86 
M 93.95 158.41 95.01 155.58 95.93 154.05 
M 97.52 152.17 99.58 150.41 101.08 149.52 102.67 148.82 104.34 148.32 106.06 148.04 107.8 147.97 109.53 148.11 111.23 148.47 112.88 149.03 
M 96.32 166.65 95.83 165.23 95.4 162.26 95.72 159.25 
M 98.83 153.59 100.67 152.01 101.96 151.24 104.77 150.21 107.76 149.9 109.25 150.03 112.14 150.82 
M 98.1 165.9 97.44 163.48 97.33 162.22 97.64 159.57 
M 100.16 154.99 101.76 153.61 102.85 152.96 105.21 152.1 107.72 151.84 108.97 151.94 111.4 152.61 
M 101.68 164.64 101.14 162.6 101.26 160.97 
M 102.87 157.73 103.53 157 105.37 155.98 107.44 155.62 109.52 155.94 111.38 156.93 112.82 158.46 113.69 160.38 113.88 162.47 113.39 164.52 112.25 166.29 110.6 167.6 108.62 168.31 106.52 168.33 104.52 167.66 102.84 166.39 101.68 164.64 
M 104.29 156.58 103.42 158.32 
M 101.96 161.24 101.19 162.78 
M 106.1 155.85 104.35 159.36 
M 103.2 161.66 101.7 164.67 
M 107.66 155.65 105.29 160.39 
M 104.47 162.03 102.53 165.91 
M 109 155.86 106.23 161.42 
M 105.89 162.09 103.49 166.88 
M 110.23 156.32 104.55 167.67 
M 111.38 156.92 105.8 168.09 
M 112.33 157.93 107.13 168.32 
M 113.15 159.19 108.59 168.31 
M 113.74 160.92 110.35 167.69 
M 62.84 165.33 66.08 168.57 
M 59.83 150.7 64.83 155.7 
M 64.83 149.9 68.83 153.89 
M 69.79 149.04 73.15 152.4 
M 74.59 148.04 80.35 153.79 
M 79.29 146.92 82.7 150.33 
M 83.89 145.71 89.4 151.22 
M 88.8 144.82 94.52 150.53 
M 94.08 144.28 98.32 148.52 
M 99.63 144.02 102.49 146.89 
M 105.23 143.82 107.46 146.05 
M 110.81 143.58 114.48 147.25 
M 116.27 143.24 121.94 148.9 
M 121.47 142.62 124.4 145.56 
M 126.6 141.94 129.52 144.87 
M 131.67 141.2 135.5 145.03 
M 136.65 140.38 140.01 143.73 
M 141.61 139.52 145.37 143.29 
M 146.52 138.62 149.67 141.78 
M 142.81 162.78 144.18 162.99 145.28 162.46 146.87 161.35 147.68 160.35 148.02 159.64 
M 135.99 186.59 135.23 187.43 134.44 188.95 133.74 191.77 133.15 193.24 132.78 193.69 131.61 194.38 131.06 194.99 
M 136.09 177.66 136.14 176.32 136.81 174.82 136.86 174.36 136.87 171.39 136.7 169.4 136.81 168.7 
M 83.57 156.72 86.04 158.22 88.73 160.15 91.49 161.62 
M 140.03 168.46 140.73 167.28 141.66 166.6 142.4 166.5 143.61 166.76 
M 79.06 165.6 79.26 166.46 78.99 167.69 78.11 168.56 76.84 169.27 76.19 169.42 75.54 169.36 74.99 169.01 74.72 168.54 74.55 167.58 
M 123.7 170.13 122.92 170.36 121.3 171.65 120.79 171.86 119.87 171.94 
M 149.31 157.64 147.62 153.53 147.52 152.19 147.22 150.95 147.33 149.57 
M 76.08 165.12 75.33 166.62 75.08 166.78 74.93 166.7 
M 72.08 161.61 70.5 162.22 69.66 162.78 69.31 163.25 
M 132.53 147.76 133.33 144.44 133.69 143.71 135.87 140.51 
M 92.61 153.65 91.92 152.05 90.95 150.71 89.65 148.41 87.53 146.26 86.62 145.56 85.67 145.24 
M 154.34 184.31 150.48 183.54 147.31 182.23 145.89 181.99 143.68 181.16 
M 159.96 200.71 156.64 200.57 151.29 201.53 148.61 201.2 
M 123.11 183.93 122.4 183.64 121 182.09 120.05 180.7 117.69 176.5 117.05 176.12 116.26 175.93 
M 126.35 152.08 124.66 149.72 124.28 148.68 124.16 147.66 125.06 143.76 126.14 142 
M 158.26 167.37 156.86 167.88 153.86 168.05 153.17 168.33 
M 110.64 196.17 112.24 196.17 113.96 196.47 114.58 196.85 115.34 198.03 115.43 198.8 114.16 203 114.13 203.62 
M 141.04 188.54 139.36 189.89 138.03 191.81 137.63 192.08 135.76 192.64 135.14 193.02 
M 146.36 193.67 143 195.85 141.76 196.3 140.76 196.45 139.73 196.37 135.12 194.54 132.19 194.63 
M 155.59 185.41 153.8 184.93 149.73 184.18 147.57 183.36 145.28 182.95 144.21 182.44 
M 83.84 169.45 81.93 170.7 80.12 172.86 79.37 173.47 77.81 174.35 77.1 174.61 76.43 174.65 74.51 174.13 
M 124.79 146.93 125.54 143.76 126.75 141.92 
M 71.38 157.01 72.86 156.75 73.43 156.8 74.01 157.09 74.55 157.64 75.12 158.74 75.19 159.3 75.08 160.07 74.74 160.55 
M 161.32 178.27 160.41 178.24 159.13 178.53 157.3 178.71 155.6 178.63 150.65 177.43 
M 135.33 166.86 137.22 166.73 141.36 165.11 142.72 165.12 
M 98.63 178.35 99.66 178 102.09 177.52 102.74 177.04 
M 133.56 155.96 133.29 155.09 131.58 153.12 130.53 150.57 
M 148.7 187.35 147.54 187.76 143.22 187.63 141.63 187.95 140.91 188.35 
M 80.2 146.69 80.09 146.87 
M 123.93 166.76 127.57 165.85 128.56 165.11 129.32 164.89 
M 134.91 205.11 135.5 206.22 136.36 206.39 138.15 207.11 
M 90.59 167.72 92.59 167.27 
M 158.41 192.93 156.99 190.01 154.55 186.88 153.31 186.46 151.82 186.27 150.48 186.47 149.89 186.73 
M 79.93 146.76 78.83 148.24 76.27 150.29 75.87 150.81 
M 107.97 193.67 109.52 192.11 113.43 187.56 113.93 185.57 
M 71.83 164.81 72.85 163.5 
M 98.3 184.07 99.41 183.63 100.46 182.46 101.21 181.34 102.12 180.61 
M 110.34 198.87 111.01 199.79 111.99 201.7 113.8 203.31 114.15 204.05 114 204.55 
M 117.29 174.75 116.83 174.74 
M 113.67 176.55 112.98 176.96 
M 81.18 148.12 79.43 149.81 78.49 150.97 76.73 154.27 76.8 156.16 77.79 158.71 
M 132.06 162.99 135.09 165.04 136.48 165.67 137.82 165.62 139.59 165 
M 162.07 182.28 159.42 183.46 156.72 183.79 150.9 182.64 
M 74.95 149 75.12 149.66 75.29 152.14 75.08 154.62 
M 150.84 204.29 149.55 203.96 148.49 203.31 147.36 203.06 144.89 203.69 144.39 204.21 
M 56.96 174.6 61.6 178.29 67.6 182.69 73.71 186.59 86.49 193.85 93.05 197.16 99.77 200.31 
M 148.53 138.02 159.7 149.19 
M 154.67 136.42 165.25 146.99 
M 160.83 134.83 170.49 144.49 
M 167.02 133.27 175.98 142.23 
M 173.15 131.65 182.06 140.57 
M 179.25 130.01 186.68 137.44 
M 185.35 128.36 195.17 138.18 
M 191.49 126.76 198.17 133.43 
M 197.92 125.44 205.39 132.91 
M 204.51 124.28 212.82 132.6 
M 211.26 123.29 218.15 130.18 
M 217.88 122.16 229.09 133.37 
M 224.48 121.02 234.07 130.61 
M 231.09 119.88 242.35 131.14 
M 237.71 118.75 248.22 129.26 
M 244.33 117.63 253.32 126.61 
M 250.82 116.37 261.68 127.23 
M 257.68 115.48 263.92 121.72 
M 265.34 115.39 272.07 122.12 
M 274.06 116.37 282.08 124.39 
M 282.63 117.2 290.32 124.88 
M 291.1 117.92 302.62 129.43 
M 299.52 118.59 308.34 127.41 
M 307.52 118.84 316.45 127.78 
M 315.16 118.74 323.24 126.82 
M 323.11 118.94 333.69 129.52 
M 331.92 120.01 341.49 129.57 
M 341.68 122.02 349.34 129.68 
M 352.59 125.18 361.88 134.47 
M 364.35 129.19 373.24 138.09 
M 376.72 133.82 387.18 144.27 
M 390.13 139.48 398.64 147.99 
M 404.59 146.2 411.03 152.63 
M 420.34 154.2 425.84 159.7 
M 230.78 291.39 226.49 297.7 
M 230.78 291.39 231.29 297.7 
M 228.02 295.6 231.02 295.6 
M 234.68 291.39 232.79 297.7 
M 235.61 295.3 239.21 295.3 239.39 294.7 239.27 294.1 238.55 293.5 237.65 293.5 236.96 293.8 236.18 294.39 235.61 295.3 235.43 295.89 235.46 296.8 235.88 297.39 236.39 297.7 237.29 297.7 237.98 297.39 238.76 296.8 
M 242.48 291.39 240.59 297.7 
M 244.25 293.5 243.35 296.5 243.38 297.39 243.89 297.7 244.79 297.7 245.48 297.39 246.65 296.5 
M 247.55 293.5 246.29 297.7 
M 252.68 294.39 252.56 293.8 251.75 293.5 250.85 293.5 249.86 293.8 249.38 294.39 249.5 295 250.01 295.3 251.42 295.6 251.93 295.89 251.96 296.8 251.48 297.39 250.49 297.7 249.59 297.7 248.78 297.39 248.66 296.8 
M 260.48 291.39 259.88 291.39 259.19 291.7 258.62 292.6 257.09 297.7 
M 257.45 293.5 259.55 293.5 
M 264.95 293.5 263.69 297.7 
M 264.68 294.39 264.26 293.8 263.75 293.5 262.85 293.5 262.15 293.8 261.38 294.39 260.81 295.3 260.63 295.89 260.65 296.8 261.08 297.39 261.59 297.7 262.49 297.7 263.18 297.39 263.96 296.8 
M 268.27 291.39 266.75 296.5 266.77 297.39 267.29 297.7 267.89 297.7 
M 266.75 293.5 268.85 293.5 
M 271.27 291.39 271.49 291.7 271.88 291.39 271.67 291.1 271.27 291.39 
M 270.95 293.5 269.69 297.7 
M 274.27 291.39 272.75 296.5 272.77 297.39 273.29 297.7 273.89 297.7 
M 272.75 293.5 274.85 293.5 
M 276.95 293.5 276.05 296.5 276.08 297.39 276.58 297.7 277.49 297.7 278.18 297.39 279.35 296.5 
M 280.25 293.5 278.99 297.7 
M 282.64 293.5 281.39 297.7 
M 282.29 294.7 283.45 293.8 284.14 293.5 285.05 293.5 285.56 293.8 285.58 294.7 284.69 297.7 
M 285.58 294.7 286.76 293.8 287.45 293.5 288.35 293.5 288.86 293.8 288.89 294.7 287.99 297.7 
M 290.87 297.1 290.48 297.39 290.69 297.7 291.08 297.39 290.87 297.1 
"/></svg>
