<svg xmlns="http://www.w3.org/2000/svg" width="520" height="320"><rect x="0" y="0" width="520" height="320" fill="floralwhite"/><rect x="10" y="10" width="500" height="300" stroke="black" stroke-width="1" fill="none"/><path stroke="black" stroke-width="1" fill="none" stroke-linecap="round" stroke-linejoin="round" d="
M 115.24 131.72 124.81 126.95 134.38 123.21 143.96 119.87 163.12 112.8 172.69 110.46 182.27 108.96 191.85 106.67 201.42 105.85 211 106.88 220.58 107.24 230.16 108.15 239.73 109.74 249.31 111 268.47 114.15 278.04 116.83 287.62 120.68 297.2 123.76 306.78 127.31 325.93 137.25 335.51 141.96 345.09 146.92 354.66 152.01 364.24 157.34 
M 364.24 178.09 354.66 184.39 345.09 190.94 325.93 204.72 316.35 210.13 306.78 214.79 287.62 224.99 278.04 228.95 268.47 232.51 258.89 235.69 249.31 237.33 230.16 237.91 220.58 238.76 211 238.79 201.42 237.97 191.85 236.91 182.27 234.69 172.69 232.01 163.12 228.47 153.54 223.3 143.96 217.51 124.88 207.82 
M 359.84 162.38 349.91 161.37 339.96 160.6 319.28 159.68 303.88 157.32 285.15 156.19 275.41 154.54 264.76 153.63 253.66 153.17 250.26 152.66 243.59 151.36 230.03 147.91 224.65 146.88 
M 213.56 145.86 204.72 144.73 200.16 143.6 
M 194.49 142.09 193.05 141.86 186.65 141.82 183.19 142.04 174.33 142.97 
M 154.67 144.65 151.35 144.89 
M 144.53 145.09 137.45 145.03 
M 130.34 145.15 126.88 145.2 
M 123.52 145.27 121.9 145.33 
M 127.76 193.36 129.44 196.32 
M 130.44 188.72 131.31 190.25 
M 131.68 190.92 132.78 192.84 
M 125.93 172.16 131.3 181.11 
M 139.73 195.47 143.44 201.37 
M 148.04 208.34 150.09 211.45 
M 124.8 162.11 128.19 167.23 134.43 177.46 
M 146.11 197.38 146.4 197.87 
M 148.65 201.65 150.86 205.15 
M 124.04 153.63 128.43 159.46 132.38 165.5 
M 134.95 169.64 140.4 178.57 
M 151.72 198.58 153.63 201.68 
M 158.12 208.19 162.57 214.04 
M 167.23 219.44 169.62 221.9 
M 119.78 140.35 122.67 144.81 126.89 150.29 
M 129.77 153.97 132.61 157.82 
M 135.32 161.86 137.93 166.01 
M 157.42 199.8 158.64 201.56 
M 163.27 208 166.66 212.53 170.1 216.78 
M 118.79 129.95 122.93 137.39 125.41 141.16 134 152.25 138.25 158.25 
M 140.91 162.38 150.11 177.64 
M 163.24 200.83 163.7 201.45 
M 170.68 211.06 174.08 215.43 177.71 219.4 
M 180.26 221.84 182.88 224.09 
M 185.49 226.16 188.07 228.08 
M 122.83 127.93 126.14 133.88 128.4 137.46 131.03 141.11 139.72 152.44 142.53 156.54 146.37 162.69 
M 148.76 166.67 152.23 172.54 154.61 176.94 
M 171.24 204.8 175.71 211.07 
M 178 213.99 180.44 216.77 
M 127.05 126.07 131.64 133.88 134.08 137.35 142.53 148.49 145.34 152.55 150.52 160.69 153.96 166.57 
M 156.12 170.48 158.14 174.44 
M 175.01 203.05 176.22 204.79 
M 131.28 124.42 134.95 130.45 137.27 133.75 145.36 144.49 148.11 148.43 153.36 156.5 157.99 164.37 160.06 168.25 163.54 175.65 
M 180.64 203.94 183.48 207.96 
M 185.85 211.02 188.35 213.96 
M 197.66 224.19 201.71 228.47 
M 135.42 122.85 138.2 127.17 140.46 130.32 145.59 136.99 150.89 144.32 156.1 152.17 160.89 160.11 162.98 163.96 165.82 169.85 
M 167.65 173.87 168.2 175.07 
M 191.01 211.02 193.32 213.97 
M 195.57 216.76 197.75 219.4 
M 201.93 224.24 205.07 227.57 208.5 230.57 
M 139.64 121.38 143.7 127.03 151.23 136.75 156.28 143.94 161.27 151.72 163.64 155.7 166.81 161.55 
M 168.72 165.41 173.04 174.51 
M 191.66 204.96 195.78 211.01 
M 200.07 216.69 204.37 221.79 
M 206.59 224.17 208.87 226.4 
M 144.07 119.83 154.42 133.01 159.16 139.76 166.31 151.18 170.63 159.03 173.49 164.64 
M 175.38 168.5 177.32 172.51 
M 196.67 205.34 198.33 207.88 
M 200.42 210.87 202.57 213.72 
M 204.79 216.44 207.07 219.04 
M 209.41 221.5 211.79 223.8 
M 148.72 118.11 157.92 129.34 162.32 135.71 167.91 144.74 
M 170.19 148.63 177.4 161.85 183.1 173.42 
M 201.66 205.58 205.31 210.51 
M 207.62 213.3 212.42 218.55 
M 153.71 116.26 159.5 122.92 161.74 125.76 165.82 131.8 172.16 142.31 176.53 149.96 182.43 161.16 185.53 167.43 
M 187.65 171.87 188.2 173.04 
M 206.67 205.11 208.24 207.13 
M 213.07 212.87 218.06 218 
M 158.83 114.38 162.38 118.22 
M 164.65 120.89 167.75 125.08 169.61 128.04 177.86 141.98 181.86 149.45 187.69 161.02 190.74 167.66 
M 192.8 172.24 193.01 172.7 
M 212.43 205.16 213.76 206.8 
M 228.44 222.45 233.1 227.31 
M 163.98 112.59 167.55 116.22 169.71 118.84 171.68 121.56 175.34 127.45 181.59 138.05 187.22 149.24 197.69 172.48 
M 224.35 212.43 226.75 215.03 
M 169.37 111.27 171.31 113.1 173.49 115.51 175.43 118.1 179.07 123.78 185.31 134.2 189.09 141.79 198.74 164.59 
M 200.83 168.99 202.44 172.14 
M 223.79 205.05 225.01 206.66 
M 229.69 212.41 231.99 215 
M 246.67 229.88 248.09 231.01 
M 174.76 110.13 176.99 112.35 178.95 114.72 182.56 120.18 188.78 130.4 190.79 134.19 192.53 138.06 197.2 150.08 200.85 158.8 205.05 167.31 207.51 171.6 
M 230.3 206.62 232.54 209.52 
M 234.8 212.22 237.1 214.84 
M 180.19 109.29 182.29 111.57 184.12 114.01 192 126.73 194 130.54 195.74 134.44 199.57 144.46 
M 201.26 148.66 204.13 155.12 206.24 159.34 209.6 165.31 
M 211.96 169.13 213.6 171.67 
M 235.34 206.32 239.85 211.92 
M 185.14 108.28 187.46 111.01 189.28 113.61 195.2 123.43 197.16 127.23 198.89 131.12 203.65 143.01 207.61 151.35 212.07 159.33 217.96 168.59 
M 240.34 205.89 242.63 208.81 
M 245.06 211.67 247.64 214.51 
M 189.76 107.17 192.74 110.86 196.61 117.02 200.54 124.39 207.18 139.73 211.29 147.66 213.51 151.54 223.91 168.19 
M 253.11 214.57 255.75 217.56 
M 194.52 106.44 196.25 108.58 198.26 111.45 202.27 118.26 206 125.71 211.04 136.8 213 140.52 217.29 147.9 224.26 158.58 226.43 162.36 231.09 171.32 
M 248.43 202.09 250.95 205.48 
M 253.4 208.59 255.94 211.69 
M 263.81 221.02 266.5 223.99 
M 199.35 106.03 201.97 109.52 206.03 116.21 209.94 123.48 214.25 132.38 
M 216.06 135.88 221.12 144.63 224.5 149.81 
M 226.78 153.3 230.06 158.82 235.66 170.52 
M 253.24 201.15 258.86 208.69 
M 261.4 211.89 264.01 215.1 
M 204.6 106.2 207.84 110.92 209.83 114.29 213.85 121.32 221.08 135 232.5 153.84 
M 234.51 157.54 239.9 169.31 
M 259.54 202.35 264.39 208.86 
M 266.97 212.11 269.63 215.32 
M 210.14 106.79 212.7 110.78 
M 214.65 114.06 223.25 129.39 237 152.81 238.89 156.42 241.49 162.1 
M 245.04 169.85 245.48 170.73 
M 215.27 107.04 217.47 110.51 224.19 122.14 
M 226.14 125.49 234.86 139.86 240.56 150.22 244.13 157.23 247.62 164.67 250.8 170.84 
M 268.18 198.69 270.84 202.67 
M 273.36 205.92 276.04 209.11 
M 220.14 107.23 223.03 111.79 230.84 124.9 238.7 137.53 246.03 151.15 254.3 167.1 
M 256.42 170.84 256.94 171.72 
M 225.08 107.67 233.52 120.94 
M 235.6 124.21 242.39 135.16 252.42 153.52 
M 254.29 156.85 258.28 163.96 
M 285.69 205.99 290.49 212.49 
M 230.03 108.14 236.21 117.1 243.1 127.95 
M 244.96 131.02 254.31 147.57 
M 256.23 150.83 258.23 154.09 
M 260.28 157.45 262.36 160.93 
M 264.43 164.54 268.27 171.3 
M 286.41 199.67 291.46 206.18 
M 235.46 109.03 239.83 114.92 243.68 120.76 249.21 129.78 257.96 144.74 
M 260.04 148.03 262.15 151.29 
M 264.28 154.59 266.37 157.96 
M 268.41 161.43 273.9 171.54 
M 294.46 203.18 298.85 209.72 
M 241.09 109.92 243.25 112.74 247 118.19 250.62 123.92 258.28 136.75 269.21 153.31 273.2 160.01 277.73 168.8 
M 246.46 110.63 252.02 118.43 259.52 130.5 265.04 138.77 
M 267.36 142.08 272.87 150.31 276.8 156.92 280.39 163.8 284.76 172.8 
M 295.43 190.49 297.9 193.77 
M 300.23 197.03 302.38 200.3 
M 251.83 111.44 255.21 116.04 264.98 130.89 274.2 144 276.32 147.29 282.15 157.31 288.17 169.59 
M 300.14 189.2 301.11 190.5 
M 303.44 193.79 305.57 197.11 
M 257.32 112.39 260.34 116.51 267.29 126.56 
M 269.42 129.67 279.64 144.34 283.74 151.09 286.5 156.11 
M 291.59 166.34 293.34 169.89 
M 262.73 113.26 271.71 125.41 282.86 141.5 287.14 148.3 291.71 156.58 
M 293.37 159.84 296.64 166.56 
M 310.25 187.11 312.58 190.54 
M 268.07 114.09 269.9 116.36 
M 271.93 118.91 277.07 125.73 288.34 142.19 292.51 148.9 295.21 153.76 
M 296.86 156.91 299.9 163.27 
M 301.48 166.6 303.27 170.01 
M 305.4 173.45 306.07 174.43 
M 318.16 190.81 320.24 194.29 
M 274.25 115.77 280.39 123.28 291.62 139.58 295.91 146.17 299.53 152.48 307.23 168.29 309.41 171.75 310.71 173.5 
M 325.71 194.62 327.7 197.92 
M 281.35 118.16 285.94 124.01 297.14 140.27 300.22 144.99 
M 303.72 151.04 305.23 153.99 
M 308.11 160.04 309.7 163.27 
M 316.27 173.69 318.7 176.86 
M 321.76 180.91 326.83 188.12 
M 288.85 121.07 300.42 137.61 304.47 143.69 307.91 149.56 315.09 163.4 
M 317.12 166.81 320.69 172.1 324.39 177.14 
M 327.36 181.3 329.91 184.94 
M 295.5 123.21 305.74 137.87 309.55 143.73 312.97 149.56 317.86 158.65 320.76 163.54 
M 322.96 166.95 325.34 170.49 
M 327.88 174.14 330.45 177.86 
M 333 181.56 335.47 185.12 
M 302.21 125.61 308.95 135.02 313.74 142.31 
M 315.54 145.25 318.98 151.15 
M 320.64 154.13 323.33 158.74 331.22 170.66 
M 309.65 128.79 314.14 135.08 317.98 140.96 324.88 152.62 327.82 157.23 
M 332.36 163.79 341.47 178.15 
M 317.76 133 321.17 138.18 330.01 152.59 335.65 160.57 
M 337.95 163.93 340.13 167.38 
M 342.25 170.91 344.41 174.54 
M 346.6 178.22 350.35 184.41 
M 325.05 136.79 333.26 149.53 336.52 154.18 
M 338.87 157.4 341.17 160.69 
M 343.31 164.03 347.4 170.95 
M 332.2 140.34 339.92 151.13 
M 342.27 154.33 345.64 159.17 348.55 164.08 
M 350.5 167.45 352.59 170.96 
M 340.86 144.73 347.07 152.93 349.24 156.12 352.02 160.87 
M 353.82 164.1 355.83 167.46 
M 358.12 170.99 360.55 174.64 
M 350.72 149.91 352.94 153.1 359.45 164.13 
M 359.32 154.6 361.29 157.8 
M 115.4 131.64 115.25 131.84 
M 124.88 126.92 121.9 130.29 119.29 133.57 117.61 136.08 
M 133.04 123.73 124.52 133.85 122.03 137.35 120 140.81 
M 140.35 121.13 135.26 127.22 129.98 133.9 127.45 137.46 125.18 141.15 122.27 146.43 
M 148.68 118.12 143.2 123.96 140.61 127.11 135.58 133.8 133.1 137.38 130.78 141.11 123.99 153.4 
M 158.24 114.59 151.99 120.58 149 123.74 146.25 126.95 142.48 131.92 
M 140.07 135.41 135.46 142.84 
M 133.32 146.63 129.25 153.93 
M 127.24 157.58 125.18 161.37 
M 166.8 111.9 155.18 123.32 152.2 126.63 149.47 130.01 144.62 137.01 142.35 140.73 139.1 146.56 
M 136.99 150.41 126.07 169.58 
M 173.73 110.29 161.5 122.72 158.33 126.11 155.38 129.58 152.71 133.14 150.28 136.81 146.93 142.53 
M 144.79 146.48 139.55 156.37 136.25 161.94 
M 133.99 165.63 131.74 169.39 
M 129.46 173.19 127.15 177 
M 179.41 109.41 166.05 123.74 
M 159.88 130.8 158.44 132.63 155.86 136.39 153.53 140.28 150.32 146.35 
M 146.18 154.59 142.95 160.56 137.27 169.87 
M 132.62 177.32 130.21 181.02 
M 185.14 108.28 181.95 111.62 167.17 128.32 164.14 131.99 161.38 135.81 157.84 141.84 
M 155.7 146.01 151.59 154.5 
M 149.46 158.67 145.01 166.58 
M 130.76 188.73 127.82 192.88 
M 191.77 106.69 187.11 111.04 184.43 113.98 169.78 131.36 166.87 135.18 164.29 139.18 162 143.35 154.76 158.48 
M 145.93 174.41 143.69 178.18 
M 198.52 106.1 195.16 108.47 192.37 110.85 189.6 113.6 186.87 116.67 178.62 127.17 172.51 134.65 169.69 138.6 167.22 142.76 165.04 147.11 160.98 155.96 157.73 162.37 
M 155.46 166.5 149.27 177.76 
M 137.03 197.12 134.42 200.55 
M 205.74 106.32 200.84 109.29 197.88 111.38 194.99 113.78 192.15 116.56 189.48 119.73 181.44 130.55 175.43 138.22 172.64 142.27 170.18 146.55 169.09 148.77 
M 166.99 153.22 162.75 161.96 
M 158.21 170.37 154.67 176.94 
M 143.3 196.78 142.73 197.64 
M 212.8 106.95 206.69 110.63 200.61 114.79 197.66 117.21 194.86 119.99 192.25 123.16 187.14 130.41 178.35 141.96 176.97 144.01 
M 174.33 148.21 173.09 150.37 167.6 161.46 
M 163.05 170.07 160.77 174.31 
M 148 197.94 145.82 201.53 
M 220.1 107.23 206.38 116.31 200.38 121.01 197.57 123.79 194.98 126.95 189.89 134.18 181.12 145.69 179.74 147.73 
M 177.09 151.91 175.83 154.07 170.11 165.21 
M 167.8 169.65 164.7 175.52 
M 226.54 107.81 216.75 114.56 
M 213.72 116.76 206.02 122.46 202.95 124.95 200.08 127.75 196.19 132.64 
M 190.93 139.92 183.69 149.34 180.94 153.36 179.68 155.5 
M 177.24 159.87 172.57 168.97 
M 232.57 108.55 223.84 114.74 208.5 126.33 205.3 128.89 202.33 131.73 199.63 134.91 186.2 153.03 184.86 155.03 
M 182.27 159.17 178.62 165.82 175.09 172.83 
M 161.38 200.6 160.86 201.52 
M 238.27 109.5 229.4 115.89 220.62 122.88 210.9 130.13 207.58 132.77 204.52 135.7 201.77 138.94 195.32 147.84 
M 192.71 151.45 188.79 156.99 184.98 163.14 
M 180.06 172.15 179.19 173.86 
M 161.72 208.04 159.42 211.2 
M 243.62 110.25 232.11 119.23 223.22 126.42 216.74 131.26 211.7 135.25 
M 208.5 138.17 206.95 139.7 204.1 143.06 201.43 146.66 193.84 157.58 188.98 165.33 184.43 173.35 
M 248.44 110.89 240.73 117.72 231.93 125.09 217.63 136.13 
M 214.36 138.99 211.22 142.12 
M 205.34 149.15 202.64 152.89 
M 197.59 160.29 192.84 167.92 
M 190.48 172.05 189.95 172.99 
M 175.15 203.07 174.1 204.79 
M 167.57 213.98 165.31 216.8 
M 252.97 111.64 237.71 125.99 234.72 128.44 225.27 135.56 222 138.2 218.75 141.1 214.08 146 
M 211.08 149.59 206.74 155.33 200.22 164.83 
M 195.55 172.59 195.54 172.6 
M 179.05 204.75 176.96 208 
M 172.7 214 170.53 216.79 
M 257.63 112.45 253.58 115.92 240.37 129.16 237.43 131.65 228 138.89 223.21 143.17 
M 220.12 146.3 215.58 151.53 212.6 155.4 206.87 163.37 204.25 167.27 201.17 172.27 
M 184.23 204.51 181.95 207.96 
M 179.83 211.05 177.76 213.99 
M 175.68 216.78 173.56 219.41 
M 262.56 113.24 258.67 116.34 256.07 118.7 253.49 121.24 245.69 129.58 241.49 133.57 
M 238.52 136.05 230.71 142.35 227.63 145.16 224.64 148.16 221.68 151.46 218.71 155.13 214.22 161.15 
M 187.13 207.95 184.94 211.02 
M 267.62 114.02 263.88 116.88 258.57 121.62 255.96 124.24 248.2 132.77 245.48 135.55 241.1 139.42 
M 238.05 141.95 233.44 145.89 227.67 151.65 224.79 154.96 220.33 160.68 
M 217.35 164.76 214.47 168.93 
M 192.22 207.95 190.16 211.02 
M 182.08 221.83 179.99 224.11 
M 272.12 115.17 266.54 119.65 261.17 124.64 258.52 127.37 250.76 136.13 248.04 138.98 243.66 142.96 
M 240.64 145.55 237.66 148.16 
M 234.79 150.87 230.61 155.31 226.3 160.5 
M 223.37 164.34 220.48 168.38 
M 191.28 216.76 189.41 219.38 
M 276.39 116.37 271.92 120.12 266.58 125.05 261.23 130.62 253.34 139.58 250.6 142.48 238.86 153.11 234.71 157.58 
M 226.33 168.18 224.33 171 
M 202.91 205.71 199.62 210.91 
M 195.97 216.76 194.26 219.4 
M 280.43 117.79 277.23 120.47 272.04 125.44 266.74 131.01 260.11 138.48 
M 257.37 141.51 251.67 147.3 
M 248.7 150 244.23 153.99 241.35 156.8 238.58 159.86 233.14 166.69 229.66 171.5 
M 202.38 213.72 200.47 216.66 
M 198.7 219.38 197.04 221.87 
M 284.56 119.45 280.02 123.25 277.4 125.76 272.26 131.35 263.07 141.87 
M 260.21 144.88 255.74 149.25 246.64 157.58 243.74 160.6 240.95 163.86 235.89 170.47 
M 213.33 205.19 212.08 206.87 
M 207.39 213.32 205.22 216.39 
M 289.01 121.13 285.57 123.95 280.2 128.92 277.65 131.67 270.23 140.63 266.08 145.21 
M 263.12 148.21 253.74 156.79 
M 250.62 159.73 249.09 161.25 244.75 166.18 
M 218.69 205.47 215.26 209.82 
M 204.06 224.21 202.24 226.43 
M 293.77 122.66 288.48 127.21 283.16 132.28 280.64 135.02 273.25 143.95 270.51 147.02 264.51 153.02 259.7 157.38 
M 256.45 160.34 251.68 165.06 246.73 170.74 
M 224.68 204.95 218.5 212.61 
M 211.24 221.33 208.98 224.03 
M 298.39 124.2 291.43 130.6 286.21 135.75 276.09 147.28 270.46 153.38 257.64 165.66 252.95 170.54 
M 230.23 204.52 226.45 209.65 
M 302.69 125.79 289.25 139.25 273.19 156.74 258.15 171.92 
M 235.55 203.76 231.66 209.55 
M 220.02 222.87 217.55 225.55 
M 306.79 127.31 288.25 146.86 
M 285.56 149.7 280.05 155.54 
M 277.21 158.59 264.7 171.99 
M 240.63 203.22 238.83 206.02 
M 236.69 209.23 234.57 212.22 
M 230.2 217.54 227.93 220.01 
M 310.44 129.2 300.25 140.55 293.64 147.48 
M 290.9 150.29 281.13 160.49 271.45 171.34 
M 246.06 202.6 243.94 205.65 
M 241.73 208.85 239.62 211.92 
M 235.38 217.49 233.19 220.02 
M 314.06 131.07 302.93 143.64 296.2 150.78 
M 293.39 153.62 286.33 160.92 282.1 165.65 
M 279.27 168.91 276.53 172.11 
M 252.41 201.28 249.32 205.5 
M 244.82 211.67 242.69 214.61 
M 240.57 217.41 238.41 220.05 
M 317.67 132.95 302.72 149.56 291.47 161.32 281.4 173 
M 257.18 202.31 254.76 205.49 
M 252.47 208.58 248.1 214.5 
M 243.75 220.06 241.53 222.64 
M 236.99 227.41 234.71 229.61 
M 321.26 134.82 315.78 140.9 296.55 161.58 287.09 172.82 
M 262.73 202.43 257.92 208.66 
M 255.71 211.66 250.4 218.72 247.06 222.69 
M 324.76 136.64 318.27 143.87 304.16 158.5 300.07 163.27 
M 294.81 169.95 292.02 173.48 
M 271.11 199.37 265.82 205.74 
M 259 214.81 254.81 220.27 
M 328.2 138.37 317.95 149.67 309.08 158.47 306.21 161.61 302.25 166.59 
M 297.27 173.48 296.37 174.72 
M 281.52 194.2 279.81 196.25 
M 277.04 199.49 274.24 202.73 
M 266.72 212.09 264.48 215.11 
M 331.6 140.04 320.24 152.63 311.29 161.65 308.45 164.89 305.86 168.28 301.61 174.6 
M 288.48 192.7 285.61 196.47 
M 283.08 199.6 275.01 209.1 
M 272.48 212.25 270.12 215.33 
M 263.57 223.76 261.47 226.18 
M 335.01 141.72 322.6 155.64 313.78 165.01 311.03 168.35 307 174.35 
M 296.19 189.93 288.94 199.77 
M 286.49 202.85 278.49 212.29 
M 275.95 215.42 273.57 218.46 
M 338.52 143.52 333.03 149.53 323.81 160.34 
M 320.93 163.54 316.62 168.51 313 173.56 
M 303.2 188.26 298.98 193.77 
M 296.65 196.94 294.43 200.02 
M 289.78 206.1 279.33 218.51 
M 342.31 145.48 335.84 152.6 328.15 162.02 322.48 168.66 319.84 172.07 316.79 176.62 
M 311.34 185.08 307.24 190.45 
M 304.54 193.78 300.73 198.65 297.4 203.31 
M 295.18 206.37 292.81 209.42 
M 290.26 212.48 287.62 215.54 
M 346.39 147.62 338.91 155.8 325.73 172.26 322.32 177.18 
M 319.97 180.77 317.8 184.04 
M 312.92 190.55 307.32 197.13 
M 304.69 200.35 302.34 203.5 
M 295.63 212.76 293.13 215.78 
M 350.55 149.83 344.69 155.98 339.42 162.29 331.59 172.45 322.19 186.08 318.48 190.84 
M 312.86 197.29 310.02 200.51 
M 305.09 206.78 301.13 212.51 
M 354.5 151.93 347.53 159.21 344.8 162.39 339.73 169.1 327.67 186.52 323.96 191.24 
M 318.45 197.53 315.63 200.7 
M 358.15 153.95 350.09 162.44 347.42 165.73 344.95 169.15 341.4 174.5 
M 326.73 194.69 323.96 197.79 
M 361.8 155.98 355.4 162.46 352.61 165.74 347.71 172.74 339.78 185.21 
M 364.24 159.48 358.1 165.76 355.37 169.17 352.9 172.75 346.01 183.61 342.6 188.6 
M 364.24 165.97 361.31 169.25 358.45 172.78 354.65 178.26 
M 352.28 181.88 350.32 184.82 
M 364.24 173.41 360.3 178.3 
M 163.12 112.8 163.12 112.8 
M 166.73 111.92 169.53 100.98 170.72 98.79 171.29 95.97 172.3 93.59 173.37 91.28 174.93 89.57 177.08 88.51 178.62 86.85 179.3 81.14 179.93 78.52 181.2 76.54 182.24 74.33 183.47 72.32 184.3 69.79 185.76 67.85 187.73 66.49 188.35 64.2 189.01 56.16 189.78 53.44 191.86 52.04 193.76 50.45 196.08 49.29 198.15 47.88 200.35 46.91 201.9 45.34 204.12 44.44 207.42 44.66 209.84 44.04 212.44 43.6 214.87 42.99 217.07 42.12 219.6 41.59 221.58 40.5 225.96 39.03 228.09 39.2 231.19 40.34 233.63 40.82 235.17 39.1 237.2 37.64 238.87 35.82 240.8 34.25 243.34 33.93 245.59 33.34 248.11 33.47 252.74 37.66 257.83 41.65 259.67 43.63 262.14 47.37 266.52 48.46 268.89 49.69 270.82 51.26 271.53 53.07 278.12 59.1 280.07 60.05 281.55 60.53 283.47 62.12 284.03 63.53 289.82 69.36 292.47 69.98 295.34 70.27 297.97 70.31 302.15 72.28 304.32 73.63 306.83 75.95 310.05 80.13 310.26 81.08 311.76 84.43 313.05 89.93 315.1 95.02 316.46 97.83 316.45 101.59 317.69 105.31 317.74 108.16 317.61 110.82 316.47 112.38 315.96 113.95 316.11 116.19 316.48 118.07 309.71 128.83 
M 306.78 127.31 306.78 127.31 
M 167.11 111.82 167.12 111.82 
M 169.04 111.35 169.66 109.59 170.25 106.28 171.22 103.31 170.35 102.03 
M 171.11 110.84 172.81 110.06 174.3 102.93 173.35 101.08 
M 175.16 110.07 176.68 108.6 178.03 102.49 178.31 99.99 177.49 97.8 177.91 95.37 177.66 93.55 
M 179.23 109.44 180.87 107.68 182.03 104 182.16 101.7 181.69 99.15 181.67 96.49 181.94 94.16 181.53 92.38 181.94 90.89 
M 183.28 108.72 184.22 107.09 184.74 104.72 184.93 102.41 185.5 99.89 185.82 94.87 184.96 93.25 184.8 91.98 185.02 89.89 185.5 87.52 185.8 84.04 184.98 77.91 186.11 76.55 186.44 75.07 186.37 69.61 186.87 67.68 
M 187.28 107.76 187.97 105.82 188.09 98.68 189.08 96.1 189.43 93.47 189.04 89.3 189.57 87.29 189.05 85.2 189.04 82.44 
M 191.29 106.81 192.14 105.04 192.64 103.31 192.94 100.85 193.07 95.48 193.33 92.98 193.99 90.74 194.84 86.24 194.86 84.65 194.27 79.75 
M 195.38 106.37 196.62 104.82 197.23 102.77 197.51 100.4 197.6 97.8 198.08 95.19 198.64 93.16 200.21 88.79 200.78 84.53 200.25 82.12 200.7 79.76 201.36 77.25 203.34 72.93 203.41 70.34 203.18 67.1 203.66 62.69 
M 199.49 106.02 200.64 104.3 201.28 102.26 201.97 97.22 202.7 94.85 203.62 92.77 204.76 91.07 205.7 86.07 205.71 83.65 205.96 81.25 206.57 78.95 206.64 77.55 207.9 75.28 209.62 72.84 210.38 67.78 210.58 64.97 211.7 61.98 210.68 58.66 210.93 56.65 211.58 55.34 212.3 52.4 
M 203.6 106.09 204.84 104.38 206.38 99.62 207.43 97.31 208.52 95.65 209.41 93.75 209.54 91.36 210.34 89.04 211.51 86.83 212.14 84.39 214.24 80.23 218.61 70.15 218.53 67.62 218.98 65.97 220.27 64.58 220.65 61.95 221.9 59.52 
M 207.7 106.53 208.89 104.73 209.71 102.33 210.86 100.35 212.08 98.55 213.3 97.17 214.29 94.96 215.42 89.9 216.88 87.31 218.1 85.64 220.52 80.99 221.74 78.51 223.58 73.25 225.39 70.47 
M 211.79 106.91 213.13 105.04 214.89 100.52 220.26 90.56 221.22 88.13 222.72 85.77 224.28 81.52 224.78 79.14 225.98 76.18 226.04 73.08 226.24 71.9 228.24 67.18 229.52 65.18 230.27 62.77 230.54 59.25 229.7 56.03 231.8 53.62 232.68 50.34 233.13 47.48 233.85 45.49 235.59 43.01 236.08 41.72 
M 215.91 107.07 217.41 105.29 218.69 102.89 219.71 100.73 220.47 98.44 222.6 94.52 223.23 92.68 224.24 90.89 226.48 83.62 226.56 80.58 227.12 78.42 228.36 76.01 229.04 73.52 229.23 71.04 230.79 69.02 230.86 67.25 232.21 65.05 232.88 62.79 233.19 60.92 232.97 59 233.93 56.38 234.76 53.05 235.91 49.73 235.92 47.63 236.41 45.48 238.43 43.37 238.14 42.18 
M 220.02 107.22 221.76 105.59 223.81 100.91 225.1 99.18 225.87 96.8 226.82 94.72 228.39 88.51 231.62 81.71 233.73 74.35 235 72.22 235.43 70.25 235.37 68.12 235.88 65.3 236.73 63.21 238.32 61.29 239.48 58.79 240.35 54.42 242.32 51.32 242.52 48.82 242.99 46.76 
M 224.12 107.58 225.58 105.96 228.62 100.28 229.53 98.1 230.94 95.74 232.82 91.23 235.16 86.47 235.2 83.7 235.67 81.31 235.73 78.95 237.25 76.83 239.02 73.54 239.71 71.45 242.53 66.63 242.99 63.52 244.29 60.6 244.71 58.11 244.57 56.35 
M 228.22 107.97 229.8 106.29 233.73 100.23 234.82 98.23 235.11 96.36 236.52 94.21 240.22 87 240.67 84.9 240.91 82.33 241.42 79.54 242.72 77.82 243.83 77.19 244.4 75.27 245.51 73.81 246.61 70.18 248.04 66.69 249.42 63.97 250.84 58.12 252.86 55.2 254.6 53.23 254.77 51.14 255.49 48.88 257.45 44.35 
M 232.31 108.51 234.28 107.09 238.45 101.55 239.44 99.46 239.97 97.16 242.44 92.9 243.22 90.48 243.63 88.33 248.63 82.41 250.03 80.02 249.64 77.5 249.86 75.57 251.54 73.99 253.06 72.05 254 69.33 254.52 64.7 255.52 63.36 257.63 61.03 
M 236.37 109.18 238.55 107.77 239.97 106.13 243.36 100.34 246.1 96.22 246.95 93.54 248.02 91.37 248.21 89.4 248.88 87.63 250.72 85.45 252.33 82.84 253.05 79.65 254.15 77.74 255.47 76.58 256.88 74.38 257.55 72.22 258.48 70.82 260.12 65.44 261.62 63.7 263.63 61.96 264.64 58.85 265.45 55.69 
M 240.43 109.83 242.04 108.35 243.42 106.46 245.1 104.88 246.39 103.04 250.2 95.98 252.01 91.61 252.38 89.57 256.39 82.57 256.9 80.39 259.83 76.24 261.5 74.32 262.44 72.07 
M 244.51 110.37 246.01 108.63 247.24 106.81 250.21 103.68 252.32 99.13 252.69 96.65 253.9 94.48 255.61 92.13 257.01 89.64 257.87 87.82 258.62 84.94 260.08 82.59 261.74 81.82 263.93 79.88 264.4 76.94 266.52 72.39 267.69 70.67 267.89 69.05 267.86 67.1 
M 248.6 110.91 250.25 109.15 251.48 107.18 254.71 103.86 255.73 101.93 256.34 99.81 259.57 92.51 260.91 90.28 264.2 86.11 265.61 84.56 266.78 82.56 268.13 80.95 268.61 77.73 269.84 75.92 
M 252.66 111.58 254.23 110.02 255.81 107.85 259.22 104.08 262.35 97.89 262.94 95.38 266.07 91.05 267.88 87.82 268.66 85.92 269.19 82.8 
M 256.71 112.29 258.84 110.91 261.66 106.64 263.17 104.62 264.88 102.72 265.58 100.96 266.57 99.06 270.17 92.98 270.69 90.68 272.53 88.97 273.16 86.52 274.69 84.63 277.06 79.73 279.03 77.92 279.85 75.13 280.87 72.95 
M 260.78 112.96 263.23 111.36 264.81 109.53 267 105.92 267.99 103.36 268.95 101.84 270.5 100.55 271.95 98.47 276.11 89.71 277.6 87.77 
M 264.84 113.59 267.29 112.11 268.78 110.28 270.01 106.44 271.18 104.58 274.62 100.52 276.4 98.04 277.53 95.79 278.94 93.93 
M 268.9 114.28 271.27 112.83 273.11 110.99 276 106.97 277.5 105.32 279.63 103.48 281.41 99.28 282.22 96.59 283.3 94.35 284.98 92.46 288.11 90.85 291.16 85.32 292.16 83.03 293.64 80.86 
M 272.87 115.38 275.42 114.15 277.27 112.19 279.38 110.56 283.63 104.83 284.67 103.15 287.26 97.8 289.34 95.38 291.01 93.88 
M 276.83 116.49 279.32 115.33 281.54 113.64 283.05 112.23 284.6 110.5 285.87 108.05 287.2 106.46 288.76 105.11 291.85 100.49 296.38 94.98 
M 280.7 117.9 283.58 116.66 285.26 114.87 288.78 112.16 290.54 110.05 292.34 108.26 294.72 105.09 296.46 103.32 298.57 101.73 301.4 99.23 303.87 96.92 305.27 95.31 
M 284.52 119.43 287.51 118.17 289.04 116.45 290.92 115.14 292.76 113.24 295.07 111.74 297.52 109.05 299.48 107.6 302.08 106.65 304.57 104.53 
M 288.36 120.92 291.01 119.65 294.85 115.95 296.99 114.45 300.46 111.47 302.37 110.42 304.71 108.8 307.16 107.87 308.7 106.47 310.01 103.63 
M 292.28 122.18 295.27 121.21 298.65 117.34 303.52 115.24 305.51 113.76 307.65 112.48 308.32 110.52 
M 296.2 123.44 299.08 122.56 301.01 120.53 303.29 118.82 308.26 116.86 309.54 115.21 
M 300.08 124.82 302.82 124.4 305.35 122.77 309.08 119.39 311.64 118.09 313.08 116.36 313.62 114.66 315.18 113.28 
M 303.94 126.26 306.51 125.93 314.17 121.89 316.56 120.19 
M 131.31 179.43 133.97 179.3 141.58 178.42 149.27 177.76 169.35 174.87 176.72 174.17 181.4 173.46 188.71 173 191.24 172.98 193.6 172.61 196.07 172.6 201.74 172.24 209.36 171.41 211.58 171.81 214.23 171.62 216.93 171.33 219.21 170.85 221.89 170.6 228.19 171.69 233.23 171.06 235.97 170.46 246.26 170.76 248.68 170.67 253.5 171.02 259.03 172.08 263.86 172.06 265.69 171.91 268.2 171.3 273.39 171.43 276.45 172.08 278.8 172.96 281.44 173.01 286.18 172.74 288.5 172.94 291.25 173.3 293.89 173.9 295.84 174.7 298.52 174.82 300.95 174.54 303.51 174.77 308.8 174.2 313.47 176.09 318.07 176.83 323.17 177.27 327.4 176.7 307.23 187.23 302.33 188.44 300.06 189.23 297.41 189.63 294.95 190.23 290.41 191.79 288.33 192.77 278.15 194.88 275.84 195.65 271.64 197.61 269.37 198.42 266.86 198.99 264.17 199.28 261.8 199.81 256.65 200.47 244.61 202.87 237.24 203.53 230.22 204.52 225.24 204.88 220.6 205.46 207.47 205.02 205.18 205.27 203.1 205.73 200.48 205.45 195.69 205.3 193.06 204.99 188.43 205 183.13 204.34 177.92 203.35 171.21 202.66 165.81 201.27 160.91 200.54 142.14 196.53 136.96 194.14 134.8 192.56 131.31 190.72 
M 131.31 180.67 133.99 180.64 141.66 180 146.9 179.96 151.84 179.48 154.19 179.09 164.38 178.58 166.89 178.3 169.5 177.77 171.89 177.57 191.73 177.16 194.21 176.63 196.33 176.47 204.31 177.48 209.42 176.65 212.33 176.74 216.84 177.44 219.17 177.58 223.9 177.73 229.29 177.45 231.84 177.78 241.37 178.41 246.2 177.96 251.3 178.83 253.92 178.95 256.31 179.29 259.12 179.46 262.17 179.36 265.01 179.64 266.99 180.53 
M 139.02 181.73 141.73 181.63 146.96 181.8 154.39 181.12 159.61 181.18 162.04 181.4 166.93 181.36 169.5 181.02 172.04 181.02 174.67 180.57 177.33 180.59 179.73 181.05 189.31 181.43 196.62 180.92 202.04 181.9 204.55 182.11 209.47 182.23 212.21 182.13 214.81 182.38 216.78 183.2 219.24 183.44 222 183.64 224.18 183.35 227.03 183.47 232.11 184.53 239.28 185.42 241.14 185.36 245.96 186.34 251.85 187.08 254.63 187.91 259.58 189.06 
M 131.31 183.14 133.98 183.34 139.04 183.22 146.98 183.75 154.47 183.48 164.52 184.19 172.34 184.11 177.21 184.78 179.8 184.64 189.74 185.75 194.34 185.62 199.21 186.27 204.38 186.52 208.98 187.1 216.57 188.64 222.7 189.14 224.88 189.6 229.12 190.74 231.74 191.21 236.48 192.43 239.03 192.7 241.58 193.4 243.69 194.25 248.33 195.31 251.33 196.55 
M 131.31 184.37 133.97 184.7 141.74 184.98 149.36 185.86 154.59 185.75 157.04 186.03 159.09 186.5 164.33 186.7 169.52 187.63 172.18 187.72 176.93 188.37 179.7 189.03 182.09 189.39 185.09 189.29 187.37 190.04 192.41 190.59 196.51 190.84 199.12 191.39 201.48 192.08 206.5 192.38 209.16 192.97 211.15 193.76 218.27 195.91 221.1 196.03 223.35 196.79 230.62 198.41 233.27 199.47 235.97 200.24 238.7 200.4 241.09 201.96 
M 136.63 186.33 141.65 186.79 149.24 187.9 151.85 188.14 154.52 187.92 159.25 188.84 161.78 189.14 169.54 191.23 174.39 192.13 176.66 192.33 179.61 193.02 182.05 193.86 184.26 194.01 186.62 194.57 188.83 195.48 191.42 196.14 193.47 196.85 
M 139.31 188.48 141.61 188.72 146.88 189.64 149.05 190.21 154.32 190.56 156.63 190.87 163.93 192.76 168.82 194.73 176.56 196.7 178.9 197.6 
M 131.31 188.08 139.31 190.37 146.79 191.69 149.03 192.61 156.76 193.81 161.16 195.61 163.61 196.78 
M 131.31 189.32 139.21 192.26 146.8 194.31 
M 182.27 234.69 185.45 238.13 187.86 244.21 193.34 259.63 193.66 262.16 193.35 266.27 193.69 268.81 193.73 271.07 192.49 273.09 189.37 276.31 187.39 276.65 184.8 276.39 182.5 275.64 177.55 272.64 175.56 271.18 166.23 262.75 158.58 256.52 157.15 254.55 154.45 248.25 152.05 244.32 148.61 230.05 148.15 226.59 146.94 222.8 143.96 217.51 
M 178.31 233.58 180.78 236.84 182.06 239.22 182.55 241.9 183.79 244.26 185.53 246.85 187.27 248.45 
M 174.34 232.47 176.44 235.55 177.87 238.09 178.52 240.86 178.73 243.4 180.14 245.87 181.59 248.91 185.63 252.99 
M 170.43 231.17 173.28 237.14 174.97 239.31 176.02 241.52 178.01 247.66 178.72 250.64 180.71 255.74 
M 166.57 229.75 168.98 235.65 170.46 238.23 171.98 240.31 173.63 243.1 175 248.54 177.16 255.74 177.41 258.1 
M 162.73 228.27 164.28 231.61 164.74 234.54 165.41 237.12 166.77 239.95 168.42 242.67 169.5 245.43 169.19 248.1 170.01 250.37 170.74 253.21 171.8 255.12 171.98 257.02 171.48 258.95 172 261.82 174.02 266.13 
M 159.11 226.31 160.64 229.97 161.45 235.98 161.96 238.2 163.12 241.08 164.37 246.73 165.27 248.73 165.3 251 
M 155.48 224.35 157.48 227.7 157.42 237.66 158.18 239.85 159.58 242.32 160.43 246 160.54 248.89 
M 151.91 222.32 153.6 225.43 154.23 228.46 154.1 231.87 153.43 235.24 153.57 238.21 154.22 240.87 155.64 243.46 156.83 246.75 156.5 249.3 156.83 251.68 157.68 254.12 
M 148.38 220.18 151.23 227.67 151.3 230.23 150.34 237.17 150.74 240.44 
M 316.35 210.13 319.53 213.29 324.26 217.51 329.4 225.25 329.93 227.43 329.7 231.8 327.75 233.27 326.53 235.47 325.68 237.93 324.5 239.97 323.59 242.32 321.64 243.71 319.39 244.82 316.18 244.97 311.25 246.21 306.87 247.69 302.03 248.01 299.02 247.51 296.18 247.72 293.71 248.58 291.75 249.78 290.15 251.24 287.97 251.24 285.83 250.49 282.61 248.65 279.98 248.01 277.08 247.72 267.47 243.67 264.8 241.8 262.02 238.78 258.89 235.69 
M 312.65 211.93 316.46 214.83 317.55 216.37 
M 308.95 213.73 311.9 216.59 315.75 219.8 317.68 221.69 
M 305.28 215.59 308.25 218.44 313.12 222.59 314.74 223.23 317.02 224.42 321.25 227.42 
M 301.65 217.53 304.57 220.54 309.59 223.67 312.21 225.68 314.6 227.15 315.92 228.66 317.92 230.02 319.79 230.66 321.94 232.72 323.28 235.19 
M 298.02 219.48 300.96 222.43 303.33 224.27 305.35 226.26 310.51 228.92 314.23 232.5 315.35 233.93 
M 294.38 221.41 298.99 225.89 304.45 230.11 306.93 230.97 
M 290.74 223.34 293.56 226.29 297.97 229.87 303.67 232.68 
M 287.08 225.22 289.6 228.52 294.67 232.27 296.72 234.55 300.06 237.03 302.4 237.95 305.73 241.79 
M 283.28 226.79 285.57 230.16 288.16 232.56 290.87 234.62 293.21 237.22 297.55 240.22 299.14 241.78 300.63 243.92 303.29 246.31 
M 279.47 228.36 282.46 231.86 287.43 236.89 290.64 241.48 292.67 243.11 294.56 243.81 296.34 245.04 
M 275.63 229.85 278.43 233.41 280.89 235.51 282.82 238.1 284.92 239.84 287 242.29 289.54 244.61 291.42 245.93 
M 271.77 231.28 278.8 239.86 280.77 241.69 283.39 243.44 
M 267.91 232.7 271.15 236.37 274.88 241.12 277.05 242.83 279.16 245.26 281.69 247.61 
M 264 234 269.37 239.87 271.14 242.98 
M 364.24 157.34 367.05 156.33 371.69 153.9 376.22 151.83 378.44 151.1 380.7 149.58 384.47 146.38 386.73 145.48 388.51 144.24 390.4 143.36 396.06 138.78 403.52 135.79 405.68 133.75 409.6 131.25 416.65 126.12 419.4 124.57 420.75 123.61 422.7 122.81 425.42 122.26 427.94 121.21 429.77 119.2 431.97 117.25 433.01 115.28 435.37 113.31 438.02 111.57 439.92 111.14 442.34 109.93 444.38 109.43 445.01 107.55 446.45 106.35 447.91 105.73 450.29 103.37 452.32 102.69 457.23 99.73 474.05 102.93 478.73 105.07 486.89 109.43 488.96 110.23 490 112.64 489.88 115.15 489.22 117.11 489.17 122.31 488.67 127.51 485.01 130.59 483.74 132.69 482.82 135.14 480.89 136.59 479.5 138.56 478.83 141.33 477.39 143.38 475.39 144.88 473.77 146.75 471.65 148.12 470.28 150.24 466.74 153.7 465.49 155.94 463.71 157.65 462.31 159.74 460.38 161.3 459.47 163.89 456.85 164.76 454.59 165.98 455.25 168.74 456.28 171.89 456.74 176.56 467.16 188.14 467.99 189.27 468.25 189.92 477.47 201.06 478.93 203.52 479.94 205.66 480.34 207.2 481.23 209.23 484.44 214.71 485.79 217.31 485.54 219.46 486.01 222.32 486.04 227.14 485.41 228.91 484 230.79 481.41 231.63 479.28 232.92 477.89 234.96 476.09 236.58 472.84 237.8 457.15 242.68 454.6 241.68 452.72 239.42 451.25 237.07 450.02 237.23 447.09 237.2 444.43 235.89 443.45 234.39 442.1 231.64 440.45 229.31 438.9 228.19 433.71 225.65 430.24 224.73 427.33 222.71 423.51 221.78 420.82 220.32 419.36 217.91 416.3 214.47 414.73 213.74 410.44 210.7 408.28 208.9 405.53 207.11 400.77 203.2 399.1 202.1 397.81 200.72 395.04 199.94 392.75 198.33 389 196.2 384.85 193.16 382.59 191.3 375.22 186.19 373.26 184.47 364.24 178.09 
M 367.18 158.13 374.04 155.11 376.61 154.66 378.95 153.71 383.98 151.07 386.08 150.22 388.07 149.07 391.95 147.43 396.9 144.92 398.68 142.99 401.31 141.52 403.89 139.84 406.12 139.29 407.87 138.07 411.17 138.08 413.44 136.93 415.25 135.67 417.02 134.04 420.13 132.09 
M 371.95 158.33 379.22 156.39 381.91 155.26 388.95 152.91 393.26 150.98 398.19 149.41 400.63 147.66 405.47 145.37 409.17 142.84 413.92 141.59 416.67 140.47 418.96 140.57 421.8 139.32 426.96 137.63 432.47 135.29 435.66 134.26 
M 367.24 161.82 372.17 160.56 376.5 159.84 379.2 159.14 381.56 158.16 384.12 157.46 389.75 156.47 392.07 155.51 393.98 154.39 399.19 153.64 401.52 153.52 406.81 151.33 409.09 149.77 413.03 148.25 417.38 147.84 420.47 147.76 423.04 146.4 428.27 145.28 430.42 144.5 432.24 143.65 434.61 141.52 436.5 140.36 438.83 139.75 
M 364.24 163.82 367.18 163.57 369.86 163.11 376.74 162.79 379.64 162.29 382.29 161.41 384.64 160.4 387.13 159.81 393.24 159.33 394.85 158.89 397.64 159.1 402.21 158.24 404.57 157.97 407.67 156.62 412.76 155.06 414.76 154.81 416.6 155.07 419.2 154.92 421.76 154.1 426.16 151.74 428.91 151.36 431.56 150.5 441.7 148.37 443 149.3 445.66 149.16 449.45 148.21 456.57 148.9 457.54 148.38 
M 367.16 165.41 369.78 165.23 374.94 165.18 379.79 165.34 391.01 163.8 393.73 163.67 396.16 163.33 398.57 163.74 400.59 163.76 402.42 163.16 405.08 162.92 408.12 162.34 411.6 162.72 414.5 162.6 
M 364.24 167.05 375.23 167.55 378.03 167.58 380.42 167.32 385.81 167.86 388.45 167.91 391.31 168.48 393.86 168.24 396.34 168.42 398.68 168.12 400.65 167.2 405.84 166.81 408.84 167.32 412.1 168.47 414.55 168.2 417.14 168.27 418.54 167.28 420.82 167.41 423.5 167.93 426.11 167.45 
M 367.22 169.12 372.66 169.8 380.5 170.45 385.62 171.13 388.18 171.85 391.58 172.17 394.01 172.02 396.18 172.09 398.21 172.58 400.75 172.17 403.28 172.4 405.77 172.07 408.61 172.42 411.55 173.39 413.75 173.88 
M 367.16 171.17 369.8 171.77 372.44 171.8 375.14 172.27 377.16 173.25 382.33 174.13 385.36 174.47 388.04 175.05 390.61 175.38 396.63 175.56 399.09 176.58 400.63 177.65 402.7 178.09 407.74 178.68 410.63 178.63 412.5 179.39 417.48 179.35 420.73 179.02 422.5 179.39 424.69 180.26 
M 372.38 174.42 374.63 175.1 377.22 175.44 382.22 177.08 384.93 177.69 387.35 178.45 393.53 179.18 396.09 179.8 398.43 181.35 400.61 182.45 405.4 183.49 408.17 183.43 415.05 185.51 416.86 185.57 419.93 185.12 424.57 187.66 426.22 189.06 428.25 189.31 430.83 190.31 433.27 190.73 436.04 190.22 
M 364.24 173.53 367.17 174.87 369.91 175.9 372.11 176.99 376.81 178.08 379.23 179.24 382.25 179.88 384.77 181.41 397 185.53 399.48 187.21 402.05 187.65 409.27 189.99 410.59 190.98 413.47 191.75 416.15 191.85 419.18 192.73 421.53 193.84 423.2 194.11 426.8 196.09 429.4 196.88 431.68 197.88 435.25 198.2 440.04 199.81 442.92 200.35 
M 364.24 175.15 369.65 177.89 373.93 179.8 378.55 182.3 381.43 183.2 384.05 184.34 386.5 185.84 389.09 186.99 391.11 188.09 398.36 190.84 400.96 192.3 405.92 193.84 408.02 195.12 411.38 198.03 416.14 199.98 418.28 201.49 422.81 204.3 425.95 205.43 431.23 206.66 435.75 207.2 437.36 209.1 439.27 210.95 441.7 211.79 443.42 212.18 445.89 213.47 447.45 213.33 449.16 214.06 451.69 215.63 454.4 216.75 458.37 218.32 463.46 219.74 467.14 222.55 
M 371.56 181.14 375.91 183.77 378.08 185.46 380.5 186.43 386.21 189.89 388.39 191.47 390.5 192.19 394.05 193.87 396.38 195.46 398.79 196.8 403.16 198.77 409.96 204.16 412.71 205.62 414.28 206.83 416.32 208.08 418.82 208.16 424.64 210.13 427.14 212.29 431.16 214.66 431.88 217.26 433.62 217.71 435.51 219.1 438 220.37 440.74 220.5 
M 40.82 156.4 44.65 155 61.19 150.95 66.28 149.32 76.64 145.36 87.52 141.6 92.84 139.54 115.24 131.82 117.32 135.53 121.16 143.18 122.5 147.08 124.32 154.98 124.86 163.05 125.86 166.99 126.18 171.01 125.26 175.19 125.84 179.19 127.93 187.06 128.04 191.11 126.75 203.47 124.88 207.7 114.74 207 107.36 205.86 100.53 204.44 94.07 202.75 87.99 200.75 82.3 198.16 77.24 195.23 67.29 188.8 62.76 185.55 
M 60.51 183.77 58.51 182.2 54.62 178.58 48.04 170.88 44.84 166.83 
M 103.81 153.77 103.93 157.27 104.38 160.55 104.02 163.73 102.55 166.87 102.41 169.68 102.96 172.25 103.8 174.7 104.71 179.75 106.66 185.65 106.73 189.22 95.22 188.99 90.38 188.66 85.41 188.04 80.44 186.96 75.62 185.1 71.27 182.62 
M 60.37 183.63 53.45 176.59 42.84 164.65 38.2 160.43 37.21 158.66 37.99 156.76 40.12 156.09 42.15 157 43.51 158.48 49.58 166.82 55.05 175.06 63.09 185.26 
M 61.36 185.32 41.36 176.15 32.32 172.28 30.57 171.24 30 169.44 31.14 167.84 33.33 167.6 35.22 168.46 42.05 172.36 62.96 185.16 
M 77.58 164.35 75.81 161.87 74.94 158.96 75.07 155.91 76.18 153.08 78.14 150.76 80.76 149.2 83.74 148.58 86.76 148.95 89.49 150.29 91.64 152.44 92.98 155.17 93.36 158.19 92.73 161.17 91.17 163.79 88.85 165.75 86.02 166.86 82.98 166.99 80.06 166.12 77.58 164.35 
M 90.14 153.51 91.21 155.7 91.51 158.12 91.01 160.5 89.76 162.59 87.9 164.17 85.64 165.05 83.2 165.15 80.87 164.46 78.89 163.04 
M 80.89 159.81 80.18 158.82 79.83 157.65 79.88 156.44 80.32 155.3 81.11 154.37 82.16 153.75 83.35 153.5 84.56 153.65 85.65 154.18 86.51 155.05 87.05 156.14 87.2 157.35 86.95 158.54 86.32 159.58 85.39 160.37 84.26 160.81 83.04 160.86 81.88 160.52 80.89 159.81 
M 80.65 159.46 81.28 160.09 
M 80.22 156.8 84.23 160.81 
M 80.73 155.09 85.73 160.09 
M 83.66 155.8 86.74 158.88 
M 84.89 154.81 87.16 157.08 
M 41.84 156 44.74 158.9 
M 45.54 154.76 48.75 157.98 
M 49.49 153.77 52.57 156.85 
M 53.52 152.86 56.37 155.72 
M 57.51 151.91 60.06 154.47 
M 61.42 150.88 65.27 154.73 
M 65.16 149.68 68.59 153.11 
M 68.82 148.4 72.45 152.03 
M 72.41 147.05 75.23 149.87 
M 75.94 145.64 79.91 149.61 
M 79.61 144.37 82.25 147 
M 83.3 143.11 88.03 147.85 
M 86.93 141.81 90.76 145.64 
M 90.5 140.44 94.28 144.22 
M 94.1 139.09 96.74 141.73 
M 97.76 137.81 101.08 141.14 
M 101.45 136.57 106.04 141.15 
M 105.15 135.33 109 139.18 
M 108.85 134.08 113.59 138.82 
M 112.54 132.83 116.18 136.48 
M 122.61 164.42 122.9 164.74 123.7 164.9 
M 49.3 156.47 51.73 157.39 52.25 157.93 
M 60.97 180.05 60.96 179.39 61.16 178.95 62.07 178.64 62.42 178.15 
M 99.84 196.02 99.1 196.71 98.53 196.85 97.83 196.7 97.14 196.13 96.88 194.78 97.23 193.11 
M 110.15 173.85 110.01 173.01 108.54 171.16 108.15 170.17 108.42 169.32 109.58 167.5 
M 51.22 169.22 51.48 168.78 52.19 168.22 53.9 167.51 55.57 167.6 57.96 168.2 
M 98.05 168.27 100.77 165.56 102.04 164.59 103.31 163.99 106.32 163.11 
M 123.84 204.63 124.33 203.89 125.96 203.24 126.16 202.93 
M 116 134.91 116.54 134.14 
M 48.06 163.58 48.59 162.52 49.07 162.12 49.97 161.72 50.52 161.54 51.03 161.59 51.49 161.88 51.4 162.24 
M 78.15 146.64 77.71 146.9 77.39 146.83 76.62 145.96 
M 80.6 179.44 78.73 178.13 77.82 177.76 75.82 177.79 73.05 178.09 70.69 177.72 68.77 177.6 
M 123.46 163 123.8 163.41 124.47 165.06 124.48 165.33 124.32 165.39 
M 62.37 168.6 62.06 168.16 61.95 167.26 
M 81.87 145.65 82.12 146.47 82.82 146.89 83.17 147.32 
M 101.8 161 102.02 161.26 101.99 161.58 
M 75.33 152.11 77.62 151.37 
M 119.75 140.28 120.16 143.5 120.58 145.01 
M 82.04 189.86 86.07 188.02 87.14 187.97 87.77 188.27 
M 69.86 177.66 68.42 177.65 67.86 177.91 67.66 180.07 67.36 181.31 
M 97.8 152.48 96.8 153.46 95.08 153.96 93.13 153.86 92.14 153.46 
M 92.57 181.37 93.06 180.6 93.1 180.25 92.96 178.84 92.39 176.8 
M 70.17 152 70.84 150.64 72.92 147.54 73.27 146.7 
M 117.17 140.27 117.76 139.91 118.69 139.8 119.2 140.98 
M 101.32 168.76 101.93 167.96 102.83 166.28 103.3 165.8 104.52 165.2 107.26 163.33 107.42 163.04 107.46 162.25 
M 98.98 178.37 97.41 178.76 96.42 178.79 95.21 178.82 93.64 178.55 93.27 178.19 92.48 176.55 92.27 174.54 
M 121.29 151.33 121.11 149.52 121.39 148.92 122.64 147.65 
M 79.65 183.28 76.8 182.36 75.59 181.64 74.98 181.63 
M 103.75 136.7 102.83 136.94 101.34 136.83 99.06 137.43 97.16 138.44 96.63 138.9 96 139.77 95.97 140.12 96.12 140.41 
M 113.8 167.03 113.34 165.94 113.43 165.25 113.89 163.8 114.74 162.5 115.36 160.91 115.6 158.67 115.9 157.89 
M 79.01 195.88 81.56 195.99 83.22 196.85 84.8 197.18 85.63 197.75 
M 63.64 186.42 61.95 187.95 60.59 189.88 56.62 197.52 57.62 195.27 58.48 191.64 59.74 188.04 60.31 186.84 61.89 184.67 
M 39.37 175.29 46.29 180.27 51.17 183.33 56.26 186.15 59.83 187.86 
M 61.44 188.63 66.72 190.94 77.24 195.23 
M 69.46 190.82 68.75 190.73 68.26 190.14 
M 119.16 139.1 120.39 140.33 
M 117.33 130.68 123.76 137.11 
M 121.72 128.49 131.27 138.04 
M 126.22 126.4 132.16 132.33 
M 130.96 124.55 138.53 132.12 
M 135.74 122.74 141.98 128.98 
M 140.62 121.03 146.16 126.58 
M 145.48 119.31 153.91 127.74 
M 150.29 117.53 158.95 126.18 
M 155.1 115.75 160.39 121.04 
M 159.91 113.98 165.9 119.97 
M 164.89 112.37 174.27 121.74 
M 170.18 111.07 179.49 120.38 
M 175.69 109.99 184.25 118.55 
M 181.39 109.1 189.28 117 
M 186.76 107.89 192.99 114.12 
M 192.11 106.65 198.21 112.74 
M 198.18 106.13 206.72 114.67 
M 204.86 106.22 211.16 112.52 
M 212.15 106.93 217.78 112.55 
M 219 107.18 228.78 116.96 
M 226.17 107.77 235.43 117.03 
M 233.73 108.74 240.62 115.63 
M 241.55 109.98 247.41 115.84 
M 249.14 110.98 255.04 116.88 
M 257.11 112.36 262.69 117.94 
M 264.94 113.61 270.14 118.8 
M 273.48 115.55 280.27 122.34 
M 283.56 119.05 291.87 127.35 
M 293.75 122.65 300.2 129.1 
M 303.94 126.26 313.66 135.97 
M 316.74 132.46 323.62 139.35 
M 330.23 139.36 336.4 145.54 
M 343.6 146.15 349.37 151.92 
M 357.79 153.75 362.23 158.19 
M 231.38 291.39 229.49 297.7 
M 231.38 291.39 234.08 291.39 234.89 291.7 235.1 292 235.22 292.6 235.04 293.2 234.56 293.8 234.17 294.1 233.18 294.39 
M 230.48 294.39 233.18 294.39 233.99 294.7 234.32 295.6 234.05 296.5 233.18 297.39 232.19 297.7 229.49 297.7 
M 240.35 293.5 239.09 297.7 
M 240.08 294.39 239.66 293.8 239.15 293.5 238.25 293.5 237.56 293.8 236.78 294.39 236.21 295.3 236.03 295.89 236.06 296.8 236.48 297.39 236.99 297.7 237.89 297.7 238.58 297.39 239.36 296.8 
M 242.75 293.5 241.49 297.7 
M 242.39 294.7 243.56 293.8 244.25 293.5 245.15 293.5 245.66 293.8 245.69 294.7 244.79 297.7 
M 248.45 293.5 247.55 296.5 247.58 297.39 248.09 297.7 248.99 297.7 249.68 297.39 250.85 296.5 
M 251.75 293.5 250.49 297.7 
M 256.88 294.39 256.76 293.8 255.95 293.5 255.05 293.5 254.06 293.8 253.58 294.39 253.7 295 254.21 295.3 255.62 295.6 256.13 295.89 256.25 296.5 255.68 297.39 254.69 297.7 253.79 297.7 252.98 297.39 252.86 296.8 
M 265.27 294.39 264.86 293.8 264.35 293.5 263.45 293.5 262.76 293.8 261.98 294.39 261.4 295.3 261.23 295.89 261.26 296.8 261.68 297.39 262.19 297.7 263.08 297.7 263.77 297.39 264.56 296.8 
M 267.05 293.5 267.58 297.7 
M 270.64 293.5 266.63 298.89 265.85 299.5 264.86 299.8 
M 275.75 293.5 274.49 297.7 
M 275.48 294.39 275.06 293.8 274.55 293.5 273.64 293.5 272.95 293.8 272.18 294.39 271.61 295.3 271.43 295.89 271.45 296.8 271.88 297.39 272.39 297.7 273.29 297.7 273.98 297.39 274.76 296.8 
M 282.08 291.39 280.19 297.7 
M 281.18 294.39 280.76 293.8 280.25 293.5 279.35 293.5 278.65 293.8 277.88 294.39 277.31 295.3 277.13 295.89 277.15 296.8 277.58 297.39 278.08 297.7 278.99 297.7 279.68 297.39 280.45 296.8 
M 287.14 293.5 285.89 297.7 
M 286.88 294.39 286.45 293.8 285.95 293.5 285.05 293.5 284.36 293.8 283.58 294.39 283.01 295.3 282.83 295.89 282.86 296.8 283.27 297.39 283.79 297.7 284.69 297.7 285.38 297.39 286.15 296.8 
M 288.77 297.1 288.38 297.39 288.58 297.7 288.98 297.39 288.77 297.1 
"/></svg>
