<svg xmlns="http://www.w3.org/2000/svg" width="520" height="320"><rect x="0" y="0" width="520" height="320" fill="floralwhite"/><rect x="10" y="10" width="500" height="300" stroke="black" stroke-width="1" fill="none"/><path stroke="black" stroke-width="1" fill="none" stroke-linecap="round" stroke-linejoin="round" d="
M 119.76 117.08 143.71 113.02 167.6 110.16 191.49 106.63 215.38 104.01 227.33 102.9 239.27 102.78 251.22 103.28 263.16 104.46 287.05 107.69 322.89 112.84 370.66 120.71 418.44 129.19 
M 418.44 180.48 394.55 185.79 382.61 188.14 346.77 194.27 334.83 195.97 322.89 197.33 310.94 198.17 287.05 199.55 275.11 200.47 263.16 201.81 251.22 202.72 227.33 202.74 215.38 202.32 167.6 199.3 155.66 198.27 143.71 197.02 131.77 195.37 107.8 191.29 
M 408.92 142.53 397.76 143.19 390.23 143.11 382.71 142.5 364.8 140.17 358.02 139.9 347.5 139.82 320.47 138.87 307.4 138.03 
M 303.79 137.66 295.21 136.39 284.97 134.1 279.65 133.07 
M 276.02 132.52 268.41 131.8 
M 264.49 131.57 260.57 131.32 
M 256.73 130.99 251.14 130.27 242.3 128.7 
M 235.19 127.72 229.61 127.48 225.8 127.54 220.09 128.12 
M 216.27 128.56 210.55 129.17 204.92 129.54 
M 201.3 129.67 197.79 129.74 
M 194.33 129.82 189.15 130.14 187.39 130.39 
M 183.84 130.96 180.22 131.65 
M 176.54 132.44 172.8 133.28 
M 165.19 134.84 161.31 135.41 
M 157.4 135.92 153.45 136.32 
M 149.43 136.63 145.34 136.85 
M 127.98 137.52 122.63 137.82 
M 110.81 186.74 111.07 186.93 
M 112.61 183.14 113.73 184.01 
M 123.22 186.24 128.57 190.44 
M 119.52 177.33 122.97 180.32 
M 129.38 185.82 132.37 188.28 
M 119.63 170.42 126.21 176.79 
M 129.47 179.82 134.06 184.07 138.47 187.76 
M 122.82 165.98 122.96 166.14 
M 126.29 169.69 138.74 182.22 
M 134.73 171.22 140.53 177.51 144.77 181.75 
M 147.62 184.34 150.53 186.73 
M 174.75 195.23 176.47 195.04 
M 124.48 150.65 126.76 153.72 
M 142.87 173.08 145.14 175.58 
M 147.93 178.5 152.21 182.57 156.73 186.14 
M 159.84 188.24 161.42 189.23 164.65 190.89 166.29 191.55 
M 122.88 139.24 132.85 152.95 
M 151.12 175.12 153.96 177.97 
M 163.19 185.44 168.08 188.35 173.06 190.47 
M 182.87 192.84 186.02 193.1 
M 121.99 129.42 129.6 139.4 138.86 152.39 
M 159.28 176.52 161.76 178.7 166.6 182.37 
M 176.55 187.95 179.85 189.29 
M 122.12 121.56 124.68 124.56 130.52 132 137.43 141.47 
M 140.35 145.64 144.75 151.91 
M 173.41 181.42 180.03 185.22 
M 183.29 186.82 188.07 188.93 192.6 190.59 
M 123.78 116.37 128.28 121.24 131.3 124.79 136.86 132.12 143.75 141.75 
M 146.73 146.04 149.8 150.4 
M 186.67 184.22 189.78 185.94 
M 192.82 187.55 195.78 189.01 
M 129.07 115.45 134.55 121.26 137.43 124.76 145.56 135.79 156.27 150.89 
M 187.33 179.82 189.97 181.56 
M 195.96 185.44 198.85 187.24 
M 134.28 114.56 140.28 120.93 143.11 124.36 148.57 131.66 157.49 144.26 162.14 150.39 
M 195.34 180.49 196.1 181.06 
M 198.99 183.22 204.63 187.22 
M 139.46 113.71 142.81 117.09 145.72 120.29 148.54 123.69 164.96 145.93 
M 168.07 149.76 168.13 149.83 
M 202.1 181.03 208.88 186.4 211.6 188.23 215.67 190.35 
M 220.95 192.22 223.72 192.76 
M 144.72 112.9 148.11 116.3 153.86 122.92 165.98 139.16 170.74 145.19 
M 207.79 181.11 210.32 183.26 
M 215.78 187.37 219.77 189.83 223.62 191.66 
M 150.14 112.23 153.33 115.48 159.21 122.29 171.63 138.45 179.61 148.02 
M 213.4 181.22 218.56 185.5 
M 155.47 111.58 158.6 114.85 164.66 121.85 177.17 137.67 185.91 148.17 
M 218.53 180.97 223.85 185.76 
M 160.65 110.98 167.08 117.81 170.15 121.4 191.16 147.59 
M 226.45 183.81 228.97 186.21 
M 236.24 191.92 238.63 193.22 
M 165.95 110.35 169.55 114.01 175.63 120.98 196.21 147.24 
M 231.51 184.32 233.96 186.77 
M 241.11 192.46 242.27 193.16 244.58 194.2 245.72 194.55 
M 171.3 109.6 175.16 113.63 181.05 120.67 186.97 128.27 196.12 140.56 201.32 147.18 
M 238.87 187.36 242.38 190.5 245.81 192.82 
M 176.58 108.79 180.72 113.4 183.54 116.87 189.2 124.29 198.1 136.51 206.44 147.07 
M 235.8 178.99 236.51 179.87 
M 238.96 182.77 242.49 186.68 245.91 189.84 
M 248.17 191.61 250.43 193.11 
M 181.69 108.03 186.12 113.36 188.8 116.91 197.09 128.42 203.31 136.69 211.79 146.94 
M 246 185.76 248.26 188.06 
M 250.52 190.11 252.78 191.93 
M 186.48 107.35 191.27 113.57 199.29 124.7 205.38 132.68 212.18 140.83 218.6 147.89 
M 243.73 177.78 246.05 180.76 
M 252.87 188.37 255.15 190.52 
M 259.8 194.24 262.16 195.8 
M 190.86 106.72 201.69 121.16 207.61 128.73 214.33 136.59 219.66 142.34 
M 223.18 146.09 224.74 147.78 
M 250.61 181.11 252.92 183.87 
M 255.23 186.47 257.55 188.92 
M 195.1 106.25 204.2 117.73 213.17 128.59 216.51 132.37 227.24 143.69 230.38 147.29 
M 199.37 105.81 218.75 128.29 229.44 139.5 232.97 143.49 234.61 145.58 
M 259.95 182.33 262.36 185.38 
M 264.73 188.35 267.09 191.19 
M 203.93 105.33 212.31 114.27 224.34 128 231.49 135.53 235.1 139.54 238.44 143.74 241.14 147.62 
M 262.35 180.16 269.54 189.78 
M 208.86 104.76 212.14 108.01 217.83 114.09 225.01 122.41 
M 228.21 126.05 236.98 135.77 238.67 137.84 
M 241.89 142.06 245.86 148.03 
M 264.8 177.88 267.25 181.41 
M 272.01 188.14 274.34 191.22 
M 213.93 104.17 217.8 107.96 223.26 113.91 240.39 134.21 
M 246.69 142.64 250.38 148.4 
M 265.59 172.74 269.79 179.18 
M 219.1 103.66 223.35 107.91 225.96 110.8 231.25 117.13 246.95 136.91 250.02 141.11 254.79 148.35 
M 272.37 176.7 277.02 184.02 
M 224.16 103.19 228.65 107.91 231.13 110.83 253.44 139.65 
M 256.52 143.88 259.53 148.23 
M 277.29 177.81 280.7 183.32 284.32 188.41 
M 229.09 102.88 231.24 105.2 236.01 111.02 247.35 126.14 260.39 142.24 265.14 148.66 
M 277.1 169.94 279.85 174.86 
M 282.18 178.73 287.06 186 
M 233.91 102.84 238.33 108.13 249.37 122.78 255.9 130.7 266.19 142.63 269.52 146.94 271.06 149.22 
M 281.08 168.94 284.9 175.7 
M 287.37 179.6 292.39 186.8 
M 238.48 102.79 243.05 108.38 247.09 113.64 
M 250.04 117.44 254.77 123.29 263.2 132.85 
M 266.75 136.77 272.06 142.98 275.27 147.33 277.31 150.69 
M 285.13 167.62 285.33 168.02 
M 287.7 172.37 292.69 180.33 
M 299.98 190.39 302.23 193.01 
M 243.18 102.95 252.45 114.12 
M 255.54 117.85 260.33 123.43 274.24 139.04 277.61 143.36 280.52 147.77 282.43 151.42 
M 289.13 166.25 290.48 168.67 
M 293 173.01 295.49 177.05 
M 248.14 103.15 265.96 123.35 276.12 135.13 279.52 139.42 282.58 143.82 285.14 148.27 286.78 151.75 
M 293.08 164.82 300.57 177.38 
M 253.56 103.51 259.45 109.73 268.48 119.74 271.5 123.3 281.23 135.55 284.35 139.92 287.04 144.32 290.83 152.01 
M 296.79 163.28 303.08 173.59 
M 309.76 183.85 312.25 186.83 
M 259.46 104.09 265.49 110.21 271.21 116.49 274 119.82 283.05 131.8 286.14 136.12 288.88 140.46 294.57 151.43 
M 300.55 161.73 302.7 165.16 
M 307.64 173.23 310.85 178.44 312.03 180.07 
M 265.62 104.79 271.39 110.61 274.06 113.59 279.32 120.15 285.19 128.16 288.19 132.44 290.95 136.71 299.18 151.7 
M 304.38 160.14 307.42 164.95 
M 312.1 172.54 314.32 176.03 
M 271.9 105.64 276.91 110.91 279.39 113.85 284.68 120.66 290.52 128.84 293.28 133.05 295.76 137.2 304.16 151.89 
M 312.13 164.51 319.24 175.49 
M 325.04 182.75 328.07 186.19 
M 277.9 106.45 282.06 111.08 285.84 115.78 
M 288.58 119.35 292.92 125.27 295.73 129.39 301.86 139.49 
M 304.24 143.58 306.71 147.78 
M 309.31 152.04 310.84 154.47 
M 312.36 156.83 314.57 160.24 
M 333.53 186.34 336.12 189.53 
M 283.56 107.22 289.51 114.33 295.2 121.72 300.75 129.69 304.59 135.61 
M 307.04 139.61 313.26 150.02 316.04 154.29 
M 316.57 155.09 319.79 159.88 
M 322.33 163.61 324.97 167.41 
M 330.64 175.37 333.58 179.31 
M 336.39 183.03 341.3 189.52 
M 288.99 107.98 294.46 114.57 300.23 122.02 305.97 129.74 309.94 135.59 
M 312.42 139.61 318.64 149.91 325.3 159.56 
M 328.05 163.41 336.7 175.55 
M 294.38 108.78 305.5 122.16 311.46 129.63 314.19 133.47 316.7 137.44 322.8 147.56 
M 325.51 151.55 339.83 171.59 
M 299.86 109.59 311.03 122.22 317.04 129.48 319.73 133.3 327.1 145.27 331.39 151.37 
M 334.32 155.41 337.22 159.43 
M 345.5 171.54 348.02 175.47 
M 355.06 186.08 356.75 188.25 
M 305.64 110.42 316.64 122.28 319.66 125.75 322.56 129.39 325.19 133.13 333.01 145.14 341.7 157.4 348.29 167.37 
M 350.83 171.39 353.32 175.39 
M 311.63 111.27 322.17 122.4 325.12 125.77 329.32 131.08 
M 334.69 138.81 345.91 155.29 
M 348.5 159.25 353.57 167.3 
M 356.11 171.43 361 179.29 
M 317.62 112.11 324.66 119.36 330.5 125.66 333.34 129 336.11 132.61 341.81 140.77 347.37 149.17 352.44 157.02 358.79 167.38 
M 361.32 171.6 363.79 175.64 
M 323.57 112.95 332.95 122.37 335.82 125.44 340.11 130.56 
M 342.99 134.41 348.65 142.78 
M 351.28 146.88 356.25 154.72 
M 361.33 163.15 368.86 175.77 
M 373.43 182.7 375.2 185.11 
M 329.85 113.99 338.28 122.22 344.05 128.56 346.95 132.28 349.77 136.32 358.75 150.39 
M 361.2 154.45 368.93 167.74 
M 336.34 115.07 343.66 122.13 346.55 125.18 349.38 128.51 352.15 132.22 360 144.18 368.69 158.96 
M 371.3 163.49 373.81 167.76 
M 383.14 181.82 384.76 183.91 
M 342.93 116.16 349.04 122.11 351.79 125.14 354.48 128.48 358.44 134.1 
M 361.06 138.04 364.89 144.08 378.56 167.51 
M 385.75 178.15 388.31 181.53 
M 349.49 117.23 354.26 122.04 356.88 125.1 362.07 132.17 367.32 140.16 378.56 159.39 
M 383.43 167.17 385.88 170.8 
M 356.01 118.27 359.44 121.94 361.98 125.06 367.16 132.3 371.12 138.45 
M 373.69 142.72 379.89 153.42 386.09 163.29 
M 388.61 166.98 393.93 174.29 
M 362.57 119.35 367.29 125.05 372.53 132.55 375.16 136.72 381.37 147.54 
M 383.87 151.72 387.66 157.68 391.5 163.25 
M 399.51 173.96 402.1 177.29 
M 369.23 120.47 372.91 125.1 375.54 128.84 378.16 132.88 381.89 139.31 
M 384.28 143.65 387.96 149.96 390.57 153.9 395.74 161.26 402.43 170.04 
M 376.13 121.66 378.82 125.23 381.43 129.07 383.92 133.17 388.57 141.74 392.2 147.95 
M 394.76 151.83 399.95 159.06 
M 402.62 162.56 405.33 166.03 
M 383 122.87 384.81 125.38 387.3 129.26 396.41 145.78 398.89 149.56 402.78 154.94 
M 405.44 158.46 408.16 161.95 
M 410.86 165.39 415.86 171.96 
M 389.67 124.05 392.96 129.33 398.42 139.55 
M 400.66 143.44 404.28 148.92 406.88 152.49 418.01 167.01 
M 395.94 125.18 402.71 137.53 406.06 142.99 
M 408.46 146.49 411.03 150.06 
M 401.73 126.23 405.95 133.83 409.22 139.18 
M 411.52 142.55 413.97 146 
M 407.3 127.24 412.46 135.71 
M 412.95 128.23 415.72 132.46 
M 122.65 116.57 120.56 118.55 
M 130.2 115.25 127.77 117.92 122.04 123.43 
M 136.62 114.18 133.9 117.87 131.01 121.28 127.7 124.69 122.04 130.08 
M 142.25 113.26 137.05 121.17 134.14 124.82 132.46 126.61 
M 128.98 130.14 125.39 133.73 
M 147.46 112.56 142.63 120.69 140.02 124.63 138.54 126.55 
M 135.4 130.28 126.66 139.44 123.56 143.23 
M 152.55 111.94 152.47 112.07 
M 151.3 114.08 145.58 124.08 142.87 128.21 141.37 130.15 
M 138.23 133.93 134.86 137.58 
M 157.8 111.31 155.43 115.2 148.44 127.65 145.71 131.86 142.71 135.81 134.42 145.4 
M 131.09 149.59 128.02 153.57 
M 163.34 110.66 160.75 114.68 151.37 131.43 148.64 135.73 145.67 139.78 140.87 145.66 
M 137.61 149.7 135.22 152.7 
M 123.86 166.65 118.01 173.67 
M 169.19 109.92 166.21 114.26 163.93 118.06 154.43 135.5 151.71 139.9 150.25 141.97 
M 147.23 146.05 142.45 152.12 
M 128.42 168.98 121.41 177.17 
M 118.48 180.66 115.78 183.87 
M 175.38 108.98 171.8 113.85 169.43 117.63 164.82 125.92 157.62 139.81 154.92 144.27 150.48 150.45 
M 133.2 170.87 128.09 176.65 
M 181.65 108.04 177.41 113.52 173.79 119.22 
M 171.48 123.32 163.39 139.43 160.88 144.13 158.18 148.57 156.71 150.62 
M 137.74 172.71 134.58 176.23 
M 131.43 179.68 128.36 183 
M 187.83 107.15 182.91 113.35 179.26 118.89 
M 176.94 122.88 173.58 129.35 167.89 141.18 
M 165.42 145.88 162.68 150.47 
M 137.69 179.26 134.6 182.54 
M 193.78 106.39 188.22 113.42 185.81 116.85 183.46 120.57 179.02 128.81 173.54 140.41 
M 171.2 145.13 168.61 149.79 
M 146.8 175.47 143.76 178.83 
M 140.72 182.07 137.69 185.17 
M 199.55 105.79 195.6 110.63 193.29 113.71 188.7 120.52 184.35 128.4 178 141.92 174.12 149.52 
M 152.52 175.28 146.72 181.59 
M 205.51 105.14 203.01 107.99 198.31 114.08 193.77 120.72 191.61 124.34 187.5 132.36 181.32 145.7 179.53 149.22 
M 211.88 104.41 208.5 108.03 203.52 114.32 198.84 121.02 196.63 124.56 192.61 132.28 185.7 147.2 
M 158.98 180.44 152.82 186.52 
M 149.82 189.21 146.85 191.65 
M 218.33 103.73 214.14 107.99 211.52 111.07 206.52 117.75 202.91 123.02 
M 200.69 126.67 197.67 132.43 190.65 147.6 
M 167.75 177.5 165.52 179.72 
M 224.54 103.16 219.78 107.94 217.12 110.95 212.04 117.65 207.12 124.9 204.87 128.71 202.84 132.62 200.01 138.63 
M 198.16 142.65 196.01 147.24 
M 172.82 178.42 172.33 178.89 
M 168.97 182.07 165.68 185.13 
M 156.15 192.72 154.56 193.79 
M 230.08 102.87 222.62 110.84 220.03 114.01 215.06 121.03 212.65 124.79 208.24 132.7 201.53 146.76 
M 178.33 178.79 175.82 181.09 
M 172.46 184.14 169.13 187.04 
M 234.95 102.83 225.41 113.86 222.92 117.18 220.51 120.75 215.95 128.45 213.82 132.53 206.79 147.03 
M 179.29 183.05 175.95 185.92 
M 166.02 193.23 164.05 194.37 
M 239.59 102.8 233 110.89 228.24 117.08 225.91 120.56 223.67 124.27 220.51 130.14 
M 218.46 134.26 212.31 147 
M 244.24 102.99 242.17 105.38 237.81 111.13 233.44 117.24 231.25 120.59 227.11 127.91 224.18 133.83 
M 222.19 138 217.42 147.77 
M 193.39 180.39 187.67 185.18 182.85 188.79 
M 249.48 103.21 247.09 105.65 244.77 108.49 242.59 111.51 238.43 117.72 235.45 122.69 
M 233.55 126.19 222.85 147.88 
M 198.49 180.78 198.29 180.95 
M 192.43 185.68 186.2 189.94 
M 182.96 191.78 179.67 193.36 
M 255.25 103.68 252.53 106.11 249.96 108.91 247.6 111.96 243.38 118.39 239.61 124.98 232.7 139.46 228.63 147.41 
M 203.99 180.87 199.91 184.29 195.55 187.37 
M 261.42 104.28 258.41 106.69 255.62 109.41 253.04 112.45 251.85 114.08 
M 249.58 117.38 246.51 122.41 242.96 129.07 238.16 139.73 234.28 147.33 
M 267.46 105.04 264.52 107.31 261.58 109.91 258.81 112.85 256.25 116.11 251.77 123.05 248 129.82 246.33 133.17 242.32 142.11 
M 240.49 145.94 239.67 147.58 
M 214.95 181.08 211.21 184.4 209.87 185.4 
M 201.55 190.21 200.12 190.83 195.69 192.17 
M 273.05 105.8 267.6 110.36 264.73 113.16 262.02 116.31 259.53 119.77 255.17 126.99 251.37 133.86 244.7 147.81 
M 218.03 183.33 215.41 185.46 
M 212.73 187.35 210.01 188.95 
M 207.27 190.26 204.48 191.27 
M 278.04 106.47 270.57 113.43 267.82 116.41 265.23 119.76 262.87 123.41 254.7 137.89 249.41 148.37 
M 225.8 181.36 220.83 185.59 
M 282.5 107.08 273.44 116.56 270.86 119.75 268.47 123.31 266.29 127.12 262.22 134.69 254.55 148.37 
M 233.51 179.24 230.9 181.84 
M 286.68 107.64 276.27 119.94 273.94 123.35 271.81 127.1 265.9 138.66 260.07 148.4 
M 240.05 178.09 235.89 182.41 
M 233.5 184.54 231.09 186.44 
M 290.81 108.25 281.6 120.35 279.23 123.7 277.12 127.33 274.42 133.05 
M 272.63 136.95 269.57 142.83 265.87 148.69 
M 240.76 182.96 238.43 185.13 
M 295.2 108.9 284.61 124.27 282.39 127.83 280.47 131.52 277.2 139.23 275.3 143.19 271.56 149.33 
M 251.49 176.18 247.64 180.89 
M 243.2 185.58 240.9 187.57 
M 228.88 192.81 226.2 192.95 
M 299.96 109.6 298.4 111.52 296.34 114.67 292.24 121.46 287.73 128.49 285.62 132.11 283.81 135.84 281.37 141.65 
M 279.5 145.6 278.47 147.59 276.58 150.64 
M 258.12 174.38 254.36 178.81 
M 252.21 181.27 247.84 185.87 
M 305.23 110.36 303.73 111.93 301.43 114.96 299.35 118.31 295.26 125.5 290.74 132.76 288.66 136.44 283.34 148.06 282.22 150.09 
M 261.37 177.08 256.86 181.81 
M 254.65 184.06 252.44 186.19 
M 243.45 192.65 241.14 193.48 
M 238.78 193.94 237.59 194.07 236.18 194.01 
M 310.79 111.16 309.4 112.47 306.92 115.32 304.61 118.55 302.44 122.09 298.13 129.57 293.46 136.99 291.32 140.75 286.1 151.73 
M 273.32 170.67 271.25 173.08 
M 266.32 178.25 261.64 182.68 
M 252.58 190.26 249.22 192.42 248.1 192.95 
M 316.36 111.93 312.62 115.72 310.17 118.77 307.83 122.19 295.89 141.18 293.69 145.05 290.37 151.99 
M 273.76 177.01 268.88 181.85 
M 257.25 190.79 252.72 193.29 
M 321.65 112.67 318.3 116.11 315.84 118.99 313.42 122.24 309.79 127.78 
M 307.26 131.67 298.26 145.36 296.01 149.39 294.67 152.23 
M 283.67 171.78 281.1 175.06 
M 278.63 178.06 274.99 182.07 271.37 185.34 
M 269 187.23 265.49 189.69 262 191.7 
M 257.4 193.84 255.13 194.6 
M 326.61 113.45 323.79 116.43 321.4 119.24 316.61 125.77 303.24 145.57 300.8 149.61 299.13 152.83 
M 291.48 168.78 288.9 172.51 
M 283.6 178.96 278.59 184.36 
M 273.82 188.66 271.46 190.37 
M 262.16 194.75 258.71 195.54 257.56 195.66 
M 331.4 114.25 326.83 119.4 322.14 125.76 308.42 145.75 305.87 149.82 303.61 153.94 
M 300.09 161.92 297.74 167.24 296.61 169.26 
M 294.19 173.13 290.19 178.29 287.49 181.33 281.02 187.74 
M 273.91 193.27 271.58 194.49 
M 266.96 196.04 264.65 196.42 
M 336.12 115.03 332.22 119.41 327.55 125.74 313.75 145.83 311.11 149.99 308.48 154.53 
M 305.51 160.7 303.58 165.17 
M 299.33 173.52 298.12 175.42 294.16 180.49 
M 283.56 190.93 281.07 192.85 
M 278.67 194.51 277.14 195.45 
M 340.78 115.8 337.58 119.34 334.06 123.94 
M 331.71 127.36 322.06 141.36 317.81 147.84 
M 315.19 152.08 313.85 154.28 
M 306.3 169.35 305.28 171.53 303.02 175.57 301.8 177.4 
M 299.3 180.91 295.43 185.63 292.79 188.37 288.81 191.88 
M 345.46 116.58 340.57 122.17 338.22 125.34 330.62 136.86 324.65 145.37 315.41 160.23 
M 301.72 184.35 299.24 187.43 
M 350.16 117.33 345.97 122.12 343.58 125.2 341.22 128.63 333.43 140.92 327.53 149.41 317.99 163.94 
M 315.49 168.12 308.7 180.51 
M 299.25 193.05 297.92 194.36 
M 354.77 118.07 351.28 122.08 346.61 128.53 339.23 140.81 336.42 145.11 323.33 163.54 
M 317.93 171.71 315.5 175.85 
M 308.92 187.14 306.59 190.3 
M 359.29 118.8 356.46 122 354.09 125.12 350.7 130.37 
M 348.42 134.31 342.26 145.08 339.49 149.28 333.63 157.42 326.15 167.37 
M 323.26 171.38 320.58 175.39 
M 363.85 119.56 360.42 123.49 
M 358 126.78 354.65 132.18 347.76 144.98 343.83 151.28 
M 338.15 159.42 332.13 167.39 
M 329.1 171.35 323.57 179.11 
M 368.52 120.35 367.1 121.8 364.34 125.05 361.85 128.5 359.59 132.15 356.33 138.21 
M 354.08 142.51 350.49 149.02 346.63 155.27 
M 341.13 163.46 335.19 171.49 
M 373.37 121.18 369.78 125.06 367.04 128.58 364.58 132.22 362.33 136.04 359.03 142.2 
M 356.73 146.46 350.6 157.12 344 167.5 
M 341.17 171.6 336.74 177.53 332.47 182.91 
M 378.45 122.07 375.55 125.15 372.53 128.73 369.8 132.41 367.35 136.19 363.92 142.07 
M 361.63 146.14 353.25 161.09 345.42 173.59 344 175.6 
M 341.09 179.48 338.15 183.07 
M 383.68 122.99 378.32 128.95 375.31 132.71 372.58 136.53 370.09 140.36 364.16 150.16 
M 361.83 154.4 359.52 158.77 
M 357.14 163.09 354.63 167.28 
M 352.04 171.39 346.56 179.36 
M 388.82 123.9 381.03 133.03 378.03 136.94 375.29 140.83 369.1 150.39 
M 366.76 154.46 361.06 165.31 357.3 171.46 
M 393.76 124.78 386.78 133.28 380.63 141.3 375.34 148.96 371.73 154.82 
M 369.47 159.02 367.24 163.33 
M 364.94 167.58 362.5 171.65 
M 398.65 125.67 395.56 129.38 389.2 137.53 383.17 145.66 379.21 151.37 
M 376.74 155.23 375.54 157.2 372.19 163.55 
M 369.95 167.79 367.59 171.85 
M 365.08 175.69 362.44 179.34 
M 356.81 186.08 354.51 188.52 
M 403.67 126.58 397.87 133.47 390.09 143.85 
M 387.18 147.9 381.85 155.57 
M 379.37 159.47 372.52 171.89 
M 408.75 127.49 403.26 133.7 398.61 139.6 
M 392.66 147.95 389.86 151.94 
M 387.12 155.77 383.16 161.45 379.56 167.49 
M 372.52 179.35 370 182.85 
M 413.81 128.38 405.53 137.51 402.46 141.39 392.58 155.76 
M 389.79 159.56 385.72 165.19 382.03 171.11 
M 377.3 178.95 374.87 182.59 
M 418.44 129.58 410.95 137.43 407.86 141.04 406.38 143.01 
M 403.5 147.09 396.69 157.47 389.73 166.97 
M 387.07 170.75 384.55 174.61 
M 382.11 178.44 379.69 182.13 
M 418.44 135.33 413.35 140.71 410.33 144.43 407.5 148.51 399.43 160.99 384.65 181.69 
M 418.44 141.1 415.89 144.03 412.99 147.93 404.96 160.42 400.87 166.46 
M 398.1 170.39 395.35 174.24 
M 418.44 147.86 415.8 151.59 407.83 163.88 403.72 169.92 
M 418.44 155.6 411.98 165.27 
M 409.27 169.29 406.48 173.25 
M 418.44 163.18 413.32 170.57 409.03 176.4 
M 418.44 170.15 412.09 178.46 
M 418.44 176.26 418.26 176.49 
M 155.66 111.56 155.66 111.56 
M 161.45 110.88 164.74 102.88 167.01 101.16 170.06 100.23 171.88 98.06 172.28 94.5 173.35 87.7 177.65 83.91 179.44 81.65 182.24 80.4 187.27 73.32 189.47 71.48 192.12 70.11 196.11 70.15 198.29 68.38 201.07 67.87 204.54 69.25 206.09 66.89 207.41 64.18 209.41 62.15 212.17 61.1 215.36 61.04 219.83 61.45 223.02 62.65 225.78 62.59 227.82 60.6 230.2 58.94 232.99 58.07 236.08 57.65 239.58 59.48 243.42 63.59 245.15 64.05 246.48 63.56 255.19 67.71 257.86 69.4 262.81 69.69 265.32 70.16 268.32 71.99 272.25 76.93 274.67 78.8 278.88 81.53 282.93 84.97 284.99 86.46 288.64 91.9 290.79 93.87 292.4 94.22 293.62 94.81 292.96 108.57 
M 287.05 107.69 287.05 107.69 
M 160.39 111.01 162.78 110.07 163.21 107.77 
M 165.13 110.45 167.06 108.42 168.13 106.38 170.19 103.76 170.64 101.77 
M 169.86 109.82 172.04 108.2 173.42 106.22 174.36 104.63 173.98 103.61 
M 174.57 109.1 176.39 107.57 177.43 105.53 178.96 100.43 178.95 97.47 178.74 95.1 179.99 88.89 
M 179.29 108.38 180.68 107.58 181.57 104.97 182.6 99.22 182.69 96.3 183.09 93.28 184.35 90.62 
M 184.01 107.7 185.48 106.33 186.29 103.97 187.46 101.37 188.27 98.78 189.15 93.98 189.4 91.36 190.04 88.55 190.88 86.25 
M 188.73 107.02 190.68 102.7 191.96 100.79 192.65 98.25 193.37 90.83 194.37 88.5 195.48 86.47 195.97 83.53 196.11 81.14 196.67 78.32 
M 193.47 106.42 194.95 104.74 196.16 102.73 197.57 97.7 197.61 91.96 198.11 89.47 199.85 83.02 199.92 80.57 202.5 76.46 204.52 74.32 
M 198.21 105.93 199.77 104.49 200.97 101.75 201.87 96.43 202.18 93.3 203.47 87.85 203.49 84.43 204.5 82.89 205.39 80.43 206.14 78.87 207.88 77.33 208.78 75.25 209.9 71.58 209.65 68.51 209.08 65.03 
M 202.95 105.43 204.76 103.7 207.12 98.15 209.33 90.35 208.95 84.12 209.2 82.17 212.71 76.77 
M 207.69 104.89 209.92 103.1 211.3 97.76 212.71 95.28 213.08 92.35 213.94 89.76 213.85 86.99 213.3 85.51 213.45 83.64 214.35 80.78 216.55 77.43 217.4 75.54 217.67 72.87 219.6 69.95 
M 212.43 104.35 214.35 102.37 215.53 99.81 216.39 97.25 216.74 94.41 218.02 92.01 218.91 89.22 218.89 86.76 218.69 84.75 218.9 82.32 220.4 79.27 222.46 70.64 223.56 69.55 224.52 67.15 224.86 65.01 
M 217.17 103.84 218.75 102.24 220.07 100.08 221.11 97.89 222.39 94.62 223.6 91.25 224.17 88.23 224.02 85.96 224.18 82.57 226.41 75.66 226.69 72.68 227.87 69.95 229.77 69.14 
M 221.92 103.4 223.7 101.94 225.2 99.87 226.74 93.51 226.37 91.09 226.85 88.59 227.96 86.74 228.87 84.58 230.29 81.99 230.63 79.9 
M 226.67 102.96 228.68 101.59 230.02 99.55 230.55 96.89 231.27 91.2 235.12 84.93 235.95 82.96 
M 231.44 102.86 233.64 101.18 235.1 99.02 235.86 96.37 236.91 94.18 238.7 92.34 239.53 90.25 240.33 87.55 240.41 84.34 240.97 80.46 241.34 78.47 242.18 75.86 
M 236.21 102.81 237.94 101.24 240.52 96.56 241.96 94.87 243.65 93.24 244.31 90.3 244.52 87.71 
M 240.98 102.85 243.26 101.36 244.91 99.49 246.28 97.54 246.97 95.55 248.33 93.29 250.58 87.82 250.85 81.97 
M 245.75 103.05 248.72 102.1 250.66 100.07 251.49 97.88 252.09 95.71 254.65 90.87 257.74 84.14 258.26 81.46 260.23 78.88 
M 250.51 103.25 253.47 102.27 255.02 100.54 258.11 95.84 259.28 93.49 262.81 88.84 264.11 85.29 
M 255.26 103.68 258.22 102.95 260.09 101.39 261.91 99.31 263.83 96.68 267.28 93.63 268.91 89.71 270.26 87.06 
M 260.01 104.15 262.89 103.24 265.15 101.55 266.79 98.95 268.65 96.92 271.71 92.13 
M 264.75 104.67 267.21 103.88 269.72 101.65 271.65 99.28 273.33 97.54 275.08 95.15 276.63 92.38 277.98 89.55 279.41 88.48 
M 269.48 105.31 271.87 104.28 274.27 102.54 275.83 100.2 277.21 97.34 278.84 94.48 
M 274.21 105.96 276.49 104.97 282.48 98.28 
M 278.93 106.59 281.54 106.03 288.88 100.83 289.03 99.26 288.78 97.85 
M 283.66 107.23 287.2 107.06 289.89 105.8 291.9 103.53 293.72 100.63 
M 124.26 154.01 134.47 152.75 140.69 152.16 143.61 152.09 149.39 151.31 154.72 150.88 157.94 150.9 169.35 149.74 178.22 149.36 183.39 148.81 186.3 148.07 189.35 147.64 192.3 147.56 195.41 147.21 198.44 147.33 201.35 147.18 203.6 147.48 209.01 146.76 212.14 146.97 215.42 147.55 218.7 147.9 224.54 147.8 230.6 147.28 233.38 147.44 235.95 147.11 239.14 147.57 244 147.69 246.47 148.14 249.15 148.36 252.78 148.48 256.52 148.23 268.24 148.82 270.77 149.15 272.99 149.65 276.12 150.61 278.86 150.8 284.04 151.65 294.02 152.13 297.87 152.73 300.18 152.91 302.48 153.82 308.92 154.59 314.25 154.26 318.4 154.33 291.54 165.46 281.01 168.97 275.41 170.39 272.31 170.8 267.02 172.53 263.98 172.98 258.44 174.28 255.86 175.13 250.34 176.45 246.99 176.53 244.05 177.01 241.27 177.65 238.74 178.55 235.9 178.98 233.11 179.29 229.94 179.22 227.18 179.56 224.22 179.69 218.94 180.6 213.36 181.22 210.34 181.28 204.51 180.82 202.04 181.03 193.35 180.39 190.77 180.5 181.11 178.83 178.53 178.78 176.16 178.93 173.14 178.45 170.36 178.19 166.9 177.27 157.25 176.36 130.83 170.33 126.68 168.02 123.46 166.45 121.95 165.34 
M 124.11 155.67 131.6 155.15 143.81 154.61 152.2 154.37 155.09 154.51 164.01 154.39 166.76 154.1 175.5 154.34 178.35 154.09 186.92 153.82 189.99 153.47 193.06 153.47 195.4 154.05 198.24 154.37 204.06 154.61 210.14 154.33 215.26 155.16 219.1 156.15 222.02 156.65 224.81 156.34 230.83 156.08 236.42 157.09 239.07 157.1 241.98 157.6 244.87 158.39 250.75 159.38 
M 128.71 157.36 144.41 157.45 149.61 157.81 152.5 158.18 155.49 158.12 158.51 157.75 167.3 158.03 172.58 159.09 175.27 159.05 178.55 158.63 185.03 158.51 190.22 159.3 194.91 160.41 197.74 160.81 200.56 160.82 203.53 161.76 209.79 162.46 212.92 162.99 215.78 163.82 
M 125.89 159.19 128.7 159.52 134.66 159.82 147.08 160.77 149.89 161.33 158.91 162.03 161.67 161.54 164.4 161.55 169.69 163.31 172.69 164.04 178.8 164.23 182.17 164.04 185.11 164.43 187.48 165.19 189.96 166.33 195.73 168.13 207.47 170.22 210.49 171.16 215.87 173.36 220.96 173.86 227.01 175.49 230.61 175.81 233.54 176.73 
M 128.76 161.61 141.18 162.98 147.32 163.86 156.12 165.79 161.51 166.47 164.27 166.63 167.38 167.68 170.23 168.38 172.97 168.66 178.29 170.15 181.21 170.8 
M 123.28 162.46 135.23 165.01 141.16 165.92 150.01 168.14 153.07 169.48 158.83 171.33 161.87 172.1 
M 128.9 166.14 132 167.12 138.42 168.75 141.45 169.79 146.52 172.08 149.45 172.94 
M 203.44 201.55 207.58 206.92 209.65 210.63 213.18 214.64 219.53 225.36 219.59 228.23 219.06 230.51 219.11 233.43 218.67 235.86 217.29 238.36 214.85 239.96 211.86 240.51 208.81 240.37 203.8 239.42 200.6 238.19 197.94 237.69 194.82 237.3 192.73 237.94 189.38 237.31 187.09 237.43 184.21 236.92 181.22 235.87 177.44 229.42 171.21 227.31 168.76 227.12 166.24 226.63 163.82 226.1 162.09 225.41 152.33 210.56 150.13 205.16 147.22 202.01 143.71 197.02 
M 198.68 201.24 202.66 204.9 205.25 208.03 210.94 216.66 
M 193.92 200.94 197.16 204.31 200.24 207.09 204.95 212.22 206.77 214.31 208.08 216.96 210.25 219.85 212.62 222.39 215.99 225.6 
M 189.15 200.65 192.27 203.7 194.66 206.48 197.3 208.77 199.13 212.03 201.31 214.11 204.37 216.23 205.66 218.61 
M 184.39 200.37 187.01 203.56 189.55 206.03 191.66 209.13 194.05 211.42 197.67 216.66 199.8 218.78 201.93 221.22 203.46 223.44 205.84 225.68 207.58 229.25 209.41 231.4 
M 179.63 200.09 184.15 205.81 186.4 208.12 193.59 216.15 194.95 219.36 196.66 221.8 200.57 226.4 
M 174.87 199.78 177.5 202.62 179.21 205.3 180.95 207.56 182.8 210.33 185.49 213.4 187.68 216.51 191.98 225.24 
M 170.11 199.46 175.26 205.2 177.28 207.88 178.88 210.66 180.02 213.19 184.11 218.65 185.71 221.78 188.89 226.98 190.8 228.81 194.29 231.62 196.29 232.66 
M 165.36 199.1 170.56 205.73 172.35 208.7 176.57 213.49 177.68 216.51 179.79 218.85 181.6 221.89 182.56 224.18 182.99 228.05 184.57 231.62 186.22 234 
M 160.6 198.69 162.83 203.19 168.57 211.89 170.83 214.47 173.42 216.31 175.32 218.95 177.37 220.83 179.39 223.43 180.87 225.97 181.65 229.21 
M 155.85 198.28 158.15 202.26 159.65 206 161.75 209.12 163.8 214.42 166.06 217.56 168.99 219.85 171.16 222.23 
M 151.11 197.79 153.44 201.69 154.46 204.62 157.04 207.68 159.23 211.06 160.87 217.85 
M 146.36 197.29 150.62 204.05 152.13 207.37 156.11 213.1 157.79 216.41 
M 370.66 190.26 373.57 195.87 376.22 199.21 378.49 201.23 380.52 204.36 375.62 206.36 373.93 208.36 371.3 209.46 364.31 209.73 360.59 209.47 356.94 213.71 355.55 216.35 353.34 218.15 349.32 222.07 348.21 225.01 346.51 227.3 343.94 228.72 339.57 232.37 337.23 234.08 335.34 236.19 334.33 239.03 333.81 242.11 333.57 245.2 334.19 249.85 328.36 252.34 327.74 249.8 327.99 248.17 327.39 246.47 325.42 243.75 323.5 240.7 320.38 237.49 317.9 234.28 316.59 231.88 314.83 229.61 314.33 227.82 312.79 226.09 310.24 219.79 309.62 217.44 305.1 207.92 303.19 205.2 301.45 202.29 299 198.86 
M 365.96 191.07 369.22 196.21 371.55 199.48 374.06 202.09 
M 361.26 191.87 364.49 197.32 367.15 200.47 
M 356.56 192.67 359.82 197.58 361.83 201 364.25 204.28 366.25 207.78 
M 351.85 193.44 356.57 198.02 360.52 203.76 361.79 206.31 
M 347.15 194.21 351.37 197.92 354.41 201.41 357.14 203.96 
M 342.42 194.89 348.71 201.94 350.31 205.29 
M 337.7 195.56 348.79 207.83 
M 332.97 196.18 338.49 202.57 340.91 205.83 342.21 209.12 343.81 212.01 345.15 215.61 
M 328.23 196.72 331.17 199.94 334.66 205.7 336.86 208.72 338.49 212.01 341.75 217.54 343.65 219.47 
M 323.49 197.26 326.59 200.81 328.65 203.94 330.34 206.97 332.31 209.39 334.09 212.41 335.81 219.06 337.36 222.54 341.51 227.98 
M 318.74 197.62 321.41 201.79 326.01 207.04 327.94 209.89 330.2 212.01 333.19 217.87 333.73 225.03 334.71 228.47 
M 313.98 197.96 315.68 201.82 317.51 205.26 319.96 207.91 322.1 210.52 326.4 214.84 327.8 217.73 329.1 222.71 331.29 229.95 332.95 232.56 
M 309.22 198.27 311.36 202.12 312.64 205.36 316.72 210.37 318.17 213.63 320 216.27 321.62 218.08 323.63 223.57 325.76 226.26 327.95 230.06 330.01 232.86 330.96 235.49 
M 304.46 198.54 306.88 202.04 310.45 208.46 311.75 211.58 317.49 221.9 318.06 224.31 322.38 229.89 325.73 235.78 327.8 238.54 329.41 241.9 331.8 244.55 332.32 247.24 
M 418.44 129.19 420.85 127.92 425.45 123.41 428.12 121.42 429.94 118.91 431.4 116.2 434.02 114.11 436.11 112.02 439.18 108.25 441.08 106.63 442.7 105.54 445.08 104.71 448.03 103.38 450.27 101.24 452.43 99.61 455.16 98.06 460.86 95.09 463.19 94.4 467.28 93.65 470.07 91.95 473.78 90.29 478.27 89.64 483.59 89.4 486.04 90.28 487.91 90.61 489.87 96.77 490 99.13 489.06 101.55 487.99 107.19 487.85 110.24 488.08 113.75 487.35 116.29 487.39 119.76 486.53 122.67 484.56 124.46 482.97 126.81 480.92 128.74 479.07 130.87 478.53 134.36 476.76 136.63 471.92 139.89 469.16 141.17 466.67 142.72 462.78 146.83 460.62 148.73 459.44 151.32 454.22 153.69 447.64 154.85 445.07 155.98 443.51 157.92 440.94 158.85 445.36 161.74 447.71 162.51 452.81 163.18 460.04 170.24 463.76 173.18 467.31 174.99 470.5 177.51 473.95 181.85 479.69 186.19 483.25 190.92 485.81 196.61 486.9 199.53 487.33 201.69 489.41 207.84 488.96 210.18 488.84 212.85 488.99 215.86 488.25 218.04 487.77 220.51 487.59 223.2 486.5 229.99 484.79 228.7 482.66 228.2 481.13 228.08 474.52 225.66 470.8 225.13 466.76 223.55 463.81 223.04 461.44 223.42 458.96 221.5 451.59 216.69 449.29 214.9 446.41 212.26 443.87 210.92 439.15 207.61 436.78 205.62 434.53 203.29 432.69 200.65 431.33 197.76 429.57 194.93 424.84 190.04 422.77 187.29 418.44 180.48 
M 423.48 127.82 425.72 125.8 428.29 124 430.65 121.72 432.56 119.38 436.97 115.05 439.38 113.33 441.37 111.56 442.76 109.68 444.71 107.74 447.15 106.95 450.54 106.51 452.61 104.85 455.51 103.77 457.8 102.19 462.11 100.49 467.43 98.99 469.34 98.16 472.52 97.75 476.4 96.73 479.8 95.33 
M 423.63 130.24 426.23 128.12 428.94 126.68 431.21 124.81 434.37 123.45 435.89 121.24 438.21 119.56 442.15 115.18 443.74 113.11 446.43 111.41 448.57 110.57 452.19 109.62 457.74 106.87 460.14 106.49 464.02 104.69 
M 421.46 134.2 426.11 130.62 428.9 129.21 431.48 127.51 434.82 126.34 439.96 123.4 442.6 121.14 444.51 118.96 445.9 117.08 448.18 115.12 453.15 113.19 464.99 110.47 468.8 108.96 471.5 108.4 473.52 107.75 476.17 108.12 478.93 107.22 481.72 106.57 485.22 105.2 
M 426.58 132.9 431.84 129.64 434.36 128.6 438.01 127.6 441.1 126.45 446.03 122.66 450.68 120.3 453.62 118.48 456.27 117.83 458.48 116.37 461.51 116.83 464.72 116.34 467.1 115.25 469.52 114.83 473.32 114.6 478.25 113.52 
M 418.44 139.01 421.77 138.43 424.66 136.92 426.79 135.36 432.09 131.92 434.2 130.93 437.39 130.11 441.02 128.89 446.61 126.23 448.91 125.45 452.67 124.52 456.06 124.08 458.15 123.55 463.41 121.81 
M 424.85 138.86 429.77 136 437.32 132.03 443.66 130.44 447.3 129.75 449.79 128.96 453.4 129.24 456.77 129.19 459.46 128.46 462.35 128.22 465.49 126.48 467.87 125.67 
M 427.71 139.74 432.5 137.75 437.71 135.05 441.3 134.26 445.97 133.88 448.44 133.35 451.29 133.53 
M 422.45 144.35 424.91 143.63 428.12 143.18 432.77 141.28 435.67 140.5 438.24 138.88 441.8 138.91 
M 427.89 146.08 431.05 145.48 433.53 144.71 436.31 144.44 442.91 143.09 451.81 142.18 454.73 142.11 
M 418.44 148.84 422.53 148.67 425.12 148.94 428.23 148.38 431.46 148.17 437.18 148.21 441.7 148.04 447.33 147.02 452.7 148.07 
M 418.44 150.8 422.31 151.09 428.83 150.83 431.94 150.37 435.52 151.34 442.21 152.28 449.3 151.84 452.52 152.65 
M 426.47 153.56 430.33 154.36 433.66 154.34 
M 418.44 154.73 423.05 156.24 432.2 157.9 
M 422.6 158.13 430.76 160.79 434.44 160.94 437.43 160.73 441.06 161.17 
M 429.36 162.84 432.8 163.46 439.11 164.05 441.5 165.15 445.16 165.17 447.95 165.43 451.57 164.08 
M 428.74 164.62 431.59 165.66 434.89 165.97 440.87 168.31 444.22 168.58 446.99 167.62 451.04 169.09 453.8 168.07 456.94 168.23 
M 422.5 164.43 425.52 165.89 434.66 168.72 439.94 171.64 446.95 172.07 449.19 172.34 
M 428.14 169.32 430.54 171.08 434.07 172.12 437.24 173.43 439.06 175.46 445.97 175.95 447.73 176.67 
M 424.95 170.13 430 174.16 433.58 175.26 436.54 177.1 438.84 178.81 442.06 179.71 444.83 179.94 447.29 181.07 449.84 181.46 452.87 183.46 460.29 186.26 465.98 185.13 468.3 186.71 470.85 187.69 474.93 187.38 
M 424.68 172.54 429.73 176.56 432.94 178.47 435.69 180.43 440.59 183.42 443.58 184.13 446.24 185.19 449.13 185.77 452.14 187.68 454.53 188.73 
M 418.44 170.45 424.7 174.75 429.51 179.25 438.96 186.02 442.12 187.82 449.68 190.36 452.2 191.39 455.74 193.46 
M 418.44 172.41 422.1 175.03 424.54 177.08 426.42 179.43 431.95 183.89 434.06 185.72 435.69 187.42 448.41 193.72 450.9 195.25 453.29 197.1 455.75 197.7 
M 426.23 182.35 430.99 187.08 433.2 188.5 437.75 192.16 440.34 193.99 443.93 195.98 446.61 198.04 454.84 202.04 
M 425.9 185.04 428.46 187.76 434.6 193.78 436.76 196.29 445.27 201.01 447.06 202.58 450.42 204 452.77 205.62 456.39 207.13 459.35 209.18 461.1 211.46 463.24 211.88 465.92 212.83 
M 423.3 184.64 425.4 187.57 427.67 190.22 429.92 192.36 433.77 197.58 436.16 199.93 438.45 201.9 443.54 204.7 446.23 206.93 450.94 210.02 454.48 212.59 457.35 215.21 
M 44.14 144.95 44.81 143.75 46.6 141.3 49.12 138.64 52.43 135.95 56.44 133.2 60.98 130.54 66.08 128.54 76.42 124.95 87.48 122.07 98.39 119.83 109.05 117.94 113.71 117.32 117.45 117.03 119.73 117.03 122.13 121.44 121.95 125.42 121.99 129.44 122.59 137.55 124.52 149.89 123.6 161.77 118.41 172.96 114 180.27 110.33 187.69 107.8 191.23 98.54 190.64 91.54 189.76 85.48 188.44 80.19 186.5 75.3 184.32 70.54 181.75 65.98 178.78 62.05 175.57 58.75 171.98 53.05 164.96 
M 105.39 141.69 105.71 145.18 104.99 148.35 102.95 153.93 99.17 158.2 97.8 160.13 96.65 162.15 95.71 164.33 95.34 169.77 94.75 172.95 83.82 173.4 79.47 173.28 75.4 172.53 71.4 171.39 67.39 169.62 63.53 167.18 
M 51.68 163.83 48.42 159.41 41.25 149.02 40.84 146.6 42.29 144.83 44.67 144.99 46.2 146.85 48.26 151.48 53.54 164.68 
M 50.64 165.01 40.91 163.12 31.53 161.64 30 160.13 30.24 157.65 32.14 156.11 34.44 156.34 38.85 158.18 45.44 161.25 51.65 163.82 
M 52.19 164.03 53.26 164.46 
M 77.45 153.88 75.08 150.56 73.92 146.65 74.08 142.58 75.57 138.78 78.2 135.67 81.7 133.58 85.7 132.74 89.74 133.25 93.41 135.04 96.29 137.92 98.08 141.59 98.58 145.63 97.75 149.62 95.66 153.12 92.55 155.76 88.75 157.24 84.68 157.41 80.77 156.25 77.45 153.88 
M 94.27 139.36 95.7 142.29 96.11 145.53 95.44 148.72 93.77 151.52 91.28 153.63 88.24 154.82 84.98 154.95 81.86 154.02 79.2 152.13 
M 81.99 147.91 81.04 146.58 80.58 145.02 80.64 143.39 81.24 141.87 82.29 140.62 83.69 139.79 85.29 139.45 86.91 139.66 88.37 140.37 89.52 141.52 90.24 142.99 90.44 144.61 90.11 146.21 89.27 147.61 88.03 148.66 86.51 149.25 84.88 149.32 83.32 148.86 81.99 147.91 
M 81.78 145.37 85.69 149.29 
M 82.77 143.79 87.75 148.77 
M 83.57 142.01 89.21 147.66 
M 83.96 139.82 90.15 146.01 
M 87.91 141.2 90.32 143.61 
M 61.13 174.58 62.23 175.67 
M 47.39 149.39 48.96 150.95 
M 45.94 142.21 50.16 146.43 
M 48.62 139.17 52.51 143.06 
M 51.71 136.54 56.01 140.83 
M 55.05 134.15 60.17 139.27 
M 58.57 131.95 61.85 135.23 
M 62.35 130 67.82 135.47 
M 66.47 128.4 69.81 131.74 
M 70.69 126.89 74.09 130.29 
M 74.96 125.44 77.85 128.33 
M 79.4 124.16 84.19 128.95 
M 83.94 122.97 89.51 128.54 
M 88.53 121.84 92.66 125.97 
M 93.24 120.83 97.87 125.46 
M 98.04 119.9 103.62 125.48 
M 102.87 119.01 107.28 123.42 
M 107.75 118.16 111.07 121.48 
M 112.76 117.45 116.5 121.19 
M 118.07 117.03 120.86 119.83 
M 73.59 137.37 70.94 139.52 69.32 140.53 67.44 141.33 66.42 141.43 
M 76.05 128.28 77.39 128.85 77.75 129.23 77.95 130.27 77.7 131.45 77.16 132.59 76.77 133.03 73.82 134.06 
M 82.62 161.46 81.01 161.07 80.45 160.7 79.1 158.68 77.99 157.8 76.75 157.33 75.14 157.04 
M 59.46 135.79 57.26 135.41 54.59 134.46 
M 100.63 128.11 100.19 127.74 98.47 127.5 95.55 125.74 
M 95.15 182 96.2 182.04 98.31 181.59 98.89 181.92 99.51 182.74 
M 103.82 176.29 102.08 174.43 99.42 172.09 99.06 171.32 98 167.3 93.63 162.71 
M 120.53 134 122.52 136.66 
M 66.15 177.46 65.13 176.49 64.11 175.1 62.93 171.99 62.06 170.93 61.5 170.58 
M 57.94 170.98 59.31 170.64 59.66 170.4 59.64 170.23 
M 50.74 137.32 50.77 137.65 
M 80.82 185.75 78.92 185.41 78.19 185.1 75.74 183.59 72.21 181.75 71.33 181.06 70.66 180.01 69.87 179.15 67.96 177.41 
M 81.51 160.05 80.8 159.32 79.58 157.38 75.69 155.56 73.84 154.12 
M 62.62 157.13 61.37 157.41 60.77 157.34 59.83 156.85 59.7 156.33 
M 79.76 171.1 81.04 167.47 80.99 167.21 
M 67.29 136.76 63.39 135.6 62.38 135.15 59.71 133.3 59.08 133.24 56.97 133.64 55.91 133.56 
M 86.61 164.94 85.54 165.01 83.3 165.54 80.41 165.83 79.55 165.77 79.07 165.28 
M 122.65 142.99 123.4 142.21 
M 98.45 173.06 98.51 170.81 97.9 167.64 97.35 166.78 96.51 166.09 93.7 163.01 92.6 162.09 90.44 159.61 
M 106.54 158.51 106.69 158.91 106.65 159.41 106.18 160.51 103.96 161.82 
M 106.33 175.95 102.83 173.33 100.91 171.61 100.31 170.69 99.07 167.67 98.51 166.8 96.21 164.58 94.3 162.45 
M 110.92 135.4 110.19 134.84 109.41 134.8 109.14 135.06 
M 108.24 167.17 108.94 165.73 109.02 165.1 108.62 163.21 108.05 162.29 
M 108.68 130.23 108.1 128.99 108.23 127.88 107.88 125.23 107.82 123.55 
M 80.8 125.49 79.66 125.89 79.56 126.53 
M 62.03 175.55 61.88 174.55 62.12 173.84 
M 67.66 131.56 65.85 130.96 63.47 130.6 62.95 129.77 
M 72.31 158.67 72.68 158.19 72.68 157.91 71.92 156.67 70.37 155.37 68.91 155 
M 48.08 139.74 50.18 140.23 50.51 140.7 50.6 141.37 
M 70.38 156.1 69.48 155.54 68.38 155.42 
M 58.82 146.08 53.7 143.53 51.76 143.13 49.15 142.95 48.45 142.64 
M 91.9 134.16 92.66 132.15 92.39 131.36 91.82 131.08 91.39 131.13 89.34 131.88 
M 61.98 162.38 60.37 161.46 59.28 160.09 57.79 159.08 57.41 158.64 
M 98.51 141.41 98.65 143.19 
M 112.38 117.5 114.6 118.5 116.05 118.82 
M 76.47 153.99 75.77 153.54 72.89 152.31 69.55 151.37 68.87 151.35 
M 72.77 140.01 71.97 141.69 71.38 142.14 69.87 142.69 67.04 143 65.54 143.7 64.34 143.95 
M 113.49 159.13 112.91 160.08 112.57 161.25 112.86 162.33 113.3 163 115.09 164.5 116.13 164.93 117.43 164.96 118.2 164.61 
M 121.93 144.51 121.79 143.72 121.86 143 122.15 142.46 123.34 141.87 
M 121.13 167.15 119.09 166.36 118.46 165.85 118.38 165.42 118.89 164.01 
M 57.76 132.42 56.82 132.97 
M 103.47 146.35 102.44 145.73 101.68 144.97 101.18 144.2 100.5 142.56 100.2 142.37 99.52 142.4 
M 110.63 149.34 109.25 149.46 108.5 149.82 108.05 150.25 107.61 151.13 107.38 152.21 107.59 153.04 107.84 153.39 
M 110.66 120.73 110.65 119.24 111.29 119.36 
M 115.7 131.21 112.9 129.16 112.16 128.15 111.81 125.1 111.79 122.5 
M 95.91 137.54 97.7 134.81 98.64 134.21 99.76 134.14 
M 115.43 153.15 114.44 153.39 112.62 154.47 110.11 155.01 
M 116.72 120.94 116.92 120.96 117.01 121.16 
M 88.88 171.77 87.04 170.52 85.26 168.79 84.25 168.17 81.89 167.19 80.97 167.14 
M 95.04 136.67 97.11 133.42 
M 100.64 119.42 100.4 119.86 99.62 120.12 
M 108.13 144.07 106.55 143.78 104.61 143.02 102.42 142.66 101.08 142.18 99.94 142.26 
M 101.52 146.97 100.67 146.29 100.49 145.95 100.54 143.29 100.24 142.55 99.89 142.39 
M 106.18 142.71 104.69 142.46 102.78 142.53 100.72 142.1 99.76 142.32 
M 61.26 174.71 61.99 173.75 62.34 172.58 62.16 171.42 61.6 170.69 
M 72.78 144.43 71.62 144.88 67 145.13 64.65 145.7 63.82 145.7 59.32 144.06 58.13 143.46 
M 101.37 159.31 101.21 159.78 100.63 159.83 100.02 159.3 99.88 158.99 99.99 158.83 
M 96.21 136.39 97.28 134.64 97.82 134.09 99.33 133.42 100.91 133.18 101.63 133.47 103.21 135.13 105.62 139.33 
M 48.76 139.02 49.96 139.65 50.38 140.04 50.73 140.82 50.64 141.54 
M 80.31 155.92 78.88 155.73 77.35 155.28 75.29 153.82 73.17 152.7 70.97 151.9 
M 99.24 150.56 98.54 149.92 97.71 149.68 
M 50.52 137.5 51.12 139.74 
M 66.67 159.86 67.85 160.27 69.01 160.28 71.61 159.59 72.89 158.77 73.06 158.41 
M 73.8 148.51 70.78 149.53 67.59 149.96 65.55 151.38 
M 115.94 141.74 115.14 141.17 112.7 140.43 110.57 139.55 109.47 138.3 109.06 136.92 
M 119.55 146.4 118.3 144.08 116.07 141.49 115.28 140.95 114.19 140.51 112.9 140.2 110.75 139.37 109.81 138.52 109.45 137.82 
M 113.56 149.58 110.6 148.44 109.84 148.25 107.8 148.1 103.25 145.55 
M 97.25 155.05 96.46 156.39 
M 103.22 141.19 103.04 141.68 102.69 141.9 100.4 142.08 99.52 142.38 
M 114.19 118.92 115.97 118.85 116.07 118.98 
M 72.37 172.34 72.56 171.6 73.72 170.18 77.64 167.07 78.87 165.87 79.08 165.49 78.84 164.71 
M 85.86 129.53 85.47 130.04 85.56 130.75 86.24 131.59 87.87 133.01 
M 110.64 165.62 111.76 165.49 113.54 165.75 115.32 166.8 116.7 167.09 117.76 166.85 118.05 166.01 
M 73.66 141.93 72.25 143.24 70.4 143.78 66.95 143.9 65.03 144.38 64.3 144.41 61.87 143.91 
M 114.58 177.92 114.99 178.7 
M 99.41 167.51 94.69 162.48 91.88 160.26 90.22 158.35 88.59 157.25 
M 47.2 140.67 48.93 140.82 50.05 140.43 
M 96.43 125.37 95.39 124.79 93.05 122.93 89.92 121.54 
M 114.56 166.32 115.4 166.84 116.12 167.07 117.56 166.98 117.91 166.65 118.15 165.6 118.44 165.04 
M 67.91 147.5 66.23 147.96 64.31 148.11 60.4 147.94 58.99 147.31 54.41 144.42 
M 115.43 166.94 116.77 167.16 117.74 166.93 118.49 164.96 
M 93.65 125.21 92.51 124.59 91.05 124.33 89.16 124.49 86.28 125.35 85.66 125.34 84.42 124.89 
M 71.32 182.17 69.9 180.4 66.49 177.72 64.7 175.91 63.97 174.76 63.38 173 
M 98.28 178.64 99.07 177.43 99.4 176.27 99.32 175.65 98.62 173.95 98.59 171.56 98.15 168.56 
M 102.29 153.06 104.03 154.05 106.52 154.79 107.32 155.3 108.82 156.64 108.98 157.1 108.91 158.04 
M 116.44 120.79 116.8 120.68 116.99 120.93 
M 99.2 177.22 99.4 176.06 98.6 173.79 98.57 171.27 98.32 169.26 97.71 167.18 96.98 166.44 
M 109.08 136.35 109.38 135.92 
M 59.6 131.94 60.42 130.87 
M 75.64 133.59 73.74 134.16 71.07 135.55 69.01 135.92 66.65 135.42 64.42 134.66 62.59 133.69 
M 53.83 165.68 52.88 166.51 52.26 167.42 51.88 168.5 51.71 169.7 51.77 170.95 52.45 173.45 54.37 177.28 54.85 178.73 55.1 180.24 54.94 184.6 55 187.43 55.6 190.2 56.82 192.77 55.47 190.25 54.58 187.49 54.22 184.61 53.96 180.39 53.62 179.1 53.07 177.88 50.77 174.25 50.12 172.83 49.66 171.32 49.42 169.73 49.48 168.07 49.9 166.4 50.73 164.85 51.8 163.65 
M 52.99 164.99 53.28 165.5 
M 48.27 159.2 47.49 159.96 47.01 161.14 47.77 160.47 48.97 160.18 
M 44.57 153.82 42.3 155.51 41.21 157.61 42.58 156.02 45.32 154.97 
M 41.13 148.33 37.12 151.06 35.4 154.09 37.39 151.57 41.7 149.69 
M 53.16 164.77 53.73 164.93 
M 47.47 162.06 47.96 161.4 48.81 160.87 48.51 161.55 48.59 162.54 
M 42.52 159.92 43.38 158.21 44.8 157.08 43.93 158.36 43.72 160.49 
M 37.67 157.66 38.8 155.02 40.8 153.28 39.35 155.17 38.87 158.19 
M 32.52 156.15 34.22 151.82 36.79 149.49 34.77 151.98 33.95 156.29 
M 36.84 162.44 41.21 165.77 44.28 167.76 49.54 170.51 
M 51.9 171.59 62.05 175.57 
M 40.85 163.54 39.34 164.39 
M 37.9 162.89 37.6 163.06 
M 122.01 124.03 126.34 128.37 
M 122.25 116.64 129.13 123.52 
M 128.74 115.5 137.71 124.47 
M 135.27 114.4 143.88 123.01 
M 141.83 113.33 148.85 120.35 
M 148.56 112.43 159.63 123.49 
M 155.36 111.6 165.17 121.4 
M 162.19 110.79 169.56 118.16 
M 168.98 109.95 178.18 119.15 
M 175.6 108.94 186.67 120.01 
M 182.25 107.95 189.7 115.41 
M 188.92 107 195.09 113.16 
M 195.74 106.19 206.17 116.61 
M 202.66 105.47 211.48 114.29 
M 209.51 104.68 216.3 111.47 
M 216.37 103.92 226.03 113.58 
M 223.35 103.27 229.38 109.29 
M 230.59 102.87 239.09 111.37 
M 238.14 102.79 247.51 112.16 
M 246.05 103.06 257.44 114.46 
M 254.19 103.57 264.74 114.12 
M 262.65 104.41 271.25 113.01 
M 271.46 105.58 279.2 113.32 
M 280.29 106.78 287.63 114.12 
M 289.14 108 296.03 114.89 
M 298.1 109.33 304.73 115.95 
M 307.02 110.62 318.24 121.84 
M 315.91 111.87 326.2 122.16 
M 324.83 113.16 331 119.33 
M 333.98 114.67 341.99 122.69 
M 343.12 116.19 351.81 124.87 
M 352.23 117.66 361.62 127.06 
M 361.34 119.14 372.13 129.93 
M 370.51 120.68 379.12 129.29 
M 379.76 122.3 386.61 129.14 
M 389.03 123.94 397.39 132.3 
M 398.34 125.61 408.26 135.54 
M 407.66 127.3 413.14 132.78 
M 416.91 128.92 417.77 129.78 
M 121.03 191.65 122.1 193.77 
M 124.1 191.11 125.74 194.37 
M 135.57 187.33 136.42 189.04 
M 124.41 151.66 125.52 153.87 
M 126.92 150 128.67 153.49 
M 139.72 175.6 141.43 179.01 
M 122.34 134.16 125.75 140.98 
M 131.73 152.93 131.8 153.08 
M 141.66 172.8 144.52 178.53 
M 121.96 126.72 128.85 140.5 
M 134.82 152.44 134.96 152.72 
M 145.43 173.66 145.91 174.63 
M 151.03 184.87 151.89 186.57 
M 121.7 119.52 132.79 141.71 
M 137.91 151.94 138.18 152.47 
M 153.27 182.66 154.12 184.37 
M 124.77 118.98 134.16 137.75 
M 140.98 151.41 141.35 152.14 
M 127.84 118.45 135.52 133.8 
M 144.05 150.87 144.59 151.94 
M 157.7 178.17 158.56 179.88 
M 129.63 115.35 136.88 129.85 
M 147.12 150.33 147.71 151.5 
M 132.71 114.82 139.96 129.33 
M 163.75 176.92 164.7 178.82 
M 135.79 114.32 143.04 128.82 
M 167.33 177.38 167.79 178.31 
M 138.88 113.81 147.84 131.73 
M 149.54 135.14 151.25 138.55 
M 156.37 148.79 157.42 150.9 
M 141.96 113.3 147.51 124.4 
M 178.23 185.83 179.93 189.25 
M 145.08 112.85 150.62 123.94 
M 162.57 147.84 163.82 150.33 
M 179.63 181.97 182.19 187.09 
M 148.65 113.32 152.06 120.15 
M 163.16 142.33 166.95 149.92 
M 181.43 178.88 183.63 183.29 
M 151.37 112.08 156.06 121.47 
M 166.3 141.95 169.72 148.77 
M 154.52 111.7 159.21 121.09 
M 168.6 139.86 173.45 149.57 
M 157.67 111.32 164.07 124.12 
M 166.63 129.24 174.31 144.6 
M 176.01 148.02 176.7 149.39 
M 201.61 199.21 202.76 201.51 
M 160.82 110.95 174.9 139.11 
M 175.76 140.82 176.61 142.53 
M 179.17 147.65 179.94 149.18 
M 203.91 197.14 206.21 201.73 
M 163.3 109.24 177.38 137.4 
M 209.09 200.82 209.66 201.95 
M 164.85 105.66 177.22 130.4 
M 207.94 191.84 210.5 196.96 
M 211.36 198.66 212.87 201.7 
M 167.33 103.93 181.41 132.09 
M 211.27 191.82 212.98 195.23 
M 170.18 102.95 183.4 129.41 
M 172.42 100.76 179.25 114.41 
M 180.95 117.82 184.37 124.65 
M 188.63 133.18 191.19 138.3 
M 172.69 94.61 173.11 95.47 
M 182.5 114.24 186.77 122.77 
M 187.62 124.48 190.18 129.6 
M 191.89 133.01 192.74 134.72 
M 194.45 138.13 196.15 141.54 
M 173.79 90.15 176.78 96.13 
M 190.43 123.43 192.99 128.55 
M 193.85 130.26 198.97 140.5 
M 176.1 88.09 179.09 94.06 
M 183.35 102.59 184.21 104.3 
M 185.91 107.71 186.77 109.42 
M 193.59 123.07 205.65 147.18 
M 226.87 189.63 227.72 191.33 
M 178.34 85.89 181.33 91.87 
M 184.74 98.69 191.57 112.35 
M 194.98 119.17 208.79 146.78 
M 226.55 182.31 229.11 187.43 
M 180.71 83.95 193.93 110.4 
M 196.49 115.52 212.23 146.98 
M 228.92 180.37 230.63 183.78 
M 183.08 82.01 194.6 105.05 
M 195.45 106.75 196.3 108.46 
M 197.16 110.16 215.87 147.6 
M 185.08 79.33 196.6 102.37 
M 200.86 110.9 203.42 116.02 
M 205.13 119.43 213.66 136.5 
M 214.51 138.2 219.37 147.91 
M 187.02 76.55 200.25 103 
M 205.37 113.24 206.22 114.94 
M 209.64 121.77 213.05 128.6 
M 219.02 140.54 222.69 147.88 
M 189.32 74.47 202.55 100.92 
M 203.4 102.62 210.23 116.28 
M 212.79 121.4 214.5 124.81 
M 221.32 138.46 223.88 143.58 
M 247.77 191.37 249.48 194.78 
M 191.96 73.05 201.77 92.68 
M 205.18 99.5 216.27 121.69 
M 222.25 133.63 226.51 142.17 
M 195.27 73 204.23 90.92 
M 207.64 97.75 218.73 119.93 
M 223 128.46 228.97 140.41 
M 197.89 71.56 198.32 72.42 
M 199.17 74.12 209.41 94.6 
M 210.26 96.31 222.21 120.2 
M 223.92 123.61 231.59 138.97 
M 202.11 73.33 213.21 95.52 
M 214.91 98.93 231.98 133.06 
M 255.87 180.85 257.58 184.26 
M 264.4 197.91 265.26 199.62 
M 205.14 72.7 234.15 130.72 
M 258.89 180.21 259.75 181.92 
M 264.87 192.16 269.03 200.48 
M 206.54 68.83 208.67 73.1 
M 210.38 76.51 214.65 85.04 
M 216.35 88.46 224.89 105.52 
M 228.3 112.35 231.71 119.18 
M 233.42 122.59 237.69 131.12 
M 241.95 139.65 243.66 143.07 
M 267.55 190.85 268.4 192.56 
M 208.46 65.98 216.56 82.2 
M 220.83 90.73 232.77 114.62 
M 237.04 123.15 240.45 129.98 
M 243.01 135.1 245.57 140.22 
M 211.01 64.41 219.97 82.33 
M 224.23 90.86 230.2 102.8 
M 231.91 106.22 234.47 111.34 
M 235.32 113.04 236.18 114.75 
M 240.44 123.28 248.98 140.35 
M 214.1 63.93 223.92 83.55 
M 225.62 86.96 233.3 102.32 
M 234.16 104.03 235.86 107.44 
M 240.13 115.98 240.98 117.68 
M 242.69 121.1 251.22 138.16 
M 272.55 180.82 275.11 185.94 
M 217.54 64.12 225.65 80.34 
M 229.06 87.16 236.74 102.52 
M 243.57 116.17 253.81 136.65 
M 275.99 181.02 278.55 186.14 
M 221.24 64.85 226.79 75.94 
M 231.06 84.47 241.3 104.95 
M 244.71 111.78 255.8 133.96 
M 224.89 65.47 226.17 68.03 
M 228.73 73.15 229.59 74.86 
M 232.15 79.98 244.09 103.87 
M 247.51 110.7 258.6 132.88 
M 227.42 63.85 228.7 66.41 
M 231.26 71.53 239.8 88.6 
M 241.5 92.01 245.77 100.54 
M 250.89 110.78 261.13 131.26 
M 229.86 62.04 230.28 62.9 
M 233.7 69.72 249.06 100.44 
M 258.44 119.21 263.56 129.45 
M 271.24 144.81 273.78 149.89 
M 287.45 177.23 288.31 178.94 
M 232.69 61.03 233.12 61.88 
M 234.82 65.3 249.33 94.31 
M 259.57 114.79 261.28 118.2 
M 262.13 119.91 264.69 125.03 
M 273.22 142.09 277.53 150.71 
M 237.07 63.12 252.43 93.83 
M 260.11 109.19 269.5 127.97 
M 276.32 141.62 280.59 150.15 
M 241.8 65.9 254.6 91.5 
M 259.72 101.74 274.23 130.75 
M 278.5 139.28 283.61 149.52 
M 292.15 166.59 293.85 170 
M 245.57 66.75 255.38 86.38 
M 260.5 96.62 277.57 130.75 
M 282.69 140.99 286.95 149.52 
M 294.34 164.3 296.34 168.29 
M 298.9 173.41 299.75 175.12 
M 249.41 67.76 255.81 80.56 
M 262.64 94.21 281.41 131.76 
M 287.38 143.7 290.8 150.53 
M 297.11 163.15 298.48 165.89 
M 301.04 171.01 301.89 172.72 
M 302.74 174.42 304.45 177.84 
M 253.84 69.95 255.98 74.21 
M 256.83 75.92 260.24 82.75 
M 263.66 89.57 272.19 106.64 
M 273.9 110.05 284.99 132.24 
M 290.11 142.48 294.37 151.01 
M 305.47 173.19 307.17 176.61 
M 258.36 72.3 259.64 74.86 
M 260.49 76.57 263.05 81.69 
M 263.91 83.4 275 105.58 
M 276.71 109 287.8 131.18 
M 292.92 141.42 297.19 149.95 
M 306.57 168.72 307.42 170.43 
M 261.81 72.52 277.59 104.09 
M 278.45 105.8 279.3 107.5 
M 280.15 109.21 287.83 124.57 
M 295.51 139.93 300.63 150.17 
M 301.49 151.87 302.45 153.81 
M 309.16 167.23 310.87 170.65 
M 265.44 73.1 289.76 121.74 
M 299.14 140.51 305.99 154.2 
M 308.53 159.28 309.38 160.99 
M 311.94 166.11 313.65 169.52 
M 271.88 79.31 292.79 121.12 
M 305.59 146.72 307.29 150.13 
M 310.94 157.42 317.53 170.61 
M 277.16 83.19 295.5 119.88 
M 306.6 142.06 309.16 147.18 
M 311.72 152.3 312.74 154.35 
M 313.7 156.28 320.25 169.37 
M 282.75 87.69 293.11 108.4 
M 293.21 108.6 300.46 123.11 
M 301.31 124.82 303.87 129.94 
M 308.14 138.47 311.55 145.29 
M 314.96 152.12 316.05 154.29 
M 316.47 155.13 322.64 167.48 
M 290.46 96.43 293.4 102.31 
M 296.81 109.14 302.36 120.23 
M 311.74 139 312.6 140.71 
M 314.3 144.12 315.16 145.83 
M 320.28 156.07 322.84 161.19 
M 323.69 162.89 325.4 166.31 
M 330.52 176.55 332.22 179.96 
M 300.42 109.67 303.4 115.64 
M 305.96 120.76 306.81 122.47 
M 312.79 134.41 313.64 136.12 
M 314.49 137.82 316.2 141.24 
M 321.32 151.48 322.17 153.18 
M 325.59 160.01 328.15 165.13 
M 331.56 171.96 334.97 178.78 
M 304.01 110.18 306.15 114.45 
M 308.71 119.57 309.56 121.28 
M 315.53 133.22 319.8 141.75 
M 326.62 155.41 328.33 158.82 
M 329.18 160.53 336.01 174.18 
M 307.61 110.7 308.89 113.26 
M 318.28 132.03 322.54 140.57 
M 326.81 149.1 332.78 161.04 
M 335.34 166.16 336.19 167.87 
M 311.21 111.22 311.63 112.07 
M 320.17 129.13 326.14 141.08 
M 327.85 144.49 335.53 159.85 
M 314.8 111.71 316.08 114.27 
M 318.63 119.39 338.26 158.64 
M 353.62 189.36 355.37 192.86 
M 318.38 112.21 329.05 133.55 
M 331.61 138.66 340.14 155.73 
M 356.35 188.15 358.45 192.35 
M 321.97 112.71 330.08 128.92 
M 334.34 137.46 335.2 139.16 
M 341.17 151.11 343.73 156.23 
M 359.94 188.65 361.53 191.83 
M 325.6 113.29 330.29 122.67 
M 331.15 124.38 332.85 127.79 
M 344.8 151.69 348.21 158.51 
M 360.16 182.4 362.72 187.52 
M 363.57 189.23 364.6 191.3 
M 329.24 113.89 333.93 123.28 
M 349.29 153.99 350.14 155.7 
M 362.94 181.3 366.36 188.13 
M 332.88 114.49 336.72 122.17 
M 352.08 152.89 352.93 154.6 
M 336.52 115.1 338.65 119.36 
M 340.36 122.78 343.77 129.6 
M 340.16 115.7 342.29 119.96 
M 344 123.38 349.12 133.62 
M 343.8 116.3 351.91 132.51 
M 354.47 137.63 355.32 139.34 
M 361.29 151.29 362.15 152.99 
M 347.44 116.9 359.81 141.64 
M 370.05 162.12 373.46 168.95 
M 379.44 180.9 382 186.02 
M 351.07 117.48 363.44 142.22 
M 373.68 162.7 374.53 164.41 
M 378.8 172.94 381.36 178.06 
M 383.06 181.47 384.77 184.89 
M 354.7 118.06 366.21 141.1 
M 380.72 170.11 383.28 175.23 
M 358.32 118.64 371.55 145.09 
M 361.97 119.25 374.34 143.99 
M 376.9 149.11 377.75 150.82 
M 365.61 119.86 366.04 120.71 
M 367.75 124.13 368.6 125.83 
M 370.31 129.25 381.4 151.43 
M 387.37 163.38 389.08 166.79 
M 373.1 128.15 377.36 136.69 
M 379.92 141.8 383.34 148.63 
M 385.9 153.75 386.75 155.46 
M 389.31 160.58 392.72 167.4 
M 399.55 181.06 401.2 184.36 
M 374.19 123.66 378.46 132.2 
M 392.96 161.21 396.38 168.03 
M 376.57 121.74 382.12 132.84 
M 385.53 139.66 387.24 143.07 
M 393.21 155.02 396.62 161.85 
M 380.23 122.38 384.07 130.06 
M 388.34 138.59 390.9 143.71 
M 395.16 152.25 399.43 160.78 
M 405.4 172.73 406.26 174.43 
M 383.89 123.03 385.17 125.59 
M 394.56 144.36 402.24 159.72 
M 408.21 171.66 409.92 175.08 
M 392.25 133.06 393.1 134.77 
M 397.37 143.3 404.2 156.96 
M 411.02 170.61 411.87 172.31 
M 393.35 128.6 395.91 133.72 
M 400.18 142.25 403.59 149.07 
M 394.89 124.98 397.87 130.96 
M 403.85 142.9 405.55 146.31 
M 398.56 125.65 401.55 131.63 
M 402.23 126.32 404.37 130.59 
M 405.91 126.99 406.33 127.84 
M 417.85 144.19 418.44 145.39 
M 223.28 292.89 223.16 292.3 222.74 291.7 222.23 291.39 221.03 291.39 220.34 291.7 219.56 292.3 219.08 292.89 218.51 293.8 218.06 295.3 218.21 296.8 218.63 297.39 219.13 297.7 220.34 297.7 221.03 297.39 221.81 296.8 222.29 296.2 
M 228.5 293.5 227.24 297.7 
M 228.23 294.39 227.81 293.8 227.3 293.5 226.4 293.5 225.71 293.8 224.93 294.39 224.36 295.3 224.18 295.89 224.21 296.8 224.63 297.39 225.14 297.7 226.04 297.7 226.73 297.39 227.51 296.8 
M 230.9 293.5 229.64 297.7 
M 230.54 294.7 231.71 293.8 232.4 293.5 233.3 293.5 233.81 293.8 233.84 294.7 232.94 297.7 
M 235.76 295.3 239.36 295.3 239.54 294.7 239.42 294.1 238.7 293.5 237.8 293.5 237.11 293.8 236.33 294.39 235.76 295.3 235.58 295.89 235.61 296.8 236.03 297.39 236.54 297.7 237.44 297.7 238.13 297.39 238.91 296.8 
M 245.03 294.39 244.61 293.8 244.1 293.5 243.2 293.5 242.51 293.8 241.73 294.39 241.16 295.3 240.98 295.89 241.01 296.8 241.43 297.39 241.94 297.7 242.84 297.7 243.53 297.39 244.31 296.8 
M 247.4 293.5 246.14 297.7 
M 246.86 295.3 247.43 294.39 248.21 293.8 248.9 293.5 249.8 293.5 
M 254.6 293.5 253.34 297.7 
M 254.33 294.39 253.91 293.8 253.4 293.5 252.5 293.5 251.81 293.8 251.03 294.39 250.46 295.3 250.28 295.89 250.31 296.8 250.73 297.39 251.24 297.7 252.14 297.7 252.83 297.39 253.61 296.8 
M 260.63 291.39 258.74 297.7 
M 261.56 295.3 265.15 295.3 265.34 294.7 265.22 294.1 264.5 293.5 263.6 293.5 262.9 293.8 262.13 294.39 261.56 295.3 261.38 295.89 261.4 296.8 261.83 297.39 262.34 297.7 263.24 297.7 263.93 297.39 264.71 296.8 
M 267.8 293.5 266.89 296.5 266.93 297.39 267.44 297.7 268.33 297.7 269.02 297.39 270.2 296.5 
M 271.1 293.5 269.83 297.7 
M 276.23 294.39 276.11 293.8 275.3 293.5 274.39 293.5 273.4 293.8 272.93 294.39 273.05 295 273.56 295.3 274.97 295.6 275.48 295.89 275.51 296.8 275.02 297.39 274.04 297.7 273.14 297.7 272.33 297.39 272.2 296.8 
M 281.89 293.5 280.64 297.7 
M 281.63 294.39 281.2 293.8 280.7 293.5 279.8 293.5 279.11 293.8 278.33 294.39 277.76 295.3 277.58 295.89 277.61 296.8 278.02 297.39 278.54 297.7 279.44 297.7 280.13 297.39 280.9 296.8 
M 287.02 294.39 286.9 293.8 286.1 293.5 285.2 293.5 284.2 293.8 283.73 294.39 283.85 295 284.36 295.3 285.77 295.6 286.27 295.89 286.31 296.8 285.83 297.39 284.83 297.7 283.94 297.7 283.13 297.39 283.01 296.8 
M 289.73 291.39 289.94 291.7 290.33 291.39 290.12 291.1 289.73 291.39 
M 289.39 293.5 288.14 297.7 
M 291.8 293.5 290.54 297.7 
M 291.26 295.3 291.83 294.39 292.61 293.8 293.3 293.5 294.2 293.5 
M 299 293.5 297.74 297.7 
M 298.73 294.39 298.31 293.8 297.8 293.5 296.89 293.5 296.2 293.8 295.43 294.39 294.86 295.3 294.68 295.89 294.7 296.8 295.13 297.39 295.64 297.7 296.54 297.7 297.23 297.39 298.01 296.8 
M 300.62 297.1 300.23 297.39 300.44 297.7 300.83 297.39 300.62 297.1 
"/></svg>
