<svg xmlns="http://www.w3.org/2000/svg" width="520" height="320"><rect x="0" y="0" width="520" height="320" fill="floralwhite"/><rect x="10" y="10" width="500" height="300" stroke="black" stroke-width="1" fill="none"/><path stroke="black" stroke-width="1" fill="none" stroke-linecap="round" stroke-linejoin="round" d="
M 144.87 142.15 162.86 137.15 171.86 135.2 180.87 133.54 189.87 132.2 216.89 129.96 225.9 129.93 243.91 130.35 270.93 132.96 279.93 134.24 288.94 135.67 297.94 137.67 306.95 139.92 333.97 144.36 342.97 146.28 351.98 148.8 360.98 151.55 379 157.51 
M 379 190.47 360.98 196.67 342.97 203.15 333.97 206.21 324.96 208.91 306.95 213.41 279.93 219.34 270.93 220.67 252.91 221.87 243.91 222.62 234.9 222.64 225.9 221.87 216.89 220.85 189.87 216.38 180.87 214.68 153.82 208.5 
M 148.37 143.74 147.88 142.63 147.12 141.85 146.67 141.63 
M 148.19 142.41 148.72 142.13 149.39 141.42 149.76 140.74 
M 159.8 206.08 160.26 205.8 160.85 205.1 161.23 204.31 161.23 203.82 160.85 203.03 160.26 202.33 159.8 202.06 
M 153.14 143.04 153.69 142.78 154.4 142.09 154.85 141.31 154.85 140.83 154.4 140.06 153.88 139.55 
M 154.06 150.07 154.58 149.78 155.24 149.03 155.67 148.19 155.67 147.66 155.24 146.81 154.58 146.06 154.06 145.77 
M 155.88 157.01 156.33 156.44 156.74 155.55 156.74 154.99 156.33 154.1 155.71 153.31 155.22 153 
M 157.31 164.34 157.86 163.17 157.86 162.59 157.48 161.65 156.83 160.77 
M 155.45 140.27 156.13 140.02 157 139.39 157.57 138.56 
M 156.06 146.86 156.7 146.59 157.52 145.89 158.05 145.09 158.05 144.6 157.52 143.8 156.7 143.1 156.06 142.83 
M 158.05 161.48 158.63 161.17 159.36 160.37 159.83 159.47 159.83 158.91 159.36 158.01 158.63 157.21 158.05 156.9 
M 165.93 202.68 166.46 202.38 167.15 201.61 167.6 200.74 167.6 200.3 
M 167.68 207.92 167.84 207.63 167.84 207.14 167.38 206.34 166.67 205.64 166.11 205.36 
M 158.2 143.78 158.75 143.53 159.45 142.87 159.9 142.13 159.9 141.67 159.45 140.92 158.75 140.27 158.2 140.01 
M 158.86 150.56 159.37 150.27 160.02 149.55 160.44 148.74 160.44 148.23 160.02 147.42 159.37 146.7 158.86 146.42 
M 162.18 162.56 161.87 161.82 161.26 161.01 160.79 160.69 
M 168.27 206.18 168.72 205.89 169.3 205.16 169.68 204.33 169.68 203.82 169.3 202.99 168.72 202.26 168.27 201.97 
M 160.9 147.37 161.53 147.11 162.33 146.44 162.85 145.68 162.85 145.22 162.33 144.46 161.53 143.79 160.9 143.53 
M 161.54 154.25 162.13 153.96 162.88 153.23 163.36 152.41 163.36 151.89 162.88 151.07 162.13 150.34 161.54 150.05 
M 162.44 161.59 163 161.29 163.73 160.5 164.19 159.62 164.19 159.07 163.73 158.18 163 157.4 162.44 157.1 
M 170.03 202.6 170.57 202.29 171.03 201.77 
M 171.39 208.69 172.07 207.66 172.07 207.15 171.62 206.34 170.91 205.63 170.36 205.35 
M 163.2 138.61 163.79 138.4 164.55 137.85 165.04 137.23 164.92 136.7 
M 163.13 144.37 163.67 144.13 164.36 143.51 164.81 142.81 164.81 142.38 164.36 141.68 163.67 141.07 163.13 140.83 
M 163.42 150.79 163.91 150.52 164.54 149.84 164.95 149.06 164.95 148.58 164.54 147.8 163.91 147.12 163.42 146.85 
M 164.11 157.85 164.58 157.56 165.17 156.81 165.56 155.96 165.56 155.44 165.17 154.59 164.58 153.84 164.11 153.55 
M 165.66 161.23 165.07 160.75 
M 172.42 206.14 172.87 205.85 173.45 205.11 173.82 204.26 173.82 203.74 173.34 202.75 
M 172.86 208.99 172.52 208.79 
M 166.11 136.64 167.33 136.18 
M 165.72 141.87 166.4 141.65 167.27 141.09 167.84 140.45 167.84 140.06 167.27 139.42 166.4 138.86 165.72 138.64 
M 165.62 147.75 166.24 147.5 167.03 146.87 167.54 146.15 167.54 145.71 167.03 145 166.24 144.37 165.62 144.12 
M 165.94 154.35 166.52 154.07 167.26 153.37 167.73 152.57 167.73 152.07 167.26 151.27 166.52 150.57 165.94 150.29 
M 168.12 160.3 168.46 159.66 168.46 159.12 167.99 158.24 167.28 157.46 166.72 157.16 
M 174.7 209.37 175.79 208.44 176.24 207.62 176.24 207.11 175.79 206.29 175.09 205.56 174.55 205.28 
M 168.54 139.62 169.9 138.9 170.39 138.32 170.39 137.96 169.9 137.38 168.54 136.67 
M 168.02 144.9 168.56 144.67 169.26 144.1 169.7 143.46 169.7 143.06 169.26 142.41 168.56 141.84 168.02 141.61 
M 168.35 157.83 168.82 157.54 169.42 156.8 169.8 155.97 169.8 155.45 169.42 154.62 168.82 153.88 168.35 153.59 
M 176.54 206.06 176.98 205.76 177.72 204.63 
M 177.9 210.02 177.18 209.02 176.72 208.75 
M 170.87 142.68 171.56 142.48 172.44 141.95 173.01 141.36 173.01 140.99 172.44 140.39 171.56 139.87 170.87 139.66 
M 170.34 148.14 170.98 147.9 171.79 147.31 172.31 146.64 172.31 146.22 171.79 145.55 170.98 144.95 170.34 144.72 
M 170.35 154.47 170.94 154.2 171.7 153.52 172.19 152.74 172.19 152.26 171.7 151.49 170.94 150.81 170.35 150.54 
M 172.5 158.64 171.6 157.55 171.02 157.25 
M 178.69 209.38 179.22 209.09 179.91 208.36 180.35 207.53 180.35 207.01 179.91 206.18 179.22 205.45 178.69 205.17 
M 174.83 136.22 176.26 135.59 176.78 135.07 176.78 134.74 176.4 134.36 
M 173 145.53 173.55 145.32 174.27 144.79 174.73 144.18 174.73 143.81 174.27 143.21 173.55 142.67 173 142.46 
M 172.47 151.18 172.98 150.94 173.64 150.32 174.07 149.62 174.07 149.19 173.64 148.48 172.98 147.86 172.47 147.62 
M 172.71 157.92 173.2 157.64 173.83 156.91 174.24 156.09 174.24 155.58 173.83 154.76 173.2 154.04 172.71 153.75 
M 180.61 205.92 180.67 205.89 
M 182.27 210.87 182.27 210.44 181.9 209.64 181.32 208.93 180.87 208.65 
M 177.94 134.74 179.65 134.11 180.18 133.67 
M 177.13 139.07 178.81 138.43 179.42 137.9 179.42 137.57 178.81 137.04 177.13 136.39 
M 176.11 143.61 176.82 143.42 177.72 142.92 178.3 142.35 178.3 142 177.72 141.44 176.82 140.94 176.11 140.74 
M 175.24 148.72 175.91 148.49 176.76 147.93 177.31 147.29 177.31 146.89 176.76 146.25 175.91 145.69 175.24 145.47 
M 174.97 154.79 175.6 154.53 176.41 153.87 176.93 153.12 176.93 152.65 176.41 151.9 175.6 151.24 174.97 150.98 
M 182.77 209.25 183.3 208.96 183.98 208.22 184.37 207.47 
M 180.41 137.55 181.81 136.92 182.32 136.41 182.32 136.09 181.81 135.58 180.41 134.95 
M 179.36 141.84 180.74 141.19 181.24 140.66 181.24 140.33 180.74 139.8 179.36 139.15 
M 178.16 146.4 179.5 145.69 179.98 145.11 179.98 144.75 179.5 144.17 178.16 143.46 
M 177.34 151.75 177.89 151.52 178.61 150.92 179.07 150.25 179.07 149.83 178.61 149.16 177.89 148.56 177.34 148.33 
M 179.03 156.16 178.59 155.21 177.9 154.5 177.37 154.23 
M 186.01 211.51 186.33 210.8 186.33 210.3 185.96 209.49 185.4 208.77 184.96 208.49 
M 183.45 136.01 185.11 135.39 185.72 134.88 185.72 134.56 185.11 134.05 183.45 133.43 
M 182.61 140.31 184.28 139.67 184.89 139.14 184.89 138.82 184.28 138.3 182.61 137.66 
M 181.48 144.71 183.13 144.03 183.73 143.48 183.73 143.14 183.13 142.59 181.48 141.91 
M 180.42 149.61 181.13 149.39 182.04 148.85 182.62 148.23 182.62 147.84 182.04 147.22 181.13 146.68 180.42 146.46 
M 179.94 155.47 180.62 155.22 181.5 154.57 182.07 153.85 182.07 153.39 181.5 152.67 180.62 152.02 179.94 151.77 
M 186.8 209.05 187.34 208.74 
M 186.48 134.46 187.83 133.84 188.33 133.33 188.33 133.02 187.83 132.51 
M 185.86 138.78 187.24 138.14 187.74 137.63 187.74 137.31 187.24 136.79 185.86 136.16 
M 184.82 143.06 186.22 142.41 186.73 141.88 186.73 141.56 186.22 141.03 184.82 140.38 
M 183.57 147.54 184.97 146.84 185.48 146.27 185.48 145.92 184.97 145.35 183.57 144.66 
M 182.6 152.73 183.21 152.51 183.99 151.93 184.49 151.27 184.49 150.87 183.99 150.21 183.21 149.63 182.6 149.4 
M 189.25 132.85 189.95 132.68 191.01 132.1 
M 188.84 137.18 190.46 136.55 191.04 136.03 191.04 135.72 190.46 135.2 188.84 134.57 
M 188.07 141.54 189.72 140.89 190.32 140.37 190.32 140.04 189.72 139.51 188.07 138.87 
M 186.98 145.98 188.68 145.31 189.29 144.75 189.29 144.41 188.68 143.86 186.98 143.18 
M 185.9 150.84 186.65 150.63 187.62 150.09 188.24 149.48 188.24 149.1 187.62 148.49 186.65 147.95 185.9 147.74 
M 186.33 153.39 185.3 152.96 
M 191.78 135.54 193.09 134.91 193.57 134.4 193.57 134.08 193.09 133.57 191.78 132.94 
M 191.25 139.95 192.59 139.31 193.08 138.78 193.08 138.46 192.59 137.93 191.25 137.29 
M 190.34 144.37 191.74 143.71 192.24 143.17 192.24 142.84 191.74 142.3 190.34 141.64 
M 189.2 148.96 190.65 148.25 191.17 147.68 191.17 147.32 190.65 146.75 189.2 146.04 
M 190.01 151.99 188.89 151.06 188.24 150.84 
M 194.43 133.81 195.96 133.2 196.51 132.69 196.51 132.38 195.6 131.68 
M 193.47 142.74 195.08 142.08 195.66 141.54 195.66 141.2 195.08 140.66 193.47 139.99 
M 192.56 147.36 193.3 147.16 194.24 146.66 194.85 146.09 194.85 145.74 194.24 145.18 193.3 144.68 192.56 144.48 
M 193.97 150.77 193.97 150.55 193.34 149.94 192.36 149.4 191.6 149.19 
M 197.06 132.05 198.3 131.44 
M 196.49 141 197.77 140.33 198.24 139.79 198.24 139.46 197.77 138.91 196.49 138.25 
M 195.79 145.64 197.14 144.95 197.63 144.4 197.63 144.05 197.14 143.49 195.79 142.8 
M 194.89 150.45 195.51 150.24 196.31 149.72 196.83 149.13 196.83 148.77 196.31 148.18 195.51 147.66 194.89 147.45 
M 199.38 134.55 200.82 133.92 201.34 133.41 201.34 133.09 200.82 132.58 199.38 131.95 
M 198.68 143.77 200.21 143.09 200.77 142.52 200.77 142.18 200.21 141.61 198.68 140.92 
M 198.01 148.62 198.71 148.42 199.62 147.9 200.2 147.32 200.2 146.95 199.62 146.37 198.71 145.85 198.01 145.65 
M 199.03 151.44 197.99 150.79 197.25 150.58 
M 201.84 132.61 202.99 132 203.41 131.5 203.3 131.07 
M 201.73 137.09 202.9 136.43 203.33 135.9 203.33 135.57 202.9 135.03 201.73 134.38 
M 200.99 146.67 202.26 145.95 202.71 145.37 202.71 145.01 202.26 144.42 200.99 143.71 
M 204.04 135 205.39 134.36 205.88 133.84 205.88 133.52 205.39 133 204.04 132.36 
M 203.9 139.64 205.28 138.96 205.78 138.41 205.78 138.06 205.28 137.51 203.9 136.83 
M 203.61 144.52 204.24 144.32 205.04 143.81 205.56 143.22 205.56 142.86 205.04 142.28 204.24 141.77 203.61 141.57 
M 203.16 149.6 203.82 149.39 204.66 148.85 205.2 148.24 205.2 147.87 204.66 147.26 203.82 146.72 203.16 146.51 
M 202.68 151.69 202.61 151.67 
M 206.32 132.87 207.4 132.25 207.8 131.75 207.8 131.44 207.19 130.79 
M 206.28 137.43 207.38 136.76 207.77 136.21 207.77 135.87 207.38 135.33 206.28 134.66 
M 206.13 142.27 207.26 141.56 207.67 140.98 207.67 140.63 207.26 140.05 206.13 139.34 
M 206.86 151.58 207.1 151.23 207.1 150.84 206.66 150.2 205.97 149.64 205.44 149.43 
M 208.45 130.8 208.97 130.64 
M 208.44 135.18 209.72 134.53 210.19 134.01 210.19 133.68 209.72 133.16 208.44 132.51 
M 210.58 132.9 211.62 132.28 212 131.78 212 131.47 211.62 130.96 210.93 130.48 
M 210.59 137.53 211.64 136.85 212.02 136.29 212.02 135.95 211.64 135.4 210.59 134.72 
M 210.55 142.49 211.63 141.77 212.02 141.17 212.02 140.81 211.63 140.22 210.55 139.49 
M 210.4 147.71 211.51 146.95 211.91 146.33 211.91 145.94 211.51 145.32 210.4 144.56 
M 211.47 150.96 210.63 150.07 210.13 149.85 
M 212.65 130.77 213.82 130.23 
M 212.67 135.19 213.92 134.54 214.37 134.01 214.37 133.68 213.92 133.15 212.67 132.49 
M 212.68 140.02 213.95 139.31 214.41 138.73 214.41 138.38 213.95 137.8 212.68 137.09 
M 214.72 132.83 215.76 132.21 216.13 131.7 216.13 131.38 215.76 130.88 214.72 130.25 
M 214.78 137.51 215.82 136.82 216.19 136.26 216.19 135.91 215.82 135.35 214.78 134.66 
M 214.82 142.55 215.87 141.82 216.25 141.21 216.25 140.84 215.87 140.24 214.82 139.5 
M 214.86 150.17 214.56 150.03 
M 213.94 215.87 214.09 215.01 213.72 214.18 213.15 213.44 212.71 213.15 
M 216.81 130.71 217.36 130.54 218.21 129.96 
M 216.85 135.15 218.1 134.5 218.55 133.96 218.55 133.63 218.1 133.09 216.85 132.44 
M 216.9 140.03 218.16 139.31 218.62 138.73 218.62 138.37 218.16 137.79 216.9 137.07 
M 218.53 149.14 218.53 148.79 218.07 148.15 217.35 147.58 216.79 147.36 
M 214.47 213.74 214.72 213.6 
M 218.91 132.79 219.96 132.17 220.34 131.66 220.34 131.34 219.96 130.83 218.91 130.2 
M 218.98 137.49 220.03 136.79 220.41 136.23 220.41 135.88 220.03 135.32 218.98 134.63 
M 219.04 142.56 220.09 141.82 220.47 141.21 220.47 140.84 220.09 140.23 219.04 139.49 
M 219.01 147.89 220.06 147.11 220.44 146.48 220.44 146.08 220.06 145.45 219.01 144.67 
M 217.57 216.38 218.09 215.33 218.09 214.82 217.73 213.98 217.22 213.3 
M 221.02 130.69 221.58 130.53 222.44 129.94 
M 221.07 135.15 222.33 134.49 222.79 133.95 222.79 133.62 222.33 133.09 221.07 132.43 
M 221.13 140.03 222.39 139.31 222.85 138.73 222.85 138.37 222.39 137.78 221.13 137.07 
M 221.14 145.22 221.69 145.01 222.4 144.46 222.86 143.84 222.86 143.46 222.4 142.84 221.69 142.3 221.14 142.08 
M 221.19 150.6 222.3 149.86 222.76 149.21 222.76 148.81 222.3 148.17 221.6 147.6 221.04 147.38 
M 218.46 213.49 218.97 213.21 219.63 212.47 220.06 211.65 220.06 211.34 
M 219.43 216.58 219 216.34 
M 223.16 132.82 224.22 132.19 224.6 131.68 224.6 131.36 224.22 130.85 223.16 130.23 
M 223.23 137.5 224.28 136.81 224.66 136.25 224.66 135.9 224.28 135.34 223.23 134.65 
M 223.27 142.56 224.32 141.82 224.7 141.21 224.7 140.84 224.32 140.24 223.27 139.5 
M 223.24 147.89 224.28 147.11 224.66 146.47 224.66 146.08 224.28 145.45 223.24 144.67 
M 224.32 152.27 224.5 151.95 224.5 151.54 224.12 150.89 223.54 150.31 223.08 150.08 
M 220.89 216.73 221.63 215.86 221.98 215.03 221.98 214.51 221.63 213.67 221.09 212.94 220.66 212.65 
M 225.28 130.72 225.83 130.56 226.72 129.95 
M 225.33 135.17 226.59 134.51 227.05 133.98 227.05 133.65 226.59 133.11 225.33 132.45 
M 225.37 140.03 226.63 139.32 227.09 138.74 227.09 138.38 226.63 137.8 225.37 137.08 
M 225.37 145.22 225.92 145 226.63 144.46 227.08 143.84 227.08 143.46 226.63 142.84 225.92 142.3 225.37 142.08 
M 225.27 150.65 225.82 150.42 226.53 149.85 226.98 149.21 226.98 148.81 226.53 148.16 225.82 147.59 225.27 147.37 
M 222.34 213.14 222.85 212.86 223.49 212.13 223.91 211.3 223.91 210.79 223.27 209.71 
M 224.09 217.08 223.41 216.29 222.9 216.01 
M 227.43 132.85 228.49 132.23 228.87 131.72 228.87 131.4 228.49 130.89 227.43 130.27 
M 227.48 137.52 228.53 136.83 228.92 136.27 228.92 135.92 228.53 135.37 227.48 134.68 
M 227.51 142.55 228.55 141.82 228.93 141.21 228.93 140.84 228.55 140.24 227.51 139.5 
M 227.46 147.87 228.51 147.1 228.89 146.46 228.89 146.07 228.51 145.44 227.46 144.66 
M 227.3 153.41 227.76 153.19 228.35 152.6 228.74 151.95 228.74 151.54 228.35 150.88 227.76 150.3 227.3 150.07 
M 224.5 216.5 224.92 216.21 225.45 215.47 225.8 214.64 225.8 214.12 225.45 213.28 224.92 212.54 224.5 212.25 
M 229.53 130.75 230.09 130.58 230.89 130.05 
M 229.58 135.19 230.84 134.53 231.29 134 231.29 133.67 230.84 133.13 229.58 132.48 
M 229.61 140.04 230.87 139.32 231.32 138.74 231.32 138.38 230.87 137.8 229.61 137.09 
M 229.6 145.22 230.15 145.01 230.86 144.46 231.32 143.84 231.32 143.46 230.86 142.84 230.15 142.3 229.6 142.08 
M 229.51 150.66 230.06 150.44 230.78 149.87 231.23 149.22 231.23 148.82 230.78 148.17 230.06 147.6 229.51 147.38 
M 231.01 154.33 230.58 153.72 229.87 153.13 229.3 152.9 
M 226.15 212.73 226.65 212.44 227.29 211.71 227.7 210.88 227.7 210.37 227.29 209.54 226.72 208.89 
M 228.31 217.47 227.89 216.62 227.25 215.89 226.75 215.61 
M 231.68 132.86 232.72 132.24 233.1 131.73 233.1 131.42 232.72 130.91 231.68 130.28 
M 231.72 137.52 232.76 136.84 233.14 136.28 233.14 135.93 232.76 135.37 231.72 134.69 
M 231.74 142.55 232.78 141.82 233.16 141.21 233.16 140.84 232.78 140.24 231.74 139.5 
M 231.7 147.89 232.75 147.11 233.14 146.48 233.14 146.08 232.75 145.45 231.7 144.67 
M 231.57 153.47 232.04 153.24 232.64 152.65 233.03 151.99 233.03 151.58 232.64 150.92 232.04 150.33 231.57 150.11 
M 227.8 208.94 228 208.8 
M 228.29 216.08 228.7 215.79 229.24 215.04 229.58 214.2 229.58 213.68 229.24 212.83 228.7 212.09 228.29 211.8 
M 233.76 130.74 235 130.15 
M 233.8 135.18 235.05 134.52 235.5 133.99 235.5 133.66 235.05 133.12 233.8 132.47 
M 233.83 140.03 235.08 139.32 235.54 138.74 235.54 138.38 235.08 137.79 233.83 137.08 
M 233.84 145.24 234.39 145.02 235.1 144.47 235.55 143.85 235.55 143.47 235.1 142.85 234.39 142.3 233.84 142.08 
M 233.79 150.72 234.34 150.5 235.06 149.92 235.52 149.27 235.52 148.86 235.06 148.21 234.34 147.64 233.79 147.41 
M 235.4 154.55 234.93 153.81 234.2 153.22 233.64 152.99 
M 229.94 212.28 230.43 212 231.06 211.27 231.47 210.44 231.47 209.93 230.84 208.83 
M 232.01 217.77 232.11 217.05 231.7 216.21 231.07 215.47 230.57 215.18 
M 235.88 132.83 236.91 132.21 237.28 131.7 237.28 131.38 236.91 130.87 235.88 130.25 
M 235.92 137.5 236.95 136.81 237.33 136.25 237.33 135.9 236.95 135.34 235.92 134.65 
M 235.96 142.55 237 141.81 237.37 141.21 237.37 140.83 237 140.23 235.96 139.48 
M 235.96 147.94 237.01 147.15 237.39 146.51 237.39 146.11 237.01 145.47 235.96 144.68 
M 235.9 153.59 236.37 153.36 236.97 152.76 237.36 152.09 237.36 151.68 236.97 151.01 236.37 150.42 235.9 150.18 
M 232.08 215.65 232.48 215.35 233.01 214.61 233.34 213.76 233.34 213.23 233.01 212.38 232.48 211.63 232.08 211.34 
M 237.92 130.67 238.89 130.24 
M 237.97 135.12 239.2 134.46 239.64 133.93 239.64 133.6 239.2 133.06 237.97 132.4 
M 238.01 139.99 239.25 139.27 239.69 138.69 239.69 138.33 239.25 137.74 238.01 137.03 
M 238.05 145.23 238.6 145.02 239.29 144.46 239.74 143.84 239.74 143.45 239.29 142.82 238.6 142.27 238.05 142.05 
M 238.06 150.79 238.61 150.56 239.31 149.97 239.77 149.31 239.77 148.9 239.31 148.24 238.61 147.66 238.06 147.43 
M 239.24 155.76 239.75 155.04 239.75 154.62 239.28 153.93 238.56 153.33 238 153.09 
M 233.67 211.78 234.15 211.5 234.77 210.77 235.17 209.94 235.17 209.43 234.77 208.6 234.15 207.87 233.67 207.59 
M 235.34 218.01 235.81 217.08 235.81 216.56 235.41 215.72 234.8 214.97 234.31 214.68 
M 240.01 132.74 241.02 132.11 241.39 131.6 241.39 131.29 241.02 130.78 240.31 130.27 
M 240.06 137.42 241.08 136.73 241.45 136.16 241.45 135.82 241.08 135.25 240.06 134.56 
M 240.2 153.68 240.65 153.44 241.24 152.84 241.61 152.16 241.61 151.73 241.24 151.05 240.65 150.45 240.2 150.21 
M 241.23 158.77 241.62 158.06 241.62 157.62 241.23 156.92 240.63 156.3 240.16 156.06 
M 235.28 207.93 235.68 207.65 236.2 206.94 236.53 206.14 236.53 205.65 236.2 204.85 235.55 204.05 
M 235.73 215.07 236.13 214.78 236.63 214.03 236.96 213.18 236.96 212.66 236.63 211.81 236.13 211.06 235.73 210.77 
M 241.99 130.52 242.57 130.32 
M 242.06 134.99 243.26 134.33 243.7 133.79 243.7 133.46 243.26 132.92 242.06 132.26 
M 242.12 139.87 243.33 139.15 243.77 138.57 243.77 138.2 243.33 137.62 242.12 136.9 
M 242.17 145.13 242.7 144.92 243.38 144.36 243.82 143.73 243.82 143.34 243.38 142.71 242.7 142.15 242.17 141.94 
M 242.22 150.74 242.75 150.51 243.43 149.92 243.87 149.25 243.87 148.83 243.43 148.16 242.75 147.57 242.22 147.34 
M 242.26 156.64 242.8 156.4 243.49 155.78 243.93 155.08 243.93 154.64 243.49 153.94 242.8 153.32 242.26 153.08 
M 243.82 161.35 243.97 160.68 243.51 159.96 242.79 159.33 242.23 159.08 
M 237.24 204.35 237.73 204.08 238.36 203.4 238.76 202.63 238.76 202.15 238.55 201.74 
M 237.28 211.14 237.76 210.86 238.37 210.14 238.76 209.33 238.76 208.82 238.37 208.01 237.76 207.29 237.28 207 
M 238.32 218.01 238.94 217.25 239.33 216.41 239.33 215.9 238.94 215.06 238.34 214.32 237.88 214.03 
M 244.05 132.56 245.03 131.93 245.39 131.41 245.39 131.09 244.87 130.45 
M 244.12 137.25 245.12 136.56 245.48 135.99 245.48 135.64 245.12 135.08 244.12 134.39 
M 244.18 142.33 245.17 141.58 245.53 140.97 245.53 140.59 245.17 139.98 244.18 139.24 
M 244.23 147.77 245.21 146.97 245.57 146.32 245.57 145.91 245.21 145.26 244.23 144.46 
M 238.9 207.27 239.3 207 239.81 206.31 240.15 205.53 240.15 205.04 239.81 204.26 239.3 203.57 238.9 203.3 
M 246.05 134.76 247.23 134.1 247.66 133.56 247.66 133.22 247.23 132.68 246.05 132.02 
M 246.12 139.64 247.3 138.92 247.73 138.34 247.73 137.98 247.3 137.39 246.12 136.67 
M 246.15 144.87 246.66 144.66 247.32 144.1 247.74 143.48 247.74 143.09 247.32 142.46 246.66 141.91 246.15 141.69 
M 246.17 150.47 246.68 150.24 247.32 149.64 247.74 148.97 247.74 148.56 247.32 147.89 246.68 147.3 246.17 147.06 
M 247.96 132.27 248.93 131.63 249.28 130.9 
M 248.08 136.98 249.05 136.29 249.4 135.72 249.4 135.37 249.05 134.81 248.08 134.11 
M 248.11 142.02 249.08 141.28 249.43 140.67 249.43 140.3 249.08 139.7 248.11 138.96 
M 248.09 153.14 249.01 152.29 249.35 151.6 249.35 151.17 249.01 150.48 248.09 149.63 
M 249.94 134.44 251.1 133.77 251.51 133.22 251.51 132.88 251.1 132.34 249.94 131.67 
M 250.02 139.3 251.17 138.59 251.59 138.01 251.59 137.65 251.17 137.06 250.02 136.35 
M 249.98 144.46 251.12 143.7 251.53 143.08 251.53 142.7 251.12 142.08 249.98 141.32 
M 249.91 149.95 250.39 149.72 251.01 149.14 251.41 148.47 251.41 148.07 251.01 147.4 250.39 146.82 249.91 146.59 
M 250.58 169.06 251.11 168.8 251.79 168.11 252.23 167.33 252.23 166.85 251.79 166.07 250.77 165.21 
M 249.93 181.34 250.55 181.1 251.33 180.48 251.84 179.79 251.84 179.35 251.33 178.66 250.12 177.88 
M 250.58 185.63 250.76 185.4 250.76 184.98 249.78 183.98 
M 247.58 192.09 248.73 191.37 249.02 190.99 
M 251.78 131.88 252.71 131.25 
M 251.95 136.62 252.9 135.93 253.25 135.36 253.25 135.01 252.9 134.45 251.95 133.75 
M 251.78 158.7 252.17 158.44 252.67 157.77 252.99 157.01 252.99 156.54 252.67 155.79 252.17 155.12 251.78 154.86 
M 247.16 200.11 247.61 199.87 248.2 199.27 248.57 198.6 248.57 198.18 248.2 197.5 247.61 196.9 247.16 196.67 
M 253.77 134.05 254.91 133.37 255.32 132.82 255.32 132.48 254.91 131.93 254.12 131.39 
M 253.85 138.89 254.99 138.18 255.41 137.61 255.41 137.25 254.99 136.67 253.85 135.96 
M 253.74 143.95 254.87 143.21 255.28 142.6 255.28 142.23 254.87 141.62 253.74 140.88 
M 253.85 161.84 254.33 161.57 254.95 160.87 255.35 160.07 255.35 159.58 254.95 158.79 254.33 158.09 253.85 157.81 
M 254.51 168.87 255.02 168.58 255.68 167.86 256.1 167.04 256.1 166.53 255.68 165.71 255.02 164.99 254.51 164.71 
M 254.87 175.62 255.43 175.35 256.14 174.66 256.59 173.88 256.59 173.4 256.14 172.62 255.43 171.93 254.87 171.66 
M 255.77 136.22 256.73 135.52 257.07 134.96 257.07 134.61 256.73 134.04 255.77 133.35 
M 255.19 151.74 256.11 150.91 256.44 150.24 256.44 149.82 256.11 149.15 255.19 148.33 
M 257.58 133.64 258.73 132.96 259.14 132.41 258.98 131.85 
M 257.67 138.48 258.81 137.77 259.23 137.2 259.23 136.84 258.81 136.27 257.67 135.56 
M 257.51 143.47 258.64 142.74 259.06 142.14 259.06 141.77 258.64 141.17 257.51 140.44 
M 257.1 154.62 257.59 154.38 258.22 153.74 258.62 153.02 258.62 152.57 258.22 151.85 257.59 151.21 257.1 150.97 
M 254.75 197.87 255.36 197.65 256.16 197.08 256.67 196.44 256.67 196.04 256.16 195.4 255.36 194.83 254.75 194.61 
M 259.61 135.83 260.56 135.13 260.91 134.57 260.91 134.21 260.56 133.65 259.61 132.95 
M 259.26 145.78 260.21 145.04 260.55 144.43 260.55 144.05 260.21 143.44 259.26 142.69 
M 259.02 157.52 259.43 157.26 259.96 156.57 260.3 155.8 260.3 155.32 259.96 154.55 259.43 153.86 259.02 153.6 
M 261.42 133.25 261.92 133.06 262.83 132.21 
M 261.5 138.08 262.65 137.38 263.07 136.8 263.07 136.45 262.65 135.87 261.5 135.17 
M 261.32 143.05 262.46 142.32 262.88 141.73 262.88 141.36 262.46 140.76 261.32 140.03 
M 261 148.3 261.5 148.08 262.14 147.52 262.55 146.88 262.55 146.48 262.14 145.84 261.5 145.28 261 145.05 
M 263.18 175.61 263.72 175.32 264.41 174.59 264.85 173.75 264.85 173.23 264.41 172.4 263.72 171.66 263.18 171.37 
M 263.45 135.44 264.41 134.75 264.76 134.18 264.76 133.83 264.41 133.27 263.45 132.57 
M 263.39 140.33 264.35 139.61 264.69 139.03 264.69 138.67 264.35 138.09 263.39 137.38 
M 262.73 150.82 263.69 149.99 264.03 149.32 264.03 148.91 263.69 148.23 262.73 147.41 
M 262.85 157.15 263.27 156.88 263.81 156.19 264.16 155.41 264.16 154.92 263.81 154.14 263.27 153.45 262.85 153.19 
M 265.56 179.1 266.01 178.82 266.59 178.1 266.97 177.29 266.97 176.79 266.59 175.98 266.01 175.26 265.56 174.98 
M 265.34 185.39 265.82 185.14 266.43 184.49 266.83 183.75 266.83 183.29 266.43 182.56 265.82 181.91 265.34 181.65 
M 265.26 132.87 265.99 132.5 
M 265.34 137.69 266.49 136.99 266.9 136.41 266.9 136.06 266.49 135.49 265.34 134.78 
M 265.15 142.65 266.29 141.92 266.71 141.32 266.71 140.96 266.29 140.36 265.15 139.63 
M 264.82 147.9 265.33 147.68 265.97 147.11 266.38 146.47 266.38 146.08 265.97 145.44 265.33 144.87 264.82 144.65 
M 264.73 153.81 265.23 153.56 265.88 152.91 266.29 152.18 266.29 151.73 265.88 151.01 265.23 150.36 264.73 150.11 
M 265.26 160.66 265.77 160.37 266.42 159.64 266.84 158.81 266.84 158.29 266.42 157.46 265.77 156.73 265.26 156.44 
M 266.32 168.15 266.84 167.85 267.5 167.07 267.93 166.19 267.93 165.64 267.5 164.75 266.84 163.97 266.32 163.67 
M 267.28 175.53 267.81 175.23 268.49 174.48 268.93 173.62 268.93 173.09 268.49 172.24 267.81 171.48 267.28 171.19 
M 267.58 182.29 268.14 182.02 268.85 181.33 269.31 180.54 269.31 180.06 268.85 179.27 268.14 178.57 267.58 178.3 
M 267.16 188.44 267.75 188.2 268.51 187.56 268.99 186.84 268.99 186.39 268.51 185.67 267.75 185.04 267.16 184.79 
M 266.12 194.07 266.75 193.84 267.56 193.24 268.08 192.57 268.08 192.15 267.56 191.47 266.75 190.88 266.12 190.64 
M 264.61 216.68 265.11 216.04 265.11 215.58 264.52 214.82 263.62 214.15 262.91 213.89 
M 267.3 135.06 268.25 134.36 268.6 133.8 268.6 133.45 268.05 132.69 
M 267.23 139.93 268.18 139.22 268.52 138.64 268.52 138.28 268.18 137.7 267.23 136.99 
M 266.91 144.97 267.86 144.22 268.2 143.62 268.2 143.24 267.86 142.63 266.91 141.88 
M 266.58 150.44 267.54 149.62 267.88 148.94 267.88 148.52 267.54 147.85 266.58 147.02 
M 266.74 156.82 267.16 156.55 267.7 155.85 268.05 155.07 268.05 154.58 267.7 153.8 267.16 153.1 266.74 152.83 
M 267.69 164.2 268.12 163.9 268.66 163.12 269.02 162.24 269.02 161.69 268.66 160.81 268.12 160.03 267.69 159.72 
M 268.92 171.87 269.35 171.56 269.91 170.77 270.27 169.88 270.27 169.32 269.91 168.43 269.35 167.64 268.92 167.33 
M 269.71 179.08 270.16 178.79 270.73 178.06 271.1 177.22 271.1 176.7 270.73 175.87 270.16 175.13 269.71 174.85 
M 269.72 185.61 270.19 185.35 270.8 184.67 271.19 183.91 271.19 183.44 270.8 182.67 270.19 182 269.72 181.74 
M 269.12 191.63 269.62 191.39 270.26 190.77 270.68 190.06 270.68 189.62 270.26 188.91 269.62 188.29 269.12 188.05 
M 267.96 197.2 268.52 196.97 269.22 196.37 269.68 195.7 269.68 195.28 269.22 194.6 268.52 194.01 267.96 193.77 
M 266.72 202.77 267.32 202.53 268.08 201.92 268.58 201.23 268.58 200.81 268.08 200.12 267.32 199.51 266.72 199.27 
M 265.94 208.77 266.55 208.53 267.33 207.89 267.84 207.16 267.84 206.72 267.33 205.99 266.55 205.35 265.94 205.1 
M 265.61 215.09 266.22 214.83 267 214.17 267.5 213.42 267.5 212.96 267 212.21 266.22 211.55 265.61 211.3 
M 269.17 137.28 270.31 136.58 270.72 136.01 270.72 135.66 270.31 135.08 269.17 134.38 
M 268.97 142.24 270.1 141.51 270.51 140.91 270.51 140.55 270.1 139.95 268.97 139.22 
M 268.65 147.5 269.15 147.28 269.79 146.71 270.2 146.07 270.2 145.67 269.79 145.03 269.15 144.46 268.65 144.24 
M 268.58 153.45 269.09 153.2 269.73 152.55 270.14 151.82 270.14 151.36 269.73 150.63 269.09 149.98 268.58 149.73 
M 269.16 160.35 269.67 160.06 270.32 159.32 270.74 158.48 270.74 157.97 270.32 157.13 269.67 156.39 269.16 156.1 
M 270.27 167.9 270.78 167.59 271.44 166.8 271.86 165.91 271.86 165.36 271.44 164.46 270.78 163.67 270.27 163.37 
M 271.32 175.39 271.85 175.09 272.52 174.32 272.95 173.44 272.95 172.9 272.52 172.03 271.85 171.26 271.32 170.96 
M 271.81 182.36 272.36 182.08 273.06 181.36 273.51 180.55 273.51 180.05 273.06 179.24 272.36 178.52 271.81 178.24 
M 271.64 188.77 272.22 188.51 272.97 187.85 273.44 187.1 273.44 186.63 272.97 185.88 272.22 185.22 271.64 184.96 
M 270.93 194.74 271.56 194.5 272.36 193.87 272.88 193.16 272.88 192.72 272.36 192.01 271.56 191.39 270.93 191.14 
M 269.93 200.5 270.61 200.26 271.49 199.64 272.05 198.95 272.05 198.51 271.49 197.82 270.61 197.2 269.93 196.96 
M 269.05 206.39 269.76 206.14 270.68 205.51 271.27 204.8 271.27 204.36 270.68 203.65 269.76 203.02 269.05 202.77 
M 268.52 212.56 269.24 212.3 270.17 211.65 270.77 210.92 270.77 210.46 270.17 209.73 269.24 209.08 268.52 208.83 
M 270.2 216.33 269.03 215.35 268.32 215.1 
M 271.12 134.64 272.06 133.95 272.41 133.17 
M 271.03 139.5 271.97 138.79 272.31 138.21 272.31 137.85 271.97 137.28 271.03 136.56 
M 270.71 144.55 271.65 143.8 271.99 143.19 271.99 142.81 271.65 142.2 270.71 141.45 
M 270.41 150.05 271.35 149.22 271.69 148.54 271.69 148.12 271.35 147.44 270.41 146.61 
M 270.61 156.47 271.03 156.2 271.56 155.5 271.91 154.71 271.91 154.22 271.56 153.43 271.03 152.73 270.61 152.46 
M 271.6 163.9 272.03 163.6 272.57 162.81 272.91 161.92 272.91 161.37 272.57 160.49 272.03 159.7 271.6 159.4 
M 272.87 171.62 273.3 171.31 273.84 170.51 274.2 169.6 274.2 169.04 273.84 168.13 273.3 167.33 272.87 167.02 
M 273.79 178.99 274.23 178.69 274.79 177.94 275.16 177.08 275.16 176.55 274.79 175.69 274.23 174.94 273.79 174.64 
M 274.03 185.76 274.49 185.49 275.09 184.79 275.47 184 275.47 183.51 275.09 182.71 274.49 182.01 274.03 181.74 
M 273.7 192.08 274.2 191.82 274.83 191.17 275.23 190.42 275.23 189.97 274.83 189.22 274.2 188.57 273.7 188.31 
M 272.96 198.06 273.5 197.81 274.18 197.18 274.63 196.47 274.63 196.03 274.18 195.32 273.5 194.68 272.96 194.44 
M 272.09 203.97 272.67 203.72 273.42 203.09 273.9 202.38 273.9 201.94 273.42 201.23 272.67 200.6 272.09 200.35 
M 271.43 210.05 272.03 209.8 272.79 209.15 273.29 208.42 273.29 207.97 272.79 207.25 272.03 206.6 271.43 206.35 
M 271.28 216.24 272.45 215.41 272.94 214.67 272.94 214.21 272.45 213.47 271.69 212.81 271.09 212.56 
M 272.94 136.83 274.06 136.13 274.47 135.56 274.47 135.2 274.06 134.63 272.94 133.94 
M 272.73 141.77 273.85 141.04 274.25 140.45 274.25 140.08 273.85 139.49 272.73 138.76 
M 272.42 147.05 272.91 146.83 273.53 146.26 273.93 145.61 273.93 145.21 273.53 144.57 272.91 144 272.42 143.78 
M 272.38 153.03 272.87 152.77 273.5 152.12 273.9 151.38 273.9 150.93 273.5 150.19 272.87 149.54 272.38 149.29 
M 273 159.98 273.5 159.69 274.13 158.94 274.54 158.1 274.54 157.58 274.13 156.73 273.5 155.99 273 155.7 
M 274.16 167.58 274.66 167.27 275.3 166.47 275.72 165.57 275.72 165.01 275.3 164.11 274.66 163.31 274.16 163 
M 275.3 175.17 275.81 174.87 276.47 174.08 276.89 173.19 276.89 172.64 276.47 171.75 275.81 170.97 275.3 170.66 
M 275.96 182.34 276.5 182.05 277.18 181.31 277.62 180.48 277.62 179.96 277.18 179.12 276.5 178.38 275.96 178.09 
M 276.04 189.01 276.6 188.74 277.33 188.05 277.79 187.27 277.79 186.78 277.33 186 276.6 185.31 276.04 185.04 
M 275.65 195.31 276.26 195.06 277.03 194.4 277.53 193.66 277.53 193.19 277.03 192.45 276.26 191.79 275.65 191.54 
M 275.01 201.42 275.66 201.16 276.5 200.52 277.03 199.79 277.03 199.34 276.5 198.62 275.66 197.97 275.01 197.72 
M 274.36 207.5 275.04 207.25 275.92 206.61 276.48 205.88 276.48 205.43 275.92 204.7 275.04 204.06 274.36 203.81 
M 273.89 213.69 274.58 213.44 275.47 212.79 276.04 212.05 276.04 211.6 275.47 210.86 274.58 210.22 273.89 209.96 
M 274.87 134.16 275.63 133.63 
M 274.76 139 275.68 138.29 276.02 137.71 276.02 137.36 275.68 136.78 274.76 136.07 
M 274.42 144.04 275.34 143.29 275.67 142.68 275.67 142.3 275.34 141.69 274.42 140.94 
M 274.13 149.56 275.05 148.72 275.38 148.04 275.38 147.62 275.05 146.94 274.13 146.1 
M 274.37 156.02 274.77 155.75 275.29 155.04 275.62 154.25 275.62 153.75 275.29 152.95 274.77 152.25 274.37 151.98 
M 275.42 163.51 275.83 163.2 276.35 162.41 276.69 161.51 276.69 160.96 276.35 160.06 275.83 159.27 275.42 158.97 
M 276.74 171.29 277.15 170.97 277.69 170.16 278.03 169.24 278.03 168.67 277.69 167.76 277.15 166.95 276.74 166.63 
M 277.78 178.8 278.21 178.5 278.76 177.73 279.12 176.85 279.12 176.3 278.76 175.42 278.21 174.65 277.78 174.35 
M 278.24 185.81 278.69 185.53 279.27 184.8 279.64 183.98 279.64 183.48 279.27 182.66 278.69 181.93 278.24 181.65 
M 278.17 192.4 278.65 192.13 279.26 191.45 279.66 190.67 279.66 190.19 279.26 189.42 278.65 188.73 278.17 188.47 
M 277.76 198.72 278.28 198.46 278.93 197.8 279.36 197.06 279.36 196.59 278.93 195.84 278.28 195.18 277.76 194.93 
M 277.21 204.91 277.76 204.66 278.45 204.01 278.9 203.27 278.9 202.82 278.45 202.08 277.76 201.43 277.21 201.18 
M 276.69 211.09 277.25 210.83 277.97 210.18 278.43 209.45 278.43 208.99 277.97 208.26 277.25 207.61 276.69 207.36 
M 278.08 215.33 277.62 214.49 276.9 213.84 276.34 213.59 
M 276.63 136.28 277.72 135.58 278.12 135.02 278.12 134.67 277.46 133.89 
M 276.39 141.2 277.48 140.47 277.87 139.88 277.87 139.52 277.48 138.92 276.39 138.2 
M 276.06 146.46 276.54 146.24 277.14 145.67 277.54 145.03 277.54 144.63 277.14 143.98 276.54 143.42 276.06 143.19 
M 276.03 152.46 276.51 152.2 277.12 151.55 277.51 150.81 277.51 150.35 277.12 149.61 276.51 148.96 276.03 148.7 
M 276.7 159.47 277.18 159.17 277.8 158.42 278.2 157.57 278.2 157.04 277.8 156.19 277.18 155.44 276.7 155.15 
M 277.92 167.15 278.41 166.83 279.04 166.03 279.45 165.11 279.45 164.55 279.04 163.63 278.41 162.83 277.92 162.51 
M 279.16 174.86 279.67 174.55 280.31 173.75 280.72 172.84 280.72 172.28 280.31 171.37 279.67 170.57 279.16 170.25 
M 280 182.22 280.52 181.92 281.19 181.16 281.62 180.3 281.62 179.76 281.19 178.9 280.52 178.14 280 177.84 
M 280.31 189.13 280.86 188.85 281.56 188.13 282.01 187.32 282.01 186.82 281.56 186.01 280.86 185.29 280.31 185.01 
M 280.19 195.7 280.77 195.43 281.52 194.75 282 193.98 282 193.5 281.52 192.72 280.77 192.04 280.19 191.77 
M 279.83 202.07 280.44 201.81 281.23 201.14 281.74 200.39 281.74 199.92 281.23 199.17 280.44 198.51 279.83 198.25 
M 279.37 208.32 280.01 208.07 280.84 207.41 281.37 206.67 281.37 206.21 280.84 205.47 280.01 204.81 279.37 204.56 
M 278.97 214.54 279.62 214.29 280.45 213.64 280.99 212.9 280.99 212.45 280.45 211.71 279.62 211.06 278.97 210.81 
M 278.38 138.38 279.27 137.68 279.59 137.11 279.59 136.75 279.27 136.18 278.38 135.47 
M 278.01 143.38 278.89 142.64 279.21 142.03 279.21 141.66 278.89 141.05 278.01 140.31 
M 277.69 148.88 278.57 148.05 278.9 147.37 278.9 146.94 278.57 146.26 277.69 145.43 
M 277.94 155.38 278.33 155.1 278.84 154.39 279.17 153.59 279.17 153.09 278.84 152.29 278.33 151.58 277.94 151.3 
M 279.06 162.96 279.47 162.64 279.98 161.84 280.31 160.94 280.31 160.37 279.98 159.47 279.47 158.67 279.06 158.35 
M 280.47 170.84 280.88 170.51 281.4 169.69 281.74 168.76 281.74 168.18 281.4 167.24 280.88 166.42 280.47 166.1 
M 281.66 178.52 282.08 178.21 282.62 177.41 282.97 176.51 282.97 175.95 282.62 175.05 282.08 174.25 281.66 173.94 
M 282.33 185.74 282.77 185.45 283.33 184.7 283.69 183.85 283.69 183.33 283.33 182.48 282.77 181.73 282.33 181.44 
M 282.49 192.56 282.96 192.29 283.55 191.58 283.93 190.77 283.93 190.28 283.55 189.48 282.96 188.77 282.49 188.49 
M 282.33 199.12 282.82 198.86 283.44 198.17 283.85 197.4 283.85 196.92 283.44 196.15 282.82 195.47 282.33 195.2 
M 282 205.51 282.51 205.25 283.16 204.59 283.58 203.83 283.58 203.36 283.16 202.61 282.51 201.94 282 201.68 
M 281.59 211.78 282.12 211.52 282.79 210.87 283.22 210.13 283.22 209.67 282.79 208.92 282.12 208.27 281.59 208.01 
M 281.94 214.68 281.25 214.28 
M 280.15 135.56 280.61 135.37 281.45 134.48 
M 279.89 140.47 280.94 139.75 281.31 139.16 281.31 138.79 280.94 138.2 279.89 137.47 
M 279.57 145.75 280.03 145.53 280.62 144.95 281.01 144.31 281.01 143.91 280.62 143.26 280.03 142.69 279.57 142.47 
M 279.57 151.79 280.05 151.53 280.65 150.87 281.05 150.13 281.05 149.66 280.65 148.92 280.05 148.26 279.57 148 
M 280.3 158.87 280.79 158.57 281.41 157.81 281.81 156.95 281.81 156.42 281.41 155.56 280.79 154.8 280.3 154.5 
M 281.6 166.62 282.09 166.3 282.71 165.49 283.12 164.56 283.12 163.99 282.71 163.07 282.09 162.25 281.6 161.93 
M 282.93 174.44 283.43 174.12 284.06 173.31 284.47 172.38 284.47 171.81 284.06 170.89 283.43 170.07 282.93 169.75 
M 283.93 181.97 284.44 181.67 285.08 180.89 285.5 180 285.5 179.45 285.08 178.57 284.44 177.79 283.93 177.48 
M 284.44 189.1 284.97 188.81 285.65 188.07 286.09 187.23 286.09 186.71 285.65 185.88 284.97 185.14 284.44 184.85 
M 284.55 195.9 285.11 195.62 285.82 194.91 286.29 194.11 286.29 193.62 285.82 192.82 285.11 192.11 284.55 191.84 
M 284.4 202.46 284.98 202.19 285.73 201.51 286.22 200.74 286.22 200.26 285.73 199.48 284.98 198.8 284.4 198.54 
M 284.1 208.85 284.71 208.59 285.49 207.92 285.99 207.17 285.99 206.7 285.49 205.95 284.71 205.28 284.1 205.02 
M 285.27 214.02 285.66 213.46 285.66 213 285.15 212.26 284.37 211.61 283.75 211.36 
M 281.77 137.55 282.61 136.84 282.92 136.27 282.92 135.92 282.61 135.34 281.77 134.64 
M 281.42 142.58 282.27 141.83 282.58 141.22 282.58 140.84 282.27 140.23 281.42 139.48 
M 281.16 148.16 282.05 147.31 282.38 146.62 282.38 146.19 282.05 145.5 281.16 144.66 
M 281.51 154.75 281.91 154.47 282.43 153.75 282.77 152.93 282.77 152.43 282.43 151.61 281.91 150.9 281.51 150.62 
M 282.7 162.39 283.11 162.07 283.64 161.26 283.98 160.35 283.98 159.78 283.64 158.87 283.11 158.06 282.7 157.75 
M 284.16 170.31 284.56 169.99 285.09 169.16 285.42 168.21 285.42 167.63 285.09 166.69 284.56 165.85 284.16 165.53 
M 285.44 178.11 285.85 177.79 286.37 176.98 286.71 176.06 286.71 175.49 286.37 174.57 285.85 173.76 285.44 173.44 
M 286.28 185.53 286.71 185.23 287.25 184.46 287.6 183.58 287.6 183.04 287.25 182.17 286.71 181.4 286.28 181.1 
M 286.67 192.57 287.11 192.28 287.68 191.55 288.05 190.72 288.05 190.21 287.68 189.38 287.11 188.65 286.67 188.37 
M 286.71 199.33 287.18 199.05 287.78 198.35 288.16 197.56 288.16 197.06 287.78 196.27 287.18 195.57 286.71 195.29 
M 286.55 205.88 287.04 205.61 287.66 204.93 288.06 204.16 288.06 203.68 287.66 202.91 287.04 202.23 286.55 201.97 
M 286.27 212.23 286.77 211.97 287.41 211.31 287.82 210.57 287.82 210.1 287.41 209.36 286.77 208.7 286.27 208.44 
M 283.18 139.56 284.18 138.82 284.55 138.22 284.55 137.85 284.18 137.25 283.18 136.51 
M 282.99 144.99 283.45 144.76 284.04 144.18 284.42 143.51 284.42 143.1 284.04 142.44 283.45 141.85 282.99 141.62 
M 283.17 151.21 283.66 150.94 284.28 150.27 284.68 149.5 284.68 149.03 284.28 148.27 283.66 147.59 283.17 147.33 
M 284.02 158.37 284.52 158.07 285.16 157.31 285.58 156.44 285.58 155.9 285.16 155.03 284.52 154.27 284.02 153.97 
M 285.33 166.13 285.83 165.81 286.47 164.99 286.88 164.07 286.88 163.49 286.47 162.57 285.83 161.75 285.33 161.43 
M 289.99 213.08 288.93 211.97 288.34 211.72 
M 284.86 136.43 285.67 135.72 285.93 135.19 
M 284.68 141.68 285.52 140.9 285.82 140.26 285.82 139.86 285.52 139.23 284.68 138.44 
M 284.72 147.56 285.12 147.32 285.63 146.68 285.96 145.96 285.96 145.51 285.63 144.79 285.12 144.15 284.72 143.9 
M 285.31 154.37 285.73 154.08 286.28 153.34 286.63 152.51 286.63 152 286.28 151.16 285.73 150.43 285.31 150.14 
M 286.55 162 286.98 161.68 287.53 160.88 287.89 159.97 287.89 159.4 287.53 158.49 286.98 157.69 286.55 157.37 
M 287.91 169.81 288.32 169.49 288.86 168.66 289.2 167.73 289.2 167.16 288.86 166.22 288.32 165.4 287.91 165.08 
M 290.67 192.41 291.1 192.12 291.65 191.36 292.01 190.51 292.01 189.98 291.65 189.13 291.1 188.37 290.67 188.08 
M 290.94 206.08 291.41 205.8 292.01 205.11 292.39 204.32 292.39 203.83 292.01 203.04 291.41 202.35 290.94 202.08 
M 286.31 138.53 287.3 137.76 287.66 137.13 287.66 136.75 287.3 136.12 286.31 135.35 
M 286.42 144.29 286.89 144.05 287.49 143.43 287.87 142.73 287.87 142.29 287.49 141.59 286.89 140.97 286.42 140.73 
M 286.94 150.82 287.44 150.55 288.09 149.84 288.5 149.05 288.5 148.55 288.09 147.76 287.44 147.06 286.94 146.78 
M 289.2 165.74 289.72 165.43 290.38 164.62 290.81 163.71 290.81 163.14 290.38 162.23 289.72 161.42 289.2 161.11 
M 290.41 173.45 290.9 173.13 291.54 172.32 291.95 171.4 291.95 170.83 291.54 169.91 290.9 169.1 290.41 168.78 
M 287.91 140.8 288.76 139.96 289.07 139.28 289.07 138.86 288.76 138.17 287.91 137.34 
M 288.39 147.14 288.81 146.87 289.33 146.19 289.67 145.42 289.67 144.94 289.33 144.17 288.81 143.49 288.39 143.22 
M 289.32 154.21 289.77 153.92 290.34 153.16 290.7 152.3 290.7 151.77 290.34 150.92 289.77 150.16 289.32 149.87 
M 291.76 169.38 292.19 169.06 292.74 168.26 293.09 167.35 293.09 166.79 292.74 165.88 292.19 165.08 291.76 164.77 
M 289.47 137.54 289.92 137.32 290.49 136.73 290.85 136.1 
M 289.96 143.72 290.44 143.46 291.06 142.8 291.46 142.05 291.46 141.58 291.06 140.83 290.44 140.17 289.96 139.91 
M 290.86 150.61 291.38 150.32 292.05 149.58 292.48 148.75 292.48 148.24 292.05 147.4 291.38 146.67 290.86 146.38 
M 294.23 172.99 294.74 172.68 295.39 171.89 295.81 170.99 295.81 170.43 295.39 169.53 294.74 168.74 294.23 168.43 
M 292.23 146.88 292.66 146.59 293.21 145.87 293.56 145.04 293.56 144.53 293.21 143.71 292.66 142.99 292.23 142.7 
M 293.48 154.2 293.94 153.89 294.52 153.12 294.89 152.24 294.89 151.69 294.52 150.82 293.94 150.04 293.48 149.74 
M 294.76 161.69 295.22 161.39 295.81 160.6 296.18 159.71 296.18 159.16 295.81 158.28 295.22 157.49 294.76 157.18 
M 296.59 176.52 297.02 176.21 297.56 175.42 297.91 174.52 297.91 173.97 297.56 173.07 297.02 172.28 296.59 171.97 
M 299.02 199.1 299.46 198.81 300.02 198.05 300.39 197.19 300.39 196.66 300.02 195.8 299.46 195.05 299.02 194.75 
M 292.9 136.82 293.27 136.64 
M 293.7 143.34 294.21 143.07 294.87 142.37 295.29 141.58 295.29 141.09 294.87 140.29 294.21 139.59 293.7 139.32 
M 294.92 150.51 295.45 150.21 296.14 149.45 296.59 148.59 296.59 148.06 296.14 147.19 295.45 146.43 294.92 146.13 
M 299.04 180.21 299.56 179.9 300.22 179.1 300.65 178.2 300.65 177.64 300.22 176.74 299.56 175.95 299.04 175.64 
M 296.25 146.75 296.7 146.46 297.28 145.7 297.65 144.85 297.65 144.32 297.28 143.46 296.7 142.7 296.25 142.41 
M 298.99 161.67 299.45 161.37 300.04 160.59 300.42 159.71 300.42 159.16 300.04 158.28 299.45 157.5 298.99 157.2 
M 301.54 165.29 302.1 164.99 302.82 164.22 303.28 163.35 303.28 162.81 302.82 161.93 302.1 161.16 301.54 160.86 
M 299.25 139.66 299.74 139.4 300.58 138.33 
M 304.09 168.9 304.57 168.6 305.18 167.84 305.57 166.97 305.57 166.44 305.18 165.58 304.57 164.82 304.09 164.52 
M 305.68 183.88 306.15 183.57 306.76 182.76 307.16 181.85 307.16 181.28 306.76 180.37 306.15 179.57 305.68 179.25 
M 304.87 158.11 305.46 157.81 306.22 157.03 306.71 156.15 306.71 155.6 306.22 154.72 305.46 153.94 304.87 153.63 
M 307.5 180.2 308.09 179.89 308.85 179.1 309.33 178.2 309.33 177.65 308.85 176.75 308.09 175.96 307.5 175.65 
M 304.09 140.23 304.65 139.97 305.19 139.48 
M 305.18 147.17 305.72 146.89 306.4 146.15 306.84 145.31 306.84 144.79 306.4 143.95 305.72 143.21 305.18 142.92 
M 306.51 154.54 307.02 154.24 307.68 153.46 308.1 152.58 308.1 152.03 307.68 151.15 307.02 150.37 306.51 150.07 
M 307.75 161.96 308.25 161.65 308.9 160.88 309.31 160 309.31 159.46 308.9 158.58 308.25 157.8 307.75 157.5 
M 308.61 169.19 309.12 168.9 309.76 168.13 310.18 167.26 310.18 166.73 309.76 165.86 309.12 165.1 308.61 164.8 
M 309.33 176.54 309.85 176.23 310.5 175.45 310.92 174.57 310.92 174.02 310.5 173.14 309.85 172.36 309.33 172.05 
M 310.2 184.15 310.71 183.84 311.35 183.04 311.77 182.14 311.77 181.58 311.35 180.68 310.71 179.88 310.2 179.57 
M 311.07 191.76 311.56 191.45 312.19 190.66 312.59 189.77 312.59 189.22 312.19 188.33 311.56 187.54 311.07 187.23 
M 311.66 199.05 312.13 198.76 312.74 198 313.14 197.14 313.14 196.61 312.74 195.75 312.13 195 311.66 194.7 
M 307.24 144.15 307.92 143.88 308.8 143.19 309.36 142.42 309.36 141.93 308.8 141.16 307.92 140.47 307.24 140.2 
M 308.32 151.18 308.97 150.89 309.81 150.15 310.34 149.3 310.34 148.78 309.81 147.93 308.97 147.18 308.32 146.89 
M 309.52 158.51 310.15 158.21 310.95 157.44 311.47 156.57 311.47 156.03 310.95 155.15 310.15 154.38 309.52 154.08 
M 310.55 165.84 311.18 165.53 311.97 164.77 312.48 163.89 312.48 163.35 311.97 162.48 311.18 161.71 310.55 161.41 
M 311.36 173.14 311.99 172.84 312.78 172.07 313.3 171.19 313.3 170.65 312.78 169.77 311.99 169 311.36 168.7 
M 312.15 180.6 312.77 180.29 313.56 179.51 314.08 178.62 314.08 178.07 313.56 177.18 312.77 176.39 312.15 176.09 
M 312.96 188.14 313.56 187.83 314.33 187.05 314.83 186.16 314.83 185.61 314.33 184.72 313.56 183.93 312.96 183.63 
M 313.61 195.51 314.19 195.21 314.94 194.45 315.42 193.58 315.42 193.05 314.94 192.18 314.19 191.41 313.61 191.12 
M 314 202.6 314.57 202.32 315.29 201.58 315.76 200.75 315.76 200.23 315.29 199.4 314.57 198.66 314 198.37 
M 315.87 207.7 315.9 207.15 315.44 206.36 314.73 205.66 314.18 205.39 
M 309.43 141.27 310.04 141.02 310.63 140.53 
M 310.25 147.93 310.83 147.65 311.57 146.94 312.04 146.14 312.04 145.64 311.57 144.83 310.83 144.12 310.25 143.85 
M 311.35 155.09 311.9 154.8 312.59 154.04 313.04 153.18 313.04 152.65 312.59 151.79 311.9 151.03 311.35 150.74 
M 312.49 162.45 313.02 162.15 313.7 161.38 314.14 160.51 314.14 159.97 313.7 159.1 313.02 158.33 312.49 158.03 
M 313.37 169.74 313.9 169.44 314.58 168.67 315.02 167.8 315.02 167.26 314.58 166.39 313.9 165.62 313.37 165.32 
M 314.13 177.1 314.66 176.8 315.34 176.02 315.78 175.14 315.78 174.59 315.34 173.71 314.66 172.93 314.13 172.63 
M 314.93 184.61 315.45 184.31 316.11 183.52 316.54 182.63 316.54 182.08 316.11 181.19 315.45 180.41 314.93 180.1 
M 315.63 192.04 316.13 191.74 316.77 190.97 317.18 190.1 317.18 189.56 316.77 188.68 316.13 187.91 315.63 187.61 
M 316.07 199.19 316.55 198.9 317.16 198.16 317.55 197.32 317.55 196.79 317.16 195.95 316.55 195.21 316.07 194.92 
M 316.29 206.11 316.75 205.83 317.35 205.11 317.74 204.3 317.74 203.8 317.35 202.98 316.75 202.27 316.29 201.99 
M 312.57 145.17 313.29 144.91 314.21 144.25 314.81 143.5 314.81 143.04 314.21 142.29 313.29 141.63 312.57 141.38 
M 313.4 151.95 314.08 151.67 314.96 150.95 315.52 150.13 315.52 149.63 314.96 148.81 314.08 148.09 313.4 147.81 
M 314.42 159.13 315.07 158.84 315.91 158.08 316.45 157.22 316.45 156.69 315.91 155.84 315.07 155.08 314.42 154.79 
M 315.39 166.43 316.03 166.13 316.86 165.36 317.39 164.49 317.39 163.96 316.86 163.09 316.03 162.32 315.39 162.02 
M 316.2 173.74 316.84 173.44 317.66 172.67 318.19 171.8 318.19 171.26 317.66 170.38 316.84 169.61 316.2 169.31 
M 316.94 181.13 317.57 180.83 318.38 180.06 318.9 179.18 318.9 178.63 318.38 177.76 317.57 176.98 316.94 176.68 
M 317.61 188.51 318.22 188.21 319 187.45 319.5 186.58 319.5 186.04 319 185.17 318.22 184.4 317.61 184.1 
M 318.09 195.71 318.67 195.42 319.42 194.67 319.9 193.83 319.9 193.3 319.42 192.46 318.67 191.71 318.09 191.42 
M 318.34 202.68 318.91 202.4 319.63 201.68 320.1 200.86 320.1 200.35 319.63 199.53 318.91 198.81 318.34 198.53 
M 319.9 206.77 318.97 205.7 318.42 205.43 
M 315.02 142.55 315.65 142.31 316.59 141.52 
M 315.57 148.93 316.17 148.66 316.93 147.98 317.42 147.21 317.42 146.74 316.93 145.97 316.17 145.29 315.57 145.02 
M 316.41 155.86 316.98 155.57 317.7 154.83 318.17 154 318.17 153.49 317.7 152.65 316.98 151.92 316.41 151.63 
M 317.41 163.12 317.96 162.82 318.66 162.06 319.11 161.2 319.11 160.67 318.66 159.8 317.96 159.04 317.41 158.75 
M 318.27 170.4 318.81 170.1 319.5 169.33 319.95 168.47 319.95 167.93 319.5 167.06 318.81 166.3 318.27 166 
M 319.02 177.73 319.55 177.43 320.23 176.66 320.67 175.79 320.67 175.25 320.23 174.37 319.55 173.6 319.02 173.3 
M 319.7 185.09 320.21 184.79 320.87 184.03 321.3 183.16 321.3 182.62 320.87 181.75 320.21 180.98 319.7 180.68 
M 320.2 192.31 320.69 192.02 321.32 191.27 321.73 190.42 321.73 189.9 321.32 189.05 320.69 188.3 320.2 188.01 
M 320.46 199.31 320.94 199.03 321.54 198.3 321.94 197.48 321.94 196.97 321.54 196.14 320.94 195.41 320.46 195.13 
M 320.56 206.12 321.02 205.84 321.62 205.14 322 204.34 322 203.85 321.62 203.05 321.02 202.34 320.56 202.07 
M 318.04 146.34 318.77 146.09 319.7 145.46 320.31 144.73 320.31 144.29 319.7 143.57 318.77 142.93 318.04 142.68 
M 318.64 152.88 319.33 152.61 320.23 151.92 320.8 151.13 320.8 150.64 320.23 149.85 319.33 149.15 318.64 148.88 
M 319.46 159.89 320.13 159.6 320.99 158.86 321.54 158.03 321.54 157.51 320.99 156.67 320.13 155.93 319.46 155.65 
M 320.33 167.11 320.98 166.81 321.81 166.05 322.35 165.2 322.35 164.67 321.81 163.81 320.98 163.05 320.33 162.76 
M 321.08 174.37 321.72 174.07 322.54 173.31 323.06 172.44 323.06 171.91 322.54 171.05 321.72 170.28 321.08 169.99 
M 321.73 181.64 322.35 181.35 323.14 180.59 323.65 179.72 323.65 179.19 323.14 178.33 322.35 177.57 321.73 177.27 
M 322.23 188.84 322.83 188.55 323.59 187.8 324.08 186.95 324.08 186.43 323.59 185.58 322.83 184.83 322.23 184.54 
M 322.53 195.87 323.1 195.59 323.84 194.86 324.31 194.03 324.31 193.52 323.84 192.69 323.1 191.96 322.53 191.68 
M 322.65 202.72 323.2 202.44 323.92 201.73 324.38 200.92 324.38 200.43 323.92 199.62 323.2 198.91 322.65 198.63 
M 323.43 205.95 322.61 205.42 
M 320.61 143.86 321.22 143.63 322.01 143.03 322.47 142.42 
M 320.97 150.02 321.56 149.76 322.32 149.11 322.81 148.36 322.81 147.9 322.32 147.16 321.56 146.5 320.97 146.25 
M 321.59 156.73 322.16 156.46 322.89 155.74 323.36 154.93 323.36 154.43 322.89 153.63 322.16 152.91 321.59 152.64 
M 322.42 163.85 322.97 163.56 323.68 162.82 324.13 161.97 324.13 161.45 323.68 160.6 322.97 159.86 322.42 159.57 
M 323.19 171.05 323.73 170.76 324.41 170 324.85 169.15 324.85 168.62 324.41 167.76 323.73 167.01 323.19 166.71 
M 323.84 178.28 324.36 177.98 325.03 177.23 325.46 176.37 325.46 175.84 325.03 174.99 324.36 174.23 323.84 173.93 
M 324.36 185.47 324.86 185.18 325.5 184.43 325.91 183.58 325.91 183.06 325.5 182.21 324.86 181.46 324.36 181.17 
M 324.67 192.5 325.15 192.22 325.76 191.48 326.16 190.66 326.16 190.14 325.76 189.32 325.15 188.59 324.67 188.3 
M 324.79 199.36 325.25 199.09 325.85 198.37 326.23 197.56 326.23 197.06 325.85 196.25 325.25 195.54 324.79 195.26 
M 325.53 205.44 326.19 204.32 326.19 203.83 325.81 203.04 325.23 202.35 324.78 202.08 
M 323.47 147.49 324.18 147.25 325.1 146.62 325.69 145.92 325.69 145.48 325.1 144.78 324.18 144.16 323.47 143.91 
M 323.9 153.86 324.59 153.59 325.48 152.92 326.06 152.15 326.06 151.68 325.48 150.91 324.59 150.23 323.9 149.97 
M 324.55 160.69 325.22 160.41 326.07 159.69 326.63 158.87 326.63 158.37 326.07 157.55 325.22 156.83 324.55 156.55 
M 325.26 167.77 325.91 167.48 326.74 166.74 327.27 165.9 327.27 165.38 326.74 164.54 325.91 163.8 325.26 163.51 
M 325.89 174.9 326.52 174.61 327.31 173.86 327.83 173.02 327.83 172.49 327.31 171.65 326.52 170.9 325.89 170.61 
M 326.39 182.03 326.99 181.74 327.76 180.99 328.26 180.15 328.26 179.63 327.76 178.79 326.99 178.05 326.39 177.76 
M 326.72 189.06 327.3 188.77 328.04 188.04 328.52 187.21 328.52 186.7 328.04 185.87 327.3 185.14 326.72 184.85 
M 326.87 195.94 327.43 195.66 328.15 194.95 328.61 194.14 328.61 193.63 328.15 192.82 327.43 192.11 326.87 191.83 
M 326.87 202.68 327.42 202.41 328.12 201.71 328.57 200.92 328.57 200.43 328.12 199.63 327.42 198.93 326.87 198.66 
M 326.01 145.01 326.6 144.78 327.36 144.19 327.85 143.52 327.85 143.3 
M 326.28 151.06 326.86 150.81 327.61 150.17 328.09 149.44 328.09 148.99 327.61 148.26 326.86 147.61 326.28 147.36 
M 326.76 157.62 327.33 157.35 328.05 156.65 328.52 155.86 328.52 155.38 328.05 154.59 327.33 153.9 326.76 153.63 
M 327.42 164.56 327.96 164.27 328.66 163.55 329.11 162.72 329.11 162.21 328.66 161.39 327.96 160.66 327.42 160.38 
M 328.02 171.6 328.55 171.31 329.21 170.58 329.64 169.74 329.64 169.22 329.21 168.39 328.55 167.65 328.02 167.36 
M 328.52 178.67 329.02 178.38 329.66 177.64 330.07 176.81 330.07 176.29 329.66 175.46 329.02 174.72 328.52 174.43 
M 328.86 185.68 329.34 185.4 329.96 184.67 330.36 183.84 330.36 183.33 329.96 182.51 329.34 181.78 328.86 181.49 
M 329.01 192.57 329.48 192.29 330.08 191.57 330.46 190.76 330.46 190.26 330.08 189.45 329.48 188.73 329.01 188.45 
M 329.01 199.33 329.47 199.06 330.05 198.35 330.43 197.56 330.43 197.06 330.05 196.27 329.47 195.57 329.01 195.29 
M 330.29 204.13 330.29 203.74 329.93 202.97 329.36 202.28 328.91 202.01 
M 329.1 154.78 329.78 154.52 330.65 153.86 331.21 153.11 331.21 152.64 330.65 151.89 329.78 151.23 329.1 150.97 
M 330.57 175.29 331.17 175.01 331.95 174.28 332.44 173.46 332.44 172.95 331.95 172.12 331.17 171.4 330.57 171.11 
M 330.9 182.25 331.48 181.97 332.23 181.24 332.71 180.42 332.71 179.91 332.23 179.09 331.48 178.37 330.9 178.08 
M 331.08 189.14 331.65 188.86 332.37 188.15 332.83 187.34 332.83 186.83 332.37 186.02 331.65 185.3 331.08 185.02 
M 331.11 195.92 331.66 195.64 332.36 194.94 332.81 194.14 332.81 193.65 332.36 192.85 331.66 192.14 331.11 191.87 
M 331.01 202.56 331.55 202.29 332.23 201.6 332.67 200.82 332.67 200.34 332.23 199.56 331.55 198.87 331.01 198.6 
M 331.49 152.01 332.05 151.76 332.78 151.13 333.25 150.41 333.25 149.96 332.78 149.24 332.05 148.6 331.49 148.36 
M 332.33 165.17 332.86 164.9 333.54 164.19 333.98 163.4 333.98 162.9 333.54 162.1 332.86 161.4 332.33 161.12 
M 332.72 172 333.23 171.72 333.87 171.01 334.29 170.2 334.29 169.7 333.87 168.89 333.23 168.17 332.72 167.9 
M 333.16 199.22 333.61 198.95 334.18 198.26 334.55 197.47 334.55 196.99 334.18 196.2 333.61 195.51 333.16 195.24 
M 334.08 203.08 333.39 202.12 332.96 201.86 
M 334.18 155.6 334.84 155.34 335.68 154.69 336.22 153.95 336.22 153.5 335.68 152.76 334.84 152.11 334.18 151.85 
M 334.53 162.09 335.16 161.83 335.98 161.14 336.5 160.37 336.5 159.89 335.98 159.12 335.16 158.44 334.53 158.18 
M 335.28 182.36 335.84 182.08 336.57 181.37 337.03 180.56 337.03 180.06 336.57 179.26 335.84 178.55 335.28 178.27 
M 336.35 146.88 336.9 146.65 337.6 146.06 338.06 145.23 
M 336.55 152.82 337.1 152.58 337.79 151.95 338.24 151.24 338.24 150.8 337.79 150.09 337.1 149.46 336.55 149.21 
M 337.1 165.64 337.61 165.38 338.26 164.7 338.68 163.92 338.68 163.45 338.26 162.67 337.61 161.99 337.1 161.73 
M 337.27 172.26 337.76 171.99 338.38 171.3 338.79 170.51 338.79 170.03 338.38 169.24 337.76 168.55 337.27 168.28 
M 337.39 178.99 337.86 178.71 338.47 178.01 338.86 177.21 338.86 176.72 338.47 175.92 337.86 175.22 337.39 174.94 
M 339.5 175.67 340.07 175.39 340.8 174.7 341.27 173.92 341.27 173.43 340.8 172.64 340.07 171.95 339.5 171.68 
M 339.57 182.39 340.13 182.12 340.84 181.41 341.3 180.62 341.3 180.13 340.84 179.33 340.13 178.63 339.57 178.36 
M 341.36 153.37 341.86 153.13 342.52 152.51 342.94 151.8 342.94 151.37 342.52 150.67 341.86 150.05 341.36 149.81 
M 343.75 162.77 344.33 162.52 345.06 161.87 345.54 161.13 345.54 160.67 345.06 159.93 344.33 159.28 343.75 159.02 
M 345.79 147.82 346.6 147.3 
M 345.95 165.97 346.41 165.71 347 165.05 347.38 164.3 347.38 163.84 347 163.1 346.41 162.44 345.95 162.18 
M 345.95 185.76 346.41 185.49 346.99 184.79 347.37 184 347.37 183.51 346.99 182.72 346.41 182.02 345.95 181.75 
M 345.34 198.57 345.79 198.32 346.36 197.68 346.73 196.95 346.73 196.5 346.36 195.77 345.79 195.13 345.34 194.88 
M 348.05 169.18 348.6 168.92 349.31 168.26 349.76 167.5 349.76 167.03 349.31 166.27 348.6 165.6 348.05 165.34 
M 348.06 175.73 348.61 175.47 349.32 174.78 349.77 174 349.77 173.52 349.32 172.75 348.61 172.06 348.06 171.79 
M 350.17 159.69 350.63 159.44 351.21 158.81 351.59 158.09 351.59 157.65 351.21 156.94 350.63 156.31 350.17 156.06 
M 350.16 172.42 350.62 172.16 351.21 171.48 351.59 170.71 351.59 170.23 351.21 169.46 350.62 168.78 350.16 168.51 
M 350.17 179.05 350.63 178.78 351.22 178.08 351.6 177.3 351.6 176.81 351.22 176.03 350.63 175.33 350.17 175.06 
M 350.18 185.76 350.64 185.49 351.22 184.79 351.6 184 351.6 183.51 351.22 182.72 350.64 182.02 350.18 181.75 
M 352.28 150.81 352.84 150.58 353.55 149.99 353.96 149.4 
M 352.28 156.67 352.83 156.43 353.54 155.81 353.99 155.11 353.99 154.68 353.54 153.98 352.83 153.37 352.28 153.13 
M 352.25 162.79 352.8 162.53 353.5 161.89 353.95 161.16 353.95 160.71 353.5 159.98 352.8 159.34 352.25 159.08 
M 352.25 169.16 352.8 168.9 353.5 168.23 353.96 167.47 353.96 167 353.5 166.24 352.8 165.57 352.25 165.31 
M 352.28 175.73 352.83 175.47 353.54 174.78 353.99 174 353.99 173.52 353.54 172.74 352.83 172.05 352.28 171.78 
M 352.29 182.41 352.84 182.13 353.55 181.44 354.01 180.65 354.01 180.16 353.55 179.37 352.84 178.68 352.29 178.41 
M 352.24 189.07 352.8 188.8 353.5 188.11 353.96 187.33 353.96 186.85 353.5 186.08 352.8 185.39 352.24 185.12 
M 351.9 195.42 352.46 195.16 353.17 194.51 353.62 193.77 353.62 193.31 353.17 192.57 352.46 191.92 351.9 191.66 
M 354.4 153.67 354.86 153.43 355.45 152.83 355.82 152.15 355.82 151.73 355.45 151.05 354.86 150.44 354.4 150.21 
M 354.37 159.65 354.82 159.4 355.41 158.77 355.79 158.06 355.79 157.62 355.41 156.91 354.82 156.28 354.37 156.03 
M 354.32 165.88 354.78 165.63 355.37 164.97 355.75 164.22 355.75 163.76 355.37 163.01 354.78 162.36 354.32 162.1 
M 354.38 172.41 354.84 172.14 355.42 171.46 355.8 170.69 355.8 170.21 355.42 169.44 354.84 168.76 354.38 168.49 
M 354.41 179.05 354.87 178.78 355.45 178.09 355.83 177.3 355.83 176.81 355.45 176.03 354.87 175.33 354.41 175.06 
M 354.41 185.76 354.87 185.49 355.45 184.79 355.83 184 355.83 183.51 355.45 182.72 354.87 182.02 354.41 181.75 
M 354.31 192.38 354.78 192.11 355.37 191.44 355.75 190.67 355.75 190.2 355.37 189.44 354.78 188.76 354.31 188.5 
M 355.12 196.32 354.8 195.72 354.2 195.09 353.74 194.84 
M 356.52 150.81 357.27 150.42 
M 356.5 156.66 357.05 156.42 357.75 155.8 358.21 155.1 358.21 154.67 357.75 153.98 357.05 153.36 356.5 153.12 
M 356.46 162.77 357.01 162.52 357.72 161.87 358.18 161.14 358.18 160.69 357.72 159.96 357.01 159.32 356.46 159.07 
M 356.47 169.15 357.02 168.89 357.73 168.22 358.19 167.46 358.19 166.99 357.73 166.23 357.02 165.56 356.47 165.3 
M 356.51 175.73 357.06 175.46 357.77 174.78 358.22 174 358.22 173.51 357.77 172.73 357.06 172.05 356.51 171.78 
M 356.52 182.41 357.07 182.14 357.78 181.44 358.23 180.65 358.23 180.16 357.78 179.37 357.07 178.68 356.52 178.4 
M 356.48 189.08 357.03 188.81 357.74 188.12 358.2 187.34 358.2 186.86 357.74 186.08 357.03 185.39 356.48 185.12 
M 356.17 195.46 356.73 195.21 357.45 194.55 357.91 193.81 357.91 193.35 357.45 192.6 356.73 191.95 356.17 191.69 
M 358.63 153.67 359.09 153.43 359.68 152.83 360.06 152.15 360.06 151.73 359.75 151.17 
M 358.6 159.65 359.06 159.4 359.65 158.77 360.03 158.06 360.03 157.62 359.65 156.91 359.06 156.28 358.6 156.03 
M 358.56 165.89 359.03 165.64 359.62 164.98 360 164.23 360 163.77 359.62 163.02 359.03 162.36 358.56 162.11 
M 358.61 172.41 359.07 172.15 359.66 171.47 360.04 170.7 360.04 170.22 359.66 169.45 359.07 168.76 358.61 168.5 
M 358.64 179.05 359.09 178.78 359.68 178.09 360.06 177.3 360.06 176.81 359.68 176.03 359.09 175.33 358.64 175.06 
M 358.63 185.77 359.09 185.49 359.68 184.79 360.06 184 360.06 183.51 359.68 182.72 359.09 182.02 358.63 181.74 
M 358.57 192.42 359.03 192.15 359.63 191.47 360.01 190.7 360.01 190.22 359.63 189.45 359.03 188.77 358.57 188.51 
M 358.57 195.2 358.07 194.92 
M 360.74 156.67 361.29 156.43 362 155.81 362.45 155.11 362.45 154.68 362 153.98 361.29 153.37 360.74 153.13 
M 360.71 162.79 361.27 162.54 361.98 161.89 362.44 161.16 362.44 160.71 361.98 159.98 361.27 159.34 360.71 159.09 
M 360.72 169.17 361.27 168.91 361.98 168.24 362.44 167.48 362.44 167.01 361.98 166.25 361.27 165.58 360.72 165.32 
M 360.74 175.73 361.29 175.47 362 174.78 362.46 174 362.46 173.52 362 172.74 361.29 172.05 360.74 171.79 
M 360.75 182.41 361.3 182.13 362 181.44 362.46 180.65 362.46 180.16 362 179.37 361.3 178.67 360.75 178.4 
M 360.73 189.11 361.28 188.84 361.99 188.14 362.44 187.36 362.44 186.87 361.99 186.09 361.28 185.4 360.73 185.13 
M 362.13 194.06 362.23 193.42 361.77 192.67 361.04 192.01 360.48 191.75 
M 362.87 153.68 363.33 153.45 364.07 152.55 
M 362.85 159.68 363.32 159.44 363.91 158.8 364.29 158.09 364.29 157.65 363.91 156.93 363.32 156.3 362.85 156.05 
M 362.84 165.94 363.3 165.68 363.9 165.02 364.28 164.28 364.28 163.81 363.9 163.07 363.3 162.41 362.84 162.15 
M 362.86 172.43 363.32 172.16 363.91 171.48 364.29 170.71 364.29 170.24 363.91 169.47 363.32 168.79 362.86 168.52 
M 362.86 179.04 363.32 178.77 363.91 178.08 364.28 177.29 364.28 176.81 363.91 176.02 363.32 175.33 362.86 175.06 
M 362.86 185.76 363.32 185.49 363.9 184.79 364.28 183.99 364.28 183.5 363.9 182.71 363.32 182 362.86 181.73 
M 362.84 192.48 363.3 192.21 363.9 191.52 364.28 190.74 364.28 190.26 363.9 189.48 363.3 188.79 362.84 188.52 
M 364.97 156.68 365.52 156.44 366.23 155.82 366.68 155.12 366.68 154.69 366.23 153.99 365.52 153.37 364.97 153.12 
M 364.97 162.82 365.52 162.57 366.23 161.92 366.69 161.19 366.69 160.74 366.23 160.01 365.52 159.36 364.97 159.11 
M 364.97 169.19 365.53 168.93 366.23 168.26 366.69 167.5 366.69 167.03 366.23 166.28 365.53 165.61 364.97 165.35 
M 364.97 175.73 365.52 175.46 366.23 174.77 366.68 174 366.68 173.52 366.23 172.74 365.52 172.06 364.97 171.79 
M 364.96 182.39 365.51 182.12 366.21 181.42 366.67 180.63 366.67 180.14 366.21 179.35 365.51 178.66 364.96 178.38 
M 364.96 189.13 365.51 188.86 366.22 188.16 366.68 187.37 366.68 186.88 366.22 186.09 365.51 185.39 364.96 185.12 
M 366.13 192.81 365.37 192.08 364.81 191.81 
M 367.07 153.67 367.25 153.58 
M 367.1 159.7 367.55 159.45 368.14 158.82 368.52 158.1 368.52 157.66 368.14 156.94 367.55 156.3 367.1 156.06 
M 367.1 165.96 367.56 165.71 368.15 165.05 368.53 164.3 368.53 163.84 368.15 163.1 367.56 162.44 367.1 162.18 
M 367.09 172.42 367.55 172.16 368.14 171.48 368.52 170.71 368.52 170.24 368.14 169.47 367.55 168.8 367.09 168.53 
M 367.07 179.02 367.53 178.75 368.11 178.06 368.49 177.27 368.49 176.79 368.11 176.01 367.53 175.31 367.07 175.04 
M 367.06 185.75 367.52 185.47 368.1 184.77 368.48 183.97 368.48 183.48 368.1 182.68 367.52 181.97 367.06 181.7 
M 367.15 192.5 367.56 192.26 368.14 191.56 368.52 190.77 368.52 190.28 368.14 189.49 367.56 188.79 367.09 188.52 
M 369.18 156.67 369.72 156.43 370.42 155.8 370.88 155.1 370.88 154.77 
M 369.2 162.82 369.75 162.57 370.46 161.92 370.91 161.19 370.91 160.74 370.46 160.01 369.75 159.36 369.2 159.11 
M 369.2 169.18 369.75 168.92 370.45 168.25 370.91 167.5 370.91 167.03 370.45 166.28 369.75 165.61 369.2 165.35 
M 369.18 175.7 369.72 175.43 370.42 174.75 370.88 173.97 370.88 173.5 370.42 172.72 369.72 172.04 369.18 171.77 
M 369.15 182.36 369.7 182.08 370.4 181.38 370.85 180.59 370.85 180.11 370.4 179.31 369.7 178.62 369.15 178.34 
M 369.17 189.13 369.72 188.85 370.42 188.15 370.87 187.35 370.87 186.86 370.42 186.06 369.72 185.36 369.17 185.08 
M 369.15 191.88 369.12 191.86 
M 371.3 159.68 371.76 159.44 372.34 158.8 372.72 158.08 372.72 157.63 372.34 156.91 371.76 156.27 371.3 156.02 
M 371.31 165.95 371.77 165.69 372.35 165.03 372.73 164.29 372.73 163.83 372.35 163.08 371.77 162.43 371.31 162.17 
M 371.23 185.69 371.68 185.42 372.26 184.71 372.63 183.91 372.63 183.41 372.26 182.62 371.68 181.91 371.23 181.63 
M 373.36 156.64 374.39 155.96 
M 373.41 162.8 373.95 162.55 374.66 161.9 375.11 161.17 375.11 160.71 374.66 159.98 373.95 159.33 373.41 159.08 
M 375.48 172.33 375.93 172.07 376.52 171.4 376.89 170.64 376.89 170.17 376.52 169.4 375.93 168.73 375.48 168.47 
M 375.41 178.88 375.86 178.61 376.43 177.93 376.81 177.15 376.81 176.67 376.43 175.89 375.86 175.2 375.41 174.94 
M 375.35 185.57 375.79 185.3 376.36 184.59 376.72 183.79 376.72 183.3 376.36 182.5 375.79 181.8 375.35 181.52 
M 377.52 175.56 378.07 175.3 379 174.23 
M 206.41 129.89 260.54 38.36 261.36 38.83 209.93 130.56 
M 220.49 129.16 253.65 67.76 254.49 68.19 223.89 129.94 
M 234.61 129.44 253.17 94.13 254.02 94.54 237.97 130.22 
M 248.69 130.32 256.45 115.58 257.31 115.96 251.97 131.18 
M 269.33 132.38 270.93 132.96 
M 256.16 48.11 253.68 53.57 251.76 59.16 251.11 62.03 250.68 64.94 250.45 67.9 250.34 73.9 
M 251.39 74.44 250.16 79.6 249.73 82.18 249.5 84.75 249.49 87.33 250.12 92.5 251.32 97.66 
M 252.38 98.18 251.92 102.58 252.02 106.89 252.38 108.98 252.97 111.04 253.75 113.07 255.67 117.05 
M 256.76 117.53 258.88 121.72 261.42 125.53 262.94 127.22 264.62 128.77 266.44 130.18 270.37 132.75 
M 254.88 50.83 252.62 56.34 251.76 59.16 251.11 62.03 250.68 64.94 250.35 70.89 
M 250.89 58.78 248.86 63.74 248.08 66.28 247.49 68.86 247.11 71.48 246.81 76.83 
M 246.89 66.73 245.09 71.14 244.4 73.4 243.54 78.02 243.27 82.78 
M 242.9 74.68 241.32 78.54 240.71 80.51 239.96 84.56 239.73 88.72 
M 238.91 82.63 237.55 85.94 237.03 87.63 236.39 91.1 236.19 94.67 
M 234.91 90.59 233.35 94.75 232.81 97.64 232.65 100.62 
M 230.92 98.54 230.01 100.74 229.41 103.01 229.11 106.56 
M 250.74 77.02 249.73 82.18 249.5 84.75 249.49 87.33 249.71 89.91 250.68 95.08 
M 246.94 86.3 246.12 90.56 245.92 94.81 246.1 96.94 246.9 101.2 
M 243.15 95.58 242.5 98.94 242.35 100.61 242.48 103.97 243.11 107.32 
M 239.36 104.87 238.77 108.54 238.87 110.99 239.33 113.44 
M 252.11 100.39 251.87 104.75 252.02 106.89 252.38 108.98 252.97 111.04 254.67 115.07 
M 158.37 162.19 196.84 148.19 197.19 149.07 159.63 165.34 
M 158.52 165.91 226.49 146.89 226.76 147.79 159.49 169.16 
M 158.66 169.64 247.79 152.69 247.98 153.62 159.34 172.96 
M 158.81 173.39 260.85 163.07 260.96 164.01 159.19 176.76 
M 158.96 177.14 260.43 175.94 260.45 176.89 159.04 180.54 
M 159.11 180.92 262.74 188.88 262.68 189.82 158.89 184.3 
M 159.26 184.7 253.55 200.54 253.4 201.47 158.74 188.06 
M 159.41 188.5 241.1 209.96 240.87 210.87 158.6 191.8 
M 159.55 192.31 223.62 215.63 223.31 216.53 158.45 195.52 
M 165 197.64 196.56 212.88 196.17 213.74 158.33 198.19 
M 193.43 150.69 199.36 151.48 205.24 151.7 208.16 151.49 211.06 151.05 213.94 150.42 219.69 148.79 
M 220.03 149.93 223.94 152.1 227.98 153.72 230.07 154.21 232.22 154.49 234.41 154.58 238.87 154.39 
M 239.11 155.55 240.95 158.43 243.13 160.84 244.42 161.79 245.83 162.56 247.36 163.18 250.65 164.11 
M 250.78 165.29 249.46 167.62 248.71 169.99 248.65 171.19 248.82 172.4 249.18 173.61 250.28 176.06 
M 250.31 177.25 249.58 179.89 249.41 182.41 249.64 183.62 250.09 184.78 250.73 185.9 252.38 188.08 
M 252.3 189.26 249.56 190.64 248.33 191.44 247.25 192.37 246.34 193.45 245.01 196.02 244.12 198.96 
M 243.94 200.13 240.8 200.84 239.33 201.35 237.98 202.02 236.76 202.88 234.68 205.11 232.93 207.81 
M 232.64 208.97 228.89 208.76 227.06 208.84 225.28 209.11 223.57 209.59 220.32 211.17 217.21 213.3 
M 216.83 214.42 211.67 212.49 209.07 211.7 206.44 211.11 203.77 210.74 198.36 210.64 192.87 211.1 
M 196.4 151.12 202.3 151.69 205.24 151.7 208.16 151.49 211.06 151.05 216.82 149.65 
M 221.98 151.05 225.94 153 227.98 153.72 230.07 154.21 232.22 154.49 236.63 154.52 
M 199.94 157.48 202.51 158.75 203.84 159.21 206.59 159.71 209.46 159.73 
M 240.01 157.02 241.99 159.71 243.13 160.84 244.42 161.79 245.83 162.56 248.98 163.67 
M 211.66 162.68 212.94 164.43 213.69 165.16 215.44 166.28 217.49 167 
M 250.08 166.45 248.99 168.8 248.71 169.99 248.65 171.19 248.82 172.4 249.69 174.84 
M 228.83 168.9 227.99 170.7 227.78 171.62 227.86 173.46 228.53 175.33 
M 207.58 171.35 206.99 172.61 206.81 173.88 207.37 175.83 
M 249.91 178.58 249.4 181.17 249.41 182.41 249.64 183.62 250.09 184.78 251.52 187 
M 228.7 179.08 228.3 181.06 228.31 182.02 228.83 183.83 229.93 185.53 
M 207.48 179.58 207.22 181.63 207.58 182.89 208.34 184.07 
M 250.9 189.93 248.33 191.44 247.25 192.37 246.34 193.45 245.6 194.67 244.54 197.46 
M 229.46 188.66 227.49 189.82 225.96 191.36 225.39 192.3 224.58 194.44 
M 208.02 187.39 206.07 188.7 205.19 189.92 204.62 191.41 
M 242.35 200.46 239.33 201.35 237.98 202.02 236.76 202.88 235.66 203.91 233.78 206.43 
M 213.18 196.19 211.22 196.77 210.34 197.21 208.83 198.44 207.61 200.07 
M 230.75 208.83 227.06 208.84 225.28 209.11 223.57 209.59 221.92 210.29 218.75 212.2 
M 205.64 202.95 203.24 202.96 202.09 203.13 199.9 203.9 197.84 205.14 
M 214.25 213.42 209.07 211.7 206.44 211.11 203.77 210.74 201.08 210.59 195.62 210.83 
M 180.87 214.68 183.39 217.85 186.12 220.49 188.03 223.01 192.49 228.03 195.48 229.97 200.16 234.86 202.25 238.14 202.9 239.59 201.44 245.62 199.4 247.49 197.99 249.98 196.39 252.28 195.52 254.61 195.5 258.06 193.78 260.29 191.34 261.81 189.17 263.83 184.19 271.63 182.51 268.69 181.97 267.08 181.31 263.84 180.26 260.16 179.98 255.98 179.18 253.08 178.94 249.71 179.16 246.73 178.85 244.4 177.5 241.57 176.54 238.28 175.27 232 174.76 228.65 174.96 225.9 174.86 222.38 173.75 219.65 171.86 212.66 
M 179.03 214.27 181.4 217.95 183.42 220.68 185.47 223.09 188.99 228.13 191.33 230.67 193.51 234.16 195.29 236.12 
M 177.19 213.86 179.47 217.82 180.66 221.25 182.2 224.04 184.17 225.82 188.04 230.7 
M 175.35 213.45 177.06 217.43 178.82 224.01 181.6 228.75 183.65 230.74 184.89 233.61 
M 173.51 213.03 176.69 223.57 177.2 226.48 178.23 229.14 179.7 230.74 180.58 234.21 180.34 237.61 181.88 241.33 
M 344.2 201.98 349.6 209.43 348.92 210.08 341.74 204.32 
M 330.81 206.42 348.32 228.25 347.61 228.87 328.26 208.65 
M 317.21 210.14 337.22 237.6 336.48 238.18 314.54 212.23 
M 303.5 213.48 322.38 241.52 321.62 242.07 300.76 215.48 
M 289.72 216.55 303.12 238.11 302.35 238.65 286.93 218.47 
M 281.34 218.39 285.39 226.65 284.61 227.18 278.52 220.28 
M 348.2 209.51 346.63 213.07 346.03 214.87 345.63 216.68 345.44 218.52 345.72 222.27 346.56 226.07 
M 345.67 226.85 342.61 227.67 339.9 228.93 338.74 229.82 337.71 230.89 336.8 232.11 335.22 234.86 
M 334.28 235.59 330.95 235.1 329.33 235.04 327.75 235.17 326.21 235.51 323.29 236.84 320.5 238.71 
M 319.54 239.41 315.82 237.45 312 236.05 310.03 235.67 308.01 235.5 305.96 235.53 301.78 235.95 
M 300.81 236.63 297.97 233.23 294.82 230.3 293.06 229.1 291.18 228.08 289.18 227.23 284.99 225.83 
M 344.12 227.23 341.19 228.22 339.9 228.93 338.74 229.82 337.71 230.89 335.99 233.45 
M 336.62 220.97 334.72 221.62 333.88 222.08 332.46 223.36 331.34 225.02 
M 332.61 235.31 329.33 235.04 327.75 235.17 326.21 235.51 324.73 236.08 321.88 237.74 
M 327.1 230.06 324.58 229.86 323.37 229.96 321.06 230.65 318.88 231.93 
M 321.59 224.82 319 224.74 317.39 225.23 315.87 226.11 
M 317.69 238.39 313.93 236.66 312 236.05 310.03 235.67 308.01 235.5 303.88 235.71 
M 309.83 230.55 307.38 229.43 304.85 228.78 303.54 228.68 300.85 228.81 
M 379 157.51 382.15 156.78 384.73 155.61 386.92 154.09 389 152.92 391.16 151.27 394.33 149.18 396.69 147.21 398.84 145.91 406.3 143.65 409.6 141.75 414.08 137.85 416.7 136.58 419.51 134.63 423 133.31 425.21 131.75 427.99 130.28 430.86 129.42 432.56 128.69 435.34 126.27 437.72 125.5 439.98 124.12 440.27 121.65 442.19 118.65 443.5 116.97 446.56 115.73 450.5 114.54 454.52 112.94 458.66 110.98 459.8 109.74 464.09 106.91 474.82 108.77 478.27 112.82 483.09 118.02 485.77 119.51 490 121.36 489.93 123.33 489.11 128.44 488.49 130.79 488.37 133.64 487.79 136.7 487.55 140.29 485.97 142.54 484.04 144.44 482.6 146.93 481.65 149.91 480.36 156.48 478.41 158.45 476.03 160.03 472.69 160.51 470.15 161.8 465.69 165.1 462.81 169.97 462.24 173.27 460.73 175.62 460.29 177.54 459.63 179.24 460.1 181.23 466.9 190.46 474.25 201.47 482.21 211.12 488.01 219.34 489.27 221.89 488.67 224.28 488.47 230.04 488.7 233.32 487.83 236.25 487.3 239.51 486.27 242.27 484.49 244.31 481.18 244.73 478.21 245.49 475.83 246.47 464.12 247.76 461.53 246.43 458.46 245.35 456.81 244.15 454.07 242.66 451.63 240.8 447.91 239.32 445.45 239.04 442.38 237.13 440.09 234.2 437.27 231.98 434.8 230.43 432.63 227.89 430.78 226.2 429.2 225.43 427.23 225.04 421.53 220.93 418.75 219.61 416.39 216.97 414.66 214.56 409.71 211.68 406.91 210.36 404.74 208.42 401.85 206.55 399.07 206.07 396.75 204.54 393.93 202.2 392.06 200.41 384.79 194.75 382.08 192.89 379 190.47 
M 379 159.47 384.79 157.79 392.06 154.16 397.53 150.88 402.37 148.73 404.58 147.91 407.38 146.54 410.54 145.32 415.69 141.63 418.02 140.47 423.38 137.37 426.15 136.85 428.59 135.26 431.81 133.67 435.38 133.11 
M 382.15 160.74 387.53 159.23 392.55 156.51 395.46 155.5 399.93 153.62 403.02 152.25 405.37 150.92 411.89 148.72 428.07 140.5 434.12 140.38 435.75 138.69 439.15 137.36 441.16 136.09 446.85 133.85 451.27 131.05 452.45 130.09 455.08 129.08 457.72 127.06 461.08 126.04 463.86 124.61 465.57 123.97 468.62 121.66 471.21 120.43 472.74 119.42 476 118.48 478.52 117.42 
M 379 163.38 385 162.55 387.82 161.89 393.21 159.32 395.81 158.36 401.12 157.27 406.18 154.73 416.09 152.1 418.99 150.61 421.6 149.94 424.53 148.79 427.15 147.42 429.32 147.18 431.61 146.71 440.56 143.75 441.86 141.69 443.65 139.87 449.95 138.81 452.27 137.77 454.77 136.95 458.8 135.21 462.02 133.59 464.22 132.74 466.72 131.96 469.79 132.55 473.5 132.21 
M 382.41 165.33 387.91 164.46 390.77 163.32 393.71 162.44 396.35 162.02 399.23 160.63 404.4 159.71 410.57 157.95 417.55 157.66 419.85 155.89 422.18 155.07 424.4 153.27 427.55 152.72 430.57 153.44 432.18 153.16 434.7 152.03 437.09 152.18 439.95 151.26 442.45 149.46 445.45 148.19 
M 388.03 166.91 390.63 165.78 393.84 164.96 406 163.71 409.01 162.73 412.42 161.97 418.38 161.31 422.24 158.47 424.54 157.95 427.26 158.51 431.06 158.78 435.79 157.65 439.3 158.21 443.51 157.25 446.47 156.51 448.11 154.92 450.58 153.69 453.3 152.85 456.76 152.33 458.53 150.59 464.07 147.59 466.46 148.88 
M 379 169.24 382.59 169.44 385.85 169.32 391.24 168.93 396.79 167.95 399.8 168.14 407.89 167.12 410.92 167.14 413.67 166.19 416.49 165.77 419.19 164.86 421.14 164.56 423.5 163.16 426.88 163.02 430.94 163.38 
M 382.57 171.64 386.26 171.45 389.35 171.52 391.87 172.22 394.62 171.8 404.49 171.04 408.03 170.53 410.87 170.68 416.69 169.28 419.2 169.22 422.11 169.36 424.73 168.62 427.68 168.38 430.57 167.91 
M 386.08 173.88 389.24 174.18 394.08 175.21 397.24 175.64 404.07 175.61 407.31 174.97 410.6 174.98 414.22 174.39 417.16 173.68 420.08 173.69 424.56 174.95 430.25 175.78 434.6 174.55 442.5 175.81 
M 389.07 176.57 397.21 178.9 400.9 178.86 410.37 179.38 416.94 177.99 420.06 177.71 422.68 178.81 424.64 180.08 426.98 180.64 
M 386.06 178.96 391.42 179.59 397.68 181.46 403.59 181.82 406.1 181.77 409.03 182.49 411.9 182.36 415.1 182.58 418.4 182.96 421.37 183.69 424.19 184.86 426.7 185.15 434.35 185.53 437.58 185.94 440.36 186.99 445.75 189.98 448.54 190.75 
M 385.56 181.22 388.34 181.99 391.56 182.34 394.98 183.04 397.86 183.9 401.02 184.06 403.36 184.37 405.4 185.27 408.73 185.42 414.31 187.23 417.66 187.61 427.1 189.85 429.7 190.95 432.48 191.8 435.99 191.38 438.87 192.12 
M 382.27 182.42 391.11 185.37 394.56 185.91 397.67 186.85 403.09 187.82 408.91 189.56 410.71 191.4 413.57 192.24 416.04 193.39 419.82 193.71 427.8 193.33 430.3 193.94 432.16 195.74 434.77 197.23 437.25 197.89 440.02 199.21 443.38 200.19 447.3 200.24 449.63 201.08 451.34 202.09 
M 379 182.93 385.02 185.73 391.07 188.05 402.61 191.57 411.01 194.67 412.91 196.35 415.72 197.91 418.77 198.68 422.61 199.2 425.65 198.64 427.69 199.56 430 201.5 433.13 203.04 436.32 204.13 
M 379 184.88 382.19 186.75 387.74 189.47 390.71 190.58 393.34 191.99 396.06 193.17 398.72 194.09 401.33 194.74 410.56 198.04 413.31 200.17 415.7 202.46 418.8 203.45 421.48 203.32 425.87 205.46 428.59 207 431.7 207.88 434.05 209.62 438.96 212.44 442.08 213.2 444.71 213.44 446.7 214.34 
M 379 186.84 382.16 188.82 387.8 191.9 392.54 194.87 395.4 196.35 403.55 199.72 407.09 200.33 409.96 201.88 412.3 203.4 418.11 207.62 420.53 208.51 422.89 210.1 424.69 210.18 427.41 211.65 430.09 213.78 432.19 215.18 434.45 217.46 436.97 218.71 440.14 219.37 443.2 220.78 448.92 222.93 451.58 223.3 454.58 225 456.8 226.82 460.08 227.41 462.54 228.42 467.77 231.65 472.19 232.4 476.99 234.63 478.23 237.04 
M 385.03 192.75 387.81 194.48 394.52 199.57 397.09 200.98 400.03 202.29 403.02 203.53 406.6 204.66 408.77 206.36 411.83 207.68 414.19 209.25 416.15 211.24 418.24 212.69 423.59 215.78 425.43 217.21 430.32 219.75 
M 297.94 137.67 301.44 142.25 314.43 126.71 315.13 123.48 320.64 117.2 322.3 114.93 323.6 112.25 325.45 110.17 328 108.79 329.63 106.46 332.44 105.28 335.85 104.7 339.44 106.47 341.78 106.49 344.63 105.8 346.29 103.92 348.74 102.84 355.12 105.85 358.03 108.57 357.86 112.9 357.51 114.38 360.3 120.93 360.33 125.26 361.13 131.12 361.39 134.78 355.25 153.17 351.98 148.8 
M 302.52 138.81 305.08 138.11 306.67 135.59 
M 307.09 139.94 309.52 138.18 312.89 133.86 313.7 132.13 314.83 130.23 316.47 126.72 317.7 123.55 320.46 121.32 322.37 119.47 
M 311.74 140.72 314.02 139.05 315.6 137.34 319.32 129.5 321.12 123.2 324.08 121.3 325.8 119.32 325.88 116.94 326.74 115.43 
M 316.39 141.49 319.02 140.24 320.84 138.3 322.42 135.97 323.09 133.13 323.3 130.27 324.5 127.67 327.74 123.45 328.29 121.46 331.54 115.88 
M 321.04 142.2 323.42 140.76 325.16 139.19 326.58 136.96 327.5 133.96 328.93 127.65 330.36 126.41 331.13 125.42 332.08 123.32 333.56 121.38 335.69 118.02 
M 325.7 142.93 327.84 140.97 330.85 137.19 331.83 134.74 333.28 131.82 334.04 128.55 335.65 126 337.94 124.25 339.05 121.8 341.66 118.4 344.69 108.94 346.14 107.04 
M 330.34 143.73 332.69 141.96 335.42 139.02 338.33 133.35 340.34 130.06 341.48 127.59 345.32 123.21 347.07 120.06 348.8 116.43 351.15 112.88 
M 334.98 144.58 337.62 143.81 338.79 142.4 339.71 140.34 341.75 137.91 343.35 134.31 345.07 132.33 
M 339.59 145.56 342.46 145.09 344.15 143.08 345.95 141.28 347.72 139.09 348.74 136.88 350.18 134.59 351.95 133.01 353.06 130.99 355.36 128.45 
M 344.18 146.62 346.72 145.78 348.38 143.93 350.8 142.8 354.54 138.43 
M 348.71 147.89 351.63 146.94 356.78 143.59 358.77 140.43 361.31 137.15 
M 52.87 169.62 54.95 168.17 57.93 166.51 61.87 164.78 71.67 161.18 78.05 159.25 85.22 157.9 91.87 155.88 106.56 151.06 121.19 148 133.76 144.72 144.87 142.22 151 144.88 153.1 148.15 154.69 151.49 155.65 154.92 156.05 158.42 157.17 161.82 157.37 165.35 157.12 168.94 157.79 172.41 158.24 175.91 157.97 183.06 157.28 186.71 157.03 190.3 157.54 193.79 158.34 197.23 158.29 200.8 157.17 204.51 153.76 208.57 139.11 208.73 128.1 208.43 118.2 207.48 109.42 206.3 101.3 204.33 81.12 198.04 75.93 195.77 71.26 192.98 67.47 190.46 
M 131.64 160.75 131.17 163.82 131.08 166.7 130.48 169.47 127 176.89 126.61 179.02 127.5 181.06 129.28 183.27 130.7 185.61 131.67 188.27 131.12 191.51 113.87 192.57 106.68 192.49 99.87 192.18 93.17 191.06 81.09 187.73 
M 63.44 187.58 53.27 177.44 49.83 174.24 48.89 172.05 50 170.01 52.46 169.36 54.47 170.65 67.53 190.4 
M 65.24 190.43 56 186.51 44.94 181.39 43.77 179.51 44.53 177.48 46.66 176.73 48.99 177.75 52.95 180.42 54.91 181.93 66.17 189.47 
M 66.9 189.95 67.4 190.28 
M 92.53 167.65 91.71 164.53 91.94 161.3 93.21 158.33 95.38 155.94 98.2 154.37 101.38 153.81 104.57 154.31 107.43 155.82 109.64 158.17 110.96 161.12 111.26 164.33 110.5 167.47 108.76 170.19 106.23 172.2 103.19 173.28 99.96 173.31 96.89 172.29 94.33 170.33 92.53 167.65 
M 92.41 167.37 91.77 165.03 91.72 162.61 92.27 160.24 92.76 159.13 94.12 157.12 95.94 155.52 96.99 154.9 99.27 154.06 101.68 153.81 102.89 153.91 105.23 154.55 
M 94.16 166.65 93.64 164.76 93.55 163.78 93.76 161.83 94.13 160.68 
M 96.62 157.37 98.75 156.18 100.66 155.73 102.62 155.78 104.51 156.3 
M 95.9 165.93 95.44 163.74 95.81 161.52 
M 97.85 158.8 99.4 157.95 100.85 157.61 102.35 157.64 103.79 158.04 
M 97.9 165.23 97.57 163.98 97.7 162.62 
M 99.01 160.57 100.17 159.92 101.44 159.69 102.72 159.89 103.86 160.5 104.74 161.44 105.27 162.62 105.39 163.9 105.09 165.16 104.39 166.25 103.38 167.05 102.16 167.48 100.87 167.49 99.64 167.09 98.62 166.3 97.9 165.23 
M 99.35 160.37 99.17 160.74 
M 98.18 162.72 97.57 163.93 
M 101.07 159.76 100.1 161.7 
M 99.61 162.67 98.15 165.6 
M 102.44 159.85 99.05 166.63 
M 103.6 160.36 100.15 167.26 
M 104.57 161.25 101.45 167.49 
M 105.28 162.66 103.02 167.18 
M 55.73 167.74 60.74 172.74 
M 59.48 165.83 63.77 170.12 
M 63.51 164.21 67.21 167.91 
M 67.67 162.71 70.85 165.89 
M 71.77 161.15 75.09 164.48 
M 76.11 159.84 78.96 162.69 
M 80.67 158.76 84.8 162.88 
M 85.41 157.84 90.88 163.3 
M 89.75 156.52 92.72 159.49 
M 94.04 155.16 95.11 156.23 
M 98.29 153.76 98.8 154.27 
M 102.56 152.37 104.49 154.29 
M 106.85 151 111.35 155.5 
M 111.51 150.01 116.53 155.03 
M 116.18 149.03 120.34 153.18 
M 120.87 148.06 126.43 153.63 
M 125.35 146.89 129.18 150.72 
M 129.83 145.72 133.25 149.14 
M 134.35 144.58 137.54 147.77 
M 138.95 143.52 143.8 148.38 
M 143.6 142.52 148.04 146.96 
M 71.5 180.63 69.13 180.6 67.85 179.3 
M 94.74 202.27 95.83 200.56 97.02 197.61 98.07 196.33 
M 136.48 166.82 137.45 166.42 138.13 165.88 140.12 163.71 141.86 160.4 
M 143.86 167.9 144.82 166.75 145.42 165.57 145.51 165.1 145 163.63 145.07 162.48 
M 135.2 151.9 133.09 148.94 132.16 147.33 132.02 146.51 132.12 145.13 
M 75.14 183.41 71.36 185.55 70.52 186.22 70.37 186.86 70.37 188.61 70.54 189.25 71 189.74 71.54 190.01 
M 108.75 170.2 108.62 171.3 107.87 172.3 
M 54.03 170.36 55.06 168.11 
M 86.8 185.94 88.42 186.34 89.83 186.38 
M 141.21 184.39 139.6 186.66 137.65 188.08 137.34 188.63 
M 115.11 200.52 113.06 198.57 112.17 197.22 111.84 195.76 112.17 193.29 112.08 191.34 
M 67.49 171.42 66.32 169.6 64.19 167.04 63.28 165.54 62.82 164.45 
M 82.75 186.07 83.01 186.57 82.95 186.9 82.01 187.7 81.73 188.19 
M 113.96 164.72 111.9 170.22 110.73 172.28 110.68 172.86 111.19 173.45 
M 81.96 192.61 80.74 193.02 79.94 192.95 79.31 192.33 79.35 191.41 
M 111.52 166.64 110.66 168.53 110.27 169.12 109.16 170.16 108.76 171.36 107.68 172.66 
M 136.64 194.47 138.41 194.11 141.59 194.34 144.2 193.95 146.66 194.15 
M 70.79 175.47 70.03 172.84 70.21 169.39 69.96 168.27 70.01 166.36 70.33 165.49 71.92 163.55 
M 134.65 188.24 135.03 188 135.54 188.12 136.42 188.74 137.18 189.62 
M 98.76 199.29 99.19 198.23 99.7 197.54 100.78 196.63 101.43 196.5 103.46 196.71 104.17 196.47 
M 95.64 202.55 96.31 200.44 97.37 197.94 98.41 196.56 98.97 196.16 
M 78.2 172.59 78.4 171.95 78.28 169.62 78.68 166.8 78.96 165.41 79.62 163.58 
M 142.05 171.54 142.69 170.76 142.7 170.42 142.51 170.2 
M 83.09 184.35 85.54 186.12 85.93 186.16 86.64 185.91 
M 128.22 202.45 127.24 202.51 126.53 202.37 125.71 201.85 122.76 198.51 121.85 197.23 
M 105.48 205.35 104.46 204.37 104.08 203.75 103.91 202.94 103.76 201.28 103.85 200.38 104.13 198.76 104.37 198.24 
M 136.81 193.83 139.35 192.42 144.12 191.11 144.47 190.84 144.82 190.04 
M 78.99 178.5 79.96 177.73 80.42 177.04 80.05 175.83 
M 53.82 170.23 54.81 168.27 
M 126.39 176.38 123.74 177.97 121.43 180.07 119.37 182.65 118.73 183.05 118.08 182.8 
M 122.03 153.96 121.41 153.3 121.25 152.75 121.47 152.04 122.3 150.66 
M 144.6 183.14 142.16 184.64 141.55 185.17 139.89 187.35 138.86 187.92 
M 130.32 200.38 129.18 200.29 127.27 199.64 124.9 199.22 123.16 198.43 122.24 197.53 121.75 196.64 
M 121.04 187.87 120.72 187.28 120.37 187.09 119.9 187.13 118.35 187.82 116.6 187.47 
M 141.92 165.17 143.58 161.51 144.32 158.96 144.22 157.88 143.91 157.35 142.57 156.22 
M 65.7 187.54 67.86 188.49 68.47 188.88 69.37 189.88 69.95 190.2 72.78 190.56 74.22 190.98 
M 156.28 170.56 157.19 169.32 
M 119.12 189.56 118.61 189.1 116.06 188.08 115 186.56 114.62 184.81 
M 117.51 153.26 116.66 150.89 116.04 150.07 115.25 149.77 114.18 149.93 
M 81.12 187.9 81.4 188.16 81.46 188.5 81.27 188.91 80.89 189.22 
M 133.11 145.31 132.95 144.92 
M 91.53 182.34 92.77 182.99 94.87 184.75 101.6 188.58 102.3 189.1 103.53 190.47 
M 83.24 159.44 81.7 160.01 80.62 160.18 77.58 159.39 
M 68.29 191.34 67.16 192.38 65.79 193.28 64.3 193.93 62.75 194.34 61.17 194.5 58.09 194.17 49.98 191.41 45.89 190.36 43.15 189.46 34.12 185.37 32.78 184.95 30 184.49 34.19 185.17 36.88 186.06 42.13 188.14 44.8 188.94 50.35 189.99 58.48 192.11 61.03 192.2 63.41 191.59 64.47 191.02 65.41 190.3 66.29 189.34 
M 58.88 187.69 64.52 190.99 
M 67.19 192.36 73.15 195.1 81.12 198.04 
M 146.9 141.56 149.62 144.28 
M 152.39 147.05 152.9 147.56 
M 152.75 139.87 159.42 146.54 
M 158.68 138.26 169.3 148.89 
M 164.7 136.75 171.82 143.87 
M 170.9 135.41 181.93 146.44 
M 177.25 134.21 184.57 141.53 
M 183.7 133.12 191 140.42 
M 190.28 132.16 197.54 139.42 
M 197.19 131.54 204.22 138.57 
M 204.2 131 215.3 142.11 
M 211.19 130.45 218.1 137.36 
M 218.23 129.96 224.1 135.83 
M 225.74 129.93 236.93 141.12 
M 233.46 130.12 239.33 135.98 
M 241.18 130.29 251.71 140.82 
M 249.33 130.91 257.77 139.34 
M 257.69 131.72 264.03 138.06 
M 266.01 132.5 273.87 140.37 
M 274.51 133.47 284.97 143.93 
M 283.37 134.79 289.57 140.98 
M 292.61 136.49 299.62 143.5 
M 302.46 138.8 311.69 148.03 
M 311.95 140.75 321.63 150.43 
M 320.92 142.19 329.97 151.23 
M 329.94 143.67 338.69 152.41 
M 339.32 145.5 350.27 156.46 
M 349.44 148.09 358.34 156.99 
M 360.21 151.31 371.22 162.32 
M 371.37 154.93 375.46 159.03 
M 213.42 122.83 217.12 130.22 
M 215.28 118.07 221.24 129.99 
M 217.57 114.16 225.49 130 
M 219.85 110.25 229.77 130.07 
M 222.14 106.34 234.04 130.14 
M 224.42 102.43 238.14 129.85 
M 226.71 98.51 237.24 119.59 
M 228.99 94.6 237 110.62 
M 231.28 90.69 237.6 103.33 
M 233.56 86.78 238.2 96.05 
M 235.85 82.87 237.96 87.08 
M 264.39 131.48 264.85 132.38 
M 268.77 131.74 269.3 132.8 
M 219.08 291.39 217.19 297.7 
M 219.08 291.39 219.59 297.7 
M 223.88 291.39 219.59 297.7 
M 223.88 291.39 221.99 297.7 
M 228.95 293.5 227.69 297.7 
M 228.68 294.39 228.26 293.8 227.75 293.5 226.85 293.5 226.16 293.8 225.38 294.39 224.81 295.3 224.63 295.89 224.66 296.8 225.08 297.39 225.59 297.7 226.49 297.7 227.18 297.39 227.96 296.8 
M 234.38 294.39 233.96 293.8 233.45 293.5 232.55 293.5 231.86 293.8 231.08 294.39 230.51 295.3 230.33 295.89 230.36 296.8 230.78 297.39 231.29 297.7 232.19 297.7 232.88 297.39 233.66 296.8 
M 236.75 293.5 235.49 297.7 
M 236.39 294.7 237.56 293.8 238.25 293.5 239.15 293.5 239.66 293.8 239.69 294.7 238.79 297.7 
M 242.45 293.5 241.55 296.5 241.58 297.39 242.09 297.7 242.99 297.7 243.68 297.39 244.85 296.5 
M 245.75 293.5 244.49 297.7 
M 250.88 294.39 250.76 293.8 249.95 293.5 249.05 293.5 248.06 293.8 247.58 294.39 247.7 295 248.21 295.3 249.62 295.6 250.13 295.89 250.16 296.8 249.68 297.39 248.69 297.7 247.79 297.7 246.98 297.39 246.86 296.8 
M 256.25 293.5 254.99 297.7 
M 255.89 294.7 257.06 293.8 257.75 293.5 258.64 293.5 259.15 293.8 259.19 294.7 258.28 297.7 
M 259.19 294.7 260.36 293.8 261.05 293.5 261.95 293.5 262.46 293.8 262.49 294.7 261.59 297.7 
M 264.4 295.3 268.01 295.3 268.19 294.7 268.07 294.1 267.35 293.5 266.45 293.5 265.76 293.8 264.98 294.39 264.4 295.3 264.23 295.89 264.26 296.8 264.68 297.39 265.19 297.7 266.08 297.7 266.77 297.39 267.56 296.8 
M 271.27 291.39 269.39 297.7 
M 270.29 294.7 271.45 293.8 272.14 293.5 273.05 293.5 273.56 293.8 273.58 294.7 272.69 297.7 
M 279.64 293.5 278.39 297.7 
M 279.38 294.39 278.95 293.8 278.45 293.5 277.55 293.5 276.86 293.8 276.08 294.39 275.51 295.3 275.33 295.89 275.36 296.8 275.77 297.39 276.29 297.7 277.19 297.7 277.88 297.39 278.66 296.8 
M 282.05 293.5 280.79 297.7 
M 281.69 294.7 282.86 293.8 283.55 293.5 284.45 293.5 284.95 293.8 284.99 294.7 284.08 297.7 
M 284.99 294.7 286.16 293.8 286.85 293.5 287.75 293.5 288.26 293.8 288.29 294.7 287.39 297.7 
M 291.05 293.5 290.14 296.5 290.18 297.39 290.69 297.7 291.58 297.7 292.27 297.39 293.45 296.5 
M 294.35 293.5 293.08 297.7 
M 299.48 294.39 299.36 293.8 298.55 293.5 297.64 293.5 296.66 293.8 296.18 294.39 296.3 295 296.81 295.3 298.22 295.6 298.73 295.89 298.76 296.8 298.27 297.39 297.29 297.7 296.39 297.7 295.58 297.39 295.45 296.8 
M 301.07 297.1 300.68 297.39 300.89 297.7 301.27 297.39 301.07 297.1 
"/></svg>
