<svg xmlns="http://www.w3.org/2000/svg" width="520" height="320"><rect x="0" y="0" width="520" height="320" fill="floralwhite"/><rect x="10" y="10" width="500" height="300" stroke="black" stroke-width="1" fill="none"/><path stroke="black" stroke-width="1" fill="none" stroke-linecap="round" stroke-linejoin="round" d="
M 174.79 84.4 183.82 77.42 192.84 71.03 201.85 65.54 210.87 61.26 228.89 56.7 237.91 53.44 246.92 51.82 255.93 52.5 273.96 52.73 282.98 55.38 291.99 59.08 301 64.22 328.05 84.39 337.06 89.18 346.07 93 355.09 97.68 364.1 103.04 373.12 108.85 391.93 122.11 
M 391.93 153.77 373.12 169.56 364.1 176.79 355.09 183.16 337.06 194.46 328.05 200.34 310.02 214.36 301 220.56 291.99 224.99 282.98 227.34 273.96 229.45 264.95 231.88 255.93 231.87 246.92 229.35 228.89 224.84 219.88 221.51 210.87 217.74 201.85 212.54 183.82 200.5 174.81 193.82 165.82 186.28 
M 170.51 174.85 170.51 174.39 170.12 173.61 
M 170.97 175.12 171.55 174.73 173.8 171.69 175.25 168.24 175.25 166.1 173.8 162.66 172.85 161.37 
M 171.97 164.51 172.96 164.35 
M 171.38 167.16 172.26 167.23 
M 170.93 169.3 172.97 169.43 
M 174.81 84.39 176.07 84.01 179.39 82.04 181.53 79.8 181.53 79.19 
M 178.11 95.63 178.68 95.19 180.67 92.48 180.67 90.81 178.68 88.09 175.32 85.6 
M 179.11 109.48 180.24 107.52 180.24 105.61 178.73 103 
M 175.04 167.12 177.09 165.92 179.4 163.22 
M 179.83 179.99 181.42 176.79 181.42 174.69 179.74 171.31 177.14 168.32 175.1 167.15 
M 180.77 79.98 182.38 79.35 184.7 77.55 185.84 75.99 
M 179.95 92.14 181.8 91.34 184.29 89.2 185.89 86.77 185.89 85.26 184.29 82.83 181.8 80.69 180.77 80.25 
M 179.6 106.59 181.41 105.66 183.82 103.18 185.37 100.37 185.37 98.64 183.82 95.83 181.41 93.35 179.95 92.6 
M 181.03 121.19 183.15 118.6 184.6 115.45 184.6 113.51 183.15 110.36 180.88 107.59 179.12 106.5 
M 183.74 127.82 183.36 126.87 181.08 123.74 
M 180.56 175.89 182.23 174.71 184.37 171.68 185.75 168.26 185.75 166.13 
M 185.43 182.77 184.26 179.96 182.11 177.02 180.43 175.87 
M 185.42 86.15 187.42 85.36 189.97 83.32 191.61 81 191.61 79.57 189.97 77.26 187.11 75.09 
M 185.38 99.88 187.46 98.95 190.13 96.58 191.85 93.9 191.85 92.24 190.13 89.56 187.46 87.19 185.38 86.26 
M 185.21 115.06 187.33 114.03 190.05 111.4 191.8 108.42 191.8 106.57 190.05 103.59 187.33 100.95 185.21 99.93 
M 191.38 124.75 191.59 124.34 191.59 122.32 189.86 119.05 187.17 116.17 185.07 115.05 
M 185.85 167.16 186.78 166.6 
M 187.22 183.58 187.9 183.19 190.47 180.2 192.13 176.82 192.13 174.73 190.47 171.35 187.9 168.36 185.89 167.2 
M 190.44 79.52 191.85 78.77 193.65 76.85 194.81 74.69 194.81 73.34 193.65 71.17 193.27 70.77 
M 191.24 92.62 192.31 91.97 194.2 89.66 195.42 87.05 195.42 85.43 194.2 82.82 192.31 80.51 190.83 79.61 
M 191.31 107.83 192.95 106.84 195.05 104.29 196.41 101.41 196.41 99.63 195.05 96.75 192.95 94.2 191.31 93.21 
M 190.97 123.27 192.65 122.26 194.94 119.53 196.42 116.43 196.42 114.51 194.94 111.41 192.65 108.67 190.87 107.6 
M 192.24 124.4 190.97 123.56 
M 191.31 175.92 192.98 174.73 195.12 171.7 195.55 170.63 
M 195.61 187.47 196.47 185.42 196.47 183.36 195.08 180.03 192.92 177.09 191.24 175.94 
M 194.4 72.41 195.97 71.8 198.04 70.18 199.38 68.35 199.29 67.1 
M 194.37 84.62 196.01 83.79 198.11 81.66 199.46 79.26 199.46 77.77 198.11 75.36 196.01 73.23 194.4 72.42 
M 195.92 99.08 196.97 98.49 199.24 95.94 200.7 93.05 200.7 91.26 199.24 88.37 196.97 85.82 195.2 84.83 
M 196.18 115.68 198.14 114.6 200.65 111.83 202.27 108.69 202.27 106.75 200.65 103.61 198.14 100.83 196.18 99.75 
M 201.91 121.09 201.16 119.66 198.51 116.78 196.44 115.65 
M 196.68 184.38 198.68 183.22 201.25 180.24 202.9 176.87 202.9 174.78 201.9 172.72 
M 202.18 190.63 201.06 188.42 198.54 185.59 196.58 184.48 
M 198.42 75.9 199.27 75.41 200.86 73.59 201.89 71.53 201.89 70.25 200.86 68.19 199.69 66.86 
M 198.19 89.96 199.52 89 201.22 86.55 202.32 83.76 202.32 82.04 201.22 79.26 199.52 76.8 198.84 76.31 
M 201.69 106.33 203.79 103.25 204.98 99.98 204.98 97.95 203.79 94.67 201.93 91.78 200.48 90.65 
M 205.05 121.33 205.84 120.25 207.21 116.94 207.21 114.9 205.84 111.6 203.73 108.68 202.07 107.54 
M 202.31 175.79 203.75 174.77 205.11 172.82 
M 203.98 191.38 205.87 188.79 207.24 185.5 207.24 183.46 205.87 180.17 203.75 177.26 202.08 176.13 
M 201.91 69.19 203.43 68.57 205.39 66.99 206.65 65.19 206.65 64.08 206.21 63.47 
M 202.01 81.87 203.56 81 205.55 78.76 206.83 76.23 206.83 74.67 205.55 72.14 203.56 69.9 202.01 69.03 
M 203.86 98.04 205.52 96.96 207.64 94.2 209.01 91.07 209.01 89.13 207.64 86 205.52 83.24 203.86 82.16 
M 206.72 115.04 207.92 114.28 210.24 111.31 211.74 107.94 211.74 105.86 210.24 102.5 207.92 99.53 206.1 98.37 
M 212.71 121.59 211.75 119.6 209.23 116.63 207.26 115.48 
M 209.14 121.54 210.82 121.32 
M 207.38 184.27 209.37 183.11 211.91 180.16 213.55 176.81 213.55 174.74 212.84 173.29 
M 205.14 174.19 210.18 173.09 
M 205.17 175.64 210.24 175.58 
M 205.28 177.43 210.93 178.69 
M 212.21 194.69 212.94 193.25 212.94 191.3 211.35 188.16 208.89 185.38 206.98 184.3 
M 205.34 190.5 210.37 190.19 
M 205.49 191.96 209.99 192.29 
M 204.8 72.63 205.43 72.24 
M 205.43 72.24 206.05 71.86 207.66 69.89 208.7 67.67 208.7 66.29 207.66 64.06 206.91 63.14 
M 207.03 88.76 208.37 87.71 210.09 85.02 211.19 81.97 211.19 80.09 210.09 77.04 208.37 74.35 207.03 73.3 
M 209.75 106.15 211.2 104.9 
M 211.2 104.9 212.95 101.97 214.11 98.56 214.11 96.46 212.95 93.05 211.15 90.04 209.75 88.87 
M 208.02 95.82 212.3 94.87 
M 208.34 97.9 212.05 97.66 
M 208.78 99.22 211.69 100.06 
M 214.46 121.56 215.62 119.76 216.89 116.3 216.89 114.15 215.62 110.69 213.65 107.63 212.11 106.44 
M 210.88 113.12 214.35 112.92 
M 210.32 114.92 214.84 114.93 
M 210.54 116.64 214.59 118.09 
M 212.73 175.84 212.96 175.67 
M 212.96 175.67 214.39 174.65 215.17 173.55 
M 212.63 192.44 214.26 191.33 216.34 188.49 217.69 185.27 217.69 183.28 216.34 180.07 214.26 177.23 212.96 176.34 
M 212.96 176.34 212.63 176.12 
M 210.99 182.33 215.5 181.57 
M 211.38 184.52 215.32 184.09 
M 211.39 185.61 215.63 187.08 
M 214.79 195.52 213.04 193.15 211.51 192.12 
M 209.36 66 210.94 65.37 212.95 63.77 214.25 61.96 214.25 60.83 214 60.48 
M 209.77 79.22 211.33 78.31 213.33 75.97 214.63 73.33 214.63 71.69 213.33 69.04 211.33 66.71 209.77 65.79 
M 212.37 96.27 213.95 95.13 215.98 92.22 217.29 88.91 217.29 86.87 215.98 83.57 213.95 80.66 212.37 79.52 
M 210.72 86.4 214.84 85.14 
M 210.95 87.92 214.69 87.79 
M 210.8 89.31 214.82 90.08 
M 215.44 114.53 217.14 113.3 219.32 110.17 220.72 106.61 220.72 104.41 219.32 100.86 217.14 97.72 215.44 96.49 
M 213.44 103.79 217.99 102.79 
M 213.92 105.49 217.89 105.74 
M 213.48 107.23 218.06 108.58 
M 222.57 120.79 221.77 118.96 219.39 115.87 217.54 114.67 
M 215.94 121.38 219.09 121.24 
M 217.97 184 219.95 182.86 222.48 179.95 224.11 176.65 224.11 175.03 
M 215.72 174.25 217.88 173.9 
M 216.23 175.59 221.44 175.29 
M 216.07 177.23 220.99 178.19 
M 220.12 197.2 221.46 195.71 223.03 192.64 223.03 190.74 221.46 187.66 219.02 184.95 217.12 183.89 
M 215.61 190.02 220.31 189.31 
M 215.43 191.76 220.17 191.96 
M 215.6 193.01 220.14 193.66 
M 213.33 69.35 214.03 68.96 215.78 67.02 216.91 64.82 216.91 63.45 215.78 61.25 214.88 60.26 
M 213.79 62.75 215.12 62.75 
M 212.59 64.06 214.52 64.4 
M 211.47 65.09 214.64 66.16 
M 214.59 85.76 215.84 84.69 217.44 81.95 218.47 78.84 218.47 76.92 217.44 73.82 215.84 71.08 214.59 70.01 
M 213.57 76.13 216.4 75.59 
M 213.25 78.23 216.88 77.87 
M 213.75 79.72 216.97 80.55 
M 218.1 104.4 219.4 103.14 221.05 99.92 222.12 96.28 222.12 94.02 221.05 90.38 219.4 87.16 218.1 85.9 
M 217.15 93.12 219.86 92.59 
M 216.6 94.76 220.47 94.96 
M 216.71 96.85 219.89 97.71 
M 224.21 120.51 225.06 119.01 226.24 115.31 226.24 113.01 225.06 109.31 223.22 106.04 221.78 104.76 
M 220.46 112.51 224.29 111.03 
M 220.54 114.17 223.77 113.89 
M 220.12 116.36 223.82 117.2 
M 223.5 175.84 224.54 175.11 
M 223.04 191.88 224.66 190.81 226.74 188.04 228.08 184.91 228.08 182.98 226.74 179.85 224.66 177.08 223.04 176.01 
M 221.19 182.57 226.03 181.32 
M 221.09 183.92 225.81 184.15 
M 221.11 185.44 225.89 186.34 
M 226.14 198.86 226.14 197.89 224.86 194.94 222.87 192.34 221.32 191.33 
M 220.32 197.26 223.78 196.74 
M 217.78 63.58 219.5 62.97 221.7 61.41 223.12 59.64 223.12 58.55 222.88 58.24 
M 218.59 59.34 220.32 59.45 
M 216.07 60.33 220.36 60.42 
M 218.1 75.87 219.27 75.24 221.38 72.99 222.74 70.44 222.74 68.86 221.38 66.31 219.27 64.06 217.62 63.18 
M 215.88 68.2 220.65 67.6 
M 216.24 69.71 220.33 69.61 
M 216.04 70.99 220.6 71.6 
M 221.61 91.79 223.43 89.09 224.73 85.72 224.73 83.63 223.43 80.27 221.42 77.29 219.85 76.13 
M 218.44 83.2 222.57 82.49 
M 218.73 84.7 222.75 84.67 
M 218.99 86.77 222.2 86.99 
M 225.78 110.93 227.5 108.15 228.83 104.37 228.83 102.03 227.5 98.25 225.44 94.91 223.84 93.61 
M 222 101 226.04 100.01 
M 221.94 103.33 226.52 103.34 
M 222.36 105.05 226.1 105.94 
M 231.45 119.03 230.86 117.47 228.7 114.22 227.02 112.95 
M 225.35 120.23 230.09 119.22 
M 228.58 183.78 230.58 182.66 233.13 179.77 234.21 177.62 
M 226.42 176.96 231.86 178.18 
M 227.32 198.81 229.29 197.76 231.82 195.1 233.45 192.08 233.45 190.21 231.82 187.18 229.29 184.52 227.32 183.48 
M 225.79 189.73 230.6 188.96 
M 225.45 191.32 230.57 191.28 
M 225.63 192.46 230.64 193.27 
M 228.26 199.45 226.21 198.31 
M 221.75 67.54 223.25 66.86 225.17 65.1 226.42 63.11 226.42 61.88 225.17 59.89 223.26 58.15 
M 221.69 61.25 223.8 61.35 
M 220.19 62.57 223.92 62.36 
M 220.44 63.41 224.24 63.91 
M 223.11 80.11 224.62 77.9 225.75 75 225.75 73.2 224.62 70.29 222.86 67.73 221.49 66.73 
M 220.13 72.96 223.31 71.6 
M 220.19 74.16 223.99 73.83 
M 219.85 75.64 223.58 76.13 
M 225.23 101.28 226.55 99.96 228.23 96.59 229.32 92.76 229.32 90.4 228.23 86.57 226.55 83.2 225.23 81.88 
M 223.94 89.83 227.23 88.76 
M 224.23 91.31 227.19 91.35 
M 223.98 93.68 227.29 94.2 
M 232.38 118.82 233.23 117.06 234.31 113.12 234.31 110.68 233.23 106.74 231.55 103.26 230.24 101.91 
M 229.31 110.17 232.28 109.08 
M 229.1 111.71 232.19 112.14 
M 228.91 113.91 232.72 114.55 
M 233.5 191.45 235.19 190.39 237.34 187.69 238.73 184.62 238.73 182.72 237.34 179.65 236.18 178.19 
M 231.59 182.06 236.3 181.37 
M 231.49 184.01 235.85 183.76 
M 231.59 185.55 236.58 185.73 
M 235.96 200.72 236.76 199.06 236.76 197.24 235.34 194.29 233.13 191.7 231.41 190.68 
M 230.11 196.56 233.93 195.9 
M 229.47 198.34 234.16 197.9 
M 227.4 62.3 229.29 61.71 231.71 60.22 233.27 58.52 233.27 57.47 231.62 55.71 
M 227.68 57.01 230.72 56.76 
M 225.77 57.73 230.74 58.2 
M 225.64 58.87 230.71 59.65 
M 226.57 73.96 228.37 73.13 230.68 71.02 232.17 68.62 232.17 67.14 230.68 64.74 228.37 62.62 226.57 61.8 
M 224.63 66.37 229.65 65.98 
M 224.94 68.16 229.33 68.03 
M 225.04 69.31 229.76 69.95 
M 227.99 90.38 229.67 89.26 231.84 86.38 233.23 83.11 233.23 81.09 231.84 77.83 229.67 74.94 227.99 73.82 
M 226.7 80.8 230.9 79.93 
M 226 82.17 230.44 81.85 
M 226.28 83.89 230.57 84.97 
M 233.73 108.13 235.43 105.37 236.74 101.61 236.74 99.29 235.43 95.53 233.39 92.22 231.8 90.93 
M 229.9 98.46 234.47 97.86 
M 230.23 100.47 234.21 100.54 
M 229.95 102.44 230.47 102.53 
M 231.04 102.64 234.05 103.19 
M 237 126.88 238.43 124.45 239.69 120.68 239.69 118.35 238.43 114.58 236.47 111.25 234.94 109.95 
M 233.81 117.28 237.1 116.43 
M 233.69 119.42 237.62 119.73 
M 233.63 121.42 237.39 122.25 
M 239.35 183.99 241.36 182.84 243.94 179.88 245.61 176.54 245.61 174.47 244.51 172.26 
M 238.25 199.06 240.36 198.01 243.05 195.32 244.78 192.27 244.78 190.38 243.05 187.33 240.36 184.64 238.25 183.59 
M 236.3 189.56 241.46 189.02 
M 236.55 191.41 241.5 191.22 
M 236.12 193.05 241.91 193.5 
M 241.39 201.68 239.43 199.8 237.28 198.78 
M 233.2 57.2 234.88 56.72 237.02 55.47 238.41 54.06 238.41 53.35 
M 235.47 54.32 235.86 54.33 
M 231.85 66.75 233.45 66.09 235.5 64.38 236.83 62.46 236.83 61.26 235.5 59.33 233.45 57.63 232.71 57.33 
M 230.16 61.06 234.04 60.75 
M 230.54 61.74 234.59 61.54 
M 230.04 62.6 234.69 63.61 
M 232.64 79.18 234.69 76.68 235.95 73.92 235.95 72.21 234.69 69.44 232.72 67 231.47 66.22 
M 229.37 71.52 233.47 71.35 
M 229.49 73.35 233.61 73.45 
M 229.64 74.86 233.52 75.56 
M 234.03 98.71 235.44 97.48 237.24 94.33 238.4 90.77 238.4 88.56 237.24 84.99 235.44 81.85 234.03 80.62 
M 232.73 87.49 236.59 86.98 
M 232.62 89.64 236.16 89.3 
M 232.98 91.83 236.6 92.49 
M 239.22 116.25 240.59 113.49 241.64 109.8 241.64 107.52 240.59 103.83 238.97 100.57 237.7 99.3 
M 236.55 106.9 240.1 105.76 
M 236.35 108.51 239.99 108.74 
M 236.76 110.47 240.08 111.83 
M 241.42 132.77 241.92 131.68 242.9 127.87 242.9 125.51 241.92 121.7 240.39 118.33 239.24 117.06 
M 238.05 124.74 241.15 123.44 
M 237.8 127.04 240.75 126.72 
M 240.49 129.26 240.96 129.45 
M 244.92 176.37 246.56 175.11 248.67 171.87 249.22 170.37 
M 244.68 192.18 246.41 191.08 248.62 188.27 250.05 185.07 250.05 183.1 248.62 179.91 246.41 177.09 244.68 175.99 
M 247.88 202.96 249.23 200.33 249.23 198.47 247.69 195.48 245.3 192.84 244.16 192.21 
M 239.57 54.02 241.65 53.62 244.31 52.6 244.95 52.17 
M 237.95 61.9 239.95 61.35 242.51 59.92 244.15 58.3 244.15 57.29 242.51 55.67 239.95 54.24 237.95 53.69 
M 235.96 56.74 241.2 56.24 
M 235.67 57.55 240.97 57.53 
M 235.69 58.63 241.39 59.24 
M 236.63 72.99 238.57 72.2 241.04 70.19 242.63 67.91 242.63 66.5 241.04 64.22 238.57 62.21 236.63 61.42 
M 234.62 66.2 239.73 65.17 
M 234.4 67.51 239.35 67.02 
M 234.8 68.32 239.66 68.71 
M 237.98 88.09 239.14 87.42 241.47 84.72 242.97 81.66 242.97 79.76 241.47 76.7 239.14 74 237.32 72.95 
M 235.37 78.85 240.13 78.46 
M 235.23 81.04 240.33 80.46 
M 235.42 82.2 240.46 83.24 
M 240 106.76 241.64 105.57 243.74 102.49 245.1 99.02 245.1 96.86 243.74 93.38 241.64 90.31 240 89.11 
M 238.12 96 242.93 95.12 
M 238.29 98.18 242.68 98.19 
M 238.2 99.4 242.4 100.64 
M 242.55 124.43 243.33 123.79 245.32 120.51 246.6 116.8 246.6 114.51 245.32 110.8 243.33 107.52 241.77 106.25 
M 240.05 113.43 243.96 112.81 
M 240.25 116.01 244.11 115.84 
M 240.36 117.19 244.17 118.34 
M 247.99 140.71 249.45 136.41 249.45 133.88 248.11 129.78 246.03 126.16 244.4 124.75 
M 250.21 184.55 252.2 183.34 254.76 180.23 256.41 176.7 256.41 174.52 254.76 171 253.29 169.2 
M 249.81 200.09 251.93 199.01 254.64 196.24 256.39 193.09 256.39 191.15 254.64 188 251.93 185.23 249.81 184.15 
M 254.74 204.67 254.15 203.72 251.37 201.19 249.19 200.2 
M 244.38 57.38 246.1 56.93 248.31 55.77 249.73 54.45 249.73 53.64 248.31 52.32 247.42 51.86 
M 242.38 66.28 244.03 65.65 246.15 64.04 247.52 62.21 247.52 61.08 246.15 59.25 244.03 57.64 242.38 57.01 
M 241.12 78.85 242.77 77.95 244.88 75.66 246.24 73.06 246.24 71.45 244.88 68.85 242.77 66.55 242.06 66.17 
M 239.98 70.83 243.43 70.54 
M 239.42 72.34 243.9 72.41 
M 239.14 73.47 243.84 74.16 
M 244.57 94.89 246.32 92.19 247.54 88.88 247.54 86.84 246.32 83.53 244.43 80.61 242.95 79.47 
M 241.51 86.39 245.65 85.1 
M 241.46 87.78 245.12 87.58 
M 241.17 89.87 245.4 90.37 
M 245.31 114.07 246.63 112.91 248.32 109.96 249.42 106.61 249.42 104.53 248.32 101.18 246.63 98.22 245.31 97.07 
M 243.73 104.03 247.83 102.63 
M 243.85 105.82 247.36 105.91 
M 244 107.47 247.23 107.79 
M 247.21 128.62 248.07 126.91 249.23 122.93 249.23 120.47 248.07 116.49 246.33 113.07 
M 243.38 119.45 247.46 118.74 
M 243.71 121.74 247.44 122.04 
M 243.37 123.68 247.48 124.83 
M 254.59 150.29 255.55 146.55 255.55 143.72 254.38 139.15 252.57 135.11 251.16 133.53 
M 255.82 176.48 257.04 175.44 259.07 171.99 260.38 168.07 260.38 165.65 259.07 161.74 257.8 159.58 
M 255.77 192.86 257.47 191.71 259.65 188.78 261.05 185.46 261.05 183.4 259.65 180.08 257.47 177.15 255.77 176 
M 259.06 204.97 259.38 204.58 260.84 201.51 260.84 199.61 259.38 196.55 257.12 193.84 255.35 192.78 
M 250.83 54.42 252.88 54.03 255.5 53.05 256.35 52.5 
M 248.82 61.91 250.83 61.37 253.4 59.98 255.06 58.4 255.06 57.43 253.4 55.85 250.83 54.47 249.22 54.03 
M 247.26 72.65 249.27 71.9 251.84 69.96 253.5 67.76 253.5 66.4 251.84 64.21 249.27 62.27 247.26 61.51 
M 247.32 87.22 249.25 86.24 251.72 83.71 253.32 80.86 253.32 79.09 251.72 76.23 249.25 73.7 247.32 72.72 
M 249.03 104.08 250.5 103.13 252.75 100.25 254.2 96.98 254.2 94.95 252.75 91.68 250.5 88.79 248.74 87.67 
M 249.84 122.36 251.65 121.09 253.96 117.84 255.46 114.16 255.46 111.88 253.96 108.19 251.65 104.94 249.84 103.67 
M 255.13 141.62 257.09 138.5 258.61 134.23 258.61 131.6 257.09 127.33 254.73 123.57 252.89 122.1 
M 258.02 166.19 259.83 164.71 262.14 160.94 263.63 156.67 263.63 154.03 262.14 149.75 259.83 145.98 258.02 144.51 
M 260.76 184.78 262.7 183.51 265.17 180.26 266.77 176.57 266.77 174.28 265.17 170.6 262.7 167.34 260.76 166.07 
M 260.95 200.67 262.98 199.56 265.59 196.72 267.27 193.5 267.27 191.51 265.59 188.29 262.98 185.45 260.95 184.35 
M 265.53 204.85 265.19 204.28 262.57 201.75 260.51 200.76 
M 255.38 57.6 257.05 57.15 259.18 56 260.56 54.7 260.56 53.9 259.06 52.53 
M 253.15 66.37 254.8 65.73 256.92 64.1 258.29 62.24 258.29 61.1 256.92 59.24 254.47 57.48 
M 252.75 78.92 254.12 78.24 256.35 76.03 257.79 73.53 257.79 71.98 256.35 69.48 254.12 67.28 252.38 66.41 
M 252.83 94.68 254.4 93.64 256.41 90.97 257.7 87.95 257.7 86.07 256.41 83.05 254.4 80.38 252.83 79.34 
M 254.92 111.2 255.36 110.86 257.27 107.86 258.5 104.46 258.5 102.36 257.27 98.97 255.36 95.97 253.87 94.8 
M 255.31 131.54 257.12 130.16 259.44 126.63 260.94 122.62 260.94 120.15 259.44 116.14 257.12 112.61 255.31 111.23 
M 262.76 151.14 263.65 149.33 264.9 144.83 264.9 142.05 263.65 137.55 261.7 133.57 260.18 132.02 
M 265.28 176.36 266.79 174.95 268.72 171.33 269.96 167.22 269.96 164.69 268.72 160.58 266.79 156.96 265.28 155.55 
M 266.67 193.04 268.2 191.94 270.32 188.93 271.68 185.51 271.68 183.4 270.32 179.98 268.2 176.97 266.54 175.79 
M 270.26 203.78 271.28 201.52 271.28 199.63 269.9 196.57 267.78 193.87 266.67 193.16 
M 261.52 54.37 263.48 53.98 265.99 53 266.54 52.62 
M 259.51 61.91 261.52 61.36 264.09 59.95 265.76 58.35 265.76 57.36 264.09 55.77 261.52 54.36 260.06 53.96 
M 259.57 53.83 259.51 53.81 
M 258.19 72.81 260.21 72.05 262.8 70.12 264.46 67.94 264.46 66.59 262.8 64.4 260.21 62.47 258.19 61.72 
M 257.96 86.8 259.89 85.86 262.36 83.44 263.95 80.71 263.95 79.01 262.36 76.28 259.89 73.86 257.96 72.92 
M 258.5 103.26 260.33 102.13 262.68 99.26 264.2 96 264.2 93.98 262.68 90.72 260.33 87.84 258.5 86.72 
M 260.36 122.34 262.37 121.05 264.95 117.72 266.61 113.96 266.61 111.63 264.95 107.86 262.37 104.53 260.36 103.24 
M 264.45 142.71 265.6 141.92 268.25 138.25 269.96 134.09 269.96 131.52 268.25 127.36 265.6 123.69 263.52 122.26 
M 267.69 164.97 269.56 163.52 271.95 159.8 273.5 155.59 273.5 152.98 271.95 148.77 269.56 145.05 267.69 143.6 
M 271.19 184.25 272.79 183.15 275.19 179.8 276.74 176 276.74 173.66 275.19 169.86 272.79 166.52 270.91 165.21 
M 271.62 200.73 273.61 199.61 276.16 196.72 277.81 193.45 277.81 191.42 276.16 188.15 273.61 185.27 271.62 184.14 
M 274.55 202.85 273.19 201.47 271.18 200.45 
M 265.83 57.34 267.49 56.89 269.62 55.73 270.99 54.41 270.99 53.6 270.02 52.67 
M 263.68 66.32 265.4 65.66 267.6 63.97 269.02 62.05 269.02 60.86 267.6 58.94 265.16 57.16 
M 263.54 79.43 265.16 78.58 267.23 76.4 268.57 73.93 268.57 72.4 267.23 69.93 265.16 67.75 263.54 66.9 
M 263.07 93.99 264.58 92.97 266.5 90.37 267.75 87.42 267.75 85.6 266.5 82.65 264.58 80.05 263.38 79.24 
M 266.01 110.68 267.77 107.83 269.05 104.16 269.05 101.89 267.77 98.22 265.77 94.98 264.22 93.72 
M 268.04 133.48 269.89 132.1 272.25 128.57 273.77 124.58 273.77 122.1 272.25 118.11 269.89 114.58 268.04 113.2 
M 272.94 151.04 274.51 148.47 275.94 144.34 275.94 141.79 274.51 137.66 272.29 134.01 270.55 132.59 
M 274.73 175.11 276.21 173.69 278.09 170.06 279.31 165.95 279.31 163.41 278.09 159.3 276.21 155.67 274.73 154.25 
M 277.22 193.11 278.7 192 280.78 188.87 282.13 185.33 282.13 183.14 280.78 179.6 278.7 176.47 277.07 175.25 
M 275.22 182.82 280.02 181.26 
M 275.26 184.23 279.56 184.21 
M 275.28 186.37 279.4 187.27 
M 281.89 201.72 282.02 201.43 282.02 199.53 280.62 196.47 278.45 193.76 277.22 192.99 
M 274.8 198.78 279.39 198.21 
M 275.18 200.12 279.41 200.78 
M 274.82 202.22 277.14 202.45 
M 271.81 54.14 273.75 53.72 275.22 53.1 
M 270.38 62.11 272.44 61.55 275.08 60.11 276.78 58.49 276.78 57.48 275.08 55.85 272.44 54.42 270.5 53.89 
M 268.9 72.57 270.91 71.85 273.47 69.99 275.13 67.88 275.13 66.58 273.47 64.48 270.91 62.62 268.9 61.89 
M 267.94 85.84 269.8 84.93 272.17 82.58 273.71 79.93 273.71 78.29 272.17 75.64 269.8 73.29 268.09 72.45 
M 268.59 102.38 270.12 101.42 272.46 98.45 273.98 95.08 273.98 93 272.46 89.64 270.12 86.67 268.28 85.51 
M 271.25 122.95 273.23 121.59 275.76 118.1 277.39 114.15 277.39 111.71 275.76 107.76 273.23 104.27 271.25 102.91 
M 275.42 143.58 277.09 142.47 279.78 138.86 281.52 134.78 281.52 132.25 279.78 128.16 277.09 124.56 274.99 123.15 
M 277.95 164.04 279.9 162.65 282.41 159.09 284.03 155.05 284.03 152.55 282.41 148.52 279.9 144.95 277.95 143.56 
M 276.24 151.96 281.45 151.1 
M 276.04 153.64 281.27 153.47 
M 276.17 155.9 281.49 156.55 
M 281.64 183.18 282.72 182.43 285.13 179.05 286.68 175.21 286.68 172.84 285.13 169.01 282.72 165.62 280.84 164.3 
M 279.4 172.15 284.21 171.34 
M 279.21 173.72 283.76 174.39 
M 278.98 175.65 284.23 176.74 
M 282.3 200.93 284.3 199.77 286.86 196.79 288.51 193.42 288.51 191.33 286.86 187.95 284.3 184.98 282.3 183.81 
M 280.19 190.84 285.15 190.07 
M 280.29 192.54 285.42 192.72 
M 280.29 193.92 285.27 195.22 
M 283.87 201.41 282.11 200.52 
M 276.77 57.94 278.47 57.43 280.66 56.13 281.72 55.01 
M 275.34 54.41 278.86 54.17 
M 275.23 54.59 279.15 55.44 
M 275.25 66.82 277.04 66.21 279.32 64.62 280.79 62.83 280.79 61.72 279.32 59.92 277.04 58.34 275.25 57.72 
M 273.76 61.1 277.95 61.12 
M 273.28 62.3 278.33 62.37 
M 273.25 62.86 278.13 63.96 
M 273.14 77.72 274.7 76.95 276.7 74.97 277.99 72.73 277.99 71.34 276.7 69.1 274.54 67.04 
M 273.44 91.27 275.44 88.6 276.68 85.65 276.68 83.81 275.44 80.86 273.52 78.25 272.01 77.23 
M 273.82 111.75 275.37 110.41 277.35 106.98 278.63 103.1 278.63 100.7 277.35 96.81 275.37 93.38 273.82 92.04 
M 280.9 132.17 282.66 129.03 284.02 124.77 284.02 122.14 282.66 117.88 280.55 114.13 278.91 112.66 
M 277.6 121.29 281.9 119.87 
M 277.33 123.13 281.48 123.72 
M 277.6 125.67 281.81 126.6 
M 282.44 154.24 284.23 152.87 286.52 149.37 288 145.41 288 142.96 286.52 139 284.23 135.51 282.44 134.14 
M 280.37 142.48 285.18 140.96 
M 280.55 144.56 285.35 144.04 
M 280.39 146.22 285.07 147.5 
M 286.12 170.99 287.55 168.45 288.82 164.5 288.82 162.06 287.55 158.11 285.59 154.62 284.06 153.26 
M 282.54 161 286.44 160.55 
M 282.41 163.22 286.29 163.35 
M 282.75 165.37 286.72 166 
M 287.49 193.38 289.12 192.09 291.22 188.8 292.57 185.07 292.57 182.76 291.22 179.03 289.12 175.73 287.49 174.45 
M 285.76 181.91 290.22 181.14 
M 285.52 184.23 289.75 184.1 
M 286.08 186.11 289.96 186.4 
M 293.13 199.73 291.79 196.72 289.6 193.93 287.89 192.84 
M 286.13 199.52 290.89 198.51 
M 281.59 62.62 283.67 62.05 286.34 60.6 288.06 58.95 288.06 57.93 287.23 57.13 
M 279.62 57.66 285.22 57.37 
M 279.66 58.31 284.77 58.54 
M 279.49 59.05 284.82 59.31 
M 279.63 72.26 281.67 71.57 284.28 69.82 285.96 67.83 285.96 66.6 284.28 64.61 281.67 62.85 280.26 62.38 
M 277.9 66.53 282.61 65.74 
M 277.61 67 282.65 66.92 
M 277.81 67.99 282.89 69 
M 277.74 84.71 279.69 83.82 282.19 81.54 283.8 78.97 283.8 77.37 282.19 74.8 279.69 72.52 277.74 71.64 
M 276.13 77.23 280.85 76.05 
M 276.22 78.1 280.77 78.21 
M 275.99 79.61 281 79.74 
M 278.04 101.74 279.99 100.56 282.49 97.54 284.1 94.12 284.1 92.01 282.49 88.59 279.99 85.57 278.04 84.39 
M 275.81 91.71 280.89 90.26 
M 276.06 93.34 281.47 93.11 
M 276.39 94.67 280.84 95.75 
M 283.53 121.25 285.86 117.81 287.44 113.71 287.44 111.18 285.86 107.08 283.42 103.47 281.5 102.06 
M 279.61 110.11 284.38 109.29 
M 279.48 112.69 284.31 112.15 
M 280.52 114.52 284.5 115.53 
M 286.02 144.28 287.94 142.85 290.4 139.21 291.99 135.07 291.99 132.51 290.4 128.38 287.94 124.73 286.02 123.31 
M 284.55 131.37 289.07 130.52 
M 284.4 134.18 288.79 133.69 
M 283.9 135.65 288.73 137.26 
M 288.59 163.71 290.53 162.35 293.03 158.87 294.63 154.92 294.63 152.48 293.03 148.53 290.53 145.05 288.59 143.69 
M 286.77 151.33 291.36 150.96 
M 286.82 153.56 291.8 153.74 
M 286.79 156.06 292.06 156.65 
M 291 183.2 292.94 181.88 295.42 178.48 297.02 174.64 297.02 172.26 295.42 168.42 292.94 165.02 291 163.7 
M 289.47 171.88 294.09 170.3 
M 288.98 173.6 294.01 173.22 
M 288.99 175.26 293.75 176.51 
M 296.1 198.74 297.62 196.92 299.27 193.45 299.27 191.31 297.62 187.84 295.06 184.78 293.06 183.58 
M 290.73 190.93 296.49 189.56 
M 291.51 192.55 296.22 192.24 
M 290.96 194.28 295.94 195.08 
M 287.77 58.42 289.25 57.96 
M 286.57 67.29 288.31 66.69 290.54 65.13 291.97 63.38 291.97 62.29 290.54 60.53 288.31 58.98 286.57 58.37 
M 284.67 61.73 289.61 61.7 
M 285.09 62.69 289 62.77 
M 285.11 63.85 289.18 64.13 
M 283.56 77.2 285.27 76.45 287.47 74.54 288.89 72.38 288.89 71.04 287.47 68.88 285.36 67.05 
M 282.81 70.61 286.03 70.33 
M 282.14 71.86 286.52 71.47 
M 282.06 72.58 286.61 73.54 
M 283.52 90.93 283.97 90.67 286.18 88.07 287.61 85.12 287.61 83.3 286.18 80.36 283.97 77.76 282.23 76.74 
M 280.81 83.05 285.38 82.18 
M 280.19 84.55 284.9 84.57 
M 280.38 85.8 285.12 86.17 
M 284.08 111.29 285.8 109.95 288 106.51 289.42 102.62 289.42 100.21 288 96.32 285.8 92.88 284.08 91.54 
M 282.54 99.4 286.85 98.13 
M 282.4 101.72 286.85 101.5 
M 282.69 103.27 286.85 104.41 
M 291.42 130.98 292.52 128.71 293.73 124.36 293.73 121.67 292.52 117.32 290.66 113.48 289.21 111.98 
M 287.99 120.59 291.24 119.64 
M 287.88 123.07 291.65 123.15 
M 288.08 125.37 291.75 126.62 
M 293.52 154.58 295.04 153.22 296.99 149.71 298.24 145.75 298.24 143.29 296.99 139.33 295.04 135.83 293.52 134.46 
M 291.76 142.25 295.62 141.56 
M 291.91 144.66 295.58 144.4 
M 292.09 146.25 296.2 147.84 
M 296.44 170.62 298.09 167.93 299.45 164.02 299.45 161.61 298.09 157.7 295.98 154.26 294.77 153.27 
M 292.99 161.05 297.12 159.87 
M 292.72 163.12 296.94 162.52 
M 293 164.92 296.93 165.75 
M 298.11 193.41 299.76 192.11 301.87 188.76 303.22 184.97 303.22 182.62 301.87 178.83 299.76 175.48 298.11 174.17 
M 296.18 181.55 301.03 180.52 
M 296.2 183.53 301.07 184.02 
M 296.35 186.03 300.5 186.7 
M 302.33 196.48 300.41 193.96 298.93 192.99 
M 292.71 63.02 294.8 62.45 296.38 61.58 
M 290.5 59.07 291.99 59.08 
M 290.39 59.33 293.39 59.88 
M 290.74 72.61 292.85 71.93 295.55 70.17 297.29 68.19 297.29 66.96 295.55 64.97 292.85 63.22 290.74 62.53 
M 288.62 66.56 294.49 66.12 
M 288.95 67.9 293.86 67.82 
M 288.93 68.34 293.91 68.92 
M 288.81 85.02 290.94 84.13 293.66 81.86 295.42 79.29 295.42 77.69 293.66 75.12 290.94 72.85 288.81 71.96 
M 286.54 77.06 292.32 76.17 
M 286.49 78.11 291.84 78.21 
M 286.61 79.52 292.54 80.13 
M 289.12 101.78 291.21 100.64 293.9 97.72 295.63 94.41 295.63 92.37 293.9 89.06 291.21 86.13 289.12 84.99 
M 287.1 91.41 292.78 90.93 
M 287.19 93.18 292.25 93.76 
M 286.91 94.76 292.5 95.84 
M 291.59 121.69 293.46 120.35 295.84 116.9 297.38 113 297.38 110.59 295.84 106.68 293.46 103.24 291.59 101.89 
M 289.73 109.9 294.62 108.64 
M 289.99 111.67 294.83 111.96 
M 289.65 113.74 294.75 114.85 
M 297.53 140.67 299.23 137.82 300.64 133.69 300.64 131.13 299.23 127 297.06 123.35 295.36 121.93 
M 294.09 130.65 297.97 128.95 
M 293.5 132.7 298.05 132.08 
M 293.76 134.52 298.35 135.72 
M 298.66 163.39 300.51 161.98 302.89 158.38 304.42 154.29 304.42 151.77 302.89 147.69 300.51 144.08 298.66 142.68 
M 296.97 150.73 301.37 149.97 
M 297.01 153.1 301.32 153.35 
M 296.71 155.27 301.54 156.14 
M 302.74 182.42 303.55 181.86 306.07 178.41 307.7 174.5 307.7 172.08 306.07 168.17 303.55 164.71 301.58 163.37 
M 299.54 171.68 304.8 170.12 
M 299.31 172.9 304.63 173.08 
M 299.88 174.89 304.87 176.14 
M 309.9 192.9 309.9 191.24 308.26 187.75 305.72 184.67 303.74 183.47 
M 301.95 190.25 306.78 189.43 
M 302.15 192.31 307.07 192.46 
M 302.17 194.1 305.8 194.84 
M 297.64 67.7 299.39 67.08 301.64 65.49 302.04 64.99 
M 296.32 62.08 297.13 62.01 
M 296.22 62.9 298.84 62.99 
M 296 64.17 300.65 64.17 
M 295.2 78.26 297.02 77.49 299.35 75.52 300.85 73.28 300.85 71.9 299.35 69.67 297.02 67.7 295.2 66.93 
M 293.28 71.63 298.04 71.26 
M 293.13 72.46 298.49 72.99 
M 293.07 73.62 297.9 73.92 
M 294.24 92.95 296.07 91.93 298.41 89.32 299.92 86.36 299.92 84.53 298.41 81.58 296.07 78.97 294.79 78.25 
M 292.3 84.18 296.97 83.29 
M 292.46 85.38 297.01 85.06 
M 292.58 86.56 297.08 87.54 
M 296.83 110.58 297.62 110.03 299.81 106.99 301.22 103.55 301.22 101.42 299.81 97.98 297.62 94.94 295.91 93.75 
M 294.33 100.35 298.53 99.72 
M 294.57 102.27 298.91 102.8 
M 294.08 104.4 298.52 105.41 
M 297.16 130.22 298.5 128.87 300.2 125.4 301.31 121.47 301.31 119.04 300.2 115.12 298.5 111.65 297.16 110.3 
M 295.79 118.32 299.28 117.65 
M 295.54 120.49 299.52 120.28 
M 295.76 122.24 299.32 122.95 
M 303.76 149.36 304.63 147.45 305.75 143.16 305.75 140.51 304.63 136.23 302.9 132.45 301.55 130.98 
M 300.26 139.93 304.02 138.71 
M 299.9 141.5 303.4 141.47 
M 300.27 143.72 303.66 144.72 
M 305.22 173.54 306.88 172.1 309.02 168.41 310.39 164.24 310.39 161.65 309.02 157.48 306.88 153.79 305.22 152.36 
M 303.88 160.45 307.86 159.58 
M 303.55 163.19 307.83 163.06 
M 303.85 164.86 307.8 165.73 
M 309.31 192.65 310.27 191.87 312.33 188.54 313.66 184.77 313.66 182.43 312.33 178.66 310.27 175.33 308.67 174.03 
M 309.71 192.98 309.46 192.81 
M 302.21 73.4 304.35 72.7 307.1 70.92 308.25 69.6 
M 299.89 67.33 304.6 66.89 
M 299.85 67.91 305.54 68.22 
M 300.25 68.99 305.3 69.72 
M 300.51 85.91 302.66 85.03 305.41 82.78 307.19 80.22 307.19 78.64 305.41 76.09 302.66 73.83 300.51 72.95 
M 298.27 78.03 304.06 77.52 
M 298.66 79.52 303.86 79.3 
M 298.23 80.76 303.78 81 
M 300.71 101.68 302.51 100.74 305.14 98.02 306.83 94.94 306.83 93.03 305.14 89.94 302.51 87.22 300.47 86.16 
M 298.33 92.8 303.69 91.43 
M 298.51 93.88 304.01 94.03 
M 298.62 95.22 303.95 96.25 
M 301.18 119.72 303.03 118.49 305.39 115.33 306.92 111.76 306.92 109.54 305.39 105.97 303.03 102.81 301.18 101.58 
M 299.18 109.08 304.25 107.69 
M 299.03 110.27 303.8 110.91 
M 299.37 112.42 304.12 113.43 
M 305.35 139.07 307.59 135.4 309.02 131.27 309.02 128.71 307.59 124.58 305.38 120.94 303.66 119.51 
M 302.32 127.81 306.74 126.8 
M 301.85 129.8 306.08 129.95 
M 302.65 132.36 306.8 133.34 
M 308.21 162.83 310.07 161.34 312.46 157.52 314 153.19 314 150.51 312.46 146.18 310.07 142.36 308.21 140.87 
M 306.52 149.86 310.87 148.2 
M 306.63 151.69 310.87 151.52 
M 306.36 153.93 311.13 155.38 
M 313.18 182.52 314.08 181.89 316.59 178.34 318.21 174.32 318.21 171.83 316.59 167.81 314.08 164.26 312.12 162.88 
M 318.95 188 318.74 187.53 316.24 184.42 314.3 183.21 
M 306.88 79.17 308.67 78.4 310.95 76.43 312.42 74.21 312.42 72.83 312.26 72.59 
M 304.87 72.14 309.89 71.95 
M 305.48 73.32 310.14 73.24 
M 304.9 74.99 309.8 74.91 
M 305.72 93.26 307.45 92.3 309.68 89.83 311.11 87.04 311.11 85.31 309.68 82.51 307.45 80.04 306.55 79.54 
M 303.9 84.91 308.78 84.39 
M 304.13 85.96 308.23 86.54 
M 304.4 87.74 308.55 88.44 
M 306.37 109.53 307.55 108.71 309.54 105.94 310.83 102.8 310.83 100.85 309.54 97.72 307.55 94.94 305.99 93.86 
M 304.13 100.51 308.47 99.57 
M 304.44 102.02 308.84 101.99 
M 304.7 103.74 308.68 104.55 
M 305.64 127.65 307.2 126.34 309.21 122.99 310.5 119.2 310.5 116.85 309.21 113.05 307.2 109.7 306.82 109.38 
M 304.42 116.27 308.36 114.99 
M 304.03 117.81 308.31 117.9 
M 304.12 119.77 307.93 121.23 
M 312.94 147.34 313.7 145.77 314.93 141.25 314.93 138.45 313.7 133.92 311.78 129.93 310.28 128.37 
M 315.79 173.78 317.49 172.29 319.67 168.46 321.07 164.12 321.07 161.44 319.67 157.1 317.49 153.27 315.79 151.77 
M 323.13 185.68 323.65 184.16 323.65 181.81 322.36 178.01 320.35 174.66 318.79 173.36 
M 313.69 74.07 314.08 73.95 
M 311.81 86.24 313.95 85.39 316.68 83.21 318.45 80.74 318.45 79.22 316.68 76.75 313.95 74.57 311.89 73.75 
M 311.04 101.29 313.07 100.28 315.68 97.67 317.36 94.72 317.36 92.9 315.68 89.95 313.07 87.34 311.04 86.32 
M 308.72 92.66 314.66 91.69 
M 309.28 94.16 314.52 93.68 
M 308.93 95.69 314.52 96.41 
M 311.13 118.72 313.12 117.51 315.67 114.43 317.32 110.94 317.32 108.79 315.67 105.3 313.12 102.22 311.13 101.01 
M 308.86 108.21 314.48 106.82 
M 309.54 109.79 314.26 109.96 
M 309.3 111.96 314.31 112.78 
M 314.49 138.74 315.34 138.12 317.83 134.44 319.45 130.28 319.45 127.7 317.83 123.53 315.34 119.86 313.38 118.42 
M 318.44 162.56 320.37 161.03 322.85 157.13 324.44 152.71 324.44 149.97 322.85 145.55 320.37 141.65 318.44 140.13 
M 323.19 182.62 324.5 181.66 326.94 178.1 328.5 174.07 328.5 171.57 326.94 167.54 324.5 163.98 322.6 162.59 
M 326.36 183.88 324.59 182.71 
M 318.1 79.48 320.19 78.52 
M 316.76 92.93 318.33 92.11 320.61 89.75 322.08 87.08 322.08 85.42 320.61 82.75 318.33 80.39 316.55 79.47 
M 315.89 109.09 317.6 107.99 319.79 105.17 321.2 101.98 321.2 100 319.79 96.8 317.6 93.98 316.76 93.44 
M 318.87 126.91 321.12 123.63 322.61 119.81 322.61 117.44 321.12 113.61 318.8 110.24 316.99 108.92 
M 320.62 150.91 322.26 149.36 324.35 145.37 325.7 140.85 325.7 138.06 324.35 133.54 322.26 129.55 320.62 128 
M 327.94 173.4 328.67 172.73 330.74 168.93 332.07 164.62 332.07 161.96 330.74 157.65 328.67 153.85 327.06 152.36 
M 333.12 180.54 332.09 177.4 330.23 174.15 328.77 172.88 
M 323.38 86.89 325.6 86.06 327.94 84.31 
M 322.23 101.68 324.44 100.67 327.28 98.08 329.1 95.16 329.1 93.35 327.28 90.42 324.44 87.84 322.23 86.83 
M 322.41 119.19 324.63 118 327.47 114.93 329.29 111.47 329.29 109.32 327.47 105.85 324.63 102.79 322.41 101.59 
M 325.21 139.09 326.54 138.2 329.23 134.62 330.97 130.55 330.97 128.04 329.23 123.97 326.54 120.39 324.44 118.99 
M 328.86 161.88 330.76 160.4 333.18 156.62 334.75 152.34 334.75 149.69 333.18 145.42 330.76 141.64 328.86 140.16 
M 334.47 179.9 336.34 176.99 337.77 173.08 337.77 170.66 336.34 166.74 334.12 163.29 332.38 161.94 
M 328.6 94.28 330.5 93.37 332.94 91.02 334.52 88.36 334.52 87.83 
M 327.9 110.3 329.88 109.2 332.4 106.4 334.03 103.22 334.03 101.25 332.4 98.08 329.88 95.27 328.45 94.48 
M 330.34 128.07 330.76 127.79 333.19 124.54 334.75 120.87 334.75 118.59 333.19 114.91 330.76 111.67 328.86 110.4 
M 333.93 146.95 335.08 144.92 336.45 140.69 336.45 138.07 335.08 133.83 332.95 130.1 331.29 128.64 
M 336.46 172.26 337.87 170.86 339.68 167.28 340.85 163.21 340.85 160.7 339.68 156.64 337.87 153.05 336.46 151.65 
M 340.72 176.98 340.21 175.28 338.55 172.1 337.25 170.86 
M 334.6 103.31 336.95 102.3 339.95 99.7 341.88 96.76 341.88 94.94 339.95 92 336.95 89.4 334.83 88.49 
M 334.75 120.5 337.04 119.34 339.97 116.37 341.86 113 341.86 110.92 339.97 107.56 337.04 104.58 334.75 103.42 
M 335.85 139.55 337.96 138.24 340.66 134.9 342.41 131.12 342.41 128.77 340.66 124.99 337.96 121.65 335.85 120.34 
M 338.66 160.08 340.51 158.72 342.88 155.24 344.41 151.3 344.41 148.87 342.88 144.93 340.51 141.45 338.66 140.09 
M 343.55 175.67 344.44 174.29 345.79 170.62 345.79 168.36 344.44 164.7 342.35 161.46 340.72 160.2 
M 340.92 96.07 342.91 95.12 345.42 92.72 
M 340.99 112.61 342.94 111.51 345.43 108.71 347.03 105.53 347.03 103.56 345.43 100.38 342.94 97.58 340.99 96.48 
M 341.25 130.04 343.07 128.86 345.4 125.83 346.9 122.4 346.9 120.28 345.4 116.85 343.07 113.82 341.25 112.64 
M 343.86 147.35 345.78 144.31 347.16 140.51 347.16 138.16 345.78 134.36 343.66 131.01 342.08 129.76 
M 345.31 168.6 346.32 167.71 348.15 164.47 349.33 160.81 349.33 158.53 348.15 154.87 346.32 151.63 344.88 150.37 
M 343.21 158.16 346.84 156.79 
M 343.43 159.55 347.06 159.43 
M 343.21 161.26 346.9 162.3 
M 347.79 173.71 347.24 172 345.58 169.07 345.31 168.83 
M 343.96 174.68 346.74 173.88 
M 347.13 104.89 349.45 103.9 352.42 101.36 354.33 98.49 354.33 97.29 
M 344.56 95.86 350.38 95.23 
M 344.59 97.56 350.75 97.94 
M 344.56 98.81 350.9 99.55 
M 346.78 121.42 348.93 120.31 351.67 117.45 353.45 114.22 353.45 112.22 351.67 108.99 348.93 106.14 346.78 105.03 
M 344.95 111.92 350.22 111.06 
M 344.47 113.45 350.33 113.19 
M 344.37 114.67 349.9 115.59 
M 347.02 139.38 349.04 138.16 351.62 135.02 353.29 131.46 353.29 129.26 351.62 125.71 349.04 122.57 347.02 121.34 
M 344.86 128.18 350.09 128.05 
M 344.7 130.05 349.92 130.33 
M 345.2 132.06 350.29 132.92 
M 348.52 158.46 350.38 157.2 352.75 153.99 354.28 150.34 354.28 148.09 352.75 144.44 350.38 141.23 348.52 139.97 
M 347.02 147.75 351.37 146.08 
M 346.63 149.04 351.68 149.02 
M 346.76 150.73 351.31 152.31 
M 353.03 171.29 354.3 168.2 354.3 166.13 352.92 162.78 350.78 159.82 349.1 158.67 
M 347.68 165.45 351.47 164.54 
M 347.35 167.32 351.95 167.4 
M 347.33 169.16 351.61 169.55 
M 353.9 97.81 354.68 97.47 
M 352.7 113.06 352.81 112.99 
M 352.81 112.99 354.46 112.03 356.71 109.4 358.16 106.41 358.16 104.56 356.71 101.58 354.46 98.94 353.65 98.47 
M 353.65 98.47 352.7 97.91 
M 350.94 104.3 355.37 103.61 
M 350.8 105.63 355.87 105.38 
M 351.14 107.22 355.82 108.02 
M 352.69 129.61 353.81 128.82 355.9 125.88 357.25 122.55 357.25 120.49 355.9 117.16 353.81 114.22 352.81 113.52 
M 350.45 120.03 355.16 119.34 
M 350.63 121.34 354.83 121.38 
M 350.42 123.03 354.6 123.91 
M 352.67 148.55 354.28 147.29 356.35 144.05 357.68 140.39 357.68 138.12 356.35 134.46 354.28 131.23 352.67 129.96 
M 350.92 137.18 355.13 136.4 
M 351.5 139.11 355.29 139.33 
M 351.3 141.2 354.91 142.21 
M 354.54 167.34 356.02 166.16 357.91 163.11 359.13 159.66 359.13 157.53 357.91 154.08 356.02 151.04 354.54 149.85 
M 352.93 157.14 357 156.11 
M 353 158.56 357.16 158.66 
M 353.33 160.6 356.71 161.27 
M 355.75 170 354.08 167.54 352.7 166.51 
M 359.26 105.71 361.59 104.8 363.94 102.95 
M 356.98 99.12 357.44 99.08 
M 357.36 100.14 359.66 100.4 
M 357.68 121.18 359.79 120.12 362.5 117.4 364.24 114.32 364.24 112.42 362.5 109.34 359.79 106.62 357.68 105.56 
M 355.88 111.59 360.74 111.06 
M 355.69 112.99 361.06 113.3 
M 355.51 114.89 360.8 115.36 
M 357.46 138.82 359.44 137.63 361.97 134.58 363.6 131.13 363.6 128.99 361.97 125.54 359.44 122.49 357.46 121.3 
M 355.18 127.95 361 127.63 
M 355.18 130.29 360.86 129.75 
M 355.64 131.6 360.48 132.52 
M 358.69 157.08 360.29 156.05 362.68 152.96 364.23 149.46 364.23 147.29 362.68 143.79 360.29 140.7 358.42 139.49 
M 356.35 146.86 361.63 145.61 
M 356.38 148.43 361.37 148.24 
M 356.51 149.91 361.13 151.1 
M 363.58 165.99 363.58 164.48 362.12 161.34 359.87 158.56 358.12 157.48 
M 356.56 164.11 361.2 162.83 
M 356.22 165.59 361 165.57 
M 356.27 167.36 359.71 167.98 
M 363.6 112.61 365.5 111.66 367.94 109.24 369.49 106.52 
M 361.67 104.45 365.36 103.85 
M 361.61 106 366.32 105.46 
M 361.73 107.07 366.56 107.84 
M 363.01 128.6 363.98 127.98 366.23 125.1 367.68 121.84 367.68 119.83 366.23 116.57 363.98 113.69 362.23 112.57 
M 360.63 119.46 364.76 118.74 
M 360.25 121.01 365.29 120.67 
M 360.54 122.72 364.81 122.98 
M 362.77 147.68 364.35 146.45 366.38 143.3 367.69 139.73 367.69 137.52 366.38 133.95 364.35 130.8 363.01 129.76 
M 361.2 136.5 365.14 136.2 
M 361.38 138.71 365.32 138.78 
M 361.4 140.48 365.51 141.71 
M 363.69 165.44 365.25 164.3 367.25 161.37 368.55 158.05 368.55 155.99 367.25 152.67 365.25 149.74 363.69 148.59 
M 362.37 155.05 366.04 154.61 
M 361.89 157.24 366.55 156.81 
M 362.26 159.07 365.89 159.93 
M 363.17 166.2 363.06 166.06 
M 369.35 121.67 371.74 120.67 374.79 118.1 376.76 115.19 376.76 113.39 374.79 110.47 372.05 108.16 
M 371.46 107.79 369.35 106.9 
M 367.28 112.52 373.47 111.83 
M 366.75 114.61 373.54 114.07 
M 367.02 116.04 372.9 116.27 
M 368.16 138.4 370.29 137.26 373.02 134.34 374.78 131.04 374.78 128.99 373.02 125.68 370.29 122.76 368.16 121.62 
M 366.22 128.47 371.65 127.12 
M 366.42 129.95 371.26 130.26 
M 365.75 131.83 371.93 132.65 
M 368.5 156.35 370.46 155.18 372.98 152.17 374.59 148.78 374.59 146.67 372.98 143.27 370.46 140.27 368.5 139.1 
M 366.46 145.69 371.61 145.26 
M 366.53 147.36 371.32 147.72 
M 366.42 149.11 371.41 150.23 
M 372.3 160.93 371.97 160.29 369.56 157.59 368.08 156.77 
M 366.07 162.76 370.44 161.86 
M 365.95 164.05 366.79 164.15 
M 376.95 114.97 379.14 114.05 379.78 113.51 
M 374.64 130.02 376.73 128.99 379.42 126.37 381.15 123.39 381.15 121.55 379.42 118.58 376.73 115.95 376.05 115.62 
M 374.01 146.11 374.68 145.64 376.82 142.61 378.2 139.18 378.2 137.06 376.82 133.63 374.68 130.6 373.01 129.42 
M 371.04 136.59 375.96 135.39 
M 371.06 138.44 375.45 138.04 
M 371.38 139.84 375.86 140.38 
M 379.88 156.35 378.46 152.85 376.27 149.95 374.55 148.83 
M 382.87 124.09 385.4 123.13 388.64 120.67 389.08 120.07 
M 380.16 139.1 382.46 138.03 385.4 135.3 387.3 132.2 387.3 130.29 385.4 127.19 382.46 124.46 380.53 123.57 
M 379.4 156.21 381.46 155.08 384.1 152.17 385.8 148.89 385.8 146.85 384.1 143.56 381.46 140.66 379.4 139.53 
M 388.73 132.76 390.76 131.81 391.93 130.7 
M 384.27 146.79 386.13 145.68 388.52 142.84 390.06 139.62 390.06 137.63 388.52 134.42 386.62 132.16 
M 388.02 151.38 387.38 150.51 385.76 149.4 
M 391.93 142.16 390.56 141.54 
M 168.92 179.69 170.51 176.51 170.51 174.85 
M 169.79 175.92 170.97 175.12 
M 173.86 187.63 174.83 185.3 174.83 183.23 173.45 179.9 171.3 176.96 169.71 175.87 
M 175.1 184.33 177.14 183.16 179.83 179.99 
M 181.35 192.7 181.35 191.64 179.69 188.39 177.12 185.52 175.11 184.41 
M 191.24 192.83 192.92 191.69 195.08 188.75 195.61 187.47 
M 196.39 201.85 196.39 200.02 195.04 196.88 192.94 194.11 191.3 193.03 
M 196.58 200.76 198.54 199.65 201.06 196.82 202.69 193.61 202.69 191.63 202.18 190.63 
M 200.76 204.52 198.27 201.81 196.36 200.78 
M 204.03 206.33 205.27 204.65 206.57 201.58 206.57 199.68 205.27 196.61 203.26 193.89 201.68 192.84 
M 211.36 210.11 212.14 208.58 212.14 206.73 210.61 203.73 208.24 201.08 206.38 200.05 
M 206.16 207.45 209.28 207.31 
M 211.51 207.32 211.59 207.26 
M 211.59 207.26 213.04 206.29 215 203.64 216.27 200.65 216.27 198.79 214.79 195.52 
M 210.01 201.45 214.01 201.66 
M 214 60.48 214 60.48 
M 218.47 212.84 220.41 210.67 221.94 207.65 221.94 205.79 220.41 202.77 218.03 200.11 216.18 199.07 
M 221.32 206.27 222.87 205.26 224.86 202.66 226.14 199.71 226.14 198.86 
M 220.1 198.48 223.75 198.78 
M 225.5 215.29 225.75 214.69 225.75 212.77 224.45 209.65 222.44 206.9 220.86 205.82 
M 221.44 213.91 223.06 214.02 
M 226.21 213.71 228.18 212.67 230.71 209.99 232.34 206.95 232.34 205.07 230.71 202.04 228.26 199.45 
M 224.65 204.71 229.09 203.85 
M 224.19 205.83 229.44 205.96 
M 230.82 216.85 229.32 215.27 227.38 214.25 
M 231.41 205.61 233.13 204.6 235.34 202 235.96 200.72 
M 229.91 213.61 234.02 213.42 
M 229.54 215.24 234.05 215.61 
M 237.28 213.88 239.43 212.86 242.18 210.23 243.96 207.25 243.96 205.41 242.18 202.43 241.39 201.68 
M 243.34 219.64 242.25 217.75 239.74 215.26 237.79 214.3 
M 238.41 53.35 238.41 53.35 
M 245.37 220.11 247.25 218.12 248.78 215.28 248.78 213.52 247.25 210.68 244.89 208.18 243.32 207.35 
M 249.19 214.76 251.37 213.77 254.15 211.24 255.94 208.37 255.94 206.59 254.74 204.67 
M 254.17 222.42 254.53 221.88 254.53 220.32 252.85 217.79 250.24 215.56 248.21 214.69 
M 255.35 208.35 257.12 207.29 259.06 204.97 
M 255.05 222.66 253.56 221.35 251.8 220.58 
M 256.35 52.5 256.35 52.5 
M 260.51 215.33 262.57 214.34 265.19 211.81 266.89 208.93 266.89 207.16 265.53 204.85 
M 266.54 52.62 266.54 52.62 
M 276.68 220.05 275.95 218.93 273.21 216.56 271.07 215.64 
M 276.76 208.25 278.45 207.19 280.62 204.49 281.89 201.72 
M 279.89 219.39 281.5 216.21 281.5 214.4 280.09 211.47 277.91 208.88 276.2 207.87 
M 274.45 214.18 279.16 212.9 
M 274.22 216.58 278.58 217.91 
M 282.11 215.78 284.17 214.74 286.8 212.09 288.49 209.08 288.49 207.22 286.8 204.21 283.87 201.41 
M 279.99 209.49 285.33 210.22 
M 285.69 218.13 284.3 216.85 282.24 215.9 
M 286.53 200.99 290.66 200.79 
M 293 216.25 293 215.07 291.57 212.19 289.34 209.65 287.89 208.82 
M 285.69 214.13 290.28 213.75 
M 286.25 217.2 287.81 217.65 
M 287.23 57.13 287.23 57.13 
M 293.06 201.18 295.06 199.98 296.1 198.74 
M 291.57 207.32 296.44 206.14 
M 291.5 210.12 296.84 210.87 
M 296.92 202.93 301.2 203.77 
M 303.74 201.17 305.72 199.96 308.26 196.88 309.9 193.4 309.9 192.9 
M 305.8 194.84 306.58 195 
M 302.25 206.92 306.96 206.6 
M 302.39 209.72 305.14 210.19 
M 302.04 64.99 302.04 64.99 
M 313.39 204.85 314.66 201.91 314.66 199.93 313.27 196.74 311.13 193.91 309.71 192.98 
M 312.26 72.59 312.26 72.59 
M 324.25 197.24 324.02 196.69 321.93 193.78 320.29 192.64 
M 330.08 193.34 330.32 192.78 330.32 190.59 328.8 187.05 326.36 183.88 
M 320.19 78.52 320.19 78.52 
M 328.77 191.57 330.23 190.3 332.09 187.05 333.3 183.37 333.3 181.09 333.12 180.54 
M 331.33 192.6 330.53 191.98 
M 332.87 181.42 334.12 180.45 334.47 179.9 
M 338.7 188.27 337.69 185.68 335.58 182.57 333.92 181.36 
M 337.36 189.03 338.55 187.89 340.21 184.71 341.28 181.11 341.28 178.88 340.72 176.98 
M 340.72 178.78 342.35 177.52 343.55 175.67 
M 345.37 183.79 347.24 180.68 348.31 177.37 348.31 175.31 347.79 173.71 
M 343.01 176.13 346.66 176.18 
M 350.38 95.23 350.38 95.23 
M 349.1 175.66 350.78 174.5 353.03 171.29 
M 346.73 181.78 350.73 180.58 
M 346.47 182.82 347.89 183.04 
M 355.28 178.77 355.85 177.92 356.99 174.96 356.99 173.12 355.75 170 
M 351.02 172.91 354.61 172.01 
M 351.67 173.65 355.3 174.19 
M 351.42 175.39 354.83 176.3 
M 350.95 181.28 350.51 180.91 
M 363.94 102.95 363.94 102.95 
M 353.84 178.59 355.9 178.37 
M 369.49 106.52 369.49 106.52 
M 360.78 170.9 364.13 170.28 
M 360.34 172.36 363.9 172.47 
M 372.05 108.16 372.05 108.16 
M 372.72 166.82 373.53 165.23 373.53 163.34 372.3 160.93 
M 366.79 164.15 371.07 164.65 
M 365.99 171.72 364.62 171 
M 379.78 113.51 379.78 113.51 
M 376.61 163.87 378.46 161.42 379.88 158.15 379.88 156.35 
M 373.63 166.13 372.5 164.74 370.94 163.78 
M 389.08 120.07 389.08 120.07 
M 389.68 153.89 389.46 153.36 388.02 151.38 
M 201.85 65.54 201.85 65.54 
M 206.25 63.46 207.53 59.67 208.7 57.63 209.25 54.93 212.6 51.64 214.1 49.82 215.95 48.34 220.38 46.14 222.96 46.04 224.88 45.66 230.56 45.73 233.11 45.22 234.65 43.67 237.1 42.77 238.89 41.22 240.8 40.21 243.12 39.61 247.15 37.44 251.64 36.27 254.22 36.13 256.48 36.38 259.08 37.24 264.2 37.93 267.6 35.15 269.61 34.22 271.48 33.14 273.89 32.36 276.78 32.1 280.05 32.52 282.33 31.97 283.63 30.6 288.18 30 290.33 30.6 292.25 31.52 297.22 34.46 301.33 36.47 304.01 39.66 308.49 42.54 310.83 44.26 315.73 47.34 318 49.11 319.41 50.47 321.04 52.27 324.9 57.44 326.82 59.27 328.01 61.74 333.01 68.67 333.9 70.45 335.76 73.26 335.48 75.06 335.51 77.51 334.86 78.9 333.85 80.17 331.12 86.02 
M 328.05 84.39 328.05 84.39 
M 205.42 63.85 205.43 63.84 
M 206.21 63.47 206.86 62.21 
M 208.99 62.15 209.01 62.14 
M 210.44 61.46 210.96 59.84 210.23 58.86 
M 212.71 60.8 213.97 60.09 214 58.16 
M 216.55 59.85 216.55 59.84 
M 218.19 59.44 218.36 57.72 218.05 55.92 
M 220.38 58.89 222.04 58.25 222.1 56.29 222.56 53.36 
M 224.21 57.9 225.92 56.86 226.8 54.69 227.01 52.87 226.72 48.35 
M 228.04 56.92 229.69 56.13 230.34 54.12 230.77 52.01 230.74 49.45 
M 231.78 55.65 232.68 54.95 233.02 53.15 232.83 51.83 
M 235.5 54.31 236.3 53.32 236.68 51.4 236.33 50.21 237.21 47.93 238.34 45.94 
M 239.3 53.19 240.35 51.75 240.26 49.88 239.84 48.11 240.51 45.88 
M 243.19 52.49 244.54 51.43 245.28 44.93 245.72 43.28 
M 247.08 51.83 248.88 50.69 250.09 48.27 251.43 46.54 253.36 39.97 253.67 37.85 
M 251.03 52.13 253.3 50.65 254.35 48.74 254.94 46.85 255.83 44.8 
M 254.97 52.42 257.18 51.09 258.26 48.7 258.6 46.66 259.12 44.89 
M 258.92 52.53 261.07 51.15 262.28 49.06 262.96 46.75 264.11 44.81 265.49 43.17 265.78 41.54 
M 262.87 52.58 264.31 51.39 267.31 47.06 269.23 42.72 269.5 39.27 
M 266.83 52.63 268.56 51.28 270.69 47.68 271.7 45.38 275.17 39.98 
M 270.78 52.68 272.94 52.06 273.88 50.47 274.51 48.36 277.21 44.17 279.09 39.75 
M 274.72 52.95 276.66 51.77 278.22 50.07 279.59 47.95 281.5 46.73 283.17 45.07 284.41 37.2 285.86 35.12 287.64 33.34 288.99 31.62 
M 278.52 54.07 280.69 53.03 284.29 49.64 285.99 47.68 287.08 46.16 288.55 44.66 290.04 42.78 
M 282.31 55.19 284.87 54.23 288.04 51.4 289.74 50.23 293.6 45.86 294.63 43.92 295.82 42.35 297.42 41.24 299.83 39.93 301.29 37.68 
M 285.99 56.62 288.12 55.9 290.29 54.53 292.67 53.27 294.09 52 295.86 49.84 
M 289.65 58.12 291.95 57.43 295.61 54.8 299.13 51.37 302.49 47.62 302.88 46.83 
M 293.23 59.79 296.41 58.75 298.27 57.23 299.94 56.11 302.27 55.02 304.07 53.9 
M 296.67 61.75 299.79 60.99 303.86 57.94 305.39 57.07 307.37 55.48 308.99 53.88 310.15 52.27 312.36 50.86 314.34 51.18 
M 300.1 63.71 303.22 62.97 305.43 61.69 307.55 60.23 309.02 58.83 310.62 57.68 312.17 56.01 
M 303.35 65.96 306.52 65.71 308.58 65.07 310.83 63.72 313.9 62.74 316.62 61.47 317.38 59.74 
M 306.52 68.32 309.85 68.39 312.44 67.53 316.94 65.31 318.71 63.62 
M 309.7 70.67 315.22 69.92 316.75 69 318.98 68.52 
M 312.87 73.04 315.76 72.85 317.94 72.33 319.94 71.53 
M 316.03 75.41 319.24 74.94 321.92 73.76 326.41 72.64 
M 319.2 77.78 322.68 77.35 325.36 76.83 327.54 76.18 329.26 74.92 331.03 73.35 
M 322.37 80.14 325.89 80.92 328.61 80.35 330.19 79.83 
M 325.53 82.51 328.4 82.51 331.74 82.78 
M 180.36 127.84 204.22 118.56 204.52 119.29 179.65 130.4 
M 178.84 133.21 240.28 116.72 240.49 117.48 178.48 135.9 
M 178.22 138.12 248.79 127.93 248.91 128.71 177.89 140.74 
M 177.63 142.8 257.67 140.82 257.7 141.61 177.14 145.4 
M 176.67 147.27 272.46 156.26 272.39 157.05 176.01 149.86 
M 175.57 151.51 263.15 170.56 262.99 171.33 174.89 154.07 
M 174.49 155.53 245.67 180.38 245.42 181.13 173.78 158.07 
M 173.44 159.25 203.72 174.55 203.38 175.27 172.77 161.64 
M 200.7 121 207.91 121.51 215.08 121.54 222.19 120.85 225.73 120.25 232.79 118.73 
M 233.06 119.69 233.91 122.42 235.13 124.85 236.92 126.83 240.47 129.13 
M 240.62 130.11 242.13 134.56 243.72 137.1 245.91 139.21 248.48 141.05 
M 248.51 142.05 250.75 145.7 251.98 147.42 254.8 150.49 258.13 153.04 261.8 155.26 
M 261.72 156.25 259.04 158.39 256.75 160.8 255.07 163.61 253.44 168.45 
M 253.24 169.42 249.32 170.34 247.43 170.94 243.9 172.59 240.7 174.89 237.73 177.6 
M 237.41 178.55 229.25 176.24 221.02 174.4 212.68 173.27 208.46 172.97 199.99 172.67 
M 204.31 121.29 211.5 121.61 215.08 121.54 222.19 120.85 229.27 119.52 
M 233.46 121.07 234.45 123.68 235.13 124.85 236.92 126.83 239.22 128.41 
M 209.78 127.62 210.86 130.07 212.03 131.36 213.52 132.39 
M 241.06 131.64 242.13 134.56 242.85 135.88 244.75 138.2 247.17 140.15 
M 223.49 134.28 224.32 136.51 225.54 138.46 226.33 139.31 228.18 140.8 
M 205.93 136.91 206.89 139.17 207.9 140.41 209.19 141.45 
M 249.61 143.9 251.98 147.42 254.8 150.49 256.41 151.83 259.94 154.17 
M 230.05 144.41 231.87 147.11 232.9 148.34 235.26 150.49 237.98 152.29 
M 210.5 144.92 212.48 147.66 214.12 149.15 216.01 150.4 
M 260.35 157.3 257.83 159.55 256.75 160.8 255.07 163.61 253.91 166.79 
M 238.29 155.43 236.35 157.15 235.53 158.1 234.24 160.26 233.35 162.7 
M 216.23 153.55 214.31 155.41 213.41 156.91 212.79 158.61 
M 251.26 169.85 247.43 170.94 243.9 172.59 242.26 173.67 239.2 176.22 
M 231.32 165.78 228.38 166.62 226.99 167.19 224.42 168.71 222.07 170.66 
M 211.38 161.72 209.33 162.3 207.45 163.18 204.94 165.11 
M 233.34 177.36 225.15 175.24 221.02 174.4 212.68 173.27 204.23 172.79 
M 219.88 221.51 223.77 226.97 227 232.15 229.08 235.14 232.35 242.05 234.27 245.02 234.22 246.73 235.55 248.87 236.32 251.65 233.7 255.91 232.3 257.82 230.22 259.05 228.39 263.92 227.16 266.03 224.02 269.55 222.09 270.93 219.18 271 216.52 271.33 214.6 272.39 213.05 272.95 207.62 276.81 207.44 275.49 207.66 273.25 207.57 270.52 208.37 268.95 207.72 266.25 208.03 263.46 209.26 261.16 209.68 258.82 209.74 256.1 210.01 253.92 209.76 251.85 209.88 246.75 210.31 244.66 210.95 239.15 211.19 235.07 211.33 231.81 210.91 228.71 210.85 225.93 211.15 220.59 210.87 217.74 
M 218.42 220.9 220.33 224.18 224.11 231.35 225.99 234.46 229.42 242.06 230.21 244.45 
M 216.96 220.29 219.56 226.27 222.19 233.84 224.62 238.71 225.05 241.75 226.43 244.34 226.97 246.81 228.03 248.89 228.47 251.22 229.4 253.77 
M 215.5 219.68 216.76 223.09 218.12 228.62 219.21 230.9 220.97 237.05 221.11 240.19 221.74 242.58 221.74 245.35 222.06 248.01 222.96 251.35 223.2 254.19 223.25 257.51 225.03 258.76 225.68 261.19 225.06 264.15 
M 214.04 219.07 215.49 225.16 216.04 230.21 216.93 232.53 217.52 234.67 217.62 237.21 217.36 239.56 217.81 242.25 
M 212.58 218.46 213.1 221.29 213.45 226.89 213.34 229.55 214.03 232.46 214.33 234.98 213.81 240.02 213.95 244.98 214.23 247.77 214.56 250.11 215.15 252.64 214.7 255.32 214.67 257.45 215.6 260.14 214.51 263.5 214.73 265.61 214.34 268.5 
M 364.1 176.79 372.03 183.79 375.47 185.65 378.2 186.88 373.53 189.08 371.89 190.53 369.56 191.29 368.08 193.07 367.57 195.7 365.94 197.41 363.49 198.24 362.01 199.87 359.85 200.48 358.29 202.24 355.99 203.28 353.35 203.96 348.79 206.03 347.95 208.38 347.44 211.05 346.48 213.3 344.7 214.69 342.31 215.62 340.72 217.38 339.67 219.45 338.81 221.61 338.59 224.12 339.21 227.56 337.61 232.43 336.01 234.19 333.3 234.8 331.3 235.98 329.15 240.16 326.02 243.69 324.96 245.87 323.09 250.63 320.26 254.52 318.61 256.2 315.99 260.23 313.95 261.53 311.2 262.07 309.42 263.65 308.1 265.68 306.4 270.38 305.9 272.94 304.89 275.79 301.96 280 300.72 278.05 298.84 275.84 298.07 273.67 295.96 270.79 291.19 266 289.89 264.27 288.81 260.19 287.05 258.61 285.43 256.21 282.53 254.81 279.09 251.77 277.54 249.81 276.45 247.41 274.75 245.79 267.53 234.49 264.95 231.88 
M 360.87 179.07 364.53 181.84 368.37 186.27 371.16 187.58 
M 357.65 181.35 361.99 183.71 364.97 185.64 366.65 187.3 
M 354.4 183.6 358.89 186.47 362.24 188.29 364.47 189.71 
M 351.06 185.72 354.95 188.55 357.59 190.81 360.58 192.64 
M 347.72 187.84 355.35 193.5 
M 344.37 189.94 347.64 192.52 349.76 194.56 
M 341.01 192.02 344.87 194.51 351.65 199.36 
M 337.65 194.1 343.38 198.61 346.28 200.14 348.16 201.85 350.26 204.39 
M 334.33 196.25 338.28 199.73 341.21 201.29 343.65 203.01 345.65 204.11 
M 331.02 198.41 334.78 201.83 337.68 203.87 341.93 206.56 343.84 208.54 
M 327.72 200.6 334.34 205.62 336.55 206.85 338.36 207.32 340.8 208.9 
M 324.62 203.04 331.23 206.99 333.54 208.77 335.64 209.27 
M 321.51 205.48 329.44 211.39 332.36 212.85 
M 318.39 207.92 321.93 210.75 324.31 212.03 326.97 213.79 329.23 215.88 
M 315.26 210.33 318.54 212.9 320.75 214.28 323.51 216.33 326.85 218.26 329.85 220.5 331.51 222.04 333.74 223.09 335.39 224.22 
M 312.12 212.74 320.28 218.83 322.77 220.46 325.28 221.8 
M 308.95 215.09 311.92 217.37 314.34 218.82 316.14 220.48 318.14 222.92 320.37 224.76 322.57 225.98 326.04 229.25 
M 305.69 217.33 308.64 219.76 312.99 222.65 314.64 224.58 316.84 226.42 319.41 228.02 321.08 230.08 
M 302.43 219.57 305.22 222.23 309.67 225.75 313.18 229.63 319.34 233.63 322.44 233.89 
M 299 221.54 303.59 226.44 305.88 228.65 309.98 231.81 313.36 233.58 315.46 235.56 
M 295.46 223.28 298.27 226.45 300.17 228.26 302.5 229.71 305.61 233.27 307.44 234.52 309.2 236.28 310.84 238.33 315.81 241.69 320.58 245.32 
M 291.9 225.01 298.07 232.72 301.27 235.85 304.56 239.85 306.35 242.75 
M 288.08 226.01 292.16 231.02 295.47 236.27 296.68 238.73 300.56 242.5 302.18 244.98 303.4 246.21 307.42 248.7 308.87 250.87 310.29 254.06 311.42 256.1 313.12 258.56 
M 284.25 227.01 286.59 229.88 288.63 231.9 291.67 236.03 297.13 242.59 298.49 245.26 299.55 246.95 300.15 248.51 304.77 252.1 307.98 256.32 309.77 257.92 
M 280.41 227.94 282.38 230.82 284.28 232.98 285.92 235.2 291.45 240.68 292.58 242.79 293.24 245.66 294 248.18 296.29 252.39 
M 276.56 228.85 282.03 235.87 283.72 237.7 286.72 241.41 289.89 246.1 291.27 248.91 292.82 251.23 293.88 253.48 294.88 254.91 298.86 257.36 300.02 259.75 301.74 262.57 303.76 265.05 
M 272.72 229.79 275 232.18 276.35 234.36 278.12 236.3 284.08 244.7 285.66 247.52 286.8 250.3 288.81 252.41 291.24 253.16 294.53 256.97 295.55 258.95 
M 268.9 230.81 271.21 233.07 273.17 235.31 274.54 237.99 276.98 242.09 278.65 243.65 280.23 245.52 281.45 248.15 282.98 250.58 284.86 252.53 287.99 253.63 289.77 255.64 292.23 259.11 293.57 262.06 
M 391.14 121.53 395.71 119.91 399.91 117.4 402.02 115.72 404.63 114.47 407.25 113.63 408.99 112 411.47 111.27 413.82 110.03 416.09 109.67 418.03 109.05 424.02 104.52 425.75 101.99 427.56 101.28 430.27 99.9 433.99 97.06 435.79 96.27 438.55 93.42 438.74 92.1 438.81 97.47 438.39 99.58 438.6 102.31 438.28 104.22 438.68 106.77 438.65 108.91 437.86 110.91 436.33 112.36 436.78 115.68 436.86 118.52 435.06 122.1 434.85 124.55 434.83 126.8 435.18 129.37 434.93 131.85 435.55 137.69 434.8 139.57 434.79 142.2 436.23 145.66 436.3 148.02 435.17 149.99 434.46 151.73 434.75 153.25 436.7 157.95 437.69 162.2 439.67 167.53 439.43 169.97 438.92 172.16 438.26 173.87 437.91 175.52 438.87 178.49 441.22 183.41 442.15 189.46 440.69 188.91 438.62 188.84 436 186.81 433.49 185.5 428.72 182.57 426.47 180.88 423.01 178.62 421.79 177.23 419.61 175.52 417.5 174.55 415.71 172.4 412.88 170.5 410.86 167.72 408.62 165.58 406.98 164.93 405.15 163.31 400.94 160.94 398.76 159.44 396.35 158.1 393.77 156.4 391.14 154.41 
M 391.14 123.17 393.92 122.43 397.98 121.07 405.35 117.29 410.01 114.78 412.15 113.43 417.07 112.35 419.33 111.44 421.44 109.99 425.63 108.68 427.79 106.47 430.2 104.4 431.96 103.28 433.16 101.8 435.54 100.49 437.59 100.28 
M 396.05 123.57 402.75 121.55 405.37 120.37 407.88 118.67 414.85 115.44 417.06 115.3 419.59 114.01 421.21 111.98 423.98 111.93 426.03 112.1 429.38 111.08 431.84 109.49 432.83 106.94 434.61 106.06 
M 391.14 126.46 393.82 126.24 398.83 125.11 401 124.39 402.88 124.28 405.21 123.44 407.88 121.82 410.32 121.22 412.68 121.05 415.43 119.47 417.38 118.8 419.18 117.46 422.76 114.16 
M 398.91 127.2 401.01 126.57 407.95 125.38 410.11 124.41 412.21 124.18 417.29 122.47 419.65 120.28 422.16 118.85 426.47 117.06 429.27 118.09 431.93 117.85 434.51 117.28 
M 393.94 129.69 396.55 129.39 406.15 127.56 408.4 127.49 412.83 127 
M 394.11 131.49 396.78 131.08 399.06 130.33 404.03 129.49 406.47 129.68 409.03 129.63 411.52 129.2 414.08 129.11 
M 391.14 133.04 394.24 133.36 404.45 131.92 409.58 132.14 411.85 131.04 
M 394.34 135.29 401.95 134.67 404.93 135.38 410.04 134.64 415.2 134.19 420.24 133.99 
M 396.71 137.04 401.74 137.09 403.98 137.71 407.04 138 415.14 137.7 
M 394.09 139.02 396.69 139.17 399.6 139.05 401.81 139.47 406.24 140.91 408.83 141.11 412.16 141.72 414.87 140.73 416.63 140.61 
M 399.62 141.3 401.99 141.83 403.93 142.76 409.67 143.86 411.56 144.65 414.3 144.11 416.47 144.13 421.93 145.7 424.27 145.96 427.16 145.46 429.71 145.53 432.69 146.27 
M 397.02 143.5 399.86 143.66 404.34 145.22 407.36 145.85 409.85 146.16 414.02 147.18 416.43 147.35 418.58 147.73 
M 391.14 142.9 394.5 144.41 397.15 145.31 399.8 146.43 402.34 147.05 404.54 147.35 407.46 148.16 414.28 149.59 416.32 150.24 419.19 151.57 
M 397.3 147.08 399.55 148.45 404.67 150.09 409.65 151.29 411.54 151.58 413.85 152.73 418.74 154.16 422.06 155.01 424.95 155.18 427.37 155.57 430.26 155.64 432.31 157.21 
M 391.14 146.19 397.27 149.01 399.46 150.28 404.27 152.64 406.66 152.8 408.84 153.43 410.48 153.62 413.25 154.62 415.15 155.73 418.21 156.53 421.33 157.76 424.57 158.72 427.11 160.26 430.44 160.63 
M 391.14 147.83 396.94 150.59 399.2 152.17 404.03 154.58 405.81 154.96 410.16 156.69 412.98 157.53 415.72 159.6 420.51 161.91 
M 399.09 154.3 401.64 155.71 405.56 157.13 407.53 157.49 410.11 158.71 412.97 160.97 415.59 162.55 418.21 163.43 
M 399.05 156.27 403.26 158.27 405.31 158.8 410.43 161.23 415.12 164.7 417.43 166.96 
M 398.96 157.78 408.07 162.7 410.05 164.04 414.03 167.77 419.01 171.23 421.34 172.35 423.47 173.8 425.11 175.15 426.38 176.7 428.49 177.95 
M 101.87 130.9 102.87 129.04 108.75 121.66 111.08 117.64 114.83 113.72 119.76 110.36 124.87 107.39 130.9 104.36 137.08 100.67 142.98 96.78 148.35 93.7 154.21 90.68 159.97 88.23 165.04 86.37 169.33 85.1 172.75 84.43 174.77 84.35 177.28 90.01 178.1 95.48 178.62 100.93 179.24 111.8 180.51 117.31 181.25 122.78 180.32 128.1 178.79 133.37 177.47 144.06 174.74 154.63 171.79 165.17 168.63 181.11 165.81 186.31 156.58 186.31 149.89 185.74 144.14 184.79 138.73 183.23 133.36 181.21 128.52 178.57 124.39 175.33 120.24 171.79 116.33 167.81 112.97 163.65 
M 111.96 162.1 110.51 159.88 108.24 155.86 106.16 151.74 104.46 147.71 103.17 143.68 102.63 141.33 
M 161.79 118.9 160.79 123.48 158.97 127.85 156.37 136.05 152.73 142.65 151.44 145.54 150.75 148.49 150.73 151.69 151.97 158.94 151.25 163.1 136.73 164.61 132.57 164.46 128.15 163.71 124.04 162.07 120.52 159.46 
M 112.24 162.77 106.49 149.2 99.39 134.75 98.82 132.89 99.8 131.18 101.76 130.8 103.33 132.23 105.52 137.92 108.03 145.08 111.63 156.92 113.38 163.46 
M 112.89 164.01 105.71 161.62 101.89 160.17 94.58 157.18 90.8 155.44 79.69 151.09 78.03 149.87 77.84 147.97 79.24 146.61 81.14 146.69 91.76 152 102.32 157.98 113.17 163.24 
M 129.69 132.93 127.79 130.27 126.86 127.15 127 123.89 128.18 120.85 130.29 118.36 133.09 116.69 136.28 116.02 139.52 116.43 142.45 117.86 144.75 120.16 146.19 123.09 146.59 126.33 145.92 129.52 144.25 132.32 141.76 134.43 138.72 135.62 135.47 135.75 132.34 134.82 129.69 132.93 
M 143.14 121.32 144.29 123.66 144.61 126.25 144.07 128.8 142.74 131.04 140.75 132.73 138.32 133.68 135.71 133.79 133.21 133.04 131.09 131.52 
M 133.3 128.13 132.54 127.07 132.17 125.82 132.22 124.51 132.69 123.3 133.54 122.3 134.66 121.64 135.93 121.37 137.23 121.53 138.4 122.1 139.32 123.02 139.9 124.2 140.06 125.49 139.79 126.77 139.12 127.89 138.13 128.73 136.91 129.21 135.61 129.26 134.36 128.89 133.3 128.13 
M 132.27 125.09 136.4 129.23 
M 133.59 124.27 138.07 128.76 
M 136.04 124.59 139.2 127.76 
M 135.64 122.06 139.89 126.31 
M 138.46 122.74 139.88 124.17 
M 119.28 170.81 120.05 171.58 
M 107.39 154.18 109.56 156.35 
M 103.89 145.94 105.88 147.92 
M 102.28 130.09 105.45 133.26 
M 104.25 127.32 107.93 131 
M 106.42 124.74 110.65 128.97 
M 108.47 122.04 111.96 125.54 
M 110.24 119.08 113.2 122.03 
M 112.29 116.38 115.38 119.47 
M 114.61 113.95 118.66 118.01 
M 117.38 111.98 120.67 115.28 
M 120.23 110.09 122.65 112.51 
M 123.23 108.34 127.66 112.77 
M 126.3 106.67 129.88 110.25 
M 129.46 105.08 133.94 109.57 
M 132.51 103.4 135.8 106.68 
M 135.48 101.62 138.43 104.57 
M 138.4 99.79 142.18 103.58 
M 141.26 97.91 145.27 101.92 
M 144.18 96.09 146.91 98.82 
M 147.2 94.36 151.7 98.86 
M 150.28 92.7 153.57 95.98 
M 153.42 91.09 157.37 95.05 
M 156.69 89.62 161.38 94.31 
M 160.02 88.21 164.45 92.64 
M 163.5 86.94 167.67 91.11 
M 167.07 85.77 171.06 89.76 
M 170.85 84.8 173.8 87.75 
M 124.23 123 122.37 122.24 118.95 121.53 118.12 121.67 116.86 122.49 114.33 123.66 113.42 124.82 
M 148.9 133.32 146.81 133.22 144.38 133.99 143.42 133.93 142.78 133.57 
M 173.24 98.1 173.5 96.47 172.43 94.08 172.37 91.46 172.52 89.53 
M 131.31 170.52 128.42 172.1 126.33 172.56 124.93 172.63 
M 156.34 185.51 155.59 181.56 
M 104.38 146.39 104.62 145.39 
M 177.02 104.38 173.48 105.07 171.56 105.74 170.09 105.91 167.72 107.04 166.86 107.62 
M 133.39 145.85 131.17 147.65 128.73 148.01 
M 111.59 118.52 111.69 119.12 111.36 119.52 110.82 119.7 110 119.51 
M 153.86 131.74 153.97 127.92 153.36 126.41 152.75 125.43 152.06 124.8 151.09 124.53 150.21 124.59 
M 155.98 149.56 155.89 149.94 
M 116.43 156.61 115.64 155.61 113.42 154.33 111.03 151.84 109.89 151.2 
M 165.35 145.66 164.02 146.49 
M 122.91 119.12 121.7 117.68 120.83 115.61 120.58 112.96 120.62 111.62 121.38 109.43 
M 164.63 110.59 164.27 108.41 164.39 107.98 164.89 107.3 166.37 106.01 
M 125.44 135.48 122.66 136.7 121.81 136.57 
M 155.86 139.71 156.08 140.68 156.56 141.65 157.8 142.82 158.28 143.56 158.64 145.74 
M 148.53 159.42 148.75 159.78 148.66 160.2 148.2 160.94 147.42 161.64 147.31 162.29 
M 128.86 120.05 127.93 119.11 125.22 117.44 124.29 116.1 123.68 114.57 
M 165.8 116.88 165.02 115.44 164.6 113.74 164.11 108.75 164.15 108.33 164.51 107.6 
M 156.63 96.39 155.88 96.3 154.53 96.77 150.41 99.63 147.75 100.58 
M 134.11 162.83 133.44 162.94 132.62 162.8 129.34 160.82 127.14 160.05 
M 164.05 112.62 164.08 108.39 164.67 107.37 165.88 106.4 
M 144.28 172.18 144.13 171.82 143.53 171.65 142.16 171.86 139.71 171.94 
M 144.68 154.36 145.38 151.36 145.63 150.99 
M 164.16 118.26 163.89 117.15 164.22 113.55 164.07 110.28 
M 167.83 164.7 165.01 165.58 162.35 165.8 
M 168.66 167.09 168.53 168.5 169.31 171.83 169.31 172.66 168.78 174.45 168.79 175.25 168.94 175.94 169.51 176.85 
M 144.97 139.95 144.95 138.63 142.78 134.93 
M 170.18 134.37 167.37 133.64 165.07 132.58 164 133 
M 144.91 166.95 144.11 167.03 143.09 167.43 140.25 167.7 137.93 166.95 
M 116.78 167.44 116.09 167.52 
M 121.38 121.35 119.22 120.78 118.44 120.87 116.57 122.01 113.97 123.01 112 124.52 
M 171.05 115.51 168.62 112.8 165.75 110.22 164.94 108.39 164.99 107.91 165.35 107.21 
M 162.73 117.87 163.34 117.6 163.85 116.25 164.18 113.53 164.14 112.19 
M 126.88 113.1 126.94 111.47 125.95 109.17 125.18 108.66 124.35 108.53 
M 145.53 98.28 143.98 99.89 143.36 101.09 142.63 104.48 142.45 107.12 142.22 107.76 
M 137.34 105.92 138.8 106.36 140.55 107.13 140.99 108.25 140.93 108.57 140.21 109.49 
M 121.54 119.31 120.42 118.15 119.76 116.97 120.15 114.2 120.15 111.37 120.49 110.28 
M 107.58 142.21 107.22 142.84 
M 138.44 169.97 136.74 168.58 135.83 168.2 135.47 168.21 135.1 168.4 134.49 169.24 133.59 172 
M 134.13 151.83 134.87 151.74 136.19 152.08 137.26 152.1 140.76 151.11 
M 134.74 163.59 132.8 164.97 129.15 166.09 127.77 166.87 126.93 167.67 
M 172.53 138.47 170.58 137.67 168.21 136.02 165.9 135.15 164.77 134.51 163.99 134.54 
M 132.53 175.84 132.62 176.95 133.03 177.92 133.34 179.34 133.24 179.83 132.55 180.77 
M 113.33 155.97 111.24 154.96 110.84 154.41 
M 152.05 108.7 152 107.48 151.1 106.27 150.46 105.84 149.59 105.58 147.48 105.57 146.28 105.95 143.84 107.39 141.62 109.3 
M 160.55 173.36 157.96 174.09 157.75 174.3 157.53 175.11 
M 166.55 144.23 167.13 142.66 167.23 141.14 167.13 140.35 166.82 139.74 166.1 139.07 164.95 138.6 
M 160.13 119.76 159.63 121.13 158.38 122.66 157.63 123.87 
M 106.36 148.92 105.09 149.19 
M 166.04 101.44 163.86 100.3 162.05 99.66 159.37 97.49 
M 145.02 182.97 143.39 180.32 143.58 178.38 143.97 177.61 144.66 176.8 
M 158.39 164.51 157.68 164.98 154.89 165.61 154.05 166.04 152.99 166.03 
M 116.68 162.93 116.47 162.3 116.31 159.83 116.03 159.23 114.6 157.6 112.08 156.55 111.28 155.84 
M 172.38 107.16 169.99 107.64 167.83 108.41 166.91 108.48 166.35 108.17 166.15 107.33 
M 118.93 124.78 118.21 124.7 114.93 126.21 113.89 127.4 113.19 129.68 
M 142.85 151.2 143.34 150.33 143.25 150.1 142.99 150.07 
M 108.75 131.88 108.27 132.64 107.83 132.87 107.54 132.84 105.6 131.33 105.14 131.14 104.51 131.13 
M 170.82 108.79 170.13 108.66 166.68 108.73 166.32 108.47 166.01 107.88 166 107.37 166.22 106.8 
M 118.08 125.67 117.22 125.98 115.89 126.84 115.61 127.44 115.2 129.25 114.45 130.32 
M 169.76 163.78 168.56 163.98 163.26 165.64 
M 139.28 159.7 139.21 160.47 138.3 164.14 138.01 164.45 137.47 164.68 
M 166.47 142.89 166.38 141.45 165.98 140.52 165.18 139.86 163.83 139.42 
M 144.8 108.23 141.88 109.57 140.44 109.99 140.28 110.34 
M 133.92 150.29 133.83 149.69 133.24 149.18 131.33 149.13 
M 151.47 105.62 150.27 104.7 149.55 104.44 148.83 104.39 147.11 104.7 144.85 105.91 143.65 106.73 142.83 107.43 141.68 109 141.09 109.46 
M 122.49 168.6 121.51 169.37 119.18 170.71 
M 116.04 167.4 115.99 167.4 
M 124.01 114.79 123.67 112.18 124.33 109.98 124.51 108.85 124.33 108.57 
M 142.76 147.01 142.85 148.84 142.53 149.46 
M 135.63 149.63 137.03 149 137.74 148.14 138.54 146.61 139.04 144.31 139.52 143.35 
M 139.28 161.57 138.57 164.05 138.15 164.49 137.43 164.75 
M 145.9 179.96 145.74 179.44 145.93 179.03 147.34 177.92 148.81 177.39 152.63 176.93 153.2 176.55 154.17 175.48 
M 108.83 143.94 109.55 146.08 109.38 148.44 
M 169.86 108.4 167.58 108.72 166.57 108.61 166.27 108.35 166.03 107.79 166.26 106.67 
M 152.13 140.15 151.88 140.99 151.96 141.39 153.75 144.12 155.08 147.37 155.9 148.21 
M 127.58 152.11 127.07 151.91 126.41 151.97 124.63 152.84 123.77 153.08 122.96 153.03 121.97 152.45 
M 150.99 158.71 150.06 159.3 147.73 161.85 147.71 162.54 
M 131.74 153.73 131.44 154.03 130.85 153.93 130.41 153.12 
M 110.28 134.65 106.9 137.13 105.75 138.66 
M 165.52 145.63 164.12 146.4 
M 163.8 134.92 163.63 135.32 164.14 136.65 
M 127.19 120.02 124.97 119 123.64 117.87 123.1 117 122.15 114.86 121.36 112.18 
M 132.43 174.88 132.39 176.7 132.96 179.27 132.76 180.06 
M 155.63 155.75 155.62 154.86 154.8 153.44 
M 161.82 164.32 162.12 165.53 161.89 165.98 161.15 166.22 159.47 165.9 
M 157.02 137.01 155.76 139.2 155.7 139.73 155.95 140.74 156.45 141.77 157.94 143.33 158.27 144.77 
M 162.49 155.99 162.12 156.76 162.19 157.55 163.79 159.46 164.16 160.77 
M 161.47 161.62 162.25 165.65 161.78 166.07 161.22 166.22 
M 140.16 98.64 140.65 99.02 141.32 100.28 141.9 102.61 142.09 104.2 
M 124.94 108.86 123.98 108.47 
M 162.74 102 160.23 101.33 156.84 101.74 
M 143.24 113.14 143.57 112.89 143.67 112.42 143.36 111.44 142.67 110.99 141.58 110.89 
M 144.1 141.95 144.22 142.55 143.69 142.85 
M 158.45 169.02 157.45 168.22 154.58 167.18 153.29 166.24 151.57 166 
M 171.81 165.08 170.66 165.76 170.19 166.33 170.07 167.25 170.4 169.83 
M 155.23 105.03 152.77 102.28 151.42 101.36 149.74 101.14 148.24 101.19 147.5 101.43 146.91 101.88 146.24 103.25 
M 153.74 185.94 151.91 183.99 151.64 183.29 151.26 180.77 151.51 179.87 152.76 178.84 
M 127.17 129.69 127.47 129.2 
M 147.4 120.24 147.03 121.34 146.87 123.26 146.53 124.55 146.48 125.42 
M 146.51 126.72 146.42 127.82 
M 154.31 180.04 156.26 178.5 156.62 178.42 156.67 178.67 
M 113 163.63 113.33 164.51 
M 110.95 159.73 110.5 160.59 111.31 160.59 
M 109.36 155.85 108.43 156.58 107.96 157.41 108.6 157.02 109.81 156.95 
M 107.73 152.09 106.16 153.09 105.41 154.24 106.33 153.54 108.23 153.24 
M 106.09 148.36 103.89 149.61 102.87 151.06 104.06 150.05 106.63 149.51 
M 104.3 144.72 101.62 146.12 100.32 147.89 101.79 146.57 104.84 145.83 
M 102.5 141.07 99.35 142.64 97.78 144.71 99.52 143.08 103.05 142.15 
M 100.7 137.41 97.08 139.16 95.23 141.53 97.25 139.6 101.23 138.49 
M 99.06 133.68 94.82 135.67 92.69 138.36 94.98 136.12 99.42 134.82 
M 112.99 163.74 113.77 164.09 
M 109.37 161.37 110 161.16 109.96 161.65 
M 105.54 159.57 106.16 158.92 106.95 158.56 106.59 159.11 106.51 160.07 
M 101.9 157.75 102.83 156.54 103.91 155.96 103.26 156.74 102.95 158.28 
M 98.38 155.8 99.49 154.17 100.86 153.35 99.92 154.36 99.4 156.38 
M 94.89 153.79 96.15 151.79 97.81 150.75 96.59 151.99 95.88 154.38 
M 91.38 151.81 92.82 149.42 94.77 148.14 93.25 149.61 92.38 152.34 
M 87.78 149.99 89.48 147.04 91.72 145.54 89.91 147.24 88.81 150.52 
M 84.18 148.17 86.15 144.66 88.67 142.94 86.58 144.86 85.23 148.69 
M 80.41 146.66 82.81 142.29 85.62 140.33 83.24 142.48 81.64 146.93 
M 86.18 153.72 93.73 159.41 98.46 162.53 103.39 165.42 113.64 170.59 124.39 175.33 
M 119.31 172.3 117.93 172.54 
M 119.32 172.3 117.9 172.52 
M 175.28 84.02 182.98 91.72 
M 178.85 81.26 184.99 87.4 
M 182.42 78.5 191.78 87.86 
M 186.07 75.83 195.12 84.87 
M 189.77 73.2 194.53 77.96 
M 193.51 70.62 202 79.1 
M 197.45 68.23 206.09 76.87 
M 201.38 65.83 210.25 74.7 
M 205.62 63.75 210.89 69.02 
M 209.91 61.71 218.77 70.57 
M 214.8 60.28 223.44 68.92 
M 219.87 59.02 224.75 63.9 
M 224.9 57.72 231.58 64.41 
M 229.85 56.35 236.76 63.26 
M 234.5 54.67 242.28 62.45 
M 239.34 53.19 245.83 59.68 
M 244.7 52.22 253.26 60.78 
M 250.92 52.12 256.15 57.35 
M 257.64 52.52 265.3 60.17 
M 264.04 52.59 269.09 57.64 
M 270.45 52.68 276.72 58.95 
M 278.03 53.92 286.57 62.47 
M 287.78 57.35 296.9 66.47 
M 300.94 64.18 308.37 71.62 
M 325.76 82.68 332.42 89.34 
M 339.7 90.3 348.47 99.06 
M 351.59 95.86 357.9 102.17 
M 366.9 104.85 375.38 113.33 
M 386.93 118.55 396.07 127.69 
M 203.13 64.93 204.69 68.05 
M 236.39 53.18 236.77 53.94 
M 235.11 43.5 239.91 53.08 
M 237.94 42.04 243.17 52.5 
M 240.63 40.3 246.45 51.94 
M 243.68 39.29 250.07 52.06 
M 246.48 37.78 253.76 52.33 
M 249.55 36.79 257.4 52.49 
M 252.82 36.21 260.99 52.56 
M 256.46 36.38 264.57 52.6 
M 260.57 37.49 268.15 52.65 
M 264.31 37.84 266.07 41.37 
M 303.46 59.21 308.89 70.07 
M 299.6 44.38 314.57 74.31 
M 298.52 35.1 320.25 78.56 
M 304.53 40.02 325.93 82.81 
M 309.86 43.55 331.11 86.04 
M 315.14 46.99 332.83 82.37 
M 322.14 53.87 334.73 79.06 
M 334.25 70.98 335.32 73.11 
M 217.28 291.39 215.38 297.7 
M 217.28 291.39 217.79 297.7 
M 222.08 291.39 217.79 297.7 
M 222.08 291.39 220.19 297.7 
M 227.15 293.5 225.89 297.7 
M 226.88 294.39 226.46 293.8 225.95 293.5 225.05 293.5 224.36 293.8 223.58 294.39 223.01 295.3 222.83 295.89 222.86 296.8 223.28 297.39 223.79 297.7 224.69 297.7 225.38 297.39 226.16 296.8 
M 232.58 294.39 232.16 293.8 231.65 293.5 230.75 293.5 230.06 293.8 229.28 294.39 228.71 295.3 228.53 295.89 228.56 296.8 228.98 297.39 229.49 297.7 230.39 297.7 231.08 297.39 231.86 296.8 
M 235.58 291.39 233.69 297.7 
M 238.55 293.5 237.86 293.8 237.08 294.39 236.51 295.3 236.33 295.89 236.36 296.8 236.78 297.39 237.29 297.7 238.19 297.7 238.88 297.39 239.66 296.8 240.23 295.89 240.41 295.3 240.38 294.39 239.96 293.8 239.45 293.5 238.55 293.5 
M 246.08 294.39 245.66 293.8 245.15 293.5 244.25 293.5 243.56 293.8 242.78 294.39 242.21 295.3 242.03 295.89 242.06 296.8 242.48 297.39 242.99 297.7 243.89 297.7 244.58 297.39 245.36 296.8 
M 251.75 293.5 250.49 297.7 
M 251.48 294.39 251.06 293.8 250.55 293.5 249.65 293.5 248.96 293.8 248.18 294.39 247.61 295.3 247.43 295.89 247.46 296.8 247.88 297.39 248.39 297.7 249.29 297.7 249.98 297.39 250.76 296.8 
M 257.18 294.39 256.76 293.8 256.25 293.5 255.35 293.5 254.66 293.8 253.88 294.39 253.31 295.3 253.13 295.89 253.16 296.8 253.58 297.39 254.09 297.7 254.99 297.7 255.68 297.39 256.46 296.8 
M 260.18 291.39 258.28 297.7 
M 259.19 294.7 260.36 293.8 261.05 293.5 261.95 293.5 262.46 293.8 262.49 294.7 261.59 297.7 
M 265.25 293.5 264.35 296.5 264.38 297.39 264.89 297.7 265.78 297.7 266.48 297.39 267.64 296.5 
M 268.55 293.5 267.29 297.7 
M 273.68 294.39 273.56 293.8 272.75 293.5 271.85 293.5 270.86 293.8 270.38 294.39 270.5 295 271.01 295.3 272.42 295.6 272.93 295.89 272.95 296.8 272.48 297.39 271.49 297.7 270.58 297.7 269.77 297.39 269.65 296.8 
M 279.05 293.5 277.79 297.7 
M 278.69 294.7 279.86 293.8 280.55 293.5 281.45 293.5 281.95 293.8 281.99 294.7 281.08 297.7 
M 285.08 291.39 285.29 291.7 285.68 291.39 285.47 291.1 285.08 291.39 
M 284.75 293.5 283.49 297.7 
M 287.14 293.5 285.89 297.7 
M 286.79 294.7 287.95 293.8 288.64 293.5 289.55 293.5 290.06 293.8 290.08 294.7 289.19 297.7 
M 292.85 293.5 291.95 296.5 291.98 297.39 292.49 297.7 293.39 297.7 294.08 297.39 295.25 296.5 
M 296.14 293.5 294.89 297.7 
M 301.27 294.39 301.15 293.8 300.35 293.5 299.45 293.5 298.45 293.8 297.98 294.39 298.1 295 298.61 295.3 300.02 295.6 300.52 295.89 300.56 296.8 300.08 297.39 299.08 297.7 298.19 297.7 297.38 297.39 297.26 296.8 
M 302.87 297.1 302.48 297.39 302.69 297.7 303.08 297.39 302.87 297.1 
"/></svg>
