<svg xmlns="http://www.w3.org/2000/svg" width="520" height="320"><rect x="0" y="0" width="520" height="320" fill="floralwhite"/><rect x="10" y="10" width="500" height="300" stroke="black" stroke-width="1" fill="none"/><path stroke="black" stroke-width="1" fill="none" stroke-linecap="round" stroke-linejoin="round" d="
M 145.05 122.37 156.49 118.79 167.9 115.8 179.31 113.8 190.71 112.4 202.12 110.59 213.52 109.31 224.93 109.14 236.34 109.32 247.74 110.14 270.55 110.59 281.96 111.09 293.36 112.21 304.77 113.64 316.18 115.4 327.58 117.93 338.99 120.91 350.39 123.64 361.8 126.04 373.21 129.49 384.61 133.68 419.84 148.59 
M 419.84 180.67 407.42 185.99 384.61 196.63 361.8 205.77 350.39 210.54 338.99 214.58 327.58 217.37 316.18 219.78 304.77 222.67 293.36 225.33 259.15 230.74 247.74 230.94 236.34 230.33 224.93 229.01 213.52 226.65 190.71 222.56 179.31 219.35 156.49 211.81 145.09 207.54 133.71 202.78 
M 419.84 166.34 402.96 166.21 398.7 165.99 390.65 165.13 371.26 162.1 353.71 158.94 340.62 157.3 332.24 155.75 320.15 153.24 316.19 152.7 308.23 152.29 287.89 153.94 281.45 154.31 
M 272.78 154.47 264.33 154.43 
M 260.3 154.22 252.47 153.44 
M 244.54 152.08 238.46 150.96 228.25 148.6 
M 220.15 147.37 212.04 146.54 
M 203.73 145.69 201.65 145.56 193.72 145.56 182.71 146.1 180.88 146.03 
M 177.2 145.82 173.49 145.51 
M 165.95 144.75 158.36 144.09 
M 154.56 143.89 150.92 143.68 
M 138 197.17 139.76 200.41 
M 139.75 192.78 140.22 193.67 
M 142.63 198.14 144.74 201.9 
M 143.6 183.42 147.43 190.66 
M 155.17 195.88 157.74 200.32 
M 157.74 191.6 160.29 196.22 
M 161.05 188.33 162.87 191.79 
M 165.46 196.44 170.96 205.21 
M 168.07 191.93 173.48 201.11 
M 149.81 149.57 152.45 153.3 
M 173.4 192.1 176.11 196.76 
M 178.82 201.23 181.4 205.5 
M 183.85 209.52 186.24 213.25 
M 150.86 144.16 157.5 153.42 
M 181.62 196.81 184.18 201.27 
M 151.32 138.13 157.97 146.96 162.49 153.53 
M 184.12 191.32 187.18 196.77 
M 189.57 201.22 191.86 205.46 
M 145.12 122.35 145.31 122.64 
M 150.82 130.79 161.74 145.29 
M 194.97 201.08 197.28 205.26 
M 148.88 121.17 156.61 132.11 165.61 143.66 172.79 153.77 
M 196.07 192.65 200.42 200.86 
M 152.61 120.01 162.04 132.74 168 140.18 178.4 153.9 
M 201.04 191.8 203.48 196.28 
M 208.57 204.73 211.33 208.59 
M 220.07 218.63 223.04 221.51 
M 156.36 118.83 167.43 133.23 179.18 148.04 184.28 154.03 
M 206.38 191.61 206.38 191.61 
M 217.15 208.45 220 212.11 
M 160.25 117.81 174.08 135.32 
M 176.87 138.85 181.22 144.27 190.14 154.17 
M 217.25 200.29 220.06 204.48 
M 164.18 116.77 170.07 123.76 183.16 140.61 186.28 144.19 193.45 151.72 195.65 154.29 
M 222.98 200.31 225.82 204.54 
M 231.59 212.27 234.52 215.71 
M 168.16 115.75 172.76 120.95 182.6 133.59 188.16 140.46 196.87 149.77 
M 223.05 191.41 228.75 200.45 
M 240.41 215.78 243.32 218.9 
M 172.37 115.02 175.35 118.28 190.44 136.71 195.21 142.12 
M 198.71 145.89 200.5 147.82 203.79 151.88 205.58 154.52 
M 227.49 189.52 228.79 191.64 
M 237.47 204.87 243.38 212.41 
M 176.46 114.3 180.25 118.39 202.81 143.94 206.08 147.92 210.28 154.23 
M 233.37 190.16 234.54 192.02 
M 237.45 196.57 240.39 200.91 
M 243.35 204.99 246.34 208.8 
M 180.61 113.64 196.02 129.42 205.69 140.07 208.9 143.99 211.76 148.04 215.88 154.76 
M 237.96 188.79 241.79 194.72 246.27 201.07 
M 258.55 215.58 263.03 220.11 266.37 223.21 
M 185.1 113.09 193.29 120.38 200.74 127.52 
M 203.94 130.8 208.88 136.19 212.08 140.05 214.94 144.03 221.37 154.43 
M 242.19 186.93 243.13 188.38 
M 246.13 192.86 249.18 197.09 
M 252.27 201.13 255.39 204.99 
M 258.52 208.68 261.63 212.19 
M 190.09 112.48 196.33 117.32 202.41 122.6 208.83 128.88 212.08 132.4 215.23 136.15 218.15 140.06 227.5 155.02 
M 246.78 185.63 250.5 191.06 255.22 197.19 
M 261.54 204.93 264.66 208.61 
M 195.44 111.65 199.46 114.44 202.53 116.8 208.83 122.26 212.02 125.39 215.16 128.76 218.2 132.36 221.09 136.18 225.15 142.38 
M 227.74 146.64 233.21 155.15 
M 267.62 204.89 270.67 208.6 
M 273.62 212.16 279.09 218.59 
M 201.03 110.77 205.76 113.95 208.88 116.38 211.99 119.09 215.08 122.07 218.1 125.3 221.01 128.76 223.88 132.54 226.72 136.63 234.84 149.62 238.66 155.28 
M 258.05 185.63 273.53 204.92 
M 206.91 110.05 208.97 111.35 212.04 113.6 215.07 116.14 218.02 118.96 220.9 122.04 223.73 125.4 229.42 133.16 239.2 148.48 
M 242.05 152.74 243.85 155.4 
M 261.4 182.55 270.22 193.4 
M 273.33 197.28 276.34 201.16 
M 212.65 109.41 215.15 111.1 218.05 113.46 220.87 116.1 223.61 119.01 226.33 122.22 229.09 125.8 234.87 134.04 248.85 155.51 
M 269.89 185.95 273.02 189.69 
M 276.15 193.54 282.05 201.28 
M 292.23 215.44 294.52 218.17 
M 218.55 109.24 219.75 110.14 
M 222.28 112.26 226.21 116.18 228.81 119.19 234.33 126.37 240.34 134.94 253.4 155.07 
M 269.9 179.09 272.73 182.45 
M 275.85 186.1 280.6 191.8 285.05 197.65 
M 223.95 109.15 226.27 111.11 228.74 113.57 231.23 116.35 239.62 127.01 245.86 135.66 258.75 155.74 
M 290.87 197.88 295.73 205.33 
M 229.01 109.2 231.25 111.24 236.21 116.64 245.09 127.58 248.21 131.78 251.11 136.07 259.6 149.44 264.02 155.86 
M 280.18 177.06 281.48 178.58 
M 284.62 182.31 287.81 186.21 
M 301.55 205.58 304.23 209.25 
M 233.81 109.28 238.72 114.07 247.53 124.09 250.63 128.02 253.53 132.09 260.38 142.74 
M 263.54 147.41 269.75 155.99 
M 284.18 174.27 293.64 186.08 
M 302.34 198.11 307.58 205.74 
M 238.74 109.5 241.41 111.85 247.13 117.54 253.35 124.55 256.26 128.35 264.4 140.66 273.17 152.63 
M 288.58 171.81 289.87 173.42 
M 296.16 181.58 299.31 185.82 
M 244.1 109.88 250.15 115.07 253.31 118.12 256.43 121.45 259.37 124.97 262.07 128.66 266.03 134.58 
M 268.94 138.82 272.19 143.33 
M 275.72 148.02 279.36 152.7 
M 293.54 170.09 307.95 189.72 
M 249.69 110.18 253.37 112.96 256.58 115.7 259.75 118.72 262.74 121.95 265.5 125.37 276.85 141.5 282.04 148.29 
M 285.52 152.62 288.7 156.43 
M 298.85 169.18 305.51 178.65 313.5 189.55 
M 255.28 110.28 259.9 113.59 263.12 116.29 266.17 119.24 269 122.39 271.69 125.78 283.3 142.01 289.93 150.49 295.02 156.57 
M 302.76 166.88 303.29 167.69 
M 306.12 171.92 309.19 176.27 
M 261.04 110.39 263.14 111.74 266.38 114.13 269.47 116.77 273.78 121.24 
M 276.54 124.54 289.63 142.39 292.74 146.47 301.04 156.71 
M 306.1 164.13 311.22 171.95 
M 314.45 176.35 319.72 183.07 324.79 190.12 
M 327.9 194.85 330.92 199.5 
M 333.96 204.07 336.82 208.21 
M 266.86 110.51 269.48 112.2 272.6 114.54 275.62 117.18 278.52 120.1 281.34 123.3 284.13 126.8 294.19 140.53 
M 297.13 144.41 300.11 148.11 
M 303.04 151.71 304.47 153.52 306.74 156.84 
M 313.41 167.87 314.84 170.04 318.15 174.46 323.58 181.3 
M 330.36 190.8 333.44 195.59 
M 272.7 110.69 275.63 112.6 278.71 114.97 281.7 117.62 284.61 120.57 287.47 123.81 293.12 131.03 298.7 138.65 307.5 149.42 310.08 153.21 312.2 156.97 
M 313.69 159.77 317.29 166.09 320.38 170.51 329.21 182.02 
M 335.86 191.61 339 196.45 
M 278.58 110.95 281.72 113.04 284.77 115.42 289.21 119.58 
M 292.11 122.68 297.74 129.55 
M 300.49 133.14 304.79 138.43 310.73 145.35 313.38 149.08 314.55 151.12 
M 316.8 155.38 317.64 157.09 
M 318.26 158.31 320.24 162.13 321.61 164.4 
M 327.84 173.52 331.32 178.19 
M 284.57 111.35 287.77 113.51 290.8 115.9 293.79 118.58 296.72 121.55 299.52 124.74 304.97 131.45 313.95 141.49 315.35 143.3 
M 317.97 147.12 319.19 149.13 320.28 151.32 
M 327.39 165.14 330.36 169.8 
M 290.85 111.96 293.8 113.99 296.84 116.38 299.74 119.07 302.47 121.99 307.84 128.27 312.27 133.06 
M 318.43 139.73 319.91 141.49 321.22 143.44 
M 328.24 156.58 331.83 163.72 333.24 166.1 
M 336.23 170.87 341.18 178.03 346.42 185.21 
M 297.24 112.69 299.76 114.47 302.56 116.85 305.21 119.51 313.35 128.45 319.63 134.8 322.73 138.26 325.63 141.99 328.28 146.06 329.48 148.26 
M 331.81 152.8 336.48 162.38 
M 339.16 167.24 342.18 172.09 
M 345.47 176.91 352.61 186.52 
M 303.35 113.46 305.25 114.92 307.84 117.28 315.84 125.71 320.51 130.34 
M 323.74 133.6 328.51 138.86 331.43 142.75 334.12 146.96 337.71 153.84 
M 345.15 168.48 346.6 170.94 351.71 178.19 
M 355.36 183 362.74 192.69 
M 309.17 114.32 310.44 115.34 314.28 119.02 
M 316.98 121.76 328.04 132.4 331.34 135.85 334.45 139.61 338.71 145.8 
M 343.71 154.92 347.21 162.25 349.85 167.23 351.42 169.68 
M 354.73 174.53 358.31 179.34 
M 361.96 184.16 365.57 189.01 
M 369.07 193.82 371.44 197.12 
M 314.97 115.22 330.92 129.55 334.31 132.86 337.53 136.48 340.53 140.39 344.78 146.72 
M 349.82 155.96 352.25 160.88 
M 354.95 165.84 356.39 168.3 359.69 173.12 364.95 180.29 
M 368.42 185.11 371.79 189.92 
M 321.7 116.63 334.07 126.69 337.5 129.85 340.77 133.32 343.82 137.09 349.58 145.31 352.29 149.79 356.02 157.02 
M 358.63 161.93 360 164.37 364.71 171.53 
M 368 176.26 371.27 181.02 
M 330.57 118.72 333.96 121.17 339.16 125.37 
M 342.51 128.51 344.14 130.16 348.66 135.69 
M 351.54 139.7 354.33 143.97 
M 357.04 148.49 363.55 160.44 367.97 167.5 
M 377.08 181.55 380.07 186.32 
M 383.03 191.06 384.54 193.46 
M 341.19 121.44 344.31 123.99 347.53 127.09 350.58 130.49 353.47 134.2 357.65 140.41 
M 363.03 149.46 365.63 154.15 
M 368.31 158.83 371.13 163.43 
M 374 167.99 376.87 172.58 
M 382.58 182.02 385.46 186.77 
M 350.12 123.58 353.8 127.39 358.04 132.81 
M 360.83 136.83 364.98 143.37 374.2 159.29 
M 382.38 172.98 385.15 177.68 
M 357.39 125.11 359.63 127.7 362.4 131.29 368.04 139.51 373.5 148.43 379.81 159.59 
M 382.39 164.12 387.78 173.31 
M 364.15 126.75 368.02 131.63 373.84 139.86 376.64 144.21 380.32 150.9 
M 382.68 155.4 387.72 164.4 
M 371.34 128.92 376.69 135.79 379.51 140.05 382.07 144.5 389.08 157.94 391.72 162.35 396.09 168.92 
M 379.14 131.67 382.18 136.05 383.47 138.23 
M 385.96 142.67 389.45 149.42 393.13 155.95 
M 402.03 168.64 408.21 177.1 
M 385.96 134.25 387.35 136.47 394.63 149.77 397.26 153.97 401.76 160.11 
M 404.94 164.09 408.09 168.03 
M 392.4 136.95 397.47 145.77 398.83 147.88 
M 401.67 151.99 406.36 157.9 411.15 163.54 
M 417.1 171.32 419.84 175.4 
M 399.03 139.78 403.19 146.05 406.28 150.07 415.9 161.21 419.84 166.34 
M 407.03 143.26 409.42 146.25 419.84 158.19 
M 416.66 147.27 419.84 150.82 
M 151.06 120.49 146.93 124.29 
M 160.12 117.84 150 127.51 
M 168.41 115.71 163.44 120.23 157.92 125.69 155.17 128.55 151.2 133.11 
M 175.36 114.49 166.01 123.44 160.55 129.24 155.38 135.42 151.19 141.52 
M 181.38 113.55 176.56 118.33 171.34 123.84 165.93 129.78 163.33 132.87 158.44 139.36 156.11 142.88 152.83 148.62 
M 150.67 152.69 150.38 153.25 
M 186.97 112.86 181.44 118.39 175.12 125.57 
M 169.98 131.75 166.26 136.54 161.51 143.35 159.21 147.05 155.96 153.06 
M 192.87 112.06 189.19 115.41 183.85 121.09 178.79 127.17 175.12 131.98 
M 172.75 135.26 165.68 145.58 
M 143.47 185.55 142.82 186.72 
M 199.47 111.01 194.87 114.87 191.9 117.75 189.04 120.77 183.72 127.05 178.87 133.67 169.78 147.75 166.21 153.62 
M 148.46 186.44 146.04 190.45 
M 206.32 110.12 204.2 111.66 200.99 114.31 197.82 117.19 191.73 123.44 186.25 130.09 183.79 133.54 180.47 138.86 
M 178.4 142.45 176.24 146.12 
M 173.9 149.94 171.57 153.74 
M 151.2 191.1 148.63 195.12 
M 213.23 109.35 210.52 111.27 204.08 116.68 197.64 122.94 193.06 128 
M 190.26 131.49 186.47 136.9 184.32 140.58 180.43 148.04 177.07 153.87 
M 219.18 109.23 216.61 111.07 213.55 113.55 207.21 119.31 200.69 125.86 197.49 129.33 194.46 132.93 191.72 136.65 189.38 140.42 182.64 153.99 
M 224.81 109.14 219.46 113.45 213.5 119.04 203.87 129.03 200.62 132.66 197.53 136.41 194.82 140.23 192.72 144.03 188.18 154.12 
M 229.94 109.22 227.51 111.13 224.9 113.49 219.42 118.96 207.14 132.48 202.36 138.18 
M 199.56 142.03 198.29 143.95 196.33 147.79 193.58 154.25 
M 235.07 109.3 232.46 111.29 229.95 113.6 227.45 116.21 222.25 122.07 215.1 130.57 
M 208.82 138.12 205.73 142 
M 203.02 145.89 201.79 147.83 200.83 149.8 
M 174.63 196.73 172.01 201.07 
M 240.28 109.61 237.45 111.56 234.88 113.82 232.44 116.41 220.97 130.59 
M 218.12 134.26 210.34 144 207.41 147.95 204.99 151.92 203.75 154.48 
M 245.96 110.01 242.76 111.96 240.01 114.16 237.46 116.72 235.06 119.59 223.83 134.44 
M 220.98 138.15 217.92 142.05 
M 214.72 146.05 210.2 152.12 208.75 154.59 
M 188.52 192.43 185.69 196.79 
M 252.83 110.23 248.62 112.49 245.57 114.63 242.78 117.15 240.25 120.02 239.07 121.6 
M 236.74 124.86 230.72 133.35 218.83 148.11 215.63 152.24 213.96 154.71 
M 192.85 194.21 191.19 196.7 
M 260.2 110.37 254.96 113.12 251.7 115.22 248.6 117.68 245.79 120.51 242.09 125.43 
M 237.39 132.49 232.18 139.46 
M 229.29 142.92 224.6 148.35 221.35 152.31 219.49 154.84 
M 199.55 191.87 196.59 196.55 
M 193.48 201.13 190.4 205.49 
M 267.27 110.52 261.51 113.73 258.18 115.85 254.86 118.27 251.73 121.04 248.92 124.2 246.42 127.7 241.66 135.13 237.72 140.49 
M 234.91 143.89 231.93 147.26 
M 228.82 150.8 225.41 154.98 
M 205 191.49 204.89 191.67 
M 195.75 205.33 192.71 209.45 
M 273.8 110.74 267.93 114.24 261.33 118.85 257.96 121.57 254.79 124.65 251.97 128.11 244.66 139.64 241.94 143.26 231.65 155.12 
M 207.4 196.14 201.27 205.08 
M 280.21 111.02 277.14 112.71 270.98 116.87 264.27 122.06 260.85 125.07 257.64 128.43 254.82 132.14 247.48 144.07 243.37 149.22 
M 240.51 152.48 238.1 155.27 
M 215.19 192.37 214.87 192.89 
M 214.43 193.6 212.93 195.97 
M 206.94 204.81 203.86 208.94 
M 286.22 111.51 283.21 113.15 277.11 117.29 270.5 122.49 266.99 125.47 263.51 128.73 260.28 132.33 257.47 136.26 252.68 144.57 250.25 148.43 247.61 151.88 244.6 155.42 
M 215.66 200.32 212.7 204.59 
M 209.68 208.66 206.66 212.49 
M 203.71 216.04 201.82 218.27 
M 292.09 112.08 289.26 113.62 286.25 115.54 283.19 117.74 273.19 125.89 269.61 129.1 266.1 132.6 262.9 136.41 261.53 138.47 
M 258.98 142.68 255.52 149.06 253.14 152.93 251.16 155.57 
M 228.53 189.55 227.21 191.57 
M 215.52 208.48 212.56 212.24 
M 297.75 112.76 292.29 116.01 286.09 120.69 279.42 126.39 272.3 133.02 268.88 136.72 265.79 140.73 263.18 145.04 262.03 147.29 
M 232.95 191.93 224.21 204.52 
M 218.39 212.12 215.49 215.55 
M 303.08 113.43 298.3 116.5 292.15 121.18 285.63 126.93 278.66 133.57 275.2 137.21 271.98 141.12 269.12 145.35 265.49 152.25 
M 238.71 192.37 235.84 196.5 
M 227.07 208.52 224.15 212.14 
M 307.97 114.13 303.89 116.96 295.02 124.41 288.45 130.69 281.65 137.78 278.39 141.62 275.4 145.74 272.75 150.23 269.89 156 
M 249.82 185.25 241.66 196.83 
M 238.76 200.87 235.83 204.84 
M 232.89 208.65 229.95 212.24 
M 312.66 114.86 309.1 117.39 303.8 122.09 294.58 131.13 289.67 136.46 
M 286.43 140.2 281.79 146.13 279.01 150.45 277.76 152.77 
M 253.28 189.17 250.41 193.1 
M 247.53 197.07 244.63 201.06 
M 317.33 115.66 314.25 117.8 309.08 122.48 303.59 128.13 297.33 134.9 294.17 138.6 288.1 146.41 285.26 150.53 281.93 156.27 
M 266.87 179.98 260.78 187.5 253.53 197.2 
M 250.59 201.14 247.63 205.04 
M 244.67 208.82 238.75 215.77 
M 235.79 218.85 232.88 221.67 
M 321.97 116.69 319.65 118.23 316.89 120.45 311.78 125.46 300.14 138.62 297.05 142.5 292.74 148.46 
M 289.99 152.54 287.61 156.4 
M 274.24 178.49 273.96 178.84 
M 271.11 182.41 266.83 187.69 259.63 197.22 
M 256.68 201.14 253.68 205.01 
M 326.87 117.78 322.52 120.88 319.73 123.28 317.17 125.8 313.4 129.99 
M 310.71 133.11 303.09 142.22 300.03 146.22 297.17 150.22 293.05 156.53 
M 281.64 176 279.87 178.62 
M 277.06 182.45 268.58 193.39 
M 253.74 212.3 247.6 218.86 
M 331.76 119.03 328.83 121.11 325.67 123.64 322.82 126.23 320.26 128.86 312.38 138.04 306.07 145.73 302.99 149.79 298.34 156.65 
M 289.57 171.38 284.38 180.31 281.62 184.29 277.36 189.81 
M 274.53 193.49 268.85 201.09 
M 259.91 212.21 255.26 217.26 253.68 218.77 
M 336.85 120.36 332.24 123.82 329.04 126.54 326.14 129.28 323.5 132.04 316.87 139.72 
M 313.78 143.35 308.89 149.32 305.79 153.43 303.5 156.77 
M 288.86 182.01 287.55 184.18 283.38 190 
M 280.5 193.69 277.61 197.4 
M 274.76 201.15 271.91 204.91 
M 342.07 121.65 335.72 126.73 329.53 132.51 326.78 135.4 318.14 145.12 314.76 149.05 309.86 155.24 
M 301.9 167.76 301.89 167.78 
M 301.25 168.94 297.08 176.98 
M 294.61 181.65 292.06 186.08 
M 289.35 190.15 287.96 192.1 283.48 197.6 
M 277.67 204.96 274.86 208.62 
M 269.03 215.49 265.94 218.6 
M 347.35 122.92 339.11 129.92 332.81 136 320.54 149.21 315.35 155.28 
M 311.05 160.97 308.12 165.53 305.82 169.74 301.38 178.91 297.77 185.87 
M 295.19 190.17 293.86 192.23 290.88 196.02 283.2 205.01 
M 352.55 124.1 345.72 130.23 339.03 136.63 326.26 149.82 319.68 157.14 
M 318.81 158.18 315.95 161.76 313.18 165.77 312.01 167.79 
M 309.81 171.94 307.74 176.33 
M 305.62 180.92 302.13 187.86 300.85 190.02 
M 295.05 197.99 288.64 205.09 
M 282.95 212.07 280.3 215.45 
M 357.61 125.16 345.34 137.23 332.06 150.69 328.48 154.41 323.25 160.29 
M 320.08 164.24 318.59 166.2 316.08 170.13 312.98 176.32 
M 303.75 194.08 302.34 196.16 300.74 198.08 
M 297.48 201.77 294.16 205.25 
M 291.01 208.65 288.14 212.03 
M 362.43 126.23 354.93 134.33 332.53 157.27 
M 329.04 161.08 324.32 166.82 323.01 168.73 
M 318.43 176.6 314.3 185.1 
M 309.37 193.93 308 196.07 306.46 198.06 
M 293.51 212.16 290.71 215.39 
M 366.93 127.59 357.71 138.4 347.61 149.1 336.62 160.21 331.66 165.82 
M 328.8 169.54 327.46 171.39 325.15 175.2 319.9 185.28 
M 315 193.89 312.2 198.05 
M 371.52 128.98 363.62 139.08 360.46 142.77 353.74 150.02 342.59 161.36 339.12 165.09 336.02 168.75 333.29 172.37 330.88 176.05 325.58 185.83 
M 323.24 189.96 320.67 194.12 
M 317.95 198.2 313.54 204.03 311.94 205.85 
M 376.12 130.56 369.43 139.62 366.39 143.54 363.15 147.34 356.22 154.82 345.11 166.31 341.97 169.96 339.18 173.53 336.66 177.11 334.38 180.77 327.65 192.65 325.06 196.69 320.9 202.44 
M 314.89 209.64 311.7 213.02 
M 380.61 132.21 372.24 144.05 369.04 148.1 362.33 155.85 351.34 167.49 348.03 171.23 345.15 174.81 341.33 180.1 
M 385.02 133.85 382.12 138.13 
M 379.39 142.19 374.88 148.48 368.34 156.67 359.74 166.55 
M 356.23 170.45 351.4 176.07 348.58 179.62 346.02 183.11 342.36 188.52 
M 389.25 135.63 383.31 144.59 375.79 155.02 
M 366.26 167.33 355.01 180.87 349.58 187.9 345.69 193.36 
M 340.62 200.99 338.08 204.73 
M 335.41 208.26 333.45 210.6 
M 393.46 137.4 385.6 149.11 373.93 165.79 367.84 174.05 363.19 180.03 
M 360.19 183.83 354.54 190.99 
M 351.77 194.54 349.06 198.21 
M 397.77 139.24 387.87 153.57 371.08 178.77 363.84 188.69 
M 355.29 199.41 350.74 205.55 
M 402.26 141.18 393.07 153.85 383.61 168.6 
M 380.92 172.87 378.23 177.14 
M 375.56 181.4 372.87 185.62 
M 406.99 143.24 398.61 153.99 395.76 158.12 391.66 164.53 
M 388.99 168.87 386.33 173.22 
M 383.7 177.57 381.12 181.89 
M 378.58 186.17 376.04 190.38 
M 411.84 145.26 404.64 153.99 401.6 158.06 397.32 164.52 
M 389.11 177.89 386.52 182.31 
M 416.64 147.26 407.87 157.84 404.79 162.03 401.87 166.47 394.7 178.01 
M 391.97 182.56 389.39 187.02 
M 419.84 151 411.08 161.57 407.98 165.91 403.54 173 
M 419.84 158.24 415.75 163.19 
M 418.6 166.91 417.03 169.08 412.57 176.51 
M 419.84 173.42 418.48 175.84 
M 223.48 108.03 277.46 39.97 278.26 40.59 227.18 109.18 
M 238.62 108.57 274.87 57.6 275.71 58.17 242.21 109.75 
M 253.75 109.36 275.85 73.99 276.72 74.5 257.38 110.32 
M 268.91 109.77 281.03 88.65 281.94 89.11 272.49 110.68 
M 284.07 110.68 289.7 101.82 290.62 102.25 287.57 111.64 
M 291.68 111.51 293.37 112.21 
M 273.07 47.56 271.37 50.76 270.72 52.39 270.28 54.05 270.08 55.73 270.11 57.44 270.36 59.18 271.25 62.7 
M 272.31 63.41 271.3 66.67 271 68.28 270.91 69.87 271.06 71.44 271.44 72.99 272.04 74.51 273.64 77.52 
M 274.74 78.17 274.66 81.45 274.81 83.02 275.15 84.51 275.71 85.91 276.5 87.22 277.48 88.45 279.82 90.76 
M 280.96 91.34 281.72 94.62 282.26 96.15 282.97 97.56 283.88 98.82 284.99 99.94 286.26 100.94 289.14 102.7 
M 290.29 103.25 289.59 105.54 289.43 106.63 289.48 107.67 289.75 108.64 290.26 109.54 290.97 110.38 292.77 111.96 
M 272.18 49.15 270.72 52.39 270.28 54.05 270.08 55.73 270.11 57.44 270.76 60.93 
M 267.56 56.18 266.27 59.04 265.88 60.5 265.7 61.99 265.73 63.5 266.3 66.58 
M 262.93 63.2 261.81 65.69 261.47 66.95 261.34 69.56 261.84 72.23 
M 258.3 70.23 257.35 72.33 257.07 73.41 256.96 75.61 257.38 77.88 
M 253.68 77.25 252.9 78.98 252.56 80.76 252.58 81.67 252.92 83.53 
M 249.05 84.28 248.26 86.32 248.19 87.73 248.46 89.18 
M 271.76 65.05 271 68.28 270.91 69.87 271.06 71.44 271.44 72.99 272.8 76.02 
M 267.56 72.9 266.93 75.57 266.85 76.88 267.3 79.45 268.41 81.96 
M 263.35 80.76 262.86 82.86 262.8 83.9 263.15 85.92 264.03 87.89 
M 259.15 88.61 258.74 90.91 259 92.39 259.64 93.83 
M 274.66 79.83 274.81 83.02 275.15 84.51 275.71 85.91 276.5 87.22 278.61 89.62 
M 270.56 90.54 270.65 92.62 271.24 94.49 271.75 95.35 273.13 96.91 
M 281.31 93.01 282.26 96.15 282.97 97.56 283.88 98.82 284.99 99.94 287.67 101.84 
M 149.49 151.42 343.21 156.46 343.19 157.47 148.75 155.01 
M 148.6 155.63 319.31 168.97 319.24 169.98 147.74 159.19 
M 147.61 159.73 295.13 179.05 295 180.05 146.83 163.28 
M 146.73 163.75 270.84 186.7 270.67 187.7 145.96 167.3 
M 145.87 167.67 246.64 191.93 246.42 192.92 145.23 171.26 
M 145.58 171.66 222.71 194.76 222.43 195.73 144.94 175.26 
M 145.67 175.74 199.22 195.22 198.9 196.18 144.56 179.22 
M 145.76 179.83 176.37 193.36 176 194.3 144.42 183.23 
M 146.57 183.98 154.31 188.83 153.89 189.76 144.33 186.85 
M 323.38 157.22 318.04 158.36 315.45 159.1 312.96 160.04 310.58 161.19 308.3 162.56 306.11 164.13 301.9 167.61 
M 301.81 168.88 296.54 169.49 293.97 169.97 291.47 170.66 289.07 171.57 286.74 172.71 284.5 174.04 280.14 177.09 
M 279.99 178.35 274.82 178.44 272.29 178.67 269.81 179.11 267.4 179.78 265.06 180.68 262.77 181.78 258.3 184.38 
M 258.08 185.64 253.06 185.21 250.58 185.19 248.15 185.38 245.75 185.81 243.4 186.48 241.09 187.35 236.53 189.49 
M 236.24 190.74 231.42 189.82 229.02 189.56 226.64 189.51 224.28 189.7 221.94 190.13 219.61 190.77 215 192.45 
M 214.65 193.68 210.06 192.28 207.76 191.78 205.45 191.5 203.14 191.45 200.83 191.65 198.51 192.06 193.87 193.27 
M 193.46 194.48 189.14 192.64 186.96 191.91 184.75 191.4 182.51 191.12 180.24 191.09 177.94 191.26 173.31 192 
M 172.84 193.19 168.85 190.84 166.81 189.86 164.72 189.08 162.56 188.54 160.35 188.23 158.09 188.13 153.47 188.3 
M 320.69 157.75 315.45 159.1 312.96 160.04 310.58 161.19 308.3 162.56 303.99 165.83 
M 296.11 157.39 291.6 158.55 289.46 159.36 287.41 160.35 285.45 161.53 281.74 164.34 
M 271.52 157.03 267.75 158 265.96 158.67 262.6 160.49 259.49 162.84 
M 246.94 156.66 243.9 157.45 242.46 157.99 239.75 159.46 237.25 161.35 
M 222.35 156.3 220.05 156.9 217.9 157.82 215 159.86 
M 299.16 169.14 293.97 169.97 291.47 170.66 289.07 171.57 286.74 172.71 282.31 175.53 
M 272.2 167.41 267.91 168.09 265.86 168.66 261.95 170.35 258.29 172.67 
M 245.23 165.67 241.86 166.21 240.24 166.66 237.17 167.99 234.28 169.82 
M 218.27 163.93 214.62 164.65 212.38 165.63 210.27 166.96 
M 277.39 178.36 272.29 178.67 269.81 179.11 267.4 179.78 265.06 180.68 260.52 183.04 
M 246.52 174.84 242.61 175.08 238.86 175.93 237.07 176.62 233.59 178.43 
M 215.65 171.32 212.93 171.49 211.61 171.72 209.07 172.56 206.65 173.82 
M 255.56 185.38 250.58 185.19 248.15 185.38 245.75 185.81 243.4 186.48 238.8 188.38 
M 229.78 181.17 225.97 181.03 222.26 181.5 220.46 182.01 216.93 183.47 
M 204.01 176.96 201.35 176.86 200.05 176.96 197.52 177.54 195.07 178.56 
M 233.83 190.24 229.02 189.56 226.64 189.51 224.28 189.7 221.94 190.13 217.3 191.56 
M 202.77 183.64 199.64 183.2 198.1 183.16 195.04 183.57 192.03 184.5 
M 212.35 192.94 207.76 191.78 205.45 191.5 203.14 191.45 200.83 191.65 196.19 192.62 
M 214.98 225.55 220.18 234.57 219.37 235.18 212.07 227.76 
M 200.12 223.06 219.91 259.49 219.04 260 196.97 224.9 
M 185.42 219.94 200.4 262.48 199.45 262.85 182.02 221.25 
M 169.68 215.17 170.75 225.53 169.76 225.76 166.12 216 
M 218.64 234.44 217.18 239.15 216.65 241.52 216.33 243.89 216.25 246.27 216.42 248.65 216.79 251.04 217.94 255.84 
M 216.83 256.49 212.72 255.58 210.69 255.32 208.67 255.27 206.68 255.47 204.71 255.9 202.76 256.54 198.9 258.23 
M 197.71 258.69 192.72 250.28 190.06 246.2 187.24 242.25 184.24 238.45 181.04 234.8 177.68 231.29 170.64 224.5 
M 217.87 236.8 216.65 241.52 216.33 243.89 216.25 246.27 216.42 248.65 217.32 253.44 
M 214.77 255.99 210.69 255.32 208.67 255.27 206.68 255.47 204.71 255.9 200.83 257.34 
M 210.64 250.09 207.26 249.54 205.6 249.5 202.33 250.02 199.13 251.21 
M 206.5 244.19 203.84 243.76 202.53 243.73 199.96 244.13 197.43 245.07 
M 202.36 238.3 199.46 237.95 197.58 238.25 195.74 238.94 
M 195.24 254.46 190.06 246.2 187.24 242.25 184.24 238.45 181.04 234.8 174.19 227.87 
M 385.93 195.37 391.92 203.5 391.18 204.2 383.3 197.9 
M 371.81 201.03 378.37 209.75 377.64 210.46 369.18 203.57 
M 357.73 206.77 365.88 217.34 365.14 218.04 355.07 209.28 
M 343.6 212.28 353.67 226.49 352.89 227.14 340.79 214.61 
M 328.99 216.33 341.28 235.92 340.45 236.51 326.01 218.44 
M 314.15 219.63 330.37 245.43 329.54 246.01 311.14 221.71 
M 299.39 223.27 320.09 256.87 319.24 257.43 296.35 225.29 
M 283.51 226.26 308.8 269.48 307.94 270.02 280.41 228.18 
M 390.4 203.57 387.07 203.55 385.49 203.72 383.99 204.09 382.58 204.68 381.26 205.49 380.03 206.5 377.71 208.88 
M 376.79 209.77 373.55 210.08 372.03 210.4 370.61 210.92 369.31 211.64 368.12 212.58 367.04 213.7 365.07 216.29 
M 364.14 217.16 360.85 217.85 359.32 218.35 357.9 219.03 356.63 219.91 355.49 220.99 354.47 222.24 352.66 225.07 
M 351.68 225.89 348.35 226.61 346.8 227.14 345.37 227.83 344.08 228.73 342.92 229.83 341.89 231.09 340.05 233.96 
M 339.01 234.7 335.92 235.49 334.5 236.04 333.21 236.76 332.07 237.66 331.08 238.76 330.22 240.02 328.75 242.85 
M 327.7 243.58 324.62 244.87 323.22 245.66 321.97 246.6 320.89 247.7 319.99 248.97 319.24 250.39 318.02 253.51 
M 316.95 254.21 313.65 255.74 312.14 256.64 310.78 257.68 309.59 258.9 308.58 260.28 307.71 261.82 306.27 265.16 
M 375.15 209.88 372.03 210.4 370.61 210.92 369.31 211.64 368.12 212.58 366.03 214.96 
M 362.47 217.47 359.32 218.35 357.9 219.03 356.63 219.91 355.49 220.99 353.54 223.62 
M 349.99 226.22 346.8 227.14 345.37 227.83 344.08 228.73 342.92 229.83 340.95 232.49 
M 337.44 235.06 334.5 236.04 333.21 236.76 332.07 237.66 331.08 238.76 329.46 241.4 
M 331.36 229.45 329.45 230.09 328.61 230.55 327.23 231.85 326.17 233.57 
M 326.13 244.2 323.22 245.66 321.97 246.6 320.89 247.7 319.99 248.97 318.6 251.92 
M 321.26 239.13 319.02 240.25 317.24 241.81 316.55 242.79 315.49 245.05 
M 316.39 234.06 314.17 235.34 313.11 236.61 312.37 238.18 
M 315.27 254.95 312.14 256.64 310.78 257.68 309.59 258.9 308.58 260.28 306.96 263.46 
M 309.35 248.13 306.95 249.43 305 251.16 304.22 252.23 302.98 254.66 
M 303.44 241.32 301.77 242.22 301.04 242.78 299.87 244.17 299.01 245.86 
M 418.83 148.17 422.25 147.39 425.08 145.89 430.68 142.35 433.62 140.89 437.92 138.25 440.85 136.17 450.01 131.84 451.73 131.2 454.29 130.64 455.99 129.61 458.89 126.37 462.54 124 464.62 122.9 467.34 119.55 469.91 117.83 473.11 117.65 476.6 117.03 478.43 115 480.6 113.6 483.89 113.42 487.86 112.57 490 109.68 481.45 117.75 479.62 124.12 475.6 128.45 474.05 131.19 473.01 134.43 471.07 136.77 468.59 138.47 466.9 140.95 464.93 147.34 463 149.56 461.21 151.96 457.9 152.73 455.67 154.68 452.65 159.89 451.51 162.66 450.84 165.12 449.28 167.25 449.65 170.99 450.36 174.87 450.5 177.59 451.06 180.38 450.02 181.45 449.77 184.33 452.03 189.04 454 192.74 456.61 196.68 457.99 199.34 458.69 201.31 457.33 205.16 458.76 209.55 455.2 205.94 452.07 205.61 451.01 204.6 448.05 202.63 445.11 199.48 442.25 198.55 439.62 196.96 436.21 194.38 433.78 192.78 432.06 189.96 429.5 188.73 426.35 186.83 422.82 184.46 418.83 181.09 
M 422.23 149.44 425.23 148.03 428.12 146.39 431.75 144.9 434.55 143.45 441.09 139.62 444.43 138.11 451.54 135.65 453.56 134.21 455.87 133.3 458.41 131.99 460.77 129.85 464.37 127.33 469.98 124.17 472.98 123.27 474.97 122.89 
M 418.83 151.46 422.31 151.47 425.47 150.39 432.47 147.55 435.19 146.08 437.72 145.09 440.38 144.53 441.98 143.47 448.89 140.55 453.26 139.26 456.27 137.74 459.04 136.89 460.35 135.78 
M 418.83 153.11 422.27 153.32 433.02 150.51 438.48 148.06 444.43 147.47 447.07 145.95 450.21 144.46 452.9 142.21 461.78 140.15 
M 418.83 154.75 422.4 155.45 428.97 154.16 433 153.63 438.62 151.45 441.93 151.62 445.5 151.15 447.87 149.73 451.43 148.04 457.27 146.39 459.77 145.98 462.15 145.33 
M 425.52 156.84 428.66 156.52 432.76 156.38 435.77 155.94 439.07 154.48 443.32 153.84 446.35 154.11 448.47 152.85 451.7 151.53 455.3 151.25 458.17 150.23 
M 429.01 158.91 432.78 159.15 436.3 158.48 443.63 155.27 446.82 155.59 451.52 154.1 454.59 153.53 
M 429.67 161.7 432.51 161.71 436.69 161.25 444.3 158.33 
M 426.71 163.7 430.27 163.9 432.72 163.64 
M 427.2 165.59 434.42 167.26 438.24 167.6 443.14 165.75 
M 430.56 168.74 434.86 169.83 
M 426.8 171.57 438.74 174.41 
M 418.83 169.57 422.79 171.8 430.79 174.52 434.97 176.19 438.11 176.51 441.9 177.41 
M 426.96 174.81 430.9 176.84 434.88 179.82 438.06 179.74 441.6 180.27 444.86 181.1 
M 418.83 172.86 422.6 174.79 426.51 176.23 430.7 178.76 434.03 181.62 447.48 183.91 
M 426.39 178.69 430.01 180.95 433.81 183.01 440.44 184.86 443.08 185.42 445.75 186.54 
M 425.96 181.19 429.61 183.04 433.61 184.25 437.21 184.68 442.88 187.83 
M 422.4 180.81 425.73 183.15 429.66 184.75 433.73 185.21 437.14 186.35 439.51 188.8 441.14 190.92 443.5 192.49 
M 418.83 179.45 422.53 182.68 425.98 185.03 429.78 186.81 433.27 187.36 435.73 188.91 437.62 191.52 442.52 195.4 445.84 197.4 
M 405.03 183.6 401.66 185.62 400.11 186.89 397.2 189.72 395.37 191.9 396.02 191.32 
M 39.58 152.35 42.33 150.91 46.48 149.42 57.67 146.5 63.44 144.71 78.43 139.59 87.07 137.04 95.9 134.66 103.82 132.08 118.99 127.61 132.57 124.11 138.03 123.04 142.42 122.49 145.03 122.35 149.97 127.37 151.08 131.84 151.32 136.19 151.32 140.51 150.79 144.75 149.2 153.16 145.34 169.88 144.74 178.43 142.81 186.79 138.76 194.85 137.25 198.96 133.66 202.84 121.72 203.02 112.98 202.8 105.05 201.7 97.59 200.07 90.72 198.08 84.41 195.69 78.49 192.82 67.37 185.83 61.97 181.92 57.14 177.69 
M 55.43 176.22 48.33 169.98 45.41 166.67 
M 123.92 148.63 122.7 152.56 
M 115.88 178.3 116.61 180.56 115.78 183.77 102.24 185.07 96.6 185.08 90.79 184.59 85.11 183.65 79.74 182.06 74.69 179.73 
M 53.61 174.55 38.4 159.93 35 156.17 34.89 153.62 36.8 151.9 39.33 152.06 40.89 153.91 49.91 166.69 57.87 177.07 
M 57.23 177.87 45.28 173.25 35.56 170.02 33.15 169.08 30.9 167.92 30 165.33 31.08 163.02 33.5 162.41 35.8 163.6 57.71 176.95 
M 84.7 169.97 82.93 163.27 83.44 156.36 86.15 149.99 90.79 144.85 96.85 141.49 103.67 140.28 110.52 141.35 116.64 144.59 121.38 149.64 124.23 155.95 124.87 162.85 123.23 169.58 119.5 175.42 114.08 179.73 107.55 182.04 100.63 182.11 94.05 179.93 88.54 175.73 84.7 169.97 
M 84.44 169.37 83.6 166.91 83.06 164.36 82.85 161.76 82.95 159.15 83.38 156.58 84.13 154.08 85.17 151.69 86.51 149.45 88.11 147.39 89.96 145.55 92.01 143.95 94.25 142.61 96.64 141.57 99.14 140.82 101.71 140.39 104.32 140.29 106.92 140.5 109.47 141.04 111.93 141.88 
M 86.32 168.6 85.55 166.37 85.07 164.06 84.87 161.71 84.97 159.36 85.34 157.16 
M 86.88 152.85 88.18 150.6 89.81 148.56 
M 90.01 148.36 91.3 147.07 93.16 145.62 95.18 144.42 97.34 143.47 99.6 142.8 101.92 142.41 104.28 142.31 106.62 142.51 108.93 142.99 111.16 143.76 
M 88.19 167.82 87.51 165.83 87.08 163.77 86.9 161.67 86.99 159.57 87.3 157.7 
M 91.43 149.8 92.64 148.59 94.3 147.3 96.11 146.22 98.04 145.37 100.05 144.77 102.13 144.43 104.23 144.34 106.33 144.51 108.39 144.95 110.38 145.63 
M 90.06 167.05 89.46 165.29 89.08 163.48 88.93 161.63 89.01 159.78 89.37 157.76 
M 93.25 150.84 95.45 148.97 97.04 148.02 98.74 147.28 100.51 146.75 102.34 146.45 104.19 146.37 106.04 146.52 107.85 146.9 109.61 147.5 
M 91.94 166.27 91.42 164.75 90.96 161.59 91.02 159.99 91.46 157.83 
M 94.9 152.05 96.59 150.65 97.97 149.83 100.97 148.73 104.15 148.4 107.31 148.86 108.83 149.38 
M 93.81 165.49 93.1 162.89 92.99 161.55 93.04 160.2 93.42 158.33 
M 96.42 153.4 97.73 152.32 98.89 151.63 101.43 150.7 104.11 150.42 105.45 150.54 108.05 151.25 
M 96.21 164.78 95.5 162.1 95.7 159.34 95.87 158.94 
M 98.3 155.11 98.65 154.73 101.07 153.39 103.8 152.91 106.54 153.33 108.99 154.63 110.88 156.65 112.02 159.17 112.28 161.93 111.62 164.63 110.13 166.96 107.96 168.68 105.35 169.61 102.58 169.64 99.95 168.76 97.75 167.08 96.21 164.78 
M 96.24 159.03 95.64 160.24 
M 100.4 153.76 99.21 156.14 
M 97.6 159.36 95.75 163.05 
M 102.21 153.19 100.16 157.29 
M 98.85 159.9 96.32 164.95 
M 103.86 152.92 101.11 158.42 
M 100.07 160.49 97.19 166.25 
M 105.27 153.14 102.15 159.38 
M 101.51 160.68 98.15 167.39 
M 106.66 153.4 103.2 160.33 
M 103.02 160.7 99.25 168.23 
M 107.87 154.04 100.42 168.92 
M 109.06 154.7 101.73 169.35 
M 110.05 155.76 103.11 169.63 
M 111 156.9 104.64 169.62 
M 111.72 158.5 106.34 169.26 
M 112.16 160.66 108.27 168.44 
M 40.46 151.89 44.17 155.6 
M 44.71 150.06 49.74 155.09 
M 49.43 148.69 53.33 152.59 
M 54.25 147.43 58.24 151.42 
M 59 146.09 62.04 149.14 
M 63.63 144.64 68.57 149.58 
M 68.14 143.06 72.98 147.9 
M 72.67 141.51 77.77 146.61 
M 77.23 139.99 82.2 144.96 
M 81.9 138.57 86.4 143.07 
M 86.6 137.18 89.78 140.36 
M 91.38 135.88 94.72 139.21 
M 96.16 134.57 99.91 138.33 
M 100.75 133.08 105.08 137.41 
M 105.37 131.62 110.31 136.56 
M 110.07 130.23 115.31 135.47 
M 114.77 128.85 119.59 133.66 
M 119.49 127.48 124.21 132.2 
M 124.31 126.22 128.49 130.4 
M 129.15 124.97 134.78 130.6 
M 134.07 123.81 139.27 129 
M 139.23 122.89 142.74 126.39 
M 144.79 122.36 148.42 125.99 
M 77.81 177.92 77.26 177.15 76.33 175.1 74.77 170.63 72.61 167.15 72.22 166.33 72.05 165.43 
M 132.06 125.85 133.99 124.66 135.19 123.59 
M 146.77 163.59 145.12 161.87 144.64 160.92 143.99 159.02 143.87 158.23 143.96 157.41 144.52 155.8 145 155.02 146.26 153.6 147.78 152.21 148.23 151.42 
M 131.33 188.65 131.57 186.45 131.87 185.36 132.87 183.14 133 182.11 132.92 181.25 132.36 179.9 130.46 177.7 
M 101.13 187.81 103.99 188.56 104.27 188.76 104.24 188.94 
M 147.72 148.74 147.15 148.97 
M 59.44 164.83 60.57 163.4 61.22 162.9 62.4 162.4 63.82 162.22 67.23 162.49 
M 85.3 196.02 85.82 194 85.76 193.45 85.47 192.86 83.81 191.2 
M 85.3 142.84 83.73 142.87 81.28 141.88 79.39 140.71 
M 140.8 138.06 138.63 135.05 137.65 133.12 137.18 131.08 137.43 129.41 137.75 128.61 139.59 126.01 
M 62.04 154.87 61.35 154.86 60.77 154.56 60.26 154.02 59.46 152.91 58.99 151.62 58.95 150.86 59.37 148.84 59.97 148 60.83 147.34 
M 128.83 157.18 128 155.69 123.88 150.72 122.71 147.55 
M 85.46 145 83.64 145.03 82.56 144.64 81.89 143.96 80.28 141.44 
M 131.33 157.43 131.57 157.05 132.62 156.68 135.31 155.33 
M 76.95 147.77 77.71 146.77 79.37 145.89 79.64 145.61 80.13 144.35 80.35 142.39 
M 149.27 149.35 149.28 148.81 149.16 148.65 146.37 147.67 
M 68.27 161.27 69.24 161.54 69.96 160.67 
M 51.54 168.89 51.33 166.33 50.05 163.18 
M 78.5 153.09 78.83 152.02 79.76 150.85 80.91 148.78 
M 48.25 169.9 48.47 169.58 
M 49.22 165.74 49.09 163.82 
M 84.15 188.83 83.27 187.91 81.59 185.4 80.31 182.71 78.9 181.36 77.48 179.37 
M 134.2 125.97 135.53 124.47 137.14 123.21 
M 77.59 173.17 76.98 172.23 76.27 170.61 74.78 169.22 72.72 166.25 72.36 165.33 72.02 162.64 
M 45.83 152.2 44.15 150.89 43.24 150.59 
M 84.27 150.27 83.51 149.73 81.89 149.04 81.6 148.77 81.53 148.44 
M 48.04 164.08 48.34 162.49 48.26 161.19 47.52 158.9 47.08 158.1 46.3 157.12 43.74 154.63 41.71 152 41.11 151.55 
M 127.32 137.91 128.29 137.25 130.12 136.5 131.68 135.61 132.85 134.51 133.87 132.83 
M 83.5 156.21 81.8 153.56 81.41 152.59 81.26 151.77 81.38 148.73 
M 39.66 171.38 44.68 175.4 48.85 178.32 53.37 180.96 58.1 183.36 62.96 185.56 72.94 189.41 
M 67.21 186.87 67.4 187.33 
M 146.2 122.01 153.54 129.35 
M 152.38 120.08 159.09 126.78 
M 158.65 118.23 166.51 126.09 
M 165.07 116.54 174.16 125.62 
M 171.77 115.12 182.43 125.78 
M 178.67 113.91 187.66 122.9 
M 185.87 113 193.86 120.99 
M 193.02 112.04 200.43 119.45 
M 200.02 110.93 207.56 118.46 
M 207.23 110.02 218.62 121.41 
M 214.62 109.3 220.94 115.62 
M 222.61 109.17 234.13 120.69 
M 230.78 109.23 236.87 115.33 
M 239.18 109.53 245.49 115.83 
M 247.91 110.14 259.49 121.72 
M 256.18 110.3 266.95 121.07 
M 264.46 110.46 276.22 122.22 
M 272.8 110.69 284.58 122.47 
M 281.29 111.06 288.72 118.5 
M 290.24 111.9 301.01 122.67 
M 299.41 112.97 308.74 122.3 
M 308.83 114.27 319.05 124.49 
M 318.62 115.95 330.64 127.96 
M 329.12 118.34 338.68 127.89 
M 340.07 121.17 349.92 131.02 
M 350.72 123.71 360.32 133.31 
M 360.99 125.87 370.26 135.13 
M 372.52 129.28 379.16 135.93 
M 385.33 133.98 396.31 144.96 
M 399.41 139.95 411.11 151.65 
M 413.55 145.97 423.05 155.48 
M 427.36 151.68 429.93 154.24 
M 137.07 199.15 137.83 200.67 
M 139.78 197.47 141.59 201.1 
M 141.76 194.33 145.39 201.59 
M 146.29 203.4 147.2 205.22 
M 144.67 193.06 148.3 200.31 
M 147.58 191.78 150.3 197.22 
M 155.25 192.91 157.97 198.36 
M 165.22 212.87 166.32 215.06 
M 158.21 191.74 160.93 197.18 
M 168.18 211.69 170.57 216.47 
M 172.05 212.33 174.57 217.37 
M 166.85 194.82 167.75 196.64 
M 175.92 212.96 178.63 218.39 
M 179.82 213.67 181.63 217.3 
M 150.24 147.4 151.99 150.91 
M 151.12 142.07 151.37 142.57 
M 155.91 151.64 156.79 153.4 
M 151.27 135.27 154.38 141.49 
M 158.91 150.56 159.82 152.37 
M 147.92 121.47 158.35 142.34 
M 193.73 213.08 196.45 218.53 
M 198.97 223.58 199.23 224.1 
M 150.99 120.51 160.51 139.56 
M 163.23 145 165.96 150.45 
M 196.79 212.12 199.52 217.57 
M 154.06 119.55 169.93 151.3 
M 170.84 153.11 171.15 153.73 
M 193.51 198.46 194.42 200.28 
M 157.6 119.53 172.11 148.55 
M 173.02 150.37 174.74 153.81 
M 195.69 195.72 197.51 199.35 
M 167.08 131.4 178.33 153.9 
M 197.53 192.3 197.92 193.08 
M 198.83 194.9 199.74 196.71 
M 163.87 117.88 165.69 121.51 
M 170.22 130.58 176.57 143.28 
M 178.38 146.91 181.92 153.98 
M 200.76 191.66 202.87 195.89 
M 204.69 199.51 206.5 203.14 
M 166.56 116.15 169.73 122.5 
M 176.99 137.01 180.61 144.27 
M 181.52 146.08 185.51 154.06 
M 207.82 198.69 209.64 202.32 
M 210.55 204.13 211.45 205.95 
M 169.76 115.47 174.75 125.45 
M 181.1 138.15 189.1 154.14 
M 173.03 114.9 175.3 119.44 
M 181.65 132.13 192.69 154.23 
M 224.28 217.4 225.18 219.21 
M 176.29 114.33 176.75 115.24 
M 177.65 117.05 178.56 118.87 
M 180.37 122.49 196.28 154.31 
M 225.73 213.2 228.45 218.64 
M 179.56 113.77 183.64 121.94 
M 187.27 129.19 194.53 143.7 
M 198.16 150.96 199.87 154.39 
M 228.09 210.82 230.81 216.27 
M 182.91 113.36 186.08 119.71 
M 191.52 130.6 196.06 139.67 
M 200.59 148.74 203.46 154.47 
M 186.25 112.95 189.43 119.3 
M 194.87 130.19 198.5 137.44 
M 202.12 144.7 204.85 150.14 
M 189.6 112.54 193.68 120.7 
M 199.12 131.59 200.93 135.22 
M 204.56 142.47 209.1 151.54 
M 248.22 229.78 248.79 230.92 
M 192.9 112.06 196.08 118.41 
M 206.96 140.17 208.78 143.8 
M 209.68 145.62 214.22 154.69 
M 196.19 111.53 199.37 117.88 
M 209.34 137.84 211.16 141.47 
M 199.48 111.01 203.56 119.18 
M 211.72 135.5 214.44 140.94 
M 220.79 153.64 221.41 154.88 
M 238.93 189.92 239.84 191.74 
M 202.78 110.52 208.68 122.31 
M 209.58 124.12 213.21 131.38 
M 214.12 133.19 216.84 138.64 
M 243.14 191.24 245.87 196.69 
M 206.14 110.14 220.2 138.26 
M 246.5 190.87 247.41 192.68 
M 248.32 194.49 249.23 196.31 
M 255.57 209.01 258.3 214.45 
M 209.5 109.76 221.75 134.25 
M 222.65 136.07 223.56 137.88 
M 224.47 139.7 228.1 146.95 
M 248.96 188.67 249.87 190.49 
M 258.03 206.82 261.66 214.07 
M 267.1 224.96 268.85 228.45 
M 212.86 109.39 222.39 128.43 
M 225.11 133.88 226.01 135.69 
M 228.74 141.13 231.46 146.57 
M 234.18 152.02 235.78 155.21 
M 260.48 204.62 263.2 210.07 
M 269.55 222.76 271.37 226.39 
M 216.35 109.27 224.97 126.5 
M 227.69 131.94 230.41 137.39 
M 231.32 139.2 234.04 144.64 
M 234.95 146.46 239.37 155.3 
M 219.88 109.22 222.14 113.75 
M 223.05 115.56 224.86 119.19 
M 226.68 122.82 228.49 126.45 
M 229.4 128.26 234.84 139.15 
M 235.75 140.96 236.66 142.78 
M 238.47 146.4 242.96 155.38 
M 223.4 109.16 227.48 117.33 
M 230.2 122.77 240.18 142.72 
M 243.81 149.98 246.55 155.46 
M 227.41 110.08 241.01 137.29 
M 247.36 149.99 250.14 155.54 
M 229.25 106.66 242.4 132.96 
M 250.56 149.29 253.73 155.63 
M 277.77 203.71 279.59 207.34 
M 231.41 103.89 246.38 133.82 
M 269.96 180.99 270.87 182.8 
M 286.29 213.64 289.01 219.08 
M 233.58 101.12 247.63 129.24 
M 248.54 131.05 250.36 134.68 
M 289.36 212.69 292.08 218.13 
M 235.74 98.35 242.54 111.96 
M 247.08 121.03 254.33 135.54 
M 262.5 151.87 264.5 155.87 
M 293.34 213.54 294.24 215.36 
M 237.91 95.58 244.71 109.19 
M 251.06 121.89 256.5 132.77 
M 265.57 150.91 268.09 155.95 
M 286.43 192.63 289.15 198.08 
M 240.52 93.72 246.87 106.42 
M 250.5 113.68 257.76 128.19 
M 268.64 149.96 271.68 156.04 
M 281.66 175.99 283.15 178.98 
M 289.5 191.68 292.22 197.12 
M 242.23 90.04 249.94 105.46 
M 252.67 110.91 262.64 130.86 
M 271.71 149 275.27 156.12 
M 284.3 174.18 285.32 176.21 
M 286.23 178.03 287.13 179.84 
M 294.39 194.35 295.3 196.17 
M 245.76 90 263.9 126.28 
M 265.71 129.91 266.62 131.72 
M 274.78 148.05 278.41 155.3 
M 290.2 178.89 291.11 180.7 
M 296.55 191.58 297.46 193.4 
M 247.92 87.23 265.16 121.69 
M 269.69 130.76 271.51 134.39 
M 277.86 147.09 280.58 152.53 
M 282.39 156.16 282.45 156.28 
M 298.72 188.81 300.53 192.44 
M 307.79 206.96 308.7 208.77 
M 253.72 91.71 256.44 97.16 
M 257.35 98.97 265.51 115.3 
M 270.95 126.18 271.86 128 
M 272.77 129.81 273.67 131.62 
M 274.58 133.44 275.49 135.25 
M 281.84 147.95 283.65 151.58 
M 301.79 187.86 303.6 191.49 
M 309.05 202.37 310.86 206 
M 261.32 99.83 267.67 112.53 
M 273.12 123.41 278.56 134.3 
M 283.09 143.37 287.63 152.44 
M 303.05 183.28 307.58 192.35 
M 308.49 194.16 309.4 195.97 
M 264.4 98.87 270.75 111.57 
M 275.28 120.64 280.72 131.53 
M 283.44 136.97 289.79 149.67 
M 306.12 182.32 311.56 193.21 
M 255.22 73.43 259.3 81.59 
M 261.12 85.22 262.93 88.85 
M 268.38 99.73 273.82 110.62 
M 278.35 119.69 293.77 150.53 
M 309.19 181.37 311.91 186.81 
M 257.39 70.66 266.91 89.71 
M 270.54 96.96 278.7 113.29 
M 281.42 118.73 295.03 145.94 
M 314.08 184.04 314.98 185.85 
M 259.55 67.89 271.8 92.38 
M 272.7 94.2 281.77 112.34 
M 282.68 114.15 294.47 137.73 
M 317.15 183.08 319.87 188.53 
M 327.13 203.04 329.85 208.48 
M 261.72 65.12 295.73 133.15 
M 320.22 182.13 322.94 187.57 
M 330.2 202.08 332.92 207.53 
M 336.41 214.5 336.72 215.13 
M 264.34 63.26 274.66 83.91 
M 279.42 93.42 282.16 98.92 
M 283.07 100.73 295.32 125.22 
M 334.32 203.22 336.13 206.85 
M 266.05 59.58 271.25 69.99 
M 289.12 105.73 289.93 107.36 
M 292.31 112.1 296.39 120.27 
M 303.64 134.78 306.37 140.22 
M 328.13 183.76 329.04 185.57 
M 337.2 201.9 340.83 209.16 
M 269.63 59.65 270.14 60.67 
M 296.08 112.55 300.16 120.71 
M 305.6 131.6 311.04 142.48 
M 312.86 146.11 313.76 147.92 
M 325.56 171.5 326.46 173.32 
M 327.37 175.13 329.18 178.76 
M 340.98 202.34 343.7 207.79 
M 270.38 54.05 270.88 55.05 
M 299.86 113.02 303.95 121.19 
M 307.57 128.44 313.92 141.14 
M 329.34 171.98 332.06 177.42 
M 343.86 201 344.76 202.82 
M 272.54 51.28 272.61 51.42 
M 303.65 113.5 307.73 121.66 
M 310.45 127.1 319.52 145.24 
M 332.22 170.64 335.85 177.9 
M 307.48 114.06 310.66 120.41 
M 311.56 122.22 317 133.11 
M 319.73 138.55 322.45 143.99 
M 325.17 149.43 329.7 158.5 
M 334.24 167.57 336.96 173.01 
M 311.33 114.65 320.85 133.7 
M 322.67 137.33 324.48 140.96 
M 328.11 148.21 335.36 162.73 
M 337.18 166.35 338.99 169.98 
M 355.32 202.64 357.74 207.47 
M 315.18 115.25 322.88 130.67 
M 324.7 134.3 328.33 141.55 
M 331.05 147 342.84 170.58 
M 358.26 201.42 360.67 206.24 
M 319.13 116.06 331.37 140.55 
M 332.28 142.36 346.79 171.39 
M 350.42 178.64 352.24 182.27 
M 354.96 187.71 356.77 191.34 
M 323.12 116.94 333.55 137.81 
M 335.37 141.43 350.79 172.27 
M 352.6 175.9 356.23 183.16 
M 357.13 184.97 359.86 190.41 
M 327.11 117.83 353.87 171.34 
M 355.68 174.97 359.31 182.23 
M 361.13 185.86 362.03 187.67 
M 331.64 119.78 338.9 134.3 
M 339.8 136.11 357.94 172.39 
M 360.66 177.83 365.2 186.9 
M 367.92 192.34 368.83 194.16 
M 335.72 120.85 336.63 122.66 
M 338.44 126.29 354.77 158.94 
M 355.68 160.76 356.58 162.57 
M 369.28 187.97 372.91 195.23 
M 342.52 127.35 357.03 156.37 
M 343.83 122.87 357.44 150.08 
M 347.41 122.93 360.56 149.23 
M 351.42 123.86 357.32 135.65 
M 360.04 141.09 363.67 148.35 
M 355.39 124.69 358.56 131.04 
M 362.19 138.3 365.82 145.55 
M 359.36 125.53 361.62 130.06 
M 363.44 133.69 367.07 140.95 
M 365.67 131.06 371.11 141.94 
M 368.95 130.51 377.11 146.84 
M 371.77 129.05 373.13 131.77 
M 375.85 137.22 376.76 139.03 
M 399.43 184.38 400.34 186.2 
M 376.06 130.54 376.51 131.44 
M 382.86 144.14 383.77 145.96 
M 399.19 176.79 402.82 184.05 
M 390.84 152.99 391.74 154.81 
M 399.91 171.14 400.81 172.95 
M 405.35 182.02 407.35 186.03 
M 407.89 180 410.27 184.77 
M 389.25 135.63 389.71 136.54 
M 393.33 143.79 395.15 147.42 
M 410.57 178.26 412.56 182.25 
M 395.11 140.24 398.74 147.5 
M 398.26 139.45 401.43 145.8 
M 402.79 141.42 408.69 153.21 
M 407.33 143.38 412.32 153.36 
M 411.81 145.25 415.89 153.41 
M 416.29 147.11 416.74 148.02 
M 228.38 292.89 228.26 292.3 227.84 291.7 227.33 291.39 226.13 291.39 225.44 291.7 224.66 292.3 223.61 293.8 223.16 295.3 223.31 296.8 223.73 297.39 224.24 297.7 225.44 297.7 226.13 297.39 226.91 296.8 227.39 296.2 227.66 295.3 
M 226.16 295.3 227.66 295.3 
M 231.5 293.5 230.81 293.8 230.03 294.39 229.46 295.3 229.28 295.89 229.31 296.8 229.73 297.39 230.24 297.7 231.14 297.7 231.83 297.39 232.61 296.8 233.18 295.89 233.36 295.3 233.33 294.39 232.91 293.8 232.4 293.5 231.5 293.5 
M 236 293.5 234.74 297.7 
M 235.64 294.7 236.81 293.8 237.5 293.5 238.4 293.5 238.91 293.8 238.94 294.7 238.04 297.7 
M 241.7 293.5 240.8 296.5 240.83 297.39 241.34 297.7 242.24 297.7 242.93 297.39 244.1 296.5 
M 245 293.5 243.74 297.7 
M 250.13 294.39 250.01 293.8 249.2 293.5 248.3 293.5 247.31 293.8 246.83 294.39 246.95 295 247.46 295.3 248.87 295.6 249.38 295.89 249.5 296.5 248.93 297.39 247.94 297.7 247.04 297.7 246.23 297.39 246.11 296.8 
M 256.13 291.39 254.24 297.7 
M 255.23 294.39 256.01 293.8 256.7 293.5 257.6 293.5 258.11 293.8 258.52 294.39 258.56 295.3 258.38 295.89 257.81 296.8 257.02 297.39 256.33 297.7 255.44 297.7 254.93 297.39 254.51 296.8 
M 261.52 291.39 261.74 291.7 262.13 291.39 261.91 291.1 261.52 291.39 
M 261.2 293.5 259.94 297.7 
M 264.23 291.39 262.34 297.7 
M 265.15 295.3 268.76 295.3 268.94 294.7 268.82 294.1 268.1 293.5 267.2 293.5 266.51 293.8 265.73 294.39 265.15 295.3 264.98 295.89 265.01 296.8 265.43 297.39 265.94 297.7 266.83 297.7 267.52 297.39 268.31 296.8 
M 274.7 293.5 273.44 297.7 
M 274.43 294.39 274.01 293.8 273.5 293.5 272.6 293.5 271.9 293.8 271.13 294.39 270.56 295.3 270.38 295.89 270.4 296.8 270.83 297.39 271.33 297.7 272.24 297.7 272.93 297.39 273.7 296.8 
M 277.73 291.39 275.83 297.7 
M 282.8 293.5 281.53 297.7 
M 282.52 294.39 282.11 293.8 281.6 293.5 280.7 293.5 280.01 293.8 279.23 294.39 278.65 295.3 278.48 295.89 278.51 296.8 278.93 297.39 279.44 297.7 280.33 297.7 281.02 297.39 281.81 296.8 
M 288.23 294.39 287.81 293.8 287.3 293.5 286.39 293.5 285.7 293.8 284.93 294.39 284.36 295.3 284.18 295.89 284.2 296.8 284.63 297.39 285.14 297.7 286.03 297.7 286.73 297.39 287.51 296.8 
M 293.89 293.5 292.64 297.7 
M 293.63 294.39 293.2 293.8 292.7 293.5 291.8 293.5 291.11 293.8 290.33 294.39 289.76 295.3 289.58 295.89 289.61 296.8 290.02 297.39 290.53 297.7 291.44 297.7 292.13 297.39 292.9 296.8 
M 295.52 297.1 295.13 297.39 295.33 297.7 295.73 297.39 295.52 297.1 
"/></svg>
