<svg xmlns="http://www.w3.org/2000/svg" width="520" height="320"><rect x="0" y="0" width="520" height="320" fill="floralwhite"/><rect x="10" y="10" width="500" height="300" stroke="black" stroke-width="1" fill="none"/><path stroke="black" stroke-width="1" fill="none" stroke-linecap="round" stroke-linejoin="round" d="
M 126.97 123.45 137.81 122.06 148.66 121.2 159.52 120.91 170.38 121.12 181.23 121.72 213.81 124.64 224.66 125.2 235.52 125.4 246.38 125.39 268.09 126.38 278.95 126.65 311.52 125.84 322.38 125.98 333.23 126.58 344.09 127.52 354.95 128.7 365.81 130.08 376.66 131.79 387.52 134.13 398.38 137.7 409.23 147.38 
M 409.23 172.16 398.38 176.16 387.52 177.92 365.81 180.93 354.95 182.66 322.38 189.12 289.81 194.74 278.95 196.79 257.23 201.62 246.38 203.81 235.52 205.37 224.66 206.07 202.95 206.33 181.23 207.15 170.38 207.36 159.52 207.13 148.66 206.25 137.9 204.59 
M 128 123.47 128.98 123.19 
M 131.85 129.49 131.85 129.18 131.05 128.1 
M 131.92 128.63 132.83 128.3 134.01 127.46 134.77 126.5 134.77 125.91 134.01 124.96 132.83 124.11 131.92 123.79 
M 134.7 136.84 135.7 135.43 135.7 134.74 135.01 133.61 133.93 132.61 133.23 132.29 
M 135.96 126.32 137.08 126.03 138.5 125.26 139.42 124.4 139.42 123.87 138.5 123 136.86 122.18 
M 136.49 134.67 137.58 134.33 138.97 133.43 139.86 132.42 139.86 131.8 138.97 130.79 137.58 129.9 136.49 129.55 
M 137.61 144.01 138.57 143.61 139.8 142.61 140.59 141.47 140.59 140.77 139.8 139.63 138.57 138.63 137.61 138.24 
M 148.54 197.94 149.24 197.58 150.14 196.67 150.72 195.63 150.72 195.05 
M 139.91 123.96 140.82 123.69 141.99 122.99 142.75 122.2 142.71 121.67 
M 140.12 131.74 141.07 131.42 142.29 130.59 143.08 129.65 143.08 129.07 142.29 128.13 141.07 127.31 140.12 126.98 
M 140.86 140.38 141.76 140.03 142.91 139.13 143.65 138.1 143.65 137.47 142.91 136.45 141.76 135.55 140.86 135.19 
M 144.08 122.13 145.14 121.88 146.15 121.4 
M 144.01 129.35 145.11 129.05 146.52 128.27 147.42 127.4 147.42 126.86 146.52 125.98 145.11 125.21 144.01 124.91 
M 144.49 137.48 145.58 137.15 146.97 136.3 147.87 135.34 147.87 134.75 146.97 133.79 145.58 132.94 144.49 132.61 
M 144.88 145.87 145.87 145.53 147.13 144.64 147.94 143.63 147.94 143 147.13 141.99 145.87 141.1 144.88 140.75 
M 147.75 126.84 148.63 126.55 149.76 125.82 150.49 124.99 150.49 124.47 149.76 123.64 148.63 122.91 147.75 122.62 
M 148.27 134.85 149.19 134.53 150.35 133.7 151.11 132.76 151.11 132.18 150.35 131.24 149.19 130.41 148.27 130.09 
M 148.7 142.95 149.57 142.63 150.68 141.8 151.4 140.86 151.4 140.28 150.68 139.34 149.57 138.51 148.7 138.19 
M 156.33 193.88 156.86 193.49 157.23 192.95 
M 151.65 124.68 152.67 124.42 153.98 123.76 154.82 123.01 154.82 122.55 153.98 121.8 152.51 121.1 
M 151.8 132.1 152.84 131.79 154.17 131.01 155.02 130.13 155.02 129.58 154.17 128.7 152.84 127.91 151.8 127.61 
M 152.23 140.05 153.24 139.74 154.54 138.92 155.38 138 155.38 137.43 154.54 136.51 153.24 135.7 152.23 135.39 
M 155.46 122.43 156.3 122.2 157.36 121.61 158.04 120.95 
M 155.29 129.35 156.13 129.06 157.2 128.31 157.9 127.47 157.9 126.94 157.2 126.1 156.13 125.35 155.29 125.06 
M 156.03 145.05 156.82 144.75 157.82 143.97 158.47 143.09 158.47 142.55 157.82 141.67 156.82 140.89 156.03 140.59 
M 159.72 120.98 160 120.92 
M 158.99 126.94 159.97 126.68 161.24 126.02 162.05 125.27 162.05 124.8 161.24 124.05 159.97 123.39 158.99 123.13 
M 159.11 134.28 160.07 133.99 161.29 133.22 162.08 132.35 162.08 131.81 161.29 130.94 160.07 130.17 159.11 129.87 
M 160.98 146.21 159.58 145.1 158.72 144.81 
M 162.73 124.62 163.55 124.39 164.6 123.8 165.28 123.13 165.28 122.71 164.6 122.04 163.55 121.45 162.73 121.22 
M 162.47 131.37 163.26 131.09 164.28 130.36 164.93 129.54 164.93 129.03 164.28 128.21 163.26 127.49 162.47 127.2 
M 162.79 139.06 163.52 138.75 164.45 137.97 165.05 137.08 165.05 136.53 164.45 135.64 163.52 134.86 162.79 134.55 
M 163.09 146.22 164.19 145.39 164.75 144.55 164.75 144.03 164.19 143.19 163.31 142.45 162.62 142.16 
M 166.84 123.04 167.77 122.83 168.97 122.29 169.74 121.67 169.74 121.29 169.5 121.1 
M 166.12 128.93 167.06 128.68 168.27 128.03 169.05 127.3 169.05 126.85 168.27 126.12 167.06 125.47 166.12 125.22 
M 165.9 135.85 166.78 135.57 167.91 134.84 168.63 134.02 168.63 133.51 167.91 132.68 166.78 131.95 165.9 131.67 
M 165.79 146.25 164.89 145.89 
M 170.79 121.36 171.45 121.18 
M 169.94 126.73 170.72 126.5 171.71 125.91 172.36 125.24 172.36 124.83 171.71 124.16 170.72 123.57 169.94 123.34 
M 169.35 133 170.09 132.73 171.05 132.06 171.66 131.3 171.66 130.83 171.05 130.06 170.09 129.39 169.35 129.13 
M 169 139.98 169.66 139.7 170.51 138.97 171.06 138.14 171.06 137.63 170.51 136.81 169.66 136.08 169 135.8 
M 173.57 124.74 174.42 124.52 175.51 123.95 176.21 123.31 176.21 122.91 175.51 122.27 174.42 121.7 173.57 121.48 
M 172.92 130.56 173.79 130.31 174.9 129.69 175.62 128.98 175.62 128.54 174.9 127.84 173.79 127.21 172.92 126.97 
M 172.24 136.92 173.06 136.66 174.11 135.98 174.78 135.21 174.78 134.74 174.11 133.97 173.06 133.29 172.24 133.03 
M 171.53 143.71 172.27 143.43 173.23 142.71 173.84 141.9 173.84 141.4 173.23 140.58 172.27 139.86 171.53 139.58 
M 171.6 195.13 172.13 194.76 173.05 193.21 
M 177 122.58 177.63 122.36 178.63 121.58 
M 176.57 128.28 177.25 128.04 178.13 127.44 178.7 126.76 178.7 126.34 178.13 125.66 177.25 125.06 176.57 124.83 
M 175.81 134.23 176.5 133.98 177.38 133.35 177.95 132.63 177.95 132.18 177.38 131.47 176.5 130.83 175.81 130.59 
M 174.81 140.49 175.44 140.22 176.24 139.55 176.76 138.78 176.76 138.31 176.24 137.55 175.44 136.87 174.81 136.61 
M 175.12 146.33 175.65 145.44 175.65 144.93 175.17 144.09 174.42 143.35 173.83 143.06 
M 174.36 202.98 173.64 202.11 
M 179.56 125.68 180.3 125.44 181.25 124.84 181.86 124.16 181.86 123.74 181.25 123.06 180.3 122.46 179.56 122.23 
M 178.23 137.67 179 137.42 179.99 136.78 180.62 136.04 180.62 135.59 179.99 134.86 179 134.21 178.23 133.96 
M 182.34 122.86 182.89 122.63 183.67 121.93 
M 182.33 128.98 182.93 128.73 183.69 128.1 184.18 127.38 184.18 126.94 183.69 126.22 182.93 125.59 182.33 125.34 
M 181.8 135.06 182.43 134.81 183.24 134.18 183.77 133.47 183.77 133.03 183.24 132.31 182.43 131.68 181.8 131.44 
M 180.49 140.93 181.11 140.67 181.91 140.03 182.42 139.29 182.42 138.84 181.91 138.11 181.11 137.46 180.49 137.21 
M 180.61 146.38 181.05 145.63 181.05 145.1 180.55 144.24 179.79 143.49 179.19 143.19 
M 184.84 125.87 185.5 125.63 186.36 124.99 186.91 124.28 186.91 123.83 186.36 123.12 185.5 122.48 184.84 122.24 
M 184.75 132.17 185.46 131.91 186.37 131.27 186.96 130.53 186.96 130.08 186.37 129.34 185.46 128.69 184.75 128.44 
M 182.68 144.5 183.42 144.23 184.38 143.53 184.99 142.73 184.99 142.23 184.38 141.44 183.42 140.73 182.68 140.46 
M 187.18 122.58 187.76 122.28 
M 187.49 129.08 188.04 128.81 188.75 128.14 189.2 127.38 189.2 126.91 188.75 126.14 188.04 125.47 187.49 125.21 
M 187.38 135.55 187.97 135.3 188.73 134.64 189.22 133.9 189.22 133.43 188.73 132.69 187.97 132.03 187.38 131.77 
M 186.62 146.44 186.81 146.13 186.81 145.6 186.29 144.73 185.48 143.97 184.84 143.67 
M 189.75 125.69 190.38 125.43 191.19 124.76 191.71 124.01 191.71 123.55 190.88 122.54 
M 190 132.35 190.68 132.08 191.54 131.4 192.09 130.62 192.09 130.14 191.54 129.37 190.68 128.69 190 128.42 
M 189.55 138.75 190.27 138.49 191.2 137.82 191.79 137.06 191.79 136.59 191.2 135.83 190.27 135.16 189.55 134.9 
M 188.42 145.12 189.18 144.84 190.14 144.13 190.76 143.32 190.76 142.82 190.14 142.01 189.18 141.3 188.42 141.02 
M 184.11 200.29 184.8 199.95 185.68 199.1 186.25 198.14 186.25 197.55 185.68 196.59 184.8 195.74 184.11 195.4 
M 192.44 128.94 192.97 128.66 193.65 127.95 194.08 127.15 194.08 126.65 193.65 125.85 192.97 125.15 192.44 124.87 
M 192.71 135.83 193.28 135.55 194.01 134.86 194.48 134.07 194.48 133.58 194.01 132.79 193.28 132.1 192.71 131.83 
M 191.91 142.12 192.53 141.86 193.32 141.19 193.83 140.42 193.83 139.95 193.32 139.18 192.53 138.51 191.91 138.24 
M 194.46 125.29 195.07 125.02 195.84 124.32 196.34 123.53 196.34 123.07 
M 195.05 132.33 195.7 132.04 196.53 131.32 197.06 130.5 197.06 129.99 196.53 129.17 195.7 128.45 195.05 128.17 
M 195 139.13 195.7 138.85 196.6 138.15 197.18 137.35 197.18 136.86 196.6 136.06 195.7 135.36 195 135.08 
M 194.16 145.74 194.9 145.46 195.85 144.73 196.46 143.91 196.46 143.4 195.85 142.57 194.9 141.84 194.16 141.56 
M 190.05 192.4 190.78 192.08 191.72 191.24 192.32 190.29 192.32 189.7 191.99 189.17 
M 197.17 128.59 197.68 128.3 198.33 127.55 198.75 126.7 198.75 126.18 198.33 125.33 197.68 124.58 197.17 124.28 
M 197.88 135.95 198.43 135.66 199.14 134.91 199.6 134.08 199.6 133.56 199.14 132.72 198.43 131.97 197.88 131.69 
M 198.94 124.68 199.52 124.39 200.37 123.48 
M 199.91 132.13 200.54 131.83 201.35 131.06 201.86 130.19 201.86 129.65 201.35 128.77 200.54 128 199.91 127.7 
M 200.29 139.36 200.97 139.07 201.85 138.33 202.41 137.49 202.41 136.97 201.85 136.12 200.97 135.38 200.29 135.09 
M 199.75 146.23 200.48 145.94 201.4 145.19 202 144.35 202 143.83 201.4 142.98 200.48 142.24 199.75 141.95 
M 201.71 128.07 202.21 127.75 202.84 126.95 203.25 126.05 203.25 125.49 202.84 124.58 201.98 123.64 
M 202.88 135.91 203.42 135.6 204.11 134.81 204.56 133.91 204.56 133.36 204.11 132.46 203.42 131.67 202.88 131.36 
M 203.53 146.59 202.72 145.77 202.12 145.47 
M 203.26 123.91 203.51 123.79 
M 205.21 146.58 205.92 146.28 206.82 145.51 207.41 144.65 207.41 144.12 206.82 143.25 205.92 142.49 205.21 142.19 
M 206.16 127.45 206.65 127.12 207.28 126.27 207.69 125.31 207.69 124.71 207.44 124.11 
M 207.79 135.77 208.32 135.44 209 134.6 209.44 133.64 209.44 133.05 209 132.1 208.32 131.26 207.79 130.93 
M 208.22 143.19 208.79 142.89 209.52 142.12 209.99 141.25 209.99 140.72 209.52 139.85 208.79 139.08 208.22 138.78 
M 208.75 146.64 208.2 146.07 207.61 145.77 
M 209.32 131.42 209.95 131.08 210.74 130.21 211.26 129.23 211.26 128.62 210.74 127.64 209.95 126.77 209.32 126.44 
M 210.53 139.47 211.19 139.14 212.04 138.32 212.58 137.39 212.58 136.81 212.04 135.88 211.19 135.06 210.53 134.74 
M 210.67 126.87 211.19 126.53 211.85 125.63 212.27 124.51 
M 212.67 135.59 213.21 135.24 213.9 134.36 214.34 133.35 214.34 132.73 213.9 131.73 213.21 130.84 212.67 130.5 
M 213.43 143.31 214 143 214.72 142.21 215.19 141.31 215.19 140.75 214.72 139.85 214 139.05 213.43 138.74 
M 213.97 146.68 213.58 146.26 212.99 145.96 
M 210.58 199.59 211.24 199.22 212.07 198.27 212.61 197.2 212.61 196.53 212.07 195.46 211.24 194.51 210.58 194.14 
M 214.15 131.14 214.8 130.79 215.63 129.9 216.17 128.88 216.17 128.25 215.63 127.23 214.8 126.34 214.15 125.99 
M 215.6 139.43 216.26 139.1 217.11 138.25 217.66 137.29 217.66 136.69 217.11 135.73 216.26 134.88 215.6 134.55 
M 215.59 126.66 216.15 126.3 217.12 124.81 
M 217.68 135.46 218.23 135.1 218.93 134.2 219.39 133.18 219.39 132.55 218.93 131.53 218.23 130.62 217.68 130.27 
M 220.71 139.39 221.38 139.05 222.23 138.19 222.79 137.22 222.79 136.62 222.23 135.65 221.38 134.79 220.71 134.46 
M 219.58 196.28 220.34 195.94 221.31 195.07 221.94 194.09 221.94 193.49 221.31 192.51 220.34 191.64 219.58 191.3 
M 220.89 126.76 221.46 126.41 222.4 125.08 
M 222.81 135.38 223.37 135.03 224.08 134.14 224.54 133.13 224.54 132.5 224.08 131.49 223.37 130.6 222.81 130.26 
M 223.75 143.35 224.31 143.03 225.02 142.21 225.48 141.27 225.48 140.69 225.02 139.76 224.31 138.94 223.75 138.62 
M 224.46 146.78 223.66 146.22 
M 224.46 131.08 225.13 130.73 225.99 129.84 226.55 128.83 226.55 128.2 225.99 127.19 225.13 126.3 224.46 125.95 
M 226.99 146.8 227.84 145.99 228.4 145.06 228.4 144.48 227.84 143.55 226.98 142.73 226.3 142.41 
M 226.2 126.88 226.76 126.53 227.65 125.26 
M 227.94 135.29 228.49 134.95 229.19 134.07 229.64 133.07 229.64 132.46 229.19 131.46 228.49 130.58 227.94 130.24 
M 229.7 146.82 228.94 146.29 
M 229.56 130.98 230.2 130.64 231.03 129.75 231.56 128.74 231.56 128.12 231.03 127.12 230.2 126.23 229.56 125.88 
M 230.9 139.21 231.55 138.88 232.38 138.02 232.91 137.05 232.91 136.44 232.38 135.47 231.55 134.61 230.9 134.28 
M 232.07 146.85 232.98 145.99 233.53 145.04 233.53 144.46 232.98 143.52 232.12 142.68 231.46 142.36 
M 231.19 126.69 231.71 126.34 232.41 125.34 
M 232.91 135.08 233.43 134.74 234.1 133.85 234.54 132.86 234.54 132.24 234.1 131.24 233.43 130.36 232.91 130.02 
M 233.89 143.19 234.43 142.86 235.12 142.02 235.57 141.06 235.57 140.46 235.12 139.51 234.43 138.66 233.89 138.33 
M 234.93 146.87 234.15 146.29 
M 234.31 130.58 234.9 130.23 235.66 129.32 236.15 128.3 236.15 127.67 235.66 126.65 234.9 125.74 234.31 125.39 
M 235.78 138.96 236.4 138.62 237.19 137.74 237.7 136.74 237.7 136.13 237.19 135.13 236.4 134.26 235.78 133.91 
M 236.9 146.89 238 145.9 238.54 144.93 238.54 144.34 238 143.37 237.17 142.52 236.53 142.19 
M 236.71 180.58 237.39 180.22 238.25 179.33 238.81 178.31 238.81 177.68 238.13 176.53 
M 236.56 201.23 235.98 200.71 235.3 200.41 
M 235.6 125.95 236.18 125.4 
M 237.54 134.59 238.02 134.24 238.63 133.33 239.03 132.29 239.03 131.65 238.63 130.62 238.02 129.71 237.54 129.35 
M 238.78 142.98 239.3 142.64 239.96 141.76 240.38 140.77 240.38 140.16 239.96 139.17 239.3 138.29 238.78 137.95 
M 240.15 146.92 239.28 146.19 
M 238.49 129.64 239.03 129.27 239.73 128.33 240.17 127.27 240.17 126.62 239.61 125.4 
M 240.29 138.38 240.86 138.02 241.6 137.1 242.07 136.06 242.07 135.42 241.6 134.38 240.86 133.46 240.29 133.1 
M 241.56 133.54 242 133.16 242.56 132.2 242.93 131.11 242.93 130.43 242.56 129.34 242 128.38 241.56 128 
M 243.28 142.41 243.75 142.05 244.36 141.12 244.75 140.07 244.75 139.42 244.36 138.37 243.75 137.45 243.28 137.09 
M 245.28 146.97 244.66 146.13 244.15 145.79 
M 242.08 128.08 242.59 127.7 243.25 126.73 243.67 125.39 
M 246.97 180.52 247.63 180.16 248.48 179.24 249.03 178.21 249.03 177.57 248.48 176.53 247.63 175.62 246.97 175.26 
M 245.03 131.91 245.46 131.51 246 130.5 246.34 129.35 246.34 128.64 246 127.49 245.46 126.47 245.03 126.08 
M 247.27 141.35 247.72 140.97 248.29 139.98 248.66 138.86 248.66 138.17 248.29 137.05 247.72 136.06 247.27 135.68 
M 249.99 147.01 249.68 146.19 249.07 145.27 248.6 144.91 
M 249.34 176 249.89 175.63 250.58 174.7 251.03 173.64 251.03 172.98 250.58 171.92 249.89 170.99 249.34 170.62 
M 245.42 126.21 246.22 125.39 
M 247.91 135.81 248.43 135.42 249.1 134.4 249.53 133.24 249.53 132.53 249.1 131.38 248.43 130.36 247.91 129.96 
M 249.87 145.16 250.42 144.78 251.12 143.8 251.57 142.7 251.57 142.01 251.12 140.91 250.42 139.93 249.87 139.55 
M 251.93 188.9 252.59 188.56 253.43 187.69 253.98 186.71 253.98 186.1 253.43 185.12 252.59 184.25 251.93 183.91 
M 248.38 130.07 248.81 129.66 249.36 128.62 249.72 127.45 249.72 126.72 249.34 125.5 
M 253.98 147.04 254.09 146.06 253.71 144.97 253.13 144.01 252.67 143.63 
M 251.55 134.25 252.08 133.85 252.76 132.82 253.2 131.64 253.2 130.92 252.76 129.75 252.08 128.71 251.55 128.31 
M 253.74 143.89 254.28 143.5 254.97 142.49 255.41 141.35 255.41 140.64 254.97 139.49 254.28 138.49 253.74 138.09 
M 256.49 171.15 257.13 170.77 257.95 169.81 258.48 168.71 258.48 168.03 257.95 166.94 256.83 165.79 
M 252.15 128.54 252.6 128.14 253.19 127.12 253.57 125.66 
M 254.71 138.48 255.16 138.07 255.72 137.03 256.09 135.84 256.09 135.11 255.72 133.92 255.16 132.88 254.71 132.47 
M 258.44 166.24 258.96 165.86 259.81 164.4 
M 259.4 175.85 259.96 175.46 260.68 174.47 261.14 173.35 261.14 172.65 260.68 171.53 259.96 170.54 259.4 170.15 
M 260.02 184.9 260.58 184.56 261.29 183.67 261.76 182.67 261.76 182.04 261.29 181.04 260.58 180.15 260.02 179.81 
M 258.83 192.17 259.35 191.85 260.02 191.06 260.45 190.15 260.45 189.6 260.02 188.69 259.35 187.9 258.83 187.59 
M 255.47 132.87 256.02 132.48 256.73 131.47 257.18 130.32 257.18 129.61 256.73 128.46 256.02 127.45 255.47 127.05 
M 257.63 142.58 258.17 142.18 258.86 141.16 259.3 140 259.3 139.28 258.86 138.12 258.17 137.1 257.63 136.7 
M 260.09 147.1 259.23 146.3 
M 262.3 180.37 262.97 180 263.83 179.07 264.39 178 264.39 177.35 263.83 176.28 262.97 175.35 262.3 174.98 
M 256.41 127.41 256.9 127.03 257.62 125.82 
M 258.59 137.06 259.05 136.66 259.63 135.64 260 134.48 260 133.76 259.63 132.6 259.05 131.58 258.59 131.18 
M 263.3 166.06 263.85 165.66 264.54 164.63 264.87 163.76 
M 259.67 131.71 260.26 131.34 261 130.38 261.48 129.29 261.48 128.62 261 127.53 260.26 126.57 259.67 126.19 
M 261.57 141.28 262.12 140.88 262.83 139.86 263.28 138.71 263.28 138 262.83 136.84 262.12 135.82 261.57 135.43 
M 264.92 147.14 263.96 145.51 263.39 145.1 
M 267.48 180.36 268.16 179.99 269.03 179.06 269.59 178.01 269.59 177.36 269.03 176.31 268.16 175.38 267.48 175.01 
M 261.07 126.63 261.78 126.04 
M 264.18 130.83 264.79 130.48 265.58 129.58 266.08 128.56 266.08 127.93 265.58 126.91 264.96 126.21 
M 265.7 140.16 266.28 139.76 267.02 138.76 267.5 137.62 267.5 136.91 267.02 135.77 266.28 134.76 265.7 134.37 
M 272.68 180.33 273.36 179.97 274.22 179.06 274.78 178.02 274.78 177.38 274.22 176.35 273.36 175.43 272.68 175.07 
M 266.98 134.74 267.48 134.38 268.13 133.45 268.54 132.39 268.54 131.74 268.13 130.69 267.48 129.75 266.98 129.39 
M 268.7 144.59 269.19 144.17 269.82 143.1 270.23 141.89 270.23 141.14 269.82 139.93 269.19 138.86 268.7 138.45 
M 273.64 166.33 274.21 165.88 274.94 164.75 275.41 163.47 275.41 162.67 274.94 161.39 274.21 160.26 273.64 159.82 
M 268.98 130.3 269.62 129.97 270.44 129.12 270.98 128.15 270.98 127.55 270.3 126.43 
M 270.2 139.41 270.82 139.02 271.62 138.03 272.13 136.9 272.13 136.2 271.62 135.07 270.82 134.08 270.2 133.69 
M 274.18 147.23 274.27 146.22 273.75 144.94 272.95 143.82 272.31 143.38 
M 277.09 171.33 277.78 170.91 278.65 169.85 279.22 168.64 279.22 167.89 278.65 166.68 277.78 165.61 277.09 165.19 
M 276.77 187.54 277.43 187.24 278.28 186.46 278.83 185.58 278.83 185.03 278.28 184.15 277.43 183.37 276.77 183.07 
M 271.75 134.24 272.29 133.88 272.98 132.98 273.43 131.95 273.43 131.32 272.98 130.3 272.29 129.39 271.75 129.04 
M 274.01 130.11 274.67 129.79 275.52 128.95 276.06 128 276.06 127.41 275.58 126.57 
M 275.15 139.17 275.82 138.78 276.67 137.79 277.23 136.66 277.23 135.96 276.67 134.84 275.82 133.85 275.15 133.46 
M 279.19 147.27 279.39 146.81 279.39 146.01 278.83 144.73 277.97 143.6 277.3 143.15 
M 280.05 160.84 280.72 160.39 281.57 159.21 282.13 157.89 282.13 157.06 281.57 155.74 280.72 154.57 280.05 154.11 
M 283.03 180.28 283.71 179.93 284.57 179.03 285.13 178.01 285.13 177.38 284.57 176.37 283.71 175.47 283.03 175.12 
M 281.9 187.48 282.57 187.17 283.44 186.4 284 185.52 284 184.98 283.44 184.1 282.57 183.32 281.9 183.02 
M 282.08 192.72 282.26 192.44 282.26 191.89 281.7 191 280.83 190.21 280.15 189.91 
M 276.91 134.24 277.48 133.89 278.21 132.97 278.68 131.94 278.68 131.3 278.21 130.27 277.48 129.36 276.91 129.01 
M 281.23 155.24 281.79 154.78 282.51 153.59 282.98 152.24 282.98 151.41 282.64 150.43 
M 279.08 130.08 279.73 129.74 280.57 128.87 281.11 127.89 281.11 127.28 280.75 126.62 
M 280.43 139.31 281.13 138.92 282.03 137.91 282.6 136.78 282.6 136.07 282.03 134.93 281.13 133.93 280.43 133.53 
M 285.17 160.76 285.84 160.3 286.69 159.14 287.24 157.83 287.24 157.02 286.69 155.7 285.84 154.54 285.17 154.09 
M 288.21 180.3 288.88 179.95 289.75 179.04 290.3 178.02 290.3 177.38 289.75 176.35 288.88 175.45 288.21 175.09 
M 287.16 187.57 287.85 187.27 288.73 186.49 289.3 185.61 289.3 185.06 288.73 184.18 287.85 183.4 287.16 183.09 
M 282.2 134.49 282.78 134.12 283.51 133.16 283.99 132.07 283.99 131.4 283.51 130.32 282.78 129.36 282.2 128.99 
M 284.05 144.41 284.66 144 285.43 142.92 285.93 141.7 285.93 140.95 285.43 139.73 284.66 138.66 284.05 138.24 
M 286.45 155.2 287.02 154.75 287.75 153.59 288.22 152.28 288.22 151.47 287.75 150.17 287.02 149.01 286.45 148.56 
M 288.99 166.17 289.53 165.72 290.21 164.58 290.65 163.28 290.65 162.48 290.21 161.19 289.53 160.04 288.99 159.6 
M 290.79 184.4 291.37 184.08 292.1 183.26 292.58 182.34 292.58 181.76 292.1 180.83 291.37 180.01 290.79 179.69 
M 284.01 130.02 284.65 129.66 285.47 128.72 285.99 127.66 285.99 127 285.76 126.52 
M 287.95 149.88 288.65 149.45 289.55 148.35 289.9 147.6 
M 290.01 147.37 290.13 146.33 289.55 145.08 288.65 143.98 287.95 143.55 
M 290.24 160.56 290.9 160.12 291.74 158.99 292.29 157.7 292.29 156.91 291.74 155.63 290.9 154.49 290.24 154.05 
M 292.36 171.08 293.01 170.66 293.83 169.58 294.37 168.36 294.37 167.6 293.83 166.38 293.01 165.3 292.36 164.88 
M 287.48 134.8 288.05 134.4 288.77 133.37 289.24 132.21 289.24 131.48 288.77 130.32 288.05 129.29 287.48 128.89 
M 291.68 155.11 292.24 154.68 292.97 153.57 293.43 152.31 293.43 151.54 292.97 150.28 292.24 149.18 291.68 148.74 
M 295.8 176.13 296.34 175.73 297.04 174.69 297.49 173.52 297.49 172.8 297.04 171.62 296.34 170.59 295.8 170.19 
M 288.82 129.87 289.45 129.47 290.25 128.45 290.77 127.3 290.69 126.42 
M 291.19 139.91 291.88 139.49 292.75 138.43 293.32 137.22 293.32 136.47 292.75 135.26 291.88 134.19 291.19 133.78 
M 293.3 150 293.98 149.57 294.86 148.49 295.43 147.27 295.43 146.51 294.86 145.29 293.98 144.21 293.3 143.78 
M 295.26 160.32 295.92 159.89 296.76 158.78 297.3 157.53 297.3 156.75 296.76 155.5 295.92 154.39 295.26 153.96 
M 292.62 134.95 293.16 134.53 293.86 133.43 294.31 132.19 294.31 131.42 293.86 130.17 293.16 129.08 292.62 128.65 
M 295.04 145.07 295.61 144.65 296.34 143.58 296.82 142.36 296.82 141.61 296.34 140.4 295.61 139.33 295.04 138.91 
M 296.83 154.98 297.39 154.57 298.1 153.49 298.56 152.28 298.56 151.53 298.1 150.31 297.39 149.24 296.83 148.82 
M 301.41 189.44 301.41 188.95 300.94 188.09 300.2 187.34 299.63 187.04 
M 293.55 129.58 294.18 129.16 294.98 128.08 295.5 126.86 295.5 126.26 
M 298.47 149.97 299.14 149.55 300 148.47 300.55 147.26 300.55 146.51 300 145.29 299.14 144.22 298.47 143.8 
M 300.28 160.12 300.94 159.69 301.79 158.6 302.34 157.36 302.34 156.59 301.79 155.35 300.94 154.25 300.28 153.82 
M 297.51 134.76 298.05 134.32 298.74 133.19 299.19 131.9 299.19 131.11 298.74 129.82 298.05 128.69 297.51 128.25 
M 300.11 144.98 300.67 144.56 301.37 143.48 301.83 142.25 301.83 141.5 301.37 140.27 300.67 139.19 300.11 138.76 
M 305.9 175.96 306.46 175.54 307.19 174.48 307.66 173.26 307.66 172.51 307.19 171.3 306.46 170.23 305.9 169.82 
M 298.4 129.3 299.05 128.87 299.89 127.77 300.44 126.52 300.44 126.09 
M 301.34 139.83 302.01 139.39 302.87 138.28 303.42 137.02 303.42 136.24 302.87 134.98 302.01 133.86 301.34 133.43 
M 305.43 160.11 306.12 159.68 307.01 158.58 307.58 157.33 307.58 156.56 307.01 155.31 306.12 154.21 305.43 153.78 
M 308.82 180.35 309.5 179.98 310.37 179.02 310.93 177.93 310.93 177.26 310.37 176.17 309.5 175.21 308.82 174.84 
M 302.54 134.63 303.1 134.19 303.83 133.04 304.3 131.75 304.3 130.94 303.83 129.65 303.1 128.51 302.54 128.06 
M 311.21 176.06 311.79 175.65 312.54 174.59 313.02 173.4 313.02 172.66 312.54 171.46 311.79 170.4 311.21 169.99 
M 303.59 129.34 304.29 128.9 305.18 127.8 305.76 126.54 305.76 125.97 
M 306.57 139.9 307.27 139.46 308.16 138.34 308.74 137.07 308.74 136.29 308.16 135.02 307.27 133.9 306.57 133.46 
M 308.89 150.1 309.6 149.67 310.51 148.58 311.09 147.33 311.09 146.57 310.51 145.33 309.6 144.23 308.89 143.8 
M 313.57 187.48 314.58 186.59 315.1 185.7 315.1 185.15 314.58 184.25 313.77 183.46 313.13 183.15 
M 307.92 134.84 308.52 134.4 309.28 133.25 309.77 131.96 309.77 131.16 309.28 129.87 308.52 128.73 307.92 128.28 
M 310.61 145.2 311.2 144.76 311.97 143.66 312.46 142.41 312.46 141.63 311.97 140.38 311.2 139.28 310.61 138.85 
M 312.64 155.35 313.25 154.92 314.03 153.82 314.54 152.57 314.54 151.8 314.03 150.56 313.25 149.46 312.64 149.03 
M 315.43 187.16 314.98 186.65 314.47 186.36 
M 309.08 129.65 309.8 129.22 310.72 128.12 311.32 126.86 311.2 125.85 
M 312.03 140.2 312.74 139.76 313.66 138.64 314.25 137.37 314.25 136.58 313.66 135.31 312.74 134.18 312.03 133.74 
M 314.42 150.5 315.14 150.07 316.07 148.96 316.67 147.71 316.67 146.93 316.07 145.68 315.14 144.57 314.42 144.14 
M 316.51 160.89 317.25 160.46 318.2 159.35 318.8 158.09 318.8 157.32 318.2 156.06 317.25 154.95 316.51 154.51 
M 318.45 171.22 319.18 170.81 320.1 169.76 320.7 168.57 320.7 167.83 320.1 166.63 319.18 165.58 318.45 165.17 
M 320.42 166.43 321.03 166 321.82 164.89 322.33 163.64 322.33 162.87 321.82 161.61 321.03 160.51 320.42 160.07 
M 321.49 183.88 322.02 183.58 322.69 182.81 323.13 181.93 323.13 181.39 322.69 180.51 322.02 179.74 321.49 179.44 
M 319.87 186.4 319.03 185.71 
M 317.52 140.53 318.22 140.09 319.12 138.97 319.71 137.69 319.71 136.9 319.12 135.63 318.22 134.5 317.52 134.06 
M 319.96 150.91 320.68 150.47 321.59 149.36 322.18 148.09 322.18 147.31 321.59 146.05 320.68 144.93 319.96 144.5 
M 323.94 171.46 324.65 171.06 325.55 170.04 326.14 168.88 326.14 168.16 325.55 167 324.65 165.97 323.94 165.58 
M 324.3 179.99 324.96 179.66 325.82 178.8 326.36 177.84 326.36 177.24 325.82 176.27 324.96 175.42 324.3 175.08 
M 321.59 145.89 322.17 145.45 322.91 144.33 323.39 143.06 323.39 142.28 322.91 141.01 322.17 139.89 321.59 139.45 
M 323.84 156.28 324.43 155.85 325.19 154.73 325.68 153.46 325.68 152.68 325.19 151.41 324.43 150.29 323.84 149.85 
M 325.97 166.77 326.56 166.35 327.32 165.26 327.81 164.02 327.81 163.26 327.32 162.03 326.56 160.94 325.97 160.51 
M 327.33 176.31 327.89 175.95 328.62 175.02 329.09 173.96 329.09 173.31 328.62 172.26 327.89 171.33 327.33 170.96 
M 326.34 183.46 326.87 183.16 327.56 182.42 328 181.58 328 181.06 327.56 180.21 326.87 179.47 326.34 179.18 
M 319.89 130.11 320.56 129.68 321.41 128.58 321.97 127.33 321.97 126.56 321.71 125.97 
M 327.57 161.61 328.27 161.18 329.17 160.07 329.75 158.82 329.75 158.05 329.17 156.8 328.27 155.69 327.57 155.26 
M 324.03 135.44 324.57 134.99 325.25 133.85 325.69 132.56 325.69 131.76 325.25 130.47 324.57 129.33 324.03 128.89 
M 326.79 145.94 327.33 145.5 328.02 144.37 328.46 143.09 328.46 142.3 328.02 141.02 327.33 139.89 326.79 139.44 
M 331.32 183.21 331.86 182.92 332.56 182.19 333.01 181.36 333.01 180.85 332.56 180.02 331.86 179.29 331.32 179.01 
M 327.75 140.45 328.38 140 329.18 138.86 329.7 137.57 329.7 136.77 329.18 135.48 328.38 134.34 327.75 133.9 
M 332.87 161.78 333.57 161.35 334.45 160.23 335.02 158.96 335.02 158.18 334.45 156.91 333.57 155.79 332.87 155.35 
M 334.48 179.7 335.14 179.38 336 178.56 336.55 177.64 336.55 177.07 336 176.14 335.14 175.32 334.48 175 
M 334.55 183.68 334.05 182.94 333.18 182.2 332.51 181.91 
M 328.71 134.88 329.21 134.44 329.86 133.31 330.28 132.03 330.28 131.24 329.86 129.97 329.21 128.84 328.71 128.4 
M 331.49 145.53 331.99 145.07 332.64 143.91 333.06 142.6 333.06 141.79 332.64 140.47 331.99 139.31 331.49 138.86 
M 329.6 129.36 330.23 128.94 331.05 127.87 331.57 126.49 
M 332.36 139.87 332.98 139.43 333.77 138.28 334.27 136.98 334.27 136.18 333.77 134.88 332.98 133.73 332.36 133.29 
M 335.29 150.91 335.94 150.45 336.76 149.26 337.3 147.9 337.3 147.07 336.76 145.72 335.94 144.52 335.29 144.06 
M 333.26 134.15 333.78 133.72 334.45 132.62 334.88 131.37 334.88 130.6 334.45 129.35 333.78 128.25 333.26 127.82 
M 336 144.95 336.52 144.48 337.19 143.28 337.61 141.93 337.61 141.09 337.19 139.73 336.52 138.53 336 138.06 
M 339.4 156.66 339.97 156.17 340.7 154.93 341.17 153.53 341.17 152.66 340.7 151.26 339.97 150.02 339.4 149.53 
M 342.81 176.08 343.36 175.74 344.06 174.87 344.52 173.89 344.52 173.28 344.06 172.3 343.36 171.43 342.81 171.09 
M 334.52 129.01 335.2 128.6 336.07 127.56 336.41 126.85 
M 343.53 162.24 344.25 161.79 345.16 160.62 345.74 159.29 345.74 158.47 345.16 157.15 344.25 155.98 343.53 155.53 
M 338.24 133.89 338.83 133.46 339.59 132.38 340.08 131.16 340.08 130.4 339.59 129.17 338.83 128.09 338.24 127.67 
M 340.95 144.78 341.54 144.3 342.29 143.08 342.78 141.69 342.78 140.83 342.29 139.44 341.54 138.22 340.95 137.74 
M 344.78 156.97 345.39 156.47 346.17 155.2 346.68 153.75 346.68 152.86 346.17 151.42 345.39 150.14 344.78 149.64 
M 347.72 167.8 348.31 167.38 349.07 166.31 349.55 165.1 349.55 164.35 349.07 163.14 348.31 162.07 347.72 161.65 
M 347.82 175.84 348.37 175.51 349.06 174.67 349.51 173.71 349.51 173.12 349.06 172.16 348.37 171.32 347.82 170.99 
M 340 129.31 340.76 128.9 341.74 127.86 342.03 127.34 
M 349.67 179.32 350.33 179.01 351.16 178.2 351.7 177.28 351.7 176.72 351.16 175.8 350.33 174.99 349.67 174.68 
M 344.11 134.61 344.8 134.19 345.69 133.1 346.26 131.88 346.26 131.12 345.69 129.89 344.8 128.81 344.11 128.38 
M 346.81 145.48 347.5 145 348.39 143.78 348.97 142.4 348.97 141.54 348.39 140.16 347.5 138.94 346.81 138.46 
M 353.11 167.88 353.69 167.48 354.44 166.46 354.92 165.31 354.92 164.59 354.44 163.44 353.69 162.42 353.11 162.02 
M 346.15 130.4 346.99 129.98 348.07 128.91 348.59 128.01 
M 348.79 140.82 349.67 140.37 350.78 139.22 351.51 137.92 351.51 137.11 350.78 135.81 349.67 134.66 348.79 134.21 
M 351.9 152.05 352.73 151.59 353.8 150.38 354.49 149.02 354.49 148.18 353.8 146.82 352.73 145.62 351.9 145.15 
M 354.7 162.87 355.44 162.44 356.4 161.35 357.01 160.11 357.01 159.35 356.4 158.11 355.44 157.02 354.7 156.59 
M 355.5 171.62 356.17 171.26 357.02 170.37 357.57 169.35 357.57 168.72 357.02 167.7 356.17 166.81 355.5 166.46 
M 350.77 136.24 351.53 135.81 352.51 134.7 353.14 133.44 353.14 132.65 352.51 131.39 351.53 130.28 350.77 129.85 
M 353.49 146.94 354.25 146.48 355.23 145.3 355.86 143.96 355.86 143.13 355.23 141.79 354.25 140.6 353.49 140.14 
M 358.41 167.8 358.98 167.43 359.71 166.48 360.18 165.41 360.18 164.74 359.71 163.67 358.98 162.72 358.41 162.35 
M 352.68 131.97 353.55 131.53 354.66 130.41 355.38 129.13 355.38 128.75 
M 355.59 142.49 356.5 142.05 357.67 140.9 358.42 139.6 358.42 138.8 357.67 137.51 356.5 136.36 355.59 135.91 
M 360.36 163.12 361.09 162.73 362.03 161.72 362.63 160.59 362.63 159.88 362.03 158.74 361.09 157.73 360.36 157.34 
M 359.43 178.63 360.06 178.33 360.86 177.54 361.38 176.65 361.38 176.1 360.86 175.21 360.06 174.43 359.43 174.12 
M 360.39 148.58 361.15 148.14 362.11 147.01 362.73 145.74 362.73 144.95 362.11 143.67 361.15 142.54 360.39 142.11 
M 362.76 158.86 363.41 158.46 364.24 157.41 364.77 156.23 364.77 155.5 364.24 154.31 363.41 153.27 362.76 152.86 
M 363.57 167.57 364.12 167.23 364.83 166.36 365.29 165.36 365.29 164.75 364.83 163.76 364.12 162.88 363.57 162.54 
M 359.18 133.53 360.02 133.07 361.1 131.88 361.79 130.54 361.72 129.56 
M 362.36 144.12 363.23 143.67 364.35 142.54 365.07 141.26 365.07 140.46 364.35 139.18 363.23 138.05 362.36 137.61 
M 365.51 171 366.16 170.68 366.98 169.87 367.52 168.95 367.52 168.38 366.98 167.46 366.16 166.65 365.51 166.34 
M 366.92 149.81 367.61 149.4 368.49 148.33 369.05 147.13 369.05 146.38 368.49 145.17 367.61 144.11 366.92 143.69 
M 368.49 159.18 369.1 158.8 369.87 157.85 370.37 156.77 370.37 156.1 369.87 155.02 369.1 154.07 368.49 153.69 
M 371.15 163.19 371.83 162.85 372.71 161.98 373.28 160.99 373.28 160.38 372.71 159.39 371.83 158.52 371.15 158.18 
M 368.96 177.68 369.61 177.38 370.43 176.63 370.97 175.78 370.97 175.25 370.43 174.4 369.61 173.65 368.96 173.35 
M 370.45 140.81 371.08 140.34 371.87 139.15 372.39 137.79 372.39 136.96 371.87 135.61 371.08 134.41 370.45 133.95 
M 370.93 135.16 371.63 134.67 372.53 133.43 373.11 132.01 373.11 131.24 
M 375.95 154.85 376.64 154.47 377.52 153.51 378.09 152.42 378.09 151.75 377.52 150.66 376.64 149.7 375.95 149.33 
M 375.56 170.59 376.24 170.28 377.12 169.5 377.69 168.62 377.69 168.07 377.12 167.19 376.24 166.41 375.56 166.11 
M 375.78 140.96 376.34 140.49 377.06 139.3 377.52 137.95 377.52 137.11 377.06 135.76 376.34 134.56 375.78 134.1 
M 378.07 150.49 378.63 150.09 379.35 149.08 379.81 147.93 379.81 147.22 379.35 146.07 378.63 145.05 378.07 144.66 
M 379.06 159.25 379.62 158.89 380.34 157.99 380.8 156.97 380.8 156.34 380.34 155.32 379.62 154.42 379.06 154.07 
M 377.51 174.14 378.11 173.84 378.88 173.09 379.38 172.23 379.38 171.71 378.88 170.85 378.11 170.1 377.51 169.8 
M 376.06 135.13 376.71 134.64 377.54 133.39 378.03 132.09 
M 381.56 163.23 382.24 162.89 383.11 162.03 383.67 161.05 383.67 160.44 383.11 159.46 382.24 158.59 381.56 158.25 
M 380.97 170.87 381.69 170.56 382.61 169.77 383.21 168.87 383.21 168.31 382.61 167.41 381.69 166.62 380.97 166.31 
M 380.79 140.83 381.33 140.36 382.01 139.15 382.45 137.78 382.45 136.94 382.01 135.57 381.33 134.36 380.79 133.89 
M 384.22 167.41 384.8 167.08 385.54 166.24 386.02 165.29 386.02 164.69 385.54 163.74 384.8 162.9 384.22 162.57 
M 383.34 174.88 383.98 174.57 384.8 173.8 385.34 172.92 385.34 172.38 384.8 171.5 383.98 170.73 383.34 170.42 
M 380.87 134.8 381.49 134.3 382.29 133.01 
M 384.39 145.46 385.02 145.02 385.84 143.9 386.36 142.63 386.36 141.85 385.84 140.58 385.02 139.46 384.39 139.02 
M 386.72 163.31 387.38 162.96 388.22 162.06 388.77 161.04 388.77 160.41 388.22 159.4 387.38 158.5 386.72 158.15 
M 386.57 171.42 387.28 171.1 388.2 170.27 388.79 169.32 388.79 168.74 388.2 167.79 387.28 166.96 386.57 166.64 
M 385.58 140.48 386.09 140 386.75 138.78 387.17 137.38 387.17 136.52 386.75 135.13 385.99 133.81 
M 388.05 150.14 388.57 149.74 389.25 148.71 389.68 147.55 389.68 146.83 389.25 145.66 388.57 144.63 388.05 144.23 
M 385.44 134.21 385.94 133.79 
M 389.12 145.04 389.73 144.59 390.51 143.46 391.01 142.17 391.01 141.38 390.51 140.09 389.73 138.95 389.12 138.51 
M 391.62 163.1 392.25 162.74 393.04 161.81 393.56 160.76 393.56 160.11 393.04 159.06 392.25 158.13 391.62 157.77 
M 391.91 171.74 392.58 171.4 393.44 170.51 393.99 169.51 393.99 168.89 393.44 167.89 392.58 167 391.91 166.66 
M 392.74 149.65 393.24 149.24 393.88 148.21 394.29 147.04 394.29 146.31 393.88 145.14 393.24 144.1 392.74 143.7 
M 393.71 158.45 394.21 158.08 394.85 157.14 395.26 156.07 395.26 155.41 394.85 154.34 394.21 153.4 393.71 153.03 
M 393.6 144.34 394.18 143.89 394.92 142.74 395.4 141.45 395.4 140.64 394.92 139.35 394.18 138.2 393.6 137.75 
M 396.19 162.52 396.78 162.15 397.54 161.21 398.02 160.13 398.02 159.47 397.54 158.4 396.78 157.45 396.19 157.08 
M 396.8 171.59 397.42 171.22 398.22 170.29 398.73 169.23 398.73 168.57 398.22 167.51 397.42 166.57 396.8 166.21 
M 398.69 166.66 399.18 166.29 399.8 165.32 400.2 164.22 400.2 163.55 399.8 162.45 399.18 161.48 398.69 161.11 
M 401.21 173.37 400.78 171.98 400.11 171.02 399.59 170.65 
M 399.67 152.69 400.22 152.3 400.93 151.3 401.39 150.17 401.39 149.47 400.93 148.34 400.22 147.34 399.67 146.95 
M 402.25 156.6 402.7 156.22 403.28 155.26 403.66 154.17 403.66 153.5 403.28 152.41 402.7 151.45 402.25 151.08 
M 402.99 165.84 403.46 165.45 404.06 164.45 404.45 163.32 404.45 162.62 404.06 161.48 403.46 160.48 402.99 160.09 
M 401.73 141.9 402.39 141.27 
M 404.59 160.62 405.14 160.23 405.84 159.23 406.29 158.11 406.29 157.41 405.84 156.28 405.14 155.28 404.59 154.9 
M 409.23 169.53 408.69 169 
M 407.27 149.86 407.8 149.46 408.48 148.45 408.92 147.1 
M 408.5 159.38 409.23 158.7 
M 409.23 154.17 408.5 153.49 
M 190.82 121.53 249.46 56.76 250.17 57.38 194.15 122.85 
M 204.82 122.96 250.09 67.39 250.83 67.97 208.16 124.17 
M 218.84 124.03 251.82 77.12 252.6 77.64 222.2 125.08 
M 232.9 124.54 255.96 86.62 256.78 87.09 236.28 125.4 
M 247 124.68 263.36 96.27 264.19 96.71 250.35 125.54 
M 261.1 125.34 272.16 105.68 273 106.1 264.42 126.19 
M 275.17 125.95 281.47 113.79 282.34 114.14 278.49 126.64 
M 289.25 125.89 292.32 120.43 293.22 120.72 292.54 126.36 
M 309.88 125.4 311.52 125.84 
M 244.49 64.02 243.52 66.15 243.12 68.21 243.24 69.2 243.59 70.17 244.12 71.11 245.56 72.94 
M 246.5 73.68 245.77 75.78 245.6 77.74 245.82 78.64 246.26 79.49 246.9 80.29 248.52 81.81 
M 249.51 82.47 249.36 84.79 249.44 85.87 249.71 86.86 250.17 87.74 251.66 89.21 253.66 90.41 
M 254.69 91 255.34 93.6 256.41 95.82 257.19 96.72 258.14 97.48 259.24 98.1 261.72 99.11 
M 262.77 99.66 263.77 102.31 265.16 104.55 266.08 105.43 267.16 106.16 268.37 106.74 271.05 107.65 
M 272.12 108.17 273.31 110.64 274.85 112.67 275.82 113.43 276.93 114.01 278.16 114.44 280.84 115 
M 281.94 115.45 283.6 117.74 285.53 119.53 286.64 120.15 287.87 120.56 289.19 120.81 292.01 120.97 
M 293.14 121.34 296.81 123.48 298.69 124.38 300.62 125.08 302.59 125.56 306.7 125.9 310.95 125.69 
M 243.97 65.09 243.23 67.19 243.12 68.21 243.24 69.2 243.59 70.17 244.81 72.03 
M 239.48 70.91 238.82 72.8 238.72 73.72 238.83 74.61 239.14 75.48 240.24 77.16 
M 235 76.74 234.41 78.42 234.42 80.03 234.69 80.8 235.67 82.29 
M 230.51 82.56 230 84.03 229.92 84.74 230.25 86.11 231.1 87.42 
M 226.03 88.38 225.59 89.65 225.52 90.26 225.8 91.43 226.53 92.55 
M 221.55 94.21 221.12 95.77 221.35 96.75 221.96 97.68 
M 217.06 100.03 216.72 101.28 216.91 102.06 217.4 102.81 
M 246.1 74.74 245.59 76.78 245.6 77.74 245.82 78.64 246.26 79.49 247.67 81.06 
M 242.26 80.54 241.81 82.35 242.02 83.99 242.41 84.74 243.65 86.13 
M 238.42 86.35 238.03 87.91 238.21 89.34 238.55 89.99 239.63 91.19 
M 234.58 92.15 234.25 93.48 234.41 94.69 234.69 95.24 235.61 96.26 
M 230.75 97.96 230.48 99.56 230.84 100.49 231.59 101.33 
M 226.91 103.76 226.7 105.01 226.98 105.74 227.56 106.39 
M 249.4 83.65 249.44 85.87 249.71 86.86 250.17 87.74 250.83 88.52 252.62 89.83 
M 245.53 90.92 245.57 92.75 245.79 93.56 246.71 94.94 248.19 96.01 
M 241.67 98.18 241.7 99.63 242.17 100.84 242.6 101.35 243.77 102.2 
M 237.8 105.45 237.82 106.51 238.17 107.4 239.34 108.39 
M 254.98 92.33 255.8 94.77 256.41 95.82 257.19 96.72 258.14 97.48 260.45 98.63 
M 251.82 100.05 252.45 101.93 252.92 102.73 254.25 104 256.02 104.88 
M 248.66 107.77 249.42 109.64 250.35 110.52 251.58 111.13 
M 263.24 101.01 264.4 103.5 265.16 104.55 266.08 105.43 267.16 106.16 269.69 107.22 
M 260.55 109.68 261.31 111.3 261.8 111.98 263.1 113.03 264.74 113.72 
M 272.69 109.44 274.02 111.73 274.85 112.67 275.82 113.43 276.93 114.01 279.48 114.75 
M 137.43 144.32 309.09 146.41 309.09 147.35 138.49 147.63 
M 138.82 148.35 294.93 155.55 294.9 156.49 140.72 151.69 
M 141.19 152.55 280.63 163.75 280.56 164.69 143.01 155.91 
M 143.63 156.92 266.23 171 266.13 171.94 145.62 160.3 
M 145.79 161.43 251.77 177.31 251.64 178.24 146.16 164.61 
M 145.86 165.71 237.32 182.67 237.16 183.59 145.05 168.68 
M 144.85 169.76 222.9 187.08 222.71 188.01 144.35 172.76 
M 144.33 173.88 208.58 190.56 208.35 191.48 144.72 177.04 
M 144.87 178.3 194.39 193.11 194.13 194.02 145.24 181.37 
M 145.15 182.7 180.38 194.74 180.1 195.64 144.68 185.4 
M 144.46 186.83 166.6 195.46 166.29 196.35 144.15 189.37 
M 143.92 191.13 153.09 195.28 152.75 196.16 143.62 193.15 
M 291.33 147.38 287.89 147.98 284.74 149.07 283.33 149.9 282.02 150.91 280.82 152.1 278.6 154.8 
M 278.56 155.98 275.15 156.36 272.01 157.25 270.59 157.98 269.26 158.91 268.03 160.01 265.73 162.55 
M 265.65 163.74 262.3 163.9 259.17 164.58 257.74 165.22 256.41 166.06 255.15 167.08 252.78 169.46 
M 252.65 170.64 249.36 170.59 247.78 170.74 246.27 171.07 244.84 171.61 242.21 173.29 239.78 175.51 
M 239.61 176.68 236.4 176.42 233.35 176.7 231.92 177.15 230.56 177.81 229.26 178.66 226.77 180.71 
M 226.57 181.88 223.44 181.41 220.44 181.5 219.03 181.85 217.66 182.42 216.35 183.18 213.8 185.06 
M 213.56 186.23 210.53 185.56 209.05 185.4 207.6 185.45 206.2 185.71 203.5 186.86 200.91 188.57 
M 200.63 189.73 197.71 188.86 196.28 188.61 194.86 188.56 193.47 188.73 190.78 189.71 188.15 191.25 
M 187.83 192.39 185.03 191.34 182.27 190.85 180.9 190.93 179.55 191.23 178.21 191.72 175.55 193.09 
M 175.19 194.22 172.53 192.99 171.19 192.55 169.86 192.32 168.52 192.31 165.84 192.93 163.15 194.11 
M 162.76 195.23 160.24 193.83 157.67 192.98 156.37 192.88 155.04 193.01 153.7 193.32 151 194.33 
M 150.57 195.44 148.26 193.76 147.07 193.1 145.84 192.63 143.74 192.37 
M 289.59 147.65 286.27 148.44 284.74 149.07 283.33 149.9 282.02 150.91 279.69 153.42 
M 267.47 147.67 264.61 148.36 263.3 148.9 260.96 150.48 258.95 152.63 
M 245.34 147.7 242.95 148.27 241.85 148.72 239.89 150.05 238.21 151.85 
M 223.22 147.72 221.29 148.18 220.4 148.55 218.83 149.62 217.47 151.07 
M 201.09 147.75 198.96 148.37 197.76 149.18 196.74 150.28 
M 276.84 156.14 273.54 156.72 272.01 157.25 270.59 157.98 269.26 158.91 266.87 161.25 
M 251.41 155.34 248.69 155.82 247.43 156.26 245.17 157.63 243.19 159.56 
M 225.99 154.55 223.84 154.93 222.85 155.27 221.07 156.35 219.51 157.87 
M 200.56 153.75 198.27 154.28 196.97 155.07 195.83 156.18 
M 263.96 163.78 260.7 164.15 259.17 164.58 257.74 165.22 256.41 166.06 253.95 168.23 
M 240.79 162.31 238.1 162.61 236.84 162.97 234.56 164.19 232.53 165.98 
M 217.62 160.83 215.5 161.07 213.58 161.77 212.71 162.31 211.11 163.73 
M 194.45 159.36 192.17 159.74 190.86 160.44 189.69 161.47 
M 250.99 170.58 247.78 170.74 246.27 171.07 244.84 171.61 243.49 172.36 240.98 174.37 
M 223.13 167.9 220.66 168.03 218.41 168.7 217.37 169.27 215.45 170.81 
M 195.26 165.23 193.54 165.32 191.98 165.78 189.91 167.25 
M 237.99 176.52 234.84 176.47 233.35 176.7 231.92 177.15 230.56 177.81 228 179.65 
M 213.16 173.34 210.74 173.3 208.5 173.82 207.46 174.33 205.5 175.74 
M 188.32 170.16 185.85 170.26 184.36 170.85 182.99 171.83 
M 224.99 181.61 221.92 181.36 220.44 181.5 219.03 181.85 217.66 182.42 215.06 184.09 
M 192.29 176.38 190.29 176.22 189.33 176.3 187.52 176.9 185.84 177.99 
M 212.04 185.85 209.05 185.4 207.6 185.45 206.2 185.71 204.83 186.19 202.2 187.68 
M 183.87 180.46 181.92 180.16 180.99 180.19 179.19 180.67 177.48 181.64 
M 199.17 189.26 196.28 188.61 194.86 188.56 193.47 188.73 192.11 189.12 189.46 190.44 
M 175.5 183.99 173.62 183.57 171.8 183.64 170.92 183.9 169.19 184.75 
M 186.43 191.82 183.64 190.99 182.27 190.85 180.9 190.93 179.55 191.23 176.88 192.37 
M 173.86 193.57 171.19 192.55 169.86 192.32 168.52 192.31 167.18 192.52 164.49 193.48 
M 204.08 205.07 211.71 213.59 211.08 214.29 201.81 207.59 
M 190.11 205.74 222.7 244.84 221.99 245.46 187.55 207.98 
M 176.12 206.34 204.99 252.52 204.21 253.04 173.29 208.2 
M 161.05 206.4 164.86 217.17 164.01 217.58 157.99 207.87 
M 210.15 213.62 211.07 220.08 212.52 226.35 213.56 229.39 214.8 232.35 216.23 235.25 219.44 240.93 
M 218.55 241.71 214.47 241.95 210.59 242.72 208.76 243.41 207.01 244.31 205.33 245.39 202.11 247.9 
M 201.11 248.55 193.78 240.43 186.06 232.74 181.99 229.13 177.77 225.69 173.43 222.4 164.48 216.1 
M 210.57 216.86 211.7 223.25 212.52 226.35 213.56 229.39 214.8 232.35 217.8 238.1 
M 216.49 241.79 212.49 242.25 210.59 242.72 208.76 243.41 207.01 244.31 203.71 246.61 
M 211.63 236.93 208.19 237.32 206.55 237.73 203.48 239.1 200.63 241.07 
M 206.77 232.07 203.89 232.4 202.52 232.74 199.94 233.88 197.56 235.54 
M 201.91 227.21 199.59 227.47 198.48 227.75 196.41 228.67 194.49 230 
M 197.05 222.35 194.45 222.76 192.88 223.45 191.42 224.47 
M 197.47 244.46 189.99 236.51 186.06 232.74 181.99 229.13 177.77 225.69 168.98 219.22 
M 388.94 177 394.2 187.4 393.41 187.91 386.09 178.84 
M 374.95 178.96 380.41 189.77 379.62 190.28 372.1 180.78 
M 360.97 181 367.31 192.92 366.52 193.43 358.13 182.86 
M 347.04 183.47 354.91 197.18 354.13 197.71 344.24 185.38 
M 333.2 186.29 342.87 202.69 342.09 203.22 330.39 188.19 
M 319.35 189.01 330.91 209.14 330.12 209.65 316.5 190.85 
M 305.45 191.46 319.27 216.15 318.47 216.65 302.56 193.24 
M 291.52 193.8 308.55 223.6 307.75 224.1 288.63 195.59 
M 277.63 196.47 298.94 231.82 298.15 232.33 274.78 198.31 
M 263.84 199.53 289.39 241.52 288.59 242.03 260.98 201.36 
M 247.82 202.92 277.44 252.73 276.64 253.23 244.94 204.71 
M 392.68 187 389.67 186.18 386.74 185.91 385.32 186.1 383.92 186.51 382.55 187.12 379.87 188.69 
M 378.87 189.33 375.92 188.67 373.09 188.57 371.73 188.84 370.42 189.33 369.15 190 366.67 191.72 
M 365.68 192.37 362.77 191.98 360.01 192.12 358.73 192.51 357.51 193.1 356.35 193.89 354.12 195.81 
M 353.14 196.48 350.19 196.37 347.45 196.79 346.2 197.3 345.04 198.02 343.95 198.92 341.9 201.05 
M 340.92 201.72 337.91 201.83 335.15 202.45 333.91 203.05 332.77 203.85 331.71 204.83 329.76 207.12 
M 328.76 207.77 325.77 208.02 323.04 208.77 321.83 209.43 320.73 210.28 319.73 211.31 317.89 213.68 
M 316.88 214.31 314.01 214.69 312.67 215.03 311.43 215.54 310.32 216.25 308.43 218.19 306.85 220.62 
M 305.84 221.25 303.09 221.86 300.69 222.91 299.68 223.69 298.82 224.65 298.07 225.76 296.81 228.28 
M 295.81 228.93 292.99 229.91 290.55 231.3 289.56 232.23 288.71 233.33 288 234.57 286.83 237.32 
M 285.83 237.96 282.52 239.22 279.57 240.91 278.31 241.99 277.2 243.25 276.21 244.66 274.48 247.75 
M 391.17 186.55 388.19 185.95 386.74 185.91 385.32 186.1 383.92 186.51 381.21 187.87 
M 377.39 188.96 374.49 188.53 373.09 188.57 371.73 188.84 370.42 189.33 367.9 190.83 
M 364.21 192.14 361.36 191.96 360.01 192.12 358.73 192.51 357.51 193.1 355.22 194.81 
M 351.65 196.39 348.78 196.49 347.45 196.79 346.2 197.3 345.04 198.02 342.91 199.95 
M 339.4 201.74 336.49 202.05 335.15 202.45 333.91 203.05 332.77 203.85 330.72 205.94 
M 334.31 197.14 332.42 197.34 331.55 197.6 330 198.51 328.67 199.87 
M 327.24 207.86 324.36 208.31 323.04 208.77 321.83 209.43 320.73 210.28 318.79 212.46 
M 321.55 202.01 319.67 202.3 318.82 202.6 317.32 203.58 316.05 205 
M 315.42 214.46 312.67 215.03 311.43 215.54 310.32 216.25 309.32 217.14 307.62 219.37 
M 311.13 209.58 309.02 210.01 307.22 210.94 306.46 211.63 305.15 213.34 
M 306.84 204.69 304.72 205.27 303.59 206.12 302.68 207.31 
M 304.44 221.52 301.83 222.31 300.69 222.91 299.68 223.69 298.82 224.65 297.42 226.99 
M 299.47 215.58 297.47 216.18 296.59 216.64 295.16 217.98 294.09 219.77 
M 294.5 209.63 293.11 210.05 291.96 210.79 290.75 212.55 
M 294.37 229.39 291.7 230.53 290.55 231.3 289.56 232.23 288.71 233.33 287.39 235.92 
M 289.99 224.05 287.78 225 286.84 225.63 285.31 227.31 284.22 229.44 
M 285.6 218.72 283.87 219.47 282.47 220.57 281.92 221.28 281.06 222.97 
M 281.21 213.39 279.4 214.3 278.52 215.26 277.9 216.49 
M 284.15 238.56 280.98 239.99 279.57 240.91 278.31 241.99 277.2 243.25 275.32 246.17 
M 279.98 233.46 277.26 234.69 276.05 235.48 274 237.49 272.39 240.01 
M 275.82 228.36 273.54 229.39 272.52 230.05 270.81 231.74 269.46 233.84 
M 271.65 223.26 269.81 224.09 269 224.62 267.62 225.98 266.53 227.68 
M 267.49 218.16 265.47 219.19 264.43 220.22 263.6 221.51 
M 409.23 147.38 411.76 145.52 415.33 140.77 417.62 138.12 422.22 134.67 425.68 130.26 427.75 128.85 432.48 124.52 434.62 122.36 439.2 119.57 441.55 118.6 445.22 114.44 449.09 110.94 456.39 108.95 461.89 108.27 465.59 107.27 468.25 107.08 472.7 106.12 475.04 104.59 477.26 104.71 478.96 103.28 480.83 102.78 483.93 102.68 487.09 106.82 486.36 108.98 486.21 111.73 486.27 114.68 487.09 118.45 486.66 121.65 485.27 123.86 483.74 125.76 484.14 129.59 482.56 134.85 480.31 136.59 476.79 137.05 473.86 138.09 472.05 140.25 470.02 142.19 468.27 144.4 467.23 147.3 465.41 149.44 463.12 151.07 460.62 152.45 457.67 153.38 452.75 156.17 449.6 156.7 447.76 158.55 445.56 160.03 442.9 161.06 440.49 162.26 437.64 163.01 434.61 163.57 437.45 165.44 442.62 166.9 445.27 167.89 448.23 169.4 452.44 170.69 454.91 171.7 458 173.32 465.97 179.63 473.02 186.43 481.48 195.15 487.62 203.63 489.24 207.03 490 211.37 489.47 213.9 489.2 220.51 488.19 226.78 483.42 225.83 478.11 223.27 474.74 223.79 471.06 222.58 468.26 221.46 466.04 219.96 463.32 218.72 460.57 218.64 458.02 217.76 451.01 213.89 448.64 213.13 446.71 211.31 444.62 208.84 441.42 206.93 439.31 205.36 434.98 203.17 432.75 201.36 430.54 199.08 425.39 194.39 423.47 191.66 421.09 189.07 418.36 183.91 416.55 181.09 411.85 175.61 409.23 172.16 
M 412.13 147.05 414.12 144.58 416.3 142.45 425.81 135.49 427.91 132.89 429.96 131.09 432.02 130.18 434.44 128.55 439.38 124.25 440.9 123.11 443.42 121.69 445.45 119.91 448.45 118.48 450.7 118.43 452.67 116.94 455.34 115.44 461.98 114.37 
M 412.38 148.71 416.94 144.43 419.54 142.67 422.41 141.33 427.16 138.48 431.48 134.76 434.26 133.59 439.47 130.48 440.8 128.45 443.5 126.89 446.7 125.49 448.87 124.08 451.02 123.2 453.07 122.45 458.18 121.32 460.6 120.5 
M 415.25 148.64 420.19 145.07 422.54 143.67 428.62 140.72 431.25 139.74 435.55 136.94 438.75 135.62 441.15 134.96 443.41 133.24 445.69 131.77 449.34 131.03 
M 415.75 150.5 420.69 147.39 422.83 146.25 425.6 145.09 432.09 142.52 437.49 141.03 439.77 139.92 443.01 139.01 446.19 138.39 448.92 137.21 451.67 135.73 453.91 133.78 456.42 133.46 458.31 134.73 460.69 134.59 463.07 135.06 465.89 134.99 468.94 134.15 472.83 135.09 475.92 135.27 
M 409.23 154.11 413.01 153.3 418.49 151.04 421.02 149.83 429.58 147.46 432.65 146.43 440.58 145.09 443.13 145.09 446.79 144.48 450.54 142.88 453 141.3 455.91 139.81 458.81 139.73 460.52 140.54 
M 416.02 154.13 421.82 152.35 424.38 152.12 427.07 151.41 430.74 150.79 433.42 150.58 436.98 150.73 
M 413.46 156.83 416.7 156.59 419.92 155.67 423.04 155.28 426.24 155.3 429.09 154.88 432.2 154.73 434.46 155.31 437.32 154.71 439.47 155.35 442.2 154.77 445.41 155.29 
M 420.43 158.9 424.09 158.47 427.98 158.55 431.29 158.73 432.97 159.54 
M 417.87 164.46 421.01 165.21 423.89 164.94 431.51 165.12 434.03 166.79 
M 413.59 164.36 416.86 165.82 420.16 166.83 423.9 167.37 426.72 168.23 432.9 170.89 437.66 171.66 
M 413.38 165.83 419.4 168.71 423.04 169.76 425.85 171.55 428.87 172.65 431.45 173.1 433.82 174.13 436.24 174.6 
M 409.23 164.88 413.12 167.39 415.8 169.4 418.96 171.05 422.27 172.06 424.7 174.4 432.68 177.8 435.22 178.41 438.23 179.6 441.38 179.95 
M 415.64 171.16 418.37 172.98 421.64 174.18 423.92 176.5 426.39 178.17 428.6 179.91 431.28 181.62 434.5 182.05 437.18 183.25 439.43 184.6 441.77 185.64 451.2 188.57 454.78 189.14 457.28 190.44 460.61 193.18 466.94 193.88 469.11 194.84 476.51 195.1 
M 409.23 167.57 415.36 172.78 420.85 176.55 427.29 182.55 429.68 184.09 435.42 186.63 439.7 189.78 441.49 189.92 447.99 192.7 450.95 195.59 454.32 196.87 456.4 198.59 458.78 199.67 461.77 199.5 464.24 201 466.67 201.65 
M 409.23 168.92 414.97 174.3 417.61 176.44 419.94 178.92 421.81 181.3 423.6 183 425.69 185.34 434.33 190.79 438.37 193.79 440.64 194.47 443.02 195.86 445.01 198.65 
M 409.23 170.26 412.16 173.49 417.08 178.35 419.25 181.15 420.92 183.64 422.28 186.19 424.65 188.03 427.16 190.43 432.68 194.75 435.01 197.25 437.07 199.08 439.25 199.72 441.15 200.55 443.58 202.36 446.72 205.12 448.26 207.16 451.46 208.89 455.12 210 457.79 210.43 463.48 213.18 465.69 213.5 473.71 215.95 477.45 216.91 479.88 217.18 
M 344.09 127.52 348.92 130.43 361.17 109.88 363.19 108.92 365.75 108.49 368.44 107.38 371.31 106.41 374.57 107.09 377.4 107.34 380.83 108.18 383.11 110.3 382.17 112.13 382.48 115.21 383.36 120.65 378.7 135.88 376.66 131.79 
M 348.77 128.03 351.28 126.37 353.31 124.12 355.87 119.27 
M 353.45 128.53 355.77 127.13 358.41 124.95 360.2 122.42 360.74 120.1 362.03 117.59 363.03 114.9 364.26 113.13 
M 358.13 129.1 360.61 128.01 363.03 125.39 364.52 122.75 365.51 121.61 
M 362.8 129.7 364.69 128.21 366.68 125.9 370.92 119.72 
M 367.47 130.35 369.53 129.31 371.09 126.86 373.04 124.85 374.3 123.01 375.25 120.39 377.24 118.01 379.05 115.16 380.66 113.09 381.17 110.73 
M 372.12 131.08 373.98 130.22 375.62 128.25 378.04 124 380.19 121.84 
M 50.6 147.54 65.12 140.76 76.6 137.47 82.59 135.23 88.78 133.14 100.78 130.25 117.47 126.5 125.14 124.32 126.97 123.56 130.59 127.31 132.92 131.34 135.58 139.68 137.26 143.8 138.6 147.97 143.09 156.06 145.58 160.07 146.23 164.33 145 168.84 144.26 173.29 145.3 181.84 144.52 186.29 143.32 195.14 142.01 199.67 137.9 204.58 125.77 204.45 117.06 203.77 109.39 202.65 102.13 201.16 95.31 199.14 88.66 196.6 82.03 193.27 76.18 189.19 70.61 184.71 65.07 179.94 60.33 174.27 
M 60.05 173.88 56.49 168.92 53.51 164.28 51.44 160.15 
M 117.21 145.02 120.51 151.87 120.18 155.24 118.15 158.58 116.6 161.63 116.28 164.3 116.38 166.85 116.12 169.58 118.04 178.81 116.54 183.1 102.71 184.12 97.3 184.2 91.75 183.89 86.19 182.89 80.56 181.12 74.85 178.29 
M 59.59 172.98 56.76 168.04 52.73 162.25 50.22 158.13 46.8 152.09 45.82 149.92 46.39 147.68 48.4 146.63 50.68 147.57 51.71 149.63 55.81 160.91 58.68 167.17 61.04 173.86 
M 60.51 174.55 53.73 172.64 32.67 168.01 30.59 166.91 30 164.65 31.4 162.72 33.79 162.46 55.81 171.18 60.81 173.61 
M 80.89 160.95 78.19 157.17 76.87 152.71 77.06 148.07 78.75 143.74 81.75 140.19 85.75 137.81 90.29 136.86 94.91 137.43 99.08 139.48 102.37 142.76 104.41 146.94 104.98 151.55 104.03 156.1 101.65 160.09 98.1 163.1 93.77 164.79 89.13 164.98 84.68 163.65 80.89 160.95 
M 100.07 144.4 101.7 147.74 102.16 151.43 101.4 155.07 99.5 158.27 96.66 160.67 93.2 162.02 89.48 162.18 85.92 161.11 82.89 158.95 
M 86.18 154.25 85.1 152.74 84.57 150.96 84.64 149.1 85.32 147.37 86.52 145.95 88.12 145 89.94 144.62 91.78 144.85 93.45 145.66 94.77 146.98 95.58 148.65 95.81 150.49 95.43 152.31 94.48 153.91 93.06 155.11 91.33 155.79 89.47 155.86 87.69 155.33 86.18 154.25 
M 84.74 150.95 89.65 155.86 
M 88.23 151.9 91.9 155.57 
M 85.85 146.97 93.56 154.69 
M 89.7 148.28 94.8 153.38 
M 90.68 146.71 95.58 151.62 
M 92.42 145.92 95.65 149.14 
M 54.34 165.58 56.63 167.86 
M 52.86 152.79 52.99 152.92 
M 52.39 146.67 55.63 149.91 
M 56.3 144.93 59.15 147.78 
M 60.09 143.07 64.19 147.17 
M 63.95 141.28 68.49 145.81 
M 68.16 139.83 71.48 143.15 
M 72.54 138.56 76.38 142.4 
M 76.96 137.33 80.76 141.13 
M 81.08 135.8 84.08 138.8 
M 85.26 134.33 88.23 137.29 
M 89.54 132.95 93.89 137.31 
M 94.08 131.84 98.97 136.73 
M 98.64 130.76 102.98 135.09 
M 103.25 129.71 106.81 133.27 
M 107.88 128.68 111.45 132.26 
M 112.5 127.66 117.75 132.9 
M 117.08 126.59 120.35 129.85 
M 121.56 125.41 124.83 128.69 
M 125.83 124.03 131.16 129.36 
M 123.32 158.56 121.89 157.67 120.68 156.24 120.07 155.75 119.31 155.59 118.43 155.72 
M 133.01 175.69 131.82 174.28 128.43 171.66 126.25 169.59 
M 132.69 167.76 131.32 168.3 130.81 168.22 129.44 167.59 125.45 165.01 124.5 164.09 123.58 162.79 
M 88.44 191.4 86.89 191.29 82.16 193.33 
M 128.03 131.66 126.4 131.11 125.44 131.12 124.25 131.76 122.77 133.19 
M 119.57 166.38 119.5 165.94 119.18 165.42 117.24 163.91 116.66 163.2 116.42 160.92 
M 104.69 137.12 103.79 135.08 101.99 132.49 100.56 131.37 97.96 130.92 
M 110.01 145.22 110.08 145.01 110.32 144.94 112.01 145.62 116.11 148.93 
M 128.37 150.62 126.47 152.22 124.12 153.16 122.92 153.85 122.07 153.99 
M 120.59 125.67 121.49 126.07 122.09 126 
M 86.42 175.1 87.07 176.58 88.17 177.79 89.01 178.36 90.82 178.95 91.35 178.96 93.49 178.43 94.45 177.44 
M 112.18 178.27 112.07 177.97 111.36 177.74 
M 119.82 180.96 118.99 182.11 117.71 183.13 115.1 184.65 
M 139.57 194.87 140.44 195.02 140.76 194.62 141.18 193.65 142.1 189.94 
M 65.59 143.52 65.61 142.4 65.19 140.73 
M 138.99 148.65 136.22 148.53 
M 117.92 144.7 117.9 146.85 117.16 148.68 117.45 150 
M 112.96 129.29 110.72 130.07 108.98 130.42 107.71 130.28 107.09 130.02 106.05 129.09 
M 134.78 201.3 135.2 201.8 135.21 202.85 134.81 203.71 134.02 204.54 
M 114.77 161.37 115.37 161.57 115.58 161.34 115.66 160.9 
M 86.04 181.9 87.18 183.89 87.4 184.7 87.33 185.48 86.95 186.92 86.67 189.38 85.67 191.02 85.16 191.54 84.5 191.87 
M 105.99 152.94 104.96 151.34 
M 110.32 151.17 109.46 149.09 105.77 143.85 105.3 142.16 105.25 141.31 105.41 140.44 
M 118.15 162.02 117.69 161.07 116.52 160.23 116.02 159.47 
M 118.83 127.76 118.84 128.15 118.66 128.48 117.69 128.97 111.92 130.64 109.19 131.25 107.68 131.4 
M 128.9 188.26 126.98 184.95 126.64 183.74 126.14 183.32 125.44 183.09 
M 122.07 131.4 120.4 132.18 119.75 132.17 117.09 131.09 116.12 131 110.19 131.93 
M 63.17 158.79 61.91 152.66 61.46 151.81 60.44 151.1 
M 123.74 174.49 123.87 175.56 123.38 176.82 121.2 178.79 120.24 180.27 
M 68 147.58 68.21 146.77 68.39 144.06 68.2 142 67.61 139.99 
M 107.68 149.94 104.87 146.68 104.4 145.91 104.11 145.04 103.49 142.19 103.49 141.38 103.91 139.02 103.79 137.35 
M 75.73 188.82 78.16 186.51 79.51 185.9 80.32 185.92 
M 77.7 187.02 79.22 186.16 80.38 186.08 80.89 186.52 81.11 187.08 81 188.5 
M 102.8 175.2 103.51 175.33 104.31 174.71 
M 121.36 160.85 120.34 160.17 119.5 159.24 117.67 157.96 117.28 157.53 
M 109.27 192.62 109.08 191.52 109.45 190.64 109.82 190.2 110.88 189.68 115.4 188.22 
M 73.3 186.87 75.99 184.85 78.41 183.94 
M 70.89 140.97 69.79 140.47 69.2 139.51 
M 139.39 194.45 139.85 194.22 140.28 193.76 140.94 192.34 142.17 188.32 144.06 183.44 
M 114.77 177.45 114.75 178.28 115.2 179.5 115.17 180.3 113.56 183.15 
M 85.11 184.35 85.41 186.14 85.32 189.07 85.15 189.88 84.87 190.63 84.4 191.24 82.8 191.9 82.04 192.4 
M 118.74 137.98 118.85 137.22 118.55 136.35 117.1 135.14 116.19 134.9 
M 118.71 156.25 118.04 155.98 116.85 156.41 
M 119.78 153.98 118.58 155.26 117.36 155.87 
M 58.31 164.9 60.89 165.68 61.74 166.31 61.75 167.16 60.69 168.81 
M 109.38 165.29 107.34 165.72 105.51 167.08 102.64 168.46 
M 101.87 189.57 102.31 189.19 103.26 189.69 
M 132.23 180.93 130.1 178.76 129.38 177.82 128.54 177.13 127.58 176.76 126.7 176.73 126.08 176.85 122.58 179.32 121.55 180.57 
M 56.82 180.16 56.21 182.75 56.24 185.25 56.92 187.72 58.08 190.08 59.6 192.33 63.09 196.78 64.69 199.24 65.9 201.97 66.47 204.91 66.31 207.89 65.5 210.73 64.16 213.33 62.46 215.66 60.49 217.76 58.27 219.58 55.84 221.08 53.23 222.23 50.51 223.04 44.89 223.59 50.47 222.9 53.13 221.97 55.63 220.71 57.93 219.13 60 217.26 61.79 215.14 63.31 212.83 64.44 210.34 65.05 207.71 65.06 205.04 64.43 202.47 63.22 200.09 61.62 197.89 57.92 193.62 56.15 191.27 54.69 188.63 53.74 185.68 53.53 182.54 54.06 179.59 
M 57.22 180.8 56.21 182.9 
M 56.51 191.75 57.1 193.29 58.43 195.61 61.87 200.07 63.39 202.61 64.38 205.42 64.7 208.39 64.41 210.42 
M 62.06 216.08 59.94 218.8 57.86 220.76 55.63 222.53 53.25 224.09 50.71 225.37 45.33 227.09 50.65 225.24 53.1 223.85 55.37 222.19 58.12 219.68 
M 61.22 215.81 62.36 213.67 63.17 211.08 63.43 208.4 63.01 205.77 62 203.3 60.5 201.06 56.82 196.74 55.2 194.24 54 191.5 53.23 188.58 52.99 185.5 53.6 182.17 
M 54.62 179.71 54.64 179.65 
M 56.84 180.4 56.79 180.61 
M 56.21 182.89 56.21 182.9 
M 54.09 191.69 53.35 194.17 49.37 204.74 48.66 207.41 48.23 210.14 48.05 212.89 48.24 215.66 48.64 218.43 49.58 223.01 
M 49.61 223.13 50.19 225.4 
M 50.22 225.52 51.41 229.32 52.55 231.9 55.67 236.59 52.43 231.96 51.15 229.43 49.76 225.67 
M 49.73 225.56 49 223.19 
M 48.97 223.09 47.81 218.59 47.26 215.79 46.92 212.92 46.97 210.03 47.27 207.16 48.65 201.57 51.32 193.55 53 185.63 
M 60.34 174.26 60.79 175.17 
M 56.58 167.79 56.08 168.49 55.87 169.21 56.33 169 57.37 169.02 
M 52.7 162.2 51.91 162.9 51.36 164.08 52.16 163.41 53.34 163.17 
M 49.17 156.26 47.74 157.31 46.85 158.96 48 157.82 49.76 157.3 
M 45.92 150.14 43.58 151.72 42.34 153.84 43.83 152.23 46.46 151.33 
M 60.56 174.39 61.27 174.63 
M 54.12 170.53 54.29 170.45 54.26 170.58 
M 46.85 167.7 47.12 167.28 48.22 166.57 47.66 167.46 47.62 168.01 
M 40.04 164.88 40.63 163.8 42.14 162.68 41.17 163.98 40.98 165.24 
M 33.05 162.54 34.14 160.31 36.06 158.8 34.67 160.49 34.26 162.64 
M 38.55 169.28 46.31 174.59 55.77 180.2 60.81 182.84 65.93 185.17 76.18 189.19 
M 53.48 178.89 53.91 176.82 
M 39.18 169.4 39.68 170.08 
M 133.23 132.29 134.98 134.04 
M 131.36 122.89 139.68 131.21 
M 138.05 122.04 146.39 130.38 
M 145.03 121.49 153.34 129.8 
M 152.19 121.1 161.63 130.55 
M 159.53 120.91 167.98 129.36 
M 167.21 121.06 178.43 132.27 
M 175.07 121.38 183.82 130.13 
M 183.11 121.88 193.67 132.45 
M 191.34 122.58 201.26 132.51 
M 199.71 123.41 209.76 133.46 
M 207.99 124.16 218.64 134.81 
M 216.13 124.76 223.42 132.06 
M 224.07 125.17 235.09 136.19 
M 231.77 125.33 239.96 133.52 
M 239.37 125.4 248.79 134.82 
M 246.91 125.41 255.76 134.26 
M 254.75 125.71 265.35 136.31 
M 262.67 126.09 272.91 136.33 
M 270.55 126.44 280.26 136.15 
M 278.28 126.64 288.59 136.94 
M 285.71 126.53 294.58 135.4 
M 293.06 126.34 303.63 136.92 
M 300.35 126.1 306.74 132.49 
M 307.72 125.93 317.77 135.98 
M 315.21 125.89 325.45 136.13 
M 322.86 126.01 332.48 135.62 
M 330.84 126.45 340.3 135.91 
M 339.01 127.08 345.5 133.57 
M 347.33 127.87 358.53 139.07 
M 355.81 128.81 361.75 134.75 
M 364.44 129.91 375.28 140.75 
M 373.34 131.27 380.49 138.42 
M 382.7 133.1 389.12 139.52 
M 393.11 135.97 403.33 146.19 
M 214.13 291.39 212.23 297.7 
M 214.13 291.39 216.44 297.7 
M 218.32 291.39 216.44 297.7 
M 223.4 293.5 222.14 297.7 
M 223.13 294.39 222.71 293.8 222.2 293.5 221.3 293.5 220.61 293.8 219.83 294.39 219.26 295.3 219.07 295.89 219.1 296.8 219.53 297.39 220.04 297.7 220.94 297.7 221.63 297.39 222.41 296.8 
M 225.8 293.5 224.54 297.7 
M 225.44 294.7 226.61 293.8 227.3 293.5 228.2 293.5 228.71 293.8 228.74 294.7 227.84 297.7 
M 231.5 293.5 230.24 297.7 
M 231.14 294.7 232.31 293.8 233 293.5 233.9 293.5 234.41 293.8 234.44 294.7 233.54 297.7 
M 238.4 293.5 237.71 293.8 236.93 294.39 236.36 295.3 236.18 295.89 236.21 296.8 236.63 297.39 237.14 297.7 238.04 297.7 238.73 297.39 239.51 296.8 240.08 295.89 240.26 295.3 240.23 294.39 239.81 293.8 239.3 293.5 238.4 293.5 
M 246.83 291.39 244.94 297.7 
M 245.93 294.39 245.51 293.8 245 293.5 244.1 293.5 243.41 293.8 242.63 294.39 242.06 295.3 241.88 295.89 241.91 296.8 242.33 297.39 242.84 297.7 243.74 297.7 244.43 297.39 245.21 296.8 
M 249.8 293.5 249.11 293.8 248.33 294.39 247.76 295.3 247.58 295.89 247.61 296.8 248.03 297.39 248.54 297.7 249.44 297.7 250.13 297.39 250.91 296.8 251.48 295.89 251.66 295.3 251.63 294.39 251.21 293.8 250.7 293.5 249.8 293.5 
M 254.3 293.5 253.04 297.7 
M 253.94 294.7 255.11 293.8 255.8 293.5 256.7 293.5 257.21 293.8 257.24 294.7 256.34 297.7 
M 260 293.5 258.74 297.7 
M 259.64 294.7 260.81 293.8 261.5 293.5 262.39 293.5 262.9 293.8 262.94 294.7 262.03 297.7 
M 262.94 294.7 264.11 293.8 264.8 293.5 265.7 293.5 266.2 293.8 266.24 294.7 265.34 297.7 
M 269.33 291.39 269.53 291.7 269.93 291.39 269.71 291.1 269.33 291.39 
M 269 293.5 267.74 297.7 
M 274.13 294.39 274.01 293.8 273.2 293.5 272.3 293.5 271.31 293.8 270.83 294.39 270.95 295 271.45 295.3 272.87 295.6 273.38 295.89 273.4 296.8 272.93 297.39 271.94 297.7 271.03 297.7 270.23 297.39 270.11 296.8 
M 279.5 293.5 277.61 299.8 
M 279.23 294.39 280.01 293.8 280.7 293.5 281.6 293.5 282.11 293.8 282.52 294.39 282.56 295.3 282.38 295.89 281.81 296.8 281.02 297.39 280.33 297.7 279.44 297.7 278.93 297.39 278.51 296.8 
M 284.36 295.3 287.95 295.3 288.14 294.7 288.02 294.1 287.3 293.5 286.39 293.5 285.7 293.8 284.93 294.39 284.36 295.3 284.18 295.89 284.2 296.8 284.63 297.39 285.14 297.7 286.03 297.7 286.73 297.39 287.51 296.8 
M 294.52 291.39 292.64 297.7 
M 293.63 294.39 293.2 293.8 292.7 293.5 291.8 293.5 291.11 293.8 290.33 294.39 289.76 295.3 289.58 295.89 289.61 296.8 290.02 297.39 290.53 297.7 291.44 297.7 292.13 297.39 292.9 296.8 
M 295.45 295.3 299.06 295.3 299.24 294.7 299.12 294.1 298.39 293.5 297.5 293.5 296.81 293.8 296.02 294.39 295.45 295.3 295.27 295.89 295.31 296.8 295.73 297.39 296.24 297.7 297.14 297.7 297.83 297.39 298.61 296.8 
M 304.43 294.39 304.31 293.8 303.5 293.5 302.6 293.5 301.61 293.8 301.13 294.39 301.25 295 301.76 295.3 303.16 295.6 303.68 295.89 303.7 296.8 303.23 297.39 302.24 297.7 301.33 297.7 300.52 297.39 300.4 296.8 
M 306.02 297.1 305.63 297.39 305.83 297.7 306.23 297.39 306.02 297.1 
"/></svg>
