<svg xmlns="http://www.w3.org/2000/svg" width="520" height="320"><rect x="0" y="0" width="520" height="320" fill="floralwhite"/><rect x="10" y="10" width="500" height="300" stroke="black" stroke-width="1" fill="none"/><path stroke="black" stroke-width="1" fill="none" stroke-linecap="round" stroke-linejoin="round" d="
M 139.65 115.33 162.05 112.12 173.21 111.04 184.37 110.43 206.69 109.66 217.85 109.46 229.01 109.62 240.17 110.35 251.33 111.68 273.65 114.81 307.13 120.17 318.29 122.11 329.45 124.47 340.61 127.34 362.94 133.9 374.1 136.77 396.42 142.1 407.58 144.95 408.55 145.44 
M 408.55 177.54 407.58 178.65 396.42 184.02 385.26 188.11 374.1 191.18 362.94 193.42 351.77 195.12 329.45 197.69 318.29 198.38 295.97 198.77 284.81 199.38 262.49 201.88 251.33 202.72 206.69 202.43 195.53 202.02 173.21 200.01 150.89 198.35 139.73 196.69 128.69 194.54 
M 141.13 160.47 141.86 158.19 141.86 153.56 141.6 152.76 
M 145.61 185.09 143.92 180.82 
M 138.48 183.27 141.54 182.55 
M 147.29 185.27 148.67 182.92 
M 147.36 161.74 146.14 159.67 143.58 157.5 
M 152.44 161.56 153.61 157.12 153.61 152.22 151.51 144.3 148.25 137.3 145.7 134.57 
M 143.68 150.45 150.26 149.07 
M 143.53 155.08 149.34 154.8 
M 142.86 159.08 143.11 159.14 
M 145.79 159.75 149.98 160.72 
M 146.48 135.55 147.07 131.86 147.07 126.52 145.68 117.9 144.74 114.57 
M 161.17 157.85 160.39 156.94 
M 146.15 120.32 146.78 119 148.11 114.07 
M 162.98 157.18 163.72 153.9 163.72 148.63 161.8 140.12 158.83 132.61 156.5 129.68 
M 153.88 146.74 160.08 144.43 
M 154.18 151.48 160.63 151.07 
M 153.91 155.49 160.35 158.05 
M 155.42 132.56 156.51 126.33 156.51 120.85 155.15 113.07 
M 148.96 119.01 154.1 116.63 
M 149.33 123.83 153.55 123.18 
M 148.95 128.38 153.31 130.04 
M 174.53 155.68 173.08 153.34 
M 155.96 121.42 158.68 116.2 159.8 112.43 
M 174.78 155.61 175.8 151.34 175.8 145.93 173.73 137.2 170.51 129.49 168 126.49 
M 170.96 131.48 172.29 126.03 172.29 120.65 170.17 111.96 169.91 111.36 
M 185.75 152.84 183.92 150.19 
M 171.53 124.16 175.82 117.89 178.59 110.75 
M 192 151.26 192 146.81 189.49 138.35 185.59 130.88 182.55 127.97 
M 179.86 145.54 187.14 142.89 
M 179.82 149.89 187.87 149.48 
M 179.67 153.94 180.68 154.12 
M 190.13 140.35 190.42 139.83 193.11 131.39 193.11 126.16 190.42 117.72 186.3 110.36 
M 180.16 124.66 188.26 122.48 
M 179.5 128.95 183.5 129 
M 184.12 129.01 188.58 129.06 
M 187.47 135.32 188.28 135.54 
M 192.15 129.52 196.63 124.04 199.85 117.13 199.85 112.85 198.49 109.93 
M 186.27 111.2 191.44 110.18 
M 188.38 114.91 194.08 114.88 
M 191.12 119.74 193.68 120.22 
M 208.43 147.12 207.06 143.12 202.95 136.32 199.75 133.67 
M 216.59 188.59 216.59 188.19 
M 198.7 112.3 200.88 109.85 
M 210.73 146.54 213.22 139.1 213.22 134.55 210.77 127.19 206.97 120.7 204 118.16 
M 212.35 133.5 215.43 129.73 218.26 123.64 218.26 119.88 215.43 113.8 211.97 109.57 
M 221.36 145.43 218.73 140.97 215.95 138.63 
M 229 188.64 229 187.21 227.06 181.1 226.42 179.96 
M 223.86 184.99 225.49 184.55 
M 217.25 118.92 220.07 115.65 222.35 111.01 222.35 109.53 
M 224.05 148.16 224.45 147.32 226.2 140.83 226.2 136.81 224.45 130.32 221.73 124.58 219.61 122.34 
M 228.65 188.64 229.13 188.09 231.64 182.45 233.25 176.06 233.25 172.11 231.64 165.72 230.93 164.13 
M 227.61 170.16 230.42 169.27 
M 226.89 174.13 230.66 173.75 
M 226.91 177.68 229.9 178.59 
M 225.57 134.82 228.63 130.36 230.72 125 230.72 121.68 228.63 116.32 225.38 111.58 222.85 109.74 
M 231.89 166.87 233.88 163 235.74 156.67 235.74 152.75 233.88 146.41 231.01 140.82 228.76 138.63 
M 240.2 188.82 240.28 184.78 238.45 178.72 235.6 173.36 233.38 171.27 
M 231.22 183.62 237.3 182.48 
M 231.58 186.51 237.42 186.57 
M 229.38 117.89 231.44 114.65 232.97 110.43 232.97 109.88 
M 225.09 111.06 230.48 111.87 
M 233.61 146.48 234.69 143.82 236.1 137.73 236.1 133.96 234.69 127.87 232.51 122.49 230.8 120.39 
M 239.62 182.81 241.33 178.41 242.74 172.05 242.74 168.11 241.33 161.74 239.15 156.12 237.45 153.93 
M 243.03 188.88 241.94 186.57 239.98 184.51 
M 235.5 130.39 238.19 126.07 239.99 121.01 239.99 117.88 238.19 112.81 236.5 110.11 
M 240.74 160.83 242.53 157.28 244.33 150.97 244.33 147.07 242.53 140.77 239.73 135.21 237.54 133.04 
M 249.33 189.02 250.63 184.5 250.63 180.42 248.73 173.82 245.78 168 243.48 165.73 
M 237.62 112.38 238.88 110.27 
M 241.95 140.23 243.54 137.05 245.16 131.35 245.16 127.83 243.54 122.13 241.03 117.1 239.35 115.42 
M 246.84 170.77 247.22 169.82 248.81 162.77 248.81 158.4 247.22 151.34 244.76 145.12 243.69 143.76 
M 257.75 188.78 255.74 184.19 253.64 181.78 
M 244.58 128.8 246.59 127.36 249.73 122.85 251.76 117.74 251.76 114.57 250.58 111.59 
M 248.24 161.47 250.74 159.37 254.1 153.73 256.27 147.34 256.27 143.38 254.1 136.99 250.74 131.35 248.12 129.15 
M 245.68 141.85 252.59 140.75 
M 245.16 145.79 252.05 145.53 
M 245.83 148.54 252.2 150.09 
M 260.87 188.65 262.85 182.05 262.85 177.76 260.77 170.83 257.55 164.71 255.04 162.32 
M 255.49 144.46 256.42 143.71 259.66 138.47 261.75 132.53 261.75 128.86 259.66 122.93 256.42 117.69 253.89 115.64 
M 260.93 171.76 262 169.58 263.93 162.71 263.93 158.45 262 151.58 259.01 145.51 256.67 143.14 
M 254.89 156.73 260.19 155.61 
M 254.14 160.98 260.27 160.25 
M 254.15 163.94 254.63 164.09 
M 257.24 164.87 260.08 165.71 
M 270.71 187.92 269.04 184.02 267.02 181.67 
M 261 128.78 261.27 128.6 265 123.77 267.4 118.3 267.4 114.91 266.93 113.84 
M 263.62 163.37 266.62 161.18 270.46 155.56 272.94 149.2 272.94 145.26 270.46 138.9 266.62 133.28 263.62 131.08 
M 275.5 187.56 277.36 182.07 277.36 178 275.14 171.41 271.69 165.6 268.99 163.33 
M 272.05 150 273.83 148.53 277.23 142.9 279.42 136.53 279.42 132.58 277.23 126.21 273.83 120.59 271.17 118.39 
M 276.56 174.48 278.38 171.3 280.43 165.02 280.43 161.14 278.38 154.87 275.21 149.33 273.72 148.02 
M 270.04 159.82 277.18 158.56 
M 270.39 163.41 276.64 163.48 
M 271.66 166.25 277.17 167.86 
M 283.4 187.05 281.7 183.56 279.56 181.36 
M 278.64 131.29 282.46 126.88 285.24 121.23 285.24 117.74 284.65 116.53 
M 279.9 165.61 283.09 163.48 287.18 158.04 289.82 151.88 289.82 148.07 287.18 141.91 283.09 136.47 279.9 134.34 
M 276.48 147.01 285.12 145.74 
M 276.72 149.82 285.06 149.55 
M 277.26 153.06 284.93 154.33 
M 291.5 186.81 293 183 293 179.12 290.54 172.86 286.73 167.34 283.75 165.18 
M 280.98 178.02 288.12 176.36 
M 281.33 181.23 288.13 180.62 
M 281.68 184.19 288.59 186.16 
M 288.87 151.22 290.22 150.23 293.77 145.02 296.05 139.13 296.05 135.48 293.77 129.58 290.22 124.38 287.45 122.35 
M 284.64 133.98 291.97 132.6 
M 284.42 137.69 291.74 137.52 
M 285.8 140.67 291.98 141.8 
M 292.12 176.6 294.49 172.95 296.75 166.85 296.75 163.07 294.49 156.96 290.98 151.57 289.59 150.5 
M 298.12 186.74 297.03 184.89 294.45 182.72 
M 295.23 137.85 296.78 136.99 301.18 132.08 304.02 126.52 304.02 123.07 302.13 119.38 
M 297.16 168.85 300.6 166.81 305 161.58 307.83 155.65 307.83 151.98 305 146.06 300.6 140.82 297.16 138.78 
M 310.73 186.86 311.05 186.18 311.05 182.43 308.24 176.36 303.88 171 300.48 168.91 
M 303 125.1 306.64 120.1 
M 306.82 156.2 308.56 154.93 311.99 149.9 314.2 144.21 314.2 140.69 311.99 135 308.56 129.97 305.88 128.01 
M 310.04 183.91 310.33 183.73 314.52 178.42 317.22 172.41 317.22 168.69 314.52 162.68 310.33 157.38 307.63 155.66 
M 304.22 167.7 312.45 165.56 
M 304.21 170.41 312.05 170.38 
M 306.03 174.25 312.79 175.58 
M 313.41 140.54 317.88 135.56 320.6 130.08 320.6 126.69 318.33 122.12 
M 316.25 173.99 319.01 172.32 323.45 166.92 326.32 160.8 326.32 157.02 323.45 150.9 319.01 145.5 315.53 143.39 
M 329.2 186.71 326.93 182.09 322.53 176.97 319.09 174.98 
M 325.29 155.93 327.24 152.64 329.45 146.1 329.45 142.05 327.24 135.51 323.83 129.74 321.16 127.48 
M 319.03 141.01 325.08 139.45 
M 318.77 144.25 325.32 144.02 
M 320.48 147.91 325.02 149.23 
M 334.9 186.41 337.22 180.49 337.22 176.64 334.78 170.41 330.99 164.91 328.04 162.77 
M 328.66 144.68 331.14 143.44 335.71 138.9 338.65 133.76 338.65 130.57 336.14 126.19 
M 336.35 176.29 340.39 171.02 343.04 164.93 343.04 161.16 340.39 155.07 336.27 149.7 333.05 147.6 
M 342.81 185.98 339.05 181.2 336.35 179.48 
M 337.59 130.94 338.95 130.42 342.33 127.85 
M 342.09 162.01 345.9 156.73 348.23 150.9 348.23 147.29 345.9 141.46 342.29 136.31 339.47 134.3 
M 349.53 185.58 350.62 182.23 350.62 178.67 348.74 172.91 345.83 167.82 343.55 165.84 
M 341.14 177.59 347.31 175.83 
M 341.77 180.67 347.26 179.98 
M 341.26 183.69 347.13 184.69 
M 347.39 149.92 350.53 148.51 355.05 144.45 357.96 139.86 357.96 137.01 355.05 132.42 353.69 131.19 
M 349.95 178.98 352.07 177.6 355.8 172.77 358.2 167.29 358.2 163.9 355.8 158.43 352.07 153.59 349.16 151.7 
M 355.06 185.16 353.05 182.42 350.44 180.63 
M 356.92 139.5 359.59 138.33 363.31 135.05 363.9 134.15 
M 354.18 132.08 359.99 133.04 
M 357.34 164.51 358.94 163.42 362.14 159.07 364.21 154.14 364.21 151.08 362.14 146.15 358.94 141.79 356.92 140.42 
M 362.9 184.5 363.74 181.9 363.74 178.57 362 173.19 359.31 168.43 357.34 166.7 
M 363.91 152.79 366.85 151.31 370.62 147.51 373.04 143.22 373.04 140.56 370.62 136.27 370.09 135.74 
M 360.76 140.12 368.56 138.18 
M 361.45 141.97 368.18 142.19 
M 361.21 143.71 368.28 145.16 
M 363.88 179.5 366.55 177.75 369.97 173.25 372.18 168.16 372.18 165.01 369.97 159.92 366.55 155.42 363.88 153.67 
M 360.91 164.11 368.55 162.71 
M 361.44 166.7 368.44 167 
M 361.78 169.31 367.95 170.25 
M 367.61 183.87 366.59 182.47 364.06 180.72 
M 372.17 139.97 373.48 139.21 375.33 137.06 
M 371.39 165.81 373.45 164.25 376.24 160.01 378.03 155.21 378.03 152.24 376.24 147.44 373.45 143.2 372.17 142.23 
M 376.85 182.47 377.21 181.38 377.21 178.14 375.46 172.89 372.74 168.26 371.39 167.11 
M 368.49 177.55 374.3 175.98 
M 368.45 179.73 373.69 179.74 
M 369.02 182.33 371.88 183.31 
M 378.01 152.97 380.62 151.5 383.95 147.75 386.1 143.5 386.1 140.87 385.36 139.41 
M 377.71 179.32 380.3 177.59 383.62 173.15 385.76 168.12 385.76 165.01 383.62 159.99 380.3 155.55 377.71 153.82 
M 375.26 164.26 382.31 163.13 
M 375.52 166.42 381.84 166.26 
M 375.31 168.76 381.77 170.47 
M 379.84 181.88 377.58 180.34 
M 385.33 140.16 386.24 139.63 
M 385 164.71 386.56 163.5 389.31 159.25 391.08 154.44 391.08 151.46 389.31 146.65 386.56 142.4 385.33 141.45 
M 391.35 179.13 391.35 178.22 389.54 172.97 386.73 168.33 385 166.91 
M 391.81 152.96 394.4 151.49 397.71 147.72 399.85 143.46 399.85 142.98 
M 392.89 178.7 394.28 177.78 397.63 173.32 399.78 168.27 399.78 165.15 397.63 160.1 394.28 155.64 391.67 153.9 
M 399.01 165.84 401.03 164.29 403.83 159.99 405.64 155.11 405.64 152.1 403.83 147.22 401.31 143.35 
M 396.93 151.52 402.17 149.41 
M 396.85 153.52 402.1 153.21 
M 397.08 156.3 402.14 157.36 
M 404.29 174.82 403.86 173.55 401.07 168.9 399.01 167.18 
M 396.66 177.37 397.85 177.2 
M 405.77 153.15 408.32 151.67 408.55 151.41 
M 402.94 144.62 407.78 145.05 
M 408.55 156.22 408.25 155.82 405.7 154.07 
M 134.26 191.65 134.09 191.34 
M 134.86 190.5 141.22 191.12 
M 144.81 188.34 146.14 187.22 147.29 185.27 
M 144.74 114.57 144.74 114.57 
M 161.95 194.8 162.71 193.92 165.28 187.95 
M 165.27 195.03 164.22 193.52 162.93 192.59 
M 165.67 194.76 167.03 195.15 
M 155.15 113.07 155.15 113.07 
M 175.75 192.06 176.22 190.56 
M 179 193.75 184.9 196.18 
M 169.91 111.36 169.91 111.36 
M 194.56 197.34 192.94 194.48 190.79 192.57 
M 178.59 110.75 178.59 110.75 
M 200.99 197.6 202.7 192.01 202.7 191.05 
M 212.83 189.96 213.2 189.97 
M 206.3 193.14 212.62 194.93 
M 221.74 197.92 219.61 193.56 217.73 191.63 
M 211.97 109.57 211.97 109.57 
M 219.88 192.31 225.81 193.57 
M 228.3 189.02 228.65 188.64 
M 232.97 109.88 232.97 109.88 
M 246.05 198.11 244.44 191.85 243.03 188.88 
M 245.48 197.22 245.78 196.92 248.73 191.09 249.33 189.02 
M 284.65 116.53 284.65 116.53 
M 286.19 195.18 286.73 194.78 290.54 189.26 291.5 186.81 
M 301.76 194.71 300.32 190.45 298.12 186.74 
M 293.59 194.86 299.03 193.76 
M 318.33 122.12 318.33 122.12 
M 328.49 194.07 329.77 191.46 329.77 187.88 329.2 186.71 
M 346.18 192.46 348.74 187.99 349.53 185.58 
M 353.69 131.19 353.69 131.19 
M 358.09 191.07 356.4 187 355.06 185.16 
M 360 190.83 362 187.29 362.9 184.5 
M 374.44 188.37 375.46 186.63 376.85 182.47 
M 371.88 183.31 374.39 184.17 
M 383.17 186.2 380.15 182.08 379.84 181.88 
M 386.24 139.63 386.24 139.63 
M 399.85 142.98 399.85 142.98 
M 405.36 177.95 404.29 174.82 
M 397.85 177.2 402.48 176.55 
M 407.78 145.05 407.78 145.05 
M 173.21 111.04 173.21 111.04 
M 177.74 110.8 185.07 96.9 186.91 94.69 188.52 92.25 189.62 89.3 191.45 87.09 193.51 85.06 196.51 83.95 199.08 82.4 201.84 81.27 203.65 79.27 205.64 77.42 206.91 74.58 209.06 72.63 211.47 71.01 213.98 69.8 216.92 69.37 219.38 69.51 222.48 68.62 227.95 66.45 231.76 66.59 233.94 65.11 236.79 63.96 239.76 62.92 242.56 62.43 245.11 61.78 246.92 62.2 249.08 64.58 252.32 68.73 254.61 71.16 261.2 74.7 265.93 75.48 269.88 75.84 276.98 74.03 278.23 76.14 280.41 77.54 283.44 78.63 289.54 81.98 292.81 82.63 294.29 83.9 294.68 88.82 298.6 94.18 299.86 96.68 300.66 99.99 302.55 104.53 306.55 108.98 308.72 111.1 312.05 113.16 312 121.02 
M 307.14 120.18 307.13 120.17 
M 178.05 110.78 180.07 110.28 182.53 106.34 182.87 104.25 184.28 101.73 
M 182.89 110.51 185.18 109.93 186.26 107.36 187.02 103.53 188.58 100.57 
M 187.74 110.31 190.01 109.08 191.98 101.95 193.43 98.57 195.18 96.82 197.5 95.02 197.63 91.73 197.26 87.39 197.23 84.37 
M 192.58 110.13 194.92 109.03 195.7 106.42 195.95 103.98 196.77 101.33 198.18 98.94 199.8 96.77 200.61 94.35 200.81 91.07 
M 197.43 109.97 199.17 108.59 200.19 106.47 200.84 104.1 201.72 101.87 202.47 99.29 203.79 96.81 205.59 94.12 204.96 90.95 
M 202.27 109.81 203.79 108.52 206.33 104.33 207.11 101.71 207.17 99.27 208.72 96.38 210.18 94.18 210.71 90.49 211.77 87.53 
M 207.12 109.66 208.47 107.63 209.62 105.08 211.01 102.67 214.1 91.48 215.95 89.3 217.32 87.23 220.9 80.24 220.4 77.43 
M 211.97 109.57 213.15 107.38 214.04 104.52 215.55 102.24 216.59 99.89 218.25 94.96 218.46 92.38 222.65 86.54 224.09 83.94 224.62 80.98 223.04 79.06 222.73 77.36 222.94 74.71 224.36 70.65 
M 216.81 109.48 218.4 107.45 222.67 97.79 223.33 95.08 223.49 92.44 227.16 86.35 
M 221.66 109.52 223.37 107.94 226.26 100.77 227.3 97.63 228.74 92.29 230.29 89.13 231.02 85.61 231.04 82.94 232.04 80.61 235.13 77.37 236.27 74.49 237.6 71.69 238.48 68.68 
M 226.51 109.59 228.36 108.06 229.64 105.82 233.46 97.8 233.37 95.23 233.67 92.74 235.04 90 
M 231.35 109.78 233.27 108.26 234.48 106.14 240.33 93.18 241.37 90.22 243.25 87.99 244.58 85.5 245.21 82.06 244.91 79.52 245.79 76.09 
M 236.19 110.09 238.12 108.83 239.35 106.47 241.19 101.72 243.06 99.56 244.34 96.65 245.34 93.59 246.4 91.21 
M 241.03 110.45 243.24 109 244.51 107.09 245.76 102.47 247.11 99.79 253.51 90.78 256.74 87.81 258.25 84 258.39 81.54 259.01 80.08 
M 245.84 111.03 248.51 109.71 249.49 107.27 250.38 104.37 252.58 99.66 253.73 98.48 255.74 95.92 256.72 93.22 258.46 91.37 259.52 88.29 261.28 85.05 262.65 80.56 265.3 78.15 
M 250.65 111.6 253.15 110.23 254.43 107.93 256.01 103.65 257.73 100.82 258.52 98.63 260.3 96.59 261.78 94.04 261.77 90.74 262.49 87.93 
M 255.46 112.24 257.76 111.05 259.5 108.83 262.89 102.12 263.33 100.25 266.48 94.03 
M 260.26 112.89 262.78 111.5 264.62 109.12 265.87 106.99 267.35 102.35 268.58 99.95 270.59 97.4 274.2 91.67 275.72 90.86 275.61 85.06 278.29 83.14 279.7 81.04 
M 265.07 113.56 267.75 111.83 269.52 109.51 271.82 105.34 272.35 103.04 273.44 100.44 277.6 94.52 279.23 92.95 279.99 90.2 280.22 87.35 
M 269.86 114.26 272.76 112.28 274.35 110.16 275.27 107.7 276.57 106.03 278.55 103.89 280.03 101.39 281.95 99.3 283.49 96.72 286.01 91.41 286.52 88.66 286.32 85.64 
M 274.66 114.97 276.5 113.02 279.49 108.19 281.78 105.71 283.8 105.1 287.24 100.14 287.8 97.83 
M 279.45 115.72 281.55 113.82 283.13 110.82 284.96 108.84 286.09 106.81 287.82 104.51 
M 284.24 116.47 287.33 114.74 291.62 110.18 292.97 102.79 295.25 101.34 
M 289.02 117.26 292.57 115.33 296.48 111.69 297.06 109.45 297.38 106.19 298.31 103.46 
M 293.81 118.05 297.2 117.27 299.06 116.22 302.13 111.11 303.45 108.59 
M 298.59 118.82 304.34 117.16 306.28 114.97 
M 303.38 119.58 307.59 118.64 310.25 116.46 
M 141.64 163.3 146.02 162.18 149.23 161.13 152.72 161.6 155.12 161.43 157.37 160.68 159.73 158.78 162.2 157.18 166.31 157.2 169.17 156.48 170.3 156.75 220.12 144.16 233.8 158.06 231.46 162.93 229.12 168.5 227.23 170.57 226.83 173.34 227.08 176.68 226.64 179.33 225.85 181.62 224.44 184.26 222.79 186.36 220.21 187.52 216.94 187.99 214.55 189.35 211.79 190.33 207.74 190.03 204.26 190.3 201.74 191.51 199.81 193.19 170.1 189.86 167.3 188.99 164.65 187.63 161.5 186.98 158.72 186.69 154.13 185.21 150.97 183.61 147.38 182.54 144.37 181.16 141.85 179.26 139.59 177.89 
M 141.82 164.92 148.6 163.95 151.8 164.02 154.08 163.82 157.22 163.23 160.53 162.09 165.09 159.42 168.49 158.8 171.46 158.65 174.23 157.85 176.96 156.68 180.16 157.71 182.87 157 184.61 155.92 188.03 154.92 193.79 154.6 199.61 153.79 208.08 150.09 209.89 150.11 216.21 147.75 219.69 147.02 
M 142.13 167.26 145.57 166.81 148.85 166.74 151.45 167.18 154.18 167.28 156.91 167.02 160.18 166.38 163.24 166.38 169.31 164.93 172.4 164.6 175.26 164.8 178.51 164.61 181.79 164.89 190.81 163.73 196.18 164.46 199.01 162.97 
M 141.25 169.89 146.06 169.52 148.8 169.81 154.29 170.92 157.25 170.97 159.47 172.05 166.61 172.33 169.76 172 172.55 171.19 178.08 171.85 184.48 171.81 187.26 171.52 190.09 170.92 193.02 169.89 
M 140.61 172.55 142.38 172.66 148 173.85 150.89 174.1 154.25 174.95 157.49 175.36 160.29 176.13 163.59 176.35 167.06 176.8 169.99 176.93 173.17 176.72 176.31 177.52 179.8 177.7 183.28 178.08 185.48 179.58 
M 139.98 175.26 144.93 177.06 147.65 178.29 157.05 180.74 160.7 180.64 164.01 181.14 166.77 182.34 173.2 183.81 175.76 185.29 178.65 185.51 
M 206.69 202.43 212.3 206.8 216.88 209.94 223.55 227.54 222.37 233.75 217.99 236.56 215.07 235.25 211.65 233.44 204.62 231.36 197.85 230.37 195.94 231.31 192.32 230.38 189.33 228.74 186.02 226.43 178.63 217.47 167.78 210.42 164.89 206.64 162.05 199.16 
M 201.85 202.25 210.68 210.9 216.31 215.75 
M 197 202.07 199.93 205.63 202.12 207.81 204.58 210.79 209.81 215.66 212.39 217.57 214.45 219.65 215.74 223.77 217.46 226.88 
M 192.17 201.74 197.7 207.92 199.5 210.62 201.44 214.23 204.13 216.61 205.44 218.71 208.43 221.54 
M 187.33 201.34 190.56 205.33 195.87 210.47 197.34 213.72 199.22 217.12 
M 182.51 200.92 187.95 208.48 189.65 211.11 191.83 213.87 193.92 216.98 195.87 220.14 196.78 223.56 199.45 227.83 201.51 230.56 
M 177.68 200.45 180.73 204.3 182.75 208.2 184.89 211.29 188.65 218.88 192.49 225.89 
M 172.85 199.98 179.12 210.77 181.62 214.51 183.62 218.65 
M 168.02 199.62 171.44 204.19 174.75 210.84 177.62 215 
M 351.77 195.12 354.93 199.03 357.33 203.2 360.86 206.71 361.75 209.29 366.7 226.06 364.25 227.56 362.49 229.75 361.87 232.36 361.11 234.71 360.95 238.06 357.58 237.84 354.72 238.83 352.12 240.19 349.56 241.73 346.08 246.43 344.05 248.21 341.48 247.17 340.08 247.2 334.83 244.87 331.52 243.84 325.2 242.99 321.79 242.91 318.52 242.23 314.04 240.34 307.52 238.3 301.86 236.07 299.17 231.55 296.91 229.43 295.61 229.51 293.12 228.4 289.79 226.45 285.94 222.57 271.11 215.79 269.57 213.6 266.32 207.05 262.49 201.88 
M 346.96 195.7 350.67 199.46 354.12 206.36 356.73 209.51 358.02 211.76 360.06 213.74 361.62 216.65 
M 342.15 196.29 345.01 200.18 347.56 203.15 351.06 209.84 353.68 215.43 355.17 218.11 358.92 222.98 
M 337.33 196.83 340.1 200.99 343.5 206.65 348.15 216 350.47 218.6 352.06 221.2 353.18 224.55 356.29 228.4 
M 332.51 197.36 335.26 201.57 336.9 204.71 338.06 206.98 339.2 209.69 341 212.7 342.34 216.45 344.02 219.75 345.82 222.17 348.37 224.67 348.91 226.54 351.36 231.91 353.02 234.37 
M 327.68 197.8 332.31 205.29 333.81 208.32 334.86 211.08 336.88 213.06 337.32 216.67 338.12 220.14 339.11 223.06 
M 322.85 198.1 327.36 205.32 330.44 211.78 332.82 214.6 334.2 219.93 335.75 223.05 337.11 226.29 339.75 231.86 342.42 234.91 
M 318.01 198.38 320.39 202.21 321.89 204.96 323.11 208.04 328.05 217.63 329.44 220.68 330.95 223.14 331.98 225.16 332.31 227.44 333.58 230.44 335.26 233.7 337.66 237.68 340.77 240.84 341.24 243.02 
M 313.16 198.47 315.59 202.36 318.3 208.22 319.08 210.77 324.53 224.16 326.4 226.69 329.13 230.96 329.31 233.3 
M 308.31 198.56 310.95 202.51 311.91 205.34 313.43 207.77 314.7 211.08 316.21 214.29 317.1 217.74 318.57 220.8 319.83 224.41 321.5 227.53 324.55 230.08 325.05 233.42 324.92 235.7 325.29 239.39 
M 303.46 198.65 305.51 202.5 307.19 205.3 308.14 208.4 310.14 211.32 311.79 215.03 313.36 217.36 313.91 220 315.37 224.39 317.17 228.05 
M 298.62 198.73 300.48 202.94 304.17 209.51 305.48 211.61 307.58 214.39 308.82 216.72 310.78 223.99 312.39 228.13 314.03 231.49 
M 293.77 198.89 296.16 202.82 297.72 206.43 300.17 210.08 301.71 213.02 303.64 215.13 304.61 217.18 
M 288.93 199.15 291.49 203.02 294.48 209.35 295.55 212.8 297.58 215.41 299.85 217.28 301.44 220.09 303.77 222.57 305.29 226.75 
M 284.09 199.45 286.69 203.26 289.78 209.68 292.16 215.72 293.73 218.54 299.29 224.39 301.17 228.13 302.51 230.16 
M 279.27 199.95 281.6 203.81 284.21 207.33 287.42 212.91 288.71 216.13 289.03 219.5 
M 274.45 200.46 276.9 204.33 279.24 208.51 282 211.8 283.25 214.29 
M 269.63 201.02 273.06 205 274.08 208.83 276.68 212.52 279.25 215.67 
M 407.58 144.95 411.17 144.51 414.04 143.31 416.41 141.94 419.12 140.62 423.67 136.95 429.04 133.49 432.31 131.77 435.26 129.84 437.36 128.21 441.81 125.75 444.6 123.89 447.19 122.55 449.51 121.01 451.57 119.92 453.55 118.22 455.78 116.6 457.82 114.73 464.05 110.93 468.87 107.07 471.89 105.95 478.06 105.58 480.59 104.17 481.92 101.66 484.1 99.99 485.14 98.41 486.81 97.1 488.86 96.42 472.29 113.72 470.95 116.35 469.31 118.66 467.59 120.91 465.54 122.82 464.14 129.35 462.65 131.72 461.45 136.9 460.29 139.32 459.55 142.14 459.52 145.63 459.23 149.09 457.19 151.12 456.93 154.21 455.89 156.43 453.86 161.67 452.53 166.4 453.01 169.48 454.54 173.19 455.13 175.33 456.92 178.57 457.88 181.41 459.76 188.15 459.72 190.81 459.96 193.25 460.83 196.31 463.03 201.59 468.02 208.11 469.32 211 469.76 213.12 469.61 214.65 470.9 218.25 490 237.29 485.56 234.19 482.22 233.01 479.22 232.76 477.63 230.75 474.84 229.54 474.46 227.88 471.82 226.1 468.76 224.3 466.6 222.33 464.86 219.85 462.13 217.85 460.79 214.63 458.25 212.34 454.82 210.54 451.06 209.42 447.68 208.69 445.5 206.64 443.77 204.57 437.32 200.15 433.46 198.06 430.98 195.09 427.22 191.26 424.2 190.05 421.29 188.47 410.81 181.27 407.58 178.65 
M 407.58 146.63 411.43 146.43 414.4 145.63 422.91 141.81 426.67 138.64 429.38 136.88 432.85 136.06 439.73 131.53 
M 417.89 146.59 423.19 144.46 426.81 142.51 433.94 139.54 437.41 137.08 442.6 134.7 445.87 133.59 449.69 131.64 452.42 130.54 453.19 129.48 454.32 129.02 457.38 129.08 459.95 127.81 462.26 125.01 
M 411.45 150.23 414.7 149.67 423.84 146.68 425.55 146.53 435.18 142.64 441.54 139.73 443.18 138.74 
M 411.74 152.13 414.78 151.67 421.28 150.1 426.74 149.69 429.35 148.81 432.18 146.85 438.79 144.53 441.83 143.08 444.09 142.8 446.1 142.19 
M 407.58 153.37 411.49 153.89 418.14 153.36 421.54 152.62 427.61 152.64 430.29 151.69 433.19 149.99 439.25 147.61 441.63 147.29 
M 414.91 155.68 424.68 154.79 427.91 154.9 434.16 153.06 437.27 151.21 
M 417.81 157.81 421.01 157.26 424.73 157.24 430.58 156.77 433.39 155.75 436.64 154.95 440 154.54 446.81 155.08 450.44 155.11 
M 411.46 158.79 414.36 159.71 417.84 160.05 421.1 159.63 426.59 159.99 430.28 159.18 432.4 158.29 439.01 158.01 442.7 158.59 
M 414.44 161.91 417.61 162.18 420.97 162.04 424.3 162.34 426.88 163.09 429.81 162.26 
M 417.13 164.78 420.74 164.84 427.87 165.4 430.37 165.42 432.9 165.92 442.18 166.12 
M 416.78 167.24 427.69 167.3 430.62 167.74 433.41 168.86 438.21 170.08 440.87 170.19 445.38 171.3 448.91 170.9 
M 407.58 165.17 416.99 169.66 420.77 169.93 423.87 169.42 426.87 169.22 429.7 170.08 433.83 171.71 
M 413.98 170.4 417.09 171.82 420.53 172.31 424.01 171.74 430.19 172.94 
M 414.08 172.35 417.28 174.02 420.41 174.09 423.05 173.87 426.04 175.64 433.53 177.16 437.56 177.43 442.74 179.21 
M 407.58 170.23 414.47 174.4 417.54 175.77 420.54 176.02 423.5 176.93 426.94 178.85 430.03 179.68 433.59 180.07 436.59 181.04 
M 414.75 176.31 418.1 177.89 423.95 179.97 429.27 182.55 432.77 182.83 437.12 184.13 443.01 186.7 446.16 188.98 
M 411.49 176.07 417.84 179.61 423.55 182.3 426.36 183.14 429.27 184.24 431.97 185.75 442.42 190.09 445.29 192.32 448.45 194.15 451.28 195.24 
M 414.64 179.81 420.42 183.16 423.11 184.29 429.04 186 432.32 189.73 435.31 191.02 437.97 192.44 
M 414.14 181.5 417.24 183.24 419.57 184.97 422.32 186.45 427.84 188.29 429.88 190.64 431.63 191.89 434.02 194.01 437.15 196.45 443.18 199.59 445.14 201.58 
M 53.74 144.75 54.87 143.73 57.28 142.03 63.64 138.54 67.82 136.53 84.28 131.06 90.35 129.27 102.4 124.75 108.91 122.78 115.32 120.45 121.66 118.52 127.65 117.31 139.65 115.37 142.94 120.02 145.22 133.09 145.4 137.37 144.14 145.69 142.88 149.77 141.17 153.78 140.6 157.95 141.53 162.33 142.02 166.65 140.04 174.88 139.42 179.04 138.52 183.17 136.87 187.18 134.5 191.1 128.68 194.54 118.82 194.45 111.55 193.86 104.88 192.74 98.47 191.18 92.36 189.13 86.68 186.65 81.46 183.94 72.45 178.29 68.31 175.3 64.05 171.3 
M 122.21 140.39 120.94 143.86 118.96 147.12 117.77 150.33 117.76 153.51 117.43 156.41 116.18 158.91 115.32 161.38 115.3 163.88 115.68 166.39 115.72 169.13 115.37 172.04 112.38 174.96 101.26 175.73 96.58 175.68 91.69 175.29 86.71 174.29 81.93 172.61 77.5 170.36 
M 62.82 170.35 58.53 163.45 50.27 148.95 49.79 146.6 51.26 144.76 53.81 144.75 55.57 146.66 56.46 148.98 57.76 153.47 60 160.1 64.44 171.1 
M 63.88 171.76 54.67 169.86 33.69 164.82 31.27 164 30 161.82 30.83 159.36 33.18 158.38 55.28 167.51 64.16 170.87 
M 87.89 147 87.11 144.03 87.33 140.98 88.53 138.16 90.58 135.89 93.26 134.4 96.28 133.87 99.31 134.34 102.01 135.78 104.11 138.01 105.37 140.8 105.65 143.85 104.93 146.83 103.28 149.41 100.88 151.31 97.99 152.33 94.93 152.37 92.03 151.4 89.59 149.54 87.89 147 
M 87.78 146.73 87.17 144.52 87.12 142.21 87.64 139.97 88.69 137.93 89.4 137.02 91.12 135.49 92.11 134.9 94.27 134.11 95.41 133.92 97.71 133.97 99.93 134.58 
M 89.57 145.99 89.08 144.24 89.01 143.33 89.05 142.41 89.41 140.79 
M 91.56 137.61 93 136.63 93.84 136.26 95.61 135.85 97.43 135.89 99.19 136.37 
M 92.98 144.7 92.67 143.52 92.75 142.37 
M 94.05 140.26 95.13 139.67 96.33 139.45 97.55 139.64 98.63 140.21 99.47 141.11 99.97 142.22 100.08 143.44 99.79 144.63 99.13 145.67 98.18 146.43 97.02 146.84 95.8 146.85 94.63 146.46 93.66 145.72 92.98 144.7 
M 94.59 139.96 94.31 140.54 
M 93.27 142.6 92.72 143.71 
M 96.3 139.46 95.25 141.56 
M 94.52 143.02 93.38 145.3 
M 97.64 139.69 96.19 142.59 
M 95.86 143.24 94.36 146.25 
M 98.76 140.35 95.55 146.77 
M 99.64 141.5 96.97 146.84 
M 100.05 143.6 98.93 145.83 
M 64.17 171.24 66.21 173.28 
M 60.71 161.95 61 162.25 
M 54.48 144.09 59.98 149.59 
M 57.88 141.68 61.18 144.98 
M 61.63 139.6 65.85 143.83 
M 65.49 137.65 69.91 142.07 
M 69.58 135.93 73.22 139.57 
M 73.94 134.46 77.13 137.65 
M 78.33 133.04 82.58 137.29 
M 82.69 131.58 86.36 135.25 
M 87.14 130.21 92.02 135.09 
M 91.56 128.81 96.68 133.93 
M 95.77 127.2 100.1 131.53 
M 100.01 125.63 103.32 128.93 
M 104.36 124.16 109.44 129.24 
M 108.82 122.8 114.51 128.49 
M 113.09 121.26 116.49 124.65 
M 117.46 119.8 121.94 124.29 
M 121.94 118.47 125.16 121.69 
M 126.78 117.49 130.04 120.75 
M 131.76 116.66 136.6 121.49 
M 136.78 115.86 141.98 121.05 
M 124.99 147.77 121.56 146.1 121.32 145.22 121.57 144.57 
M 138.82 181.81 137.51 181.43 136.77 181.37 
M 105.13 148.81 107.71 146.65 109.09 145.98 109.75 145.81 111.55 145.86 113.54 144.99 114.13 145.02 
M 115.92 120.27 115.38 121.86 114.19 123.54 
M 74.23 168.98 73.25 169.45 70.36 170.07 69.03 169.69 68.37 169.03 
M 127.29 153.77 126.65 153.98 126.08 153.95 125.57 153.73 123.85 152.36 120.48 150.48 120.25 150.16 120.15 149.21 
M 58.04 147.51 55.66 146.9 
M 139.73 174.26 138.54 178.08 138.06 178.85 137.1 179.46 135.5 179.94 134.48 180.42 132.63 181.46 
M 88.04 163.38 87.37 162.93 84.54 162.26 82.45 162.32 79.14 161.72 77.76 161.87 76.29 162.38 
M 56.71 148.28 56.16 148.21 
M 63.69 138.51 63.72 140.05 64.4 141.7 65.87 143.4 67.07 144.07 67.98 144.82 
M 87.03 137.64 88.54 138.15 
M 108.8 148.06 113.2 145.37 113.85 145.13 116.58 145.32 118.79 144.53 
M 91.46 155.02 92.48 157.4 94.2 160.4 95.38 161.61 97.5 162.85 97.66 163.14 97.66 163.71 
M 123.32 137.66 127.2 138.9 127.69 139.43 128.02 140.58 
M 102.25 180.44 103.14 179.6 103.73 179.26 107.3 178.54 109.34 177.9 111.74 177 113.24 176.14 
M 84.35 135.91 84.69 135.46 84.59 134.69 83.9 134.29 82.63 133.94 
M 124.77 142.99 125.33 142.85 126.09 143.01 126.14 143.33 125.64 143.72 
M 93.98 152.05 93.94 153.15 94.13 154.36 95.81 160.09 96.32 160.91 98.11 162.21 
M 61.31 159.96 61.6 156.8 62 155.91 63.17 154.32 64.62 153.51 65.39 153.39 67.57 153.59 68.16 153.44 69.46 152.68 
M 112.12 128.46 110.93 127.84 110.62 127.89 110.52 128.22 
M 63.24 160.77 63.53 159.72 64.07 158.6 65.88 155.89 66.75 154.84 68.97 153.35 70.08 152.37 70.32 151.64 70.13 150.66 
M 101.25 163.31 98.46 165.58 96.99 166.98 95.82 167.38 93.88 167.42 
M 109.76 125.33 110.57 124.22 111.51 123.37 112.21 123.15 113.13 123.6 
M 92.05 151.41 92.05 151.66 
M 65.03 151.83 66.93 153 68.1 153.11 69.72 152.21 70.07 151.64 70.06 150.75 
M 88.29 187.36 88.9 185.29 89.33 184.47 90.17 183.43 90.19 183.04 
M 109 186.21 108.41 184.06 108.49 183.31 108.8 182.82 110.56 182.1 110.97 182.13 111.43 182.5 
M 84.92 169.39 84.61 168.18 83.63 166.5 79.81 164.45 78.93 164.28 77.98 164.33 76.92 164.66 74.38 166.2 
M 90.1 135.65 91.06 135.63 
M 120.52 168.24 118.59 165.39 117.63 162.64 117.65 162.02 
M 60.01 160.11 60.3 159.37 60.84 156.46 62.31 153.94 62.81 153.42 64.14 152.88 65.39 152.86 66.65 153.19 
M 141.09 127.81 138.36 129.2 137.96 129.21 137.55 128.74 136.66 126.87 136.41 125.89 136.33 124.6 
M 140.23 171.84 139.27 175.52 138.13 178.13 137.31 178.79 134.74 179.45 133.57 179.98 
M 91.27 135.24 91.9 135.16 
M 97.97 169.98 95.94 171.52 93.8 172.63 91.59 173.54 90.84 173.45 89.08 172.54 87.98 170.58 
M 128.43 184.47 129.12 183.94 129.37 183.43 129.43 181.45 129.24 180.72 
M 112.86 164.09 113.26 164.37 116.25 165.16 117.31 164.63 117.63 164.03 117.65 163.19 
M 131.22 145.04 130.49 145.42 129.62 145.63 127.97 145.55 125.58 144.62 124.79 144.09 
M 125.5 130.72 123.32 130.92 121.27 130.25 120.02 130.62 
M 100.5 172.32 99.91 174.32 99.35 175.12 98.84 175.45 96.66 176.42 96.09 176.5 94.37 176.21 93.38 176.46 
M 96.41 163.88 96.87 163.87 97.08 164.17 96.81 164.74 96.41 164.86 
M 139.03 115.47 139.29 116.29 139.16 116.98 
M 102.95 131.89 104.96 129.65 106 128.07 108.91 125.28 110.48 123.36 
M 64.78 151.35 66.38 152.7 67.53 153.13 68.09 153.09 69.29 152.52 69.95 151.92 70.12 151.35 
M 60.15 160.5 60.37 159.89 60.77 156.95 61.14 156.02 62.65 153.7 63.29 153.3 64.63 152.88 66.56 153.2 
M 132.15 144.76 131.6 145.28 130.82 145.67 129.9 145.89 128.98 145.88 127.53 145.62 124.97 144.28 
M 66.37 172.83 67.24 172.59 67.59 172.16 
M 64.2 171.22 64.94 172.73 
M 60.78 167.13 60.44 167.5 60.08 168.41 60.69 168.03 61.31 167.97 
M 57.91 162.34 56.49 163.41 55.66 164.97 56.75 163.94 58.53 163.45 
M 55.14 157.6 52.55 159.32 51.23 161.53 52.8 159.85 55.86 158.81 
M 52.54 152.8 48.6 155.23 46.81 158.09 48.86 155.76 53.25 154.11 
M 50.06 147.95 44.66 151.14 42.38 154.65 44.91 151.67 50.54 149.43 
M 63.91 171.65 65.43 172.17 
M 59.15 168.93 59.47 168.6 60.23 168.23 60.02 168.79 60.08 169.29 
M 53.8 166.9 54.71 165.44 55.96 164.6 55.26 165.63 55.08 167.43 
M 48.64 164.76 49.95 162.28 51.68 160.98 50.5 162.47 50 165.32 
M 43.49 162.68 45.19 159.12 47.41 157.35 45.74 159.31 44.89 163.23 
M 38.38 160.51 40.42 155.97 43.13 153.73 40.97 156.15 39.78 161.12 
M 33.25 158.4 35.66 152.81 38.85 150.1 36.21 152.99 34.68 158.94 
M 41.08 166.57 46.66 169.9 51.46 172.42 56.41 174.6 61.42 176.47 66.5 178.11 76.72 181.06 
M 64.46 177.45 64.48 177.35 
M 140.41 115.21 148.86 123.66 
M 147.16 114.21 154.05 121.1 
M 153.94 113.24 164.04 123.33 
M 160.76 112.3 169.99 121.53 
M 167.79 111.57 177.4 121.18 
M 174.93 110.95 184.38 120.4 
M 182.28 110.55 192.06 120.33 
M 189.73 110.24 198.71 119.21 
M 197.22 109.97 204.44 117.19 
M 204.74 109.73 211.11 116.1 
M 212.33 109.56 223.27 120.51 
M 220.01 109.49 226.47 115.94 
M 227.88 109.61 234.87 116.6 
M 236.12 110.09 243.57 117.53 
M 244.68 110.89 251.38 117.59 
M 253.53 111.98 262.67 121.13 
M 262.5 113.19 272.1 122.8 
M 271.57 114.51 281.29 124.22 
M 280.74 115.92 288.96 124.14 
M 289.99 117.42 296.59 124.01 
M 299.26 118.92 310.85 130.52 
M 308.5 120.41 316.65 128.56 
M 317.89 122.04 325.94 130.09 
M 327.7 124.1 336.6 132.99 
M 338.04 126.68 346.8 135.44 
M 348.91 129.79 359.2 140.08 
M 359.88 133 370.22 143.34 
M 370.47 135.83 380.43 145.8 
M 380.71 138.32 386.86 144.47 
M 390.91 140.76 397.03 146.88 
M 401.23 143.33 409.07 151.17 
M 413.76 148.1 417.37 151.71 
M 180.75 106.77 181.62 108.51 
M 182.56 101.66 185.59 107.73 
M 184.8 97.41 186.96 101.75 
M 187.41 93.92 190.45 99.99 
M 189.98 90.34 190.85 92.07 
M 206.47 97.13 207.34 98.87 
M 206.43 88.32 211.63 98.72 
M 212.5 100.46 213.37 102.19 
M 208.47 83.68 215.41 97.55 
M 216.28 99.29 218.01 102.76 
M 207.86 73.72 209.16 76.32 
M 211.76 81.53 223.03 104.07 
M 211.02 71.31 212.32 73.92 
M 216.65 82.59 225.33 99.93 
M 214.58 69.71 215.01 70.58 
M 219.35 79.25 227.16 94.86 
M 224.46 80.75 225.33 82.49 
M 227.06 85.96 229.67 91.16 
M 230.53 92.89 231.4 94.63 
M 238.34 108.51 239.25 110.32 
M 240.49 104.08 243.84 110.79 
M 231.1 76.58 231.97 78.31 
M 232.84 80.05 233.71 81.78 
M 245.85 106.07 248.48 111.34 
M 230.88 67.41 231.75 69.14 
M 232.62 70.88 236.95 79.55 
M 250.83 107.3 253.14 111.93 
M 234.07 65.05 240.57 78.06 
M 242.31 81.53 243.17 83.27 
M 250.11 97.14 252.71 102.35 
M 254.45 105.82 255.31 107.55 
M 237.72 63.64 245.96 80.11 
M 249.43 87.05 258.97 106.13 
M 241.57 62.61 248.94 77.35 
M 252.41 84.29 255.01 89.49 
M 255.88 91.23 261.95 103.37 
M 246.88 64.49 251.21 73.17 
M 255.55 81.84 256.42 83.57 
M 257.28 85.31 266.82 104.39 
M 260.17 82.35 268.84 99.7 
M 264.44 82.17 265.31 83.91 
M 267.04 87.37 267.91 89.11 
M 268.78 90.84 269.65 92.58 
M 271.38 96.05 272.25 97.78 
M 265.86 76.27 266.72 78.01 
M 269.99 75.81 270.42 76.68 
M 271.29 78.41 273.02 81.88 
M 273.83 74.77 276 79.1 
M 287.27 101.65 293.34 113.79 
M 294.21 115.53 295.13 117.37 
M 279.19 76.75 279.62 77.62 
M 291.76 101.9 298.7 115.78 
M 294.02 97.68 301.82 113.29 
M 297.14 95.21 299.74 100.41 
M 300.61 102.15 304.95 110.82 
M 217.43 291.39 215.54 297.7 
M 217.43 291.39 220.13 291.39 220.94 291.7 221.27 292.6 221 293.5 220.13 294.39 219.14 294.7 216.44 294.7 
M 225.83 294.39 225.71 293.8 224.9 293.5 224 293.5 223.01 293.8 222.53 294.39 222.65 295 223.16 295.3 224.57 295.6 225.08 295.89 225.11 296.8 224.63 297.39 223.64 297.7 222.74 297.7 221.93 297.39 221.81 296.8 
M 227.36 295.3 230.96 295.3 231.14 294.7 231.02 294.1 230.3 293.5 229.4 293.5 228.71 293.8 227.93 294.39 227.36 295.3 227.18 295.89 227.21 296.8 227.63 297.39 228.14 297.7 229.04 297.7 229.73 297.39 230.51 296.8 
M 233.6 293.5 232.7 296.5 232.73 297.39 233.24 297.7 234.14 297.7 234.83 297.39 236 296.5 
M 236.9 293.5 235.64 297.7 
M 240.23 291.39 238.7 296.5 238.73 297.39 239.24 297.7 239.84 297.7 
M 238.7 293.5 240.8 293.5 
M 242.06 295.3 245.66 295.3 245.84 294.7 245.72 294.1 245 293.5 244.1 293.5 243.41 293.8 242.63 294.39 242.06 295.3 241.88 295.89 241.91 296.8 242.33 297.39 242.84 297.7 243.74 297.7 244.43 297.39 245.21 296.8 
M 249.23 291.39 247.7 296.5 247.73 297.39 248.24 297.7 248.84 297.7 
M 247.7 293.5 249.8 293.5 
M 253.1 293.5 252.41 293.8 251.63 294.39 251.06 295.3 250.88 295.89 250.91 296.8 251.33 297.39 251.84 297.7 252.74 297.7 253.43 297.39 254.21 296.8 254.78 295.89 254.96 295.3 254.93 294.39 254.51 293.8 254 293.5 253.1 293.5 
M 258.23 291.39 256.34 297.7 
M 263.3 293.5 262.03 297.7 
M 263.02 294.39 262.61 293.8 262.1 293.5 261.2 293.5 260.51 293.8 259.73 294.39 259.15 295.3 258.98 295.89 259.01 296.8 259.43 297.39 259.94 297.7 260.84 297.7 261.52 297.39 262.31 296.8 
M 268.1 293.5 268.64 297.7 
M 271.7 293.5 268.64 297.7 
M 276.8 293.5 275.54 297.7 
M 276.52 294.39 276.11 293.8 275.6 293.5 274.7 293.5 274.01 293.8 273.23 294.39 272.66 295.3 272.48 295.89 272.51 296.8 272.93 297.39 273.44 297.7 274.33 297.7 275.02 297.39 275.81 296.8 
M 279.83 291.39 277.94 297.7 
M 278.93 294.39 279.7 293.8 280.39 293.5 281.3 293.5 281.81 293.8 282.23 294.39 282.26 295.3 282.08 295.89 281.51 296.8 280.73 297.39 280.04 297.7 279.14 297.7 278.63 297.39 278.2 296.8 
M 285.23 291.39 285.44 291.7 285.83 291.39 285.62 291.1 285.23 291.39 
M 284.89 293.5 283.64 297.7 
M 290.33 294.39 289.9 293.8 289.39 293.5 288.5 293.5 287.81 293.8 287.02 294.39 286.45 295.3 286.27 295.89 286.31 296.8 286.73 297.39 287.24 297.7 288.14 297.7 288.83 297.39 289.61 296.8 
M 292.7 293.5 291.8 296.5 291.83 297.39 292.33 297.7 293.24 297.7 293.93 297.39 295.1 296.5 
M 296 293.5 294.74 297.7 
M 301.13 294.39 301.01 293.8 300.2 293.5 299.3 293.5 298.31 293.8 297.83 294.39 297.95 295 298.45 295.3 299.87 295.6 300.38 295.89 300.4 296.8 299.93 297.39 298.94 297.7 298.04 297.7 297.23 297.39 297.11 296.8 
M 302.72 297.1 302.33 297.39 302.54 297.7 302.93 297.39 302.72 297.1 
"/></svg>
