<svg xmlns="http://www.w3.org/2000/svg" width="520" height="320"><rect x="0" y="0" width="520" height="320" fill="floralwhite"/><rect x="10" y="10" width="500" height="300" stroke="black" stroke-width="1" fill="none"/><path stroke="black" stroke-width="1" fill="none" stroke-linecap="round" stroke-linejoin="round" d="
M 156.39 140.56 166 136.28 174.15 133.02 190.63 126.95 199.18 124.94 207.94 124.4 216.72 124.07 234.17 122.17 242.92 121.45 251.7 121.27 260.46 121.93 269.19 122.87 286.71 123.98 295.38 125.34 312.56 128.97 321.06 131.18 329.49 133.65 337.82 136.42 345.96 139.71 353.88 143.49 361.59 147.7 382.04 159.46 
M 382.04 193.68 369.91 200.01 354.14 207.72 346.33 211.73 338.43 215.56 322.37 222.66 314.47 226.49 298.91 234.64 290.88 238.18 282.67 241.3 274.29 243.9 265.58 245 256.8 245 248.02 244.67 239.35 243.33 221.92 241.16 213.29 239.56 204.73 237.61 196.34 235.02 188.22 231.68 180.33 227.82 165.23 219.54 
M 179.29 167.82 183.21 166.8 184.79 166.7 
M 188.07 166.63 191.38 166.64 
M 202.87 165.51 205.99 165.63 
M 212.05 165.72 214.93 165.61 
M 232.66 164.36 236.71 164.03 239.59 164.13 243.97 164.59 
M 246.89 164.99 249.93 165.65 
M 253.22 166.65 259.96 168.94 
M 263.24 170.02 264.86 170.54 267.83 171.2 269.12 171.24 
M 271.57 171.2 275.16 170.94 280.51 170.88 285.21 171.47 
M 292.65 173.22 294.58 173.69 298.15 174.24 301.5 174.46 304.67 174.39 310.84 173.84 313.8 173.4 317.83 172.21 
M 320.41 171.3 330.9 167.51 
M 333.78 166.8 341.73 165.78 358.14 165.28 361.37 165.32 372.69 165.9 
M 375.93 166.21 382.04 167 
M 160.79 143.46 159.64 145.43 
M 170.24 134.59 169.67 136.06 
M 164.17 152.04 162.76 154.31 
M 178.36 132.72 177.05 135.67 
M 174.93 142.1 174.2 145.65 
M 173.17 153.18 172.81 154.95 172.11 156.38 
M 167.19 164.22 165.6 167.03 
M 166.82 184.86 166.72 186.99 
M 167.74 194.7 169.01 200.42 
M 187.54 128.08 186.95 129.2 
M 182.69 141.78 181.96 145.3 
M 180.63 152.49 179.83 155.96 
M 176.23 165.11 174.57 168.52 
M 175.3 197.17 176.16 202.75 
M 176.72 205.64 177.47 208.71 
M 178.53 212.08 181.2 219.43 
M 195.68 126.55 194.21 129.15 
M 188.61 144.59 187.95 148.19 
M 186.27 155.07 185.75 156.69 183.83 161.19 
M 182.47 164.89 181.75 167.09 
M 182.51 192.64 182.86 197.17 
M 184.49 206.15 185.22 209.28 
M 186.01 212.47 187.63 217.73 189.6 223.39 
M 190.85 227.74 191.54 230.29 
M 203.44 128.29 202.06 131.02 
M 200.83 133.96 199.75 137.08 
M 198.65 140.23 196.9 144.9 195.39 149.86 
M 194.41 153.21 192.26 161.9 191.49 164.28 
M 191.84 200.67 192.18 203.54 
M 192.53 206.37 193.17 209.46 
M 196.78 220.52 197.27 222.27 198.38 228.52 199.67 233.31 
M 210.08 137.55 206.28 146.56 
M 204.82 149.45 203.33 152.31 
M 200.76 158.51 199.2 163.55 198.72 165.59 
M 200.4 198.7 202.56 209.79 205.1 218.57 
M 206.31 224.92 206.95 229.49 207.4 231.27 
M 208.33 234.76 208.81 236.48 
M 224.72 125.82 223.29 130.21 221.52 134.51 
M 218.97 140.28 216.43 146.26 
M 215.33 149.48 214.15 152.65 
M 210.99 158.27 209.36 161.06 
M 207.92 164.09 207.25 165.68 
M 207.44 188.8 207.5 190 
M 208.28 196.25 212.26 213.13 
M 213.82 219.73 215.32 226.42 
M 217.95 237.4 218.22 239.34 
M 233.42 124.71 231.92 130.85 
M 229.81 136.78 228.58 139.68 
M 227.21 142.48 226.48 143.85 222.81 148.74 221.14 151.41 220.52 152.98 
M 219.37 156.22 217.63 161.11 215.53 165.61 
M 217.51 194.86 218.5 199.93 219.65 207.61 
M 220.09 210.57 220.69 213.66 
M 221.55 217.03 224.69 227.94 
M 225.84 231.74 227.2 237.14 227.63 239.45 
M 240.23 130 238.48 136.04 
M 237.52 139.09 236.32 141.98 
M 234.83 144.65 231.41 149.72 
M 228.24 155.25 225.49 161.33 
M 225.59 182.43 225.7 183.06 
M 227.9 199.41 228.24 203.77 228.02 208.72 228.47 211.67 230.78 220.34 
M 231.73 223.9 232.73 227.54 
M 233.7 231.19 236.3 241.61 
M 248.99 123.97 248.72 127.24 
M 248.3 130.46 248.02 132.01 247.12 134.9 245.59 141.13 245.05 142.58 
M 243.78 145.34 242.23 147.86 
M 238.82 152.81 236.23 156.63 232.78 163.43 
M 235.37 189.81 235.79 193.1 
M 236.11 196.25 236.37 199.28 
M 236.53 202.17 236.7 207.63 
M 236.96 210.46 238.34 218.23 239.93 223.76 
M 242.58 231.78 245.86 243.57 
M 254.1 137.76 253.1 142.45 252.26 145.48 250.72 149.87 
M 249.48 152.64 248.8 153.98 247.04 156.33 242.8 160.45 240.47 163.5 
M 242.41 182.98 243.53 188.48 244.32 193.55 
M 244.7 196.74 245.3 204.16 244.98 207.79 
M 245.08 210.46 245.27 211.93 246.75 217.27 
M 247.94 221.07 249.28 225.05 
M 250.83 229.26 252.3 233.42 
M 253.36 237.19 253.77 238.96 254.63 244.92 
M 261.09 139.66 260.2 142.48 
M 259.23 145.27 258.25 148.08 
M 257.3 150.98 256.34 153.92 
M 255.15 156.67 254.44 157.95 250.6 162.2 248.19 165.18 
M 252.53 194.11 253.34 203.08 
M 253.81 206.19 256.01 216.13 
M 256.63 219.33 256.98 220.97 258.69 226.62 
M 260.08 230.66 261.91 236.49 262.58 239.85 263.33 245 
M 272.11 130.91 271.25 133.67 
M 267.07 144.06 263.53 149.79 262.36 152.38 260.83 158.49 259.93 161.47 257.48 168.12 
M 259.26 188.19 260.16 194.51 
M 260.68 197.7 261.78 204.06 
M 262.3 207.17 263.25 213.24 
M 264.71 219.82 265.78 223.48 
M 267.06 227.36 269.69 235.21 
M 270.77 238.92 271.74 242.52 
M 280.17 129.83 279.11 132.53 
M 276.69 141.19 274.7 146.52 
M 273.45 148.93 269.69 154.37 269.14 155.67 
M 268.24 158.49 267.88 160.01 266.97 166.67 266.59 171.04 
M 268.08 192.59 268.67 195.77 
M 270.71 208.02 271.31 211.16 
M 272.88 217.8 278.41 234.84 279.86 240.15 
M 285.94 134.33 284.61 136.84 
M 282.55 146.02 282.36 147.69 281.69 150.71 280.68 153.37 276.67 162.24 
M 275.62 164.89 274.66 167.64 
M 273.91 170.05 273.62 171.06 
M 274.57 178.48 275.22 181.69 
M 275.93 184.93 276.48 188.01 
M 277 191.04 278.01 197.04 
M 278.84 205.34 280.77 216.04 281.83 220.89 
M 282.65 224.23 287.06 238.58 
M 292.63 139.67 290.95 143.83 290.52 145.32 
M 289.16 151.55 288.12 156.13 286.42 161.85 285.2 164.33 281.04 170.9 
M 282.68 181.12 284.26 187.53 
M 285.13 190.81 286.25 195.53 286.55 198.24 286.81 203.34 287.39 208.82 288.29 214.71 289.25 219.45 
M 290.13 222.84 291.92 228.4 294.71 236.09 
M 302.61 139.58 301.93 140.96 300.24 145.35 
M 299.16 148.26 298.07 151.11 
M 297 153.94 296.49 155.36 295.31 159.92 
M 294.67 163.07 294.02 166.2 
M 293.1 169.03 292.53 170.33 290.7 172.75 
M 291.96 179.9 292.56 182.82 
M 293.12 185.71 294.63 194.2 
M 294.9 196.81 294.96 198.05 294.36 204.61 294.45 209.6 294.71 212.36 295.27 215.44 296.21 218.88 297.46 222.64 300.44 230.17 
M 309.78 144.47 307.88 148.77 306.87 151.84 304.55 157.58 303.55 160.54 303.23 162.19 
M 302.7 165.58 302 170.69 300.85 174.44 
M 302.91 184.47 303.76 188.72 303.83 189.93 
M 303.8 192.18 303.54 194.22 
M 303.32 196.3 303.23 198.54 
M 303.13 200.8 302.38 208.5 302.63 211.24 303.39 214.5 304.44 218.04 306.77 224.55 
M 315.05 151.62 313.39 156.2 312.5 159.43 311.74 162.75 310.67 169.74 309.65 173.95 
M 311.32 181.24 311.79 183.95 
M 312.03 193.2 311.84 196.44 312.14 206.15 313.82 215.19 315.15 220.58 
M 329.15 137.46 327.86 140.6 
M 326.71 143.86 325.67 147.18 
M 323.33 153.47 320.45 161.17 319.46 164.36 318.14 169.99 
M 319.1 179.29 319.44 181.85 
M 319.69 184.31 320.27 190.44 322.93 205.72 
M 323.03 208.2 323.02 210.6 
M 323.37 213.41 324.36 217.08 
M 333.03 148.32 332.34 149.83 329.24 155.45 328.69 157.06 
M 327.66 160.34 325.59 167.51 
M 326.25 176.49 327.08 181.68 
M 327.55 184.34 328.54 188.63 331.22 198.04 332.32 202.59 
M 333.01 205.6 335.49 215.11 
M 344.87 141.04 343.63 144.31 
M 341.31 150.92 340.7 152.53 339.15 155.39 335.58 160.6 332.39 167.05 
M 333.84 173.96 334.71 178.08 336.49 184.22 343.52 204.76 344.35 207.94 344.97 211.18 
M 352.01 147.61 349.54 151.83 347.29 156.26 
M 345.72 159.13 342.13 164.45 
M 344.38 178.77 347.99 188.98 
M 349.26 192.49 351.02 197.64 353.32 206.07 
M 363.14 149.55 361.09 151.95 
M 359.09 154.39 356.21 158.16 352.56 163.4 350.7 165.53 
M 351.15 169.26 352.41 174.87 
M 353.3 177.94 355.72 184.77 
M 357.22 188.5 359.14 193.81 361.12 200.69 
M 367.05 157.8 359.62 165.27 
M 361.08 172.21 363.23 179.85 368.57 195.28 
M 299.68 223.94 299.41 222.03 298.93 221.36 298.55 221.27 
M 342.15 138.17 342.82 138.86 343.09 138.88 343.33 138.65 
M 230.23 141.16 228.84 139.04 228.73 138.5 229.25 135.04 228.9 134.18 
M 277.26 135.49 276.58 136.09 274.24 139.33 272.9 139.94 272.56 140.27 
M 279.35 169.85 279.47 169.18 280.49 166.96 280.4 165.59 280.13 165.17 
M 265.23 133.09 264.54 134.55 263.81 135.3 
M 238.63 158.6 238.31 157.82 237.19 156.53 235.11 153.21 233.3 151.75 232.1 151.56 
M 239.57 238.79 239.26 236.16 238.64 235.05 237.88 234.63 
M 191.13 205.39 192.86 207.81 193.7 208.42 195.3 208.62 196.1 208.19 
M 188.52 202.49 189.84 198.9 189.77 197.16 189.25 196.22 187.9 195.28 187.2 194.54 
M 255.51 167.03 254.89 165.95 254.12 165.21 253.06 164.32 251.52 163.43 250.61 163.11 249.67 163.01 248.17 163.11 246.98 163.46 
M 210.77 233.37 211.59 233.99 211.7 234.43 211.52 234.64 
M 295.03 125.55 296.26 125.52 
M 296.78 125.62 298.38 126.49 299.26 126.33 
M 287.99 183.45 288.22 184.2 288.12 184.37 287.81 184.38 
M 269.64 203.27 268.3 200.73 267.72 200 267.11 199.45 266.2 199.13 264.89 199.3 263.84 199.91 263.29 200.42 262.49 201.69 
M 212.33 161.27 211.92 161.14 211.54 161.48 210.85 162.3 209.78 164.07 
M 288.67 153.46 289.15 151.37 290.02 150.18 290.45 149.99 292.29 150.27 293.32 150.17 
M 232.82 185.96 230.52 185.87 229.09 185.42 228.56 184.75 228.23 183.73 227.48 182.41 
M 300.34 212.03 300.71 213.56 300.65 214.23 300.22 215.47 300.27 216.86 
M 195.98 201.93 195.25 201.39 194.82 200.87 193.52 197.16 193.36 196.37 193.4 193.62 
M 237.03 161.29 238.02 159.29 238.06 158.27 235.38 153.6 234.11 152.41 
M 254.78 143.8 254.16 143.21 253.34 141.84 251.56 137.11 250.83 136.19 
M 360.38 186.3 361 187.41 
M 297.85 154.79 298.9 151.96 299.14 150.25 299.84 147.88 300.79 146.11 
M 303.86 194.2 303.7 193.67 303.73 192.78 304.24 191.85 305.16 189.26 305.53 186.66 
M 376.12 156.83 374.51 155.98 373.78 155.82 372.54 155.87 371.07 156.25 368.76 156.2 
M 286.86 144.91 286.04 142.85 285.71 141.24 285.95 139.26 286.19 138.93 286.76 138.61 
M 340.74 181.76 338.64 180.08 335.46 178.92 330.45 175.75 329.57 175.38 328.34 175.2 
M 222.93 220.23 222.21 220.49 219.95 221.92 216.32 223.81 213.6 225.51 
M 268.91 210.46 268.82 208.81 268.06 207.62 267.74 206.37 
M 219.98 230.8 217.29 233.51 214.25 235.5 212.97 235.95 212.22 235.85 211.58 235.53 
M 234.86 163.63 234.84 161.46 234.58 160.75 232 156.41 231.24 155.6 
M 257.22 134.56 256.53 130.43 256.11 128.96 255.77 128.33 255.27 127.92 253.17 127.36 
M 245.18 120.36 315.58 30 316.2 30.47 248.04 121.23 
M 256.85 120.84 300.15 59.39 300.8 59.83 259.57 121.83 
M 268.43 122.22 290.52 85.37 291.2 85.75 271.17 123.06 
M 280.08 122.88 288.37 106.99 289.08 107.31 282.84 123.55 
M 289.97 123.99 291.29 124.49 
M 309.32 39.63 305.43 44.92 303.62 47.64 300.46 53.31 297.93 59.31 295.82 65.53 
M 296.63 66.09 293.84 70.85 291.49 75.77 289.81 80.94 289.22 83.61 288.31 89.05 
M 289.17 89.54 287.8 93.68 286.91 97.87 286.73 102.11 286.9 104.26 287.54 108.58 
M 288.44 108.98 287.97 112.54 287.98 116.03 288.69 119.41 290.82 124.32 
M 307.35 42.26 303.62 47.64 300.46 53.31 299.12 56.27 296.85 62.41 
M 303.06 48.42 299.62 53.38 296.7 58.61 295.47 61.34 293.37 67 
M 298.76 54.58 295.62 59.12 292.94 63.91 291.82 66.41 289.9 71.59 
M 294.47 60.73 291.61 64.86 289.19 69.2 288.16 71.48 286.42 76.18 
M 290.18 66.89 287.61 70.59 285.43 74.5 284.51 76.54 282.94 80.77 
M 285.88 73.05 282.59 78.04 280.86 81.61 279.47 85.36 
M 281.59 79.2 279.6 82.07 277.92 85.1 275.99 89.95 
M 277.3 85.36 275.6 87.81 274.16 90.39 272.51 94.54 
M 273 91.52 270.97 94.6 269.9 96.81 269.04 99.13 
M 295.21 68.46 292.59 73.28 290.56 78.32 289.81 80.94 288.73 86.32 
M 290.81 75.99 288.56 80.14 287.62 82.28 286.18 86.72 285.25 91.35 
M 286.42 83.53 284.54 87 283.74 88.79 282.54 92.51 281.76 96.39 
M 282.03 91.06 279.87 95.3 278.9 98.3 278.27 101.42 
M 277.64 98.6 276 101.81 275.26 104.09 274.79 106.45 
M 288.45 91.61 287.27 95.77 286.91 97.87 286.73 102.11 287.19 106.41 
M 283.92 102.66 282.92 106.73 282.81 109.49 283.1 112.29 
M 169.45 167.1 261.09 167.78 261.1 168.56 169.46 169.92 
M 169.54 170.23 248.54 175.88 248.5 176.66 169.37 173.04 
M 169.62 173.36 235.78 182.42 235.69 183.2 169.28 176.16 
M 169.71 176.5 222.95 187.39 222.8 188.16 169.2 179.27 
M 169.8 179.65 210.19 190.81 210 191.57 169.11 182.38 
M 169.88 182.8 197.65 192.68 197.41 193.43 169.03 185.48 
M 169.96 185.95 185.46 193.05 185.18 193.78 168.95 188.57 
M 170.04 189.74 173.78 192.58 173.45 193.29 168.86 192.3 
M 251.93 168.7 247.48 169.74 244.88 171.05 242.64 172.98 240.64 175.32 
M 240.59 176.3 237.63 176.55 234.87 177.22 232.41 178.55 229.17 181.52 
M 229.05 182.49 226.19 182.39 223.48 182.73 221 183.75 217.62 186.3 
M 217.44 187.27 213.39 186.76 210.85 187.11 208.45 188.17 206.15 189.69 
M 205.91 190.65 203.36 189.88 200.86 189.58 198.42 190 194.87 191.69 
M 194.57 192.63 192.23 191.56 189.88 190.96 187.5 191.08 183.91 192.34 
M 183.56 193.26 181.4 192.04 179.19 191.3 176.92 191.27 173.4 192.3 
M 250.41 168.97 247.48 169.74 244.88 171.05 243.72 171.94 241.63 174.12 
M 231.52 169.23 229.28 169.82 227.28 170.82 226.39 171.51 224.79 173.18 
M 212.63 169.49 210.35 170.2 209.06 171.07 207.95 172.23 
M 239.1 176.39 236.22 176.81 234.87 177.22 232.41 178.55 230.21 180.45 
M 214.72 175.28 211.97 175.81 210.38 176.67 208.95 177.91 
M 227.61 182.41 224.81 182.48 223.48 182.73 221 183.75 218.72 185.37 
M 207.25 180.28 204.57 180.49 202.96 181.15 201.48 182.21 
M 216.08 187.02 213.39 186.76 210.85 187.11 209.63 187.56 207.29 188.9 
M 204.63 190.23 202.1 189.65 199.63 189.7 198.42 190 196.04 191.05 
M 219.3 240.83 224.5 248.1 228.48 252.73 231.35 265.47 231.21 271.29 229.56 272.84 227.61 274.2 224.41 277.6 222.47 278.95 220.04 279.82 217.34 280 214.76 277.78 204.75 270.6 201.97 268.85 200.23 268.41 197.88 267.35 196.44 266.16 194.27 263.79 188.56 240.94 186.6 237.34 185.38 233.95 183.31 229.39 
M 215.48 240.02 219.36 245.71 221.48 248.34 224.57 253.22 224.76 255.73 
M 211.66 239.21 213.85 242.36 215.06 244.83 219.91 251.2 221.17 254.54 221.84 257.12 224.12 261.89 
M 207.85 238.35 211.36 243.85 213.18 245.71 214.14 247.93 215.42 250.3 216.22 252.76 216.62 255.35 218.47 258.12 
M 204.05 237.45 205.94 240.58 207.08 243.36 211.34 249.23 213.04 251.95 213.81 255.14 213.52 257.22 214.87 259.4 216.91 261.52 218.27 264.36 219.93 266.58 220.86 268.88 
M 200.28 236.43 202.75 242.55 205.68 248.79 208.85 254.04 210.09 257.4 211.44 259.55 211.79 261.73 211.61 262.79 211.88 265.37 
M 196.6 235.12 198.81 241.3 200.09 246.75 201.33 249.01 202.39 251.39 203.59 253.42 204.37 256.03 207.3 262.69 207.14 263.86 207.81 265.76 207.41 268.34 
M 192.92 233.8 194.86 239.39 195.64 242.26 196.9 245.32 198.88 251.2 199.68 253.13 
M 189.35 232.2 191.26 237.82 193.16 246.19 195.15 250.05 196.01 252.86 195.42 255.9 
M 185.81 230.55 188.04 236.7 188.54 238.92 189.59 241.55 189.71 243.9 190.16 246.61 191.05 249.67 
M 346.19 211.21 352.44 217.92 351.93 218.51 344.35 213.35 
M 335.6 216.23 350.62 230.98 350.1 231.56 333.73 218.33 
M 324.86 220.91 342.45 237.92 341.93 238.5 322.99 223.01 
M 314.27 225.98 335.65 245.05 335.15 245.65 312.48 228.14 
M 303.93 231.48 321.1 247.39 320.59 247.98 302.11 233.63 
M 293.38 236.51 308.98 252.96 308.44 253.52 291.43 238.54 
M 283.3 240.47 288.88 247.75 288.32 248.29 281.27 242.42 
M 351.17 218 349.73 220.38 348.74 222.84 348.47 225.43 349.11 229.5 
M 348.46 230.24 346.12 230.77 344.07 231.67 342.45 233.15 340.69 236.22 
M 340.03 236.95 337.89 237.6 336.07 238.59 334.75 240.1 333.51 243.15 
M 332.88 243.9 328.19 243.19 325.17 243.43 322.24 244.38 319.38 245.8 
M 318.75 246.55 314.45 246.89 311.86 247.78 309.55 249.33 307.42 251.31 
M 306.74 252.02 302.91 249.94 300.95 249.05 296.91 247.76 292.68 247.16 288.32 247.02 
M 350.42 219.18 349.15 221.59 348.74 222.84 348.47 225.43 348.82 228.13 
M 347.27 230.48 345.04 231.16 344.07 231.67 342.45 233.15 341.22 235.13 
M 340.98 226.68 338.9 227.45 337.85 228.41 337.05 229.7 
M 338.94 237.25 336.93 238.04 336.07 238.59 334.75 240.1 333.87 242.07 
M 334.21 234.28 332.66 234.88 332.01 235.3 331 236.46 330.32 237.97 
M 329.47 231.31 327.94 232.02 327.24 232.82 326.77 233.88 
M 331.31 243.58 328.19 243.19 325.17 243.43 323.69 243.83 320.81 245.06 
M 323.22 238.76 321.2 238.51 319.23 238.66 316.39 239.72 
M 317.28 246.59 314.45 246.89 311.86 247.78 310.67 248.48 308.47 250.29 
M 310.43 242.54 307.72 242.98 306.14 243.77 304.71 244.95 
M 304.83 250.95 300.95 249.05 296.91 247.76 294.82 247.38 290.51 247.06 
M 381.26 158.97 388.87 156.35 390.95 155.22 393.44 154.62 397.33 151.84 399.26 151.16 400.86 150.82 405.88 147.08 407.83 146.08 409.96 144.1 411.97 142.73 413.09 141.08 415.77 139.56 418.98 137.42 421.92 136.7 423.41 135.98 428.35 130.68 430.44 130.11 433.3 129.71 421.21 140.24 420.19 142.31 418.64 143.85 417.93 146.22 416.74 148.13 415.04 152.86 413.51 154.44 412.8 156.59 412.84 159.48 414.18 164.82 413.7 170.05 411.65 171.12 410.59 172.99 411.5 178.08 411 179.59 412.17 182.58 411.98 185.32 411.23 187.16 412.88 191.91 413.38 194.45 413.32 196.3 413.93 198.72 414.83 201.35 415.28 203.46 415.54 205.17 415.16 206.23 415.8 208.25 417.8 212.94 420.42 217.41 422.03 219.83 433.44 231.08 431.83 230.39 429.69 229.74 427.28 227.88 425.37 225.24 424.02 223.67 422.13 222.66 419.03 221.71 415.97 220.25 411.14 216.05 410.3 215.11 408.5 213.65 403.61 211.13 401.43 208.61 399.51 206.72 394.68 203.46 387.81 199.56 385.95 197.66 383.71 196.22 381.26 194.11 
M 381.26 160.73 391.81 157.82 394.02 157.74 395.65 156.75 397.43 155.34 399.58 154.19 401.23 154.23 403.34 152.97 405.11 151.65 407.97 150.94 410.1 149.6 411.38 148.5 
M 384.06 161.89 386.86 161.25 389.47 160.33 391.7 160.07 393.72 160.25 395.87 159.06 397.94 158.27 400.03 156.52 406.22 154.31 408.65 152.89 
M 381.26 164.24 384.29 164.03 391.55 161.93 393.84 161.81 396.68 161.15 400.57 159.67 402.66 158.53 404.72 158.54 408.51 156.48 410.78 155.77 
M 389.32 164.8 391.74 164.15 394.23 164.27 396.81 163.6 
M 381.26 167.76 384.4 168.39 389.34 166.93 394.79 166.26 397.82 166.31 400.51 165.73 406.41 165 408.99 165.12 410.18 164.34 
M 381.26 169.51 384.39 170.17 386.96 169.79 389.57 169.14 392.01 168.89 394.75 168.32 400.46 167.96 
M 387.1 171.83 389.81 171.41 392.01 171.52 394.22 170.99 396.7 169.6 
M 384.61 174.11 387.14 174.13 394.64 173.32 397.12 172.38 401.95 173.58 404.07 173.54 
M 387.28 176.58 392.3 176.66 397.83 176.19 399.89 176.47 408.74 177.12 
M 387.09 179 389.59 179.41 391.97 179.49 394.98 179.87 400.63 179.95 
M 384.53 179.94 389.61 181.07 398.16 182.35 401 182.16 403.45 182.2 406.04 183.12 408.47 183.33 
M 390.24 182.94 395.69 184.06 398.35 185.2 400.74 185.16 402.55 185.33 404.49 186.45 
M 390.43 185.22 392.61 186.06 397.86 187.42 402.06 188.3 403.99 189.14 406.36 189.58 409.32 189.87 
M 381.26 183.57 387.52 186.56 390.27 187.73 392.33 188.28 394.4 189.39 399.18 190.89 401.79 190.99 406.68 191.84 409.55 193.25 
M 387.23 188.25 389.87 188.89 391.91 189.93 393.88 191.15 396.06 192.79 398.29 193.95 403.88 193.68 407.24 194.54 409.15 195.58 411.4 196.48 
M 389.52 190.38 393.9 193.16 395.63 195.21 
M 386.64 191.76 389.03 192.3 393.56 195.11 395.38 197.46 403.36 201.13 405.84 202.64 408.48 203.56 
M 388.74 194.47 392.91 198.15 400.71 201.38 403.13 203.38 405.72 205.15 412.03 209.06 414.01 210.94 416.51 211.89 
M 388.32 197.32 390.65 198.96 392.89 199.79 395.11 201.34 400.24 204.38 402.41 206.07 404.29 207.3 405.65 208.72 407.12 209.66 
M 318.28 130.39 321.29 134.1 333.67 118.93 338.25 117.18 340.78 116.56 342.58 115.07 344 113.2 345.87 111.75 347.31 109.89 349.92 110.65 351.77 110.83 353.46 110.03 355.66 109.63 358.67 110.05 361.49 110.2 363.68 109.7 365.81 109.72 366.31 111.42 367.27 113.57 368.37 118.34 368.54 120.66 370.62 121.56 373.04 121.84 374.95 121.61 376.61 124.23 377.52 126.28 377.97 128.48 377.99 131.03 378.45 134.01 378.47 136.08 367.67 154.06 363.26 148.62 
M 322.03 131.46 324.77 131.08 326.64 129.8 328.14 128.33 330.18 124.4 
M 325.79 132.53 328.47 131.71 329.87 130.29 330.51 128.77 331.9 127.38 334.65 124.16 
M 329.53 133.67 331.38 132.44 332.88 130.54 335.34 128.18 336.93 125.97 338.54 123.22 343.75 118.18 
M 333.25 134.85 335.41 133.6 338.89 130.25 340.97 129.04 342.34 126.75 342.8 124.64 344.2 122.46 347.33 120.34 348.42 118.75 349.09 116.36 
M 336.96 136.08 339.54 135.11 343.62 132.41 344.69 130.72 346.03 127.85 347.76 125.67 349.77 124.14 351.99 120 353.52 118.43 354.62 117.03 356.24 114.32 358.28 111.85 
M 340.59 137.52 343.36 136.58 346.75 133.78 347.61 132.15 351.51 128.12 354.75 123.12 357.38 119.91 358.29 118.2 
M 344.22 138.96 346.94 137.54 352.26 133.39 353.89 131.51 355.59 129.93 356.71 127.93 357.38 125.76 360.14 122.5 361.27 120.64 363.17 120.14 
M 347.78 140.58 350.51 139.26 354.82 136.19 361.78 129.77 363.27 126.8 
M 351.3 142.26 353.82 141.28 358.01 138.26 365.21 132.55 367.17 130.84 369.18 127.03 370.99 125.22 374.84 123.1 
M 354.81 143.98 357.76 143.33 359.69 142.04 362.57 139.46 364.77 138.38 367.29 135.97 
M 358.24 145.86 361.53 145.75 363.91 144.81 365.48 143.36 366.94 142.41 370.24 139.09 375.65 136.55 376.89 135.56 
M 94.74 190.79 95.12 188.86 96.1 186.38 100.38 179.28 102.85 174.67 106.37 169.78 110.79 165.7 121.97 158.56 127.12 154.38 131.77 150.36 136.06 147.23 140.29 144.89 144.42 142.94 148.39 141.49 151.93 140.56 154.71 140.2 156.29 140.43 159.23 144.41 160.86 148.44 162.29 152.49 163.34 156.59 163.98 160.73 164.16 164.93 163.67 169.2 165.65 177.4 166.15 181.56 165.99 185.8 166.04 190 167.24 194.08 167.73 198.24 169.15 206.51 169.01 210.74 167.84 215.09 165.23 219.53 155.31 219.01 147.9 218.22 135.45 216.24 130.16 215.13 125.28 214.06 120.89 212.85 117.05 211.34 113.48 209.63 110.13 207.76 
M 108.84 207 104.53 204.17 102.09 202.11 100.59 200.61 
M 146.49 170.61 147.55 177.56 147.26 180.91 145.72 186.8 146.33 191.11 147.26 193.19 148.65 195.46 149.8 197.96 150.24 200.77 149.52 204.1 142.76 204.03 128.41 204.25 124.11 204.06 120 203.67 116.25 202.82 
M 107.17 205.59 94.43 196.04 92.97 194.63 92.39 192.65 93.48 190.95 95.46 190.7 97.01 191.94 100.72 196.26 106.08 202.08 110.48 207.39 
M 110.08 208.04 100.66 205.21 92.98 203.45 89.23 202.32 87.44 201.45 86.55 199.57 87.2 197.81 88.98 197.21 96.17 200.7 106.85 205.43 110.35 207.3 
M 123.5 184.73 122.07 182.72 121.37 180.37 121.47 177.91 122.36 175.62 123.95 173.74 126.07 172.48 128.47 171.98 130.91 172.28 133.12 173.36 134.86 175.1 135.94 177.31 136.25 179.75 135.74 182.16 134.48 184.27 132.61 185.86 130.31 186.76 127.86 186.86 125.5 186.15 123.5 184.73 
M 133.65 175.97 134.51 177.74 134.75 179.69 134.35 181.62 133.34 183.31 131.84 184.58 130.01 185.29 128.04 185.37 126.16 184.81 124.56 183.67 
M 126.08 180.97 125.51 180.17 125.23 179.23 125.27 178.24 125.63 177.33 126.26 176.58 127.11 176.07 128.07 175.87 129.05 175.99 129.93 176.42 130.63 177.12 131.06 178 131.18 178.98 130.98 179.94 130.48 180.79 129.73 181.42 128.81 181.78 127.83 181.82 126.88 181.54 126.08 180.97 
M 125.47 179.95 127.13 181.62 
M 127.14 179.52 129.24 181.61 
M 127.45 177.72 130.49 180.76 
M 129.16 177.31 131.12 179.27 
M 95.58 187.68 99.39 191.48 
M 97.2 184.61 101.07 188.48 
M 98.97 181.69 103.38 186.1 
M 100.69 178.71 103.54 181.57 
M 102.32 175.66 106.78 180.12 
M 104.18 172.83 106.97 175.63 
M 106.14 170.1 109.16 173.12 
M 108.52 167.8 111.35 170.63 
M 110.99 165.58 114.45 169.04 
M 113.84 163.74 117.06 166.96 
M 116.7 161.91 120.71 165.93 
M 119.56 160.09 122.69 163.21 
M 122.38 158.22 124.88 160.71 
M 124.97 156.12 129.62 160.77 
M 127.55 154.01 131.11 157.58 
M 130.06 151.83 132.99 154.77 
M 132.64 149.72 136.38 153.46 
M 135.35 147.74 138.29 150.69 
M 138.29 145.99 141.15 148.86 
M 141.36 144.38 145.6 148.62 
M 144.56 142.89 147.17 145.5 
M 147.99 141.64 151.99 145.64 
M 151.67 140.63 156.28 145.23 
M 156.13 140.4 156.45 140.72 
M 108.65 179.36 108.28 178.7 108.79 177.97 
M 121.16 190.95 121.02 189.97 121.72 187.9 122.12 187.19 123.51 185.83 123.84 184.97 
M 117.41 202.45 117.51 203.1 117.28 203.82 116.4 205.09 114.13 205.91 112.92 205.96 112.31 205.79 
M 122.25 175.58 122.1 174.57 121.16 173.29 120.65 172.97 119.51 172.79 119.01 172.55 
M 152.57 154.57 150.77 152.79 149.36 150.77 148.27 149.8 146.98 148.99 146.64 149 145.63 149.53 
M 106.54 183.31 105.56 182.32 105.34 181.65 106.1 179.51 106.33 179.15 107.08 178.66 
M 156.87 211.29 157.17 208.65 158.61 206.3 159.95 204.52 
M 133.42 205.02 133.08 204.68 132.96 204.76 
M 159.88 166.33 160.51 167.75 160.68 170.43 161.04 171.82 161.52 172.66 162.47 173.46 
M 135.28 167.27 133.95 166.95 131.99 167.28 129.12 167.21 127.1 166.97 126.44 167.07 
M 159.27 214.5 158.34 213.75 157.75 212.87 157.52 211.94 157.53 211.09 157.78 209.35 158.11 208.57 160.26 205.24 
M 166.29 216.75 166.56 217.27 
M 151.79 188.76 151.25 188.45 149.67 186.72 149.16 186.62 148.38 186.74 
M 144.86 171.7 143.83 170.51 141.85 168.8 141.01 167.75 139.73 166.92 139.05 166.19 
M 136.89 176.79 136.29 175.73 136.27 174.25 135.95 173.03 134.8 171.47 
M 125.23 194.83 125.89 193.97 126.08 193.4 126.24 191.1 125.99 186.3 
M 124.21 206.42 121.4 204.76 121.08 204.43 
M 165.56 212.24 165.53 211.16 164.85 206.91 164.95 205.27 
M 108.09 194.31 103.83 194.66 102.44 194.53 
M 96.36 185.96 99.13 184.97 99.59 184.58 99.99 183.86 
M 148.24 179.28 147.08 175.85 146.01 173.67 145.66 172.6 
M 142.35 164.28 141.86 163.83 141.41 162.84 
M 104.27 174.3 105.73 173.2 106.14 172.54 106.11 171.91 105.47 171.03 
M 156.97 169.69 155.73 169.82 154.81 169.51 152.12 167.65 150.72 166.09 150.1 165.73 
M 146.35 187.36 146.08 186.99 146.33 186.95 
M 121 201.95 122.8 202.01 125.03 201.79 126.73 202.68 
M 144.32 214.47 143.37 213.88 142.78 213.24 141.68 210.36 141.33 209.98 140.19 209.79 139.58 209.96 
M 130.97 158.41 130.42 159.8 128.97 161.53 127.85 162.55 126.94 164.05 126.11 164.65 124.94 165.17 
M 140.84 162.71 141.41 162.83 
M 127.73 203.91 129.16 203.44 129.51 203.62 129.68 204.09 
M 148.54 161.81 147.27 160.62 146.28 160.39 143.71 161.39 142.58 162.27 
M 159.5 203.16 159.17 202.83 159.31 202.39 
M 130.74 156.78 130.31 157.43 129.82 158.9 128.4 160.52 125.21 162.95 
M 154.2 147.85 152.86 148.92 152.4 149.1 151.38 148.95 149.67 148.24 148.43 147.95 147.77 147.98 147.37 148.28 
M 164.6 216.7 164.15 217.68 163.85 217.93 162.5 217.91 161.57 217.68 160.61 217.21 157.68 215.06 
M 115.84 176.22 112.75 178.94 111.98 179.2 110.38 179.22 109.84 178.86 109.75 178.3 
M 152.87 144.58 151.61 145.89 149.53 147.47 147.94 147.79 147.14 148.44 
M 137.16 192.94 138.64 194.96 139.55 195.66 140.45 195.78 142.75 195.26 
M 136.74 204.81 135.84 204.14 135.51 203.55 135.17 201.86 135.34 200.58 136.02 198.57 136.46 198.03 137.11 197.61 
M 113.73 182.39 111.2 182.32 109.04 182.07 108.3 181.57 107.41 179.97 
M 127.88 168.39 123.15 168.86 122.31 169.12 119.69 170.62 118.43 170.85 
M 139.51 147.61 138.3 147 136.54 146.96 
M 151.12 159.88 152.79 158.06 153.7 156.58 153.71 156.01 153.28 154.83 152.02 153.75 
M 96.98 204.38 102.12 207.1 105.68 208.57 113.14 210.91 120.89 212.85 
M 156.62 140.4 162.61 146.39 
M 160.95 138.48 167.18 144.71 
M 165.29 136.57 171.45 142.73 
M 169.75 134.78 174.52 139.55 
M 174.21 132.99 181.69 140.47 
M 178.78 131.31 184.62 137.15 
M 183.34 129.62 191.01 137.29 
M 187.92 127.94 194.94 134.97 
M 192.51 126.29 199.26 133.04 
M 197.71 125.24 203.46 130.98 
M 203.21 124.48 208.28 129.55 
M 209.36 124.38 215.47 130.5 
M 215.36 124.13 223.27 132.04 
M 221.18 123.71 228.15 130.67 
M 226.71 122.99 232.56 128.84 
M 232.34 122.36 240.22 130.24 
M 238.02 121.79 247.36 131.13 
M 243.86 121.38 250.73 128.25 
M 249.98 121.25 258.14 129.41 
M 256.42 121.44 265.54 130.56 
M 263.54 122.31 268.32 127.09 
M 270.48 123 275.43 127.95 
M 277.09 123.36 284.86 131.13 
M 283.61 123.63 291.49 131.51 
M 290.65 124.42 295.44 129.2 
M 298.45 125.97 307.03 134.55 
M 306.29 127.56 312.48 133.75 
M 314.41 129.43 323.77 138.78 
M 322.95 131.72 328.41 137.17 
M 331.91 134.42 338.19 140.71 
M 341.7 137.96 347.04 143.3 
M 353.11 143.13 362.28 152.29 
M 367.03 150.79 373.82 157.58 
M 381.75 159.27 389.89 167.4 
M 173.48 208.07 174.87 210.87 
M 167.94 191.53 168.64 192.93 
M 175.63 206.9 177.02 209.7 
M 184.71 225.07 186.11 227.87 
M 182.67 215.52 184.07 218.32 
M 186.16 222.51 186.86 223.91 
M 164.9 174.5 165.3 175.3 
M 184.86 214.44 186.26 217.23 
M 163.91 167.07 164.69 168.63 
M 165.39 170.03 169.45 178.15 
M 164.79 163.36 169.45 172.68 
M 178.77 191.31 180.17 194.11 
M 162.5 153.3 170.1 168.51 
M 162.93 148.7 172.02 166.87 
M 165.17 147.71 174.26 165.88 
M 190.33 198.03 193.13 203.62 
M 162.87 137.64 164.62 141.13 
M 166.01 143.93 167.41 146.72 
M 169.51 150.92 177.2 166.29 
M 192.57 197.04 194.67 201.23 
M 195.37 202.63 196.76 205.42 
M 165.11 136.65 168.26 142.94 
M 168.95 144.34 170.35 147.13 
M 171.05 148.53 179.44 165.3 
M 180.83 168.1 181.05 168.54 
M 194.81 196.05 195.51 197.45 
M 167.39 135.73 180.31 161.59 
M 181.71 164.38 183.79 168.54 
M 197.09 195.13 200.58 202.12 
M 201.98 204.91 204.77 210.5 
M 206.17 213.3 208.27 217.49 
M 169.66 134.82 174.9 145.3 
M 176.3 148.09 186.53 168.55 
M 197.44 190.38 198.66 192.82 
M 199.36 194.22 202.86 201.21 
M 203.56 202.6 209.15 213.78 
M 171.94 133.9 175.79 141.59 
M 178.58 147.18 179.28 148.58 
M 180.68 151.37 186.97 163.95 
M 188.36 166.75 189.06 168.15 
M 199.83 189.68 200.94 191.91 
M 203.04 196.1 203.74 197.5 
M 206.53 203.09 210.73 211.47 
M 212.82 215.67 213.52 217.06 
M 174.22 132.99 190.64 165.84 
M 202.59 189.74 203.22 190.99 
M 205.32 195.19 206.02 196.58 
M 210.21 204.97 210.91 206.37 
M 213.7 211.96 216.5 217.55 
M 176.53 132.14 194.35 167.78 
M 205.76 190.6 206.93 192.93 
M 222.3 223.68 223 225.08 
M 180.58 134.78 189.67 152.95 
M 191.07 155.74 195.96 165.53 
M 208.54 190.68 211.33 196.28 
M 214.83 203.26 216.22 206.06 
M 184.29 136.72 191.98 152.1 
M 210.84 189.83 213.64 195.42 
M 188.69 140.06 194.28 151.24 
M 213.15 188.98 215.25 193.17 
M 186.81 130.83 196.6 150.4 
M 197.29 151.79 198.69 154.59 
M 215.46 188.13 216.16 189.53 
M 216.86 190.93 218.26 193.72 
M 242.72 242.64 243.25 243.71 
M 188.07 127.89 201.7 155.14 
M 203.1 157.94 207.29 166.32 
M 217.78 187.29 221.27 194.27 
M 190.39 127.04 202.62 151.5 
M 206.11 158.49 209.6 165.47 
M 219.39 185.04 224.28 194.82 
M 192.73 126.25 204.96 150.71 
M 208.45 157.7 211.24 163.29 
M 221.38 183.56 223.12 187.05 
M 223.82 188.44 226.62 194.04 
M 195.21 125.75 207.44 150.21 
M 210.23 155.8 213.73 162.78 
M 223.68 182.69 227.71 190.74 
M 197.69 125.24 211.32 152.5 
M 213.42 156.69 214.81 159.49 
M 226.26 182.39 230.19 190.24 
M 253.95 237.76 256.74 243.35 
M 200.18 124.74 213.8 152 
M 229.05 182.48 232.67 189.73 
M 257.13 238.65 257.83 240.05 
M 202.78 124.49 211.52 141.96 
M 230.59 180.1 233.88 186.69 
M 237.38 193.67 238.08 195.07 
M 244.37 207.65 246.46 211.84 
M 205.5 124.45 214.23 141.92 
M 217.73 148.9 220.52 154.5 
M 227.51 168.47 227.6 168.64 
M 233.1 179.65 233.8 181.05 
M 238.69 190.83 240.09 193.63 
M 246.38 206.21 248.48 210.4 
M 208.21 124.4 210.66 129.29 
M 213.45 134.88 216.94 141.87 
M 218.34 144.67 223.93 155.85 
M 226.03 160.04 227.43 162.84 
M 229.52 167.03 230.33 168.65 
M 249.09 206.16 250.49 208.96 
M 210.91 124.34 211.96 126.43 
M 216.15 134.82 225.24 152.99 
M 228.03 158.58 230.83 164.17 
M 231.53 165.57 233.07 168.66 
M 264.37 231.26 265.07 232.66 
M 213.59 124.22 213.94 124.91 
M 218.13 133.3 227.21 151.47 
M 230.71 158.46 234.2 165.45 
M 234.9 166.84 235.81 168.66 
M 269.14 235.33 269.84 236.73 
M 220.8 133.18 229.89 151.35 
M 232.68 156.94 238.27 168.12 
M 250.85 193.28 251.55 194.67 
M 270.42 232.41 271.82 235.21 
M 218.93 123.97 219.28 124.67 
M 222.78 131.66 231.86 149.83 
M 234.66 155.42 240.95 168 
M 244.44 174.98 247.24 180.57 
M 252.13 190.36 254.22 194.55 
M 223.96 128.56 224.66 129.95 
M 225.36 131.35 242.83 166.29 
M 247.02 174.68 249.82 180.27 
M 254.71 190.05 256.11 192.85 
M 227.93 131.02 245.4 165.96 
M 249.59 174.34 252.38 179.94 
M 277.54 230.25 278.94 233.05 
M 226.65 123 227.7 125.09 
M 228.4 126.49 229.1 127.89 
M 229.79 129.29 243.07 155.84 
M 243.77 157.24 246.57 162.83 
M 251.46 172.61 255.65 181 
M 257.05 183.79 259.14 187.99 
M 268.23 206.16 270.33 210.35 
M 229.23 122.68 244.95 154.13 
M 245.65 155.53 251.24 166.71 
M 252.64 169.51 261.72 187.68 
M 268.71 201.65 272.21 208.64 
M 275.7 215.63 276.4 217.03 
M 231.83 122.41 239.16 137.09 
M 239.86 138.48 246.15 151.06 
M 248.25 155.26 255.94 170.63 
M 256.63 172.03 258.03 174.82 
M 258.73 176.22 259.43 177.62 
M 260.83 180.41 263.62 186.01 
M 268.52 195.79 269.21 197.19 
M 270.61 199.98 274.11 206.97 
M 276.2 211.16 276.9 212.56 
M 279 216.75 279.7 218.15 
M 234.42 122.14 245.26 143.8 
M 246.65 146.6 248.05 149.39 
M 250.85 154.98 259.23 171.76 
M 268.32 189.93 271.11 195.52 
M 278.1 209.49 278.8 210.89 
M 280.2 213.69 282.29 217.88 
M 237.02 121.87 240.87 129.55 
M 241.57 130.95 247.16 142.13 
M 247.86 143.53 248.55 144.93 
M 254.14 156.11 259.74 167.29 
M 270.22 188.26 273.01 193.85 
M 276.51 200.84 277.21 202.23 
M 283.5 214.81 286.29 220.4 
M 239.66 121.67 251.89 146.13 
M 258.18 158.71 259.58 161.51 
M 272.86 188.06 274.95 192.26 
M 277.75 197.85 278.45 199.24 
M 286.13 214.62 287.53 217.41 
M 289.63 221.61 291.03 224.4 
M 242.3 121.49 252.44 141.76 
M 253.14 143.15 255.23 147.35 
M 265.02 166.91 267.81 172.51 
M 274.8 186.48 276.2 189.28 
M 289.48 215.83 290.87 218.63 
M 291.57 220.03 292.97 222.82 
M 244.95 121.31 254.38 140.18 
M 255.78 142.97 256.48 144.37 
M 266.96 165.33 269.76 170.92 
M 278.14 187.7 278.84 189.09 
M 291.42 214.25 294.91 221.24 
M 247.64 121.23 262.67 151.28 
M 268.26 162.46 273.15 172.24 
M 278.74 183.42 280.14 186.22 
M 294.11 214.17 294.81 215.57 
M 249.48 119.43 264.51 149.48 
M 268.7 157.87 276.39 173.24 
M 277.08 174.64 277.78 176.04 
M 278.48 177.44 279.18 178.84 
M 251.14 117.29 252.89 120.78 
M 254.29 123.58 254.98 124.97 
M 255.68 126.37 266.86 148.73 
M 271.06 157.12 278.74 172.49 
M 252.8 115.14 269.22 147.98 
M 274.12 157.77 281.8 173.14 
M 254.46 112.99 256.21 116.48 
M 257.61 119.28 272.98 150.03 
M 277.87 159.81 283.46 170.99 
M 288.35 180.77 291.15 186.37 
M 298.14 200.34 299.54 203.14 
M 256.12 110.84 259.27 117.13 
M 259.96 118.53 269.75 138.09 
M 270.45 139.49 275.34 149.28 
M 279.53 157.66 285.82 170.24 
M 292.11 182.82 293.51 185.61 
M 300.5 199.59 301.89 202.39 
M 308.88 216.36 310.98 220.56 
M 257.78 108.69 267.91 128.96 
M 273.51 140.14 277 147.13 
M 281.89 156.91 287.48 168.09 
M 294.47 182.07 295.87 184.86 
M 302.16 197.44 302.86 198.84 
M 307.75 208.62 308.45 210.02 
M 309.15 211.42 309.84 212.82 
M 310.54 214.21 311.94 217.01 
M 259.44 106.54 270.27 128.21 
M 273.07 133.8 273.77 135.19 
M 281.45 150.57 282.15 151.97 
M 283.55 154.76 289.84 167.34 
M 309.41 206.47 311.5 210.67 
M 261.1 104.39 261.45 105.09 
M 262.85 107.89 264.95 112.08 
M 265.64 113.48 271.93 126.06 
M 276.13 134.44 278.22 138.64 
M 281.02 144.23 285.21 152.61 
M 285.91 154.01 295 172.18 
M 300.59 183.36 302.68 187.55 
M 312.47 207.12 313.16 208.52 
M 262.76 102.24 263.81 104.34 
M 266.61 109.93 274.99 126.7 
M 281.98 140.68 288.27 153.26 
M 288.97 154.66 295.96 168.63 
M 303.64 184.01 305.04 186.8 
M 264.42 100.09 266.87 104.99 
M 267.57 106.38 278.05 127.35 
M 281.54 134.34 282.24 135.74 
M 285.74 142.72 297.62 166.48 
M 266.08 97.95 280.41 126.6 
M 281.11 128 282.5 130.79 
M 287.4 140.57 297.18 160.14 
M 306.27 178.31 306.96 179.71 
M 316.75 199.28 317.45 200.67 
M 267.74 95.8 268.09 96.5 
M 271.59 103.48 272.28 104.88 
M 272.98 106.28 275.78 111.87 
M 276.48 113.27 277.18 114.67 
M 277.88 116.06 283.47 127.24 
M 289.76 139.82 298.84 157.99 
M 306.53 173.37 310.72 181.75 
M 314.91 190.14 317.71 195.73 
M 273.94 102.73 278.14 111.12 
M 280.93 116.71 283.03 120.9 
M 285.13 125.1 288.62 132.08 
M 291.42 137.67 292.11 139.07 
M 292.81 140.47 301.9 158.64 
M 306.09 167.03 312.38 179.6 
M 317.27 189.39 321.47 197.77 
M 273.51 96.39 274.21 97.79 
M 276.3 101.98 280.5 110.37 
M 283.29 115.96 283.99 117.36 
M 288.18 125.74 295.17 139.72 
M 295.87 141.12 314.04 177.46 
M 319.63 188.64 321.03 191.43 
M 272.72 89.35 274.47 92.84 
M 275.17 94.24 276.57 97.04 
M 278.66 101.23 285.65 115.21 
M 287.05 118 287.91 119.72 
M 290.23 124.37 305.26 154.42 
M 305.96 155.82 312.25 168.4 
M 312.95 169.8 317.14 178.18 
M 321.33 186.57 324.83 193.56 
M 326.92 197.75 329.02 201.94 
M 331.12 206.14 333.21 210.33 
M 274.38 87.2 274.73 87.9 
M 275.43 89.3 278.93 96.29 
M 280.32 99.08 287.31 113.06 
M 287.84 114.12 288.02 114.48 
M 293.23 124.89 299.17 136.77 
M 300.57 139.57 314.54 167.52 
M 316.64 171.71 334.11 206.65 
M 276.04 85.05 286.18 105.32 
M 296.28 125.52 300.12 133.21 
M 302.92 138.8 315.49 163.96 
M 319.69 172.34 328.77 190.51 
M 329.47 191.91 330.17 193.31 
M 330.87 194.7 335.76 204.49 
M 277.7 82.9 280.85 89.19 
M 282.25 91.99 286.83 101.15 
M 299.33 126.15 315.75 158.99 
M 320.64 168.78 328.33 184.15 
M 329.03 185.55 331.12 189.74 
M 333.92 195.33 336.02 199.53 
M 336.71 200.92 337.41 202.32 
M 338.11 203.72 341.61 210.71 
M 279.36 80.75 285.3 92.63 
M 286 94.03 287.53 97.09 
M 302.37 126.77 318.79 159.61 
M 319.49 161.01 327.18 176.38 
M 328.58 179.18 332.07 186.17 
M 332.77 187.57 333.47 188.96 
M 338.36 198.75 339.06 200.14 
M 281.02 78.61 287.66 91.88 
M 288.28 93.12 288.55 93.66 
M 305.41 127.38 321.13 158.83 
M 323.93 164.42 328.82 174.2 
M 333.01 182.59 336.51 189.58 
M 339.3 195.17 341.4 199.36 
M 284.43 79.95 288.75 88.58 
M 308.8 128.69 316.49 144.06 
M 317.89 146.86 319.98 151.05 
M 321.38 153.85 323.48 158.04 
M 326.27 163.63 328.37 167.82 
M 335.36 181.8 338.15 187.39 
M 287.49 80.6 289.02 83.67 
M 313.3 132.21 320.98 147.59 
M 323.08 151.78 323.78 153.18 
M 324.48 154.58 325.18 155.97 
M 337.76 181.13 340.55 186.72 
M 286 72.16 287.05 74.26 
M 289.15 78.45 290.45 81.05 
M 314.67 129.49 321.31 142.77 
M 322.01 144.17 323.41 146.96 
M 326.2 152.56 326.9 153.95 
M 340.18 180.51 342.97 186.1 
M 287.66 70.01 291.6 77.87 
M 317.79 130.27 326.53 147.74 
M 327.93 150.53 332.12 158.92 
M 337.01 168.7 339.81 174.29 
M 342.6 179.88 346.1 186.87 
M 289.32 67.86 292.9 75.02 
M 320.97 131.15 327.61 144.43 
M 329.01 147.23 334.6 158.41 
M 338.09 165.4 342.29 173.78 
M 344.38 177.98 349.27 187.76 
M 290.98 65.71 294.31 72.37 
M 324.16 132.06 330.1 143.94 
M 331.5 146.74 332.2 148.14 
M 332.89 149.53 336.39 156.52 
M 339.18 162.11 351.06 185.87 
M 292.64 63.56 295.79 69.84 
M 327.35 132.97 332.59 143.46 
M 333.99 146.25 338.88 156.03 
M 343.07 164.42 352.16 182.59 
M 294.65 62.11 296.5 65.81 
M 330.6 134.01 336.54 145.89 
M 337.24 147.28 340.04 152.87 
M 341.43 155.67 342.13 157.07 
M 345.63 164.06 347.72 168.25 
M 348.42 169.65 349.82 172.44 
M 350.52 173.84 354.71 182.23 
M 295.97 59.27 297.61 62.56 
M 333.85 135.04 339.09 145.52 
M 342.59 152.51 343.29 153.91 
M 348.88 165.09 352.37 172.08 
M 353.07 173.48 357.26 181.86 
M 297.63 57.12 298.79 59.46 
M 345.18 152.23 346.58 155.02 
M 352.87 167.6 358.46 178.78 
M 363.35 188.57 364.05 189.97 
M 368.92 199.7 369.24 200.34 
M 299.29 54.97 300.07 56.53 
M 342.3 141 345.8 147.99 
M 347.2 150.79 347.89 152.18 
M 352.09 160.57 352.79 161.97 
M 354.18 164.76 359.08 174.55 
M 363.27 182.93 365.36 187.13 
M 371.02 198.43 371.43 199.25 
M 300.95 52.82 301.43 53.79 
M 343.97 138.86 349.21 149.35 
M 349.91 150.74 352 154.94 
M 354.1 159.13 358.99 168.91 
M 365.98 182.89 366.68 184.29 
M 373.11 197.15 373.6 198.13 
M 302.61 50.67 302.88 51.23 
M 347.49 140.44 350.64 146.73 
M 352.73 150.92 359.72 164.9 
M 304.27 48.52 304.41 48.81 
M 351.08 142.16 352.83 145.65 
M 354.23 148.45 362.61 165.22 
M 305.93 46.37 305.99 46.5 
M 357.14 148.81 365.53 165.58 
M 375.31 185.15 376.01 186.54 
M 307.59 44.22 307.61 44.26 
M 359.52 148.08 365.8 160.66 
M 367.9 164.85 372.09 173.24 
M 376.29 181.62 378.38 185.82 
M 362.24 148.05 367.48 158.54 
M 371.67 166.92 374.47 172.51 
M 379.36 182.3 380.76 185.09 
M 366.06 150.23 369.9 157.92 
M 374.1 166.31 376.89 171.9 
M 381.78 181.68 383.18 184.48 
M 369.9 152.45 371.65 155.94 
M 376.54 165.73 380.74 174.11 
M 382.13 176.91 383.53 179.7 
M 373.74 154.66 376.89 160.95 
M 377.59 162.35 385.97 179.12 
M 377.58 156.86 388.41 178.53 
M 381.42 159.07 385.26 166.75 
M 387.36 170.95 388.75 173.74 
M 389.45 175.14 390.26 176.75 
M 241.28 291.39 236.99 297.7 
M 241.28 291.39 241.79 297.7 
M 238.52 295.6 241.52 295.6 
M 245.18 291.39 243.29 297.7 
M 250.25 293.5 248.99 297.7 
M 249.98 294.39 249.56 293.8 249.05 293.5 248.15 293.5 247.46 293.8 246.68 294.39 246.11 295.3 245.93 295.89 245.96 296.8 246.38 297.39 246.89 297.7 247.79 297.7 248.48 297.39 249.26 296.8 
M 255.65 293.5 253.76 299.8 
M 255.38 294.39 256.15 293.8 256.85 293.5 257.75 293.5 258.26 293.8 258.68 294.39 258.71 295.3 258.52 295.89 257.96 296.8 257.18 297.39 256.49 297.7 255.59 297.7 255.08 297.39 254.66 296.8 
M 260.51 295.3 264.11 295.3 264.28 294.7 264.16 294.1 263.45 293.5 262.55 293.5 261.86 293.8 261.08 294.39 260.51 295.3 260.33 295.89 260.36 296.8 260.77 297.39 261.28 297.7 262.19 297.7 262.88 297.39 263.65 296.8 
M 267.68 291.39 266.14 296.5 266.18 297.39 266.69 297.7 267.29 297.7 
M 266.14 293.5 268.25 293.5 
M 270.35 293.5 269.45 296.5 269.48 297.39 269.99 297.7 270.89 297.7 271.58 297.39 272.75 296.5 
M 273.64 293.5 272.39 297.7 
M 278.77 294.39 278.65 293.8 277.85 293.5 276.95 293.5 275.95 293.8 275.48 294.39 275.6 295 276.11 295.3 277.52 295.6 278.02 295.89 278.06 296.8 277.58 297.39 276.58 297.7 275.69 297.7 274.88 297.39 274.76 296.8 
M 280.37 297.1 279.98 297.39 280.19 297.7 280.58 297.39 280.37 297.1 
"/></svg>
