<svg xmlns="http://www.w3.org/2000/svg" width="520" height="320"><rect x="0" y="0" width="520" height="320" fill="floralwhite"/><rect x="10" y="10" width="500" height="300" stroke="black" stroke-width="1" fill="none"/><path stroke="black" stroke-width="1" fill="none" stroke-linecap="round" stroke-linejoin="round" d="
M 160.55 137.13 169.39 134.63 196.01 125.3 213.76 117.81 222.63 114.9 231.51 113.2 249.26 110.69 258.13 110.55 267 111.17 275.88 112.47 284.75 114.65 293.63 117.71 302.5 121.18 320.25 127.53 329.12 131.26 338 135.48 346.87 139.02 355.74 142.31 373.49 149.43 383.21 152.77 
M 383.21 185.16 373.49 190.02 355.74 198.19 329.12 208.98 320.25 211.8 311.37 213.7 302.5 214.82 284.75 214.99 275.88 215.86 267 216.45 258.13 216.45 249.26 216.22 240.38 215.04 231.51 214.25 213.76 214.24 204.89 214.06 196.01 213.24 187.14 211.32 178.26 208.91 169.36 206.06 
M 164.24 140.26 164.24 139.81 163.61 139 162.62 138.29 161.85 138.01 
M 164.74 139.15 165.41 138.87 166.26 138.16 166.81 137.35 166.81 136.86 166.26 136.05 165.78 135.65 
M 166.64 144.78 166.87 144.44 166.87 143.93 166.3 143.11 165.54 142.49 
M 167.94 143.71 168.8 143.42 169.9 142.67 170.62 141.83 170.62 141.31 169.9 140.47 168.8 139.73 167.94 139.44 
M 176.68 204.09 177.27 203.74 178.03 202.86 178.51 201.85 178.51 201.23 178.03 200.22 177.27 199.34 176.68 198.99 
M 172.71 162.56 173.31 162.11 174.03 161.15 174.03 160.55 173.31 159.59 172.19 158.75 171.32 158.41 
M 178.44 199.99 178.49 199.95 
M 180.68 205.62 180.68 205.2 180.33 204.28 179.78 203.47 179.35 203.15 
M 173.73 138.16 174.51 137.83 175.51 137 176.15 136.06 176.15 135.48 175.51 134.54 174.51 133.71 173.73 133.38 
M 174.55 145.92 175.46 145.61 176.62 144.8 177.37 143.89 177.37 143.32 176.62 142.41 175.46 141.6 174.55 141.29 
M 175.1 161.01 176.15 160.69 177.5 159.87 178.37 158.95 178.37 158.38 177.5 157.45 176.15 156.63 175.1 156.32 
M 175.79 169.3 176.85 168.96 178.19 168.07 179.06 167.06 179.06 166.43 178.19 165.42 176.85 164.53 175.79 164.18 
M 177.2 178.31 178.15 177.94 179.37 176.98 180.15 175.91 180.15 175.24 179.37 174.16 178.15 173.21 177.2 172.84 
M 180.99 203.56 181.55 203.25 182.28 202.45 182.62 201.79 
M 175.86 134.75 176.43 134.4 177.15 133.49 177.62 132.46 177.6 131.77 
M 177.5 143.23 178.22 142.89 179.14 142.01 179.74 141.02 179.74 140.4 179.14 139.41 178.22 138.54 177.5 138.2 
M 178.39 151.07 179.2 150.75 180.23 149.93 180.89 149 180.89 148.43 180.23 147.5 179.2 146.69 178.39 146.37 
M 178.74 158.64 179.61 158.33 180.74 157.52 181.46 156.61 181.46 156.04 180.74 155.13 179.61 154.32 178.74 154.01 
M 179.18 166.57 180.1 166.24 181.28 165.39 182.04 164.44 182.04 163.84 181.28 162.88 180.1 162.03 179.18 161.7 
M 180.12 175.06 181 174.71 182.12 173.82 182.84 172.81 182.84 172.18 182.12 171.17 181 170.28 180.12 169.93 
M 181.39 178.54 181.3 178.5 
M 183.51 206.3 183.99 205.65 184.34 204.83 184.34 204.32 183.99 203.5 183.45 202.78 183.03 202.49 
M 179.51 139.71 180.26 139.34 181.22 138.39 181.84 137.31 181.84 136.64 181.22 135.56 180.26 134.61 179.51 134.23 
M 181.23 148.28 182.11 147.93 183.24 147.04 183.97 146.03 183.97 145.4 183.24 144.39 182.11 143.5 181.23 143.15 
M 182.16 156.25 183.13 155.92 184.38 155.08 185.19 154.13 185.19 153.53 184.38 152.58 183.13 151.74 182.16 151.41 
M 182.77 164.16 183.81 163.84 185.14 163 186 162.05 186 161.46 185.14 160.51 183.81 159.67 182.77 159.35 
M 183.46 172.28 184.5 171.95 185.83 171.1 186.69 170.13 186.69 169.54 185.83 168.57 184.5 167.72 183.46 167.39 
M 186.43 176.82 185.14 175.87 184.2 175.54 
M 185.25 202.99 185.83 202.7 
M 186.21 206.95 185.31 205.75 184.81 205.47 
M 180.95 135.65 181.49 135.24 182.19 134.2 182.64 133.02 182.64 132.29 182.19 131.11 181.65 130.3 
M 183.74 145.21 184.4 144.83 185.25 143.84 185.79 142.72 185.79 142.03 185.25 140.91 184.4 139.92 183.74 139.54 
M 185.3 153.61 186.04 153.26 187 152.37 187.62 151.36 187.62 150.74 187 149.73 186.04 148.84 185.3 148.49 
M 186.21 161.68 187.03 161.35 188.08 160.49 188.75 159.53 188.75 158.93 188.08 157.96 187.03 157.11 186.21 156.77 
M 186.95 169.76 187.8 169.43 188.89 168.59 189.6 167.63 189.6 167.03 188.89 166.08 187.8 165.23 186.95 164.9 
M 190.12 175.29 190.12 175.09 189.45 174.16 188.4 173.34 187.58 173.02 
M 186.9 205.73 187.35 205.47 187.94 204.82 188.32 204.08 188.22 203.42 
M 181.88 130.88 182.48 130.48 182.99 129.82 
M 184.96 140.88 185.66 140.46 186.56 139.41 187.14 138.21 187.14 137.47 186.56 136.27 185.66 135.22 184.96 134.81 
M 187.48 150.19 188.28 149.81 189.32 148.83 189.99 147.72 189.99 147.04 189.32 145.93 188.28 144.95 187.48 144.57 
M 188.99 158.67 189.88 158.32 191.02 157.42 191.76 156.4 191.76 155.77 191.02 154.75 189.88 153.85 188.99 153.5 
M 189.98 166.87 190.92 166.53 192.13 165.67 192.91 164.7 192.91 164.09 192.13 163.12 190.92 162.26 189.98 161.92 
M 190.67 174.85 191.62 174.53 192.83 173.7 193.61 172.77 193.61 172.19 192.83 171.26 191.62 170.43 190.67 170.11 
M 190.19 207.74 190.58 207.12 190.58 206.65 190.1 205.89 189.35 205.22 188.77 204.96 
M 185.82 136.16 186.34 135.73 187.01 134.6 187.45 133.33 187.45 132.55 187.01 131.28 186.34 130.16 185.82 129.72 
M 189.34 146.48 189.95 146.06 190.72 144.99 191.22 143.77 191.22 143.02 190.72 141.8 189.95 140.72 189.34 140.3 
M 191.53 155.45 192.21 155.08 193.08 154.12 193.64 153.04 193.64 152.36 193.08 151.28 192.21 150.32 191.53 149.95 
M 192.92 163.93 193.65 163.58 194.58 162.69 195.18 161.67 195.18 161.05 194.58 160.03 193.65 159.14 192.92 158.79 
M 193.86 172.1 194.6 171.77 195.55 170.92 196.16 169.96 196.16 169.37 195.55 168.41 194.6 167.56 193.86 167.23 
M 191.39 205.53 192.3 204.97 
M 190.59 207.82 190.48 207.76 
M 186.48 131.05 187.08 130.63 187.85 129.56 188.34 128.35 188.34 127.9 
M 190.12 141.67 190.79 141.23 191.65 140.1 192.21 138.81 192.21 138.02 191.65 136.73 190.79 135.6 190.12 135.16 
M 193.26 151.59 194.01 151.18 194.98 150.13 195.61 148.95 195.61 148.21 194.98 147.03 194.01 145.98 193.26 145.57 
M 195.23 160.46 196.05 160.09 197.09 159.15 197.76 158.08 197.76 157.42 197.09 156.36 196.05 155.41 195.23 155.05 
M 196.46 168.81 197.3 168.47 198.37 167.6 199.06 166.6 199.06 165.99 198.37 165 197.3 164.12 196.46 163.78 
M 199.53 174.98 199.76 174.68 199.76 174.11 199.07 173.18 198 172.36 197.16 172.04 
M 194.59 208.57 195.23 208.11 195.81 207.38 195.81 206.93 195.23 206.2 194.33 205.56 193.63 205.31 
M 190.59 136.54 191.11 136.08 191.77 134.89 192.2 133.54 192.2 132.71 191.77 131.36 191.11 130.18 190.59 129.71 
M 194.73 147.5 195.32 147.05 196.08 145.9 196.57 144.6 196.57 143.8 196.08 142.5 195.32 141.35 194.73 140.9 
M 197.43 156.91 198.08 156.52 198.91 155.52 199.44 154.38 199.44 153.68 198.91 152.54 198.08 151.53 197.43 151.14 
M 196.83 206.36 197.73 205.93 
M 196.48 208.87 195.8 208.59 
M 191.06 131.18 191.66 130.74 192.43 129.62 192.93 128.36 192.93 127.57 192.5 126.49 
M 195.19 142.36 195.86 141.89 196.71 140.69 197.26 139.33 197.26 138.49 196.71 137.13 195.86 135.93 195.19 135.46 
M 198.85 152.75 199.59 152.32 200.52 151.22 201.13 149.98 201.13 149.21 200.52 147.97 199.59 146.87 198.85 146.44 
M 195.37 136.92 195.89 136.44 196.56 135.18 197 133.76 197 132.88 196.56 131.46 195.89 130.21 195.37 129.72 
M 200.09 148.47 200.68 147.99 201.43 146.78 201.92 145.41 201.92 144.56 201.43 143.19 200.68 141.97 200.09 141.5 
M 195.7 131.36 196.31 130.91 197.1 129.74 197.61 128.43 197.61 127.61 197.1 126.29 196.33 125.16 
M 200.27 143.02 200.94 142.52 201.8 141.27 202.35 139.84 202.35 138.96 201.8 137.54 200.94 136.28 200.27 135.79 
M 204.32 153.73 205.04 153.29 205.95 152.16 206.53 150.88 206.53 150.09 205.95 148.81 205.04 147.68 204.32 147.23 
M 206.68 162.8 207.4 162.42 208.32 161.46 208.91 160.37 208.91 159.7 208.32 158.61 207.4 157.64 206.68 157.27 
M 207.83 209.43 207.43 209.01 206.39 208.39 205.57 208.14 
M 195.86 125.59 196.38 125.14 
M 200.23 137.36 200.76 136.85 201.45 135.54 201.9 134.06 201.9 133.14 201.45 131.66 200.76 130.35 200.23 129.84 
M 210.87 175.36 211.43 175.03 212.15 174.19 212.62 173.23 212.62 172.64 212.15 171.69 211.43 170.85 210.87 170.52 
M 200.49 131.66 201.13 131.19 201.96 130 202.49 128.64 202.49 127.8 201.96 126.45 201.13 125.25 200.49 124.79 
M 205.37 143.63 206.04 143.13 206.9 141.84 207.45 140.37 207.45 139.46 206.9 138 206.04 136.71 205.37 136.2 
M 200.63 125.83 201.18 125.41 201.88 124.33 202.33 123.11 202.33 122.67 
M 205.23 137.86 205.79 137.34 206.5 136 206.96 134.48 206.96 133.55 206.5 132.03 205.79 130.69 205.23 130.17 
M 210.62 150 211.19 149.5 211.91 148.23 212.37 146.79 212.37 145.9 211.91 144.46 211.19 143.19 210.62 142.69 
M 215.92 175.81 216.46 175.48 217.16 174.64 217.61 173.69 217.61 173.11 217.16 172.16 216.46 171.32 215.92 170.99 
M 205.54 132.16 206.24 131.69 207.13 130.48 207.7 129.12 207.7 128.27 207.13 126.91 206.24 125.7 205.54 125.23 
M 210.5 144.19 211.17 143.69 212.04 142.39 212.6 140.92 212.6 140.01 212.04 138.54 211.17 137.24 210.5 136.73 
M 218.07 172.04 218.72 171.7 219.54 170.85 220.08 169.88 220.08 169.28 219.54 168.31 218.72 167.45 218.07 167.12 
M 205.86 126.49 206.48 126.07 207.28 124.98 207.79 123.76 207.79 123 207.28 121.77 206.61 120.87 
M 220.85 176.15 221.39 175.83 222.07 174.99 222.51 174.05 222.51 173.47 222.07 172.52 221.39 171.69 220.85 171.36 
M 222.11 183.43 222.55 182.89 222.98 181.97 222.98 181.4 222.55 180.47 221.88 179.65 221.36 179.34 
M 221.48 209.25 221.03 208.26 220.33 207.59 219.78 207.33 
M 207.89 122.61 208.69 122.24 209.72 121.31 210.38 120.25 210.38 119.6 210.21 119.33 
M 211.04 133 211.81 132.54 212.79 131.36 213.42 130.03 213.42 129.2 212.79 127.87 211.81 126.69 211.04 126.23 
M 219.65 155.28 220.28 154.85 221.07 153.73 221.59 152.46 221.59 151.67 221.07 150.4 220.28 149.28 219.65 148.85 
M 222.94 172.32 223.56 171.99 224.36 171.13 224.88 170.16 224.88 169.56 224.36 168.59 223.56 167.74 222.94 167.4 
M 223.49 180.16 224.11 179.84 224.91 179.02 225.42 178.1 225.42 177.52 224.91 176.6 224.11 175.78 223.49 175.46 
M 224.84 186.98 225.63 185.79 225.63 185.24 225.14 184.35 224.38 183.57 223.78 183.27 
M 222.53 208.12 223.15 207.85 223.95 207.16 224.47 206.39 224.47 205.91 223.76 204.97 
M 211.88 127.84 212.59 127.43 213.51 126.38 214.1 125.19 214.1 124.45 213.51 123.27 212.59 122.22 211.88 121.81 
M 215.98 139.19 216.6 138.7 217.4 137.45 217.91 136.04 217.91 135.17 217.4 133.75 216.6 132.5 215.98 132.02 
M 224.98 168.48 225.48 168.13 226.13 167.24 226.55 166.24 226.55 165.62 226.13 164.62 225.48 163.73 224.98 163.38 
M 225.69 176.39 226.21 176.07 226.87 175.24 227.29 174.3 227.29 173.72 226.87 172.78 226.21 171.95 225.69 171.62 
M 226.06 184.08 226.56 183.77 227.2 182.97 227.62 182.07 227.62 181.52 227.2 180.62 226.56 179.82 226.06 179.51 
M 226.62 190.95 227.12 190.32 227.51 189.47 227.51 188.95 227.12 188.1 226.53 187.35 226.06 187.05 
M 225.08 204.87 225.56 204.6 226.18 203.89 226.58 203.1 226.58 202.75 
M 226.3 209.22 225.93 208.55 225.24 207.86 224.71 207.59 
M 214.24 124.31 215.14 123.96 216.28 123.05 217.02 122.02 217.02 121.39 216.28 120.36 215.14 119.45 214.24 119.1 
M 226.47 164.23 227.06 163.86 227.81 162.91 228.29 161.83 228.29 161.17 227.81 160.09 227.06 159.14 226.47 158.77 
M 227.63 172.45 228.23 172.11 228.99 171.25 229.49 170.28 229.49 169.67 228.99 168.7 228.23 167.83 227.63 167.5 
M 228.17 180.22 228.77 179.9 229.53 179.1 230.02 178.19 230.02 177.62 229.53 176.71 228.77 175.9 228.17 175.59 
M 228.22 187.55 228.79 187.25 229.51 186.49 229.98 185.63 229.98 185.1 229.51 184.24 228.79 183.49 228.22 183.19 
M 227.88 194.51 228.42 194.22 229.11 193.49 229.55 192.67 229.55 192.16 229.11 191.33 228.42 190.6 227.88 190.32 
M 227.45 201.37 228 201.09 228.71 200.37 229.17 199.55 229.17 199.04 228.59 198.1 
M 227.22 208.33 227.83 208.05 228.62 207.32 229.12 206.5 229.12 206 228.62 205.18 227.83 204.45 227.22 204.17 
M 216.67 120.94 217.46 120.63 218.47 119.83 219.12 118.94 219.12 118.38 218.47 117.48 217.34 116.64 
M 218.5 129.69 219.26 129.3 220.23 128.32 220.86 127.21 220.86 126.52 220.23 125.41 219.26 124.43 218.5 124.04 
M 227.9 159.87 228.37 159.48 228.98 158.48 229.37 157.35 229.37 156.65 228.98 155.52 228.37 154.52 227.9 154.13 
M 229.51 168.46 229.99 168.11 230.6 167.21 230.99 166.19 230.99 165.56 230.6 164.54 229.99 163.64 229.51 163.28 
M 230.35 176.47 230.84 176.14 231.47 175.31 231.87 174.37 231.87 173.79 231.47 172.85 230.84 172.02 230.35 171.7 
M 230.58 183.93 231.06 183.63 231.67 182.86 232.07 182 232.07 181.46 231.67 180.59 231.06 179.83 230.58 179.53 
M 230.18 190.82 230.62 190.54 231.19 189.81 231.56 189 231.56 188.49 231.19 187.67 230.62 186.95 230.18 186.67 
M 229.61 197.62 230.04 197.34 230.6 196.61 230.96 195.79 230.96 195.28 230.6 194.46 230.04 193.73 229.61 193.45 
M 229.44 204.79 229.92 204.49 230.54 203.74 230.94 202.89 230.94 202.36 230.54 201.51 229.92 200.76 229.44 200.47 
M 231.07 209.2 230.18 208.09 229.63 207.8 
M 219.81 118.56 220.75 118.28 221.96 117.56 222.73 116.74 222.73 116.24 221.63 115.23 
M 221.01 126.38 221.93 126.05 223.11 125.18 223.87 124.2 223.87 123.6 223.11 122.62 221.93 121.76 221.01 121.42 
M 228.82 154.99 229.41 154.6 230.16 153.58 230.64 152.42 230.64 151.71 230.16 150.55 229.41 149.53 228.82 149.13 
M 230.83 163.98 231.39 163.62 232.1 162.67 232.56 161.6 232.56 160.94 232.1 159.87 231.39 158.92 230.83 158.55 
M 232.09 172.34 232.65 172 233.37 171.13 233.83 170.15 233.83 169.54 233.37 168.56 232.65 167.69 232.09 167.35 
M 232.63 180.06 233.19 179.75 233.92 178.96 234.38 178.06 234.38 177.5 233.92 176.6 233.19 175.81 232.63 175.5 
M 232.44 187.12 232.99 186.83 233.68 186.09 234.13 185.26 234.13 184.75 233.68 183.91 232.99 183.18 232.44 182.89 
M 231.87 193.91 232.4 193.63 233.08 192.9 233.52 192.08 233.52 191.57 233.08 190.74 232.4 190.01 231.87 189.73 
M 231.64 201.09 232.21 200.79 232.93 200.03 233.4 199.17 233.4 198.63 232.93 197.77 232.21 197.01 231.64 196.71 
M 231.93 208.6 232.56 208.3 233.36 207.52 233.88 206.65 233.88 206.11 233.36 205.23 232.56 204.46 231.93 204.16 
M 222.96 116.21 223.74 115.95 224.74 115.3 225.38 114.56 225.38 114.37 
M 223.66 123.3 224.44 123 225.43 122.22 226.07 121.34 226.07 120.8 225.43 119.92 224.44 119.14 223.66 118.84 
M 225.22 131.6 225.96 131.25 226.9 130.35 227.51 129.32 227.51 128.69 226.9 127.67 225.96 126.77 225.22 126.41 
M 227.48 140.78 228.1 140.4 228.91 139.41 229.43 138.29 229.43 137.59 228.91 136.47 228.1 135.48 227.48 135.1 
M 229.97 150.25 230.48 149.86 231.14 148.85 231.57 147.71 231.57 147 231.14 145.86 230.48 144.86 229.97 144.46 
M 232.14 159.44 232.6 159.06 233.19 158.09 233.57 157 233.57 156.32 233.19 155.22 232.6 154.25 232.14 153.87 
M 233.77 168.16 234.22 167.8 234.79 166.9 235.16 165.87 235.16 165.23 234.79 164.2 234.22 163.29 233.77 162.94 
M 234.72 176.26 235.18 175.93 235.76 175.1 236.13 174.16 236.13 173.58 235.76 172.63 235.18 171.8 234.72 171.48 
M 234.87 183.58 235.33 183.29 235.91 182.54 236.28 181.7 236.28 181.17 235.91 180.33 235.33 179.58 234.87 179.29 
M 234.14 190.14 234.58 189.86 235.14 189.16 235.5 188.36 235.5 187.86 235.14 187.06 234.58 186.36 234.14 186.08 
M 233.56 197.07 234.01 196.77 234.6 196.02 234.97 195.16 234.97 194.63 234.6 193.77 234.01 193.02 233.56 192.72 
M 233.95 204.88 234.46 204.56 235.12 203.75 235.54 202.83 235.54 202.26 235.12 201.35 234.46 200.53 233.95 200.22 
M 236.13 209.56 235.25 208.45 234.69 208.14 
M 226.61 120.75 227.51 120.47 228.66 119.76 229.41 118.95 229.41 118.45 228.66 117.65 227.51 116.94 226.61 116.66 
M 229.32 136.76 230.11 136.41 231.12 135.5 231.77 134.47 231.77 133.84 231.12 132.81 230.11 131.9 229.32 131.55 
M 231.31 145.69 231.98 145.31 232.83 144.36 233.38 143.28 233.38 142.62 232.83 141.54 231.98 140.58 231.31 140.21 
M 233.29 154.69 233.86 154.32 234.59 153.36 235.06 152.28 235.06 151.62 234.59 150.54 233.86 149.58 233.29 149.21 
M 234.98 163.49 235.51 163.13 236.19 162.2 236.62 161.16 236.62 160.51 236.19 159.47 235.51 158.54 234.98 158.18 
M 236.21 171.88 236.74 171.54 237.41 170.67 237.84 169.69 237.84 169.08 237.41 168.1 236.74 167.23 236.21 166.89 
M 236.78 179.62 237.31 179.31 237.99 178.52 238.42 177.62 238.42 177.07 237.99 176.17 237.31 175.38 236.78 175.07 
M 236.51 186.59 237.04 186.3 237.73 185.57 238.17 184.74 238.17 184.23 237.73 183.4 237.04 182.67 236.51 182.38 
M 235.95 193.46 236.51 193.17 237.22 192.42 237.68 191.57 237.68 191.05 237.22 190.2 236.51 189.46 235.95 189.16 
M 236.07 201.07 236.68 200.75 237.46 199.95 237.96 199.03 237.96 198.47 237.46 197.55 236.68 196.74 236.07 196.43 
M 236.84 209.05 237.49 208.73 238.33 207.92 238.87 206.99 238.87 206.42 238.33 205.5 237.49 204.68 236.84 204.36 
M 230.23 125.23 230.95 124.94 231.88 124.18 232.48 123.33 232.48 122.79 231.88 121.94 230.95 121.18 230.23 120.88 
M 231.51 133.14 232.19 132.81 233.06 131.97 233.63 131.01 233.63 130.42 233.06 129.47 232.19 128.62 231.51 128.3 
M 233.07 141.52 233.66 141.18 234.41 140.28 234.89 139.27 234.89 138.64 234.41 137.63 233.66 136.73 233.07 136.39 
M 234.74 150.18 235.23 149.82 235.85 148.9 236.26 147.86 236.26 147.22 235.85 146.18 235.23 145.26 234.74 144.9 
M 236.32 158.88 236.75 158.53 237.31 157.61 237.66 156.57 237.66 155.92 237.31 154.88 236.75 153.96 236.32 153.6 
M 237.7 167.47 238.12 167.12 238.65 166.22 239 165.21 239 164.58 238.65 163.57 238.12 162.67 237.7 162.32 
M 238.67 175.63 239.09 175.3 239.63 174.47 239.98 173.52 239.98 172.94 239.63 171.99 239.09 171.15 238.67 170.83 
M 238.87 183 239.3 182.71 239.85 181.96 240.21 181.11 240.21 180.58 239.85 179.73 239.3 178.98 238.87 178.69 
M 238.16 189.63 238.62 189.35 239.21 188.63 239.58 187.81 239.58 187.3 239.21 186.48 238.62 185.75 238.16 185.47 
M 237.93 196.99 238.44 196.68 239.09 195.87 239.51 194.96 239.51 194.4 239.09 193.49 238.44 192.69 237.93 192.38 
M 238.85 205.33 239.4 205 240.1 204.14 240.56 203.17 240.56 202.57 240.1 201.59 239.4 200.74 238.85 200.4 
M 241.24 209.98 240.43 209 239.88 208.69 
M 232.6 116.05 233.44 115.81 234.52 115.19 235.22 114.49 235.22 114.05 234.52 113.35 233.72 112.88 
M 233.03 122.57 233.88 122.29 234.97 121.59 235.67 120.8 235.67 120.31 234.97 119.51 233.88 118.81 233.03 118.53 
M 233.9 129.87 234.73 129.57 235.78 128.79 236.45 127.91 236.45 127.36 235.78 126.48 234.73 125.71 233.9 125.4 
M 235.03 137.66 235.76 137.34 236.7 136.52 237.3 135.58 237.3 135 236.7 134.07 235.76 133.24 235.03 132.92 
M 236.22 145.75 236.83 145.41 237.61 144.55 238.11 143.58 238.11 142.98 237.61 142 236.83 141.14 236.22 140.81 
M 237.49 154.11 238.01 153.76 238.67 152.87 239.1 151.87 239.1 151.25 238.67 150.24 238.01 149.36 237.49 149.01 
M 238.8 162.64 239.29 162.29 239.91 161.39 240.31 160.38 240.31 159.75 239.91 158.73 239.29 157.84 238.8 157.49 
M 239.97 171.05 240.46 170.71 241.08 169.84 241.49 168.86 241.49 168.25 241.08 167.26 240.46 166.39 239.97 166.05 
M 240.63 178.92 241.13 178.6 241.78 177.8 242.2 176.89 242.2 176.32 241.78 175.41 241.13 174.6 240.63 174.29 
M 240.55 186.12 241.09 185.83 241.78 185.07 242.23 184.21 242.23 183.67 241.78 182.81 241.09 182.05 240.55 181.76 
M 240.36 193.4 240.96 193.1 241.73 192.31 242.23 191.41 242.23 190.86 241.73 189.97 240.96 189.18 240.36 188.87 
M 240.92 201.43 241.57 201.1 242.41 200.26 242.94 199.3 242.94 198.71 242.41 197.76 241.57 196.91 240.92 196.58 
M 241.91 209.58 242.57 209.26 243.42 208.43 243.97 207.48 243.97 206.9 243.42 205.96 242.57 205.13 241.91 204.8 
M 235.56 113.81 236.23 113.58 237.09 112.99 237.64 112.32 
M 235.84 119.95 236.53 119.69 237.42 119.03 237.99 118.28 237.99 117.82 237.42 117.07 236.53 116.41 235.84 116.15 
M 236.48 126.85 237.18 126.56 238.06 125.83 238.63 124.99 238.63 124.48 238.06 123.65 237.18 122.91 236.48 122.63 
M 237.4 134.25 238.04 133.95 238.85 133.18 239.38 132.3 239.38 131.76 238.85 130.89 238.04 130.11 237.4 129.81 
M 238.16 141.74 238.68 141.43 239.35 140.63 239.78 139.74 239.78 139.18 239.35 138.28 238.68 137.49 238.16 137.18 
M 238.93 149.54 239.36 149.22 239.9 148.39 240.26 147.44 240.26 146.86 239.9 145.92 239.36 145.09 238.93 144.76 
M 239.96 157.82 240.35 157.47 240.84 156.6 241.16 155.6 241.16 154.98 240.84 153.99 240.35 153.11 239.96 152.77 
M 241.22 166.39 241.61 166.04 242.11 165.15 242.43 164.14 242.43 163.51 242.11 162.5 241.61 161.6 241.22 161.25 
M 242.29 174.71 242.69 174.38 243.21 173.53 243.54 172.56 243.54 171.96 243.21 171 242.69 170.14 242.29 169.81 
M 242.69 182.34 243.12 182.03 243.66 181.25 244.01 180.36 244.01 179.81 243.66 178.92 243.12 178.13 242.69 177.83 
M 242.48 189.53 242.96 189.22 243.59 188.44 243.99 187.55 243.99 187.01 243.59 186.12 242.96 185.34 242.48 185.04 
M 242.87 197.47 243.42 197.14 244.13 196.29 244.59 195.33 244.59 194.74 244.13 193.77 243.42 192.93 242.87 192.59 
M 238.69 117.6 239.48 117.35 240.51 116.72 241.16 116 241.16 115.55 240.51 114.84 239.48 114.2 238.69 113.95 
M 239.19 124.13 240 123.86 241.04 123.16 241.71 122.38 241.71 121.89 241.04 121.11 240 120.41 239.19 120.14 
M 239.86 131.1 240.63 130.81 241.62 130.09 242.26 129.26 242.26 128.75 241.62 127.93 240.63 127.21 239.86 126.92 
M 240.31 138.09 240.98 137.8 241.83 137.07 242.39 136.24 242.39 135.72 241.83 134.89 240.98 134.16 240.31 133.88 
M 240.53 145.18 241.07 144.88 241.76 144.12 242.21 143.26 242.21 142.73 241.76 141.86 241.07 141.1 240.53 140.8 
M 241.03 152.9 241.5 152.58 242.1 151.75 242.49 150.81 242.49 150.22 242.1 149.28 241.5 148.45 241.03 148.13 
M 242.11 161.35 242.57 161 243.15 160.11 243.53 159.1 243.53 158.47 243.15 157.47 242.57 156.57 242.11 156.23 
M 243.42 169.97 243.89 169.62 244.49 168.73 244.88 167.72 244.88 167.1 244.49 166.09 243.89 165.2 243.42 164.85 
M 244.32 178.13 244.81 177.8 245.45 176.95 245.86 176 245.86 175.41 245.45 174.45 244.81 173.61 244.32 173.28 
M 241.44 115.17 242.08 114.93 242.89 114.31 243.42 113.62 243.42 113.19 242.89 112.5 241.7 111.74 
M 241.9 121.46 242.56 121.2 243.4 120.53 243.95 119.77 243.95 119.3 243.4 118.54 242.56 117.87 241.9 117.61 
M 242.54 128.25 243.2 127.98 244.04 127.27 244.58 126.47 244.58 125.97 244.04 125.17 243.2 124.46 242.54 124.19 
M 243 135.03 243.59 134.76 244.36 134.07 244.85 133.29 244.85 132.81 244.36 132.03 243.59 131.34 243 131.07 
M 242.67 141.33 243.15 141.07 243.76 140.39 244.15 139.63 244.15 139.15 243.76 138.39 243.15 137.71 242.67 137.45 
M 242.35 148.12 242.73 147.82 243.22 147.08 243.54 146.23 243.54 145.71 243.22 144.87 242.73 144.12 242.35 143.83 
M 242.9 156.13 243.26 155.79 243.73 154.92 244.03 153.94 244.03 153.34 243.73 152.36 243.26 151.49 242.9 151.16 
M 244.38 165.06 244.76 164.69 245.24 163.77 245.55 162.72 245.55 162.07 245.24 161.02 244.76 160.09 244.38 159.73 
M 245.78 173.72 246.18 173.37 246.69 172.48 247.01 171.47 247.01 170.85 246.69 169.84 246.18 168.95 245.78 168.6 
M 244.05 112.8 244.79 112.57 245.74 111.98 246.35 111.31 246.35 111.09 
M 244.51 118.88 245.27 118.63 246.23 117.98 246.86 117.25 246.86 116.79 246.23 116.06 245.27 115.41 244.51 115.16 
M 245.09 125.42 245.85 125.15 246.82 124.47 247.45 123.69 247.45 123.21 246.82 122.44 245.85 121.75 245.09 121.48 
M 245.51 132.02 246.23 131.76 247.16 131.08 247.76 130.32 247.76 129.85 247.16 129.08 246.23 128.41 245.51 128.15 
M 245.2 138.13 245.83 137.88 246.63 137.24 247.14 136.52 247.14 136.07 246.63 135.34 245.83 134.7 245.2 134.45 
M 244.34 144.14 244.85 143.88 245.51 143.21 245.93 142.45 245.93 141.98 245.51 141.23 244.85 140.56 244.34 140.3 
M 244.09 151.24 244.54 150.93 245.11 150.15 245.49 149.25 245.49 148.7 245.11 147.81 244.54 147.02 244.09 146.71 
M 245.1 159.78 245.54 159.43 246.12 158.52 246.48 157.5 246.48 156.86 246.12 155.83 245.54 154.92 245.1 154.57 
M 246.73 168.8 247.19 168.44 247.79 167.51 248.18 166.45 248.18 165.8 247.79 164.75 247.19 163.81 246.73 163.45 
M 247.98 177.35 248.48 177 249.12 176.11 249.53 175.09 249.53 174.46 249.12 173.45 248.48 172.55 247.98 172.2 
M 247.05 116.24 247.66 116 248.44 115.37 248.94 114.66 248.94 114.22 248.44 113.51 247.66 112.88 247.05 112.64 
M 247.65 122.64 248.26 122.38 249.05 121.7 249.56 120.94 249.56 120.46 249.05 119.7 248.26 119.02 247.65 118.76 
M 248.25 129.3 248.86 129.04 249.63 128.36 250.13 127.59 250.13 127.11 249.63 126.34 248.86 125.66 248.25 125.39 
M 248.25 135.49 248.81 135.25 249.52 134.64 249.98 133.94 249.98 133.5 249.52 132.8 248.81 132.19 248.25 131.94 
M 246.88 140.68 247.34 140.45 247.92 139.87 248.3 139.21 248.3 138.8 247.92 138.15 247.34 137.56 246.88 137.34 
M 245.47 146.45 245.86 146.19 246.35 145.51 246.67 144.74 246.67 144.27 246.35 143.5 245.86 142.83 245.47 142.56 
M 245.64 154.27 246.01 153.93 246.48 153.07 246.78 152.09 246.78 151.48 246.48 150.5 246.01 149.64 245.64 149.3 
M 247.47 163.69 247.85 163.31 248.34 162.33 248.66 161.23 248.66 160.55 248.34 159.45 247.85 158.47 247.47 158.09 
M 249.53 113.71 250.24 113.48 251.15 112.88 251.74 112.21 251.74 111.79 251.15 111.11 250.47 110.67 
M 250.04 119.84 250.76 119.59 251.67 118.94 252.25 118.2 252.25 117.75 251.67 117.01 250.76 116.36 250.04 116.11 
M 250.61 126.32 251.31 126.06 252.21 125.39 252.79 124.63 252.79 124.16 252.21 123.4 251.31 122.73 250.61 122.47 
M 250.8 132.61 251.47 132.36 252.32 131.73 252.88 131.01 252.88 130.57 252.32 129.85 251.47 129.22 250.8 128.97 
M 249.84 138.01 250.44 137.79 251.21 137.21 251.71 136.55 251.71 136.15 251.21 135.49 250.44 134.92 249.84 134.69 
M 248.09 143.13 248.61 142.89 249.28 142.28 249.71 141.59 249.71 141.17 249.28 140.48 248.61 139.87 248.09 139.63 
M 247.22 149.7 247.69 149.4 248.3 148.64 248.69 147.78 248.69 147.25 248.3 146.39 247.69 145.63 247.22 145.33 
M 248.19 158.34 248.66 157.98 249.26 157.06 249.65 156.01 249.65 155.36 249.26 154.31 248.66 153.39 248.19 153.03 
M 254.83 194.54 255.44 194.18 256.21 193.24 256.71 192.19 256.71 191.53 256.21 190.47 255.44 189.54 254.83 189.17 
M 252 111.18 253.03 110.63 
M 252.45 117.05 253.03 116.81 253.77 116.18 254.25 115.47 254.25 115.04 253.77 114.33 253.03 113.7 252.45 113.46 
M 253.03 123.42 253.6 123.16 254.32 122.49 254.79 121.73 254.79 121.26 254.32 120.51 253.6 119.84 253.03 119.58 
M 253.52 129.92 254.07 129.66 254.78 129 255.23 128.26 255.23 127.8 254.78 127.06 254.07 126.4 253.52 126.14 
M 253.17 135.71 253.69 135.49 254.35 134.91 254.78 134.26 254.78 133.85 254.35 133.2 253.69 132.62 253.17 132.4 
M 251.08 140.16 252.14 139.41 252.53 138.81 252.53 138.43 252.14 137.83 251.08 137.08 
M 248.93 145.22 249.36 144.97 249.9 144.33 250.25 143.61 250.25 143.16 249.9 142.44 249.36 141.8 248.93 141.55 
M 248.82 152.86 249.23 152.52 249.75 151.66 250.08 150.68 250.08 150.08 249.75 149.1 249.23 148.24 248.82 147.9 
M 254.84 114.42 255.52 114.19 256.38 113.6 256.94 112.94 256.94 112.52 256.38 111.86 255.52 111.27 254.84 111.04 
M 255.28 120.46 255.95 120.21 256.8 119.58 257.34 118.85 257.34 118.4 256.8 117.68 255.95 117.04 255.28 116.79 
M 255.73 126.81 256.38 126.55 257.21 125.9 257.74 125.16 257.74 124.7 257.21 123.96 256.38 123.31 255.73 123.05 
M 255.7 132.86 256.33 132.62 257.12 132.01 257.63 131.32 257.63 130.9 257.12 130.21 256.33 129.6 255.7 129.36 
M 252.13 142.5 252.68 142.27 253.38 141.69 253.84 141.03 253.84 140.63 253.38 139.97 252.68 139.39 252.13 139.17 
M 250.89 148.73 251.41 148.44 252.08 147.7 252.51 146.86 252.51 146.34 252.08 145.5 251.41 144.76 250.89 144.47 
M 251.77 157.33 252.27 156.97 252.91 156.04 253.33 154.99 253.33 154.35 252.91 153.3 252.27 152.37 251.77 152.01 
M 257.3 111.85 257.85 111.64 258.91 110.61 
M 257.61 117.59 258.15 117.35 258.84 116.74 259.28 116.05 259.28 115.62 258.84 114.93 258.15 114.32 257.61 114.08 
M 258.04 123.79 258.56 123.54 259.24 122.89 259.67 122.15 259.67 121.7 259.24 120.96 258.56 120.31 258.04 120.06 
M 258.35 130.1 258.86 129.86 259.51 129.22 259.93 128.5 259.93 128.05 259.51 127.33 258.86 126.7 258.35 126.45 
M 257.78 135.7 258.27 135.48 258.9 134.92 259.31 134.28 259.31 133.89 258.9 133.25 258.27 132.69 257.78 132.47 
M 259.83 114.79 260.46 114.56 261.26 113.99 261.77 113.34 261.77 112.94 261.26 112.29 260.46 111.71 259.83 111.49 
M 260.5 126.95 261.1 126.7 261.87 126.06 262.37 125.34 262.37 124.89 261.87 124.16 261.1 123.53 260.5 123.28 
M 258.81 137.7 259.38 137.49 260.11 136.95 260.58 136.33 260.58 135.96 260.11 135.34 259.38 134.8 258.81 134.59 
M 256.44 142.2 257.01 141.98 257.74 141.41 258.2 140.76 258.2 140.36 257.74 139.71 257.01 139.14 256.44 138.92 
M 255.05 148.24 255.6 147.96 256.31 147.24 256.77 146.43 256.77 145.92 256.31 145.11 255.6 144.39 255.05 144.11 
M 257.4 165.81 257.88 165.43 258.49 164.46 258.88 163.37 258.88 162.69 258.49 161.6 257.88 160.63 257.4 160.26 
M 259.1 174.96 259.57 174.58 260.18 173.59 260.57 172.48 260.57 171.79 260.18 170.67 259.57 169.68 259.1 169.3 
M 261.09 184.49 261.58 184.09 262.22 183.06 262.63 181.9 262.63 181.18 262.22 180.02 261.58 178.99 261.09 178.59 
M 262.1 112.03 262.6 111.82 263.48 110.92 
M 262.32 117.69 262.81 117.45 263.44 116.85 263.85 116.17 263.85 115.75 263.44 115.07 262.81 114.46 262.32 114.23 
M 262.7 123.85 263.19 123.6 263.82 122.95 264.22 122.23 264.22 121.78 263.82 121.05 263.19 120.41 262.7 120.16 
M 262.9 130.03 263.38 129.79 264 129.17 264.39 128.46 264.39 128.02 264 127.32 263.38 126.69 262.9 126.45 
M 259.82 139.7 260.9 138.97 261.29 138.38 261.29 138.01 260.9 137.42 259.82 136.69 
M 257.45 144.48 257.92 144.24 258.54 143.63 258.93 142.94 258.93 142.51 258.54 141.81 257.92 141.2 257.45 140.96 
M 261.58 178.96 261.97 178.57 262.46 177.54 262.78 176.39 262.78 175.67 262.46 174.51 261.97 173.49 261.58 173.09 
M 269.54 211.04 268.78 210.04 268.27 209.75 
M 264.39 114.74 264.97 114.52 265.71 113.95 266.18 113.31 266.18 112.91 265.71 112.27 264.97 111.71 264.39 111.49 
M 264.96 126.8 265.52 126.55 266.25 125.92 266.71 125.21 266.71 124.77 266.25 124.05 265.52 123.42 264.96 123.18 
M 264.65 132.57 265.21 132.34 265.91 131.76 266.37 131.1 266.37 130.68 265.91 130.02 265.21 129.44 264.65 129.21 
M 263.11 137.41 263.66 137.2 264.36 136.66 264.82 136.05 264.82 135.67 264.36 135.06 263.66 134.52 263.11 134.31 
M 259.35 147.88 259.91 147.61 260.62 146.91 261.08 146.13 261.08 145.65 260.62 144.86 259.91 144.17 259.35 143.9 
M 259.54 155.66 260.05 155.34 260.71 154.5 261.13 153.55 261.13 152.97 260.71 152.02 260.05 151.18 259.54 150.86 
M 260.74 164.44 261.2 164.08 261.79 163.15 262.18 162.1 262.18 161.46 261.79 160.41 261.2 159.49 260.74 159.13 
M 267.43 193.74 267.95 193.33 268.62 192.27 269.05 191.07 269.05 190.33 268.62 189.12 267.95 188.06 267.43 187.65 
M 270.41 210.48 271.01 210.17 271.77 209.37 272.26 208.47 272.26 207.91 271.77 207.01 271.01 206.21 270.41 205.9 
M 266.49 111.8 267.39 111.22 
M 266.65 117.43 267.11 117.19 267.71 116.6 268.09 115.92 268.09 115.5 267.71 114.82 267.11 114.22 266.65 113.99 
M 267.04 123.6 267.5 123.35 268.09 122.71 268.47 121.99 268.47 121.54 268.09 120.81 267.5 120.17 267.04 119.93 
M 266.35 135.06 267.36 134.29 267.72 133.67 267.72 133.28 267.36 132.66 266.35 131.9 
M 264.09 139.39 265.12 138.66 265.49 138.06 265.49 137.69 265.12 137.09 264.09 136.35 
M 261.85 144.29 262.32 144.05 262.92 143.44 263.31 142.76 263.31 142.33 262.92 141.64 262.32 141.04 261.85 140.8 
M 261.16 151.11 261.62 150.82 262.2 150.07 262.57 149.22 262.57 148.7 262.2 147.85 261.62 147.1 261.16 146.81 
M 267.84 188.41 268.25 187.96 268.77 186.82 269.1 185.52 269.1 184.72 268.77 183.43 268.25 182.28 267.84 181.84 
M 270.9 198.54 271.35 198.14 271.93 197.1 272.3 195.92 272.3 195.2 271.93 194.02 271.35 192.98 270.9 192.58 
M 272.5 206.91 272.99 206.57 273.62 205.71 274.03 204.73 274.03 204.13 273.62 203.15 272.99 202.29 272.5 201.95 
M 274 210.8 273.39 210.09 272.89 209.8 
M 268.66 114.39 269.21 114.17 269.92 113.62 270.37 112.99 270.37 112.6 269.92 111.97 269.32 111.51 
M 269.13 126.37 269.67 126.13 270.35 125.5 270.79 124.8 270.79 124.36 270.35 123.65 269.67 123.03 269.13 122.79 
M 268.74 132.05 269.26 131.82 269.93 131.24 270.36 130.59 270.36 130.18 269.93 129.53 269.26 128.95 268.74 128.72 
M 267.18 136.9 267.7 136.69 268.37 136.15 268.8 135.54 268.8 135.16 268.37 134.55 267.7 134 267.18 133.79 
M 263.57 147.44 264.1 147.18 264.79 146.51 265.23 145.75 265.23 145.28 264.79 144.52 264.1 143.86 263.57 143.59 
M 271.3 193.2 271.82 192.76 272.48 191.64 272.91 190.37 272.91 189.58 272.48 188.31 271.82 187.19 271.3 186.75 
M 273.86 202.65 274.43 202.27 275.15 201.3 275.62 200.2 275.62 199.52 275.15 198.42 274.43 197.45 273.86 197.07 
M 274.97 210.48 275.56 210.17 276.33 209.36 276.82 208.45 276.82 207.88 276.33 206.97 275.56 206.16 274.97 205.85 
M 270.77 116.93 271.21 116.7 271.79 116.11 272.16 115.44 272.16 115.02 271.79 114.35 271.21 113.76 270.77 113.53 
M 271.13 123.08 271.57 122.83 272.13 122.2 272.49 121.48 272.49 121.04 272.13 120.32 271.57 119.68 271.13 119.44 
M 271.18 129.09 271.61 128.85 272.16 128.25 272.51 127.56 272.51 127.14 272.16 126.45 271.61 125.85 271.18 125.61 
M 270.23 134.34 271.18 133.58 271.52 132.96 271.52 132.58 271.18 131.96 270.23 131.2 
M 271.44 187.6 271.85 187.13 272.38 185.93 272.73 184.56 272.73 183.71 272.38 182.34 271.85 181.13 271.44 180.66 
M 275.01 198.24 275.47 197.81 276.05 196.71 276.42 195.47 276.42 194.7 276.05 193.46 275.47 192.36 275.01 191.93 
M 277.02 206.93 277.51 206.58 278.14 205.69 278.55 204.68 278.55 204.05 278.14 203.04 277.51 202.15 277.02 201.81 
M 278.3 210.5 277.47 209.82 
M 272.82 113.92 273.37 113.71 274.06 113.17 274.51 112.56 274.51 112.27 
M 272.93 119.67 273.45 119.44 274.12 118.83 274.55 118.15 274.55 117.73 274.12 117.05 273.45 116.44 272.93 116.21 
M 273.06 125.67 273.56 125.43 274.21 124.82 274.62 124.13 274.62 123.7 274.21 123.01 273.56 122.4 273.06 122.16 
M 272.53 131.24 273.02 131.01 273.65 130.44 274.06 129.8 274.06 129.4 273.65 128.75 273.02 128.18 272.53 127.95 
M 270.94 136.07 272.05 135.32 272.45 134.71 272.45 134.33 272.05 133.72 270.94 132.97 
M 268.87 140.88 269.37 140.65 270 140.08 270.41 139.43 270.41 139.03 270 138.38 269.37 137.8 268.87 137.58 
M 267.08 153.79 267.57 153.49 268.2 152.74 268.61 151.89 268.61 151.36 268.2 150.51 267.57 149.76 267.08 149.46 
M 267.36 161.68 267.84 161.35 268.45 160.49 268.84 159.52 268.84 158.92 268.45 157.96 267.84 157.1 267.36 156.77 
M 268.63 170.8 269.1 170.41 269.71 169.39 270.1 168.24 270.1 167.53 269.71 166.38 269.1 165.37 268.63 164.97 
M 271.46 181.51 271.95 181.06 272.57 179.88 272.97 178.56 272.97 177.74 272.57 176.41 271.95 175.24 271.46 174.78 
M 275.23 192.7 275.75 192.24 276.42 191.06 276.85 189.73 276.85 188.9 276.42 187.57 275.75 186.4 275.23 185.94 
M 278.2 202.52 278.77 202.13 279.49 201.11 279.96 199.97 279.96 199.26 279.49 198.11 278.77 197.1 278.2 196.71 
M 279.66 210.39 280.11 210.15 280.87 209.33 281.36 208.41 281.36 207.84 280.87 206.92 280.11 206.1 279.52 205.79 
M 274.83 116.35 275.82 115.55 276.18 114.91 276.18 114.51 275.82 113.86 274.83 113.06 
M 275.02 122.33 275.96 121.48 276.3 120.78 276.3 120.35 275.96 119.65 275.02 118.79 
M 274.91 128.19 275.82 127.37 276.15 126.7 276.15 126.29 275.82 125.62 274.91 124.8 
M 273.81 133.32 274.7 132.57 275.02 131.96 275.02 131.58 274.7 130.96 273.81 130.21 
M 268.99 149.64 269.4 149.37 269.93 148.66 270.26 147.86 270.26 147.37 269.93 146.57 269.4 145.86 268.99 145.59 
M 268.84 156.99 269.25 156.68 269.77 155.89 270.1 155 270.1 154.45 269.77 153.56 269.25 152.78 268.84 152.47 
M 269.41 165.29 269.81 164.93 270.32 164.02 270.65 162.98 270.65 162.34 270.32 161.31 269.81 160.39 269.41 160.04 
M 271.34 175.24 271.74 174.8 272.25 173.68 272.58 172.41 272.58 171.62 272.25 170.34 271.74 169.22 271.34 168.78 
M 275.24 186.95 275.66 186.46 276.19 185.21 276.54 183.79 276.54 182.91 276.19 181.49 275.66 180.24 275.24 179.75 
M 279.22 197.99 279.67 197.54 280.24 196.4 280.61 195.1 280.61 194.3 280.24 193 279.67 191.86 279.22 191.41 
M 281.55 206.93 282.04 206.58 282.66 205.66 283.07 204.63 283.07 203.99 282.66 202.95 282.04 202.04 281.55 201.68 
M 282.56 210.15 282.03 209.83 
M 276.9 113.33 277.7 112.92 
M 276.75 118.82 277.24 118.6 277.87 118.02 278.27 117.36 278.27 116.96 277.87 116.31 277.24 115.73 276.75 115.5 
M 276.64 124.6 277.1 124.37 277.7 123.78 278.09 123.11 278.09 122.7 277.7 122.03 277.1 121.44 276.64 121.2 
M 275.94 130.02 276.98 129.24 277.35 128.61 277.35 128.21 276.98 127.58 275.94 126.8 
M 274.31 134.85 275.35 134.1 275.73 133.49 275.73 133.11 275.35 132.49 274.31 131.74 
M 272.35 139.79 272.82 139.56 273.42 138.98 273.8 138.32 273.8 137.91 273.42 137.25 272.82 136.67 272.35 136.44 
M 270.91 160.63 271.39 160.3 272.01 159.45 272.41 158.49 272.41 157.89 272.01 156.93 271.39 156.08 270.91 155.74 
M 272.16 169.76 272.64 169.36 273.25 168.34 273.64 167.18 273.64 166.47 273.25 165.31 272.64 164.29 272.16 163.89 
M 275.1 180.64 275.58 180.17 276.2 178.97 276.6 177.61 276.6 176.77 276.2 175.42 275.58 174.22 275.1 173.75 
M 279.15 192.16 279.66 191.68 280.3 190.46 280.72 189.08 280.72 188.23 280.3 186.84 279.66 185.63 279.15 185.15 
M 282.5 202.35 283.05 201.94 283.76 200.89 284.21 199.7 284.21 198.96 283.76 197.77 283.05 196.72 282.5 196.31 
M 284.76 209.98 285.39 209.29 285.87 208.36 285.87 207.78 285.39 206.85 284.63 206.02 284.05 205.7 
M 278.64 115.48 279.58 114.73 279.91 114.12 279.73 113.41 
M 278.49 121.12 279.36 120.31 279.68 119.65 279.68 119.24 279.36 118.58 278.49 117.77 
M 278.12 126.75 278.95 125.96 279.26 125.31 279.26 124.91 278.95 124.26 278.12 123.46 
M 276.91 131.82 277.74 131.07 278.04 130.46 278.04 130.08 277.74 129.47 276.91 128.72 
M 274.86 136.45 275.71 135.69 276.02 135.07 276.02 134.68 275.71 134.06 274.86 133.3 
M 273.13 141.85 274.02 140.98 274.35 140.27 274.35 139.84 274.02 139.13 273.13 138.26 
M 272.98 164.27 273.38 163.91 273.89 163 274.22 161.97 274.22 161.33 273.89 160.29 273.38 159.38 272.98 159.02 
M 274.9 174.24 275.29 173.79 275.8 172.66 276.12 171.38 276.12 170.59 275.8 169.31 275.29 168.18 274.9 167.74 
M 278.92 186.12 279.31 185.62 279.82 184.34 280.15 182.88 280.15 181.98 279.82 180.53 279.31 179.24 278.92 178.74 
M 283.23 197.56 283.65 197.1 284.19 195.9 284.54 194.55 284.54 193.71 284.19 192.36 283.65 191.16 283.23 190.7 
M 286 206.9 286.48 206.53 287.09 205.58 287.48 204.51 287.48 203.84 287.09 202.77 286.48 201.82 286 201.45 
M 286.93 210.01 286.6 209.83 
M 280.16 117.54 281.22 116.79 281.61 116.18 281.61 115.8 281.22 115.19 280.16 114.43 
M 279.69 122.99 280.7 122.21 281.07 121.57 281.07 121.17 280.7 120.53 279.69 119.75 
M 278.82 128.29 279.81 127.52 280.17 126.89 280.17 126.5 279.81 125.87 278.82 125.1 
M 277.28 133.26 278.29 132.49 278.65 131.87 278.65 131.48 278.29 130.85 277.28 130.08 
M 275.58 138.48 276.05 138.25 276.64 137.65 277.02 136.97 277.02 136.55 276.64 135.87 276.05 135.28 275.58 135.04 
M 274.54 144.66 275.02 144.4 275.63 143.73 276.02 142.96 276.02 142.49 275.63 141.72 275.02 141.05 274.54 140.78 
M 274.2 151.73 274.68 151.44 275.3 150.68 275.69 149.83 275.69 149.31 275.3 148.46 274.68 147.71 274.2 147.41 
M 274.41 159.52 274.88 159.19 275.49 158.35 275.89 157.39 275.89 156.79 275.49 155.83 274.88 154.99 274.41 154.66 
M 275.61 168.61 276.08 168.21 276.68 167.19 277.07 166.04 277.07 165.33 276.68 164.18 276.08 163.16 275.61 162.76 
M 278.53 179.51 279 179.04 279.6 177.83 279.98 176.46 279.98 175.61 279.6 174.24 279 173.03 278.53 172.56 
M 282.76 191.3 283.24 190.8 283.85 189.54 284.24 188.11 284.24 187.23 283.85 185.8 283.24 184.54 282.76 184.05 
M 286.57 201.99 287.1 201.56 287.77 200.45 288.21 199.2 288.21 198.43 287.77 197.17 287.1 196.07 286.57 195.64 
M 289.11 210.04 289.84 209.21 290.31 208.25 290.31 207.65 289.84 206.69 289.09 205.84 288.51 205.51 
M 282.07 114.2 282.34 114.06 
M 281.44 119.37 282.28 118.61 282.58 117.99 282.58 117.61 282.28 116.99 281.44 116.24 
M 280.72 124.72 281.54 123.95 281.83 123.32 281.83 122.93 281.54 122.3 280.72 121.52 
M 279.52 129.87 280.33 129.1 280.63 128.48 280.63 128.09 280.33 127.47 279.52 126.7 
M 277.84 134.91 278.69 134.12 279 133.47 279 133.06 278.69 132.41 277.84 131.62 
M 276.51 140.7 276.91 140.44 277.42 139.8 277.75 139.07 277.75 138.62 277.42 137.89 276.91 137.24 276.51 136.99 
M 276 147.51 276.41 147.23 276.93 146.51 277.26 145.7 277.26 145.2 276.93 144.38 276.41 143.67 276 143.38 
M 275.87 154.82 276.27 154.52 276.78 153.73 277.11 152.85 277.11 152.3 276.78 151.41 276.27 150.63 275.87 150.32 
M 276.35 163.02 276.75 162.67 277.25 161.77 277.58 160.74 277.58 160.11 277.25 159.09 276.75 158.18 276.35 157.83 
M 278.18 172.9 278.57 172.46 279.06 171.34 279.38 170.07 279.38 169.28 279.06 168.01 278.57 166.89 278.18 166.45 
M 282.13 184.8 282.51 184.29 283 182.99 283.31 181.51 283.31 180.6 283 179.13 282.51 177.83 282.13 177.32 
M 286.76 196.71 287.16 196.22 287.67 194.95 287.99 193.52 287.99 192.63 287.67 191.2 287.16 189.93 286.76 189.44 
M 290.29 206.78 290.75 206.39 291.34 205.38 291.73 204.23 291.73 203.52 291.34 202.37 290.75 201.36 290.29 200.96 
M 291.66 210.08 291.16 209.8 
M 283.35 116.03 284.41 115.33 284.79 114.66 
M 282.48 121.12 283.5 120.37 283.87 119.76 283.87 119.38 283.5 118.77 282.48 118.01 
M 281.47 126.35 282.47 125.58 282.83 124.95 282.83 124.56 282.47 123.93 281.47 123.15 
M 280.16 131.61 281.19 130.81 281.56 130.16 281.56 129.76 281.19 129.1 280.16 128.3 
M 278.87 137.24 279.35 137 279.96 136.38 280.35 135.67 280.35 135.24 279.96 134.53 279.35 133.91 278.87 133.66 
M 278.08 143.64 278.57 143.38 279.21 142.69 279.62 141.91 279.62 141.43 279.21 140.65 278.57 139.96 278.08 139.7 
M 277.75 150.68 278.25 150.39 278.89 149.64 279.3 148.8 279.3 148.27 278.89 147.43 278.25 146.68 277.75 146.39 
M 277.88 158.38 278.37 158.06 279 157.22 279.41 156.27 279.41 155.69 279 154.74 278.37 153.9 277.88 153.57 
M 278.98 167.36 279.46 166.96 280.08 165.96 280.48 164.82 280.48 164.12 280.08 162.98 279.46 161.98 278.98 161.59 
M 281.8 178.18 282.27 177.71 282.87 176.5 283.26 175.13 283.26 174.29 282.87 172.92 282.27 171.72 281.8 171.24 
M 286.09 190.15 286.56 189.64 287.17 188.34 287.56 186.87 287.56 185.96 287.17 184.48 286.56 183.18 286.09 182.68 
M 290.42 201.45 290.94 200.99 291.6 199.82 292.03 198.49 292.03 197.66 291.6 196.33 290.94 195.16 290.42 194.7 
M 293.25 210.11 294.23 209.08 294.7 208.08 294.7 207.46 294.23 206.45 293.49 205.57 292.91 205.22 
M 284.4 117.64 285.27 116.93 285.59 116.34 285.59 115.99 285.27 115.4 284.4 114.69 
M 283.38 122.75 284.23 121.99 284.54 121.37 284.54 120.99 284.23 120.37 283.38 119.61 
M 282.25 128.07 283.11 127.27 283.42 126.63 283.42 126.23 283.11 125.58 282.25 124.79 
M 281.02 133.6 281.93 132.76 282.26 132.07 282.26 131.65 281.93 130.96 281.02 130.11 
M 280.11 139.77 280.53 139.51 281.07 138.84 281.42 138.08 281.42 137.62 281.07 136.86 280.53 136.2 280.11 135.94 
M 279.68 146.6 280.11 146.32 280.66 145.6 281.02 144.79 281.02 144.29 280.66 143.47 280.11 142.76 279.68 142.48 
M 279.47 153.8 279.89 153.5 280.43 152.73 280.78 151.85 280.78 151.31 280.43 150.44 279.89 149.66 279.47 149.36 
M 279.85 161.89 280.26 161.54 280.8 160.65 281.14 159.64 281.14 159.02 280.8 158.01 280.26 157.12 279.85 156.78 
M 281.55 171.62 281.96 171.19 282.48 170.09 282.82 168.84 282.82 168.07 282.48 166.82 281.96 165.72 281.55 165.29 
M 285.32 183.4 285.72 182.89 286.22 181.59 286.55 180.11 286.55 179.2 286.22 177.73 285.72 176.42 285.32 175.92 
M 290.14 195.69 290.55 195.17 291.06 193.84 291.4 192.33 291.4 191.39 291.06 189.89 290.55 188.55 290.14 188.03 
M 294.49 206.61 294.95 206.19 295.54 205.1 295.93 203.87 295.93 203.1 295.54 201.87 294.95 200.78 294.49 200.36 
M 296.28 210.12 295.72 209.76 
M 285.62 119.62 286.74 118.89 287.15 118.29 287.15 117.92 286.74 117.33 285.62 116.6 
M 284.52 124.83 285.01 124.61 285.64 124.05 286.04 123.41 286.04 123.02 285.64 122.38 285.01 121.82 284.52 121.6 
M 283.44 130.37 283.94 130.14 284.58 129.54 285 128.86 285 128.44 284.58 127.76 283.94 127.16 283.44 126.93 
M 282.51 136.36 283.03 136.11 283.7 135.46 284.13 134.73 284.13 134.28 283.7 133.54 283.03 132.9 282.51 132.65 
M 281.91 142.92 282.45 142.65 283.14 141.95 283.58 141.16 283.58 140.68 283.14 139.89 282.45 139.19 281.91 138.92 
M 281.59 149.92 282.13 149.63 282.81 148.89 283.26 148.04 283.26 147.52 282.81 146.68 282.13 145.94 281.59 145.65 
M 281.64 157.52 282.17 157.2 282.85 156.37 283.29 155.44 283.29 154.86 282.85 153.92 282.17 153.09 281.64 152.77 
M 282.64 166.38 283.17 166 283.84 165.01 284.27 163.89 284.27 163.19 283.84 162.07 283.17 161.08 282.64 160.7 
M 285.32 177.08 285.83 176.61 286.49 175.42 286.91 174.06 286.91 173.22 286.49 171.87 285.83 170.67 285.32 170.2 
M 289.59 189.13 290.1 188.61 290.75 187.29 291.17 185.79 291.17 184.86 290.75 183.35 290.1 182.03 289.59 181.51 
M 294.32 200.94 294.86 200.45 295.55 199.22 296 197.82 296 196.96 295.55 195.56 294.86 194.32 294.32 193.84 
M 297.49 210.12 297.9 209.87 298.64 208.95 299.12 207.91 299.12 207.26 298.64 206.22 297.9 205.3 297.32 204.94 
M 287.94 116.54 288.76 116.03 
M 286.75 121.53 287.75 120.77 288.12 120.16 288.12 119.77 287.75 119.16 286.75 118.4 
M 285.7 126.97 286.15 126.74 286.71 126.16 287.08 125.49 287.08 125.08 286.71 124.42 286.15 123.83 285.7 123.6 
M 284.78 132.84 285.23 132.59 285.81 131.96 286.19 131.24 286.19 130.8 285.81 130.09 285.23 129.45 284.78 129.21 
M 284.12 139.23 284.59 138.97 285.19 138.29 285.57 137.52 285.57 137.04 285.19 136.27 284.59 135.59 284.12 135.32 
M 283.74 146.07 284.21 145.79 284.82 145.07 285.2 144.26 285.2 143.76 284.82 142.95 284.21 142.23 283.74 141.95 
M 283.47 153.2 283.93 152.9 284.53 152.13 284.92 151.27 284.92 150.73 284.53 149.86 283.93 149.1 283.47 148.8 
M 283.78 161.2 284.24 160.86 284.83 159.98 285.22 158.98 285.22 158.36 284.83 157.37 284.24 156.49 283.78 156.14 
M 285.39 170.82 285.85 170.4 286.44 169.31 286.82 168.09 286.82 167.32 286.44 166.09 285.85 165.01 285.39 164.59 
M 289 182.47 289.45 181.97 290.03 180.67 290.4 179.2 290.4 178.29 290.03 176.83 289.45 175.53 289 175.02 
M 293.88 194.96 294.33 194.43 294.91 193.05 295.28 191.5 295.28 190.53 294.91 188.98 294.33 187.6 293.88 187.07 
M 289.6 119 290.2 118.79 290.98 118.27 291.48 117.69 291.48 117.32 291.05 116.82 
M 288.48 124.21 289.09 123.99 289.86 123.42 290.36 122.78 290.36 122.39 289.86 121.75 289.09 121.18 288.48 120.96 
M 287.5 129.87 288.1 129.64 288.87 129.03 289.37 128.34 289.37 127.91 288.87 127.22 288.1 126.61 287.5 126.37 
M 286.72 136.01 287.32 135.76 288.09 135.1 288.58 134.36 288.58 133.9 288.09 133.15 287.32 132.5 286.72 132.24 
M 286.21 142.64 286.81 142.36 287.58 141.67 288.08 140.87 288.08 140.38 287.58 139.59 286.81 138.89 286.21 138.62 
M 285.88 149.62 286.49 149.33 287.26 148.59 287.76 147.75 287.76 147.23 287.26 146.39 286.49 145.65 285.88 145.36 
M 285.9 157.18 286.51 156.86 287.28 156.04 287.78 155.11 287.78 154.53 287.28 153.6 286.51 152.78 285.9 152.46 
M 286.86 165.99 287.46 165.61 288.23 164.62 288.73 163.51 288.73 162.82 288.23 161.71 287.46 160.73 286.86 160.35 
M 289.45 176.6 290.04 176.14 290.8 174.95 291.29 173.6 291.29 172.77 290.8 171.43 290.04 170.24 289.45 169.77 
M 293.67 188.65 294.25 188.13 294.99 186.8 295.47 185.29 295.47 184.35 294.99 182.84 294.25 181.51 293.67 180.99 
M 291.25 121.44 291.82 121.23 292.56 120.69 293.03 120.07 293.03 119.69 292.56 119.08 291.82 118.53 291.25 118.32 
M 290.21 126.9 290.78 126.67 291.5 126.08 291.97 125.42 291.97 125 291.5 124.34 290.78 123.75 290.21 123.52 
M 289.3 132.79 289.85 132.54 290.55 131.91 291 131.19 291 130.74 290.55 130.03 289.85 129.39 289.3 129.15 
M 288.67 139.2 289.2 138.94 289.89 138.25 290.33 137.48 290.33 137 289.89 136.23 289.2 135.55 288.67 135.28 
M 288.3 146.05 288.83 145.77 289.52 145.05 289.96 144.24 289.96 143.73 289.52 142.92 288.83 142.2 288.3 141.92 
M 288.03 153.17 288.57 152.87 289.26 152.11 289.71 151.24 289.71 150.7 289.26 149.84 288.57 149.07 288.03 148.77 
M 288.33 161.17 288.88 160.82 289.58 159.95 290.04 158.95 290.04 158.34 289.58 157.34 288.88 156.46 288.33 156.12 
M 289.93 170.76 290.47 170.34 291.17 169.26 291.61 168.03 291.61 167.28 291.17 166.05 290.47 164.97 289.93 164.55 
M 293.48 182.35 294 181.84 294.67 180.55 295.1 179.09 295.1 178.19 294.67 176.73 294 175.44 293.48 174.93 
M 294.73 119.57 295.5 119.36 296.48 118.83 
M 293.64 124.78 294.41 124.56 295.4 124 296.04 123.36 296.04 122.97 295.4 122.33 294.41 121.77 293.64 121.55 
M 292.57 130.33 293.31 130.1 294.26 129.5 294.88 128.82 294.88 128.4 294.26 127.72 293.31 127.12 292.57 126.88 
M 291.66 136.35 292.36 136.1 293.27 135.45 293.85 134.71 293.85 134.26 293.27 133.52 292.36 132.87 291.66 132.62 
M 291.1 142.94 291.78 142.67 292.67 141.97 293.23 141.18 293.23 140.69 292.67 139.9 291.78 139.2 291.1 138.93 
M 290.8 149.97 291.5 149.68 292.39 148.93 292.97 148.09 292.97 147.57 292.39 146.72 291.5 145.97 290.8 145.68 
M 290.88 157.59 291.59 157.27 292.51 156.44 293.1 155.51 293.1 154.93 292.51 153.99 291.59 153.17 290.88 152.84 
M 291.85 166.37 292.56 165.99 293.48 165.02 294.07 163.92 294.07 163.23 293.48 162.13 292.56 161.16 291.85 160.78 
M 294.32 176.84 295.01 176.38 295.89 175.21 296.46 173.89 296.46 173.07 295.89 171.75 295.01 170.58 294.32 170.12 
M 303.13 200.62 303.73 200.13 304.5 198.88 305 197.46 305 196.59 304.5 195.17 303.73 193.91 303.13 193.43 
M 297.12 122.74 297.85 122.53 298.77 121.98 299.37 121.36 299.37 120.98 298.77 120.36 297.85 119.81 297.12 119.6 
M 295.98 128.04 296.69 127.82 297.6 127.25 298.19 126.6 298.19 126.2 297.6 125.55 296.69 124.98 295.98 124.76 
M 293.89 139.81 294.51 139.55 295.29 138.88 295.8 138.12 295.8 137.65 295.29 136.89 294.51 136.22 293.89 135.96 
M 293.52 146.7 294.14 146.42 294.92 145.7 295.43 144.88 295.43 144.37 294.92 143.55 294.14 142.83 293.52 142.54 
M 293.37 153.97 294.01 153.67 294.82 152.89 295.34 152.01 295.34 151.46 294.82 150.58 294.01 149.8 293.37 149.5 
M 293.79 162.05 294.45 161.71 295.29 160.83 295.83 159.83 295.83 159.21 295.29 158.21 294.45 157.33 293.79 156.99 
M 295.33 171.51 295.97 171.1 296.8 170.05 297.33 168.85 297.33 168.11 296.8 166.91 295.97 165.86 295.33 165.45 
M 301 121.31 302.07 121.02 
M 299.99 126.54 300.91 126.32 302.09 125.76 302.86 125.13 302.86 124.74 302.09 124.11 300.91 123.56 299.99 123.34 
M 298.66 131.77 299.53 131.55 300.66 130.97 301.38 130.32 301.38 129.92 300.66 129.27 299.53 128.69 298.66 128.47 
M 296.65 143.9 297.43 143.63 298.43 142.93 299.07 142.15 299.07 141.66 298.43 140.87 297.43 140.18 296.65 139.9 
M 296.44 151.07 297.24 150.77 298.26 150.01 298.91 149.15 298.91 148.62 298.26 147.76 297.24 147 296.44 146.7 
M 296.68 158.84 297.51 158.52 298.57 157.68 299.25 156.73 299.25 156.15 298.57 155.2 297.51 154.36 296.68 154.03 
M 297.68 167.58 298.51 167.21 299.57 166.25 300.25 165.16 300.25 164.49 299.57 163.41 298.51 162.45 297.68 162.08 
M 304.07 125.15 304.9 124.94 305.95 124.38 306.63 123.74 306.63 123.35 305.95 122.72 304.9 122.16 304.07 121.94 
M 300.09 163.79 300.84 163.44 301.79 162.56 302.41 161.55 302.41 160.93 301.79 159.93 300.84 159.05 300.09 158.7 
M 307.93 123.76 308.88 123.53 
M 307.08 129.05 308.06 128.83 309.32 128.28 310.13 127.65 310.13 127.26 309.32 126.63 308.06 126.08 307.08 125.86 
M 305.46 133.93 306.41 133.71 307.63 133.16 308.41 132.54 308.41 132.16 307.63 131.53 306.41 130.98 305.46 130.77 
M 303.73 139.13 304.62 138.9 305.76 138.29 306.5 137.61 306.5 137.19 305.76 136.51 304.62 135.91 303.73 135.67 
M 302.79 145.45 303.64 145.18 304.74 144.49 305.45 143.71 305.45 143.22 304.74 142.44 303.64 141.74 302.79 141.47 
M 302.69 152.78 303.56 152.48 304.68 151.7 305.4 150.82 305.4 150.28 304.68 149.4 303.56 148.62 302.69 148.32 
M 304.15 169.4 305.05 169.03 306.2 168.1 306.94 167.05 306.94 166.39 306.2 165.34 305.05 164.41 304.15 164.04 
M 312.54 200.59 313.17 200.14 313.97 198.98 314.49 197.67 314.49 196.86 313.97 195.55 313.17 194.39 312.54 193.94 
M 311.38 127.95 312.2 127.72 313.25 127.14 313.92 126.49 313.92 126.08 313.25 125.43 312.2 124.85 311.38 124.62 
M 307.9 137.4 308.69 137.19 309.69 136.64 310.34 136.02 310.34 135.64 309.69 135.02 308.69 134.48 307.9 134.26 
M 306.18 142.84 306.92 142.59 307.87 141.95 308.49 141.23 308.49 140.79 307.87 140.07 306.92 139.43 306.18 139.18 
M 305.79 149.88 306.54 149.59 307.49 148.85 308.1 148 308.1 147.48 307.49 146.63 306.54 145.88 305.79 145.59 
M 306.9 166.01 307.68 165.67 308.68 164.78 309.32 163.78 309.32 163.16 308.68 162.16 307.68 161.28 306.9 160.94 
M 309.98 184.47 310.64 184.06 311.49 182.99 312.03 181.77 312.03 181.02 311.49 179.81 310.64 178.74 309.98 178.32 
M 312.45 136.3 313.39 136.1 314.6 135.56 315.38 134.95 315.38 134.57 314.6 133.96 313.39 133.43 312.45 133.22 
M 318.86 127.05 318.25 126.86 
M 321.32 128.15 321.56 128.08 
M 320.84 133.7 321.71 133.48 322.83 132.91 323.56 132.26 323.56 131.86 322.83 131.21 321.71 130.64 320.84 130.41 
M 317.16 143.36 318.07 143.14 319.24 142.55 319.99 141.89 319.99 141.48 319.24 140.81 318.07 140.23 317.16 140 
M 316.02 149.54 316.93 149.27 318.1 148.57 318.85 147.79 318.85 147.3 318.1 146.52 316.93 145.83 316.02 145.56 
M 317.58 173.51 318.51 173.17 319.71 172.3 320.48 171.31 320.48 170.7 319.71 169.71 318.51 168.83 317.58 168.49 
M 325.94 205.98 325.13 205.01 324.52 204.65 
M 324.53 132.03 325.22 131.79 326.11 131.18 326.68 130.49 326.68 130.23 
M 323.52 137.21 324.24 137 325.16 136.45 325.75 135.83 325.75 135.45 325.16 134.83 324.24 134.28 323.52 134.07 
M 321.44 141.78 322.18 141.56 323.13 141.02 323.75 140.41 323.75 140.03 323.13 139.41 322.18 138.87 321.44 138.66 
M 319.18 154.15 319.94 153.86 320.91 153.1 321.54 152.24 321.54 151.71 320.91 150.85 319.94 150.1 319.18 149.8 
M 323.85 196.35 324.46 195.96 325.24 194.97 325.74 193.83 325.74 193.13 325.24 192 324.46 191 323.85 190.61 
M 326.14 205.82 326.67 205.44 327.35 204.48 327.79 203.38 327.79 202.71 327.35 201.61 326.67 200.65 326.14 200.27 
M 327.08 135.41 327.9 135.18 328.95 134.59 329.62 133.93 329.62 133.52 328.95 132.86 327.9 132.28 327.08 132.05 
M 325.64 140.38 326.49 140.17 327.58 139.62 328.29 139 328.29 138.61 327.58 137.99 326.49 137.43 325.64 137.22 
M 323.73 145.37 324.61 145.14 325.73 144.55 326.45 143.88 326.45 143.47 325.73 142.8 324.61 142.21 323.73 141.98 
M 324.46 175.74 325.4 175.41 326.61 174.56 327.39 173.6 327.39 173.01 326.61 172.05 325.4 171.2 324.46 170.87 
M 325.95 192.24 326.74 191.88 327.74 190.97 328.39 189.93 328.39 189.29 327.74 188.25 326.74 187.33 325.95 186.97 
M 327.64 201.33 328.32 200.96 329.21 200.02 329.77 198.94 329.77 198.28 329.21 197.21 328.32 196.26 327.64 195.89 
M 329.41 204.99 329.25 204.9 
M 330.54 133.48 331.18 133.24 332 132.63 
M 329.74 138.9 330.41 138.68 331.28 138.12 331.83 137.48 331.83 137.09 331.28 136.45 330.41 135.89 329.74 135.67 
M 327.87 143.65 328.57 143.43 329.47 142.88 330.05 142.26 330.05 141.87 329.47 141.25 328.57 140.7 327.87 140.49 
M 326.06 149 326.78 148.75 327.69 148.12 328.28 147.39 328.28 146.94 327.69 146.22 326.78 145.58 326.06 145.33 
M 325.79 156.25 326.52 155.95 327.46 155.17 328.06 154.28 328.06 153.73 327.46 152.84 326.52 152.06 325.79 151.75 
M 326.64 164.62 327.42 164.28 328.43 163.41 329.07 162.43 329.07 161.82 328.43 160.83 327.42 159.96 326.64 159.62 
M 327.71 173.03 328.52 172.7 329.54 171.84 330.21 170.86 330.21 170.26 329.54 169.29 328.52 168.43 327.71 168.09 
M 328.23 180.83 329 180.51 329.98 179.7 330.61 178.78 330.61 178.21 329.98 177.29 329 176.48 328.23 176.17 
M 328.41 188.5 329.11 188.18 330 187.34 330.58 186.39 330.58 185.8 330 184.85 329.11 184.01 328.41 183.68 
M 329.45 197.13 330.06 196.78 330.85 195.86 331.36 194.82 331.36 194.18 330.85 193.14 330.06 192.23 329.45 191.87 
M 332.76 203.78 332.78 203.1 332.33 202.08 331.64 201.17 331.1 200.82 
M 332.99 136.76 333.74 136.53 334.71 135.93 335.34 135.26 335.34 134.84 334.71 134.17 333.74 133.58 332.99 133.34 
M 331.77 141.97 332.56 141.75 333.58 141.19 334.23 140.55 334.23 140.15 333.58 139.51 332.56 138.95 331.77 138.73 
M 330.02 147.11 330.85 146.88 331.9 146.28 332.58 145.6 332.58 145.18 331.9 144.5 330.85 143.89 330.02 143.66 
M 329.05 153.49 329.89 153.21 330.97 152.49 331.66 151.67 331.66 151.17 330.97 150.35 329.89 149.63 329.05 149.35 
M 329.47 161.45 330.34 161.12 331.47 160.28 332.19 159.32 332.19 158.73 331.47 157.78 330.34 156.94 329.47 156.61 
M 330.55 169.93 331.46 169.59 332.62 168.72 333.37 167.73 333.37 167.12 332.62 166.14 331.46 165.27 330.55 164.93 
M 331.31 177.95 332.2 177.63 333.35 176.8 334.09 175.87 334.09 175.29 333.35 174.36 332.2 173.53 331.31 173.21 
M 331.48 185.47 332.33 185.16 333.41 184.36 334.1 183.45 334.1 182.89 333.41 181.98 332.33 181.18 331.48 180.87 
M 331.84 193.35 332.6 193.02 333.59 192.17 334.22 191.21 334.22 190.62 333.59 189.66 332.6 188.81 331.84 188.48 
M 332.9 201.82 333.58 201.48 334.46 200.6 335.02 199.6 335.02 198.98 334.46 197.98 333.58 197.1 332.9 196.76 
M 335.54 140.17 336.16 139.94 336.95 139.36 337.46 138.71 337.46 138.3 336.95 137.64 336.16 137.06 335.54 136.84 
M 333.93 145.17 334.58 144.95 335.42 144.38 335.96 143.75 335.96 143.35 335.42 142.72 334.58 142.15 333.93 141.93 
M 332.23 150.63 332.91 150.38 333.77 149.73 334.32 148.99 334.32 148.53 333.77 147.8 332.91 147.15 332.23 146.89 
M 332.11 158.08 332.79 157.76 333.67 156.95 334.24 156.03 334.24 155.46 333.67 154.54 332.79 153.73 332.11 153.41 
M 333.34 166.82 334.06 166.47 334.98 165.58 335.58 164.56 335.58 163.93 334.98 162.91 334.06 162.01 333.34 161.66 
M 334.51 175.23 335.23 174.9 336.16 174.05 336.75 173.09 336.75 172.49 336.16 171.52 335.23 170.67 334.51 170.34 
M 334.77 182.69 335.47 182.39 336.36 181.61 336.93 180.74 336.93 180.19 336.36 179.32 335.47 178.54 334.77 178.24 
M 334.52 189.87 335.17 189.56 336.01 188.78 336.54 187.9 336.54 187.35 336.01 186.46 335.17 185.68 334.52 185.37 
M 334.97 197.88 335.56 197.55 336.32 196.7 336.81 195.74 336.81 195.14 336.32 194.18 335.56 193.33 334.97 193 
M 337.05 202.24 336.6 201.68 336.07 201.35 
M 338.46 137.69 339.15 137.45 340.39 136.43 
M 337.49 143.16 338.22 142.93 339.16 142.35 339.76 141.69 339.76 141.28 339.16 140.63 338.22 140.04 337.49 139.82 
M 335.96 148.5 336.72 148.27 337.71 147.65 338.34 146.96 338.34 146.53 337.71 145.83 336.72 145.22 335.96 144.98 
M 335.12 155.03 335.91 154.74 336.92 154 337.57 153.17 337.57 152.65 336.92 151.82 335.91 151.08 335.12 150.79 
M 335.73 163.18 336.54 162.85 337.57 161.99 338.24 161.01 338.24 160.41 337.57 159.44 336.54 158.58 335.73 158.24 
M 336.94 171.74 337.75 171.4 338.79 170.53 339.45 169.54 339.45 168.93 338.79 167.95 337.75 167.07 336.94 166.73 
M 337.59 179.59 338.38 179.28 339.39 178.47 340.04 177.56 340.04 177 339.39 176.09 338.38 175.28 337.59 174.97 
M 337.5 186.81 338.26 186.51 339.24 185.74 339.87 184.88 339.87 184.34 339.24 183.47 338.26 182.7 337.5 182.4 
M 337.46 194.25 338.18 193.94 339.09 193.14 339.69 192.23 339.69 191.67 339.09 190.77 338.18 189.97 337.46 189.66 
M 339.15 201.48 340.1 200.15 340.1 199.56 339.55 198.62 338.7 197.79 338.04 197.47 
M 340.89 141 341.46 140.76 342.18 140.16 342.65 139.48 342.65 139.06 342.18 138.38 341.46 137.78 340.89 137.54 
M 339.59 146.3 340.19 146.07 340.96 145.49 341.46 144.83 341.46 144.42 340.96 143.77 340.19 143.19 339.59 142.96 
M 338.07 151.93 338.71 151.67 339.51 151 340.04 150.25 340.04 149.79 339.51 149.04 338.71 148.38 338.07 148.12 
M 338.05 159.49 338.69 159.17 339.52 158.34 340.04 157.4 340.04 156.82 339.52 155.89 338.69 155.06 338.05 154.74 
M 339.42 168.33 340.06 167.98 340.88 167.08 341.41 166.06 341.41 165.43 340.88 164.41 340.06 163.51 339.42 163.16 
M 340.48 176.58 341.1 176.25 341.89 175.42 342.4 174.47 342.4 173.88 341.89 172.94 341.1 172.1 340.48 171.78 
M 340.58 183.86 341.18 183.57 341.95 182.81 342.45 181.95 342.45 181.42 341.95 180.56 341.18 179.81 340.58 179.51 
M 340.13 190.82 340.72 190.53 341.48 189.77 341.96 188.92 341.96 188.39 341.48 187.54 340.72 186.78 340.13 186.49 
M 340.22 198.42 340.77 198.11 341.49 197.3 341.95 196.39 341.95 195.82 341.49 194.91 340.77 194.1 340.22 193.79 
M 343.54 138.23 344.21 137.96 
M 342.81 143.96 343.49 143.72 344.36 143.12 344.93 142.44 344.93 142.02 344.36 141.34 343.49 140.74 342.81 140.5 
M 341.54 149.56 342.27 149.31 343.21 148.68 343.81 147.97 343.81 147.53 343.21 146.81 342.27 146.18 341.54 145.94 
M 340.85 156.21 341.61 155.92 342.57 155.17 343.2 154.33 343.2 153.8 342.57 152.96 341.61 152.21 340.85 151.92 
M 341.49 164.36 342.24 164.02 343.2 163.17 343.81 162.2 343.81 161.6 343.2 160.63 342.24 159.77 341.49 159.44 
M 342.61 172.79 343.33 172.46 344.25 171.6 344.84 170.63 344.84 170.03 344.25 169.06 343.33 168.2 342.61 167.87 
M 343.11 180.49 343.8 180.18 344.69 179.39 345.27 178.5 345.27 177.94 344.69 177.05 343.8 176.26 343.11 175.95 
M 342.91 187.6 343.6 187.31 344.48 186.55 345.05 185.7 345.05 185.18 344.48 184.33 343.6 183.57 342.91 183.28 
M 342.69 194.82 343.36 194.52 344.22 193.75 344.77 192.87 344.77 192.33 344.22 191.46 343.36 190.69 342.69 190.38 
M 344.71 199.5 343.62 198.22 342.98 197.91 
M 345.88 141.46 346.4 141.21 347.08 140.59 347.52 139.89 347.36 139.21 
M 344.89 147.08 345.46 146.85 346.2 146.24 346.67 145.56 346.67 145.14 346.2 144.45 345.46 143.85 344.89 143.62 
M 343.63 152.93 344.25 152.67 345.04 151.99 345.56 151.23 345.56 150.76 345.04 149.99 344.25 149.32 343.63 149.06 
M 343.65 160.48 344.27 160.16 345.07 159.34 345.58 158.41 345.58 157.84 345.07 156.91 344.27 156.09 343.65 155.77 
M 344.86 169.12 345.44 168.78 346.19 167.91 346.68 166.91 346.68 166.3 346.19 165.31 345.44 164.43 344.86 164.09 
M 345.68 177.14 346.23 176.82 346.94 176.01 347.39 175.08 347.39 174.51 346.94 173.58 346.23 172.76 345.68 172.44 
M 345.7 184.39 346.25 184.1 346.94 183.34 347.4 182.49 347.4 181.97 346.94 181.11 346.25 180.36 345.7 180.07 
M 345.25 191.32 345.8 191.03 346.5 190.29 346.96 189.45 346.96 188.93 346.5 188.08 345.8 187.34 345.25 187.05 
M 345.16 198.72 345.7 198.41 346.39 197.63 346.83 196.74 346.83 196.19 346.39 195.3 345.7 194.52 345.16 194.21 
M 347.85 144.49 348.5 144.25 349.33 143.62 349.86 142.91 349.86 142.47 349.33 141.75 348.5 141.12 347.85 140.88 
M 346.47 157.25 347.22 156.96 348.17 156.21 348.79 155.37 348.79 154.85 348.17 154 347.22 153.25 346.47 152.96 
M 346.98 165.19 347.7 164.86 348.61 164.03 349.21 163.09 349.21 162.51 348.61 161.57 347.7 160.74 346.98 160.41 
M 347.8 173.33 348.47 173 349.32 172.17 349.87 171.23 349.87 170.65 349.32 169.71 348.47 168.87 347.8 168.55 
M 348.13 180.91 348.78 180.6 349.6 179.82 350.13 178.94 350.13 178.39 349.6 177.5 348.78 176.72 348.13 176.42 
M 347.94 188.04 348.59 187.74 349.42 186.99 349.95 186.15 349.95 185.62 349.42 184.77 348.59 184.02 347.94 183.73 
M 347.68 195.2 348.33 194.9 349.16 194.14 349.7 193.28 349.7 192.75 349.16 191.89 348.33 191.13 347.68 190.83 
M 348 198.3 347.78 198.19 
M 350.6 141.67 351.11 141.41 351.71 140.81 
M 350.04 147.76 350.59 147.51 351.3 146.87 351.76 146.14 351.76 145.69 351.3 144.96 350.59 144.31 350.04 144.06 
M 350.08 169.64 350.65 169.31 351.37 168.48 351.83 167.54 351.83 166.96 351.37 166.01 350.65 165.18 350.08 164.86 
M 350.24 191.74 350.78 191.45 351.47 190.7 351.91 189.86 351.91 189.33 351.47 188.49 350.78 187.74 350.24 187.45 
M 352.09 158.28 352.81 157.99 353.74 157.24 354.33 156.4 354.33 155.88 353.74 155.04 352.81 154.29 352.09 154 
M 354.86 155.15 355.45 154.87 356.2 154.14 356.68 153.32 356.68 152.82 356.2 152 355.45 151.27 354.86 150.99 
M 357.43 151.95 358.08 151.67 358.91 150.95 359.45 150.14 359.45 149.63 358.91 148.82 358.08 148.1 357.43 147.82 
M 357.59 188.56 358.21 188.26 359 187.5 359.51 186.64 359.51 186.1 359 185.24 358.21 184.48 357.59 184.18 
M 359.87 148.65 360.39 148.37 361.05 147.65 361.48 146.83 361.48 146.33 361.05 145.52 360.39 144.8 359.87 144.52 
M 359.94 155.67 360.47 155.39 361.15 154.65 361.58 153.82 361.58 153.3 361.15 152.47 360.47 151.73 359.94 151.45 
M 359.97 170.17 360.48 169.87 361.14 169.1 361.56 168.23 361.56 167.69 361.14 166.83 360.48 166.06 359.97 165.76 
M 362.24 152.2 362.85 151.92 363.64 151.19 364.15 150.37 364.15 149.86 363.64 149.03 362.85 148.31 362.24 148.02 
M 362.26 166.52 362.88 166.22 363.66 165.46 364.16 164.6 364.16 164.07 363.66 163.21 362.88 162.46 362.26 162.16 
M 362.28 173.88 362.88 173.58 363.65 172.81 364.15 171.94 364.15 171.4 363.65 170.53 362.88 169.76 362.28 169.46 
M 364.58 185 365.08 184.7 365.72 183.92 366.13 183.05 366.13 182.51 365.72 181.63 365.08 180.86 364.58 180.56 
M 366.86 152.23 367.46 151.94 368.23 151.22 368.73 150.4 368.73 149.89 368.23 149.08 367.46 148.35 366.86 148.07 
M 366.84 159.27 367.44 158.98 368.21 158.24 368.7 157.41 368.7 156.89 368.21 156.05 367.44 155.31 366.84 155.02 
M 373.73 162.86 374.23 162.57 374.87 161.82 375.29 160.97 375.29 160.44 374.87 159.6 374.23 158.85 373.73 158.56 
M 376.04 152.23 376.64 151.95 377.63 150.85 
M 376.04 159.3 376.63 159.01 377.4 158.27 377.89 157.43 377.89 156.91 377.4 156.07 376.63 155.33 376.04 155.04 
M 377.69 186.07 377.21 185.25 376.47 184.52 375.89 184.23 
M 378.33 155.72 378.83 155.43 379.46 154.7 379.87 153.87 379.87 153.36 379.46 152.53 378.83 151.8 378.33 151.51 
M 378.34 162.89 378.84 162.6 379.48 161.85 379.89 161 379.89 160.47 379.48 159.62 378.84 158.87 378.34 158.58 
M 378.34 170.19 378.84 169.89 379.48 169.13 379.89 168.26 379.89 167.73 379.48 166.87 378.84 166.1 378.34 165.8 
M 378.33 177.57 378.83 177.27 379.48 176.5 379.89 175.62 379.89 175.08 379.48 174.21 378.83 173.44 378.33 173.14 
M 378.33 184.93 378.83 184.64 379.46 183.88 379.87 183.03 379.87 182.51 379.46 181.66 378.83 180.91 378.33 180.61 
M 380.6 152.2 381 152.01 
M 380.6 159.28 381.19 158.99 381.95 158.24 382.44 157.4 382.44 156.88 381.95 156.04 381.19 155.3 380.6 155.01 
M 380.62 166.53 381.22 166.24 381.98 165.48 382.47 164.62 382.47 164.09 381.98 163.23 381.22 162.47 380.62 162.17 
M 380.63 173.88 381.23 173.58 382 172.81 382.49 171.95 382.49 171.41 382 170.54 381.23 169.77 380.63 169.47 
M 380.61 181.22 381.21 180.92 381.97 180.17 382.46 179.31 382.46 178.78 381.97 177.93 381.21 177.17 380.61 176.88 
M 381.02 184.55 380.27 184.11 
M 382.84 155.64 383.21 155.43 
M 382.87 162.85 383.21 162.65 
M 383.21 158.71 382.87 158.52 
M 382.92 170.2 383.21 170.02 
M 383.21 165.96 382.92 165.79 
M 382.93 177.57 383.21 177.4 
M 383.21 173.33 382.93 173.16 
M 383.21 180.81 382.85 180.6 
M 204.89 121.6 204.89 121.6 
M 209.82 119.5 207.92 108.62 208.41 106.05 209.17 103.73 209.48 100.97 210.17 98.59 210.63 95.98 211.67 93.69 213.08 91.77 215.16 90.52 216.27 88.3 216.45 85.15 217.42 82.94 218.82 81.15 218.68 77.84 219.21 75.05 221.48 73.79 224.39 73.18 226.61 71.88 229.44 67.63 231.05 65.73 233.31 64.47 235.22 62.86 237.28 57.99 238.16 55.46 239.64 53.52 241.59 52.06 243.18 50.1 244.99 48.39 247.03 46.9 248.38 44.72 250.17 42.98 251.79 41.09 253.83 39.58 256.33 38.51 258.43 37.06 260.18 35.51 262.41 34.76 264.19 33.55 266.74 33.12 270.18 33.75 273.21 34.04 275.95 34.05 278.17 33.37 280.09 32.33 283.28 32.55 285.64 32.15 289.37 30.45 291.63 29.99 294.6 30.38 296.94 30.12 299.83 30.55 301.31 30.05 303.69 30.43 305.77 30.53 308 31.72 312.58 34.75 319.75 37.16 323.27 39.03 326.27 41.69 327.98 43.42 334.05 52.06 334.59 54.18 335.77 57.03 336.61 59.72 336.85 62.53 336.9 67.73 336.38 72.49 335.42 74.19 335.22 76.84 334.33 79.12 333.09 81.07 332.02 83.18 331.05 85.39 330.33 87.86 329.05 92.92 329.7 96.74 328.18 98.38 326.39 101.31 314.68 125.6 
M 311.38 124.45 311.37 124.45 
M 208.74 119.96 210.93 118.59 210.05 116.48 209.05 114.64 
M 212.6 118.31 213.44 116.63 213.53 114.34 213.24 112.28 212.61 110.04 211.91 108.28 211.61 106.91 
M 216.55 116.9 217.62 112.93 218.6 111.12 217.84 108.28 216.9 105.97 217.08 104.02 216.61 99.65 
M 220.53 115.59 221.96 111.43 222.02 109.13 221.62 106.82 221.64 102.42 221.48 100.6 221.76 98.69 221.51 95.68 221.77 93.43 222.62 91.11 222.79 88.88 
M 224.59 114.53 225.24 113.05 225.26 110.64 226.82 106.79 227.08 104.41 226.95 99.37 226.07 96.81 226.19 94.54 227.21 91.7 228.46 89.33 
M 228.71 113.74 229.44 111.75 229.75 109.62 230.68 107.49 231.18 105.64 231.81 101 231.82 99.21 232.23 96.67 232.48 92.21 233.91 87.08 234 85.19 232.5 80.87 232.68 77.9 232.62 75.25 232.92 71.99 233.61 69.29 233.44 65.77 233.94 62.98 
M 232.84 113.01 233.57 111.03 233.97 108.67 235.94 100.37 236.04 98.32 236.4 96.1 236.96 93.49 237.67 91.22 238.55 86.38 238.28 83.82 237.64 81.96 237.54 79.54 238.08 76.55 239.51 71.7 239.35 69.47 238.64 67.58 239.31 65.01 239.49 62.58 240.54 59.2 240.41 55.4 
M 236.99 112.41 237.83 110.47 238.77 105.95 239.57 103.57 240.31 98.88 239.98 97.59 239.97 95.53 241.41 90.19 242.28 84.78 242.09 81.09 242.36 78.76 
M 241.14 111.82 242.49 107.69 243.15 105.01 244.08 100.18 244.2 98.62 243.7 96.85 243.96 94.53 245.22 91.69 246.08 88.67 246.35 86.31 246.28 84.67 246.47 82.93 247.16 80.54 
M 245.3 111.24 246.31 109.67 247.03 102.03 248.42 97.81 248.55 95.57 249.17 92.83 249.82 90.19 251.29 85.59 251.77 83.39 252.49 81.91 252.83 79.72 252.24 76.89 
M 249.45 110.68 250.64 109.25 251.28 106.8 251.32 104.2 251.75 101.43 252.79 99.44 254.04 95.45 254.41 92.74 255.36 90.32 256.15 87.68 256.33 85.3 257.47 80.76 258.5 78.28 258.76 75.75 258.62 72.68 258.82 70.18 259.61 67.87 261.27 64.83 262.67 61.1 262.96 58.71 262.87 52.38 
M 253.65 110.62 255.09 108.93 255.85 106.6 256.88 104.45 258.15 102.34 258.21 99.99 258.51 98.15 259.9 94.17 261.38 88.59 264.06 80.87 264.32 78.79 264.31 76.6 265.33 74.24 266.91 72.27 267.59 70.04 268.95 63.54 269.92 60.36 
M 257.84 110.56 261.48 104.44 262.44 102.25 263.39 97.53 264.41 95.56 265.16 92.96 266.03 86.28 268.61 81.36 269.27 79.05 269.71 76.52 271.42 74.58 272.75 72.68 273.44 70.4 274.03 65.14 275.19 61.68 275.47 59.32 275.43 55.41 276.23 53.23 276.84 50.24 279.45 48.36 281.33 46.73 281.24 43.54 280.12 41.02 280.01 38.63 280.31 35.99 281.51 33.43 
M 262.03 110.82 263.67 109.21 266.96 102.55 269.01 97.66 269.35 94.86 269.95 92.83 271.15 90.99 272.79 84.31 274.08 81.1 274.73 78.92 279.37 70.53 279.59 68.36 280.62 65.66 281.73 60.57 281.65 57.9 283.41 54.5 283.57 53.09 
M 266.21 111.11 267.92 109.37 271.63 103.12 273.21 98.74 274.07 94.26 275.38 91.97 276.41 89.09 278.1 86.55 278.61 84.57 278.79 83.09 279.71 80.9 280.53 77.9 282.88 73.04 283.53 70.79 284.56 68.56 285.41 65.83 286.7 62.99 
M 270.37 111.66 272.19 110.07 273.63 108.24 274.65 106.03 277.24 101.88 278.12 99.9 278.48 97.71 279.19 95.29 280.35 93.1 283.22 88.76 284.17 86.92 285.22 81.59 287.11 76.22 289.64 71.6 289.67 69.83 291.04 67.18 293.96 63.13 295.01 60.88 295.61 58.26 296.83 56.24 298.53 53.89 299.54 52 300.03 48.57 302.29 46.54 303.74 44.06 304.47 41.59 305.25 40.12 306.49 38.79 306.55 36.13 307.39 34.04 
M 274.52 112.27 276.45 110.9 278.93 106.41 280.87 101.64 282.21 99.86 283.54 97.69 284.56 95.61 286.08 93.6 287.31 91.63 288.2 89.53 289.79 87.37 290.43 85.59 291.51 83.34 291.38 80.34 291.85 77.89 293.35 76 
M 278.62 113.14 280.5 111.45 281.78 109.31 283.35 107.41 284.66 105.09 285.31 102.61 286.67 100.29 288.14 98.36 289.16 96.45 289.99 94.69 290.69 92.23 292.04 90.66 293.82 88.92 295.19 87.12 296.6 84.49 298.19 82.19 300.36 80.17 301.75 77.86 302.12 75.46 302.8 72.88 304.04 70.16 308.53 64.56 309.44 62.05 310.49 60.65 312.72 59.27 313.2 55.18 314.33 52.6 315.67 50.97 
M 282.69 114.14 284.53 112.57 286.04 110.49 287.78 108.48 289.4 106.14 290.61 104.03 292.03 102.39 293.39 100.13 294.09 98.02 295.53 96.03 298.93 92.08 300.84 89.52 301.77 87.03 303.06 84.5 304.22 83.38 305.15 81.98 306.74 78.92 
M 286.72 115.33 288.98 113.96 292.55 110.31 293.74 108.4 294.79 106.03 296.49 104.3 297.91 102.5 299.18 100.57 301.03 98.49 303.07 96.81 306.88 90.79 307.68 89.14 308.93 87.71 309.79 85.26 311.26 82.31 313.14 79.98 317.19 76 317.99 73.83 
M 290.68 116.69 293.16 115.26 294.88 113.46 296.51 111.39 298.67 107.7 310.45 95.08 314.15 88.85 315.76 86.46 317.53 84.83 318.93 82.13 321.16 79.77 
M 294.63 118.1 296.95 116.47 298.63 114.69 302.83 109.21 304.62 107.78 308.05 104.15 309.93 101.81 311.25 100.42 315.08 96.85 316.8 94.45 317.76 92.38 319.82 91.34 320.9 88.64 322.43 86.93 324.21 84.35 326.42 82.82 328.37 82.14 329.67 80.33 331.44 77.03 331.83 74.76 333.11 72.79 
M 298.54 119.63 300.88 118.5 305.66 112.98 306.96 111.94 312 106.27 313.63 104.89 318.95 97.89 321.34 95.92 322.27 94.09 324.12 92.96 325.28 91.24 
M 302.44 121.16 305.09 119.55 310.25 114.48 313.42 112.42 315.29 110.65 316.58 108.75 318.03 107.38 319.97 105.19 321.05 102.78 323.75 100.74 
M 306.38 122.61 308.86 121.36 310.96 119.34 312.95 117.75 314.02 116.35 316.12 115 318.24 114.1 319.14 112.51 323.66 108.23 324.73 105 
M 173.92 181.48 176.49 181.97 178.86 180.58 181.63 178.34 186.05 177.04 188.94 175.33 203.17 174.86 205.78 175.75 207.97 176.22 209.89 176.42 210.97 175.78 213.1 176.32 222.5 183.74 224.43 186.2 225.77 188.74 226.61 190.89 227.18 192.99 228.22 195.57 228.74 197.63 227.94 200.17 226.77 202.51 225.22 204.46 222.67 205.35 219.41 205.52 217.51 207.03 214.9 207.86 213.67 208.78 190.71 204.68 187.74 203.17 184.4 202.35 179.33 200.58 177.27 199.04 171.83 197.13 
M 174.07 182.67 176.74 182.69 179.44 182.06 181.98 180.54 184.4 179.47 187.21 178.67 195.24 177.82 197.63 176.71 
M 174.14 183.99 177.68 183.96 180.16 184.14 183.13 183.79 185.05 183.24 187.96 183.08 190.9 182.23 192.97 181.91 195.05 181.25 197.73 180.02 199.86 179.27 
M 174.12 185.91 177.35 185.86 182.86 187.21 185.79 186.67 190.07 186.9 191.64 186.6 
M 173.72 188.32 177.41 188.23 180.23 188.89 182.69 189.87 188.12 190.43 190.1 190.2 191.93 190.89 194.22 190.58 201.41 190.74 204.93 191.27 209.55 191.09 211.07 190.37 213.99 191.48 216.88 191.31 
M 173.02 190.74 176.69 190.99 184.16 193.71 187.02 194.17 192.82 194.72 199.13 195.59 201.68 195.38 204.08 195.61 206.63 196.71 212.04 197.27 213.5 196.23 214.83 196.54 215.72 197.09 219.66 197.29 223.36 197.81 
M 172.51 193.13 176.38 193.98 180.65 196.13 183.06 197.72 186.5 197.89 189.73 198.29 192.56 199.36 194.99 199.13 198.53 200.2 
M 172.1 195.21 178.3 197.76 180.88 199.18 191.02 201.59 193.83 202.57 196.72 203.15 199.35 203.41 202.54 204.25 205.61 205.36 
M 213.76 214.24 219.32 218.93 221.63 220.24 223.85 222.38 225.82 224.89 228.32 227.32 231.19 229.08 235.94 230.64 238.45 232.41 239.01 234.01 240.72 236.48 242.07 239.17 243.97 247.19 242.59 251.42 242.65 254.28 241.84 259.97 240.94 262.43 238.99 263.8 238.11 266.15 237.91 269.16 236.26 273.45 228.11 280 224.97 276.39 223.62 274.49 223.72 271.97 222.49 269.25 221.59 266.22 220.97 263.16 219.33 260.5 218.41 257.47 218.86 255.59 216.45 249.71 215.25 248.02 214.99 245.43 214.12 242.46 213.39 240.57 213.58 239.13 211.27 233.74 210.75 231.24 209.2 225.54 204.89 214.06 
M 212.08 214.2 214.71 217.16 217.19 219.01 219.29 221.18 221.12 223.29 227.25 231.13 229.56 232.82 232.2 233.99 233.86 235.22 235.38 237.18 236.97 239.62 
M 210.41 214.17 212.68 217.42 214.82 219.77 216.92 221.72 218.77 223.95 223.4 231.13 225.67 233.86 227.14 235.04 
M 208.73 214.14 213.93 222.84 219.22 229.16 222.3 235.6 225.94 240.33 227.51 243.27 228.29 246.34 229.22 248.91 
M 207.05 214.11 210.18 220.31 212.31 225.75 214.01 227.75 215.14 230.16 215.93 232.73 217.66 236.49 218.41 239.35 220.8 244.28 221.48 247.09 223.27 250.07 225.11 252.36 227.1 253.92 228.12 255.9 229.06 258.91 230.19 261.44 231.79 263.86 233.55 268.81 234.78 271.38 
M 355.74 198.19 361.09 202.82 364.52 206.35 367.22 209.79 362.89 208.67 361.19 210.45 358.61 211.35 356.56 212.76 354.19 213.94 352.71 215.97 351.54 218.37 349.64 220.02 346.2 223.6 342.47 226.97 341.48 232.75 340.36 235.19 338.19 236.58 333.05 241.44 331.52 243.3 330.87 246.08 329.72 248.6 323.46 254.29 323.9 251.87 323.33 249 320.53 243.13 319.52 239.19 317.68 236.94 315.57 233.97 312.81 228.7 311.46 226.49 310.54 224.37 308.62 222.32 302.5 214.82 
M 351.87 199.79 355.28 204.52 
M 348 201.4 350.77 205.94 
M 344.11 202.96 346.85 207.02 350.09 209.62 
M 340.21 204.51 343.95 208.53 346.35 211.47 348.76 214.77 
M 336.31 206.07 339.65 210.29 342.17 212.73 344.59 215.53 
M 332.43 207.64 335.3 211.81 343.15 218.22 
M 328.52 209.17 331.25 213.16 336.15 217.69 339.57 220.61 
M 324.52 210.44 328.07 214.06 330.06 216.39 332.77 218.55 335.34 221 337.24 223.84 338.35 226.35 
M 320.53 211.71 327.46 219.63 330 221.82 332.33 224.19 334.27 226.92 335.92 228.33 
M 316.43 212.62 321.04 218.84 322.76 220.89 324.74 222.76 327.12 225.41 328.91 228.85 
M 312.33 213.5 316.81 219.66 318.51 221.75 320.57 223.95 321.79 225.76 322.86 228.89 324.99 231.71 
M 308.18 214.1 310.93 217.17 312.84 219.59 314.26 222.38 316.78 226.42 319.18 231.1 321.21 233.74 
M 382.37 152.48 385.49 151.8 389.97 149.28 394.82 147.39 396.52 146.31 398.4 145.37 399.98 143.72 405.02 140.14 407.84 139.03 409.73 138.61 411.42 137.75 413.85 135.47 415.92 133.93 418.24 133.02 420.53 131.82 422.46 130.25 424.9 129.25 432.65 123.71 435.44 122.43 437.73 120.65 440.24 119.12 441.74 116.33 443.77 115.32 445.93 113.72 449.11 111.69 451.3 110.56 435.88 128.68 435.29 131.27 434.27 133.45 433.92 136.28 433.86 139.52 432.2 141.33 430.29 142.88 427.93 144.05 426.06 145.71 423.61 149.87 422.23 155.17 421.98 157.8 422.61 160.97 422.08 165.7 420.42 170.18 420.65 172.76 421.68 175.36 423.45 177.64 423.31 179.88 422.67 182.15 422.32 184.62 422.36 187.07 423.25 190.18 423.37 192.21 424.95 194.8 426.55 198.55 427.13 200.33 431.6 207.76 432.46 210.02 432.73 211.92 434.13 215.93 451.7 232.96 449.03 232.02 446.12 230.64 444.16 228.83 443.14 225.72 440.87 223.94 438.35 222.77 436.06 221.42 433.55 221.68 430.73 221.22 428.21 219.92 426.7 217.31 424.82 215.29 423.67 214.51 421.85 212.84 419.52 211.4 416.22 210.47 413.19 205.81 408.68 203.58 405.77 201.37 403.07 199.92 401.18 198.59 399 197.52 396.49 195.39 393.85 193.46 391.61 192.36 384.9 188.02 382.37 185.59 
M 382.37 154.14 385.66 153.66 390.57 151.62 395.47 149.94 398.94 148.23 402.77 145.9 405.7 143.9 408.96 142.45 411.92 142.13 415.25 139.01 417.9 137.98 420.84 137.16 422.6 135.56 425.83 135.36 
M 382.37 155.8 385.79 155.62 388.51 154.8 395.31 152.06 397.5 151.93 399.75 151 401.64 149.71 403.92 148.83 410.89 145.02 413.94 144.41 415.79 143.39 417.88 142.76 422.02 141.07 424.87 139.5 427.13 138.92 429.47 139.04 
M 385.77 157.58 391.04 156.06 393.22 155.15 395.76 154.44 398.8 154.78 402.34 152.65 405.23 152.27 408.1 151.47 411.14 149.34 414.2 147.64 417.25 147.06 420.22 146.9 422.12 145.72 
M 391.13 158.36 393.69 157.91 396.06 157.19 398.32 157.02 403.34 155.93 405.87 155.09 
M 382.37 160.76 385.41 161.55 388.52 160.89 391.37 160.81 394.13 160.39 398.63 158.84 402.1 158.24 404.53 158.04 406.27 157.46 
M 382.37 162.42 385.77 163.27 391.38 162.84 394.31 162.89 397.27 162.51 402.77 160.31 412.65 158.99 415.03 159.06 
M 382.37 164.07 385.92 164.62 394.01 165.02 396.71 164.16 405.38 162.6 409.37 162.86 411.52 162.34 415.64 161.99 
M 389.33 166.56 391.73 166.68 393.68 167.01 396.63 166.2 399.41 165.68 402.1 166.05 405.07 166.09 407.15 165.5 410.62 166 413.21 166.13 415.12 165.54 
M 389.48 168.38 391.57 168.69 396.22 168.74 398.85 168.35 408.14 167.87 411.26 168.99 413.93 169.11 
M 386.3 170 396.46 171.41 399.19 171.35 401.85 170.58 409 171.13 
M 391.73 173.01 394.28 173.49 399.24 173.77 402.31 175.2 405.61 175.18 
M 382.37 172.35 386.13 173.27 395.01 175.79 397.3 175.98 400.38 176.72 404.01 178.16 409.09 179.22 410.83 178.81 
M 389.14 175.75 394.99 177.4 401.39 180.05 406.69 181.17 408.56 182.13 410.03 182.62 
M 392.04 178.77 395.04 179.54 402.43 182.47 
M 388.75 179.79 398.02 183.26 399.95 184.43 402.84 185.16 405.62 186.64 408.48 187.63 411.62 188.42 413.85 189.98 416.37 190.23 
M 382.37 178.97 385.51 180.85 391.79 183.29 394.57 184.58 397.25 185.2 399.1 186.69 400.16 186.81 405.92 189.22 408.91 190.81 411.66 193.09 414.15 193.57 417.72 194.53 423.43 196.56 
M 391.19 185.66 396.62 187.51 400.33 189.82 403.21 190.65 406.64 192.04 411.11 195.76 413.29 197.07 415.37 198.01 419.82 198.75 421.35 200.5 
M 390.67 187.58 393.35 188.44 395.58 189.86 397.84 190.74 400.55 192.13 403.25 193.27 405.9 195.03 407.93 196.8 410.6 198.16 412.5 199.39 414.82 200.49 416.49 201.57 418.38 203.63 421.59 205.07 423.69 206.32 425.68 206.88 428.52 206.86 
M 390.29 189.54 392.42 190.33 400.16 195.17 402.39 196.29 404.6 197.73 407.72 198.65 410.28 200.22 412.44 202.18 414.91 203.08 415.75 204.94 417.66 206.98 420.57 207.91 
M 83.33 154.11 88.07 152.82 95.48 150.41 100.33 149.07 118.06 144.73 130.68 143.14 141.36 141.52 160.55 137.19 164.33 140.33 166.26 143.77 167.58 147.29 170.7 157.95 175.33 168.42 175.68 172.07 174.52 175.9 173.7 179.7 174.15 183.33 174.1 187.02 172.99 190.85 172.18 194.65 171.65 198.4 170.71 202.21 169.36 206.02 157.43 205.38 148.81 204.16 141.08 202.55 133.93 200.5 121.09 196.05 115.14 193.6 109.9 190.9 105.06 187.49 
M 103.21 185.94 95.85 179.75 92.13 175.53 86.58 167.52 83.89 162.37 
M 149.45 154.89 150.6 157.91 151.43 160.8 150.92 163.67 147.51 169.07 147.2 173.52 146.71 175.88 147.02 178.3 148.04 180.87 149 183.96 149.62 187.43 141.5 187.65 135.66 187.49 130.12 186.96 124.59 185.99 119.02 184.66 113.87 183.12 108.73 181.07 
M 102.81 185.4 93.97 174.74 89.71 170.02 83.42 161.77 79.42 156.88 79.23 154.82 80.73 153.4 82.8 153.55 84.2 155.05 85.47 156.72 87.82 160.24 92.11 167.34 101.54 181.31 105.25 187.32 
M 104.78 187.96 101.15 185.83 95.62 182.89 82.25 176.49 76.72 173.51 73.32 171.47 69.62 169.62 68.29 167.87 68.68 165.72 70.62 164.72 72.66 165.46 76.15 167.71 84.59 173.73 86.31 174.83 90 176.79 95.38 180.36 102.24 184.96 105.13 187.2 
M 118.56 162.94 117.05 160.84 116.32 158.36 116.42 155.78 117.36 153.37 119.03 151.4 121.25 150.08 123.78 149.55 126.35 149.87 128.67 151 130.5 152.83 131.63 155.15 131.95 157.72 131.42 160.25 130.1 162.47 128.13 164.14 125.72 165.08 123.14 165.18 120.66 164.44 118.56 162.94 
M 129.22 153.74 130.13 155.6 130.38 157.65 129.96 159.67 128.9 161.45 127.32 162.79 125.4 163.54 123.33 163.62 121.35 163.03 119.67 161.83 
M 121.26 158.98 120.66 158.14 120.36 157.15 120.41 156.12 120.78 155.16 121.45 154.37 122.34 153.84 123.35 153.63 124.37 153.75 125.3 154.21 126.03 154.94 126.49 155.87 126.62 156.89 126.4 157.9 125.88 158.79 125.09 159.46 124.12 159.84 123.09 159.88 122.1 159.58 121.26 158.98 
M 120.74 158 122.43 159.68 
M 120.98 155.97 124.65 159.63 
M 122.04 154.76 125.95 158.67 
M 124.09 154.55 126.58 157.04 
M 84.77 164.25 86.86 166.34 
M 84.4 153.82 88.53 157.95 
M 88.35 152.73 91.34 155.73 
M 92.16 151.51 96.44 155.79 
M 95.96 150.28 100.71 155.03 
M 99.9 149.19 103.77 153.06 
M 103.94 148.19 107.68 151.93 
M 108 147.22 112.02 151.24 
M 112.06 146.24 115.8 149.99 
M 116.07 145.23 120.36 149.52 
M 120.31 144.43 123.82 147.94 
M 124.76 143.85 129.48 148.57 
M 129.26 143.31 131.85 145.91 
M 133.7 142.73 138.49 147.51 
M 138.07 142.07 142.37 146.36 
M 142.34 141.29 144.92 143.88 
M 146.42 140.34 149.65 143.58 
M 150.51 139.41 154.02 142.91 
M 154.66 138.52 158.13 141.99 
M 158.81 137.64 162.16 140.99 
M 113.28 171.16 110.11 169.8 105.95 167.35 
M 159.88 193 161.03 192.79 161.56 192.5 162.8 191.26 162.95 190.28 162.54 187.92 162.78 186.57 
M 134.22 171.66 133.49 171.2 132.46 171.26 
M 122.76 189.12 122.27 189.62 120.85 189.37 119.32 189.38 
M 166.38 177.93 162.56 174.36 161.45 173.54 160.86 173.26 159.5 173.04 
M 110.46 182.83 110.64 182.34 110.15 181.97 
M 163.2 147 167.13 146.09 
M 143.13 178.45 145.71 174.77 146.52 173.11 146.79 171.86 
M 145.84 174.58 146.61 172.89 146.8 171.98 146.64 171.05 146.41 170.66 146.01 170.4 
M 104.35 167.19 103.16 166.32 102.38 166.02 99.36 166.48 97.52 166.4 
M 119.19 189.79 118.59 189.66 117.85 190.02 
M 140.11 142.96 139.15 141.89 
M 111.25 160.73 111.86 159.14 112.93 157.24 112.99 156.76 112.77 156.26 112.28 155.89 110.79 155.52 107.93 155.59 106.78 155.85 
M 155.17 203.3 153.52 203.94 151.12 202.95 148.89 200.71 148.46 199.87 148.31 199.14 
M 168.08 189.34 167.15 188.99 165.72 188.09 163.67 187.26 
M 129.19 150.92 128.59 150.96 
M 126.8 150.09 126.6 148.88 126.67 148.38 
M 109.55 147.77 107.19 150.87 105.82 153.15 104.66 153.97 104.06 154.15 102.96 154.03 
M 149.29 178.24 148.22 175.98 147.91 174.69 147.84 174.05 148.21 171.73 148.23 170.59 
M 170.98 189.8 172.01 190.66 172.8 191.73 
M 154.75 159.99 154.88 159.82 
M 110.19 183.18 110.57 182.97 110.8 182.52 110.63 182.22 110.2 182.01 
M 119.8 145.01 119.91 145.37 119.77 146.08 117.95 147.31 116.65 148.54 115.93 148.73 114.82 148.54 
M 140.11 185.63 143.11 182.58 143.63 182.24 145.45 181.58 146.91 180.65 
M 92.05 174.3 91.32 173.66 90.51 173.25 
M 169.24 180.11 169.45 179.44 169.37 178.78 169.05 178.12 168.53 177.57 164.2 173.73 162.71 173.48 
M 140.38 153.58 139.09 154.58 136.94 154.66 
M 149.29 157.57 149.47 156.26 149.24 155.15 148.91 154.67 148.03 153.95 147.58 153.71 146.2 153.59 143.52 154.09 
M 145.71 176.86 146.68 174.97 146.82 173.8 147.23 172.36 147.34 170.94 147.07 170.25 
M 148.95 170.97 148.87 169.85 148.35 169.33 147.42 169.09 146.13 169.55 
M 143.52 141.09 143.51 141.02 
M 124.48 166.95 122.86 166.51 121.57 166.53 119.36 166.9 118.46 166.86 116.88 166.5 116.17 166.11 115.51 165.51 114.93 164.54 114.61 163.42 114.66 162.15 
M 156.97 200.88 156.5 201.33 153.8 202.84 153.18 203.03 152.06 202.86 151.09 202.34 149.37 200.57 148.95 199.76 148.86 198.99 
M 161.83 145.89 165.12 145.38 166.67 144.87 
M 144.73 167.34 140.66 169.22 139.17 169.54 137.11 170.37 135.39 170.56 
M 128.78 163.58 129.27 164.18 129.83 164.53 132.36 165.12 134.06 165.32 134.64 165.26 135.37 165.01 135.79 164.64 
M 147.09 166.99 146.18 167.38 143.08 169.29 141.72 169.9 138.56 170.7 
M 152.46 190.73 154.16 188.74 156.64 186.6 156.98 185.92 157.21 181.87 157.57 180.88 157.87 179.22 157.75 177.94 
M 150.83 143.81 150.09 139.5 
M 156.93 178.12 156.28 174.74 155.23 173.08 154.82 171.22 
M 148.19 145.79 148.17 142.96 147.96 140.42 147.8 140.03 
M 98.26 162.75 98.88 164.52 98.78 165.42 98.51 165.76 97.14 166.21 96.75 166.19 96.32 165.8 96.17 165.25 
M 112.52 175.79 109.7 173.94 108.12 173.41 105.31 172.05 103.46 171.97 100.85 172.49 100.09 172.48 
M 147.66 201.24 145.36 198.9 144.17 197.39 143.28 195.42 143.42 194.02 
M 136.06 191.14 136.2 188.66 136.53 187.7 138.4 186.09 139.69 184.42 141.01 183.18 142.78 181.91 
M 159.7 200.79 157.32 202.77 155.27 203.81 153.61 204.26 153.26 204.23 152.22 203.69 
M 84.07 177.41 92.03 182.83 97.75 186.07 103.55 189.01 109.37 191.55 121.09 196.05 
M 88.6 180.55 88.99 179.66 
M 163.49 136.3 170.42 143.23 
M 168.72 134.82 174.39 140.49 
M 173.73 133.12 180.7 140.09 
M 178.7 131.37 185.83 138.51 
M 183.62 129.59 193.32 139.29 
M 188.57 127.83 196.85 136.11 
M 193.58 126.12 200.02 132.57 
M 198.45 124.28 207.16 132.99 
M 203.18 122.31 211.28 130.4 
M 207.9 120.32 216.1 128.51 
M 212.6 118.31 218.03 123.74 
M 217.57 116.56 224.35 123.35 
M 222.62 114.91 231.96 124.24 
M 228.25 113.83 238.17 123.74 
M 233.98 112.85 243.74 122.6 
M 239.85 112 249.88 122.03 
M 245.74 111.18 253.19 118.63 
M 251.91 110.65 258.09 116.82 
M 258.56 110.58 267.04 119.07 
M 265.77 111.08 270.82 116.13 
M 273.52 112.12 278.97 117.57 
M 282.11 114 287.15 119.04 
M 291.94 117.13 300.34 125.53 
M 302.84 121.31 309.65 128.12 
M 313.39 125.15 320.8 132.56 
M 324.1 129.15 333.97 139.03 
M 336.35 134.7 342.61 140.95 
M 347.7 139.33 353.94 145.57 
M 358.52 143.44 366.45 151.37 
M 369.73 147.94 377.72 155.94 
M 380.26 151.76 390.16 161.66 
M 390.49 155.28 390.95 155.74 
M 233.53 112.37 233.78 112.88 
M 231.43 100.64 237.3 112.37 
M 228.88 87.99 240.82 111.87 
M 226.93 76.53 244.35 111.37 
M 227.6 70.31 247.89 110.89 
M 229.81 67.19 251.54 110.65 
M 232.46 64.94 253.09 106.2 
M 235.2 62.88 250.58 93.64 
M 236.92 58.76 248.55 82.02 
M 238.69 54.76 248.82 75.02 
M 241.25 52.32 248.38 66.58 
M 243.68 49.63 246.3 54.88 
M 273.31 108.9 275.05 112.38 
M 271.47 97.67 279.29 113.31 
M 269.27 85.73 283.62 114.42 
M 268.75 77.13 288.08 115.8 
M 268.4 68.88 292.66 117.4 
M 268.45 61.43 293.21 110.94 
M 268.92 54.83 293.68 104.34 
M 268.98 47.38 293.73 96.9 
M 269.08 40.05 294.59 91.06 
M 269.66 33.66 294.04 82.42 
M 273.63 34.04 294.26 75.31 
M 277.21 33.67 295.6 70.43 
M 318.29 115.82 318.85 116.94 
M 280.33 32.34 296.46 64.6 
M 318.97 109.62 320.71 113.1 
M 284.13 32.41 296.51 57.16 
M 319.02 102.18 322.56 109.26 
M 287.41 31.41 296.04 48.66 
M 318.55 93.68 324.41 105.41 
M 290.58 30.2 296.21 41.46 
M 319.47 87.97 326.27 101.57 
M 294.43 30.36 295.56 32.61 
M 319.57 80.62 328.35 98.2 
M 320.31 74.57 329.21 92.37 
M 320.25 66.9 330.48 87.35 
M 321.25 61.34 332.1 83.04 
M 321.45 54.2 334.1 79.49 
M 321.77 47.28 335.4 74.54 
M 322.62 41.44 336.72 69.64 
M 326.78 42.2 336.83 62.3 
M 228.08 291.39 223.79 297.7 
M 228.08 291.39 228.59 297.7 
M 225.32 295.6 228.32 295.6 
M 231.35 293.5 229.46 299.8 
M 231.08 294.39 231.86 293.8 232.55 293.5 233.45 293.5 233.96 293.8 234.38 294.39 234.41 295.3 234.23 295.89 233.66 296.8 232.88 297.39 232.19 297.7 231.29 297.7 230.78 297.39 230.36 296.8 
M 240.98 291.39 239.09 297.7 
M 240.08 294.39 239.66 293.8 239.15 293.5 238.25 293.5 237.56 293.8 236.78 294.39 236.21 295.3 236.03 295.89 236.06 296.8 236.48 297.39 236.99 297.7 237.89 297.7 238.58 297.39 239.36 296.8 
M 243.95 293.5 243.26 293.8 242.48 294.39 241.91 295.3 241.73 295.89 241.76 296.8 242.18 297.39 242.69 297.7 243.59 297.7 244.28 297.39 245.06 296.8 245.63 295.89 245.81 295.3 245.78 294.39 245.36 293.8 244.85 293.5 243.95 293.5 
M 248.45 293.5 247.19 297.7 
M 248.09 294.7 249.26 293.8 249.95 293.5 250.85 293.5 251.36 293.8 251.39 294.7 250.49 297.7 
M 260.18 294.39 259.76 293.8 259.25 293.5 258.35 293.5 257.65 293.8 256.88 294.39 256.31 295.3 256.13 295.89 256.15 296.8 256.58 297.39 257.09 297.7 257.99 297.7 258.68 297.39 259.46 296.8 
M 265.85 293.5 264.59 297.7 
M 265.58 294.39 265.15 293.8 264.64 293.5 263.75 293.5 263.06 293.8 262.27 294.39 261.71 295.3 261.52 295.89 261.56 296.8 261.98 297.39 262.49 297.7 263.39 297.7 264.08 297.39 264.86 296.8 
M 268.25 293.5 266.99 297.7 
M 267.7 295.3 268.27 294.39 269.06 293.8 269.75 293.5 270.64 293.5 
M 272.14 293.5 270.89 297.7 
M 271.61 295.3 272.18 294.39 272.95 293.8 273.64 293.5 274.55 293.5 
M 279.35 293.5 278.08 297.7 
M 279.08 294.39 278.66 293.8 278.14 293.5 277.25 293.5 276.56 293.8 275.77 294.39 275.2 295.3 275.02 295.89 275.06 296.8 275.48 297.39 275.99 297.7 276.89 297.7 277.58 297.39 278.36 296.8 
M 284.48 294.39 284.36 293.8 283.55 293.5 282.64 293.5 281.66 293.8 281.18 294.39 281.3 295 281.81 295.3 283.22 295.6 283.73 295.89 283.76 296.8 283.27 297.39 282.29 297.7 281.39 297.7 280.58 297.39 280.45 296.8 
M 287.18 291.39 287.39 291.7 287.77 291.39 287.57 291.1 287.18 291.39 
M 286.85 293.5 285.58 297.7 
M 291.98 294.39 291.86 293.8 291.05 293.5 290.14 293.5 289.16 293.8 288.68 294.39 288.8 295 289.31 295.3 290.72 295.6 291.23 295.89 291.26 296.8 290.77 297.39 289.79 297.7 288.89 297.7 288.08 297.39 287.95 296.8 
M 293.57 297.1 293.18 297.39 293.39 297.7 293.77 297.39 293.57 297.1 
"/></svg>
