<svg xmlns="http://www.w3.org/2000/svg" width="520" height="320"><rect x="0" y="0" width="520" height="320" fill="floralwhite"/><rect x="10" y="10" width="500" height="300" stroke="black" stroke-width="1" fill="none"/><path stroke="black" stroke-width="1" fill="none" stroke-linecap="round" stroke-linejoin="round" d="
M 119.73 117.6 142.03 108.66 153.18 104.67 175.49 98.96 186.65 95.88 197.8 93.59 208.96 91.74 220.11 90.48 242.43 90.82 253.58 91.87 264.74 93.75 275.89 95.87 298.2 101.02 320.51 108.15 353.98 118.3 365.13 121.94 387.44 129.72 399.57 134.16 
M 399.57 163.98 376.29 174.11 353.98 183.2 342.82 187.45 320.51 194.07 309.36 197.99 298.2 200.8 287.05 201.95 275.89 203.62 242.43 210.51 231.27 210.66 197.8 206 186.65 203.23 175.49 198.93 164.34 195.09 153.18 191.54 130.85 183.89 
M 399.57 144.35 391.9 144.03 387.99 144.04 364.55 145.29 343.06 145.56 334.38 145.13 320.21 143.9 
M 316.24 143.52 306.52 142.67 295.1 141.03 283.64 139.07 277.96 138.29 
M 274.22 137.89 270.51 137.64 
M 263.19 137.28 256.08 136.77 
M 252.74 136.57 239.44 136.41 
M 235.74 136.23 233.84 136.13 227.91 135.29 
M 223.88 134.65 221.87 134.34 215.93 134.14 
M 212.05 134.12 208.18 134.14 
M 204.31 134.15 200.42 134.1 
M 196.5 133.98 190.57 133.83 184.62 133.95 
M 180.65 134.12 176.7 134.34 
M 172.79 134.53 168.93 134.6 
M 165.14 134.48 161.42 134.23 
M 154.25 133.54 150.72 133.32 
M 136.04 133.1 132.23 133.18 
M 134.84 174.43 136.41 176.38 
M 135.05 167.5 138.92 172.74 
M 148.51 177.94 152.17 182.29 
M 136.95 146.75 138.69 149.39 
M 157.27 175.74 160.85 180.24 
M 120.57 117.26 127.37 125.97 131.99 132.19 
M 135.05 136.56 138.11 141.08 
M 141.19 145.64 143.36 148.85 
M 163.48 176.9 166.91 181.34 
M 124.63 115.61 133.14 126.49 136.16 130.71 146.89 146.58 
M 172.79 182.21 175.98 186.43 
M 128.63 113.98 132.75 118.99 138.77 127.09 147.84 140.6 152.68 147.41 
M 175.27 178.62 181.68 187.05 
M 132.53 112.41 138.26 119.45 141.27 123.53 150.24 136.87 155.16 143.66 
M 180.94 179.22 184.18 183.44 
M 136.31 110.92 140.46 115.97 143.57 120.05 152.44 133.2 155.7 137.7 162.57 146.51 
M 189.81 183.94 196.04 192.08 
M 139.95 109.48 145.58 116.61 148.6 120.83 154.47 129.61 157.7 134.05 167.12 145.71 
M 192.23 180.18 198.65 188.55 
M 143.46 108.15 147.45 113.27 152.02 119.55 
M 155.01 123.86 159.64 130.42 171.83 145.19 
M 193.52 174.82 197.98 180.59 
M 201.26 184.78 207.67 192.59 
M 146.89 106.92 152.4 114.09 161.72 126.72 165.07 130.99 172.25 139.29 176.76 144.94 
M 203.87 180.83 207.19 184.93 
M 210.44 188.86 213.61 192.56 
M 216.66 196.04 219.56 199.29 
M 150.29 105.7 167.3 127.08 177.7 139.21 182.34 145.43 
M 222.39 196.01 225.15 199.29 
M 153.78 104.51 162.83 115.3 180.07 134.96 187.47 144.95 
M 209.73 173.34 212.47 176.77 
M 222.06 188.83 227.79 196.05 
M 157.63 103.53 165.11 111.88 175.63 122.89 180.91 128.71 
M 184.26 132.76 192.59 144.19 
M 214.77 172.31 214.97 172.55 
M 221.46 180.94 224.52 185.03 
M 227.44 188.97 232.86 196.14 
M 161.66 102.49 171.02 112.22 181.65 122.66 185.17 126.53 188.54 130.66 191.71 134.93 198.09 144.16 
M 219.53 171.11 220.68 172.59 
M 223.86 176.89 226.83 181.2 
M 229.72 185.36 235.2 192.88 
M 165.84 101.42 173.63 109.17 184.09 119.06 187.55 122.64 191 126.65 194.35 130.93 199.05 137.56 
M 202.1 142.09 204.11 145.07 
M 234.69 185.8 237.44 189.57 
M 170.11 100.33 186.5 115.87 189.9 119.2 193.33 122.9 196.79 127.03 200.13 131.39 204.8 138.08 
M 207.84 142.59 209.68 145.3 
M 228.17 168.94 229.76 171.19 234.05 177.94 
M 239.64 186.16 242.42 189.78 
M 174.43 99.23 192.26 116.01 195.66 119.46 199.1 123.32 205.87 131.86 214.99 144.92 
M 239.03 178.4 241.85 182.52 
M 252.44 196.66 254.75 199.94 
M 178.72 98.07 196.3 114.45 
M 199.68 117.93 206.54 125.83 
M 209.92 130.02 213.13 134.25 
M 216.22 138.54 221.31 145.76 
M 235.77 165.45 238.58 169.93 
M 244.12 178.58 246.92 182.62 
M 182.94 96.91 197.01 109.49 200.31 112.65 207.08 119.97 215.61 130.12 
M 218.88 134.37 225.23 143.23 
M 240.18 164.35 243.73 170.12 
M 251.98 182.67 254.64 186.5 
M 257.16 190.19 259.57 193.78 
M 187.25 95.76 196.27 103.3 199.43 106.1 204.32 110.83 
M 207.66 114.34 216.23 124.05 221.42 130.35 
M 224.74 134.69 232.71 145.85 
M 248.84 170.21 254.31 178.7 
M 262.06 190.5 264.48 194.18 
M 191.95 94.79 198.8 100.13 205.07 105.71 208.32 108.95 215.08 116.22 225.61 128.58 232.18 137.26 236.77 143.9 
M 253.9 170.31 264.56 187.06 
M 196.7 93.82 201.37 97.22 207.55 102.52 217.53 112.55 224.57 120.51 231.47 128.99 234.71 133.23 239.21 139.7 
M 252.74 160.63 256.2 166.13 
M 266.96 183.4 269.43 187.46 
M 201.55 92.97 207.01 97 213.33 102.51 220.11 109.02 227.1 116.69 233.91 125.12 240.19 133.45 249.17 147.59 
M 258.41 161.97 261.21 166.4 
M 263.97 170.8 269.22 179.44 
M 206.24 92.19 212.81 97 216.05 99.64 221.1 104.1 
M 224.54 107.41 229.7 112.94 233.08 116.99 237.94 123.28 
M 240.99 127.44 246.52 135.77 
M 249.17 140.04 251.89 144.38 
M 260.17 157.14 263.45 162.28 
M 266.22 166.71 268.88 171.05 
M 276.4 183.8 278.91 188.14 
M 210.95 91.51 215.65 94.6 222.22 99.67 225.58 102.59 228.97 105.8 233.98 111.28 
M 237.23 115.23 241.84 121.43 248.63 131.8 
M 256.81 144.59 258.99 147.87 
M 265.64 158.11 268.43 162.59 
M 273.72 171.21 276.24 175.42 
M 216.06 90.94 221.85 94.62 225.11 97.06 231.69 102.76 234.96 106.04 238.17 109.64 241.26 113.5 245.54 119.63 
M 248.2 123.79 253.38 132.03 
M 256.1 136.21 264.14 148.16 
M 267.14 152.84 270.62 158.44 
M 278.65 171.38 283.66 179.91 
M 221.52 90.5 224.86 92.5 228.04 94.72 231.23 97.24 234.4 100.03 237.57 103.06 240.69 106.36 245.14 111.88 
M 250.55 119.9 255.69 128.16 
M 261.28 136.43 267.1 145.07 
M 272.82 154.22 278.45 163.19 
M 281.17 167.45 286.38 175.98 
M 293.83 189.48 297.3 195.79 
M 227.7 90.56 230.97 92.65 234.04 94.95 237.1 97.52 243.2 103.39 246.18 106.69 249.05 110.27 251.77 114.09 255.64 120.15 
M 258.24 124.27 260.94 128.35 
M 269.47 140.76 272.3 145.25 
M 275.12 149.89 283.78 163.53 
M 286.55 167.82 291.84 176.64 
M 233.47 90.65 236.8 92.91 239.76 95.25 242.72 97.85 248.64 103.72 251.55 107 254.35 110.55 260.97 120.32 
M 263.61 124.31 273.43 138.51 277.63 145.42 
M 280.47 150.18 283.44 154.9 
M 286.42 159.45 289.3 163.86 
M 292.09 168.26 296.16 175.07 299.93 181.92 
M 238.9 90.75 242.38 93.22 245.27 95.58 248.17 98.18 254.04 104 256.94 107.26 259.74 110.76 262.44 114.43 269.03 124.03 
M 271.79 127.94 274.64 131.96 
M 277.49 136.25 280.31 140.84 
M 283.14 145.63 287.51 152.82 297.67 168.64 
M 244.29 91 247.81 93.54 253.59 98.47 259.49 104.21 262.38 107.33 265.15 110.65 270.46 117.81 281.6 133.92 290.17 148.16 294.55 155.13 
M 297.48 159.63 300.37 164.19 
M 250.06 91.54 253.23 93.83 257.61 97.42 
M 260.54 100.01 264.93 104.08 267.77 107.02 270.52 110.2 275.85 117.27 282.75 127.35 
M 285.67 131.66 291.48 140.92 
M 302.97 159.56 305.86 164.17 
M 308.69 168.82 314.08 177.83 
M 316.62 181.99 319.1 185.86 
M 256.29 92.32 261.66 96.26 267.44 101.03 270.32 103.62 273.14 106.46 275.88 109.59 281.24 116.8 289.74 129.24 294.19 136.06 
M 297.07 140.8 302.71 150.33 
M 325.04 185.46 326.62 187.65 
M 263.51 93.54 267.16 96.06 272.85 100.48 275.69 103 278.5 105.84 281.24 109.03 283.91 112.58 295.33 128.98 299.81 135.88 
M 302.67 140.67 306.85 147.9 311.14 154.85 
M 317.09 164.01 320.07 168.63 
M 325.74 177.4 330.9 184.93 
M 271.77 95.09 275.45 97.65 278.25 99.88 281.08 102.42 283.82 105.34 286.46 108.64 296.31 122.28 
M 299.4 126.57 303.98 133.37 311.09 145.43 
M 313.96 150.19 316.91 154.79 
M 319.91 159.33 322.92 163.91 
M 325.9 168.47 328.79 172.88 
M 280.6 96.92 283.61 99.39 286.27 102.04 290.18 106.76 
M 292.87 110.26 298.74 117.94 
M 301.89 122.08 306.62 128.65 309.62 133.32 319.81 150.15 
M 325.76 159.24 328.72 163.76 
M 331.66 168.23 334.5 172.51 
M 288.11 98.6 291.24 101.91 293.85 105.01 305.98 119.87 309.19 124.17 313.79 131.02 
M 316.77 135.77 319.74 140.59 
M 322.72 145.39 328.66 154.61 
M 331.56 159.06 334.49 163.51 
M 294.69 100.18 305.24 111.94 308.49 115.77 311.72 119.88 316.44 126.52 
M 319.51 131.12 325.59 140.59 
M 331.6 149.93 337.49 158.79 
M 302.08 102.26 307.89 108.31 311.08 111.9 315.89 117.88 
M 322.21 126.64 328.41 135.83 
M 334.61 145.13 340.74 154.1 
M 310.82 105.05 316.96 111.87 323.34 120.08 345.65 151.57 350.01 158.04 
M 357.34 170.48 359.65 174.3 
M 319.43 107.81 326.09 115.91 344.21 140.06 
M 350.58 148.99 353.5 153.36 
M 327.53 110.26 342.4 128.74 350.8 139.75 
M 353.95 144.21 359.61 152.99 
M 335.74 112.76 345.65 124.36 352.47 132.83 358.78 141.64 361.62 146.06 365.4 152.49 
M 367.69 156.65 369.88 160.72 
M 372.11 164.68 374.42 168.55 
M 344.61 115.48 350.65 122.19 
M 354.06 126.21 360.48 134.68 
M 363.44 139.03 366.17 143.36 
M 368.67 147.63 370.97 151.81 
M 354.02 118.31 358.97 123.87 362.17 127.92 368.11 136.37 373.17 144.83 378.76 155.13 
M 363.67 121.46 368.46 127.51 374.09 135.79 376.57 139.95 384.49 154.43 
M 386.74 158.64 388.96 162.88 
M 372.81 124.59 377.45 131.1 380.05 135.17 384.74 143.36 390.18 153.99 
M 381.48 127.62 386.05 134.55 388.41 138.63 390.6 142.83 397.89 158.18 
M 389.99 130.65 392.08 134 394.33 138.18 399.57 149.71 
M 398.12 133.62 399.57 136.61 
M 120.94 117.11 120.22 118.13 
M 129.17 113.76 126.07 118.52 123.59 121.87 
M 136.61 110.8 131.77 118.92 126.8 125.88 
M 143.54 108.12 137.32 119.36 129.98 130.14 
M 150.57 105.6 147.94 109.85 142.66 119.93 140.53 123.44 132.91 134.97 
M 157.71 103.51 154.83 107.56 152.93 110.66 147.74 120.69 143.66 127.73 135.76 140.08 
M 165.25 101.57 162.24 105.05 160.08 108.11 158.08 111.33 156.2 114.65 149.85 126.82 
M 147.85 130.42 145.7 134.11 
M 138.68 145.19 137.09 147.55 
M 174.16 99.3 170.57 102.84 168.06 105.58 165.69 108.55 163.51 111.77 161.48 115.2 156.74 124.12 
M 154.87 127.72 150.07 136.84 146.7 142.48 
M 182.8 96.94 174.16 106.16 170.5 110.58 
M 168.22 113.82 165.02 119.15 160.98 126.64 156.44 135.84 
M 154.52 139.55 151.28 145.19 149.38 148.2 
M 190.16 95.16 187.45 98.16 175.4 112.43 173.07 115.66 170.83 119.24 165.5 129.01 
M 160.09 140.28 156.16 147.42 
M 135.45 176.3 134.07 178.42 
M 196.93 93.77 193.12 97.87 180.29 114.2 
M 177.99 117.44 174.59 122.93 169.24 133.16 
M 165.69 140.9 162.9 146.47 
M 143.71 173.38 139.13 180.49 
M 203.51 92.64 201.18 94.78 198.77 97.41 196.4 100.36 183.96 117.45 
M 181.73 120.87 178.35 126.75 173.95 135.19 169.35 145.43 
M 210.63 91.55 206.84 94.61 204.41 97.07 202.04 99.87 197.44 106.27 187.61 120.89 
M 183.19 128.63 177.53 139.22 174.98 144.94 
M 153.75 178.86 151.46 182.16 
M 217.87 90.74 215.32 92.45 212.64 94.6 210.1 97 207.68 99.64 205.35 102.58 203.08 105.82 192.33 122.84 183.06 139.06 179.97 145.27 
M 164.55 173.46 162.32 176.69 
M 224.5 90.53 221.54 92.46 218.75 94.6 216.07 97 213.49 99.64 211.04 102.51 208.73 105.62 206.52 108.99 197.04 125.11 
M 194.87 128.93 186.27 143.26 185.08 145.54 
M 170.58 174.22 168.37 177.71 
M 166.01 181.18 163.59 184.51 
M 230.73 90.6 227.74 92.55 224.98 94.65 222.25 97.02 219.58 99.65 217.01 102.51 214.55 105.62 212.22 108.95 210.04 112.47 204.86 121.81 
M 202.79 125.57 199.54 131.34 191.53 144.29 
M 174.17 178.49 171.89 182.09 
M 236.76 90.71 233.73 92.76 231.09 94.82 225.78 99.72 223.17 102.55 220.63 105.65 218.18 108.99 214.75 114.36 
M 212.61 118.11 207.48 127.87 204.09 133.81 
M 201.65 137.8 197.69 144.12 
M 182.38 174.7 182.01 175.35 
M 242.58 90.84 239.44 93.05 236.95 95.1 231.88 99.91 229.34 102.68 226.8 105.74 224.31 109.1 221.89 112.66 217.35 120.14 210.99 132.12 207.39 138.27 
M 204.9 142.35 203.21 145.14 
M 188.29 174.67 187.67 175.8 
M 247.72 91.32 244.93 93.37 240.16 97.7 235.31 102.93 230.42 109.28 227.99 112.87 223.31 120.43 213.08 138.5 
M 210.62 142.74 209.09 145.36 
M 193.37 176.21 191.16 180.08 
M 252.84 91.8 250.34 93.68 245.67 98.03 241.04 103.26 238.7 106.25 233.98 113.13 225.91 126.6 
M 223.66 130.49 215.11 144.92 
M 196.88 180.51 192.3 188.01 
M 257.65 92.55 253.42 96.03 248.8 100.87 244.26 106.57 241.98 109.86 238.58 115.3 
M 236.31 119.16 231.78 127 
M 229.52 130.89 220.6 145.67 
M 206.86 173.7 205.15 176.72 
M 262.3 93.34 258.92 96.24 256.54 98.6 251.94 103.9 247.37 110.17 245.1 113.72 241.81 119.43 
M 239.65 123.36 234.13 133.2 226.84 145.54 
M 213.46 172.51 209.93 178.86 206.27 184.93 
M 198.74 195.83 196.38 198.63 
M 266.71 94.12 265.57 95.16 
M 263.23 97.43 257.36 104.15 252.66 110.47 250.31 114.02 245.86 121.65 239.65 133.43 232.75 145.85 
M 220 170.98 219.21 172.57 
M 270.98 94.94 267.5 98.4 265.14 101.2 258.02 110.71 254.32 116.16 
M 249.72 123.87 247.66 127.76 
M 245.69 131.66 241.57 139.78 
M 226.51 169.04 224.71 172.77 
M 222.64 176.84 220.4 180.93 
M 275.1 95.72 272.94 97.91 270.55 100.73 268.23 103.83 258.34 118.27 253.5 126.07 251.4 129.94 248.48 135.86 
M 246.52 139.95 243.34 146.57 
M 233.44 166.38 229.91 173.29 
M 227.91 177.23 225.84 181.14 
M 279.17 96.6 275.95 100.13 271.25 106.68 258.63 126.3 255.25 132.13 
M 253.23 136.08 251.3 140.13 
M 249.39 144.3 247.94 147.49 
M 240 164.39 232.94 177.82 
M 230.95 181.62 227.91 187.15 224.57 192.54 
M 283.23 97.5 281.36 99.57 278.98 102.64 276.6 106.06 264 126.33 259.28 134.31 257.16 138.31 252.83 147.66 
M 246.02 162.79 240 174.27 
M 237.9 178.33 233.93 185.76 
M 287.3 98.41 284.29 102.16 281.97 105.5 277.06 113.19 266.97 130.25 261.33 140.58 
M 259.29 144.71 257.86 147.76 
M 251.93 161.01 247.32 170.2 
M 242.97 178.56 239.87 184.38 234.79 192.89 
M 291.34 99.37 289.31 101.94 287.11 105.14 278.66 119.07 
M 276.14 123.44 271.24 132.1 
M 266.59 140.7 262.87 148.31 
M 258.22 158.36 252.39 170.28 
M 245.97 182.61 243.9 186.3 
M 241.83 189.77 239.72 193.06 
M 237.56 196.27 235.3 199.4 
M 295.59 100.39 294.29 101.9 292.08 105.02 287.65 112.34 273.07 138.51 268.22 148.05 
M 265.54 153.81 263.61 157.97 
M 261.59 162.16 259.53 166.3 
M 257.44 170.42 253.17 178.68 
M 251.03 182.66 248.93 186.38 
M 246.84 189.86 242.52 196.36 
M 299.92 101.57 297.18 105.01 294.96 108.39 290.54 116.2 284.63 127.26 
M 279.78 136.2 274.89 145.29 
M 272.66 149.73 270.6 154.06 
M 268.61 158.31 265.6 164.56 260.37 174.76 
M 304.42 103.01 302.71 105.01 300.28 108.37 298.03 112.01 295.85 115.97 286.58 133.88 276.75 152.25 265.37 175.09 
M 261.08 182.97 257.72 188.45 254.41 193.47 
M 309.01 104.47 306.03 108.33 303.61 111.95 301.33 115.83 293.36 131.37 
M 290.92 136.13 285.87 145.69 
M 283.38 150.31 278.76 158.99 
M 270.22 175.29 266.03 183.32 
M 263.8 186.99 261.49 190.45 
M 313.68 105.97 311.92 108.26 309.43 111.91 304.77 119.87 288.97 150.49 
M 286.56 155.03 279.45 167.36 
M 277.18 171.34 275 175.4 
M 266.42 190.87 264.07 194.14 
M 261.71 197.26 259.52 200.1 
M 318.42 107.48 315.3 111.88 310.51 119.87 297.05 145.66 
M 294.54 150.49 288.51 161.7 282.27 171.58 
M 323.29 108.98 321.22 111.87 316.28 119.95 311.51 128.67 302.62 145.54 
M 297.64 155.08 292.79 163.97 
M 290.23 168.07 287.61 171.97 
M 285.01 175.85 282.54 179.84 
M 328.29 110.49 324.62 115.89 322.1 120.06 313.42 135.75 
M 310.82 140.58 308.19 145.46 
M 298.32 164.12 294.5 170.57 290.4 176.43 
M 287.71 180.29 286.39 182.25 282.99 188.41 
M 278.81 196.17 277.72 197.96 
M 333.42 112.05 330.65 115.96 328.03 120.15 321.7 131.17 
M 316.54 140.59 313.87 145.42 
M 311.22 150.21 307.42 157.17 302.63 166.51 300.1 171.02 298.75 173.12 
M 295.98 177.17 293.14 181.03 
M 290.42 184.89 287.96 188.85 
M 338.91 113.74 337.01 116.12 334.18 120.19 331.47 124.51 326.26 133.5 319.69 145.41 
M 311.79 159.42 309.32 164.11 
M 306.86 168.85 304.31 173.46 
M 295.8 185.61 293.08 189.43 
M 344.47 115.43 340.73 120.24 336.39 126.68 
M 333.6 131.16 324.25 147.77 318.85 157.05 311.11 171.13 307.07 177.98 
M 349.98 117.09 344.47 124.38 338.53 133.31 332.87 142.83 315.42 173.34 
M 312.59 177.87 306.64 186.34 
M 355.3 118.73 351.22 124.2 345.13 133.12 339.13 142.61 331.94 154.51 
M 329.22 159.15 322.62 170.9 318.34 177.72 
M 360.38 120.39 351.8 132.86 337.98 154.25 
M 335.07 158.92 332.36 163.62 
M 329.75 168.33 325.68 175.28 321.15 181.81 
M 317.96 185.94 314.71 189.92 
M 365.39 122.02 361.29 127.97 344.32 153.9 
M 335.5 168.01 332.81 172.66 
M 370.23 123.7 363.1 134.52 
M 360.09 139.27 355.51 146.43 347.49 158.2 
M 344.33 162.89 338.52 172.18 
M 335.73 176.67 332.83 180.97 
M 375.01 125.35 370.75 131.69 358.56 150.82 350.44 162.45 
M 379.69 126.99 373.69 135.83 362.9 152.74 
M 359.73 157.44 349.91 171.04 
M 346.88 175.38 343.99 179.6 
M 384.3 128.61 376.39 139.97 371.64 147.27 
M 368.55 152.13 363.87 159.3 355.64 170.6 
M 388.84 130.23 378.91 144.08 366.25 163.35 358.16 174.42 
M 393.32 131.87 386.5 141 
M 383.06 145.76 378.06 153.03 373.35 160.23 
M 363.88 173.86 361.82 176.62 
M 397.77 133.5 390.63 142.83 385.49 149.9 
M 382.17 154.69 372.72 168.75 
M 399.57 138.48 391.23 149.49 
M 387.9 154.13 381.51 163.49 
M 378.4 168.08 376.3 171.12 
M 399.57 145.79 396.9 149.32 
M 399.57 153.23 399.16 153.77 
M 395.85 158.22 392.64 162.7 
M 399.57 160.6 398.68 161.8 
M 153.18 104.67 153.18 104.67 
M 158.94 103.19 159.58 95.25 163.36 95.34 166.4 94.63 169.07 93.33 171.12 91.44 173.7 90.12 176.95 89.47 178.23 86.76 180.28 84.82 182.72 83.22 184.82 81.26 187.98 80.46 191.89 80.46 195.3 80.7 197.27 79.37 198.97 77.16 202.26 76.47 204.89 75.03 206.8 72.92 210.06 72.71 213.71 72.89 215.81 71.54 217.05 69.36 222.24 67.34 226.48 68.79 229.26 68.91 231.79 69.47 235.08 70.83 238.6 71.53 243.5 69.36 245.67 67.71 246.99 65.11 248.89 63.09 252.02 62.43 255.54 62.37 258.63 61.97 261.75 61.94 265.1 62.13 269.71 60.2 273.05 60.25 275.97 59.88 278 59.05 287.57 61.41 292.83 65.17 294.37 65.95 296.81 66.37 299.88 67.28 303.53 68.76 307.83 72.36 310.47 74.88 313.16 78.22 313.63 80.8 316.2 84.32 317.69 85.95 323.23 91.09 328.17 94.73 331.63 97.6 334.14 100.81 335.29 102.88 335.12 104.65 335.26 105.85 335.26 112.61 
M 331.67 111.51 331.67 111.51 
M 157.86 103.47 157.87 103.47 
M 159.97 102.93 160.97 100.3 
M 162.53 102.27 162.54 102.26 
M 164.4 101.79 165.06 100.38 
M 167.21 101.07 168.78 100.42 169.46 98.43 169.15 96.24 
M 171.89 99.88 173.07 98.96 173.88 93.74 174 91.97 
M 176.56 98.67 178.37 97.96 178.93 92.52 179.46 90.63 
M 181.21 97.38 182.88 96.53 183.84 94.58 184.71 92.06 185.3 89.71 
M 185.87 96.1 187.63 95.18 188.82 93.16 189.42 90.79 190.79 88.5 192.26 83.35 
M 190.58 95.07 192.55 93.23 193.58 90.95 194.9 89.99 
M 195.31 94.1 197.36 92.54 198.6 90.3 198.96 88.39 199.81 86.54 
M 200.06 93.22 202.2 91.52 202.78 89.23 203.55 84.22 204.57 81.72 
M 204.82 92.43 206.57 90.89 207.4 88.84 208.12 86.45 208.74 83.26 210.15 78.35 
M 209.59 91.67 211.63 90.76 212.7 87.1 215.17 82.2 216.08 79.16 215.82 75.73 
M 214.38 91.13 216.48 90.29 217.41 88.46 218.49 83.6 219.65 80.77 220.65 77.49 222.39 75.84 
M 219.18 90.59 221.76 89.64 224.58 82.5 225.51 79.49 227.91 73.23 
M 224.01 90.53 226.94 89.34 228.37 86.81 229.2 83.7 230.6 81.26 
M 228.83 90.58 231.74 88.97 233.53 86.36 236.66 80.43 237.56 77.78 237.34 76.93 
M 233.66 90.65 236.14 89.24 238.16 87.05 239.31 84.33 240.45 82.3 240.51 79.16 241.2 76.11 
M 238.49 90.74 240.86 89.64 242.45 87.38 244.44 86.16 245.56 83.59 245.45 76.87 
M 243.31 90.91 245.44 89.82 248.14 86.14 249.24 83.84 251.23 78.84 252.03 77.39 
M 248.12 91.36 250.48 90.28 252.01 87.48 253.01 85.21 253.74 82.44 255.64 81.06 257.54 77.34 259.69 75.46 
M 252.92 91.81 255.7 90.73 260.43 83.47 261.67 81.1 262.98 79.33 265.25 77.19 
M 257.69 92.56 260.14 91.52 262.2 89.66 264.29 87.13 267.15 82.24 268.39 80.46 269.84 77.04 
M 262.45 93.36 264.43 92.08 266.05 89.74 267.59 86.94 269.3 85.13 270.62 82.96 271.76 79.97 276.22 72.6 277.08 70.16 277.15 67.44 278.39 64.8 
M 267.2 94.22 269.01 93.06 271.7 88.88 273.33 85.82 274.5 82.98 276.92 80.87 279.76 78.86 
M 271.94 95.12 274.13 94.03 276.31 91.7 278.65 86.84 281.36 83.63 283.17 80.9 286.32 78.99 288.25 76.58 289.19 73.25 290.32 70.45 292.16 68.84 
M 276.68 96.05 279.78 94.28 281.92 92.1 283.64 89.64 284.67 86.2 286.07 83.44 
M 281.39 97.09 284.51 95.29 287.55 91.4 288.92 90 290.22 86.48 291.62 84.04 293.36 81.53 295.64 79.4 297.24 75.74 298.84 73.08 300.5 72.12 
M 286.1 98.14 288.92 96.64 290.6 95.33 293.92 91.37 296.86 85.46 299.54 81.2 
M 290.8 99.25 293.39 98.04 295.28 96.61 296.7 95.27 299.45 90.93 
M 295.5 100.37 298.68 99.19 300.76 97.59 300.83 96.34 302.12 94.59 304.78 91.6 307.21 88.28 308.77 85.68 310.29 82.68 
M 300.15 101.64 303.71 100.04 305.94 98.62 308.65 95.24 312.87 88.79 313.64 86.85 
M 304.75 103.11 307.91 102.29 310.31 101 312.79 98.01 313.95 95.87 315.81 94.99 318.76 90.38 
M 309.35 104.58 312.58 104.69 315.19 103.28 317.42 100.64 
M 313.95 106.05 317.39 106.08 318.95 104.41 321.4 102.76 323.99 100.32 
M 318.55 107.52 321.98 107.57 323.58 105.41 
M 323.16 108.95 326.22 108.12 328.65 106.78 
M 327.78 110.34 331.99 109.51 
M 137.43 149.56 156.48 147.38 164.92 146.23 167.78 145.56 176.11 144.87 179.37 145.23 185.29 145.55 188.4 144.69 194.73 144.03 197.94 144.13 203.13 145.15 205.92 144.94 209.05 145.36 215.7 144.89 221.05 145.75 223.83 145.8 226.45 145.51 236.18 146.13 238.87 145.97 242.01 146.52 244.69 146.61 247.73 147.48 250.56 147.71 256.38 147.63 259.07 147.87 262.18 148.39 265.09 148.05 269.67 148.04 273.92 148.73 256.82 159.21 253.91 160.08 251.34 161.29 248.43 162.17 239.96 164.4 236.95 164.91 234.53 166.02 231.79 166.92 229.35 168.14 223.81 169.9 215.45 172.2 212.41 172.67 209.59 173.37 203.79 174.04 200.65 174.03 195.1 174.74 192.14 174.89 188.88 174.66 182.77 174.62 180.26 175.14 171.99 174.46 169 173.95 166.29 173.74 160.43 172.95 154.59 172.56 140.97 170.66 135.1 166.68 
M 137.51 151.2 144.47 150.79 159.6 149.35 168.02 148.92 171.03 149.21 176.89 148.67 179.62 148.85 182.51 149.45 185.56 149.22 191.76 148.26 198.25 148.7 203.99 149.51 209.75 149.8 212.69 150.93 215.59 151.31 220.51 150.94 226.76 151.33 234.01 152.85 244.49 153.86 247.12 154.73 249.85 155.26 
M 137.35 152.86 144.46 152.88 150.54 152.4 153.82 151.94 157.07 151.89 162.74 152.02 165.43 151.9 171.34 152.89 177.05 152.95 182.41 152.76 185.53 153.24 188.42 152.81 194.46 152.92 197.42 153.51 201.02 153.99 204.58 153.8 207.37 154.16 215.75 156.77 218.45 156.67 
M 137.18 154.52 144.52 154.98 153.89 154.52 160.01 154.65 165.6 155.04 173.81 156.95 176.9 157.08 182.74 156.8 185.77 157.38 
M 141.74 156.69 147.51 156.99 157.44 157.08 162.89 157.81 168.81 158.82 171.54 159.91 174.21 160.18 177.04 160.87 182.42 161.83 185.32 162.06 191.21 163.05 200.82 164.98 204.33 165.95 207.49 167.06 210.42 167.62 212.5 168.44 
M 136.65 157.96 147.55 159.25 157.55 159.73 160.11 160.2 171.8 163.42 174.48 163.97 
M 136.22 159.54 150.85 162.05 157.58 162.4 160.02 163.32 162.87 164.15 171.27 167.33 176.9 168.72 
M 141.98 162.44 147.54 163.76 150.87 164.78 154.14 165.4 157.23 165.56 160.17 166.64 
M 135.53 162.59 142.04 164.62 144.61 165.68 147.55 166.5 150.8 167.79 156.63 169.03 159.73 170.52 
M 139.56 166.07 141.78 167.48 144.6 168.71 
M 197.8 206 202.79 210.88 207.42 217.24 212.73 233.49 210.49 235.29 207.99 236.83 205.2 237.86 202.04 237.49 199.96 239.47 199.97 242.96 199.59 246.04 196.93 250.34 194.53 250.94 191.58 248.1 185.01 238.75 181.34 233.22 169.9 207.42 167.57 204.46 166.11 199.72 164.34 195.09 
M 193.12 204.84 196.93 209.36 198.94 212.36 202.67 216.53 204.51 219.74 205.32 221.67 
M 188.43 203.67 191.4 207.61 193.65 211.09 194.82 213.44 195.54 215.29 197.77 218.22 198.94 220.83 199.73 224.33 
M 183.85 202.15 186.56 205.55 188.36 208.47 190.91 216.07 193.03 221.44 195.99 227.27 197.28 230.72 198.27 232.76 
M 179.35 200.42 181.79 204.44 182.98 207.07 185.29 213.73 186.51 220.05 187.73 223.39 189.17 226.61 190.8 231.93 191.29 234.36 194.08 236.84 195.6 239.97 
M 174.84 198.7 177.03 203.07 180.25 212.12 181.58 214.84 183.59 221.66 184.18 225 
M 170.27 197.13 172.54 201.67 174.61 208.22 176.29 214.44 180.36 219.3 179.96 222.84 
M 365.13 178.68 370.52 183.67 372.31 187.02 373.73 188.9 373.63 196.2 372.12 198.67 370.93 201.46 365.93 204.55 364.2 206.91 362.12 208.82 358.81 208.02 355.76 208.26 353.05 209.58 351.06 211.51 350.91 214.7 349.69 217.16 348.98 220.3 343.89 222.17 337.28 220.8 334.89 220.61 328.24 218.07 325.49 217.92 323.53 219.4 320.81 219.62 318.14 218.86 314.99 217.55 308.46 212.72 305.88 209.9 303.6 206.22 298.2 200.8 
M 360.66 180.5 364.24 184.22 366.23 187.06 371.18 192.55 372.31 195.11 
M 356.19 182.31 359.59 185.95 361.68 188.64 366.37 194.13 
M 351.69 184.07 355.29 187.61 362.71 196.14 365.98 199.57 
M 347.18 185.79 350.7 189.87 356.29 195.34 358.55 196.98 
M 342.66 187.49 348.67 194.73 356.78 202.48 
M 338.03 188.85 342.43 192.72 344.87 195.72 347.34 198.19 350.21 202.23 352.06 204.28 
M 333.4 190.21 337.84 194.19 340.32 196.05 342.58 198.2 344.75 201.53 
M 328.78 191.59 334.94 198.84 337.54 200.84 339.73 203.29 343.26 209.15 
M 324.15 192.98 327.35 196.65 331.57 202.27 334.62 204.11 336.96 206.54 339.32 209.81 340.57 212.53 342.4 215.34 
M 319.54 194.41 323.23 197.3 325.62 200.33 327.5 203.13 330.05 205.35 333.21 207.1 335.8 209.96 337.45 213.72 
M 314.99 196.01 318.63 198.96 323.74 203.44 325.43 207.02 327.98 209.14 330.85 211.11 332.6 214.37 
M 310.43 197.61 314.22 201.48 317.24 204.19 319.48 206.73 
M 305.78 198.89 309.4 203.17 314 207.58 316.22 210.6 318.37 214.35 320.9 217.93 
M 301.1 200.07 305.17 204.84 308.32 208.08 310.38 209.38 
M 398.6 133.8 402.13 132.7 404.93 131.58 407.37 130.19 410.83 129.05 414.14 128.2 424.24 122.3 426.38 120.61 432.74 118.46 435.3 115.36 439.05 113.89 441.19 112.5 446.52 112.17 448.87 112.68 452.87 113.02 456.62 115.02 459.74 116.38 461.41 116.44 463.76 117.4 472.45 123.3 474.93 124.58 476.86 125.24 478.14 126.7 480.69 131.62 483.02 136.64 484.96 139.94 486.6 143.7 486.71 145.96 487.45 148.73 489.21 151.98 490 154.47 488.3 156.41 487.68 159.44 488.66 163.56 488.17 166.17 485.71 167.53 485.13 170.89 483.74 173.58 481.39 175.32 480.44 178.46 478.77 180.89 475.97 182.07 472.99 183.08 469.99 187.94 467.72 189.7 464.71 190.5 462.05 191.64 458.88 191.34 455.49 190.65 449.34 190.5 445.49 191.51 436.19 194.74 434 193.67 432.56 190.22 431.15 187.95 425.83 184.65 422.68 181.37 419.94 180.05 412.37 174.28 407.03 171.24 404.86 169.19 398.6 164.38 
M 404.71 133.28 410.77 130.4 416.71 128.58 419.98 126.68 422.49 126.24 424.77 124.92 427.13 122.25 429.7 121.01 
M 398.6 136.86 402.1 136.57 404.69 135.21 414.16 131.41 416.7 131.17 419.48 130.12 422.71 129.43 425.48 128.53 427.91 126.17 430.43 124.35 433.91 123.7 435.71 123.77 
M 402.32 138.65 407.79 136.19 414.03 134.06 419.84 133.13 422.9 132.32 426.07 131.95 428.76 130.79 432.91 127.22 435.58 127.13 437.98 125.99 
M 398.6 139.92 402.49 140.48 405.51 139.71 411.04 137.61 417.26 136.15 420.04 135.25 422.88 134.74 426.47 135.06 429.65 135.13 434.57 132.76 436.45 131.53 
M 402.45 142.06 408.88 141.04 411.54 140.09 417.62 138.76 420.02 137.53 422.83 137.01 428.7 136.57 432.69 136.45 435.15 135.72 437.79 135.6 440.78 134.9 450.64 129.82 451.98 127.94 453.42 127.54 456.71 127.76 459.88 125.85 462.7 125.25 465.06 125.06 467.27 124.31 470.43 124.08 
M 405.58 143.46 408.78 143.03 411.82 142.34 414.66 141.95 417.79 141.12 422.9 139.14 432.12 137.97 435.59 138.28 438.15 137.81 440.87 136.78 444.56 136.32 448.7 134.4 451.21 133.85 
M 398.6 144.5 402.18 145.2 405.16 145.29 408.4 145.11 414.72 143.86 418.09 144.02 420.66 142.76 422.97 141.94 429.2 141.06 432.71 141.15 436.76 140.68 442.67 139.75 449.35 139.1 452.33 138.51 453.64 138.78 454.91 138.81 457.95 137.45 461.37 136.28 465.83 135.13 469.13 134.89 471.48 134.48 
M 402.12 146.81 408.11 146.91 415.02 146.47 418.33 146.89 420.66 145.98 425.54 144.64 428.73 144.66 433.02 144.96 436.97 144.12 440.05 143.82 442.89 143.33 449.65 144.62 452.63 143.64 
M 405.04 148.28 411.32 148.85 414.61 149.33 417.49 149.41 420.23 148.99 423.15 148.86 425.92 148.42 429.15 148.57 433.44 148.02 437.47 147.18 440.84 147.05 443.3 147.61 446.36 148.06 449.35 148.87 453.88 148.18 
M 402.16 150.08 408.27 150.43 410.99 151.47 414.17 152.2 420.28 152.05 423.19 152.18 426.18 151.86 430.01 151.79 434.16 150.86 440.93 151.32 443.78 151.78 447.07 153.14 449.73 153.67 450.9 153.63 456 154.15 459.53 154.33 463.14 154.13 466.82 152.76 469.64 152.69 472.9 152.94 
M 402.01 151.76 405.28 151.98 408.29 152.53 414.35 154.32 417.5 154.88 425.94 154.1 429.24 154.65 432.83 154.22 436.89 154.95 439.83 155.28 445.39 156.98 450.84 156.81 454.3 156.18 456.32 156.86 459.11 156.74 
M 405.14 153.96 408.35 154.61 411.51 155.7 414.92 156.5 417.95 157.51 420.57 156.97 423.82 156.68 426.76 156.89 432.53 157.42 435.09 158.5 438.2 158.97 440.86 158.48 443.74 159.87 453.1 161.04 455.76 160.81 459.33 161.51 462.45 162.61 465.61 164.04 
M 402.06 155.18 408.52 156.84 411.68 158.21 414.24 158.95 416.71 160.1 422.99 159.76 427.12 160.28 432.14 161.2 437.27 162.59 
M 405.65 157.92 408.52 158.91 411.27 160.35 416.38 162.49 419.57 162.86 422.68 162.53 426.37 163.06 437.59 167.02 
M 398.6 156.74 408.59 160.91 413.65 163.92 416.86 165.1 420.05 165.6 423.33 165.62 426.3 166.55 429.29 167.79 432.38 168.79 435.43 170.1 437.54 171.73 442.97 172.4 445.18 171.75 452.12 174.83 454.16 176.39 457.37 178.11 460.19 180.21 463.7 181.59 
M 402.27 159.99 405.21 161.64 408 162.9 413.55 165.78 416.97 167.76 426.66 170.23 429.63 171.78 431.85 172.29 434.56 174.23 437.49 175.96 440.49 176.97 442.42 176.6 446.04 177.27 449.28 178.32 451.66 180.28 
M 401.96 161.84 404.7 163.49 410.25 166.36 413.71 167.95 416.95 170.08 422.52 172.49 425.27 173.2 428.45 174.88 430.34 176.1 432.88 176.77 436.38 178.27 439.05 179.19 442.4 179.53 445.64 181.25 448.63 182.61 
M 407.2 166.67 416.52 172.44 419.02 173.34 421.64 175.48 430.42 179.78 433.2 180.42 436.1 181.54 438.79 182.88 440.8 185.04 443.34 186.25 447.05 186.79 
M 404.52 167.24 410.04 170.76 412.94 172.88 418.66 175.65 420.65 177.23 
M 365.13 121.94 369.93 127.35 385.64 112.56 382.38 129.18 376.29 125.79 
M 369.7 123.51 373.05 123.05 375.64 120.83 378.7 118.68 380.66 116.79 381.67 116.29 
M 47.26 151.78 51.84 147.02 55.02 144.02 58.8 140.94 62.97 138.39 82.74 128.75 94.29 123.99 99.65 121.61 105.03 119.88 110.14 118.78 114.51 118.06 117.87 117.65 119.71 117.59 122.63 120.71 125.24 123.85 130.04 130.22 134 136.73 135.75 140.02 137.58 150.48 137.24 154.12 136.69 157.8 135.67 161.56 135.19 165.23 134.97 168.85 135.09 172.42 134.64 176.08 133.73 179.82 130.85 183.87 118.87 183.65 110.02 183.1 101.99 182.23 94.48 180.96 81.13 178.06 75.38 176.12 69.96 173.73 65.22 171.28 61.27 168.81 57.79 166.35 
M 113.53 138.72 113.91 141.72 113.86 144.64 113.54 147.4 111.02 152.46 109.61 154.7 109.01 156.82 109.04 158.96 111.37 165.96 110.77 169.21 91.02 169.45 85.27 169.15 79.6 168.53 74.19 167.71 69.25 166.15 
M 55.93 166.06 48.2 159.62 44.56 156.35 43.64 154.2 44.56 152.09 46.84 151.45 48.75 152.91 52.58 159.1 56.72 165.03 57.97 166.57 
M 55.08 167.44 50.87 167.66 42.07 168.62 
M 39.9 168.77 38.49 168.84 36.51 167.55 36.5 167.31 
M 36.47 166.42 36.41 165.09 38.23 163.21 40.65 163.09 50.12 164.81 56.28 166.14 
M 76.59 162.38 73.46 157.99 71.92 152.82 72.14 147.43 74.1 142.4 77.59 138.29 82.22 135.53 87.5 134.42 92.85 135.09 97.7 137.46 101.51 141.27 103.88 146.12 104.55 151.47 103.44 156.75 100.68 161.38 96.57 164.87 91.54 166.83 86.15 167.05 80.98 165.51 76.59 162.38 
M 98.85 143.17 100.74 147.05 101.28 151.33 100.39 155.56 98.18 159.26 94.89 162.05 90.87 163.62 86.56 163.8 82.42 162.57 78.91 160.06 
M 82.82 154.7 81.57 152.95 80.95 150.88 81.04 148.72 81.82 146.71 83.22 145.07 85.07 143.96 87.18 143.52 89.32 143.79 91.26 144.73 92.79 146.26 93.74 148.2 94 150.34 93.56 152.45 92.46 154.3 90.81 155.7 88.8 156.48 86.64 156.57 84.58 155.96 82.82 154.7 
M 83.52 153.93 85.96 156.37 
M 83.11 150.91 88.69 156.49 
M 82.37 147.56 90.59 155.78 
M 84.09 146.68 92.06 154.64 
M 87.45 147.43 93.15 153.13 
M 86.83 144.2 93.82 151.2 
M 89.41 144.18 93.78 148.55 
M 47.95 151.01 51.67 154.74 
M 50.8 148.07 53.73 151 
M 53.74 145.22 58.04 149.52 
M 56.85 142.53 61.15 146.83 
M 60.19 140.09 63.33 143.22 
M 63.86 137.97 67.84 141.94 
M 67.78 136.09 73.07 141.38 
M 71.59 134.1 75.09 137.6 
M 75.47 132.2 80.08 136.8 
M 79.39 130.33 82.32 133.26 
M 83.36 128.5 87.25 132.39 
M 87.44 126.79 93.02 132.37 
M 91.55 125.1 96.68 130.23 
M 95.63 123.39 99.94 127.7 
M 99.64 121.61 103.63 125.6 
M 104.03 120.2 107.8 123.97 
M 108.71 119.09 112.15 122.53 
M 113.62 118.21 118.93 123.53 
M 118.82 117.62 124.32 123.12 
M 77.42 134.46 76.6 135.02 75.18 136.36 72.86 137.96 71.5 139.36 70.18 140.14 
M 102.18 182.25 102.52 181.94 102.64 180.96 
M 76.42 176.47 77.05 175.53 77.78 173.79 78.15 173.49 78.57 173.39 79.42 173.45 
M 133.53 160.97 134.04 159.5 135.39 157.05 136.07 154.65 136.1 153.77 135.93 153 135.58 152.42 132.89 150.29 
M 90.45 166.87 90.62 169 
M 118.84 182.9 117.09 179.67 114.51 175.78 114.22 174.94 114.16 174.05 114.32 173.06 115.02 170.08 
M 128.21 177.1 128.51 176.42 129 175.81 129.67 175.35 130.46 175.24 132.33 175.56 134.69 175.65 
M 117.5 159.8 118.29 160.2 119.49 162.21 120.49 163.42 121.23 164.8 121.62 166.07 
M 132.62 159.34 134.21 156.7 134.55 155.53 134.66 153.69 133.72 151.92 131.83 149.67 
M 131.94 146.04 133.25 143.94 133.92 143.29 
M 128.9 160.59 127.81 160.88 126.93 161.4 125.49 163.1 125.09 164.74 
M 122.1 126.35 120.7 124.91 118.8 123.39 117.97 122.49 117.29 121.25 117.24 120.08 
M 103.31 156.97 104.87 157.73 107.79 159.73 109.05 160.18 
M 133.42 137.35 134.68 138.01 
M 88.67 177.48 88.81 179.76 
M 123.95 167.54 124.94 170.23 125.18 171.38 126.22 171.54 
M 108.97 136.43 105.75 135.72 104.53 135.2 104.23 134.51 104.08 132.46 
M 69.9 148.07 71.26 146.34 71.84 146.11 72.61 146.24 
M 57.36 162.65 57.04 162.29 56.59 162.16 54.91 162.39 
M 53.62 157.08 52.57 157.58 51.73 157.66 
M 133.97 144.25 134.32 143.41 134.74 143.07 136.32 143.06 
M 103.65 172.01 103.45 171.36 103.12 170.93 102.54 170.74 101.99 170.88 101.39 171.17 100.88 171.67 100.55 173.01 
M 96.15 170.61 96.16 171.88 95.9 173.68 95.98 174.17 96.17 174.61 96.65 175.03 97.26 175.19 97.96 175.15 
M 61.92 160.61 60.83 161.14 59.99 161.32 55.66 161.4 54.34 161.6 
M 125.12 150.07 124 146.9 124 146.23 125.13 141.55 125.18 140.98 124.84 140.37 
M 94.65 165.61 94.18 167.84 94.22 171.73 93.15 173.42 93.04 173.96 
M 64.7 151.71 67.6 148.15 69.53 146.07 71.45 145.05 72.16 145.01 72.94 145.37 
M 112.87 142.94 111.65 143.71 111 144.34 110.42 145.07 109.68 146.46 109.28 147.78 109.27 148.33 110.01 150.73 
M 95.11 127.22 96.86 125.47 99.49 121.68 
M 121.93 119.96 119.9 119.28 119.36 118.95 118.65 118.14 118.66 117.89 118.97 117.61 
M 128.66 153.08 127.11 149.69 126.38 146.24 126.4 144.39 127.08 142.25 
M 79.99 130.08 79.95 130.06 
M 109.13 169.56 104.6 166.76 103.69 165.86 103.54 165.2 103.77 163.8 104.61 162.83 
M 60.62 161.9 60.25 161.64 59.33 161.47 55.43 161.44 54.35 161.62 
M 94.14 165.89 93.79 168.27 93.82 171.3 93.61 171.83 92.73 172.8 92.19 173.93 
M 122.08 168.06 122.19 170.17 122.04 170.5 121.68 170.74 
M 78.17 177.06 78.9 175.61 79.42 174.97 80.05 174.67 80.57 174.95 
M 130.1 159.53 127.3 160.86 125.63 162.69 125.32 163.22 
M 110.48 159.24 111.44 159.92 112.04 160.04 112.5 159.96 
M 98.17 128.55 98.83 128.25 101.09 125.57 101.39 125.37 101.81 125.4 
M 131.52 182.94 130.11 183.86 
M 126.34 152 125.02 149.56 124.12 146.47 125.27 141.02 
M 66.38 163.38 65.7 159.91 65.5 156.92 65.97 155.77 67.13 154.11 69.19 152.34 
M 49.87 150.48 47.68 151.29 
M 126.11 178.56 126.17 175.64 126.8 172.52 126.66 172.13 
M 130.77 177.13 134.48 176.72 
M 132.52 138.28 133.07 138.49 135.88 140.71 
M 104.59 168.44 102.54 167.38 101.45 167.44 100.26 168.01 99.79 168.39 99.3 169.41 99.03 170.72 98.99 172.7 
M 106.74 154.17 109.1 155.79 112.13 157.14 112.3 157.42 
M 92.69 180.03 93.18 180.36 93.68 180.2 95.87 177.99 
M 125.92 136.59 124.79 135.81 123.35 134.51 122.93 134.33 121.7 134.1 119.58 134.58 
M 59.34 147.96 60.33 147.73 62.94 148.37 64.45 148.18 67.83 145.73 
M 63.5 155.09 64.67 153.85 66.29 151.08 68.33 148.82 70.07 146.59 70.66 146.06 71.8 145.54 
M 90.84 131.54 91.84 127.24 92.62 124.67 
M 83.93 129.37 84.3 128.1 
M 58.97 167.49 55.62 170.47 54.26 171.36 52.77 172.02 51.2 172.44 49.6 172.61 48.01 172.56 46.46 172.28 44.98 171.8 42.27 170.4 38.68 168.05 37.42 167.52 36.09 167.22 34.74 167.26 33.44 167.65 32.28 168.39 31.33 169.41 30.63 170.64 30.18 172 30 174.88 30.06 171.98 30.4 170.56 31.03 169.21 31.95 168.03 33.17 167.11 34.6 166.55 36.14 166.38 37.67 166.58 39.12 167.06 44.24 169.74 46.83 170.51 48.14 170.64 50.72 170.32 51.92 169.89 53.03 169.28 54.03 168.5 56.92 165.44 
M 57.59 166.1 58.62 167.15 
M 50.25 161.3 49.49 162.44 49.22 164.07 49.89 162.86 51.19 162.03 
M 44.07 155.21 41.23 158.63 40.5 161.69 41.64 159.04 44.78 156.55 
M 57.62 166.46 58.91 166.47 
M 51.16 165.02 51.41 164.24 52.17 163.36 51.99 164.24 52.29 165.24 
M 44.85 163.89 45.17 162.02 46.4 160.25 45.75 162.02 46.05 164.1 
M 38.53 163.2 38.93 159.8 40.62 157.15 39.51 159.8 39.82 163.14 
M 44.32 168.41 50.24 170.42 
M 54.15 171.41 58.96 172.37 62.58 172.9 69.96 173.73 
M 123.72 115.98 132.88 125.14 
M 129.21 113.74 135.91 120.44 
M 134.73 111.54 145.5 122.31 
M 140.27 109.35 150.05 119.13 
M 145.91 107.27 157.44 118.8 
M 151.6 105.23 159.5 113.14 
M 157.62 103.53 167.65 113.56 
M 163.76 101.95 172.66 110.85 
M 169.92 100.38 179 109.47 
M 176.06 98.8 183.14 105.88 
M 182.11 97.13 188.43 103.45 
M 188.26 95.55 196.15 103.45 
M 194.66 94.24 203.23 102.8 
M 201.18 93.03 209.22 101.07 
M 207.8 91.93 215.87 100 
M 214.69 91.09 220.53 96.93 
M 221.82 90.5 229.55 98.23 
M 229.63 90.58 239.61 100.57 
M 237.49 90.73 243.37 96.6 
M 245.61 91.12 254.02 99.53 
M 254.18 91.97 260.03 97.82 
M 263.47 93.53 270.41 100.47 
M 272.98 95.32 282.49 104.83 
M 282.79 97.4 291.4 106.02 
M 292.84 99.73 303.59 110.49 
M 303.56 102.73 314.38 113.55 
M 314.92 106.36 325.84 117.29 
M 326.11 109.83 337.02 120.74 
M 337.21 113.21 346.01 122.01 
M 348.32 116.59 357.48 125.76 
M 359.57 120.12 371.08 131.63 
M 371.2 124.03 382.33 135.16 
M 383.07 128.18 393.63 138.74 
M 395.16 132.54 404.37 141.75 
M 407.38 137.04 409.52 139.18 
M 260.87 125.63 260.51 125.1 260.62 124.15 261.09 123.71 261.45 124.24 261.34 125.2 260.87 125.63 
M 261.44 124.09 261.21 124.69 260.37 125.16 259.74 125.02 259.97 124.42 260.81 123.96 261.44 124.09 
M 249.34 122.29 249.2 122.91 248.41 123.48 247.78 123.42 247.92 122.8 248.71 122.24 249.34 122.29 
M 247.96 122.42 248.57 122.62 249.07 123.45 248.95 124.08 248.35 123.88 247.85 123.05 247.96 122.42 
M 252.04 131.63 251.69 131.09 251.83 130.14 252.31 129.72 252.66 130.26 252.52 131.21 252.04 131.63 
M 252.23 129.94 252.38 130.57 251.93 131.42 251.33 131.65 251.19 131.03 251.64 130.18 252.23 129.94 
M 260.12 115.5 259.53 115.25 259.12 114.38 259.29 113.76 259.88 114.02 260.29 114.89 260.12 115.5 
M 259.84 113.91 259.92 114.54 259.39 115.35 258.77 115.52 258.69 114.89 259.22 114.08 259.84 113.91 
M 265.51 118.85 266.15 118.79 266.93 119.35 267.08 119.98 266.44 120.03 265.66 119.47 265.51 118.85 
M 266.81 118.89 266.52 119.46 265.63 119.83 265.02 119.62 265.31 119.05 266.2 118.68 266.81 118.89 
M 260.46 135.78 260.81 136.31 260.68 137.27 260.21 137.69 259.86 137.16 259.98 136.2 260.46 135.78 
M 260.89 136.25 260.56 136.8 259.64 137.09 259.05 136.84 259.38 136.3 260.3 136 260.89 136.25 
M 269.4 134.19 268.77 134.13 268.1 133.43 268.07 132.79 268.7 132.85 269.37 133.55 269.4 134.19 
M 268.91 132.78 268.96 133.41 268.37 134.18 267.75 134.32 267.71 133.68 268.29 132.91 268.91 132.78 
M 254.62 144.37 254.37 143.78 254.66 142.87 255.21 142.54 255.46 143.12 255.16 144.04 254.62 144.37 
M 254.6 142.79 255.04 143.26 255.06 144.22 254.66 144.72 254.23 144.25 254.2 143.28 254.6 142.79 
M 267.27 142.81 266.72 142.48 266.42 141.57 266.67 140.98 267.21 141.31 267.52 142.22 267.27 142.81 
M 266.5 142.46 266.74 141.87 267.59 141.43 268.21 141.57 267.98 142.17 267.12 142.61 266.5 142.46 
M 240.54 111.29 240.97 111.77 240.99 112.73 240.58 113.22 240.16 112.75 240.13 111.78 240.54 111.29 
M 239.95 111.86 240.56 112.03 241.1 112.83 241.02 113.46 240.41 113.29 239.87 112.49 239.95 111.86 
M 248.84 114.61 249.48 114.58 250.24 115.17 250.36 115.8 249.72 115.83 248.96 115.24 248.84 114.61 
M 250.2 115.63 249.59 115.43 249.09 114.61 249.2 113.98 249.8 114.17 250.3 115 250.2 115.63 
M 237.42 126.69 238 126.95 238.41 127.83 238.24 128.44 237.65 128.18 237.24 127.31 237.42 126.69 
M 238.54 127.73 237.91 127.79 237.13 127.22 236.98 126.6 237.62 126.54 238.4 127.11 238.54 127.73 
M 269.9 109.87 269.26 109.93 268.48 109.36 268.33 108.74 268.97 108.68 269.75 109.25 269.9 109.87 
M 269.85 109.26 269.26 109.49 268.35 109.17 268.03 108.61 268.63 108.38 269.54 108.71 269.85 109.26 
M 276.97 119.03 277.47 118.63 278.44 118.67 278.9 119.11 278.4 119.5 277.44 119.46 276.97 119.03 
M 277.48 119.64 277.71 119.05 278.55 118.58 279.18 118.72 278.95 119.32 278.11 119.78 277.48 119.64 
M 256.19 103.53 256.31 104.16 255.83 105 255.22 105.21 255.1 104.58 255.59 103.74 256.19 103.53 
M 255.55 105.09 255.49 104.45 256.05 103.67 256.67 103.52 256.73 104.15 256.17 104.94 255.55 105.09 
M 249.1 104.99 248.49 105.17 247.61 104.76 247.35 104.18 247.97 104 248.84 104.41 249.1 104.99 
M 247.52 104.79 248.05 104.43 249.01 104.55 249.44 105.03 248.91 105.38 247.95 105.26 247.52 104.79 
M 236.14 138.26 236.46 137.71 237.38 137.41 237.97 137.66 237.64 138.21 236.72 138.51 236.14 138.26 
M 237.78 137.82 237.21 138.13 236.27 137.92 235.89 137.41 236.45 137.1 237.39 137.31 237.78 137.82 
M 244.47 128.92 245.02 129.25 245.31 130.17 245.07 130.76 244.52 130.43 244.22 129.51 244.47 128.92 
M 245.2 129.24 245 129.85 244.17 130.35 243.54 130.24 243.74 129.63 244.57 129.13 245.2 129.24 
M 231.12 136.65 230.72 137.14 229.77 137.32 229.22 137 229.62 136.5 230.57 136.32 231.12 136.65 
M 230.85 137.08 230.22 137.05 229.52 136.38 229.46 135.74 230.1 135.78 230.8 136.44 230.85 137.08 
M 226.41 122.75 226.26 122.13 226.71 121.27 227.3 121.03 227.45 121.65 227.01 122.51 226.41 122.75 
M 226.2 121.57 226.83 121.66 227.46 122.39 227.45 123.03 226.82 122.94 226.19 122.2 226.2 121.57 
M 241.77 103.75 241.26 104.14 240.3 104.09 239.84 103.65 240.34 103.26 241.31 103.31 241.77 103.75 
M 240.08 103.56 240.72 103.48 241.51 104.03 241.68 104.65 241.04 104.72 240.24 104.17 240.08 103.56 
M 251.58 93.79 251.51 94.42 250.8 95.08 250.16 95.1 250.23 94.46 250.94 93.81 251.58 93.79 
M 250.71 95.16 250.65 94.53 251.21 93.74 251.83 93.59 251.89 94.22 251.33 95.01 250.71 95.16 
M 290.55 120.66 290.39 121.28 289.6 121.83 288.96 121.76 289.12 121.14 289.92 120.59 290.55 120.66 
M 289.94 120.5 289.98 121.14 289.39 121.9 288.76 122.02 288.73 121.39 289.32 120.62 289.94 120.5 
M 286.26 113.19 286.69 112.72 287.65 112.61 288.18 112.96 287.75 113.44 286.79 113.55 286.26 113.19 
M 286.74 112.52 287.28 112.85 287.58 113.77 287.33 114.36 286.78 114.03 286.49 113.11 286.74 112.52 
M 280.54 110.6 280.47 111.24 279.77 111.9 279.13 111.93 279.2 111.29 279.9 110.63 280.54 110.6 
M 280.49 111.61 279.86 111.5 279.25 110.75 279.27 110.11 279.89 110.22 280.5 110.97 280.49 111.61 
M 235.38 106.49 234.86 106.85 233.9 106.74 233.47 106.27 233.99 105.91 234.95 106.02 235.38 106.49 
M 233.71 106.21 234.35 106.16 235.12 106.75 235.25 107.37 234.62 107.41 233.85 106.83 233.71 106.21 
M 230.73 114.69 230.35 115.2 229.4 115.41 228.84 115.1 229.23 114.59 230.17 114.39 230.73 114.69 
M 229.45 114.24 229.9 114.7 229.97 115.66 229.59 116.17 229.14 115.72 229.07 114.76 229.45 114.24 
M 269.28 100.81 269.54 100.23 270.42 99.83 271.03 100.01 270.77 100.59 269.89 100.99 269.28 100.81 
M 270.14 101.15 269.96 100.53 270.36 99.65 270.93 99.39 271.12 100 270.72 100.88 270.14 101.15 
M 275.7 97.28 276.34 97.34 277.01 98.03 277.05 98.67 276.41 98.61 275.74 97.92 275.7 97.28 
M 276.2 97.26 276.53 97.81 276.38 98.76 275.89 99.17 275.55 98.63 275.71 97.67 276.2 97.26 
M 261.79 98.28 262.33 98.63 262.6 99.55 262.33 100.13 261.79 99.79 261.52 98.86 261.79 98.28 
M 262.02 98.47 262.25 99.07 261.92 99.98 261.36 100.29 261.13 99.69 261.46 98.78 262.02 98.47 
M 221.34 114.86 221.49 115.48 221.05 116.34 220.45 116.58 220.3 115.96 220.75 115.1 221.34 114.86 
M 221.58 115.44 221.09 115.85 220.12 115.84 219.64 115.42 220.13 115 221.1 115.02 221.58 115.44 
M 215.15 135.99 215.7 135.68 216.65 135.88 217.04 136.38 216.48 136.7 215.53 136.5 215.15 135.99 
M 216.78 136.45 216.14 136.41 215.45 135.75 215.39 135.11 216.02 135.14 216.72 135.81 216.78 136.45 
M 221.41 139.86 221.82 139.37 222.77 139.22 223.32 139.55 222.91 140.04 221.95 140.2 221.41 139.86 
M 221.76 139.29 222.37 139.48 222.89 140.29 222.79 140.92 222.18 140.74 221.66 139.93 221.76 139.29 
M 227.99 98.08 228.3 98.63 228.11 99.58 227.61 99.97 227.29 99.41 227.48 98.47 227.99 98.08 
M 228.17 99.66 227.7 99.23 227.57 98.27 227.93 97.74 228.4 98.17 228.52 99.13 228.17 99.66 
M 233.76 94.32 233.12 94.38 232.34 93.82 232.19 93.19 232.82 93.14 233.61 93.7 233.76 94.32 
M 232.58 94.38 232.74 93.76 233.54 93.21 234.17 93.28 234.01 93.9 233.22 94.45 232.58 94.38 
M 226.68 108.25 227.17 107.84 228.14 107.84 228.62 108.26 228.13 108.68 227.16 108.67 226.68 108.25 
M 228.34 108.01 227.83 108.4 226.87 108.33 226.42 107.89 226.93 107.5 227.89 107.56 228.34 108.01 
M 241.71 96.55 241.2 96.16 240.99 95.22 241.3 94.66 241.81 95.04 242.02 95.98 241.71 96.55 
M 241.7 96.31 241.35 95.78 241.48 94.82 241.95 94.4 242.31 94.93 242.18 95.89 241.7 96.31 
M 259.78 91.06 259.72 90.42 260.29 89.64 260.91 89.49 260.96 90.13 260.4 90.91 259.78 91.06 
M 259.61 90.23 260.23 90.07 261.09 90.51 261.34 91.09 260.72 91.25 259.85 90.82 259.61 90.23 
M 249.68 85.84 249.93 86.43 249.62 87.35 249.07 87.67 248.83 87.08 249.13 86.17 249.68 85.84 
M 249.4 87.49 249.19 86.89 249.54 85.99 250.11 85.7 250.32 86.3 249.96 87.2 249.4 87.49 
M 256.91 83.14 257.48 83.44 257.81 84.34 257.59 84.94 257.03 84.64 256.69 83.73 256.91 83.14 
M 257.8 84.53 257.22 84.27 256.81 83.39 256.99 82.78 257.57 83.04 257.98 83.92 257.8 84.53 
M 243.56 85.36 243.08 85.79 242.12 85.81 241.63 85.4 242.1 84.97 243.06 84.95 243.56 85.36 
M 243.03 85.97 242.51 85.6 242.29 84.66 242.59 84.09 243.11 84.47 243.32 85.41 243.03 85.97 
M 292.59 109.72 292.93 109.18 293.85 108.89 294.43 109.14 294.1 109.68 293.18 109.98 292.59 109.72 
M 294.01 109.97 293.46 109.66 293.13 108.75 293.36 108.15 293.92 108.46 294.24 109.37 294.01 109.97 
M 294.12 115.98 294.71 115.74 295.63 116.05 295.95 116.6 295.36 116.84 294.45 116.53 294.12 115.98 
M 295.37 115.63 295.27 116.26 294.53 116.88 293.89 116.87 293.99 116.24 294.73 115.62 295.37 115.63 
M 247.8 162.54 248.22 163.02 248.23 163.99 247.81 164.47 247.39 163.99 247.39 163.03 247.8 162.54 
M 247.17 163.88 247.6 163.4 248.56 163.28 249.09 163.64 248.66 164.11 247.7 164.23 247.17 163.88 
M 268.49 79.14 268.76 78.56 269.64 78.17 270.25 78.35 269.99 78.93 269.11 79.33 268.49 79.14 
M 268.66 78.94 269.2 78.59 270.16 78.73 270.57 79.21 270.04 79.56 269.08 79.42 268.66 78.94 
M 250.91 77.03 250.79 77.65 250.03 78.25 249.39 78.22 249.51 77.59 250.27 77 250.91 77.03 
M 249.81 78.28 249.92 77.65 250.66 77.03 251.3 77.04 251.19 77.67 250.45 78.29 249.81 78.28 
M 262.46 77.02 261.84 76.88 261.26 76.1 261.31 75.47 261.93 75.61 262.51 76.38 262.46 77.02 
M 261.15 76.16 261.78 76.04 262.62 76.52 262.83 77.12 262.2 77.24 261.37 76.76 261.15 76.16 
M 268.74 91.14 268.4 91.68 267.47 91.96 266.89 91.7 267.23 91.16 268.16 90.88 268.74 91.14 
M 268.01 90.71 268.04 91.35 267.43 92.1 266.8 92.21 266.78 91.58 267.39 90.82 268.01 90.71 
M 265.12 83.87 264.97 84.49 264.18 85.05 263.54 84.99 263.69 84.37 264.48 83.81 265.12 83.87 
M 264.99 84.75 264.36 84.66 263.72 83.94 263.72 83.3 264.35 83.39 264.99 84.11 264.99 84.75 
M 207.85 141.38 208.07 140.78 208.92 140.32 209.54 140.45 209.32 141.05 208.47 141.52 207.85 141.38 
M 208 140.68 208.64 140.69 209.36 141.33 209.44 141.97 208.8 141.96 208.08 141.32 208 140.68 
M 203.38 139.9 202.95 139.42 202.94 138.46 203.34 137.97 203.77 138.44 203.79 139.41 203.38 139.9 
M 204.02 138.6 203.56 139.05 202.6 139.11 202.09 138.72 202.55 138.28 203.51 138.22 204.02 138.6 
M 215.53 127.08 214.91 126.97 214.3 126.21 214.33 125.57 214.96 125.69 215.56 126.44 215.53 127.08 
M 215.3 126.97 214.82 126.53 214.71 125.58 215.08 125.05 215.55 125.48 215.66 126.44 215.3 126.97 
M 273.15 85.85 272.51 85.9 271.73 85.33 271.59 84.71 272.23 84.66 273 85.23 273.15 85.85 
M 271.64 85.4 272.21 85.11 273.15 85.34 273.52 85.86 272.95 86.15 272.01 85.92 271.64 85.4 
M 218.43 102.75 218.55 102.12 219.32 101.53 219.95 101.56 219.83 102.19 219.07 102.78 218.43 102.75 
M 219.45 101.47 219.42 102.1 218.75 102.8 218.12 102.86 218.15 102.22 218.81 101.53 219.45 101.47 
M 214.44 109.26 213.88 108.95 213.54 108.05 213.77 107.45 214.32 107.76 214.66 108.66 214.44 109.26 
M 213.53 107.89 214.12 108.12 214.58 108.98 214.43 109.6 213.84 109.37 213.38 108.51 213.53 107.89 
M 217.89 91.32 218.38 91.73 218.54 92.68 218.21 93.23 217.72 92.82 217.56 91.87 217.89 91.32 
M 217.34 92.46 217.88 92.12 218.83 92.27 219.24 92.76 218.7 93.09 217.75 92.94 217.34 92.46 
M 212.26 93.94 212.22 93.3 212.8 92.53 213.42 92.39 213.47 93.03 212.89 93.8 212.26 93.94 
M 212.31 93.67 212.62 93.11 213.52 92.78 214.12 93 213.81 93.56 212.91 93.9 212.31 93.67 
M 223.19 108.81 222.8 109.32 221.85 109.51 221.29 109.2 221.68 108.69 222.63 108.5 223.19 108.81 
M 221.65 109.44 222.02 108.92 222.96 108.7 223.53 108.99 223.16 109.51 222.22 109.74 221.65 109.44 
M 228.13 91.83 227.62 92.22 226.66 92.17 226.2 91.72 226.7 91.33 227.67 91.38 228.13 91.83 
M 226.64 91.26 227.21 91.55 227.58 92.44 227.38 93.04 226.81 92.76 226.44 91.87 226.64 91.26 
M 209.74 101.07 209.82 100.44 210.54 99.8 211.18 99.8 211.1 100.43 210.37 101.07 209.74 101.07 
M 210.13 99.78 210.58 100.23 210.63 101.2 210.25 101.71 209.8 101.25 209.74 100.29 210.13 99.78 
M 203.87 131.72 203.42 132.17 202.46 132.25 201.94 131.87 202.39 131.42 203.35 131.34 203.87 131.72 
M 202.7 131.09 203.06 131.62 202.94 132.58 202.47 133.01 202.11 132.48 202.22 131.52 202.7 131.09 
M 208.33 122.43 207.99 121.89 208.14 120.93 208.63 120.52 208.96 121.06 208.82 122.01 208.33 122.43 
M 209.11 121.85 208.49 121.7 207.92 120.92 207.97 120.29 208.6 120.43 209.16 121.21 209.11 121.85 
M 210.78 115.72 210.65 115.09 211.12 114.25 211.72 114.03 211.85 114.66 211.38 115.5 210.78 115.72 
M 210.69 115.35 211.03 114.81 211.94 114.52 212.53 114.77 212.2 115.31 211.28 115.61 210.69 115.35 
M 203.84 112.36 203.21 112.46 202.39 111.95 202.2 111.34 202.83 111.24 203.65 111.75 203.84 112.36 
M 203.45 112.44 202.94 112.07 202.72 111.13 203.02 110.56 203.53 110.94 203.75 111.88 203.45 112.44 
M 257.37 74.67 256.75 74.79 255.91 74.3 255.71 73.7 256.33 73.58 257.17 74.06 257.37 74.67 
M 255.88 74.51 256.34 74.06 257.3 74.01 257.81 74.4 257.35 74.85 256.39 74.9 255.88 74.51 
M 240.01 77.86 239.4 78.05 238.52 77.65 238.25 77.07 238.86 76.89 239.74 77.28 240.01 77.86 
M 238.7 78.06 238.9 77.46 239.73 76.96 240.36 77.07 240.16 77.68 239.33 78.17 238.7 78.06 
M 231.35 80.22 231.68 79.67 232.59 79.36 233.18 79.6 232.86 80.15 231.94 80.46 231.35 80.22 
M 232.98 79.72 232.44 80.06 231.48 79.92 231.07 79.43 231.61 79.09 232.57 79.24 232.98 79.72 
M 189.28 113.08 189.01 113.66 188.13 114.05 187.52 113.87 187.79 113.29 188.67 112.9 189.28 113.08 
M 187.95 114.06 188.17 113.46 189.01 112.99 189.64 113.11 189.42 113.71 188.58 114.19 187.95 114.06 
M 195.22 110.3 195.54 110.85 195.36 111.8 194.86 112.19 194.54 111.64 194.71 110.69 195.22 110.3 
M 194.76 111.93 194.81 111.29 195.49 110.61 196.13 110.56 196.08 111.2 195.4 111.88 194.76 111.93 
M 301.07 115.95 300.44 116.01 299.65 115.45 299.51 114.83 300.14 114.77 300.93 115.33 301.07 115.95 
M 300.2 116.12 300.08 115.49 300.56 114.66 301.17 114.45 301.29 115.07 300.81 115.91 300.2 116.12 
M 199.08 144.19 198.68 144.26 
M 198.26 144.19 197.62 143.79 197.43 143.18 198.06 143.08 198.88 143.59 199.08 144.19 
M 198.69 143.1 198.48 143.7 197.76 144.12 
M 197.22 144.11 197.02 144.07 197.23 143.47 198.06 142.98 198.69 143.1 
M 200.53 104.95 200.32 105.56 199.49 106.05 198.86 105.93 199.07 105.32 199.9 104.84 200.53 104.95 
M 199.13 105.91 199.47 105.37 200.4 105.1 200.98 105.36 200.64 105.9 199.71 106.17 199.13 105.91 
M 190.42 105.9 190.32 106.53 189.58 107.15 188.94 107.14 189.04 106.51 189.78 105.89 190.42 105.9 
M 189.17 105.99 189.73 106.29 190.08 107.19 189.86 107.79 189.3 107.49 188.95 106.59 189.17 105.99 
M 189.43 101.53 189.21 100.93 189.55 100.03 190.12 99.72 190.34 100.32 190 101.22 189.43 101.53 
M 189.35 100.03 189.86 100.41 190.07 101.35 189.76 101.91 189.25 101.53 189.04 100.59 189.35 100.03 
M 195.67 99.59 195.92 99 196.79 98.58 197.41 98.74 197.16 99.33 196.29 99.75 195.67 99.59 
M 195.82 99.33 196.37 99 197.32 99.17 197.72 99.67 197.17 100 196.22 99.83 195.82 99.33 
M 193.66 139.47 193.2 139.04 193.09 138.08 193.45 137.55 193.92 137.99 194.03 138.95 193.66 139.47 
M 194.19 138.89 193.57 138.74 193 137.96 193.06 137.32 193.68 137.47 194.25 138.26 194.19 138.89 
M 276.57 131.9 277.21 131.9 277.94 132.53 278.03 133.17 277.39 133.16 276.66 132.53 276.57 131.9 
M 276.89 131.92 277.39 132.32 277.57 133.27 277.25 133.82 276.75 133.42 276.57 132.48 276.89 131.92 
M 181.18 136.68 180.67 136.29 180.46 135.35 180.77 134.79 181.28 135.18 181.48 136.12 181.18 136.68 
M 180.45 136.25 180.75 135.68 181.65 135.34 182.25 135.56 181.95 136.12 181.05 136.47 180.45 136.25 
M 180.78 144.77 180.58 144.17 180.95 143.28 181.52 142.99 181.73 143.6 181.36 144.49 180.78 144.77 
M 181.47 143.22 181.38 143.85 180.66 144.49 180.02 144.5 180.11 143.86 180.83 143.22 181.47 143.22 
M 302 106.56 302.44 107.02 302.49 107.99 302.1 108.49 301.66 108.03 301.61 107.06 302 106.56 
M 302.47 108.13 301.96 107.74 301.77 106.79 302.08 106.24 302.59 106.63 302.78 107.57 302.47 108.13 
M 214.43 144.61 214.65 144.01 215.49 143.53 216.12 143.66 215.9 144.26 215.06 144.73 214.43 144.61 
M 214.57 143.93 215.21 143.91 215.95 144.53 216.02 144.94 
M 215.11 144.92 214.67 144.56 214.57 143.93 
M 269.05 69.64 269.35 70.2 269.14 71.14 268.63 71.52 268.33 70.96 268.53 70.02 269.05 69.64 
M 268.11 70.53 268.73 70.38 269.58 70.82 269.82 71.42 269.2 71.57 268.34 71.12 268.11 70.53 
M 224.47 85.56 224.18 84.99 224.43 84.06 224.95 83.69 225.24 84.27 224.99 85.2 224.47 85.56 
M 224.42 85.3 224.48 84.67 225.18 84 225.82 83.98 225.76 84.61 225.06 85.28 224.42 85.3 
M 305.83 119.56 306.42 119.79 306.87 120.65 306.72 121.27 306.12 121.04 305.68 120.18 305.83 119.56 
M 306.09 121.13 306.05 120.49 306.64 119.73 307.27 119.6 307.31 120.24 306.71 121 306.09 121.13 
M 303.81 98.84 304.45 98.89 305.12 99.58 305.16 100.22 304.52 100.17 303.85 99.48 303.81 98.84 
M 304.85 100.16 304.38 99.74 304.26 98.78 304.62 98.25 305.09 98.68 305.21 99.63 304.85 100.16 
M 311.32 103.18 311.87 102.84 312.82 102.99 313.23 103.48 312.69 103.82 311.73 103.66 311.32 103.18 
M 311.59 103.59 312.09 103.19 313.05 103.23 313.52 103.67 313.02 104.07 312.05 104.03 311.59 103.59 
M 314.23 115.31 313.6 115.22 312.96 114.49 312.96 113.85 313.59 113.94 314.23 114.67 314.23 115.31 
M 313.45 115.3 313.38 114.66 313.93 113.87 314.55 113.71 314.62 114.34 314.07 115.14 313.45 115.3 
M 297.26 97.07 297.53 96.49 298.41 96.1 299.02 96.28 298.75 96.86 297.87 97.25 297.26 97.07 
M 297.94 97.38 297.92 96.74 298.53 96 299.16 95.89 299.18 96.53 298.56 97.27 297.94 97.38 
M 267.43 189.04 267.25 189.65 266.45 190.18 265.82 190.1 265.99 189.48 266.79 188.95 267.43 189.04 
M 265.92 189.34 266.56 189.34 267.29 189.98 267.37 190.61 266.73 190.61 266.01 189.97 265.92 189.34 
M 271.38 160.85 271.94 160.55 272.88 160.76 273.26 161.27 272.7 161.58 271.75 161.36 271.38 160.85 
M 271.79 160.55 272.36 160.83 272.74 161.72 272.54 162.33 271.97 162.05 271.59 161.16 271.79 160.55 
M 271.21 150.38 271.55 150.82 271 151.13 270.21 150.98 
M 270.73 150.66 270.74 151.4 270.32 151.89 269.9 151.41 269.9 151.17 
M 287.72 100.97 288.05 100.42 288.97 100.12 289.56 100.37 289.23 100.92 288.31 101.22 287.72 100.97 
M 288.7 101.4 288.46 100.81 288.77 99.9 289.32 99.58 289.56 100.17 289.25 101.08 288.7 101.4 
M 208.87 105.51 208.83 106.14 208.14 106.82 207.51 106.87 207.55 106.23 208.24 105.55 208.87 105.51 
M 207.5 106.43 208.01 106.05 208.97 106.11 209.42 106.55 208.92 106.94 207.95 106.88 207.5 106.43 
M 181.17 121.74 181.72 121.41 182.67 121.57 183.07 122.07 182.52 122.4 181.57 122.23 181.17 121.74 
M 181.63 121.36 182.18 121.68 182.49 122.59 182.25 123.18 181.7 122.86 181.39 121.95 181.63 121.36 
M 208.03 86.25 208.48 86.7 208.56 87.66 208.18 88.18 207.73 87.73 207.65 86.76 208.03 86.25 
M 208.5 87.83 208.01 87.42 207.85 86.47 208.18 85.93 208.68 86.33 208.84 87.29 208.5 87.83 
M 216.01 83.38 215.4 83.18 214.91 82.34 215.03 81.71 215.64 81.92 216.12 82.75 216.01 83.38 
M 216.21 82.79 215.57 82.77 214.86 82.12 214.79 81.48 215.43 81.5 216.14 82.16 216.21 82.79 
M 200.55 85.38 200.63 86.02 200.09 86.82 199.48 86.99 199.4 86.36 199.93 85.55 200.55 85.38 
M 200.56 85.7 200.24 86.25 199.32 86.55 198.73 86.31 199.06 85.76 199.97 85.45 200.56 85.7 
M 203.62 98.29 203.08 97.94 202.82 97.01 203.09 96.44 203.62 96.79 203.89 97.71 203.62 98.29 
M 202.88 96.81 203.42 97.14 203.71 98.06 203.45 98.65 202.91 98.31 202.62 97.39 202.88 96.81 
M 309.79 86.5 309.77 87.14 309.11 87.85 308.48 87.92 308.5 87.28 309.15 86.57 309.79 86.5 
M 308.87 87.89 308.9 87.26 309.58 86.56 310.21 86.51 310.18 87.15 309.51 87.84 308.87 87.89 
M 316.75 96.05 317.35 95.84 318.25 96.2 318.54 96.76 317.94 96.97 317.04 96.61 316.75 96.05 
M 318.3 96.07 317.85 96.52 316.88 96.58 316.38 96.19 316.83 95.75 317.8 95.69 318.3 96.07 
M 188.94 90.74 189.1 91.36 188.67 92.22 188.08 92.47 187.92 91.85 188.35 90.98 188.94 90.74 
M 187.79 91.47 188.42 91.39 189.23 91.92 189.4 92.53 188.77 92.62 187.96 92.09 187.79 91.47 
M 188.05 85.29 188.12 85.67 187.62 86.5 187.02 86.7 186.91 86.07 187.26 85.47 
M 187.96 85.29 187.74 85.89 186.9 86.36 186.28 86.23 186.48 85.67 
M 178.96 106.78 178.56 107.28 177.62 107.46 177.06 107.14 177.46 106.64 178.41 106.46 178.96 106.78 
M 177.35 106.63 177.98 106.73 178.61 107.46 178.61 108.1 177.97 108.01 177.35 107.27 177.35 106.63 
M 183.24 100.61 183.42 100 184.22 99.47 184.86 99.55 184.68 100.17 183.87 100.7 183.24 100.61 
M 183.93 100.81 183.84 100.18 184.36 99.36 184.97 99.18 185.06 99.82 184.54 100.63 183.93 100.81 
M 223.15 74.08 223.52 73.56 224.45 73.32 225.02 73.6 224.66 74.13 223.72 74.37 223.15 74.08 
M 223.68 73.23 224.18 73.63 224.35 74.58 224.02 75.13 223.53 74.73 223.36 73.78 223.68 73.23 
M 237.01 86.69 237.43 87.17 237.43 88.14 237.01 88.62 236.59 88.13 236.6 87.17 237.01 86.69 
M 237.41 88.27 236.92 87.86 236.76 86.91 237.1 86.37 237.59 86.78 237.74 87.73 237.41 88.27 
M 282.38 176.33 281.89 175.93 281.71 174.98 282.04 174.43 282.53 174.83 282.71 175.78 282.38 176.33 
M 282.65 175.97 282.13 175.6 281.91 174.66 282.21 174.09 282.73 174.47 282.94 175.41 282.65 175.97 
M 282.78 197.22 283.41 197.11 284.24 197.6 284.44 198.21 283.81 198.32 282.98 197.83 282.78 197.22 
M 283.78 198.43 283.45 197.88 283.62 196.93 284.11 196.53 284.44 197.08 284.28 198.03 283.78 198.43 
M 292.66 178.97 292.51 179.59 291.73 180.15 291.09 180.1 291.24 179.48 292.03 178.91 292.66 178.97 
M 291.59 178.86 292.01 179.34 292 180.31 291.58 180.79 291.17 180.3 291.17 179.34 291.59 178.86 
M 304.66 80.6 305.24 80.87 305.63 81.75 305.44 82.36 304.87 82.09 304.48 81.21 304.66 80.6 
M 305.01 80.75 305.24 81.34 304.91 82.25 304.36 82.56 304.13 81.97 304.45 81.06 305.01 80.75 
M 301.99 89.81 301.44 90.13 300.49 89.95 300.09 89.45 300.65 89.13 301.59 89.31 301.99 89.81 
M 300.37 89.93 300.85 89.51 301.81 89.5 302.3 89.91 301.82 90.34 300.85 90.34 300.37 89.93 
M 297.32 83.8 297.19 84.42 296.42 85.01 295.79 84.96 295.92 84.34 296.69 83.76 297.32 83.8 
M 295.95 84.79 296.34 84.29 297.29 84.11 297.84 84.43 297.45 84.93 296.5 85.11 295.95 84.79 
M 281.8 103.17 282.4 103.37 282.9 104.2 282.79 104.83 282.18 104.63 281.68 103.8 281.8 103.17 
M 281.99 104.67 282.06 104.04 282.77 103.39 283.41 103.37 283.34 104 282.63 104.65 281.99 104.67 
M 240.44 166.84 240.55 167.47 240.04 168.29 239.43 168.49 239.33 167.86 239.83 167.03 240.44 166.84 
M 239.84 168.39 239.73 167.76 240.23 166.93 240.83 166.74 240.94 167.36 240.45 168.19 239.84 168.39 
M 278.69 78.31 278.19 77.92 277.99 76.97 278.31 76.41 278.81 76.8 279 77.75 278.69 78.31 
M 278.23 78.04 278.27 77.41 278.95 76.72 279.59 76.68 279.55 77.31 278.86 78 278.23 78.04 
M 281.51 93.54 281.57 92.91 282.27 92.25 282.91 92.22 282.85 92.85 282.14 93.52 281.51 93.54 
M 282.07 92.16 282.38 92.72 282.17 93.66 281.65 94.04 281.35 93.48 281.56 92.54 282.07 92.16 
M 286.65 84.39 286.07 84.67 285.14 84.43 284.78 83.9 285.35 83.62 286.29 83.86 286.65 84.39 
M 285.17 83.65 285.75 83.92 286.15 84.8 285.96 85.41 285.38 85.14 284.99 84.26 285.17 83.65 
M 276.08 104.62 276.16 105.25 275.62 106.06 275.01 106.23 274.93 105.59 275.47 104.79 276.08 104.62 
M 276.23 105.68 275.6 105.65 274.9 104.98 274.84 104.35 275.47 104.38 276.17 105.04 276.23 105.68 
M 300.45 134.05 301.02 133.75 301.96 133.96 302.34 134.48 301.77 134.78 300.83 134.56 300.45 134.05 
M 301.86 134.83 301.33 134.48 301.06 133.56 301.33 132.98 301.86 133.32 302.13 134.25 301.86 134.83 
M 195.13 92.7 195.15 92.06 195.81 91.36 196.45 91.29 196.42 91.93 195.76 92.63 195.13 92.7 
M 196.13 91.34 196.02 91.97 195.27 92.58 194.63 92.57 194.74 91.94 195.49 91.33 196.13 91.34 
M 299.16 76.02 299.78 76.14 300.38 76.9 300.35 77.54 299.73 77.42 299.13 76.66 299.16 76.02 
M 299.43 77.44 299.52 76.8 300.26 76.18 300.9 76.19 300.8 76.82 300.07 77.44 299.43 77.44 
M 292.83 91.33 293.15 90.77 294.06 90.45 294.65 90.68 294.34 91.24 293.43 91.56 292.83 91.33 
M 294.06 91.67 293.62 91.2 293.58 90.24 293.98 89.74 294.42 90.2 294.46 91.17 294.06 91.67 
M 270.36 195.67 270.9 196.01 271.18 196.93 270.93 197.52 270.38 197.18 270.1 196.25 270.36 195.67 
M 270.18 196.02 270.71 196.37 270.97 197.3 270.69 197.88 270.16 197.52 269.91 196.59 270.18 196.02 
M 291.82 159.71 291.97 160.33 291.53 161.19 290.93 161.42 290.78 160.8 291.23 159.95 291.82 159.71 
M 290.65 160.46 291.28 160.36 292.1 160.86 292.3 161.47 291.67 161.57 290.84 161.07 290.65 160.46 
M 291.09 76.4 291.64 76.07 292.59 76.24 292.99 76.73 292.44 77.06 291.49 76.89 291.09 76.4 
M 291.5 77.06 291.82 76.51 292.73 76.18 293.32 76.42 293.01 76.97 292.1 77.3 291.5 77.06 
M 305.81 160.75 305.41 161.24 304.45 161.4 303.91 161.07 304.31 160.58 305.27 160.42 305.81 160.75 
M 305.11 160.22 305.09 160.86 304.42 161.56 303.79 161.63 303.82 160.99 304.48 160.29 305.11 160.22 
M 296.2 151.32 295.57 151.24 294.93 150.52 294.92 149.88 295.55 149.96 296.19 150.68 296.2 151.32 
M 295.95 151.22 295.46 150.81 295.31 149.86 295.65 149.31 296.13 149.72 296.29 150.68 295.95 151.22 
M 299.51 157.28 298.88 157.28 298.15 156.64 298.06 156.01 298.7 156.01 299.42 156.65 299.51 157.28 
M 299.07 157.32 298.66 156.84 298.66 155.87 299.08 155.39 299.5 155.88 299.49 156.84 299.07 157.32 
M 302.24 146.46 302.58 145.91 303.5 145.62 304.09 145.88 303.75 146.42 302.83 146.71 302.24 146.46 
M 303.89 146.08 303.31 146.34 302.39 146.08 302.04 145.54 302.62 145.27 303.55 145.54 303.89 146.08 
M 163.67 145.29 164.25 145.55 164.58 146.27 
M 163.71 146.37 163.49 145.9 163.67 145.29 
M 164.76 145.91 164.26 146.3 163.3 146.26 162.83 145.82 163.34 145.42 164.3 145.47 164.76 145.91 
M 319.61 135.32 320.22 135.11 321.11 135.46 321.41 136.03 320.81 136.24 319.91 135.89 319.61 135.32 
M 320.21 135.01 320.64 135.48 320.65 136.45 320.24 136.94 319.82 136.46 319.8 135.5 320.21 135.01 
M 309.84 142.41 310.47 142.32 311.28 142.86 311.45 143.47 310.82 143.55 310.01 143.02 309.84 142.41 
M 310.25 142.32 310.74 142.73 310.9 143.68 310.57 144.22 310.08 143.82 309.92 142.87 310.25 142.32 
M 319.2 142.59 318.66 142.93 317.71 142.8 317.29 142.32 317.82 141.97 318.78 142.11 319.2 142.59 
M 317.86 143.08 318.01 142.46 318.81 141.91 319.44 141.98 319.28 142.59 318.49 143.15 317.86 143.08 
M 213.44 184.79 212.82 184.62 212.29 183.82 212.37 183.19 212.98 183.36 213.52 184.16 213.44 184.79 
M 213.53 183.6 213.11 184.09 212.16 184.23 211.62 183.89 212.04 183.4 212.99 183.26 213.53 183.6 
M 248.39 194.01 248.73 193.47 249.66 193.2 250.24 193.46 249.9 194 248.97 194.27 248.39 194.01 
M 249.36 194.47 249.13 193.88 249.45 192.97 250.01 192.65 250.24 193.25 249.92 194.16 249.36 194.47 
M 240.56 208.1 239.95 207.94 239.4 207.14 239.47 206.5 240.09 206.67 240.64 207.46 240.56 208.1 
M 240.01 208.04 239.82 207.43 240.21 206.54 240.79 206.27 240.98 206.88 240.59 207.76 240.01 208.04 
M 252.27 200.27 252.9 200.39 253.5 201.16 253.46 201.79 252.84 201.67 252.24 200.91 252.27 200.27 
M 252.48 200.41 252.96 200.82 253.12 201.77 252.78 202.32 252.29 201.91 252.14 200.96 252.48 200.41 
M 158 139.57 158.51 139.19 159.47 139.26 159.92 139.72 159.41 140.1 158.45 140.03 158 139.57 
M 158.82 138.92 159.13 139.48 158.92 140.43 158.41 140.81 158.1 140.24 158.31 139.3 158.82 138.92 
M 231.76 209.92 232.25 209.51 233.21 209.51 233.69 209.93 233.21 210.35 232.24 210.34 231.76 209.92 
M 233.27 209.42 232.95 209.98 232.05 210.31 231.45 210.08 231.76 209.52 232.67 209.19 233.27 209.42 
M 227.72 178.6 227.1 178.74 226.25 178.28 226.02 177.68 226.64 177.54 227.5 178 227.72 178.6 
M 226.16 178.32 226.7 177.98 227.66 178.13 228.07 178.62 227.53 178.96 226.57 178.81 226.16 178.32 
M 177.6 92.92 178.22 93.43 178.32 94.06 177.69 94.08 177.24 93.7 
M 177.38 94.15 177.36 93.51 177.97 92.76 178.6 92.65 178.62 93.29 178.01 94.04 177.38 94.15 
M 320.93 117.17 321.4 117.6 321.51 118.56 321.15 119.08 320.68 118.65 320.57 117.69 320.93 117.17 
M 320.37 118.42 320.85 118 321.81 118 322.3 118.41 321.81 118.83 320.85 118.83 320.37 118.42 
M 324.8 109.65 325.44 109.71 326.11 110.41 326.14 111.05 325.5 110.99 324.83 110.29 324.8 109.65 
M 325.98 110.88 325.42 110.58 325.07 109.68 325.29 109.08 325.85 109.38 326.2 110.28 325.98 110.88 
M 282.36 68.93 281.76 69.14 280.86 68.8 280.56 68.24 281.16 68.02 282.06 68.36 282.36 68.93 
M 282.08 68.19 281.67 68.68 280.72 68.83 280.17 68.5 280.58 68.01 281.53 67.85 282.08 68.19 
M 222.35 192.97 221.77 192.73 221.33 191.86 221.49 191.25 222.08 191.49 222.51 192.36 222.35 192.97 
M 221.85 192.84 221.72 192.22 222.19 191.37 222.79 191.16 222.92 191.78 222.45 192.62 221.85 192.84 
M 211.16 191.64 211.61 191.18 212.57 191.1 213.09 191.47 212.64 191.93 211.68 192.01 211.16 191.64 
M 211.88 192.25 211.9 191.61 212.55 190.9 213.19 190.83 213.17 191.47 212.51 192.18 211.88 192.25 
M 323.13 128 323.33 127.4 324.17 126.91 324.79 127.02 324.59 127.63 323.76 128.12 323.13 128 
M 323.26 127.29 323.9 127.29 324.63 127.92 324.72 128.55 324.08 128.55 323.35 127.92 323.26 127.29 
M 156.16 131.01 156.28 131.64 155.79 132.47 155.19 132.68 155.07 132.05 155.56 131.22 156.16 131.01 
M 156.38 131.64 155.85 132 154.9 131.88 154.47 131.41 154.99 131.05 155.95 131.17 156.38 131.64 
M 140.04 129.24 139.5 128.9 139.22 127.98 139.48 127.39 140.02 127.73 140.3 128.66 140.04 129.24 
M 139.64 129.04 139.55 128.41 140.07 127.6 140.68 127.41 140.77 128.04 140.26 128.86 139.64 129.04 
M 150.36 129.74 149.74 129.9 148.88 129.48 148.62 128.9 149.24 128.73 150.11 129.15 150.36 129.74 
M 149.89 129.94 149.4 129.53 149.24 128.57 149.58 128.03 150.07 128.44 150.22 129.39 149.89 129.94 
M 314.61 186.48 314.05 186.17 313.73 185.26 313.96 184.66 314.51 184.98 314.84 185.88 314.61 186.48 
M 313.57 185.75 314.11 185.42 315.07 185.57 315.48 186.05 314.94 186.39 313.98 186.24 313.57 185.75 
M 334.06 122.54 333.44 122.39 332.87 121.61 332.93 120.97 333.55 121.12 334.12 121.9 334.06 122.54 
M 334.23 121.77 333.62 121.95 332.74 121.55 332.48 120.97 333.09 120.79 333.97 121.19 334.23 121.77 
M 317.59 109.61 317.45 108.99 317.91 108.14 318.51 107.91 318.64 108.53 318.19 109.38 317.59 109.61 
M 318.77 108.6 318.21 108.92 317.26 108.74 316.87 108.24 317.42 107.92 318.37 108.1 318.77 108.6 
M 332.47 105.16 332.67 105.76 332.29 106.65 331.72 106.94 331.52 106.33 331.9 105.44 332.47 105.16 
M 331.67 106.64 331.86 106.04 332.69 105.54 333.32 105.65 333.12 106.25 332.3 106.75 331.67 106.64 
M 334.17 113.32 334.79 113.15 335.66 113.58 335.91 114.17 335.29 114.33 334.42 113.9 334.17 113.32 
M 335.24 114.45 334.89 113.92 335.01 112.96 335.36 112.64 
M 335.61 112.72 335.84 113.06 335.72 114.02 335.24 114.45 
M 328.36 99.91 327.76 99.68 327.43 99.04 
M 328.39 99.75 328.36 99.91 
M 328.04 99.78 327.78 99.29 
M 328.25 99.62 328.04 99.78 
M 323.83 103.59 323.52 104.15 322.62 104.5 322.02 104.28 322.33 103.71 323.23 103.37 323.83 103.59 
M 323.62 103.69 323.11 104.08 322.15 104.01 321.69 103.56 322.2 103.18 323.17 103.24 323.62 103.69 
M 173.71 117.05 173.6 116.42 174.09 115.59 174.7 115.39 174.81 116.02 174.32 116.85 173.71 117.05 
M 173.54 115.9 174.18 115.99 174.8 116.73 174.8 117.37 174.17 117.27 173.54 116.54 173.54 115.9 
M 170.26 107.08 170.84 107.35 171.23 108.23 171.05 108.84 170.47 108.57 170.07 107.69 170.26 107.08 
M 170.56 108.69 170.44 108.06 170.94 107.23 171.54 107.03 171.65 107.66 171.16 108.49 170.56 108.69 
M 165.48 108.39 164.93 108.71 163.98 108.53 163.58 108.03 164.13 107.71 165.08 107.89 165.48 108.39 
M 164.7 108.93 164.37 108.38 164.54 107.43 165.03 107.03 165.36 107.58 165.19 108.53 164.7 108.93 
M 231.28 190.58 231.89 190.41 232.76 190.82 233.02 191.41 232.4 191.58 231.53 191.16 231.28 190.58 
M 231.66 190.44 232.21 190.77 232.51 191.69 232.26 192.27 231.72 191.95 231.41 191.03 231.66 190.44 
M 318 150.97 318.28 150.39 319.16 150.01 319.77 150.2 319.5 150.77 318.61 151.16 318 150.97 
M 318.86 149.85 319.08 150.45 318.72 151.35 318.16 151.64 317.94 151.04 318.3 150.14 318.86 149.85 
M 166 118.3 165.71 118.86 164.81 119.22 164.21 119 164.5 118.44 165.4 118.09 166 118.3 
M 165.28 119.37 164.95 118.82 165.11 117.87 165.6 117.46 165.93 118.01 165.77 118.96 165.28 119.37 
M 204.64 174.63 204.65 173.95 
M 205.8 173.82 205.27 174.51 204.64 174.63 
M 205.54 173.85 206 174.02 206.31 174.58 205.71 174.8 204.81 174.47 204.53 173.96 
M 243.1 190.41 243.3 191.02 242.93 191.91 242.35 192.2 242.15 191.59 242.53 190.7 243.1 190.41 
M 242.57 192.02 242.51 191.39 243.07 190.6 243.69 190.45 243.75 191.09 243.19 191.87 242.57 192.02 
M 316.52 89.51 316.38 89.93 315.56 90.43 314.93 90.32 315.13 89.71 315.96 89.21 316.31 89.28 
M 315.07 90.09 315.57 89.69 316.53 89.71 317 90.14 316.51 90.54 315.55 90.52 315.07 90.09 
M 142.09 177.4 141.79 177.97 140.89 178.32 140.29 178.1 140.59 177.54 141.49 177.19 142.09 177.4 
M 140.75 177.17 141.27 177.53 141.5 178.47 141.22 179.04 140.69 178.67 140.46 177.74 140.75 177.17 
M 316.83 177.94 316.25 178.22 315.32 177.98 314.96 177.45 315.53 177.17 316.47 177.42 316.83 177.94 
M 316.62 177.82 315.99 177.91 315.17 177.39 314.99 176.78 315.62 176.68 316.44 177.21 316.62 177.82 
M 189.07 179.22 189.29 178.63 190.14 178.16 190.77 178.3 190.54 178.9 189.69 179.36 189.07 179.22 
M 189.86 179.5 189.71 178.87 190.17 178.02 190.76 177.79 190.9 178.41 190.45 179.26 189.86 179.5 
M 335.92 155.14 335.44 154.72 335.29 153.77 335.64 153.23 336.12 153.64 336.26 154.6 335.92 155.14 
M 336.51 154.2 335.9 154.38 335.02 153.98 334.76 153.4 335.37 153.22 336.25 153.62 336.51 154.2 
M 225.1 203.03 225.44 202.5 226.37 202.23 226.95 202.49 226.6 203.03 225.68 203.3 225.1 203.03 
M 226.61 203.2 226.01 202.99 225.52 202.16 225.64 201.53 226.25 201.74 226.73 202.57 226.61 203.2 
M 182.23 114.45 181.7 114.81 180.74 114.71 180.31 114.24 180.83 113.88 181.79 113.98 182.23 114.45 
M 180.89 113.71 181.37 114.13 181.49 115.09 181.14 115.62 180.66 115.2 180.54 114.24 180.89 113.71 
M 324.56 160.15 325.2 160.09 325.99 160.64 326.14 161.26 325.5 161.33 324.71 160.77 324.56 160.15 
M 325.51 161.43 325.19 160.88 325.36 159.93 325.86 159.53 326.18 160.07 326.01 161.02 325.51 161.43 
M 157.19 115.05 157.25 115.68 156.69 116.47 156.07 116.62 156.01 115.98 156.57 115.2 157.19 115.05 
M 156.67 115.1 156.83 115.71 156.4 116.58 155.81 116.83 155.65 116.21 156.08 115.34 156.67 115.1 
M 166 125.79 165.99 126.43 165.35 127.15 164.72 127.23 164.73 126.59 165.37 125.87 166 125.79 
M 166.09 126.43 165.51 126.69 164.58 126.41 164.24 125.87 164.83 125.61 165.75 125.89 166.09 126.43 
M 155.04 109.69 155.15 109.06 155.89 108.44 156.53 108.45 156.42 109.08 155.68 109.7 155.04 109.69 
M 156.45 108.76 155.98 109.19 155.02 109.22 154.52 108.82 154.99 108.38 155.96 108.35 156.45 108.76 
M 150.67 190.68 150.74 190.41 151.33 190.67 151.46 190.95 
M 150.7 190.69 150.83 190.04 151.42 190.27 151.85 191.09 
M 136.05 184.95 136.05 184.31 136.67 183.57 137.31 183.48 137.31 184.12 136.68 184.85 136.05 184.95 
M 137.03 184.86 136.57 184.41 136.48 183.45 136.85 182.93 137.31 183.38 137.4 184.34 137.03 184.86 
M 182.51 192.05 183.06 192.37 183.36 193.29 183.11 193.88 182.56 193.55 182.26 192.63 182.51 192.05 
M 182.17 193.32 182.6 192.86 183.56 192.75 184.09 193.11 183.65 193.58 182.69 193.69 182.17 193.32 
M 171.99 100.48 172.61 100.35 173.46 100.82 173.68 101.42 173.06 101.55 172.21 101.08 171.99 100.48 
M 173.38 100.46 173.06 101.01 172.14 101.32 171.55 101.08 171.88 100.53 172.79 100.22 173.38 100.46 
M 320.73 189.45 321.25 189.07 322.21 189.14 322.66 189.6 322.14 189.98 321.18 189.9 320.73 189.45 
M 320.98 189.34 321.62 189.3 322.39 189.89 322.51 190.52 321.88 190.55 321.11 189.97 320.98 189.34 
M 321.84 180.34 321.92 179.71 322.64 179.07 323.28 179.06 323.2 179.69 322.48 180.33 321.84 180.34 
M 321.88 180 322.36 179.57 323.33 179.57 323.81 179.98 323.33 180.4 322.37 180.41 321.88 180 
M 131.42 130.13 130.85 129.84 130.48 128.94 130.69 128.34 131.26 128.63 131.62 129.52 131.42 130.13 
M 131.65 129.66 131.04 129.46 130.55 128.64 130.66 128.01 131.27 128.21 131.76 129.04 131.65 129.66 
M 143.62 122.41 142.99 122.53 142.15 122.04 141.95 121.44 142.57 121.32 143.41 121.8 143.62 122.41 
M 142.09 122.18 142.59 121.79 143.56 121.83 144.02 122.27 143.52 122.66 142.56 122.62 142.09 122.18 
M 332.7 184.79 333.32 184.66 334.17 185.12 334.39 185.72 333.77 185.85 332.92 185.39 332.7 184.79 
M 334.26 185.07 333.72 185.41 332.76 185.27 332.35 184.79 332.88 184.44 333.84 184.58 334.26 185.07 
M 327.59 190.68 328.14 190.36 329.09 190.55 329.48 191.06 328.92 191.37 327.97 191.18 327.59 190.68 
M 328.59 190.13 328.73 190.76 328.29 191.61 327.7 191.85 327.55 191.23 327.99 190.37 328.59 190.13 
M 281.1 84.01 281.05 84.65 280.36 85.32 279.72 85.36 279.77 84.73 280.46 84.05 281.1 84.01 
M 281.07 84.37 280.61 84.81 279.65 84.85 279.14 84.46 279.61 84.02 280.57 83.97 281.07 84.37 
M 347.13 119.76 346.64 120.18 345.68 120.18 345.2 119.76 345.68 119.34 346.64 119.34 347.13 119.76 
M 346.72 119.28 346.38 119.83 345.46 120.11 344.88 119.85 345.21 119.31 346.14 119.03 346.72 119.28 
M 141.96 187.7 142.06 187.59 142.21 187.78 
M 193.18 190.21 193.64 190.64 193.74 191.6 193.38 192.13 192.91 191.69 192.81 190.73 193.18 190.21 
M 193.9 191.56 193.28 191.4 192.73 190.61 192.8 189.97 193.42 190.13 193.97 190.92 193.9 191.56 
M 136.01 113.73 135.86 114.35 135.07 114.91 134.44 114.85 134.59 114.23 135.37 113.67 136.01 113.73 
M 134.85 113.66 135.33 114.08 135.45 115.04 135.1 115.57 134.62 115.15 134.5 114.19 134.85 113.66 
M 141.72 113.63 141.15 113.34 140.79 112.45 141 111.84 141.57 112.13 141.93 113.03 141.72 113.63 
M 140.85 112.21 141.41 112.51 141.75 113.42 141.53 114.01 140.97 113.71 140.63 112.81 140.85 112.21 
M 161.92 100.8 161.53 101.3 160.58 101.48 160.03 101.16 160.42 100.66 161.37 100.48 161.92 100.8 
M 160.8 101.7 160.76 101.06 161.33 100.28 161.96 100.15 162 100.78 161.43 101.56 160.8 101.7 
M 198.61 190.18 198.33 189.6 198.59 188.67 199.12 188.31 199.39 188.89 199.14 189.82 198.61 190.18 
M 199.41 189.74 198.83 189.47 198.43 188.6 198.61 187.98 199.19 188.25 199.59 189.13 199.41 189.74 
M 309.82 160.14 310.45 160.05 311.26 160.57 311.45 161.18 310.82 161.27 310 160.76 309.82 160.14 
M 309.92 160.5 310.55 160.44 311.33 161.01 311.48 161.63 310.84 161.69 310.06 161.12 309.92 160.5 
M 147.58 109.94 148.18 110.15 148.66 110.99 148.54 111.62 147.94 111.41 147.45 110.57 147.58 109.94 
M 148.07 111.52 147.87 110.91 148.23 110.02 148.79 109.72 149 110.33 148.64 111.22 148.07 111.52 
M 149.99 118.45 149.39 118.66 148.49 118.31 148.2 117.74 148.8 117.53 149.7 117.89 149.99 118.45 
M 149.82 117.98 149.25 118.27 148.31 118.03 147.95 117.51 148.52 117.22 149.46 117.46 149.82 117.98 
M 356.76 126.97 356.31 127.42 355.35 127.5 354.83 127.12 355.28 126.66 356.25 126.59 356.76 126.97 
M 355.41 127.67 355.56 127.05 356.35 126.49 356.99 126.55 356.84 127.17 356.05 127.73 355.41 127.67 
M 155.61 124.94 155.79 124.33 156.6 123.81 157.24 123.9 157.06 124.51 156.24 125.04 155.61 124.94 
M 156.13 123.75 156.55 124.23 156.56 125.19 156.15 125.68 155.72 125.2 155.71 124.24 156.13 123.75 
M 362.47 121.28 361.82 120.86 
M 362.52 121.09 362.47 121.28 
M 362.01 120.92 361.92 121.17 361.36 121.47 361.14 120.87 361.22 120.66 
M 371.74 128.04 372.3 127.74 373.24 127.94 373.63 128.45 373.07 128.76 372.12 128.55 371.74 128.04 
M 371.98 128.47 372.5 128.1 373.46 128.19 373.9 128.66 373.38 129.03 372.42 128.93 371.98 128.47 
M 261.29 130.34 261.57 129.76 262.46 129.38 263.07 129.58 262.79 130.15 261.9 130.53 261.29 130.34 
M 262.8 130.35 262.18 130.19 261.64 129.39 261.71 128.76 262.32 128.92 262.87 129.71 262.8 130.35 
M 365.2 136.06 365.76 136.39 366.06 137.3 365.82 137.89 365.27 137.57 364.96 136.65 365.2 136.06 
M 366.15 137.34 365.53 137.21 364.95 136.44 364.99 135.8 365.62 135.94 366.2 136.71 366.15 137.34 
M 363.99 129.04 363.64 128.5 363.79 127.54 364.27 127.13 364.62 127.67 364.47 128.62 363.99 129.04 
M 364.33 127.38 364.35 128.01 363.74 128.76 363.11 128.87 363.09 128.24 363.7 127.49 364.33 127.38 
M 341.62 164.67 341.83 165.27 341.47 166.17 340.9 166.46 340.69 165.86 341.05 164.96 341.62 164.67 
M 341.01 166.26 341.03 165.62 341.69 164.92 342.33 164.85 342.3 165.49 341.64 166.19 341.01 166.26 
M 334.25 164.85 334.04 165.46 333.21 165.94 332.58 165.81 332.79 165.21 333.63 164.73 334.25 164.85 
M 333.55 166.06 333.25 165.49 333.46 164.55 333.98 164.17 334.28 164.74 334.06 165.68 333.55 166.06 
M 354.32 161.28 353.94 161.79 352.99 161.99 352.43 161.69 352.82 161.18 353.76 160.97 354.32 161.28 
M 353.01 162.12 353.15 161.49 353.92 160.92 354.56 160.97 354.42 161.59 353.64 162.17 353.01 162.12 
M 341.47 125.83 340.91 125.52 340.56 124.62 340.78 124.02 341.35 124.32 341.69 125.23 341.47 125.83 
M 341.42 124.25 341.35 124.89 340.65 125.55 340.01 125.57 340.08 124.93 340.78 124.28 341.42 124.25 
M 125 116.63 124.84 116.01 125.15 115.4 
M 125.91 115.09 126.02 115.52 125.59 116.39 125 116.63 
M 125.34 115.32 125.56 115.57 125.57 116.54 125.15 117.02 124.73 116.54 124.73 115.57 
M 358.98 179.14 359.12 178.52 359.89 177.94 360.53 177.99 360.39 178.61 359.62 179.19 358.98 179.14 
M 359.04 178.38 359.68 178.34 360.44 178.94 360.57 179.56 359.93 179.6 359.17 179.01 359.04 178.38 
M 358.39 142.23 359.02 142.35 359.61 143.11 359.58 143.75 358.95 143.62 358.36 142.86 358.39 142.23 
M 358.4 143.43 358.77 142.91 359.7 142.67 360.27 142.96 359.91 143.48 358.97 143.72 358.4 143.43 
M 344.33 140.21 344.59 139.63 345.46 139.22 346.08 139.39 345.82 139.98 344.94 140.38 344.33 140.21 
M 345.85 140.15 345.22 140.03 344.63 139.27 344.66 138.63 345.28 138.76 345.88 139.52 345.85 140.15 
M 353.68 150.93 354 151.48 353.81 152.43 353.3 152.82 352.99 152.27 353.18 151.32 353.68 150.93 
M 352.76 151.82 353.38 151.67 354.23 152.12 354.47 152.71 353.85 152.86 352.99 152.41 352.76 151.82 
M 368.29 123.03 368.1 123.2 367.9 122.89 
M 284.54 75.13 285.12 74.86 286.05 75.12 286.4 75.65 285.82 75.92 284.89 75.66 284.54 75.13 
M 285.87 76.01 285.37 75.6 285.22 74.65 285.55 74.1 286.04 74.51 286.2 75.47 285.87 76.01 
M 328.97 114.85 329.36 115.36 329.29 116.32 328.83 116.78 328.45 116.26 328.52 115.3 328.97 114.85 
M 328.45 116.39 328.67 115.79 329.52 115.33 330.14 115.47 329.92 116.06 329.07 116.53 328.45 116.39 
M 390.5 132.1 391 131.7 391.97 131.74 392.43 132.18 391.93 132.58 390.97 132.53 390.5 132.1 
M 391.1 131.5 391.57 131.93 391.68 132.89 391.32 133.42 390.85 132.99 390.74 132.03 391.1 131.5 
M 384.78 144.76 385.42 144.75 386.16 145.37 386.26 146 385.62 146.01 384.88 145.39 384.78 144.76 
M 385.92 144.76 385.75 145.38 384.95 145.92 384.32 145.84 384.48 145.23 385.28 144.69 385.92 144.76 
M 373.77 155.59 374.13 156.12 374.03 157.08 373.57 157.51 373.2 156.99 373.3 156.03 373.77 155.59 
M 373.19 155.99 373.73 156.33 374.02 157.25 373.77 157.84 373.22 157.5 372.93 156.58 373.19 155.99 
M 377.98 166.04 378.35 166.57 378.24 167.53 377.77 167.96 377.41 167.43 377.51 166.47 377.98 166.04 
M 378.61 166.93 378.02 167.18 377.1 166.89 376.77 166.34 377.36 166.09 378.27 166.39 378.61 166.93 
M 352.9 119.08 353.54 119.09 354.26 119.73 354.35 120.36 353.71 120.36 352.99 119.72 352.9 119.08 
M 354.23 120.14 353.62 119.95 353.1 119.14 353.2 118.51 353.81 118.69 354.33 119.51 354.23 120.14 
M 387.61 159.69 388.23 159.84 388.78 160.63 388.72 161.27 388.1 161.11 387.54 160.32 387.61 159.69 
M 388.8 160.85 388.17 160.71 387.61 159.93 387.66 159.29 388.28 159.44 388.85 160.22 388.8 160.85 
M 363.71 149.57 363.93 150.18 363.57 151.07 363 151.37 362.79 150.76 363.15 149.87 363.71 149.57 
M 363.78 149.87 363.59 150.48 362.77 150.99 362.14 150.88 362.33 150.27 363.15 149.77 363.78 149.87 
M 398.98 155.31 399.06 155.94 398.52 156.74 397.91 156.91 397.83 156.28 398.37 155.48 398.98 155.31 
M 399.14 155.86 398.63 156.25 397.67 156.19 397.21 155.74 397.72 155.35 398.68 155.41 399.14 155.86 
M 398.04 146.33 398 146.97 397.32 147.66 396.69 147.71 396.73 147.07 397.41 146.38 398.04 146.33 
M 397.38 147.76 397.17 147.15 397.53 146.26 398.1 145.96 398.31 146.57 397.95 147.46 397.38 147.76 
M 408.24 149.35 408.77 149.7 409.02 150.64 408.75 151.21 408.22 150.86 407.96 149.93 408.24 149.35 
M 408.03 149.71 408.56 150.06 408.82 150.99 408.55 151.57 408.02 151.22 407.76 150.29 408.03 149.71 
M 224.48 292.89 224.36 292.3 223.94 291.7 223.43 291.39 222.23 291.39 221.54 291.7 220.76 292.3 219.7 293.8 219.26 295.3 219.41 296.8 219.83 297.39 220.33 297.7 221.54 297.7 222.23 297.39 223.01 296.8 223.49 296.2 223.76 295.3 
M 222.26 295.3 223.76 295.3 
M 227.6 293.5 226.91 293.8 226.13 294.39 225.56 295.3 225.38 295.89 225.41 296.8 225.83 297.39 226.33 297.7 227.24 297.7 227.93 297.39 228.71 296.8 229.28 295.89 229.46 295.3 229.43 294.39 229.01 293.8 228.5 293.5 227.6 293.5 
M 232.1 293.5 230.21 299.8 
M 231.83 294.39 232.61 293.8 233.3 293.5 234.2 293.5 234.71 293.8 235.13 294.39 235.16 295.3 234.98 295.89 234.41 296.8 233.63 297.39 232.94 297.7 232.04 297.7 231.53 297.39 231.11 296.8 
M 239 293.5 238.31 293.8 237.52 294.39 236.96 295.3 236.77 295.89 236.81 296.8 237.23 297.39 237.74 297.7 238.64 297.7 239.33 297.39 240.11 296.8 240.68 295.89 240.86 295.3 240.83 294.39 240.41 293.8 239.9 293.5 239 293.5 
M 243.5 293.5 241.61 299.8 
M 243.23 294.39 244.01 293.8 244.7 293.5 245.6 293.5 246.11 293.8 246.52 294.39 246.56 295.3 246.38 295.89 245.81 296.8 245.02 297.39 244.33 297.7 243.44 297.7 242.93 297.39 242.51 296.8 
M 249.2 293.5 248.3 296.5 248.33 297.39 248.83 297.7 249.74 297.7 250.43 297.39 251.6 296.5 
M 252.5 293.5 251.24 297.7 
M 257.63 294.39 257.51 293.8 256.7 293.5 255.8 293.5 254.81 293.8 254.33 294.39 254.45 295 254.96 295.3 256.37 295.6 256.88 295.89 256.9 296.8 256.43 297.39 255.44 297.7 254.54 297.7 253.73 297.39 253.61 296.8 
M 263.93 291.39 264.14 291.7 264.52 291.39 264.32 291.1 263.93 291.39 
M 263.6 293.5 262.07 298.6 261.5 299.5 260.8 299.8 260.21 299.8 
M 269.3 293.5 268.03 297.7 
M 269.02 294.39 268.61 293.8 268.09 293.5 267.2 293.5 266.51 293.8 265.73 294.39 265.15 295.3 264.98 295.89 265.01 296.8 265.43 297.39 265.94 297.7 266.83 297.7 267.52 297.39 268.31 296.8 
M 271.09 293.5 271.64 297.7 
M 274.7 293.5 271.64 297.7 
M 275.65 295.3 279.26 295.3 279.44 294.7 279.32 294.1 278.59 293.5 277.7 293.5 277.01 293.8 276.22 294.39 275.65 295.3 275.47 295.89 275.51 296.8 275.93 297.39 276.44 297.7 277.33 297.7 278.02 297.39 278.81 296.8 
M 284.63 294.39 284.51 293.8 283.7 293.5 282.79 293.5 281.81 293.8 281.33 294.39 281.45 295 281.95 295.3 283.37 295.6 283.88 295.89 283.9 296.8 283.42 297.39 282.44 297.7 281.53 297.7 280.72 297.39 280.61 296.8 
M 287.63 291.39 285.74 297.7 
M 292.7 293.5 291.44 297.7 
M 292.42 294.39 292.01 293.8 291.5 293.5 290.59 293.5 289.9 293.8 289.13 294.39 288.56 295.3 288.38 295.89 288.4 296.8 288.83 297.39 289.33 297.7 290.24 297.7 290.92 297.39 291.7 296.8 
M 297.83 294.39 297.7 293.8 296.89 293.5 296 293.5 295.01 293.8 294.52 294.39 294.64 295 295.15 295.3 296.57 295.6 297.08 295.89 297.11 296.8 296.63 297.39 295.64 297.7 294.74 297.7 293.92 297.39 293.81 296.8 
M 299.41 297.1 299.02 297.39 299.24 297.7 299.63 297.39 299.41 297.1 
"/></svg>
