<svg xmlns="http://www.w3.org/2000/svg" width="520" height="320"><rect x="0" y="0" width="520" height="320" fill="floralwhite"/><rect x="10" y="10" width="500" height="300" stroke="black" stroke-width="1" fill="none"/><path stroke="black" stroke-width="1" fill="none" stroke-linecap="round" stroke-linejoin="round" d="
M 193.85 128.99 209.67 118.91 217.62 114.27 225.57 109.95 233.52 106.78 241.47 104.26 249.42 102.27 265.32 100.38 273.28 99.92 281.23 99.68 289.18 99.03 297.13 100.16 305.08 102.16 313.03 104.44 320.98 107.35 328.93 110.93 336.88 115.34 344.83 120.25 352.78 125.52 368.68 135.21 384.58 145.61 393.24 150.77 
M 393.24 188.67 376.63 199.21 360.73 208.68 352.78 213.6 344.83 219.16 336.88 224.03 320.98 231.46 313.03 235.7 305.08 239.2 297.13 241.4 289.18 242.42 273.28 242.15 265.32 241.83 257.37 240.12 249.42 237.11 233.52 231.73 225.57 228.72 201.68 217.41 
M 393.24 160.75 380.11 158.31 366.55 154.9 359.04 153.43 350.39 151.3 346.63 150.77 
M 343.95 150.52 336.97 150.01 328.93 148.84 323.52 148.38 322.11 148.41 
M 319.23 148.51 308.64 149.02 304.12 148.96 
M 298.11 148.61 288.74 148.24 
M 285.47 148.35 274.63 148.95 267.68 149.7 
M 264.95 150.03 260.81 150.29 256.56 150.17 
M 250.85 149.09 248.04 148.48 
M 242.65 147.6 238.88 147.13 233.17 146.68 
M 230.93 146.66 228.6 146.71 
M 226.16 146.92 221.14 147.62 
M 203.38 211.76 204.21 212.94 
M 209.28 209.05 211.26 211.73 
M 206.02 197.99 207.76 200.77 
M 213.74 209.62 215.74 212.33 
M 217.78 215.03 219.87 217.7 
M 207.11 193.43 212.19 201.37 
M 214.2 204.4 216.19 207.28 
M 220.2 212.91 223.27 217.1 226.43 220.94 
M 211.85 194.32 214.61 198.68 
M 216.63 201.76 222.62 210.6 
M 206.06 178.2 207.31 180.13 
M 217.4 196.36 219.11 199.08 
M 221.07 202.12 225.05 208.18 
M 205.14 169.74 211.41 179.18 
M 223.59 199.56 225.5 202.65 
M 227.48 205.76 230.49 210.42 233.64 214.72 
M 240.25 221.91 242.33 224.04 
M 205.34 162.64 206.65 164.99 212.19 173 
M 214.36 176.29 215.06 177.39 
M 226.81 198.16 229.93 203.37 
M 233.94 209.59 237.11 213.88 238.22 215.16 
M 200.53 144.49 204.13 150.96 209.45 161.52 212.59 166.44 
M 232.44 200.93 236.34 207.23 
M 238.4 210.2 240.53 212.93 
M 242.71 215.45 244.86 217.81 
M 246.95 220.07 249 222.26 
M 194.45 128.61 200.56 137.55 204.84 144.12 208.76 150.95 214.19 161.34 220.6 171.26 223.22 175.66 
M 235.09 198.53 237.79 203.16 240.77 207.75 
M 242.84 210.56 247.13 215.56 
M 264.92 233.49 266.3 234.53 
M 197.55 126.64 207.19 140.92 211.38 147.58 218.77 161.21 225.09 171.5 227.1 175.12 
M 239.31 198.71 242.2 203.56 244.18 206.55 246.23 209.31 249.48 213.07 
M 251.68 215.44 253.85 217.77 
M 255.95 220.05 259.94 224.41 
M 200.64 124.68 213.66 144.43 217.63 151.15 220.38 156.23 
M 222.23 159.6 227.25 168.28 230.7 174.61 
M 243.68 199.02 247.68 205.04 
M 251.93 210.32 254.12 212.8 
M 256.3 215.23 265.28 225.45 268.03 228.35 
M 203.69 122.74 209.33 131.78 216.73 143.08 
M 218.83 146.4 221.81 151.42 228.37 163.48 
M 230.36 167.14 234.09 174.14 
M 250.16 202 252.3 204.74 
M 258.74 212.53 260.86 215.08 
M 262.91 217.58 264.87 219.99 
M 274.41 230.04 276.66 231.65 
M 206.65 120.84 213.36 132.07 221.82 145.1 225.92 151.8 227.82 155.22 234.31 168.02 
M 236.32 171.86 237.28 173.69 
M 250.38 196.08 254.73 201.72 
M 256.95 204.38 259.09 207.06 
M 261.17 209.76 265.22 215.09 
M 267.14 217.64 270.81 222.3 
M 272.64 224.42 274.6 226.4 
M 209.53 119 217.24 132.29 225.84 145.5 228.91 150.59 
M 230.76 154.08 237.15 167.1 240.37 173.26 
M 252.71 193.45 255.8 197.45 259.28 201.48 
M 263.56 206.98 267.42 212.58 
M 281.45 228.16 283.89 229.88 
M 212.46 117.28 221.07 132.52 227.6 142.54 231.67 149.44 238.95 164.22 243.46 172.83 
M 254.17 189.79 256.72 193.24 
M 261.4 198.71 263.7 201.45 
M 271.4 212.85 273.28 215.46 
M 277.24 220.17 279.35 222.31 
M 281.56 224.37 286.32 228.19 
M 215.38 115.58 218.16 120.35 221.29 126.46 224.01 131.22 
M 228.21 137.93 231.4 143.13 233.32 146.61 237.88 155.6 
M 239.77 159.37 242.72 165.13 246.71 172.37 
M 255.54 186.01 257.67 189.01 261.05 193.26 
M 263.42 196.01 266.88 200.17 268.92 203.08 273.51 210.42 
M 277.45 215.61 279.58 217.94 
M 281.8 220.18 284.06 222.36 
M 286.38 224.47 288.77 226.46 
M 218.34 113.88 220.57 117.59 225.19 126.77 233.21 140.4 246.7 165.9 251.11 173.3 256.64 181.63 
M 258.78 184.67 262.05 189.03 267.81 196.05 
M 269.98 198.93 271.97 201.91 
M 279.75 213.22 284.24 218.01 
M 221.35 112.24 223.02 114.96 224.53 117.83 229.3 127.39 234.29 136.06 
M 236.2 139.52 239.72 146.37 
M 241.56 149.88 243.54 153.5 
M 245.59 157.2 249.84 164.64 
M 252.05 168.29 257.74 177.03 262.11 183.21 270.02 193.2 
M 272.2 196.1 274.22 199.1 
M 278.03 205.12 281.06 209.37 284.41 213.25 
M 291.35 220.41 293.66 222.59 
M 298.2 226.4 300.43 228.01 
M 224.21 110.69 226.98 115.27 231.74 124.86 237.54 135.26 242.8 145.37 246.68 152.4 253.1 163.29 261.03 175.41 
M 263.25 178.61 265.46 181.65 
M 267.72 184.56 270.03 187.39 
M 272.34 190.23 276.6 196.13 
M 278.56 199.17 282.56 205.15 
M 286.96 210.66 291.53 215.7 
M 298.22 222.35 301.54 225.16 304.86 227.63 
M 227.08 109.35 229.38 112.97 235.99 125.84 241.65 136.05 246.94 146.04 250.01 151.26 
M 252.13 154.79 257.52 163.51 263.11 172.05 
M 265.34 175.4 267.58 178.56 
M 269.88 181.54 276.89 190.1 
M 279.02 193.06 281.04 196.1 
M 287.37 205.09 289.61 207.87 
M 291.83 210.51 294.03 213.03 
M 298.31 217.7 300.45 219.82 
M 229.92 108.22 233.4 113.82 241.95 130.02 247.35 139.91 251.24 146.56 268.45 173.75 270.72 176.96 274.32 181.39 
M 276.76 184.23 280.27 188.51 285.47 196.05 
M 292.21 204.89 294.4 207.58 
M 302.69 217.03 304.84 219.1 
M 307.05 221.09 309.26 223 
M 232.63 107.14 235.73 111.85 237.44 114.76 245.84 130.58 251.36 140.31 259.97 153.45 265.16 161.69 
M 267.24 165.1 272.71 173.68 275.08 176.83 278.8 181.21 
M 281.23 184.06 284.57 188.4 289.88 195.92 
M 294.57 201.75 296.82 204.47 
M 298.88 207.04 302.84 211.76 
M 304.89 213.98 307.01 216.13 
M 311.39 220.31 313.58 222.33 
M 235.39 106.19 238.04 109.98 241.5 115.53 244.77 121.48 249.65 130.98 251.47 134.16 255.54 140.51 262.22 150.05 265.32 154.82 
M 269.43 161.46 271.52 164.95 
M 275.98 171.86 278.39 175.08 
M 280.89 178.11 285.62 183.9 
M 291.95 192.68 294.26 195.61 
M 298.99 201.19 305.05 208.45 
M 238.21 105.3 242.11 110.67 243.83 113.29 247.03 118.89 251.8 128.06 255.56 134.31 266.51 149.7 270.64 156.05 277.08 166.58 280.66 171.68 
M 287.9 180.81 290 183.69 
M 294.06 189.42 296.28 192.26 
M 303.25 200.29 305.33 202.7 
M 313.31 211.93 315.47 214.3 
M 319.84 218.79 322.01 220.87 
M 241.08 104.38 244.4 108.66 247.7 113.67 254.12 125.11 257.89 131.25 268.69 146.24 273.99 154.11 
M 276.15 157.53 281.89 166.43 284.35 169.86 291.48 179.11 297.37 187.52 299.55 190.22 305.29 196.69 
M 315.35 208.59 317.45 211.04 
M 244.13 103.59 244.53 104.05 
M 245.79 105.59 249.92 111.38 258.44 125.15 262.35 131.12 273.05 145.9 285.72 164.51 
M 292.94 174.37 296.97 180.15 
M 298.87 182.85 300.85 185.46 
M 302.96 188.02 305.16 190.56 
M 313.57 200.37 315.48 202.79 
M 323.67 212.48 325.91 214.68 
M 247.31 102.8 248.96 104.72 252.21 109.13 267.87 132.31 
M 269.97 135.23 276.44 144.19 
M 278.72 147.31 285.99 157.33 
M 288.4 160.85 297.54 174.04 
M 299.54 176.9 301.44 179.59 
M 303.38 182.1 309.59 189.46 
M 311.69 191.95 316.72 198.24 320.32 203.33 323.26 207.08 
M 250.72 102.13 253.01 104.78 261.89 116.62 271.32 130.6 276.59 138 
M 278.84 141.04 286.19 150.49 
M 288.68 153.82 292.26 158.99 299.88 170.68 
M 301.97 173.64 303.96 176.37 
M 307.9 181.2 309.91 183.51 
M 313.93 188.45 317.85 193.62 
M 323.2 201.56 325.05 204.11 
M 254.56 101.7 257.23 104.78 266.63 116.74 270.38 122.12 276.84 131.93 
M 279.01 134.95 281.3 138.02 
M 286.21 144.17 292.52 152.08 294.83 155.44 302.18 167.23 
M 304.27 170.32 306.35 173.17 
M 308.37 175.73 315.29 183.76 319.05 188.97 321.76 193.04 
M 323.51 195.79 326.06 199.86 328.87 203.68 
M 258.51 101.24 261.68 104.82 271.39 116.86 280.45 130.49 284.99 136.67 288.69 141.24 
M 298.38 153.69 305.57 165.33 307.6 168.42 310.75 172.58 
M 314.83 177.24 317.7 180.59 322.14 187.08 
M 330.87 200.73 332.9 203.23 
M 262.42 100.75 270.16 109.59 275.07 115.69 
M 276.88 118.21 284.25 129.22 
M 286.44 132.28 289.93 136.91 297.28 145.79 300.79 150.43 
M 303.01 153.64 307.1 160.17 
M 309.06 163.35 311.05 166.39 
M 321.04 178.82 323.58 182.56 329.49 192.2 
M 333.14 197.65 337.26 202.79 
M 266.24 100.32 272.85 107.53 278.63 114.53 292.48 134.08 304.33 148.84 308.7 155.12 314.6 164.33 316.65 167.19 319.84 171.15 
M 321.81 173.57 323.59 175.93 
M 325.22 178.34 328.4 183.5 
M 343.58 204.91 345.23 207.48 
M 270.13 100.1 277.37 107.72 283.07 114.63 297.29 134.16 306.7 145.68 312.32 153.32 
M 316.32 159.29 319.23 163.71 322.35 167.89 
M 327.82 175.46 329.3 177.93 
M 338.04 191.17 340.12 193.94 
M 273.98 99.9 279.88 105.78 285.61 112.4 289.5 117.26 301 132.5 
M 303.21 135.24 309.08 142.44 316.01 151.51 323.81 163.15 328.77 170.02 
M 330.42 172.58 331.89 175.06 
M 334.92 179.96 344.55 193.41 
M 277.95 99.78 280.47 102.09 284.28 105.99 290.13 112.58 294.21 117.48 312.74 140.72 
M 315.12 143.8 320.56 151.17 329.21 164.13 
M 331.13 166.95 332.89 169.64 
M 334.45 172.15 335.94 174.54 
M 340.96 181.87 344.77 187.25 
M 346.73 190.09 348.65 192.92 
M 281.87 99.63 286.77 104.22 292.74 110.52 299.04 117.64 308.55 129.1 
M 310.72 131.78 318.83 142.1 323.96 149.48 
M 327.66 155.12 331.46 160.94 
M 333.34 163.8 338.42 171.5 
M 343.37 178.76 346.92 183.98 
M 285.57 99.32 291.26 104.48 297.5 110.74 303.92 117.65 310.3 125.03 321.49 138.95 323.65 141.95 330 152.07 
M 331.82 154.9 333.68 157.76 
M 335.53 160.57 342.31 170.8 
M 345.65 175.75 347.34 178.3 
M 289.29 99.04 293.82 102.85 298.03 106.7 306.67 115.24 313.16 122.46 324.34 135.91 326.44 138.85 328.29 141.84 331.56 147.76 333.28 150.53 338.75 158.65 351.13 178.01 
M 356.44 186.16 358.32 188.93 
M 294.43 99.78 300.69 104.91 307.2 110.79 311.61 115.2 316.01 120.03 324.99 130.33 327.23 133.03 329.3 135.86 331.1 138.8 335.03 146.18 
M 336.75 148.89 341.24 155.4 343.58 159.38 
M 348.25 167.37 349.88 169.97 
M 351.53 172.56 356.59 180.49 
M 362.13 188.57 364 191.24 
M 365.8 193.81 367.53 196.26 
M 300.49 101.01 307.74 106.81 314.33 112.92 327.79 127.82 330 130.37 332.03 133.06 333.81 135.9 337.78 143.19 
M 339.46 145.9 341.24 148.46 
M 343.01 150.99 345.43 154.92 349.62 163.14 353.6 169.67 
M 355.25 172.31 356.93 175 
M 307.84 102.95 312.65 106.79 317.04 110.8 319.26 113.09 332.54 127.97 334.53 130.49 336.37 133.22 342.18 143.04 
M 345.66 148.05 348.07 151.95 348.75 153.33 
M 350.04 156.1 352.66 161.55 
M 354.15 164.14 355.72 166.73 
M 360.74 174.77 362.49 177.4 
M 371.63 189.72 373.37 192.07 
M 316.02 105.54 319.75 108.85 321.94 111.08 334.89 125.77 338.79 130.79 343.94 139.15 349.05 146.55 350.59 149.16 354.29 157.42 355.65 160.03 357.94 163.82 
M 361.2 169.08 364.69 174.49 
M 368.32 179.6 370.16 182.04 
M 324.28 108.84 337.16 123.69 341.13 128.57 343 131.23 346.45 136.71 350.68 142.83 
M 352.2 145.3 354.77 150.68 
M 360.25 161.07 361.87 163.57 
M 366.98 171.64 372.47 179.31 
M 331.88 112.57 343.38 126.41 347.19 131.62 353.8 141.65 355.16 144.16 358.16 150.93 
M 359.46 153.58 360.95 156.09 
M 362.59 158.5 364.28 160.94 
M 365.95 163.51 367.63 166.21 
M 373.03 174.23 374.86 176.7 
M 381.77 186.11 383.48 188.71 
M 339.64 117.05 347.58 126.71 351.42 131.78 354.62 136.83 358.01 143.09 
M 359.25 145.74 360.49 148.44 
M 361.84 151.11 362.55 152.41 365.03 156.07 
M 371.86 166.46 373.63 169.16 
M 375.45 171.76 377.28 174.24 
M 382.48 181.3 384.15 183.65 
M 348.07 122.4 351.8 126.89 355.4 131.84 358.32 136.88 364.48 148.57 
M 367.59 153.69 371.02 158.76 
M 379.73 171.9 381.52 174.3 
M 384.97 178.86 386.64 181.17 
M 356.23 127.61 359.15 131.91 371.09 152.57 380.52 167.09 
M 385.82 174.32 387.53 176.51 
M 362.64 131.51 370.2 143.56 
M 371.69 146.16 375.48 152.79 383.26 164.77 
M 384.99 167.37 390.18 174.3 
M 391.86 176.42 393.24 178.21 
M 369.85 135.99 374.01 142.4 378.33 150.34 381.58 155.73 388.7 166.41 393.24 172.58 
M 377.95 141.37 382.78 150.55 386.06 155.93 388.81 160 
M 392.43 165.34 393.24 166.56 
M 384.61 145.62 387.24 150.63 391.5 157.41 
M 391.11 149.49 391.41 150.04 
M 392.52 151.95 393.24 153.18 
M 200.09 125.03 195.62 131.54 
M 208.06 119.94 202.22 128.39 197.7 135.43 
M 215.63 115.43 212.25 120.09 206.53 128.56 199.31 140.24 
M 223.24 111.21 218.26 117.5 214.33 123.12 208.89 131.74 200.74 145.29 
M 230.36 108.04 226.34 112.56 220.19 120.44 216.36 126.2 213.78 130.58 
M 212.14 133.5 210.52 136.43 
M 208.84 139.43 207.03 142.55 
M 205.01 145.82 202.22 150.08 
M 238.29 105.27 234.16 109.12 230.33 113.15 226.2 117.97 224.11 120.68 220.17 126.39 218.43 129.31 214.59 136.71 
M 213.06 139.69 210.53 144.28 208.54 147.52 203.74 154.64 
M 245.14 103.34 236.3 111.98 229.16 119.87 
M 225.01 125.25 222.26 129.55 218.52 136.99 
M 217.1 139.98 214.8 144.51 211.94 149.3 
M 207.24 156.26 204.99 159.49 
M 250.73 102.13 248.01 104.69 242.3 110.7 231.16 123.24 
M 229.09 125.84 226.21 129.92 223.83 134.29 
M 219.64 143.32 217.25 147.87 214.22 152.74 
M 211.91 156.21 209.46 159.77 
M 207.06 163.27 205.4 165.76 
M 255.51 101.6 252.04 104.77 248.13 108.96 232.31 128.03 228.63 133.35 227.07 136.19 225.01 140.68 
M 223.63 143.7 221.36 148.2 216.44 156.18 
M 209.62 166.55 205.31 172.99 
M 260.61 100.98 256.22 104.78 252.02 109.12 248.23 113.71 241.52 122.48 
M 239.55 125.09 234.71 131.6 231.13 136.9 229.63 139.71 226.17 147.11 
M 224.56 150.09 216.54 162.95 
M 212.31 169.72 210.11 173 
M 266.27 100.32 264.06 101.96 
M 261.77 103.82 258.33 106.92 256.11 109.18 252.07 113.91 246.39 121.67 239.87 131.18 
M 236.17 136.48 233.54 140.47 232.8 141.86 
M 231.39 144.7 229.36 149.07 227.8 152.02 221.06 162.88 
M 271.71 100.01 267.48 103.11 262.85 107 258.28 111.55 254.11 116.55 248.31 124.79 241.23 135.98 237.45 141.31 235.75 144.01 231.57 152.6 229.11 157.03 
M 227.28 160.03 217.6 176.35 
M 276.87 99.81 272.03 103.44 265.19 109.35 260.6 114.02 256.23 119.31 252.17 125.05 245.19 136.58 239.53 144.78 237.85 147.55 233.66 156.26 229.55 163.67 
M 226.09 169.88 222.88 175.71 
M 281.83 99.63 276.52 103.71 272.2 107.49 267.62 111.8 262.99 116.65 260.7 119.33 257.39 123.66 
M 255.3 126.65 252.41 131.15 247.32 139.91 242.6 146.9 
M 240.87 149.74 239.33 152.64 
M 237.91 155.6 233.48 164.49 
M 231.9 167.45 228.61 173.76 
M 287.22 99.19 282.98 102.23 276.74 107.7 267.75 116.77 263.03 122.17 260.78 125.12 256.59 131.25 249.57 143.25 245.8 149.02 243.2 153.43 
M 241.63 156.43 238.72 162.47 
M 235.79 168.4 232.82 174.32 
M 217.94 196.45 214.08 201.56 
M 291.77 99.4 287.37 102.48 281.16 107.87 276.95 112.14 267.7 122.14 265.35 125.03 261.04 131.18 257.24 137.41 252.91 145.12 
M 251.09 148.14 249.21 151.15 
M 247.38 154.16 244.79 158.74 241.03 166.42 
M 212.43 209.45 210.36 211.61 
M 295.86 99.98 291.87 102.74 287.66 106.16 283.48 110.09 280.32 113.4 
M 278.16 115.75 273.54 120.79 
M 271.14 123.5 267.65 127.85 263.55 134.12 254.61 150.05 249 159.43 246.47 164.15 
M 299.68 100.8 294.35 104.65 287.94 110.28 283.7 114.65 276.87 122.08 272.18 127.65 270 130.67 266.13 137.03 259.05 150.16 256.22 155.08 
M 254.32 158.32 250.7 164.75 
M 249.01 167.95 246.78 172.36 
M 229.48 200.45 227.38 202.94 
M 225.35 205.43 223.34 207.95 
M 303.36 101.73 299.1 104.86 294.71 108.53 290.35 112.59 286 117.14 276.68 127.55 274.48 130.47 269.64 138.33 
M 267.81 141.58 266.04 144.9 
M 262.49 151.68 258.76 158.47 
M 256.9 161.81 250.22 174.43 
M 235.87 198.56 233.88 201.12 
M 227.76 208.6 225.75 211.03 
M 306.98 102.71 301.71 106.79 295.04 112.83 290.59 117.31 283.71 124.93 279.06 130.45 276.98 133.42 273.14 139.64 270.37 144.52 
M 266.78 151.33 264.96 154.84 
M 263.13 158.34 257.74 168.61 
M 256.03 171.97 253.05 177.62 
M 238.28 201.69 236.22 204.38 
M 228.19 214.05 226.21 216.3 
M 310.52 103.72 304.34 108.76 299.86 112.98 295.34 117.53 286.17 127.87 283.87 130.65 280.66 135 
M 278.64 137.99 275.71 142.63 271.99 149.19 258.74 175.4 
M 256.98 178.57 254.84 182.25 
M 242.68 202.06 240.64 204.9 
M 238.64 207.54 232.71 214.64 
M 313.98 104.79 311.49 106.79 306.97 110.8 300.18 117.65 293.32 125.41 288.8 130.94 284.48 136.64 278.39 145.71 274.55 152.35 268.96 163.25 263.11 175.41 
M 261.38 178.63 259.56 181.7 
M 254.35 190.35 253.56 191.71 
M 245.07 205.1 243.07 207.89 
M 317.36 106.03 311.88 110.75 307.37 115.24 300.45 122.77 295.9 128.34 289.42 136.89 285.36 142.64 281.24 148.88 276.19 157.53 
M 274.26 161.21 272.39 164.91 
M 268.97 172.03 266.57 177.03 264.88 180.17 258.56 190.45 
M 253.53 198.96 250.66 203.45 245.57 210.61 
M 243.67 213.11 241.83 215.41 
M 320.87 107.31 314.56 112.92 306.52 121.33 
M 304.18 123.99 298.5 131.19 289.38 144.24 
M 287.36 147.29 282.04 155.61 276.88 164.77 
M 273.26 171.95 268.39 181.59 
M 266.63 184.59 264.8 187.54 
M 262.98 190.44 261.26 193.26 
M 257.99 198.78 254.27 204.59 
M 246.25 215.55 242.56 219.9 
M 324.28 108.83 319.49 113.11 315 117.59 310.29 122.48 305.58 127.92 303.32 130.88 299.06 137.01 286.05 157.33 
M 283.84 160.96 278.66 170.06 274.42 178.39 
M 272.83 181.45 271.16 184.44 
M 269.37 187.41 267.53 190.36 
M 265.74 193.23 264.06 196 
M 262.44 198.71 260.75 201.45 
M 258.9 204.28 256.88 207.19 
M 254.8 210.09 252.77 212.87 
M 250.78 215.46 248.83 217.85 
M 245.04 222.13 243.12 224.07 
M 327.75 110.4 322.18 115.63 315.28 122.49 310.5 127.65 308.18 130.5 303.84 136.66 295.28 150.45 
M 293.26 153.77 291.14 157.26 
M 288.94 160.85 282.56 171.61 
M 280.67 174.98 278.94 178.2 
M 277.32 181.27 274.86 185.75 272.13 190.22 
M 270.26 193.17 265.13 201.48 
M 261.44 206.98 259.43 209.8 
M 253.38 217.76 249.38 222.26 
M 331.06 112.11 317.94 125.07 313.12 130.31 310.83 133.18 306.64 139.46 293.88 160.72 
M 291.75 164.34 283.63 177.99 
M 281.86 181.08 277.62 188.58 271.02 198.95 
M 269.28 201.7 267.56 204.38 
M 265.76 207.06 259.97 215.09 
M 334.21 113.86 320.67 127.69 315.83 133.11 313.58 136.06 311.48 139.18 300.58 157.05 
M 296.49 164.15 294.48 167.7 
M 292.49 171.17 290.47 174.52 
M 288.41 177.76 282.9 186.95 
M 281.13 189.99 275.25 199.11 
M 273.35 201.98 266.23 212.53 
M 262.45 217.58 260.44 219.99 
M 258.37 222.27 256.26 224.41 
M 337.25 115.57 321.02 133.07 318.64 135.99 316.42 139.06 304.1 158.64 296.21 172.58 289.96 182.2 285.4 189.9 
M 283.59 192.99 279.6 199.17 
M 275.59 205.03 271.97 210.3 
M 270.24 212.78 268.5 215.23 
M 340.12 117.34 323.81 135.91 321.44 138.95 318.2 143.69 
M 316.15 146.91 306.51 161.9 300.67 172.24 297.64 177.11 
M 295.5 180.3 291.41 186.6 
M 287.86 192.9 286.06 196.04 
M 284.09 199.16 277.9 207.95 
M 274.22 213.06 269.86 218.93 267.08 222.28 
M 342.95 119.09 335.22 128.09 326.39 138.85 324.05 141.94 318.75 149.82 
M 314.42 156.32 308.89 165.03 303.11 175.06 294.75 187.83 292.14 192.67 
M 290.46 195.89 288.67 199.06 
M 280.38 210.67 276.59 215.6 
M 269.26 224.42 267.33 226.44 
M 345.78 120.88 335.52 133.17 326.37 144.93 315.66 160.98 306.48 176.05 
M 304.42 179.15 299.19 187.24 297.32 190.58 292.4 200.42 291.44 201.98 
M 289.42 205.03 283.02 213.23 
M 277.19 220.17 275.28 222.34 
M 348.61 122.75 335.37 138.85 328.5 147.84 324.45 153.84 310.92 175.34 
M 308.9 178.36 303.72 186.36 300.93 191.51 
M 299.27 194.95 297.69 198.32 
M 294.2 204.74 291.05 209.2 287.83 213.23 
M 279.73 222.31 277.72 224.4 
M 273.89 228.29 271.97 230.1 
M 351.47 124.65 345.96 131.52 337.34 141.79 332.71 147.73 328.66 153.57 319.52 168.29 
M 317.47 171.51 315.42 174.56 
M 311.33 180.51 308.26 185.31 306.29 188.76 303.66 194.02 
M 302.03 197.52 299.59 202.62 297.77 205.82 294.74 210.3 
M 354.28 126.42 350.18 131.76 339.38 144.55 334.86 150.43 330.91 156.43 323.11 169.29 314.73 181.11 312.71 184.29 309.81 189.42 
M 308.01 192.91 306.32 196.43 
M 304.66 199.93 301.1 206.63 
M 293.3 218.06 291.31 220.39 
M 357 128.08 352.3 134.32 343.82 144.28 339.3 150.02 335.08 156.15 329.52 165.62 326.54 170.26 
M 324.38 173.23 320.07 178.95 
M 318.02 181.92 315.07 186.72 313.21 190.09 308.83 198.74 
M 303.43 208.86 301.59 212.02 
M 299.72 214.99 295.97 220.28 
M 294.05 222.57 290.1 226.51 
M 359.68 129.7 354.23 136.82 345.99 146.71 341.54 152.53 337.31 158.85 331.8 168.36 329.77 171.31 324.27 178.44 
M 322.18 181.35 320.2 184.42 
M 318.32 187.62 316.51 190.89 
M 311.19 201 309.38 204.37 
M 307.58 207.73 305.81 211.01 
M 304.03 214.15 302.22 217.09 
M 296.76 224.55 294.88 226.54 
M 292.95 228.3 287.05 232.99 
M 362.36 131.34 348.06 149.22 343.59 155.1 341.41 158.25 339.41 161.47 335.77 167.89 333.82 170.92 327.26 179.45 325.21 182.39 321.42 188.63 317.09 196.71 
M 315.32 199.97 311.7 206.56 
M 309.97 209.89 307.42 214.72 304.79 219.09 
M 303.01 221.74 301.22 224.15 
M 295.71 229.86 293.78 231.41 
M 365.14 133.04 359.65 139.4 353.89 146.62 345.45 157.75 342.37 162.42 
M 338.69 168.74 335.69 173.28 329.19 182 325.35 188.18 322.69 192.93 
M 314.13 208.85 309.99 216.79 308.29 219.67 305.65 223.54 
M 300.25 229.65 298.38 231.27 
M 368.03 134.81 363.5 139.54 359.27 144.44 350.42 156.11 
M 348.28 159 344.31 164.97 
M 342.51 168.03 339.68 172.6 333.23 181.54 331.21 184.63 326.52 192.52 
M 323.06 198.74 320.57 203.29 316.63 211.21 
M 311.76 220.22 310.04 222.86 
M 308.28 225.27 306.48 227.44 
M 370.89 136.69 363.06 144.64 360.87 147.14 356.91 152.18 349.01 163.18 343.6 171.95 338.55 179.44 
M 336.44 182.52 334.37 185.69 
M 332.36 188.89 328.59 195.25 
M 323.58 204.31 320.67 210.37 
M 316 219.52 314.34 222.2 
M 312.62 224.7 310.83 227 
M 373.74 138.59 367.32 144.75 362.57 149.85 358.52 154.84 353.74 161.49 
M 351.86 164.35 345.65 174.39 336.66 188.33 
M 334.63 191.59 329.8 199.46 327.37 203.86 
M 316.87 224.18 315.12 226.58 
M 376.55 140.47 369.22 147.37 364.48 152.41 360.36 157.33 357.5 161.24 
M 355.61 164.03 339.09 191.03 
M 337.05 194.28 335.01 197.44 
M 325.86 214.7 324.36 217.71 
M 379.34 142.26 371.12 150.02 366.52 154.88 362.39 159.72 358.47 165.11 352.31 175.22 
M 348.84 180.93 347.1 183.97 
M 339.57 196.94 337.51 200.01 
M 335.58 202.95 333.91 205.76 
M 329.89 213.92 328.46 216.79 
M 382.08 144.01 375.53 150.2 370.82 155.05 366.54 159.72 362.41 164.86 358.64 170.66 353.49 179.26 351.79 182.1 349.32 186.74 
M 345.94 193.24 344.08 196.43 
M 342.08 199.52 338.15 205.39 
M 335.1 210.81 333.81 213.47 
M 384.81 145.74 379.97 150.42 375.2 155.32 370.8 159.97 366.5 164.83 364.46 167.52 362.53 170.4 355.57 181.91 353.18 186.41 
M 351.59 189.56 347.36 197.5 340.52 207.89 
M 337.48 213.29 336.18 215.93 
M 387.6 147.4 379.62 155.61 369.66 166.33 
M 367.59 168.93 364.67 173.11 361.94 177.45 
M 360.21 180.29 356.98 186.13 
M 353.84 192.34 352.18 195.47 
M 350.41 198.53 348.51 201.56 
M 344.48 207.56 341.74 211.85 339.6 215.87 
M 390.4 149.07 373.93 166.64 
M 371.82 169.09 368.79 172.98 365.92 177.15 
M 364.1 179.97 361.56 184.32 355.19 196.56 352.46 201.06 
M 350.47 204.06 348.4 207.07 
M 393.2 150.74 386.28 158.56 377.16 168.14 372.03 174.27 
M 370.06 176.91 367.19 181.01 364.63 185.43 
M 363.04 188.48 358.13 197.61 
M 352.41 206.44 350.32 209.43 
M 393.24 155.87 388.57 161.3 381.51 168.39 377.3 173.04 373.27 178.02 370.37 182.05 
M 368.57 184.91 365.27 191.06 
M 361.93 197.18 360.19 200.08 
M 393.24 161.4 390.83 164.01 387.19 167.52 
M 384.86 169.77 381.56 173.15 377.47 177.88 373.5 182.99 370.78 187.25 
M 393.24 166.36 384.82 174.34 
M 382.68 176.64 376.61 183.94 
M 374.72 186.6 372.91 189.49 
M 371.18 192.58 369.47 195.79 
M 367.75 198.93 366.42 201.23 
M 393.24 170.63 388.03 175.41 385.84 177.68 381.65 182.49 378.71 186.2 
M 391.25 176.44 389.02 178.72 
M 386.85 181.14 384.75 183.62 
M 380.81 188.61 378.95 191.3 
M 386.81 186.21 384.81 188.76 
M 265.32 100.38 265.99 98.8 268.1 92.45 268.74 88.62 269.39 86.65 270.4 82.51 271.16 80.54 272.23 78.36 274.42 72.58 275.83 70.52 278.17 66.14 280.83 62.2 283.47 56.9 285.32 53.78 286.13 52.75 288.75 52.04 291.15 50.42 292.45 48.87 293.44 47 295.27 44.71 297.02 42.75 300.16 40.05 304.99 37.83 308.27 34.67 312.04 32.58 314.26 30.63 315.73 30 312.87 35.37 312.56 37.73 312.02 39.87 311.7 42.21 311.12 43.86 311.09 45.94 311.38 48.71 309.16 51.84 309.05 54.03 309.23 56.52 308.92 58.2 308.88 60.09 309.43 62.55 310.27 63.98 313.3 67.72 314.53 69.56 315.67 74.09 316.82 76.9 317.22 78.95 316.26 81.87 316.36 84.15 316.71 86.65 316.45 88.52 316.5 90.71 316.98 95.06 317.79 97.38 319.26 99.07 321.3 105.65 321.9 107.2 322.4 107.99 
M 320.98 107.35 320.98 107.35 
M 268.87 100.17 269.79 98.64 270.28 96.66 270.6 94.48 270.66 92.34 273.26 82.07 274.4 80.7 275.25 78.98 276.54 74.27 278.26 72.07 280.73 67.38 283.13 63.87 283.46 62.15 285.84 57.5 286.8 56.15 290.41 53.29 294.86 50.64 296.45 49.21 299.95 45.54 303.03 42.71 307.61 40.34 309.37 38.85 310.8 37.28 
M 272.41 99.97 273.6 98.61 273.9 96.43 273.85 94.28 275.19 89.97 275.97 85.87 276.1 84.08 276.7 82 277.92 80.3 278.58 77.91 279.7 75.87 280.48 73.37 281.52 71.62 283.09 69.75 284.71 67.1 285.03 64.51 286.5 62.84 287.57 61.28 289.19 59.95 289.74 58.32 292.03 56.94 294.61 55.07 296.87 53.12 
M 275.96 99.84 276.84 98.41 277 96.28 279.15 87.62 279.44 83.73 280.39 81.01 281.53 78.84 282.21 76.78 283.85 73.46 285.3 72.34 286.61 69.95 286.7 67.95 287.28 66.84 288.86 65.1 291.05 63.59 292.91 61.7 294.99 60.5 296.8 58.97 301.04 56.43 303.43 54.68 304.62 53.18 305.19 51.39 
M 279.5 99.73 280.03 98.27 281.52 91.68 281.71 89.63 282.22 87.63 283.17 82.14 283.87 80.33 288.61 72.84 288.55 70.97 289.41 69.33 291.33 67.4 293.47 65.57 296.03 63.49 299.64 61.01 301.23 59.67 
M 283.05 99.53 284 95.99 284.66 92.03 285.72 87.57 285.88 84.78 286.24 82.59 287.14 80.67 288 79.62 289.69 76.57 290.86 75.17 291.23 72.91 291.84 70.93 300.92 63.73 301.79 62.95 303.16 60.97 
M 286.58 99.24 286.94 97.85 286.99 95.94 287.99 92.24 288.34 89.94 290.01 82.54 292.12 80.15 295.62 74.43 297.36 72.26 300.31 69.94 301.86 67.8 304.63 67.11 306.91 65.23 
M 290.13 99.16 290.78 97.59 291.93 92.02 294.22 87.33 294.77 85.35 294.74 82.95 296.42 81.05 298.27 80.27 
M 293.64 99.66 294.93 95.7 295.74 93.72 298.13 89.14 299.45 87.53 299.94 85.63 300.76 84.57 302.17 83.49 304.31 82.34 306.3 80.95 308.11 78.71 309.98 77.4 
M 297.15 100.17 299.39 96.7 300.19 94.68 301.61 92.21 303.08 89.98 305.93 86.81 
M 300.6 101.03 302.2 100.13 304.2 95.61 304.99 93.46 307.39 90.87 308.74 90.02 
M 304.04 101.9 305.49 100.47 306.28 98.49 308.81 95.57 
M 307.46 102.84 309.29 101.22 310.65 99.36 312.04 98.14 
M 310.87 103.82 312.52 102.92 313.95 101.68 316.1 100.79 
M 314.25 104.89 316.12 104.87 318.13 104.2 
M 317.59 106.11 322.57 107.87 
M 206.43 180.34 211.47 179.17 213.53 178.48 215.05 177.39 217.53 177.98 221.28 176.48 222.5 175.76 248.15 172.17 253.38 178.03 254.17 179.93 255.11 183.11 255.62 185.67 255.14 187.82 254.24 189.55 253.63 191.56 252.65 193.58 251.1 195.04 247.57 197.53 246.02 199 222.5 197.98 221.41 197.67 219.22 197.61 218.16 196.48 216.15 196.16 213.15 195.21 210.94 193.71 208.64 192.73 207.12 192.28 
M 206.54 181.15 210.63 180.92 213.03 180.23 216.62 179.72 219.27 178.76 221.29 178.62 224.11 177.28 228.79 176.1 230.45 175.41 231.81 175.57 238.18 173.17 241.41 173.2 
M 206.81 183.16 210.75 183.51 213.24 183.51 215.65 183.37 217.47 182.99 219.89 183.11 222.3 182.01 227.87 180.96 231.49 180.78 233.31 181.57 235.54 181.55 237.66 180.99 239.38 180.83 241.32 180.24 243.42 180.14 
M 206.99 185.08 211.13 186.32 215.22 186.08 220.4 186.31 225.21 185.71 227.43 185.73 231.56 184.61 235.38 184.67 237.51 184.86 239.8 184.46 242.02 184.36 247.1 185.7 249.5 185.07 251.57 185.12 253.06 184.7 
M 207.08 187.09 208.61 187.59 210.96 188.82 213.19 188.97 215.23 188.49 217.72 188.68 222.24 189.58 224.47 189.56 226.13 190.38 228.59 190.27 
M 207.15 189.51 208.4 189.91 211.07 191.23 218.29 192.23 221.02 193.05 222.65 192.98 224.04 193.2 227.9 194.72 232.66 196.35 
M 241.47 234.33 243.73 237.05 245.03 239.04 246.98 240.76 249.68 245.24 252.32 249.16 253.18 251.62 255.39 253.3 258.12 255.92 257.18 258.37 254.25 261.45 253.08 263.22 251.69 264.62 251.01 266.74 249.19 270.82 245.86 273.46 243.83 274.42 242.93 275.68 236.62 280 237.75 277.95 237.55 275 238.25 273.9 238.06 271.42 238.07 268.73 236.63 264.68 236.5 262.19 236.88 257.71 236.41 255.31 236.73 253.37 236.3 250.8 236.05 246.34 236.18 244 236.06 241.95 234.34 234.4 233.52 231.73 
M 240.12 233.89 243.68 238.85 246.19 242.65 247.26 245.47 
M 238.78 233.45 240.59 236.58 242.17 238.74 243.17 240.63 245.39 245.29 246 247.82 247.75 252.29 248.92 254.53 250.22 256.54 252.49 257.74 253.6 261.99 
M 237.43 233.01 238.99 236.27 240.62 238.49 241.51 240.43 242.15 242.62 243.36 245.08 244.14 247.45 244.05 250.19 244.71 252.23 245.95 253.85 246.61 256.51 248.62 260.77 248.98 263.23 250.18 265.34 250.68 267.07 
M 236.08 232.57 237.43 235.88 239.72 240.13 240.14 242.38 240.89 244.78 241.08 247.3 241.57 249.08 243.47 254 243.63 255.74 245.51 262.94 
M 234.73 232.12 238.25 242.1 238.72 249 239.06 251.3 239.86 253.83 239.97 255.22 239.89 257.19 240.79 260.44 
M 352.78 213.6 356.31 216.57 358.89 218.22 362.07 220.71 368.48 226.54 367.56 230.73 366.28 232.29 365.55 234.43 364.22 236.07 363.47 238.31 362.36 240.11 361.69 242.33 360.52 244.14 356.46 246.07 354.97 247.6 353.93 249.27 352.54 250.68 350.47 251.56 341.92 253.13 340.46 254.12 338.71 254.92 336.39 255.29 333.62 255.22 331.12 255.45 329.25 256.33 327.89 257.66 326.31 258.78 324.25 258.7 319.83 258.11 315.27 257.12 313.76 257.14 312.03 256.69 301.95 247.52 297.13 241.4 
M 349.87 215.64 352.61 217.91 355.16 219.51 356.86 221.56 358.95 222.6 361.16 223.2 362.61 224.57 
M 346.96 217.67 352.16 221.58 356.07 224.95 357.79 226.2 360.12 226.41 361.92 227.97 
M 344.02 219.66 349.53 223.9 351.42 225.59 352.97 227.66 354.67 229.52 356.39 230.41 
M 341 221.51 343.85 223.71 348.3 226.61 349.9 228.25 352.11 230.92 354.6 232.26 357 233.31 
M 337.97 223.36 342.74 227.28 347.19 230.6 349.19 232.61 351.65 233.99 
M 334.82 225 338.79 228.43 342.83 232.48 345.63 234.96 349.77 237.88 354.12 241.97 
M 331.61 226.5 335.63 230.53 339.66 233.74 343.69 237.86 348.05 240.17 349.75 241.35 350.61 243.48 352.47 245.63 
M 328.4 228.01 332.28 232.05 334.48 234.1 336.57 235.41 338 236.9 339.67 239.38 341.72 241.16 343.91 241.59 348.19 244.31 348.89 246.14 
M 325.18 229.51 329.33 233.78 331.54 235.51 333.09 237.03 339.16 244.01 344.6 247.82 
M 321.96 231 331.62 239.92 332.93 241.91 334.83 243.27 336.39 245.58 
M 318.8 232.62 322.05 234.8 325.85 238.65 329.14 240.76 330.14 242.87 334.11 246.58 335.15 248.4 338.37 248.88 340.29 250.68 
M 315.67 234.29 321.19 238.17 322.96 239.82 324.04 241.2 325.61 242.55 328.12 243.86 
M 312.52 235.92 315.54 238.15 317.57 240.51 319.29 242.13 320.94 243.13 322.91 244.75 324.22 246.59 326 248.62 327.83 250.33 328.77 252.25 
M 309.27 237.35 311.8 239.4 315.91 243.87 319.63 247.25 
M 306.03 238.78 310.19 242.27 312.23 244.77 313.95 247.36 315.71 248.98 317.65 249.85 319.4 251.17 
M 302.65 239.87 304.73 242.92 307.02 244.41 308.93 246.72 310.61 249.18 312.6 251.55 313.52 253.28 315.52 254.09 315.85 255.85 
M 299.23 240.82 301.38 244.2 305.78 248.06 
M 392.53 150.34 395.18 150.58 397.53 150.02 399.8 149.2 403.51 146.64 408.01 145.5 409.35 143.86 409.87 142.46 412.35 142.4 415.14 141.03 415.65 139.76 419.21 139.59 423.16 141.77 425.3 143.24 427.72 145.3 428.88 145.98 433.39 147.66 436.98 152.99 440.4 156.01 442.9 158.78 443.12 159.97 444.92 166.18 446.84 177.79 446.09 179.35 444.82 180.52 443.79 181.94 442.84 183.92 441.51 185.56 440.71 187.64 440.47 190.16 439.99 192.52 438.73 194.26 437.05 195.59 436.33 197.84 435.03 199.47 433.14 200.56 431.08 201.25 426.15 201.91 421.93 203.39 419.73 205.5 416.26 207.08 414.07 205.29 412.77 202.98 411.84 202.32 410.24 200.83 406.49 197.96 404.12 197.07 401.34 195.15 399.82 193.54 397.77 192.45 392.53 189.13 
M 400 151.44 402.22 150.3 404.02 149.16 408.61 147.07 409.88 145.85 412.22 144.35 
M 394.89 154.33 397.43 153.74 400.13 153.4 402.28 152.55 406.32 150.59 411 147.32 412.94 146.92 414.52 145.93 419.86 143.4 
M 394.82 156.17 399.71 155.21 406.37 152.63 408.69 151.33 413.23 149.34 415.8 149.01 417.49 149.54 419.16 148.9 421.33 147.73 423.13 147.68 
M 395.05 158.25 399.87 157.48 401.76 156.74 406.69 155.45 411.5 152.91 413.8 152.9 416.27 152.66 418.12 153.03 420.13 152.47 422.39 151.44 
M 395.22 160.25 401.67 159.13 409.47 157.43 411.68 156.05 413.98 156.14 418.36 155.32 422.18 154.23 424.58 153.86 426.57 153.77 429.34 152.48 
M 397.64 162.24 403.79 161.35 406.09 160.56 408.87 160.26 413.88 159.32 416.29 158.54 417.9 157.59 420.52 157.54 426.23 157.83 428.86 157.54 430.38 157.12 431.95 157 434.27 156.49 
M 399.59 164.31 405.99 164.09 408.62 163.42 420.91 161.2 
M 392.53 165.85 395.66 166.47 399.76 166.16 401.8 166.48 406.22 166.5 413.71 165.99 416.52 165.24 419.29 164.23 421 164.89 
M 399.78 168.26 404.13 168.42 409.06 168.86 411.27 168.83 413.84 169.14 419.09 168.24 423.32 168.65 425.55 167.64 427.65 168.17 430 168.38 431.8 167.65 433.97 167.55 435.17 168.02 
M 399.58 170.62 401.81 170.65 404.28 171.12 406.23 171.7 409.4 171.48 411.73 171.94 413.42 172.06 415.85 171.67 418.61 171.59 420.62 171.11 423.32 171.73 
M 397.86 172.58 400.07 172.73 406.97 173.92 409.4 173.97 411.78 174.29 414.05 174.92 416.02 175.73 418.24 175.39 421.29 176.05 423.27 176.26 424.6 176.14 426.65 176.9 429.48 176.64 431.45 176.83 433.68 177.43 
M 397.83 174.69 399.98 174.97 402.11 175.71 406.78 176.14 412.02 177.04 413.9 177.69 416.09 178.78 418.8 179.78 421.18 179.71 422.83 180.58 430.16 181.27 432.38 181.91 435.12 181.81 437.42 182.78 440.51 183.59 442.69 183.52 
M 392.53 175.55 395.34 176.49 401.85 178.11 404.12 178.55 406.47 178.7 409.47 179.18 411.88 179.97 417.96 182.66 
M 395.36 178.6 400.07 179.88 404.5 181.4 412.14 182.7 414.05 183.7 416.17 185.24 418.17 186.37 419.85 186.85 421.05 188.3 425.6 189.32 428.43 189.09 430.81 188.4 433.23 188.53 
M 397.95 181.53 401.8 183.6 404.01 184.57 406.9 185.07 409.3 184.85 412.19 185.32 415.17 188.06 417.48 189.6 419.88 190.78 422.39 191.32 423.56 191.07 425.89 191.11 427.88 192.6 429.5 193.32 
M 400.06 184.98 401.75 186.41 403.84 187.08 409 187.67 411.04 188.26 412.4 189.55 416.45 192.51 421.48 194.48 
M 399.89 187.2 401.48 188.09 407.95 190.14 409.61 191.44 411.79 192.64 417.51 196.42 423.15 198.13 
M 398.25 187.95 399.85 189.26 401.08 190.01 402.73 191.42 405.21 191.87 407.68 192.95 409.47 194.2 411.73 195.36 415.3 198.11 416.88 198.88 
M 397.66 190.1 399.65 191.09 400.86 192.51 402.68 193.79 405.7 194.72 410.31 197.11 412.63 198.89 413.18 200.07 
M 368.68 135.21 374.46 136.39 377.12 136.76 379.52 136.85 383.69 136.43 385.92 136.36 396.3 137.59 398.51 138.47 399.89 139.95 400.13 141.77 399.07 143.33 396.88 144.15 384.58 145.61 
M 378.32 139.64 380.58 139.6 
M 382.67 139.39 385.92 139.2 392.41 139.94 
M 395.02 140.28 396.3 140.43 398.51 141.3 399.07 141.91 
M 130.2 145.06 132.35 143.83 137.37 141.41 140.67 140.1 159.75 136.2 170.52 133.42 180.19 131.17 187.75 129.83 193.85 129.05 196.98 133.44 198.62 137.99 201.23 147.13 204.26 156.24 205.29 160.84 205.42 165.51 205.1 170.23 205.39 174.9 206.32 179.5 206.94 184.14 207.16 188.81 207.11 193.5 205.95 198.3 204.54 203.11 203.72 207.88 203.3 212.6 201.67 217.45 191.95 217.13 184.76 216.06 178.36 214.11 172.61 211.77 167.13 208.54 161.8 204.8 157.59 200.84 153.75 196.42 150.81 191.6 147.9 186.33 144.93 181.84 
M 187.33 149.87 187.28 153.89 186.53 157.76 186.09 161.33 186.12 164.58 185.95 167.56 185.47 173.31 184.9 176.36 184.59 179.56 185.19 183.03 186.29 186.81 186.44 191.19 179.95 191.86 175.08 192.15 170.4 191.78 165.89 190.95 161.32 189.08 156.73 186.38 153.06 183.09 
M 144.14 181.1 141.28 175.51 138.37 168.96 133.49 159.38 130.61 152.8 128.29 147.99 128.19 146.26 129.52 145.04 131.41 145.12 132.44 146.55 137.64 161.73 140.41 168.35 142.08 173.56 145.27 181.72 
M 144.82 182.15 127.71 176 119.68 173.56 114.61 171.79 112.94 170.99 112.24 169.33 113 167.77 114.72 167.4 116.4 168 130.46 174.41 145.06 181.53 
M 160.07 156.33 158.53 154.17 157.77 151.62 157.88 148.97 158.85 146.49 160.57 144.47 162.85 143.11 165.45 142.56 168.08 142.89 170.47 144.06 172.35 145.94 173.51 148.32 173.84 150.96 173.3 153.56 171.94 155.84 169.91 157.56 167.44 158.52 164.78 158.63 162.24 157.87 160.07 156.33 
M 171.03 146.87 171.97 148.78 172.23 150.89 171.79 152.97 170.71 154.8 169.09 156.17 167.11 156.94 164.98 157.03 162.95 156.42 161.22 155.19 
M 162.97 152.37 162.35 151.51 162.05 150.49 162.09 149.43 162.48 148.44 163.16 147.63 164.08 147.08 165.12 146.87 166.17 147 167.12 147.46 167.88 148.22 168.34 149.17 168.47 150.22 168.26 151.26 167.71 152.18 166.9 152.86 165.91 153.25 164.85 153.29 163.83 152.99 162.97 152.37 
M 163 152.34 163.23 152.56 
M 163.3 150.71 165.84 153.25 
M 164.2 149.7 167.15 152.65 
M 164.93 148.52 168.04 151.63 
M 166.67 148.34 168.46 150.13 
M 151.14 192.14 154.22 195.22 
M 145.05 181.8 146.91 183.65 
M 142.67 175.15 145.09 177.58 
M 140.58 168.8 141.72 169.95 
M 137.58 161.55 139.85 163.82 
M 133.16 148.62 133.58 149.03 
M 132.54 143.74 136.29 147.49 
M 135.42 142.36 138.62 145.55 
M 138.34 141.02 141.86 144.53 
M 141.5 139.92 145.52 143.95 
M 145.01 139.17 148.5 142.67 
M 148.64 138.54 152.01 141.91 
M 152.14 137.78 156.13 141.78 
M 155.65 137.03 158.15 139.54 
M 159.18 136.31 163.41 140.54 
M 162.58 135.45 165.34 138.22 
M 165.96 134.57 169.48 138.09 
M 169.36 133.72 172.52 136.87 
M 172.79 132.89 175.78 135.88 
M 176.24 132.08 179.15 134.99 
M 179.7 131.28 182.79 134.37 
M 183.28 130.6 186.97 134.29 
M 186.91 129.97 189.37 132.43 
M 190.6 129.41 192.98 131.79 
M 161.28 166.87 161.55 167.56 163.12 169.9 163.19 171.06 
M 172.92 205.31 174.06 203.96 178.9 200.86 181.12 199.05 
M 193.83 144.9 194.65 143.46 195.07 142.3 195.41 137.65 
M 193.74 150.75 193.14 153.2 193.19 153.64 193.81 154.9 193.92 155.98 194.29 156.98 
M 200.61 180.97 201.46 179.47 204.48 175.97 
M 147.06 144.56 145.19 144.7 143.06 145.3 141.03 145.54 
M 142.49 156.28 141.19 155.85 140.88 155.5 140.61 154.79 
M 160.43 156.58 159.95 157.56 159.46 158.13 157.18 159.51 154.52 161.7 
M 177.24 158.43 177.23 157.93 177.39 157.62 178.66 156.94 180.1 155.28 
M 158.13 172.45 159.46 172.89 160.34 172.38 
M 156.86 161.93 155.19 162.9 154.53 163.64 152.54 165.07 151.44 165.56 150.16 165.67 
M 177.47 175.33 176.86 174.86 
M 149.66 183.8 150.99 183 152.36 181.78 154.82 181.51 
M 192.04 159.93 191.87 159.32 191.93 159.14 192.09 159.15 
M 136.07 145.38 135.68 145.29 133.95 143.44 
M 169.98 138.1 170.16 135.48 169.59 134.99 168.6 134.91 
M 187.31 190.9 186.55 189.46 186.22 188.23 185.66 187.46 185.15 187.12 183.58 187.03 
M 158.17 199.34 157.8 198.88 157.81 198.15 
M 170.33 165.08 169.88 164.86 167.53 164.39 166.08 164.24 
M 156.96 158.11 156.06 158.54 155.23 159.25 154.44 159.65 153.57 160.45 
M 169.99 203.14 170.71 202.5 171.87 202.06 173.8 201.78 174.65 201.9 
M 184 146.06 185.17 143.32 186.46 141.06 186.72 140.31 188.22 138.46 188.25 138 187.89 137.08 
M 185.92 169.48 186.5 168.91 186.86 168.27 186.81 166.93 186.98 165.94 187.87 163.52 
M 157.74 168.5 158.23 168.7 160.98 171.36 161.6 171.63 162.41 171.64 
M 176.46 213.34 177.37 213.18 
M 169.83 179.1 170.17 178.51 170.69 176.83 171.27 176.01 171.35 174.99 
M 149.05 145.11 148.65 144.43 148.15 143.98 147.42 144.4 146.79 144.55 
M 205.43 192.31 206.26 193.32 206.27 193.57 206.02 193.8 
M 166.19 138.79 165.1 138.18 163.16 136.61 161.66 135.7 
M 177.15 157.53 178.55 156.89 180.04 155.27 180.49 154.68 181.17 152.72 
M 196.91 204.35 196.55 203.51 196.06 202.88 193.57 200.87 192.71 199.65 
M 166.46 204.69 167.67 202.69 167.87 202.09 167.88 201.35 167.26 200.3 166.05 198.98 164.94 198.35 164.2 198.22 
M 164.59 141.74 161.75 140.93 157.57 138.85 156.7 138.65 
M 184.89 135.42 184.72 134.89 
M 193.49 209.3 194.01 208.7 194.07 208.08 192.48 202.25 
M 151.67 137.89 151.94 138.23 151.91 138.69 150.57 140.49 
M 143.8 166.48 142.61 163.71 142.94 162.87 
M 157.28 190.85 159.37 190.36 162.15 191.04 163.15 191.14 163.59 191.01 164.36 190.34 
M 162.41 143.37 161.85 143.09 
M 202.52 180.76 204.37 178.16 204.98 176.6 
M 201.26 195.38 201.61 194.55 201.92 193.1 202.32 192.53 202.9 192.14 203.55 191.98 204.43 192.46 
M 199.81 165.38 200.46 165.58 200.86 166.11 201.22 168.28 200.91 168.64 
M 167.4 195.37 166.67 193.96 166.56 193.18 166.66 192.31 167.08 191.51 168.89 189.55 169.9 187.54 171.09 186.65 
M 157.22 200.41 155.8 198.12 
M 166.11 198.76 164.92 198.14 161.46 197.32 160.64 197.34 
M 152.43 137.72 153.39 137.57 
M 195.05 149.65 194.67 150.56 194.63 151.37 194.85 152.19 195.38 153.25 195.49 155.2 
M 135.18 186.45 132.95 190.16 130.21 193.64 128.55 195.16 126.69 196.43 124.67 197.41 122.56 198.14 118.26 198.93 113.97 199.29 103.35 199.74 101.31 200.01 99.39 200.64 97.7 201.74 96.29 203.21 95.16 204.93 94.33 206.84 92.48 212.94 91.69 214.94 90.71 216.85 89.5 218.64 88.09 220.26 84.81 223.01 81.17 225.22 77.4 227.21 81.14 225.17 84.71 222.86 87.87 220.05 89.21 218.42 90.34 216.64 91.24 214.74 91.96 212.76 93.65 206.59 94.46 204.57 95.62 202.69 97.11 201.05 98.95 199.77 101.06 199.01 103.23 198.65 113.87 197.89 118.05 197.42 122.1 196.57 124 195.85 125.78 194.92 127.4 193.74 128.84 192.34 131.27 189.06 133.32 185.41 
M 132.69 190.52 130.3 194 128.84 195.65 125.52 198.55 123.67 199.78 121.69 200.77 117.62 202.27 113.37 203.32 111.14 203.46 108.91 203.21 106.79 202.57 101.08 200.08 
M 99.24 199.67 96.91 199.56 94.87 199.86 92.91 200.51 91.1 201.5 89.46 202.79 88.03 204.31 84.34 209.5 81.47 212.68 78.21 215.44 73.15 219.34 78.14 215.34 81.3 212.51 84.04 209.28 87.61 203.97 89.05 202.35 90.72 200.95 92.61 199.84 94.67 199.09 96.84 198.71 99.05 198.7 100.95 199.05 
M 103.08 199.77 107.17 201.48 109.14 202.01 111.15 202.18 113.17 201.99 115.17 201.52 119.12 200.14 121.03 199.33 123.71 197.75 
M 130.93 189.57 133.09 185.64 
M 135.11 186.26 135.07 186.39 
M 134.97 186.81 133.87 190.47 132.91 192.52 131.64 194.4 130.13 196.07 128.49 197.54 123.41 201.4 121.89 202.82 105.3 219.33 102.51 222.5 100.04 225.92 93.92 237.11 88.26 246.14 91.62 240.7 93.71 236.99 99.52 225.6 101.94 222.05 104.68 218.75 121.91 200.66 
M 144.89 181.86 145.08 182.29 
M 140.63 174.13 140.45 174.65 140.82 174.53 
M 138.93 170.15 138.59 170.48 138.28 171.15 138.75 170.88 139.25 170.85 
M 137.08 166.4 136.54 166.83 136.11 167.66 136.71 167.22 137.46 167.13 
M 135.11 162.74 134.5 163.18 133.93 164.17 134.67 163.57 135.47 163.42 
M 133.3 158.97 132.46 159.53 131.76 160.67 132.63 159.92 133.64 159.7 
M 131.63 155.11 130.42 155.88 129.59 157.18 130.58 156.27 131.98 155.92 
M 129.9 151.3 128.37 152.23 127.42 153.69 128.54 152.62 130.3 152.14 
M 128.26 147.45 126.33 148.58 125.25 150.19 126.5 148.97 128.48 148.4 
M 144.99 181.71 145.45 181.9 
M 140.92 179.58 141.33 179.49 141.39 179.82 
M 137.15 177.72 137.86 177.35 137.73 178 
M 133.43 175.86 134.39 175.21 134.07 175.74 134.04 176.18 
M 129.66 174.09 130.03 173.59 130.92 173.06 130.42 173.74 130.34 174.36 
M 125.91 172.32 126.39 171.59 127.46 170.92 126.78 171.75 126.61 172.7 
M 122.12 170.62 122.75 169.6 123.99 168.78 123.14 169.76 122.87 170.99 
M 118.37 168.88 119.1 167.61 120.52 166.63 119.5 167.77 119.14 169.22 
M 114.44 167.46 115.46 165.62 117.05 164.49 115.86 165.77 115.37 167.63 
M 117.95 172.98 125.75 179.96 129.91 183.21 134.33 186.19 138.91 188.91 143.74 191.5 153.75 196.42 
M 137.19 186.25 137.78 185.51 
M 130.75 183.77 131.91 181.49 
M 144.04 190.33 145.94 191.95 146.95 193.14 
M 193.87 128.98 200.28 135.39 
M 197.34 126.77 204.89 134.32 
M 200.81 124.57 205.76 129.52 
M 204.28 122.36 212.07 130.14 
M 207.74 120.14 214.8 127.2 
M 211.26 117.98 216.22 122.94 
M 214.84 115.89 222.77 123.81 
M 218.45 113.82 223.32 118.68 
M 222.13 111.82 230.11 119.8 
M 225.83 109.84 232.96 116.97 
M 229.89 108.23 235.08 113.41 
M 233.98 106.64 239.32 111.98 
M 238.29 105.27 244.18 111.16 
M 242.66 103.96 248.64 109.94 
M 247.2 102.83 252.62 108.24 
M 252.03 101.98 258.76 108.71 
M 257.15 101.41 262.92 107.19 
M 262.18 100.78 267.24 105.83 
M 267.35 100.26 273.35 106.27 
M 272.71 99.95 280.04 107.28 
M 278.21 99.77 286.27 107.83 
M 283.6 99.48 291.32 107.2 
M 288.85 99.05 296.76 106.97 
M 295.39 99.91 300.53 105.06 
M 302.72 101.57 310.44 109.29 
M 310.56 103.73 317.76 110.94 
M 319.21 106.7 327.22 114.72 
M 329.35 111.17 334.65 116.46 
M 342.96 119.1 350.62 126.75 
M 358.56 129.02 366.55 137.01 
M 373.95 138.73 378.71 143.49 
M 389.32 148.43 396.4 155.51 
M 216.47 210.83 217.74 213.37 
M 213.9 200.72 220.24 213.42 
M 215.13 198.23 219.58 207.11 
M 220.21 208.38 220.85 209.65 
M 221.48 210.92 223.38 214.73 
M 206.85 176.69 208.43 179.85 
M 216.62 196.24 219.54 202.08 
M 223.35 209.7 225.89 214.78 
M 208.1 174.23 210.66 179.35 
M 219.8 197.63 221.43 200.89 
M 227.15 212.32 228.42 214.86 
M 237.24 232.52 237.5 233.03 
M 210.63 174.32 212.54 178.13 
M 222.45 197.96 223.33 199.71 
M 213.16 174.41 214.43 176.95 
M 225 198.09 225.22 198.53 
M 237.28 222.65 237.92 223.92 
M 200.36 143.83 200.45 144.03 
M 201.09 145.3 202.36 147.84 
M 195.36 128.87 211.23 160.61 
M 197.88 128.94 213.11 159.41 
M 221.36 175.92 221.56 176.31 
M 199.76 127.75 202.3 132.82 
M 203.57 135.36 219.44 167.1 
M 223.25 174.72 223.69 175.6 
M 200.7 124.64 224.5 172.25 
M 202.58 123.44 219.4 157.09 
M 221.31 160.9 223.21 164.7 
M 224.48 167.24 227.02 172.32 
M 228.29 174.86 228.33 174.95 
M 204.46 122.24 206.05 125.41 
M 207.32 127.95 220.01 153.34 
M 227 167.31 228.9 171.12 
M 251.75 216.82 253.66 220.63 
M 206.34 121.04 209.2 126.75 
M 209.84 128.02 222.53 153.41 
M 228.24 164.84 232.05 172.45 
M 232.69 173.72 232.97 174.29 
M 245.31 198.97 246.02 200.38 
M 262.52 233.39 263.16 234.66 
M 208.23 119.83 216.16 135.7 
M 217.43 138.24 219.97 143.32 
M 221.24 145.86 225.05 153.47 
M 228.86 161.09 235.29 173.97 
M 247.23 197.85 247.26 197.91 
M 210.12 118.65 216.15 130.71 
M 219.96 138.32 228.21 154.83 
M 229.48 157.37 233.29 164.99 
M 233.92 166.25 237.1 172.6 
M 212.04 117.52 219.34 132.12 
M 221.24 135.93 234.57 162.59 
M 236.48 166.4 239.65 172.75 
M 264.41 222.26 265.04 223.53 
M 213.96 116.4 216.82 122.12 
M 217.45 123.39 233.32 155.12 
M 238.4 165.28 239.67 167.82 
M 240.31 169.09 240.94 170.36 
M 215.89 115.28 234.61 152.73 
M 256.83 197.17 257.46 198.44 
M 268.89 221.29 270.16 223.83 
M 217.81 114.16 230.19 138.92 
M 230.82 140.19 236.54 151.62 
M 255.58 189.7 257.48 193.51 
M 220.08 113.74 228.33 130.24 
M 228.97 131.51 230.87 135.32 
M 232.14 137.86 239.13 151.82 
M 257.53 188.64 258.8 191.18 
M 261.34 196.26 263.25 200.07 
M 268.96 211.49 269.59 212.76 
M 270.23 214.03 270.86 215.3 
M 223.31 115.22 230.92 130.45 
M 234.1 136.8 241.71 152.03 
M 260.76 190.12 261.39 191.39 
M 264.57 197.74 265.2 199 
M 225.89 115.42 234.15 131.93 
M 236.05 135.74 244.3 152.24 
M 225.63 109.93 229.75 118.18 
M 231.02 120.72 236.74 132.14 
M 237.37 133.41 252.61 163.88 
M 269.74 198.16 270.38 199.43 
M 274.82 208.31 275.46 209.58 
M 276.73 212.12 277.36 213.39 
M 227.7 109.1 231.83 117.35 
M 233.1 119.89 240.08 133.86 
M 240.71 135.13 243.89 141.47 
M 244.52 142.74 254.68 163.06 
M 255.95 165.6 259.76 173.21 
M 271.82 197.33 273.09 199.87 
M 277.53 208.76 278.8 211.3 
M 229.77 108.28 233.9 116.53 
M 234.53 117.8 245.32 139.38 
M 246.59 141.92 256.11 160.96 
M 257.38 163.5 261.83 172.39 
M 273.89 196.51 275.79 200.32 
M 278.97 206.67 281.51 211.74 
M 282.14 213.01 282.77 214.28 
M 284.04 216.82 284.68 218.09 
M 231.84 107.45 251.2 146.17 
M 253.11 149.98 255.65 155.06 
M 260.73 165.22 264.53 172.83 
M 276.59 196.95 277.23 198.22 
M 281.04 205.84 284.85 213.46 
M 235.52 109.83 236.15 111.1 
M 238.05 114.91 253.92 146.65 
M 254.56 147.91 257.1 152.99 
M 262.81 164.42 267.25 173.31 
M 294.55 227.9 295.82 230.43 
M 242.1 118.03 259.24 152.31 
M 267.49 168.82 269.4 172.62 
M 290.34 214.52 290.98 215.79 
M 238.53 105.93 239.17 107.2 
M 239.8 108.47 240.44 109.74 
M 244.25 117.35 244.88 118.62 
M 246.15 121.16 261.38 151.63 
M 264.56 157.98 265.83 160.52 
M 270.91 170.67 271.54 171.94 
M 292.49 213.84 293.76 216.38 
M 297.57 223.99 298.2 225.26 
M 240.36 104.61 246.39 116.67 
M 248.29 120.48 262.26 148.41 
M 264.8 153.49 267.97 159.84 
M 268.61 161.11 273.68 171.26 
M 286.38 196.65 289.55 203 
M 291.46 206.81 295.9 215.7 
M 298.44 220.78 299.08 222.04 
M 242.53 103.99 263.8 146.52 
M 265.7 150.33 268.88 156.68 
M 270.15 159.22 275.22 169.37 
M 276.49 171.91 280.3 179.53 
M 289.19 197.3 289.82 198.57 
M 290.46 199.84 291.73 202.38 
M 294.27 207.46 297.44 213.81 
M 299.98 218.89 301.25 221.43 
M 244.74 103.44 246.33 106.61 
M 246.96 107.88 256.48 126.93 
M 260.29 134.54 266.64 147.24 
M 267.91 149.78 268.54 151.05 
M 269.18 152.32 271.72 157.4 
M 272.35 158.67 275.53 165.01 
M 278.7 171.36 282.51 178.98 
M 289.49 192.94 291.4 196.75 
M 292.03 198.02 293.94 201.83 
M 301.55 217.06 303.46 220.87 
M 246.95 102.89 256.79 122.57 
M 261.23 131.45 268.21 145.42 
M 271.39 151.77 277.74 164.46 
M 281.54 172.08 284.08 177.16 
M 252.01 108.05 259.63 123.28 
M 262.17 128.36 269.79 143.6 
M 272.96 149.94 276.13 156.29 
M 276.77 157.56 278.67 161.37 
M 284.39 172.8 285.02 174.07 
M 254.35 107.75 261.33 121.72 
M 265.77 130.6 270.85 140.76 
M 308.3 215.66 310.21 219.47 
M 256.7 107.49 262.42 118.92 
M 268.13 130.34 273.21 140.5 
M 285.27 164.62 285.9 165.89 
M 308.12 210.33 310.02 214.13 
M 311.29 216.67 315.1 224.29 
M 259.06 107.23 264.13 117.39 
M 268.58 126.28 269.21 127.54 
M 270.48 130.08 274.93 138.97 
M 279.37 147.86 280 149.13 
M 280.64 150.4 281.91 152.94 
M 286.35 161.82 288.89 166.9 
M 290.79 170.71 291.43 171.98 
M 311.11 211.33 311.74 212.6 
M 314.28 217.68 314.92 218.95 
M 258.54 101.24 267.11 118.38 
M 270.29 124.73 270.92 126 
M 272.83 129.8 277.27 138.69 
M 281.71 147.58 282.35 148.85 
M 288.06 160.27 288.7 161.54 
M 260.88 100.94 266.27 111.73 
M 267.54 114.27 269.45 118.08 
M 274.53 128.24 280.87 140.93 
M 283.41 146.01 285.32 149.82 
M 289.76 158.71 290.4 159.98 
M 264.17 102.55 267.98 110.17 
M 268.61 111.44 271.78 117.78 
M 274.96 124.13 275.59 125.4 
M 278.13 130.48 282.58 139.37 
M 283.84 141.91 288.92 152.06 
M 300.35 174.91 300.98 176.18 
M 301.62 177.45 303.52 181.26 
M 265.56 100.36 269.68 108.62 
M 278.57 126.39 284.28 137.81 
M 288.73 146.7 290.63 150.51 
M 292.54 154.32 294.44 158.13 
M 301.42 172.09 305.23 179.71 
M 266.91 98.09 269.76 103.81 
M 274.84 113.96 275.48 115.23 
M 279.28 122.85 285 134.28 
M 289.44 143.16 291.35 146.97 
M 293.88 152.05 297.69 159.67 
M 305.31 174.9 308.48 181.25 
M 268.22 95.76 272.03 103.38 
M 275.84 110.99 279.01 117.34 
M 281.55 122.42 283.46 126.23 
M 284.73 128.77 286.63 132.57 
M 289.8 138.92 292.34 144 
M 296.15 151.62 299.96 159.23 
M 300.6 160.5 302.5 164.31 
M 306.94 173.2 310.12 179.55 
M 268.58 91.51 269.53 93.41 
M 270.8 95.95 274.61 103.57 
M 277.79 109.92 280.96 116.27 
M 284.13 122.61 285.4 125.15 
M 287.94 130.23 288.58 131.5 
M 291.12 136.58 293.02 140.39 
M 298.1 150.54 301.27 156.89 
M 306.99 168.32 312.06 178.47 
M 269.81 89.01 271.72 92.81 
M 272.35 94.08 277.43 104.24 
M 279.97 109.32 284.41 118.2 
M 297.74 144.86 303.46 156.29 
M 310.44 170.26 312.98 175.33 
M 270.31 85.03 271.26 86.93 
M 274.43 93.28 279.51 103.43 
M 281.42 107.24 288.4 121.21 
M 290.3 125.02 292.84 130.09 
M 297.29 138.98 304.9 154.22 
M 315.69 175.8 316.33 177.07 
M 329.66 203.73 330.93 206.27 
M 271.38 82.21 282.49 104.42 
M 283.13 105.69 290.11 119.66 
M 291.38 122.2 295.82 131.08 
M 299.63 138.7 305.98 151.4 
M 326.92 193.29 333.91 207.26 
M 272.57 79.62 284.32 103.11 
M 286.22 106.92 291.93 118.34 
M 293.2 120.88 298.28 131.04 
M 302.73 139.93 307.8 150.08 
M 319.23 172.93 319.86 174.2 
M 328.75 191.98 333.83 202.13 
M 334.46 203.4 336.37 207.21 
M 273.66 76.83 286.68 102.86 
M 287.31 104.13 291.12 111.74 
M 291.75 113.01 292.39 114.28 
M 296.2 121.9 300.64 130.79 
M 304.45 138.41 310.16 149.83 
M 320.32 170.14 322.86 175.22 
M 329.84 189.19 333.65 196.8 
M 336.82 203.15 339.36 208.23 
M 274.8 74.14 289.08 102.71 
M 290.99 106.52 292.89 110.32 
M 294.16 112.86 294.8 114.13 
M 296.7 117.94 302.41 129.37 
M 305.59 135.71 312.57 149.68 
M 320.82 166.18 324.63 173.8 
M 331.61 187.77 334.79 194.11 
M 340.5 205.54 341.77 208.08 
M 276.2 71.97 276.52 72.6 
M 277.15 73.87 285.4 90.37 
M 287.94 95.45 291.12 101.8 
M 298.1 115.76 306.35 132.27 
M 308.25 136.08 313.97 147.5 
M 315.87 151.31 316.51 152.58 
M 323.49 166.55 326.03 171.62 
M 334.91 189.4 336.82 193.21 
M 342.53 204.63 343.17 205.9 
M 278.44 71.47 286.69 87.98 
M 289.86 94.33 294.94 104.48 
M 300.65 115.91 308.91 132.41 
M 310.81 136.22 315.89 146.38 
M 326.04 166.69 327.95 170.5 
M 336.83 188.27 338.74 192.08 
M 278.85 67.33 279.17 67.97 
M 281.07 71.78 286.78 83.2 
M 288.05 85.74 289.32 88.28 
M 291.86 93.36 298.84 107.32 
M 303.92 117.48 304.56 118.75 
M 305.83 121.29 311.54 132.71 
M 312.81 135.25 317.25 144.14 
M 322.97 155.56 323.6 156.83 
M 330.58 170.8 331.22 172.07 
M 280.27 65.21 282.5 69.66 
M 283.13 70.93 286.3 77.28 
M 286.94 78.54 288.84 82.35 
M 289.48 83.62 300.27 105.21 
M 300.9 106.47 303.44 111.55 
M 308.52 121.71 324.39 153.45 
M 332.64 169.95 337.09 178.84 
M 281.55 62.8 288.21 76.13 
M 290.12 79.93 301.54 102.79 
M 302.81 105.32 305.99 111.67 
M 311.07 121.83 326.3 152.3 
M 328.84 157.38 329.47 158.65 
M 333.92 167.53 339 177.69 
M 340.9 181.5 342.8 185.31 
M 282.83 60.38 285.68 66.1 
M 286.32 67.36 286.95 68.63 
M 288.86 72.44 289.49 73.71 
M 290.13 74.98 290.76 76.25 
M 291.4 77.52 303.46 101.64 
M 306.63 107.99 307.9 110.53 
M 312.98 120.69 316.15 127.03 
M 316.79 128.3 332.66 160.04 
M 336.46 167.66 345.35 185.43 
M 284.12 58 288.88 67.52 
M 289.52 68.79 291.42 72.6 
M 292.05 73.87 306.65 103.07 
M 307.29 104.34 313 115.77 
M 313.64 117.04 337.76 165.28 
M 339.66 169.09 340.3 170.36 
M 340.93 171.63 347.91 185.59 
M 285.46 55.72 286.42 57.63 
M 287.05 58.9 306.09 96.98 
M 308.63 102.06 334.02 152.84 
M 334.66 154.11 341.01 166.81 
M 341.64 168.08 343.55 171.89 
M 344.18 173.16 347.35 179.5 
M 287.36 54.54 287.68 55.18 
M 288.95 57.72 307.35 94.53 
M 311.8 103.42 319.41 118.66 
M 320.68 121.2 334.01 147.86 
M 337.19 154.2 337.82 155.47 
M 339.73 159.28 342.27 164.36 
M 345.44 170.71 346.07 171.98 
M 346.71 173.25 349.88 179.59 
M 290.38 55.62 297.36 69.58 
M 298.63 72.12 304.34 83.55 
M 305.61 86.08 306.88 88.62 
M 307.52 89.89 308.15 91.16 
M 312.6 100.05 322.12 119.09 
M 322.75 120.36 335.45 145.75 
M 336.72 148.29 339.89 154.64 
M 341.16 157.18 348.14 171.14 
M 349.41 173.68 352.59 180.03 
M 357.03 188.92 358.93 192.73 
M 291.58 53.05 299.2 68.28 
M 300.47 70.82 301.1 72.09 
M 301.73 73.36 308.72 87.33 
M 315.06 100.02 324.59 119.06 
M 325.22 120.33 329.66 129.22 
M 330.93 131.76 333.47 136.84 
M 334.11 138.11 339.19 148.26 
M 341.73 153.34 349.34 168.58 
M 351.25 172.38 354.42 178.73 
M 359.5 188.89 360.77 191.43 
M 292.75 50.43 298.15 61.22 
M 303.86 72.64 310.84 86.61 
M 312.11 89.15 315.29 95.5 
M 316.56 98.04 317.19 99.3 
M 317.83 100.57 321.07 107.05 
M 321.28 107.48 329.85 124.62 
M 333.02 130.97 341.91 148.74 
M 342.55 150.01 350.8 166.52 
M 294.15 48.25 297.64 55.23 
M 299.54 59.04 300.18 60.31 
M 305.89 71.73 316.52 92.99 
M 324.49 108.93 333.06 126.07 
M 334.33 128.61 348.29 156.54 
M 349.56 159.08 353.37 166.69 
M 295.69 46.37 299.82 54.62 
M 303.62 62.24 311.24 77.47 
M 312.51 80.01 316.64 88.26 
M 327.69 110.38 329.92 114.82 
M 330.55 116.09 346.42 147.83 
M 348.32 151.64 348.96 152.91 
M 351.5 157.98 354.67 164.33 
M 356.58 168.14 358.48 171.95 
M 362.29 179.57 362.92 180.83 
M 297.31 44.63 301.43 52.88 
M 302.7 55.42 303.34 56.69 
M 305.24 60.5 312.86 75.74 
M 314.76 79.54 316.52 83.07 
M 331.04 112.1 331.99 114.01 
M 332.63 115.28 348.5 147.02 
M 358.65 167.33 361.19 172.41 
M 363.73 177.49 365 180.02 
M 370.08 190.18 370.72 191.45 
M 299.04 43.13 303.8 52.65 
M 305.7 56.46 309.13 63.3 
M 310.93 66.9 315.05 75.15 
M 334.48 114.01 350.03 145.12 
M 364.63 174.31 366.54 178.12 
M 369.07 183.2 370.34 185.74 
M 373.52 192.09 374.15 193.36 
M 300.88 41.84 309.22 58.53 
M 337.96 116.01 343.99 128.07 
M 345.26 130.61 352.25 144.58 
M 367.48 175.05 368.75 177.59 
M 370.65 181.39 371.92 183.93 
M 373.19 186.47 373.83 187.74 
M 374.46 189.01 376.37 192.82 
M 302.89 40.9 309.32 53.75 
M 341.56 118.23 344.41 123.94 
M 346.95 129.02 355.84 146.8 
M 374.25 183.61 374.88 184.88 
M 376.15 187.42 376.79 188.69 
M 377.42 189.96 378.69 192.5 
M 304.92 39.99 305.24 40.63 
M 305.87 41.9 309.05 48.24 
M 309.68 49.51 310.77 51.69 
M 345.16 120.47 347.38 124.92 
M 349.29 128.72 357.54 145.23 
M 360.08 150.31 360.71 151.58 
M 375.95 182.05 376.58 183.31 
M 306.65 38.48 308.24 41.65 
M 308.87 42.92 310.78 46.74 
M 348.88 122.93 349.83 124.84 
M 350.46 126.11 366.33 157.84 
M 372.68 170.54 373.31 171.81 
M 382.84 190.85 383.47 192.12 
M 309.88 39.96 310.51 41.23 
M 311.3 42.82 311.78 43.76 
M 352.59 125.39 352.91 126.03 
M 353.54 127.3 373.22 166.65 
M 384.65 189.5 386.43 193.07 
M 311.82 38.88 312.48 40.2 
M 356.16 127.57 358.38 132.01 
M 359.65 134.55 369.17 153.59 
M 370.44 156.13 375.52 166.29 
M 386.95 189.14 388.31 191.86 
M 312.16 34.6 313.25 36.78 
M 359.72 129.73 365.12 140.52 
M 365.76 141.79 368.93 148.14 
M 373.37 157.02 377.82 165.91 
M 389.87 190.02 390.18 190.64 
M 313.89 33.09 314.53 34.37 
M 363.15 131.6 370.45 146.2 
M 374.89 155.09 375.52 156.36 
M 376.16 157.63 380.6 166.51 
M 366.51 133.37 372.54 145.43 
M 376.35 153.04 376.99 154.31 
M 380.16 160.66 382.7 165.74 
M 369.67 134.72 370.01 135.39 
M 370.54 136.45 374.67 144.71 
M 377.84 151.05 378.47 152.32 
M 382.28 159.94 384.82 165.02 
M 372.45 135.3 373.74 137.88 
M 374.27 138.95 376.49 143.39 
M 377.76 145.93 381.57 153.55 
M 382.21 154.82 387.28 164.97 
M 375.17 135.78 377.45 140.34 
M 378.29 142.02 382.73 150.9 
M 383.37 152.17 393.52 172.49 
M 377.8 136.07 380.02 140.52 
M 380.72 141.91 381.1 142.67 
M 381.62 143.72 389.56 159.59 
M 392.1 164.66 396.54 173.55 
M 400.26 180.98 400.48 181.43 
M 380.29 136.08 381.88 139.25 
M 384.4 144.29 384.69 144.89 
M 385.25 146.01 391.28 158.07 
M 394.46 164.41 397.63 170.76 
M 382.66 135.85 383.61 137.75 
M 384.24 139.02 384.88 140.29 
M 386.15 142.83 387.08 144.69 
M 388.79 148.11 392.28 155.09 
M 397.36 165.25 398.63 167.79 
M 389.14 143.84 389.42 144.4 
M 392.64 150.85 393.28 152.12 
M 398.75 158.09 399.38 159.36 
M 390.55 136.73 391.82 139.26 
M 392.45 140.53 394.06 143.75 
M 399.78 155.18 400.48 156.6 
M 394.48 139.63 396.41 143.49 
M 396.5 138.69 398.56 142.81 
M 398.51 137.76 400.11 140.96 
M 238.13 291.39 236.24 297.7 
M 238.13 291.39 240.83 291.39 241.64 291.7 241.85 292 241.97 292.6 241.79 293.2 241.31 293.8 240.92 294.1 239.93 294.39 
M 237.23 294.39 239.93 294.39 240.74 294.7 241.07 295.6 240.8 296.5 239.93 297.39 238.94 297.7 236.24 297.7 
M 245 293.5 244.31 293.8 243.53 294.39 242.96 295.3 242.78 295.89 242.81 296.8 243.23 297.39 243.74 297.7 244.64 297.7 245.33 297.39 246.11 296.8 246.68 295.89 246.86 295.3 246.83 294.39 246.41 293.8 245.9 293.5 245 293.5 
M 249.5 293.5 248.24 297.7 
M 249.14 294.7 250.31 293.8 251 293.5 251.9 293.5 252.41 293.8 252.44 294.7 251.54 297.7 
M 255.53 291.39 255.74 291.7 256.13 291.39 255.92 291.1 255.53 291.39 
M 255.2 293.5 253.94 297.7 
M 258.8 293.5 258.11 293.8 257.33 294.39 256.76 295.3 256.58 295.89 256.61 296.8 257.02 297.39 257.53 297.7 258.44 297.7 259.13 297.39 259.9 296.8 260.48 295.89 260.65 295.3 260.63 294.39 260.21 293.8 259.7 293.5 258.8 293.5 
M 269.6 293.5 268.33 297.7 
M 269.33 294.39 268.9 293.8 268.39 293.5 267.5 293.5 266.81 293.8 266.02 294.39 265.46 295.3 265.27 295.89 265.31 296.8 265.73 297.39 266.24 297.7 267.14 297.7 267.83 297.39 268.61 296.8 
M 274.73 294.39 274.61 293.8 273.8 293.5 272.89 293.5 271.9 293.8 271.43 294.39 271.55 295 272.06 295.3 273.46 295.6 273.98 295.89 274.01 296.8 273.52 297.39 272.53 297.7 271.64 297.7 270.83 297.39 270.7 296.8 
M 280.39 293.5 279.14 297.7 
M 280.13 294.39 279.7 293.8 279.2 293.5 278.3 293.5 277.61 293.8 276.83 294.39 276.26 295.3 276.08 295.89 276.11 296.8 276.52 297.39 277.04 297.7 277.94 297.7 278.63 297.39 279.4 296.8 
M 282.02 297.1 281.63 297.39 281.83 297.7 282.23 297.39 282.02 297.1 
"/></svg>
