<svg xmlns="http://www.w3.org/2000/svg" width="520" height="320"><rect x="0" y="0" width="520" height="320" fill="floralwhite"/><rect x="10" y="10" width="500" height="300" stroke="black" stroke-width="1" fill="none"/><path stroke="black" stroke-width="1" fill="none" stroke-linecap="round" stroke-linejoin="round" d="
M 132.68 110.05 156.03 110.29 167.71 110.78 179.39 111.63 191.06 112.8 214.42 115.45 226.1 116.54 249.46 118.32 272.82 119.75 296.18 120.63 307.86 121.24 342.9 123.61 377.94 125.47 401.3 126.88 412.98 127.87 413.98 128.09 
M 413.98 148.89 412.98 149.17 401.3 150.6 377.94 152.81 342.9 155.17 331.22 156.23 307.86 158.7 284.5 160.94 261.14 163.76 249.46 164.99 241.53 165.46 
M 157.75 166.71 144.35 165.44 132.67 163.52 121.03 161.28 
M 413.4 128.03 401.39 127.94 393.3 128.59 379.3 130.29 376.15 130.39 359.49 130.19 345.26 130.4 321.4 131.55 309.21 131.91 303.37 132.31 
M 299.41 132.58 293.18 132.83 286.39 132.89 
M 281.69 132.91 276.9 132.96 
M 272.07 133.04 262.59 133.26 
M 253.09 133.25 245.64 132.8 235.63 131.78 226.06 130.48 210.27 128.04 
M 206.07 127.52 202.05 127.16 
M 198.27 126.92 194.72 126.73 
M 191.31 126.61 180.64 126.42 
M 176.66 126.41 159.56 126.52 
M 140.41 127.19 134.39 127.72 
M 126.99 155.36 130.96 159.84 
M 131.02 153.21 133.92 156.59 
M 136.79 159.75 138.49 161.53 
M 130.91 145.59 133.31 148.81 
M 139.09 155.99 141.87 159.21 
M 130.55 136.28 134.23 142.14 141.87 152.59 
M 133.22 130.87 136.75 137.08 140.84 143.33 
M 143.65 147.42 144.12 148.09 
M 134.98 123.3 137.37 127.98 140.78 134.07 
M 143.37 138.32 148.86 146.9 
M 137.09 117.09 144.82 131.11 153.55 145.63 
M 137.36 110.06 139.66 112.72 141.73 115.7 155.32 139.46 158.17 144.04 
M 143 110.08 144.6 112 146.61 114.93 158.17 134.5 163.08 142.29 
M 148.56 110.16 151.62 114.28 157.34 123.36 
M 159.91 127.47 168.45 140.91 
M 154.24 110.26 159.34 117.23 168.75 131.3 
M 171.57 135.77 173.85 139.6 
M 160.32 110.47 165.2 116.74 170.57 124.34 176.12 133 179.31 138.89 
M 166.8 110.74 171.16 116.19 176.47 123.81 179.1 128.05 181.61 132.55 183.78 136.95 
M 173.56 111.21 176.95 115.61 179.47 119.31 181.97 123.32 185.48 129.88 
M 180.04 111.69 184.79 118.81 188.16 125.04 
M 186.17 112.31 187.7 114.53 189.96 118.34 192.02 122.47 196.8 133.02 
M 192.3 112.94 195.11 117.96 198.9 126.67 201.81 132.52 
M 198.39 113.66 200.38 117.72 204.34 126.65 207.11 131.99 
M 204.29 114.35 210.15 126.93 212.55 131.45 
M 210.15 114.99 213.79 122.61 217.66 130.07 
M 216.01 115.6 219.93 123.32 224.05 130.82 
M 240.47 154.12 245.36 159.41 246.98 160.84 
M 221.92 116.15 229.09 129.04 233.08 135.52 
M 238.39 143.31 243.88 150.45 
M 228 116.69 235.78 129.76 238.96 134.77 244.01 142.05 
M 250.64 150.69 253.83 154.4 
M 234.33 117.2 242.69 130.48 247.6 137.8 
M 250.91 142.45 255.74 148.83 260.34 154.24 
M 263.34 157.44 265.85 159.91 
M 240.91 117.7 251.24 133.47 
M 254.45 138.17 260.7 146.72 
M 263.7 150.53 269.45 157.33 
M 247.63 118.19 259.48 136.04 267.09 146.6 
M 269.97 150.45 272.7 154.04 
M 254.38 118.65 262.88 131.54 270.6 142.46 
M 273.49 146.56 276.16 150.45 
M 261.01 119.09 269.39 131.58 275.75 140.35 279.88 146.57 
M 267.41 119.45 272.86 127.3 277.68 133.85 
M 280.85 138.21 283.71 142.47 
M 273.64 119.78 280.99 129.6 
M 284.29 133.93 288.84 140.4 294.82 150.23 
M 279.72 120.03 289.09 131.87 292.24 136.16 296.15 142.35 
M 298.5 146.25 302.17 151.69 303.54 153.3 
M 285.83 120.28 291.97 127.71 295.19 131.9 299.4 138.05 
M 292.02 120.49 297.85 127.62 300.85 131.69 304.9 137.7 
M 307.46 141.66 310.06 145.56 
M 312.74 149.31 317.4 155.14 
M 298.19 120.74 303.39 127.34 313.03 141.38 
M 315.76 145.36 318.46 149.13 
M 321.07 152.56 322.86 154.74 
M 304.28 121.06 310.25 129.05 
M 313.1 133.1 318.73 141.23 
M 321.45 145.15 326.54 152.2 
M 310.29 121.4 321.66 137.01 
M 327.07 144.8 329.53 148.45 
M 316.3 121.8 321.58 128.79 
M 324.54 132.77 327.41 136.69 
M 332.6 144.42 334.93 148.1 
M 337.21 151.59 338.61 153.61 
M 322.46 122.22 327.36 128.55 
M 330.28 132.44 333.07 136.32 
M 342.57 151.5 343.88 153.38 
M 328.79 122.67 337.26 134.02 339.85 137.96 343.32 143.92 
M 345.64 147.78 346.83 149.66 349.41 153.19 
M 335 123.09 341.23 131.81 
M 343.81 135.75 348.64 143.77 
M 351.12 147.66 353.64 151.21 
M 340.87 123.48 348.91 135.58 
M 353.93 143.65 359.03 151.02 
M 346.31 123.79 348.81 127.56 
M 351.36 131.45 356.48 139.52 
M 361.78 147.51 364.1 150.86 
M 351.45 124.07 353.69 127.43 
M 356.26 131.35 368.79 150.71 
M 356.44 124.34 362.46 133.29 368.88 143.54 
M 371.24 147.42 373.13 150.5 
M 361.44 124.59 364.7 129.25 367.28 133.31 375.52 147.25 
M 366.45 124.84 369.37 129.3 375.34 139.56 
M 379.86 146.95 381.91 149.86 
M 371.24 125.1 378.54 137.54 382.04 143.05 
M 375.9 125.36 380.57 133.38 383 137.19 385.48 140.77 389.68 146.01 
M 380.66 125.63 385.12 132.85 387.77 136.55 390.6 140.19 395.34 145.67 
M 385.79 125.93 390.09 132.17 393.03 135.93 397.83 141.62 
M 401.25 145.47 403.77 148.23 
M 391.5 126.27 395.5 131.55 403.64 141.38 
M 397.65 126.65 405.98 137.16 
M 412.7 145.39 413.98 146.92 
M 403.91 127.1 413.98 140.23 
M 409.93 127.61 413.98 133.13 
M 133.39 110.05 133 110.42 
M 138.32 110.07 135.49 113.23 
M 142.82 110.08 137.09 116.98 
M 147.1 110.13 142.61 115.56 134.49 126.38 
M 151.45 110.21 147.49 114.8 144.43 118.82 137.99 127.87 134.81 132.8 130.65 140.41 
M 156.16 110.3 152.55 114.18 149.42 118.09 146.31 122.37 141.61 129.43 
M 138.61 134.44 133.3 144.5 
M 128.98 152.7 128.48 153.61 
M 161.12 110.51 157.97 113.76 154.66 117.57 151.48 121.72 148.38 126.21 145.34 131.03 141.1 138.66 
M 133.66 152.81 131.24 156.98 
M 166.23 110.72 160.26 117.16 156.88 121.3 153.69 125.69 150.66 130.37 147.76 135.34 141.22 147.68 
M 171.24 111.04 166.15 116.66 162.66 120.85 159.27 125.3 156.05 129.98 151.7 137.32 
M 148.98 142.28 146.41 147.1 
M 141.59 155.74 139.2 159.5 
M 176.11 111.39 172.1 116.09 165.22 124.82 161.84 129.54 158.62 134.46 154.28 141.88 
M 180.78 111.77 174.61 119.77 167.91 129.03 164.58 133.99 159.85 141.49 
M 185.32 112.22 178.69 121.49 
M 175.55 126.12 165.39 141.47 
M 189.94 112.68 185.52 118.74 174.93 135.48 
M 194.54 113.21 192.28 116.14 
M 186.27 125.19 182.02 132.52 178.09 138.81 
M 199.22 113.76 195.83 117.92 192.6 122.43 189.69 127.17 184.39 136.7 
M 204.11 114.33 201.13 117.7 197.6 122.15 196.01 124.5 
M 193.03 129.3 190.65 133.64 
M 209.31 114.9 202.91 122.04 199.42 126.66 195.53 133.15 
M 214.94 115.5 208.58 122.19 204.9 126.66 200.9 132.61 
M 221.08 116.07 214.51 122.69 210.74 126.98 206.99 132 
M 227.58 116.65 220.68 123.41 216.86 127.59 213.84 131.32 
M 234.38 117.2 227.07 124.22 221.35 130.57 
M 241.36 117.73 233.65 124.98 229.75 129.11 226.68 132.69 
M 248.37 118.24 240.46 125.73 236.46 129.84 231.87 135.08 
M 255.17 118.7 243.38 130.55 237.04 137.68 
M 261.56 119.12 250.32 131.13 238.67 144.37 
M 267.66 119.46 260.79 127.12 249.68 140.23 244.15 146.4 
M 240.57 150.3 239.4 151.56 
M 273.67 119.78 263.51 131.54 256.45 140.47 252.82 144.71 247.35 150.62 
M 279.68 120.03 270.05 131.58 261.18 142.59 
M 257.64 146.79 252.25 152.65 246.87 157.79 
M 243.35 160.82 241.79 162.1 
M 285.69 120.27 276.7 131.66 264.1 146.65 
M 260.57 150.63 257.04 154.36 
M 253.48 157.78 249.94 160.84 
M 291.71 120.48 286.48 127.61 279.85 136.05 270.52 146.57 
M 266.93 150.47 261.72 155.92 258.23 159.23 254.73 162.14 
M 297.37 120.69 294.07 125.65 
M 291.2 129.8 288.07 133.99 
M 280.81 142.47 273.17 150.44 
M 302.63 120.97 295.77 131.89 292.72 136.16 289.21 140.4 283.27 146.58 
M 279.35 150.46 272.26 157.33 
M 307.77 121.24 301.39 131.66 298.56 136.01 295.31 140.33 293.44 142.44 
M 281.71 154.07 278.18 157.34 
M 312.96 121.58 304.04 135.68 301.02 140.04 297.57 144.34 291.76 150.35 
M 318.37 121.94 307.96 137.5 
M 323.89 122.32 316.43 133.04 
M 313.48 137.24 310.47 141.49 
M 303.92 149.74 300.35 153.48 
M 329.38 122.71 317.68 139.21 311.49 147.49 309.85 149.42 
M 306.49 153.14 303.43 156.14 
M 334.71 123.07 320.34 143.23 317.24 147.32 312.46 152.88 
M 339.76 123.4 329.15 138.63 324.46 144.98 
M 321.34 149 318.21 152.7 
M 344.54 123.7 334.76 138.25 330.03 144.6 
M 326.88 148.64 321.56 154.87 
M 349.18 123.95 341.56 135.84 
M 338.63 140.06 335.49 144.23 
M 332.3 148.25 329.18 152.01 
M 353.74 124.2 351.77 127.48 
M 349.31 131.51 345.37 137.74 342.39 141.94 339.24 146.03 334.5 151.69 
M 358.31 124.43 350.47 137.58 346.1 143.83 
M 362.95 124.66 356.71 135.41 
M 354.16 139.56 349.94 145.75 345.24 151.45 
M 367.55 124.9 360.44 137.41 356.65 143.6 
M 353.85 147.6 350.83 151.37 
M 371.92 125.14 369.82 129.31 364.19 139.46 
M 361.78 143.55 359.21 147.53 
M 376.15 125.37 372.17 133.46 366.7 143.55 
M 364.33 147.5 361.96 150.98 
M 380.32 125.61 376.54 133.54 373.39 139.58 
M 371.26 143.56 369.07 147.48 
M 384.54 125.86 380.92 133.35 375.58 143.5 
M 373.44 147.37 371.57 150.61 
M 389.02 126.12 382.15 139.22 
M 379.91 143.25 375.84 150.34 
M 393.84 126.42 391.79 129.89 
M 389.28 134.32 384.49 142.77 
M 398.92 126.73 389.54 142.21 
M 404.13 127.12 400.28 133.22 
M 409.38 127.57 407.24 130.85 400.88 141.45 
M 413.98 128.75 404.23 145.4 
M 413.98 138.06 409.95 145.37 
M 191.06 112.8 191.07 112.8 
M 197.93 113.61 208.69 98.14 212.46 93.39 214.94 91.62 217.69 90.13 219.57 87.79 222.6 86.61 225.96 85.87 228.97 84.77 231.26 82.83 232.57 79.89 233.43 76.49 236.39 76.48 239.23 75.77 242.7 75.32 245.78 74.36 248.26 72.61 250.07 70.23 252.42 68.59 258.81 69.29 262.64 70.61 264.94 70.39 268.32 70.93 270.99 70.66 276.52 71.54 279.7 71.44 282.27 69.82 285.08 69.22 288.51 69.28 291.27 68.17 294.79 68.12 298.8 70.53 300.98 72.33 301.81 73.46 303.31 74.25 306.61 75.46 309.12 77.81 310.69 79.99 313.15 82.81 315.27 83.32 317.27 84.09 320.81 88.83 321.99 90.69 324.45 94.05 327.81 98.3 329.54 100.28 331.43 101.96 335.6 106.55 336.95 109.41 338.89 112.93 337.71 123.27 
M 331.22 122.84 331.22 122.84 
M 196.05 113.39 198.13 112.72 198.82 110.65 
M 201.04 113.98 203.14 112.6 204.72 109.64 207.91 104.4 209.9 103.07 
M 206.02 114.54 207.76 112.87 210.75 107.72 214.49 102.5 
M 211.02 115.08 212.99 113.7 214.63 110.85 216.4 108.54 218.11 102.56 219.92 100.38 220.37 97.29 221.56 94.59 222.96 92.46 224.12 89.97 226.49 86.45 228.1 83.73 
M 216.01 115.6 218.07 113.99 219.51 111.49 220.87 108.87 222.04 105.52 226.03 96.56 
M 221.01 116.06 223.07 114.27 224.59 112.05 227.46 107.04 228.15 104.7 229.81 100.33 230.62 96.38 232.67 93.49 233.84 91.06 234.93 88 234.58 84.87 235.49 80.89 236.66 79.48 
M 226.01 116.53 228.1 114.51 231.55 110.37 232.18 107.72 232.54 105.34 234.11 102.78 236.85 96.98 237.64 93.25 
M 231.01 116.93 233.28 115.11 235.08 112.91 236.29 110.12 237.7 107.57 238.31 105.16 239.91 102.33 241.64 99.87 241.67 96.02 244.08 91.19 244.96 88.87 
M 236.01 117.33 238.54 115.54 240.34 113.14 242.25 107.97 243.64 105.35 244.57 102.73 245.88 100.27 248.11 94.28 
M 241.02 117.71 243.48 115.92 245.04 113.63 246.35 111.18 248.64 105.51 248.99 102.06 253.36 90.13 254.62 86.06 255.91 83.65 
M 246.03 118.07 248.4 116.34 250.91 111.47 252 109.07 252.83 106.11 256.45 97.45 260.62 90.06 261.2 86.88 262.6 84.11 264.38 81.84 
M 251.04 118.43 253.27 116.71 254.43 114.47 255.24 112.48 257.98 106.98 259.51 101.01 261.24 98.56 263.19 95.13 264.82 92.84 265.43 90.26 267.39 85.2 
M 256.04 118.76 259.28 115.28 261.66 110.69 263.87 104.14 264.14 101.19 265.17 98.54 267.09 95.77 268.25 92.92 269 90.58 270.62 86.7 272.3 83.07 274 79.9 274.35 77.49 
M 261.05 119.09 263.1 117.15 263.94 115.18 265.68 109.9 267.3 107.44 267.89 105.15 269.03 102.4 271.22 96.2 273 93.61 273.31 91.17 275.47 87.86 276.92 84.67 277.75 82.33 278.5 78.78 280.38 75.68 281.7 74.27 
M 266.07 119.37 268.02 117.21 268.86 114.41 270.72 109.69 274.08 103.06 275.31 99.78 277.36 96.78 278.73 93.81 278.48 91.36 280.77 88.24 282.19 85.08 282.28 82.09 
M 271.08 119.65 273.03 117.66 277.34 111.21 278.2 108.04 279.29 104.9 280.63 101.96 282.32 99.04 283.08 97.09 283.14 94.26 285.78 88.76 287.49 85.82 288.08 83.05 290.31 77.46 292.25 73.11 
M 276.09 119.88 278.38 117.93 281.2 113.57 284.22 105.29 287.22 99.29 288.79 97.37 289.27 91.29 290.03 88.26 291.48 85.2 
M 281.11 120.09 283.49 118.47 285.03 116.33 287.65 108.67 291.43 103.08 292.57 100.25 293 97.87 292.99 95.01 294.68 88.9 
M 286.13 120.29 288.42 119.08 289.44 116.91 290.6 111.5 292.18 109.28 294.65 106.54 296.87 99.95 297.03 97.52 297.88 95.18 298.04 91.75 299.57 89.26 304.46 84.61 
M 291.14 120.46 293.66 119.08 295.12 116.96 296.86 112.23 298.08 109.55 299.06 106.6 298.99 102.71 299.84 99.48 302.74 95.63 304.17 92.32 307.28 86.95 
M 296.16 120.63 298.67 118.98 300.56 116.86 301.8 114.69 302.17 112.42 303.31 109.85 304.98 103.22 306.67 100.3 
M 301.17 120.89 303.51 119.15 307.04 114.13 309.57 108.74 311.26 105.93 312.31 103.27 312.26 100.36 313.96 98.42 315.87 96.82 317.41 94.78 318.43 92.41 
M 306.19 121.16 308.05 119.52 309.72 117.42 312.37 115.02 313.79 111.69 315.42 108.78 315.74 106.56 316.52 104.37 316.68 102.54 318.64 100.1 
M 311.2 121.46 312.9 119.91 314.71 117.48 316.93 114.89 317.8 112.25 319.19 109.79 319.09 107.3 320.04 105.66 321.61 105.08 323.35 102.41 
M 316.21 121.79 317.92 120.64 320.37 115.26 322.29 112.62 324.94 110.23 325.27 108.06 327.3 106.91 
M 321.22 122.13 323.45 120.96 327.02 116.56 
M 326.23 122.49 329.83 121.87 332.02 120.08 333.42 117.32 
M 141.87 148.14 146.13 148.05 149.41 147.4 154.96 144.96 157.82 144.16 167.49 140.79 170.91 141.22 174.07 139.48 176.8 138.72 179.77 138.92 182.23 137.57 185.67 136.19 188.17 133.88 222.24 130.48 224.39 131.27 227.98 133.5 230.56 134.72 232.43 135.23 236.97 137.34 238.68 144.44 239.26 147.71 239.53 153.27 240.2 156.08 240.49 158.52 241.8 161.98 241.72 165.24 239.74 167.51 237.92 169.95 232.94 173.48 231.2 176 229.02 177.89 225.6 178.02 222.6 178.56 220.22 179.74 217.07 180.14 188.47 183.02 184.35 180.79 182.52 179.57 178.44 177.75 175.06 176.76 173.43 176.05 170.38 175.47 167.85 173.71 165.72 171.35 162.62 169.24 159.33 167.43 155.89 165.87 152.49 163.96 148.95 162.63 145.38 161.51 141.87 159.28 
M 149.09 148.97 158.27 146.94 163.82 145.34 167.49 145.16 170.93 144.69 173.76 143.93 176.72 142.52 179.55 142.47 182.63 141.86 
M 152.3 150.9 161.47 149.24 164.2 149.57 167.13 148.9 170.2 149.07 173.37 148.75 176.69 148.74 180.24 148.07 186.15 148.49 188.92 147.28 
M 145.84 153.21 149.11 153.47 164.66 153.14 170.58 153.17 173.48 153.32 180.36 154.84 186.36 155.13 188.93 154.77 191.84 154.68 200.41 152.91 203.53 152.6 207.31 152.95 211 152.69 213.69 152.28 
M 148.81 155.54 152.25 156.13 158.71 156.47 164.9 157.34 170.64 158.79 182.58 160.38 186.08 160.51 190.28 161.47 197.28 160.72 203.52 161.9 206.96 162.02 211.7 163.72 215.58 163.72 222.6 162.64 225.14 163.15 227.39 164.32 
M 141.87 155.67 145.5 156.91 161.57 160.83 167.52 162.93 170.8 163.74 176.41 164.8 178.69 165.48 182.27 166.06 186.71 167.42 
M 141.87 157.17 145.35 158.96 162.38 164.52 164.79 166.58 167.43 167.99 170.77 169.38 173.47 169.64 175.93 169.24 178.23 169.63 181.16 171.05 188.63 173.67 191.24 175.71 194.46 175.94 198.47 176.65 200.36 178.46 202.59 179.67 204.97 180.41 207.14 179.6 210.08 180.37 
M 179.88 178.39 181.46 180.78 183.71 183.08 186.62 185.24 189.41 187.77 191.7 188.36 194.88 189.96 196.82 192.47 198.99 195.72 201.83 197.01 199.4 209.39 197.96 211.63 196.91 214.42 195.53 216.87 195.1 220.21 193.35 222.16 190.04 230.46 188.38 232.92 186.11 234.3 181.47 241.87 181.2 240.04 180.41 238.06 179.85 237.39 179.25 236.23 177.98 233.19 175.32 224.72 174.95 222.18 172.8 215.99 171.14 210.29 170.23 206.22 167.33 201 167.2 197.81 166.68 194.59 165.42 189.03 164.04 185.52 162.33 183.1 161.2 180.49 159.31 173.57 158.09 170.29 156.03 166.62 
M 174.3 176.43 176.72 178.41 179.18 181.12 181.39 184.06 183.6 186.67 185.2 189.38 186.95 191.52 189.99 191.96 191.16 195.24 192.08 198.5 195.04 201.62 198.16 204.63 
M 170.98 175.58 174.33 178.48 176.49 181.11 180.18 187.55 181.16 190.45 182.65 193.66 185.22 195.12 187.22 197.73 187.27 200.55 189.4 202.03 191.93 204.68 
M 164.19 170.31 166.34 173.59 168.55 176.35 170.87 178.68 172.81 181.38 174.79 184.72 176.1 188.04 177.01 191.85 178.89 194.69 180.13 195.36 181.6 196.72 182.73 199.86 183.76 203.75 187.05 206.47 192.45 211.33 
M 160.64 168.16 162.39 170.58 163.71 173.48 165.37 176.35 167.96 179.18 169.32 181.9 170.32 185.75 171.62 188.93 173.47 192.15 174.58 194.64 175.22 197.37 177.39 201.03 179.27 203.35 181.86 205.41 184.51 209.6 185.67 212.61 186.33 215.37 188.04 218.82 189.34 222.42 191.45 224.4 
M 157.68 166.71 160.15 170.35 161.41 173.51 162.33 176.38 167.52 186.14 168.52 189.17 169.09 192.76 171.95 199.17 172.77 202.22 174.59 205.37 176.19 208.74 179.72 213.88 180.69 216.1 
M 377.94 152.81 382.95 160.32 384.41 165.72 379.91 164.79 376.8 164.93 373.77 165.79 369.87 169.73 366.06 169.69 356.6 171.04 354.96 173.19 352.75 175 349.41 175.78 346.95 177.48 344.11 178.72 340.35 178.99 337.84 180.49 335 181.74 332.85 183.69 329.82 184.81 326.89 185.03 323.63 185.94 321.19 187.7 320.12 190.88 318.51 193.53 315.76 195.04 313.74 197.24 311.52 199.27 307.04 203.86 304.65 207.99 304.87 206.29 302.4 204.11 300.95 201.66 298.24 200.53 294.68 197.79 292.56 193.14 290.62 189.9 289.02 187.9 288.11 187.08 287.28 184.53 285.84 181.76 282.34 174.05 280.42 170.92 278.19 168.18 275.64 165.71 272.82 162.28 
M 372.93 153.18 376.7 157.93 
M 367.93 153.54 372.78 158.54 
M 362.92 153.87 367.69 159.22 370.76 162.41 371.82 165.99 
M 357.91 154.18 362.67 159.14 365.2 163.21 366.81 166.47 
M 352.9 154.5 357.24 159.67 359.89 163.39 
M 347.89 154.83 351.92 160.42 
M 342.88 155.17 346.26 159.58 348.68 163.03 350.76 166.81 
M 337.88 155.63 340.55 159.73 343.06 162.74 
M 332.88 156.08 335.81 160.1 337.98 163.53 340.87 166.86 342.42 170.82 344.06 174.11 
M 327.88 156.58 331.21 162.29 333.55 164.71 335.77 167.49 339.08 170.28 
M 322.89 157.1 326.52 161.94 328.16 164.93 333.61 169.89 335.76 172.94 337.78 176.77 
M 317.9 157.63 321.62 161.66 323.47 164.69 324.74 167.75 328.22 171.44 
M 312.91 158.16 316.66 162.35 320.29 168.91 322 172.89 324.2 174.67 327.49 176.93 
M 307.91 158.7 311.53 162.17 313.67 165.65 315.22 168.95 316.52 172.25 319.18 175.21 321.69 176.07 
M 302.92 159.2 306.43 162.98 313.34 171.75 314.28 174.36 315.79 177.73 
M 297.93 159.7 307.34 172.19 309.03 174.98 309.99 177.65 
M 292.93 160.18 295.6 164.02 300.32 169.96 302.2 172.95 303.71 176.47 304.52 179.94 306.17 182.97 
M 287.93 160.63 290.13 164.45 291.62 167.92 296.06 173.53 297.99 176.82 301.09 183.31 303.23 186.27 
M 282.93 161.12 285.64 165.01 287.18 168.75 288.86 172.28 290.58 175.08 295.09 180.58 
M 277.94 161.69 283.34 167.83 285.18 171.27 286.06 174.71 287.84 177.91 290.85 180.86 292.57 183.25 293.1 185.55 294.34 187.88 296.82 189.82 298.85 193.25 
M 412.98 127.87 416.38 126.93 422.17 124.67 427.75 121.37 430.12 118.86 432.85 117.1 438.87 115.63 441.34 113.6 444.02 112.07 449.49 110.13 455.61 105.39 458.56 104 461.01 102.22 466.16 98.04 469.25 95.06 472.52 93.28 474.35 91.52 476.4 90.86 482.12 89.56 486.11 89.09 488.5 86.38 490 84.09 485.48 98.17 484.2 100.63 483.29 103.54 482.88 107.01 479.8 111.69 480.06 115.17 480.71 118.14 480.16 120.83 478.66 123.2 477.62 126.03 477.76 129.35 477.04 131.62 476.61 134.47 476.17 137.87 476.15 141.46 478.65 146.67 479.82 153.38 480.37 159.69 479.53 161.72 480.67 165.07 486.45 170.06 486.83 172.33 485.66 174.74 484.2 176.85 483.55 179.78 483.67 183.03 484.39 189.56 489.84 203.33 484.65 199.27 480.93 198.22 478.21 195.15 477.01 192.27 473.64 190.78 471.46 189.28 470.1 187.56 464.51 186.04 461.12 183.67 458.16 180.52 455.03 178.8 449.7 176.83 448.26 175.74 441.58 169.23 439.04 168.05 435.81 165.53 429.18 161.18 424.24 157.1 421.78 155.83 419.15 154.08 416.59 151.67 412.98 149.17 
M 419.53 127.2 425.09 125.63 428.19 124.08 430.91 121.86 433.75 120.35 436.64 120.6 439.84 119.79 442.19 118.09 445.91 116.16 448.35 115.4 451.02 114.31 454.29 113.99 457.17 111.84 465.54 107.2 467.74 105.16 
M 422.81 128.32 425.86 128.16 429.15 127.19 432.24 125.29 434.97 124.52 437.75 124 440.94 123.99 443.6 123.04 446.92 121.51 450.07 119.02 453.68 117.16 456.86 116.64 
M 419.96 131.32 423.2 130.83 426.64 130.91 430.06 130.33 432.48 129.34 435.89 128.28 439.03 127.58 441.95 127.37 444.93 126.43 448.25 124.69 452.06 123.21 458.25 119.79 461.72 119.56 464.07 120.26 466.46 119.19 470.03 117.11 472.36 116.85 475.17 115.58 
M 416.98 134.13 419.91 133.93 423.48 133.36 427.19 133.4 439.75 131.4 442.03 130.55 445.69 130.5 449.64 128.64 
M 412.98 135.48 420.31 136.3 424.09 135.96 430.86 134.66 437.68 134.31 440.64 134.74 442.6 134.38 446.87 134.08 450.68 133.08 454.04 130.86 
M 420.82 138.29 424.47 138.35 427.82 138.04 431.53 137.4 434.54 137.46 438.04 137.79 440.58 138.44 447.49 138.69 451.32 138.03 454.16 137.34 456.99 137.21 
M 412.98 138.52 417 139.51 421.18 140.24 424.26 140.43 427.64 140.18 431.76 140.12 435.15 140.91 437.03 141.72 439.85 142.62 442.8 142.52 447.44 142.89 451.28 142.94 453.9 143.94 456.1 143.96 457.73 143.69 460 144.43 
M 412.98 140.04 420.83 142.48 423.89 143.06 427.39 142.97 431.46 143.33 434.53 143.37 437.56 144.29 439.81 146.32 442.85 147.37 449.5 146.84 
M 416.9 143.16 420.4 144.39 423.98 145.29 430.85 146.1 434.28 146.81 437.18 147.89 441.93 150.91 444.82 151.13 447.55 150.75 450.18 149.89 453.06 150.39 456.11 152.27 
M 412.98 143.09 420.37 146.55 423.49 147.81 427.4 148.37 430.82 149.35 434.39 150.04 436.87 150.84 439.18 152.45 441.51 153.8 444.9 154.84 449.69 155.53 
M 412.98 144.61 416.88 146.68 420.14 148.74 423.54 150.19 427.29 151.46 430.36 151.97 433.5 153.09 438.21 155.4 441.67 156.02 445.08 157.25 447.52 159.51 449.22 161.85 451.44 163.28 458.85 163.35 462.85 163.98 465.37 165.56 467.93 166.47 471.03 166.7 
M 423.14 152.33 426.38 153.24 434.65 157.26 437.82 157.78 441.56 158.89 444.71 160.04 446.87 162.71 448.37 165.18 450.64 167.36 456.48 169.45 459.85 171.45 465.84 174.56 468.09 174.71 470.08 173.66 472.49 175.35 476.63 178.67 480.05 179.63 
M 416.8 150.06 419.6 152.47 422.38 154.17 425.31 155.31 427.93 156.65 429.89 158.6 432.62 159.73 436.77 160.94 440.02 162.46 443.18 164.39 445.47 167.02 447.36 169.94 453.49 172.66 455.92 174.29 457.28 176.04 
M 398.98 148.28 397.16 148.66 395.1 148.79 393.16 149.34 387.51 151.91 389.62 151.77 
M 51.44 100.24 55.47 99.95 58.92 100.07 72.89 103.18 85.06 106.35 91.42 107.34 104.45 108.56 111.04 108.85 122.58 109.63 132.68 110.06 135.82 113.6 137.12 116.73 136.87 119.51 135.42 122.02 134.51 124.65 134.48 127.48 132.4 132.68 130.88 135.16 130.09 137.82 130.04 140.65 131.1 146.56 131.05 149.39 129.61 151.89 124.15 159.16 120.96 161.33 110.55 161.31 102.78 160.61 95.83 159.26 89.66 157.13 83.96 154.23 78.72 150.6 74.26 146.13 70.17 141.63 66.39 137.07 60.42 127.59 
M 112.67 117.44 111.51 119.63 109.69 121.55 108.34 123.39 107.59 125.17 107.35 126.95 107.36 130.66 106.35 134.37 106.46 139.01 105.57 141.41 98.71 142.22 93.54 142.54 88.52 142.31 83.67 141.3 78.91 139.38 74.42 136.56 70.58 132.74 
M 59.31 126.48 56.51 121.24 52.48 114.53 46.7 103.66 45.96 101.08 47.26 98.9 49.72 98.57 51.64 100.44 52.58 102.93 53.95 107.74 58.53 119.71 60.96 127.31 
M 58.3 127.52 35.91 121.01 31.29 119.36 30 117.36 30.77 115.14 32.98 114.22 35.33 114.92 37.5 116.06 44.15 119.01 51.09 122.6 59.23 126.44 
M 59.38 126.51 60.67 127.08 
M 82.41 114.52 81.75 112.02 81.94 109.44 82.96 107.06 83.88 106.04 
M 96.56 107.9 97.18 109.29 97.42 111.86 96.81 114.38 95.42 116.56 93.39 118.17 90.95 119.04 88.36 119.06 85.91 118.24 83.85 116.68 82.41 114.52 
M 82.32 114.3 81.8 112.43 81.72 111.46 81.92 109.52 82.59 107.7 83.77 106.01 
M 84.17 113.53 83.73 111.41 84.02 109.51 
M 85.62 106.99 86.19 106.53 
M 86.71 112.59 86.45 111.58 86.65 110.26 
M 87.46 109.01 88.53 108.33 89.55 108.15 90.57 108.31 91.49 108.79 92.2 109.55 92.62 110.49 92.72 111.52 92.47 112.53 91.92 113.4 91.11 114.04 90.13 114.39 89.09 114.4 88.11 114.07 87.29 113.45 86.71 112.59 
M 88.63 108.31 87.99 109.58 
M 87.63 110.31 86.64 112.29 
M 90.17 108.25 87.49 113.6 
M 91.42 108.76 88.67 114.26 
M 92.35 109.9 90.11 114.39 
M 65.64 135.91 71 141.27 
M 59.84 124.09 59.87 124.12 
M 53.4 105.59 54.04 106.23 
M 53.9 100.07 58.57 104.74 
M 60.17 100.32 64.03 104.17 
M 68.03 102.15 71.79 105.91 
M 75.83 103.92 80.49 108.58 
M 98.03 108.05 101.19 111.21 
M 104.57 108.57 107.87 111.87 
M 110.87 108.84 114.96 112.93 
M 117.31 109.27 121.02 112.97 
M 123.77 109.69 127.85 113.77 
M 130.11 110.01 136.03 115.93 
M 130.95 145.79 128.95 144.93 128.08 144.22 
M 85.4 141.64 84.77 142.96 84.02 143.56 82.54 143.7 81.04 143.52 
M 78.79 150.65 79.12 149.88 79.14 149.09 77.9 145.71 77.65 144.34 
M 83.55 133.02 85.14 132.1 88.76 129.31 89.61 128.17 90.71 125.52 91.37 124.43 92.46 123.21 
M 114.53 159.12 114.63 158.19 115.39 155.8 116.43 153.64 116.94 152.2 117 151.42 
M 72.44 103.18 72.08 103.99 71.86 105.49 72.4 109.07 
M 85.17 132.11 88.82 129.35 89.66 128.22 90.73 125.56 91.38 124.47 92.67 122.92 
M 101.28 152.94 97.26 149.51 93.58 147.7 92.01 146.61 
M 69.55 102.71 70.21 106.21 71.89 109.21 
M 117.69 150.38 117.37 149.26 117.06 144.31 117.39 142.68 117.78 141.76 118.14 141.49 118.95 141.36 
M 116.52 153.38 116.98 151.93 116.76 148.98 116.91 146.63 116.67 144.2 117.2 142.2 117.77 141.48 
M 70.59 106.51 71.78 108.53 72.2 109.93 71.36 112.15 69.94 114.52 
M 98.22 131.4 93.83 126.04 92.5 124.71 92.47 124.02 92.75 123.14 
M 85.54 134.99 87.05 135.1 89.77 134.89 90.49 134.73 93.28 133.49 93.89 132.97 94.2 132.37 94.28 131.69 93.64 130.18 
M 126.33 126.81 125.15 125.66 124.35 125.22 122.93 124.74 122.17 124.68 119.55 125.28 116.73 125.62 
M 91 134.35 93.19 133.38 93.81 132.85 94.14 132.26 94.21 131.59 93.98 130.86 92.99 129.18 92.63 128.16 92.04 125.24 92.23 124.21 
M 128.21 114 127.57 113.27 127.49 112.67 128.11 112.27 129.16 112 
M 115.77 143.84 116.63 142.17 117.03 141.68 117.65 141.4 118.88 141.35 
M 127.09 155.21 126.17 155.26 125.34 155.78 124.35 157.52 123.87 159.35 
M 74.15 146.01 74.52 145.18 75.23 144.23 75.79 143.79 76.69 143.5 
M 83.97 154.24 84.04 153.87 
M 96.84 154.42 96.78 153.74 96.48 153.14 95.68 152.1 94.39 151.15 90.96 149.84 89.52 148.69 88.01 146.76 
M 103.56 142.59 103.2 140.61 103.25 139.35 103.75 138.23 104.34 137.49 105.17 136.84 105.61 136.1 
M 86.6 130.18 88.47 127.95 89.32 126.52 91.51 123.59 92.58 122.65 
M 113.59 142.52 112.97 144.1 113.06 144.4 113.43 144.48 
M 80.7 131.69 80.81 130.88 81.58 129.14 82.1 127.27 82.31 124.13 82.07 122.56 81.76 121.99 81.37 121.57 80.42 121.24 
M 83.28 123.8 83.06 122.01 82.61 121.46 80.06 121.17 77.87 121.47 
M 79.42 151.08 79.77 149.95 79.66 149.26 
M 82.51 142.87 81.21 143.04 80.82 142.76 
M 114.02 150.23 115.15 149.05 116.03 147.32 116.2 146.2 115.93 144.29 116.07 143.68 116.92 141.92 117.53 141.45 
M 80.69 105.18 79.68 106.71 78.46 109.71 77.78 110.5 73.51 113.13 
M 90.45 127.07 90.86 125.76 91.44 124.65 92.65 123.06 92.67 122.68 
M 72.7 143.89 73.36 144.35 73.98 144.44 75.47 143.72 77.3 143.24 
M 83.97 139.53 83.54 140.02 83.04 140.24 82.54 140.31 82.05 140.11 
M 70.89 122.03 68.07 121.19 65.77 121.29 65.05 121.5 63.53 122.31 60.28 124.47 
M 102.83 146 101.41 145.38 100.7 144.88 99.89 144.08 98.56 142.11 97.97 140.48 98.1 136.06 
M 106.82 116.47 106.25 115.52 104.98 112.36 105.25 111.46 105.81 110.5 106.89 109.17 107.47 108.69 
M 124.57 117.49 123.63 116.68 122.89 116.29 119.96 115.45 117.75 115.33 114.95 115.57 
M 96.78 152.69 95.62 151.48 94.88 150.97 91.38 149.54 90.61 149.03 87.6 146.05 85.86 145.14 
M 85.55 141.34 85.1 142.65 84.43 143.46 83.28 143.76 81.2 143.62 
M 75.06 109.3 73.86 110.8 72.38 112.18 69.57 115.66 68.72 116.38 66.48 117.67 
M 72.74 116.14 72.1 117.12 71.32 117.92 69.59 119.26 67.48 120.33 64.88 121.11 62.66 122.52 
M 97.23 132.37 96.32 131.1 94.44 129.13 93.78 128.21 92.2 125.05 92.18 124.57 92.72 123.17 
M 80.3 126.57 80.68 125.76 80.78 125.01 80.97 122.86 80.75 121.92 79.99 121.43 77.67 121.49 
M 88.91 123.53 90.27 121.78 90.46 121.25 89.15 119.97 88.04 119.22 
M 71.02 113.9 69.29 115.99 66.55 117.67 64.98 119.38 
M 67.73 132.25 66.88 132.62 65.87 132.83 64.56 132.5 63.5 132.59 
M 97.33 110.81 98.71 108.91 99.93 108.2 
M 77.91 106.39 76.55 109.62 75.92 110.41 73.06 112.82 70.44 115.98 69.15 117.29 67.16 118.59 
M 82.88 132.19 83.84 131.71 84.79 130.93 86.08 129.34 87.53 126.83 88.6 125.49 91.63 122.58 
M 74.25 115.64 72.09 118.22 70.32 119.55 69.5 119.98 65.44 121.01 64.01 121.69 
M 97.27 110.25 98.4 108.83 99.38 108.16 
M 110.54 123.85 110.02 119.67 108.3 116.63 107.01 114.92 105.86 112.03 105.9 111.05 
M 72.43 122.32 71.46 122.45 68.52 121.33 65.64 121.33 64.2 121.95 61.7 123.51 
M 127.9 154.1 127.1 154.03 
M 106.03 133.94 106.25 132.76 106.1 131.18 105.59 129.15 104.94 127.38 104.11 126.41 102.99 125.57 101.51 124.86 
M 100.31 147.73 99.35 147.49 97.18 146.26 95.71 144.7 93.61 141.67 93.32 140.09 93.58 139.2 95.29 136.32 
M 84.45 118.91 82.59 121.05 82.01 121.24 80.64 121.18 
M 104.66 127.4 104.23 126.98 102.44 125.85 99.8 124.76 98.65 124.37 95.52 123.97 94.17 123.61 
M 120.78 114.94 118.53 114.71 115.87 115.03 114.08 115.03 113.23 114.75 112.8 114.31 
M 100.28 150.78 98.81 150.2 96.81 148.86 93.03 146.95 90.81 145.02 89.32 144.1 
M 109.97 139.37 110.54 138.79 111.89 138 112.71 137.2 
M 108.47 121.17 108.07 118.74 106.49 116.01 104.98 112.55 105.03 111.97 105.31 111.31 
M 101.21 109.74 102.99 108.45 
M 118.52 139.18 118.46 140.45 118.63 140.78 119.1 141.2 120.5 141.71 120.83 142.07 
M 73.61 118.37 71.4 120.55 70.51 120.93 68.35 120.82 65.41 121.22 63.14 122.42 
M 108.45 131.78 108.64 129.41 108.52 128.54 107.82 126.93 107.73 125.91 108.16 123.61 108.17 122.38 107.85 119.73 107.57 118.68 106.4 116.88 
M 113.62 115.87 112.9 115.63 111.05 114.35 110.22 113.51 109.91 112.89 109.39 110.94 109.87 109.6 110.5 108.83 
M 123.5 130.7 122.29 129.94 119.61 129.59 116.81 130.05 115.18 130.7 113.23 131.71 112.39 131.85 
M 80.68 123.92 80.75 122.19 80.16 121.55 79.17 121.42 77.52 121.5 76.21 121.82 
M 133.09 118.95 132.14 118.71 130.27 117.42 127.21 114.88 125.69 113.05 
M 96.76 108.34 97.22 107.97 
M 126.83 153.84 125.17 153.36 124.55 153 123.81 151.51 121.92 149.02 
M 91.77 144.56 90.3 143.38 89.18 143.11 87.19 143.45 84.94 144.09 
M 97.35 139.79 97.63 137.25 97.53 134.85 95.89 131.45 93.62 128.58 92.78 126.38 
M 113.08 151.84 114.32 151.21 114.9 150.6 115.78 149.02 116.39 146.96 116.24 143.89 116.85 142.26 117.24 141.65 
M 102.46 155.46 102.26 154.34 101.2 153.01 97.26 149.52 96.59 149.12 
M 101.83 143.46 101.07 141.59 100.94 139.48 101.13 138.62 101.75 137.33 102.32 135.56 102.63 133.23 102.47 131.34 
M 108.53 144.23 107.86 144.64 106.31 144.93 105.87 145.38 
M 63.61 111.06 66.56 113.92 66.7 114.5 66.62 115.06 66.1 116.19 
M 104.46 155.02 104.65 153.62 104.47 152.67 104.23 152.37 99.88 151.08 
M 85.03 119.37 84.23 119.33 82.58 121.07 81.59 121.24 
M 61.4 128.53 60.34 129.44 59.49 130.42 58.15 132.88 56.5 136.95 56.17 138.33 56.07 139.72 56.27 141.11 56.78 142.45 57.57 143.68 58.57 144.77 61.1 146.37 58.44 144.94 57.24 143.97 56.22 142.78 55.46 141.39 55 139.84 54.88 138.23 55.03 136.63 56.15 132.11 57.29 129.08 58.21 127.62 59.27 126.4 
M 60.4 127.6 60.74 128.38 
M 57.08 122.35 56.89 123.03 57.41 122.98 
M 54.14 117.37 53.45 118.59 54.13 118.17 54.6 118.14 
M 51.34 112.35 50.72 112.83 50 114.15 50.96 113.38 51.8 113.23 
M 48.68 107.27 47.55 108.04 46.56 109.71 47.79 108.6 49.19 108.26 
M 46.25 102.08 44.38 103.26 43.11 105.27 44.63 103.81 46.58 103.27 
M 60.51 127.53 61.28 127.83 
M 54.86 124.37 55.52 124.15 55.5 124.66 
M 49.42 121.69 49.75 121.32 50.7 120.83 50.32 121.53 50.3 122.17 
M 44.12 118.99 44.6 118.29 45.88 117.52 45.16 118.51 45.04 119.45 
M 38.65 116.59 39.45 115.27 41.07 114.2 40.01 115.49 39.71 117.08 
M 33.16 114.27 34.3 112.25 36.25 110.89 34.86 112.47 34.37 114.63 
M 38.62 121.77 44.37 126.42 48.37 129.18 55.71 133.62 
M 57.39 134.6 70.17 141.63 
M 55.77 133.4 55.4 133.44 
M 136.21 120.65 136.91 121.34 
M 133.65 110.05 142.92 119.32 
M 141.71 110.08 151.6 119.96 
M 149.85 110.18 158.15 118.49 
M 158.07 110.38 164.62 116.93 
M 166.46 110.73 173.21 117.49 
M 175.08 111.32 183.13 119.37 
M 183.87 112.08 190.45 118.66 
M 192.83 113 201.62 121.79 
M 201.94 114.08 210.99 123.14 
M 210.97 115.08 220.49 124.6 
M 219.88 115.96 228.21 124.29 
M 228.7 116.74 235.13 123.18 
M 237.43 117.45 248.4 128.41 
M 246.1 118.08 252.22 124.19 
M 254.73 118.67 265.14 129.08 
M 263.3 119.22 274.18 130.1 
M 271.81 119.69 278.49 126.38 
M 280.2 120.05 291.8 131.65 
M 288.55 120.37 300.08 131.9 
M 296.89 120.67 304.79 128.58 
M 305.36 121.11 314.59 130.35 
M 313.92 121.64 323.54 131.26 
M 322.54 122.23 331.74 131.43 
M 331.18 122.84 338.54 130.2 
M 339.78 123.4 351.61 135.23 
M 348.31 123.9 358.29 133.88 
M 356.8 124.35 366.52 134.07 
M 365.25 124.78 375.59 135.11 
M 373.75 125.24 385.37 136.86 
M 382.26 125.72 392.49 135.95 
M 390.8 126.23 402.27 137.7 
M 399.37 126.76 410.61 138.01 
M 408.09 127.46 416.79 136.16 
M 417.57 128.9 421.77 133.1 
M 224.48 291.39 222.58 297.7 
M 224.48 291.39 224.99 297.7 
M 229.28 291.39 224.99 297.7 
M 229.28 291.39 227.39 297.7 
M 230.21 295.3 233.81 295.3 233.99 294.7 233.86 294.1 233.15 293.5 232.25 293.5 231.56 293.8 230.78 294.39 230.21 295.3 230.03 295.89 230.06 296.8 230.48 297.39 230.99 297.7 231.89 297.7 232.58 297.39 233.36 296.8 
M 237.38 291.39 235.85 296.5 235.88 297.39 236.39 297.7 236.99 297.7 
M 235.85 293.5 237.95 293.5 
M 239.45 293.5 239.99 297.7 
M 243.05 293.5 239.02 298.89 238.25 299.5 237.26 299.8 
M 247.58 294.39 247.46 293.8 246.65 293.5 245.75 293.5 244.76 293.8 244.27 294.39 244.4 295 244.91 295.3 246.32 295.6 246.83 295.89 246.86 296.8 246.38 297.39 245.39 297.7 244.49 297.7 243.68 297.39 243.56 296.8 
M 255.98 294.39 255.56 293.8 255.05 293.5 254.15 293.5 253.46 293.8 252.68 294.39 252.11 295.3 251.93 295.89 251.96 296.8 252.38 297.39 252.89 297.7 253.79 297.7 254.48 297.39 255.26 296.8 
M 258.98 291.39 257.08 297.7 
M 257.99 294.7 259.15 293.8 259.85 293.5 260.75 293.5 261.26 293.8 261.28 294.7 260.39 297.7 
M 264.38 291.39 264.58 291.7 264.98 291.39 264.77 291.1 264.38 291.39 
M 264.05 293.5 262.78 297.7 
M 266.45 293.5 265.19 297.7 
M 265.9 295.3 266.47 294.39 267.26 293.8 267.95 293.5 268.84 293.5 
M 270.68 291.39 270.89 291.7 271.27 291.39 271.07 291.1 270.68 291.39 
M 270.34 293.5 269.08 297.7 
M 273.68 291.39 272.14 296.5 272.18 297.39 272.69 297.7 273.28 297.7 
M 272.14 293.5 274.25 293.5 
M 277.55 293.5 276.86 293.8 276.08 294.39 275.51 295.3 275.33 295.89 275.36 296.8 275.77 297.39 276.28 297.7 277.19 297.7 277.88 297.39 278.65 296.8 279.22 295.89 279.4 295.3 279.38 294.39 278.95 293.8 278.45 293.5 277.55 293.5 
M 282.97 291.39 281.45 296.5 281.47 297.39 281.99 297.7 282.58 297.7 
M 281.45 293.5 283.54 293.5 
M 285.64 293.5 284.75 296.5 284.77 297.39 285.28 297.7 286.19 297.7 286.88 297.39 288.04 296.5 
M 288.95 293.5 287.69 297.7 
M 294.08 294.39 293.95 293.8 293.14 293.5 292.25 293.5 291.26 293.8 290.77 294.39 290.89 295 291.4 295.3 292.82 295.6 293.33 295.89 293.36 296.8 292.88 297.39 291.89 297.7 290.99 297.7 290.17 297.39 290.06 296.8 
M 295.66 297.1 295.27 297.39 295.49 297.7 295.88 297.39 295.66 297.1 
"/></svg>
