<svg xmlns="http://www.w3.org/2000/svg" width="520" height="320"><rect x="0" y="0" width="520" height="320" fill="floralwhite"/><rect x="10" y="10" width="500" height="300" stroke="black" stroke-width="1" fill="none"/><path stroke="black" stroke-width="1" fill="none" stroke-linecap="round" stroke-linejoin="round" d="
M 162.58 101.42 169.55 97.8 176.87 94.46 184.39 91.58 192.06 89.16 199.85 87.13 207.73 85.49 215.69 84.27 223.68 83.32 239.78 83.05 247.81 82.54 255.86 82.6 263.86 83.53 279.93 84.49 287.94 85.3 311.92 88.13 319.7 90.18 327.18 93.17 341.91 99.66 349.16 103.15 362.9 111.55 375.27 119.59 
M 375.27 186.14 331.07 211.3 323.91 214.98 316.53 218.19 301.23 223.21 293.67 225.98 286.02 228.45 278.14 230.12 262.18 232.25 254.17 232.99 246.12 232.7 230.3 229.72 222.52 227.67 214.84 225.26 207.33 222.37 192.64 215.78 185.16 212.8 171.11 208.19 
M 207.04 137.36 210.27 137.92 
M 216.42 138.67 222.5 139.27 
M 225.55 139.6 228.56 139.9 
M 231.54 140.13 236.16 140.59 247.72 142.15 
M 251.11 142.62 252.79 142.83 258.63 142.84 261.74 143.06 277 144.91 
M 280.6 145.5 282.39 145.77 285.57 145.9 286.95 145.74 
M 289.74 145.44 291.16 145.32 308.95 145.31 
M 312.1 145.26 313.61 145.17 321.01 143.32 335.37 142.76 344.88 143.07 347.87 143 350.57 142.75 357.76 141.28 362.71 140.64 368.31 140.71 375.27 141.31 
M 168.35 104.78 166.91 109.56 
M 171.32 112.45 169.63 118.43 
M 178.59 105.71 177.37 108.26 
M 175.55 117.76 175.39 119.52 174.75 122.76 174.29 124.26 
M 171.39 133.34 170.77 135.57 
M 171.51 153.78 171.98 156.88 
M 172.41 162.52 172.51 165.19 
M 173.08 170.55 173.14 170.86 
M 174 174.19 175.12 177.74 
M 179.71 195.82 180.72 199.23 
M 182.31 205.21 182.92 208.02 
M 183.32 210.79 183.44 212.19 
M 185.41 106.58 184.42 109.33 
M 182.17 118.3 181.54 121.49 
M 180.73 124.54 178.71 130.38 
M 177.76 133.41 176.91 136.44 
M 178.58 157.35 178.9 161.63 179.17 163.2 
M 180.56 169.75 182.22 176.43 
M 188.26 203.51 188.65 206.22 
M 189.02 208.93 189.54 214.12 
M 192.99 108.54 192.35 109.77 190.94 113.89 
M 190.11 116.78 186.68 128.58 
M 184.61 134.95 183.96 136.86 
M 185.74 158.9 186.25 162.07 
M 187.74 168.8 189.4 175.5 
M 194.43 202.3 195.1 207.94 
M 195.69 213.54 196.23 217.33 
M 204.56 99.71 202.46 105.23 
M 201.4 107.93 200.35 110.59 
M 199.37 113.28 196.39 121.42 
M 195.4 124.2 194.51 127.12 
M 192.62 132.93 191.82 135.48 
M 193.98 162.07 194.82 168.2 
M 195.51 171.49 195.54 171.64 
M 201.82 210.5 202.2 213.54 
M 202.6 216.63 202.97 219.57 
M 213.53 99.9 212.31 102.54 
M 211.06 105.1 208.79 110.33 
M 205.92 118.49 204.86 121.14 
M 203.83 123.83 202.79 126.55 
M 201.75 129.29 199.59 135.09 
M 201.27 164.64 201.75 167.75 
M 209.26 209.56 208.89 215.14 208.98 216.64 
M 209.3 219.8 209.83 223.33 
M 215.96 116.31 213.99 121.69 
M 212.94 124.34 211.85 126.98 
M 207.06 136.55 206.64 137.28 
M 208.22 161.69 209.63 168.36 
M 215.94 210.66 215.91 211.29 
M 215.81 214.04 215.81 219.88 
M 215.9 223.44 215.98 225.54 
M 231.58 97.25 230.78 100.4 
M 229.86 103.39 227.02 112 
M 225.22 117.61 224.26 120.32 
M 223.2 122.95 221.46 126.78 216.82 135.27 
M 215.63 137.53 215.08 138.54 
M 215.14 153.31 215.12 155.96 
M 215.35 158.84 215.79 161.92 
M 223.12 214.48 222.78 220.07 
M 222.77 223.04 223.02 226.1 
M 239.71 97.31 239.45 99.03 238.96 100.52 
M 234.84 111.82 232.38 122.34 231.47 125.15 230.26 127.67 228.05 131.06 
M 225.07 135.61 223.2 139.33 
M 229.2 197.32 230.14 202.78 
M 230.64 211.88 230.68 214.86 
M 230.48 217.63 230.13 221.76 230.17 223.3 
M 247.74 96.69 247.44 98.37 246.19 102.99 
M 244.25 108.76 243.23 111.53 
M 242.27 114.31 240.67 120.11 
M 237.93 128.53 236.78 131.13 
M 234.1 135.97 231.22 140.11 
M 231.1 151.94 230.93 154.43 
M 235.96 192.96 236.1 193.61 
M 236.74 196.94 237.16 201.5 237.26 208.73 
M 237.56 214.88 237.72 218 
M 238.8 228.72 239.26 231.37 
M 256.86 97.8 256.69 99.59 256.32 101.17 
M 253.41 109.81 251.11 116.89 249.53 120.85 
M 248.33 123.37 241.87 135.69 
M 240.75 138.35 239.92 140.41 
M 239.66 153.18 239.21 156.77 239.16 159.4 239.61 166.55 
M 243.04 188.35 243.41 192.65 243.53 198.17 243.77 199.79 
M 244.31 203.13 245.06 208.11 245.13 209.62 
M 245.63 215.9 246.74 222.84 
M 247.29 226.3 248.03 230.5 
M 263.43 101.23 263.33 104.98 
M 262.94 108.41 261.87 113.02 260.21 118.82 259.14 121.45 258.46 122.64 
M 257.08 125.01 250.92 135.9 250.4 137.29 
M 247.61 150.87 247.61 152.23 248.56 158.66 248.56 160.03 
M 247.51 167.18 247.63 171.37 248.02 175.78 
M 249.05 182.11 249.97 186.93 250.56 194.08 
M 250.86 197.06 251.8 203.48 
M 252.4 206.86 255.7 221.42 
M 256.3 224.85 257.39 232.69 
M 269.4 118.4 269.03 119.88 267.97 122.55 265.31 127.43 263.59 131.44 
M 262.38 134.08 260.94 136.5 
M 259.36 138.79 258.56 139.92 256.96 142.87 
M 255.82 165.5 255.77 168.22 
M 255.54 170.76 254.93 174.27 254.88 175.58 
M 255 178.39 256.91 192.11 257.76 196.94 
M 258.59 200.45 260.56 207.83 
M 261.75 214.46 262.75 220.92 
M 263.26 224.16 264.41 231.28 
M 280.02 95.08 279.87 98.69 
M 279.85 102.43 279.85 106.2 
M 279.17 113.02 278.86 114.57 277.58 118.88 
M 276.63 121.65 273.85 128.34 271.97 134.21 270.78 136.93 269.2 139.29 268.29 140.34 
M 266.38 142.5 265.39 143.6 
M 263.52 160.38 263.07 162.82 
M 262.43 167.89 262.19 170.48 
M 262.09 175.94 262.43 181.68 
M 262.76 184.65 264.08 192.46 265.4 197.7 
M 266.46 201.39 267.99 206.87 270.73 220.13 272.73 227.35 273.46 230.78 
M 289.51 97.4 289.26 100.86 
M 289 104.33 288.68 109.6 288.25 112.9 287 119.09 285.76 123.46 
M 283.74 129.09 281.11 134.28 
M 279.72 136.85 278.23 139.36 
M 275.02 143.67 274.33 144.49 
M 271.31 163.61 270.73 167.44 270.47 170.08 270.5 171.53 
M 271.11 177.79 271.68 183.82 
M 271.93 186.7 272.1 188.18 272.85 191.51 275.03 198.84 275.73 202.11 276.44 207.95 277.46 212.8 
M 278.97 219.37 281.28 229.46 
M 297.88 95.09 297.84 98.74 
M 297.05 105.34 294.47 119.47 292.19 126.67 
M 291.28 129.65 289.73 134.03 286.48 140.89 
M 284.81 144.09 283.81 145.91 
M 280.64 162.43 280.06 164.88 
M 279.31 170.1 279.21 171.47 279.4 174.57 279.69 176.29 
M 280.34 179.78 282.13 189.7 
M 282.73 192.89 284.47 199.72 
M 285.07 202.86 285.25 204.3 285.02 209.09 285.29 211.84 286 216.25 
M 286.4 219.09 287.55 226.31 
M 304.66 98.43 303.99 108.83 
M 303.07 115.31 301.21 122.8 299.27 128.61 295.84 137.24 293.78 141.38 
M 291.3 155.94 291.24 157.43 290.93 158.68 
M 288.96 177.95 290.13 184.77 
M 290.92 188.28 291.71 191.72 
M 292.37 194.96 293.18 200.83 
M 293.26 203.41 293.23 205.86 
M 293.15 210.68 292.7 216.27 292.69 218.66 293 221.73 
M 312.02 98.82 311.28 103.6 310.37 113.8 309.19 120.08 308.45 125.08 
M 306.82 131.34 304.07 138.8 302.71 141.62 300.14 145.37 
M 298.52 160.98 298.09 163.69 
M 297.93 166.64 298.08 169.87 
M 298.42 176.25 298.52 180.74 299.19 185.63 
M 299.92 189.1 301.1 194.23 301.57 197.23 301.55 198.48 
M 301.33 200.75 300.25 205.82 299.79 212.59 299.86 218.62 
M 320.11 108.68 319.49 111.77 
M 318.69 114.69 317.34 118.94 316.63 122.02 315.63 128.82 314.59 131.79 312.56 135.91 
M 311.38 138.89 309.22 144.42 
M 306.33 163.33 306.24 166.36 
M 306.31 169.53 306.48 175.73 
M 306.63 178.81 307.07 183.54 307.57 186.79 308.72 191.91 
M 309.38 195.12 309.64 196.63 309.69 199.16 309.28 202.42 
M 308.94 204.49 308.31 207.46 308.07 209.6 308.32 212.21 309.6 217.88 
M 327.38 115.41 326.09 119.72 322.24 127.45 321.14 130.35 318.21 139.82 316.46 144.46 
M 315.54 160.71 315.38 163.65 
M 315.4 166.74 315.62 177.37 315.08 182.44 315 185.05 316.27 193.96 316.65 198 
M 316.92 200.68 317.5 206.06 
M 317.84 208.78 318.91 215.57 
M 336.22 109.25 335.85 112.6 
M 335.56 116.04 335.41 117.75 335.04 119.25 
M 334 121.97 333.33 123.18 329.89 127.49 329.13 128.71 
M 326.41 134.05 325.28 137.04 
M 323.96 140.85 323.18 143.11 
M 323.58 160.22 323.46 163.09 
M 323.53 166.13 323.87 169.39 
M 324.33 172.73 324.56 174.38 324.59 177.21 324.06 179.43 323.35 181.39 322.89 183.56 322.65 185.87 322.66 188.39 323.03 191.2 324.82 199.03 
M 325.55 202.17 326.55 206.78 327.26 211.39 
M 341.82 118.5 340.71 123.02 339.67 125.8 338.31 128.28 333.68 135.52 332.35 138.26 330.89 142.96 
M 331.17 162.06 331.52 168 
M 331.68 170.89 331.53 178.7 
M 331.5 181.24 331.74 185.24 332.13 188.09 333.46 195.5 
M 334.41 201.33 334.59 204.15 
M 347.74 117.28 347.41 118.82 346.62 125.55 345.96 128.69 345.11 131.66 344 134.41 342.62 136.93 338.87 142.82 
M 338.57 149.44 338.5 152.11 
M 338.64 154.97 338.87 157.9 
M 338.94 160.64 338.61 165.58 
M 338.7 170.83 339.29 175.23 341.18 184.57 342.73 193.47 343.79 201.16 
M 354.13 117.45 353.59 120.64 
M 353.17 123.94 351.98 132.06 351.24 135.07 350.17 137.78 347.29 143.02 
M 347.41 154.73 347.36 157.2 
M 347.16 159.5 346.99 161.82 
M 346.99 164.29 347.33 168.31 347.76 171.18 350.14 183.35 352.03 195.69 
M 360.99 114.54 358.06 128.14 356.01 135.15 
M 355.29 138.08 354.19 142.03 
M 354.43 153.06 354.77 156.93 355.21 159.71 357.23 168.76 357.76 174.03 359.27 185.36 360.21 190.34 
M 365.28 123.73 364.49 128.25 363.09 133.85 362.23 136.47 360.51 140.83 
M 360.75 148.96 361.61 152.04 
M 363.86 158.73 365.34 163.55 366.03 166.51 366.98 172.06 367.43 176.08 
M 367.62 178.71 368.21 185.27 
M 361.27 158.79 362.29 158.97 363.11 159.78 363.37 160.42 363.5 161.73 363.78 162.57 
M 231.86 213.93 232.64 213.57 233.99 213.3 234.57 212.88 234.88 212.05 234.43 210.55 
M 283.22 205.74 282.59 205.45 282.15 204.99 280.66 201.57 280.2 201.21 279.48 201.11 
M 178.6 209.76 177.85 210.23 177.51 210.22 
M 177.35 210.17 176.78 209.73 176.49 209.23 175.46 206.57 173.88 204.97 
M 268.61 161.93 271.12 160.31 271.96 159.52 272.89 157.86 272.9 156.5 
M 338.71 105.76 338.37 106.29 338.3 107.06 339.35 109.02 339.32 109.66 338.98 110.08 
M 347.09 172.16 345.38 171.58 342.95 171.37 342.36 171.58 341.06 172.69 340.35 172.99 
M 309.48 105.57 308.1 105.98 305.94 106.9 305.41 106.98 304.7 106.83 303.77 105.72 
M 169.98 99.07 168.17 98.52 
M 275.56 127.58 275.86 127.77 275.92 128.48 
M 217.29 91.98 216.93 92.59 216.3 93.04 216.14 93.51 
M 275.82 220.14 276.4 220.63 278.16 221.28 279.51 221.54 279.98 221.45 281.13 220.49 281.44 220 281.76 218.98 
M 332.74 168.13 333.52 167.95 336.74 165.78 
M 263.95 192.97 265.36 194.08 265.97 195.44 
M 342.36 122.42 340.82 119.17 340.32 118.89 339.24 118.72 
M 184.11 145.43 186.39 145.24 189.29 144.45 190.81 143.68 191.36 143.07 
M 177.24 167.37 176.51 167.61 175.33 167.46 173.71 166.43 172.37 165.78 
M 297.96 97.13 297.53 96.34 295.11 95.4 294.02 94.35 
M 289.32 172.17 289.26 171.52 289.62 170.08 291.56 166.78 292.2 164.81 292.81 164.11 
M 204.17 158.82 204.25 160.37 203.54 162.45 202.54 164.53 
M 367.77 148.15 369.01 148.47 371.2 148.07 
M 235.42 209.16 235.27 207.9 233.47 203.24 233.36 202.35 233.63 201.05 
M 323.36 158.67 319.96 158.35 
M 277.58 144.81 276.78 143.86 276.51 142.84 276.72 142.05 277.61 140.91 
M 277.88 127.76 278.44 129.56 278.47 130.22 278.08 132.66 278.39 133.12 278.89 133.26 
M 308.36 184.2 305.57 186.26 305.13 186.81 304.95 187.43 305.05 188.08 305.55 188.97 307.14 190.53 
M 364.59 132.83 364.46 133.52 363.91 134.78 363.47 135.29 361.4 136.73 361.13 137.14 360.85 138.16 
M 290.42 114.76 290.27 113.64 290.68 111.59 290.81 110.03 
M 334.36 191.87 332.41 191.51 331.34 191.47 327.91 192.21 327.08 192.19 326.35 191.92 325.24 191.08 
M 166.77 106.33 165.64 105.96 
M 220.79 82.67 254.7 30 255.34 30.39 223.56 83.33 
M 232.06 82.43 257.1 39.31 257.75 39.68 234.77 83.1 
M 243.33 82.11 261.47 48.32 262.14 48.66 246.09 82.62 
M 254.64 81.96 268.65 57.56 269.32 57.92 257.26 82.76 
M 265.87 83.11 275.51 66.5 276.18 66.85 268.53 83.8 
M 277.13 83.83 282.77 73.76 283.46 74.07 279.76 84.48 
M 288.37 84.93 291.32 80.64 292.01 80.94 290.94 85.64 
M 296.98 86.07 298.24 86.57 
M 252.12 35.76 251.74 37.8 251.8 39.7 252.52 41.4 254.59 43.63 
M 255.42 44.09 255.52 46.25 256.01 48.19 257.1 49.79 259.65 51.7 
M 260.5 52.12 261.26 54.5 262.37 56.59 264.01 58.23 267.25 60 
M 268.09 60.45 268.78 62.78 269.82 64.83 271.4 66.43 274.55 68.16 
M 275.39 68.6 276.79 71.62 278.18 73.13 280.04 74.12 282.21 74.77 
M 283.07 75.16 284.94 78.18 286.6 79.63 288.68 80.53 291.02 81.07 
M 291.89 81.45 292.58 83.29 293.56 84.79 294.99 85.75 297.79 86.4 
M 251.9 36.79 251.7 38.78 251.8 39.7 252.52 41.4 253.83 42.91 
M 249.06 42.21 248.89 43.96 248.98 44.78 249.61 46.28 250.77 47.61 
M 246.23 47.63 246.07 49.15 246.15 49.86 246.71 51.16 247.7 52.32 
M 243.39 53.05 243.33 54.94 243.8 56.04 244.64 57.02 
M 240.56 58.47 240.5 60.02 240.89 60.92 241.58 61.73 
M 237.72 63.88 237.68 65.1 237.98 65.8 238.52 66.43 
M 255.44 45.18 255.69 47.26 256.01 48.19 257.1 49.79 258.73 51.1 
M 253.12 50.46 253.34 52.25 253.61 53.05 254.55 54.43 255.95 55.55 
M 250.81 55.75 251.21 57.91 252 59.07 253.18 60.01 
M 248.49 61.03 248.82 62.77 249.45 63.7 250.4 64.46 
M 246.17 66.31 246.42 67.63 246.9 68.34 247.62 68.91 
M 260.86 53.33 261.76 55.6 262.37 56.59 264.01 58.23 266.11 59.46 
M 258.37 60.18 259.06 61.91 260.11 63.35 260.78 63.93 262.39 64.88 
M 255.88 67.02 256.69 68.76 257.56 69.63 258.68 70.29 
M 268.41 61.64 269.24 63.86 269.82 64.83 271.4 66.43 273.44 67.64 
M 265.98 69.17 266.9 71.25 267.92 72.29 269.24 73.07 
M 275.8 69.67 276.79 71.62 278.18 73.13 279.06 73.68 281.11 74.46 
M 173.58 178.82 178.86 177.77 183.95 176.06 186.13 175.64 188.27 175.87 189.48 175.47 196.03 171.34 199.72 170.9 226.51 164.54 228.33 164.76 232.79 166.03 235.52 167.16 237.32 167.73 241.6 172.08 243.42 174.26 242.9 178.05 243.2 179.95 245.54 184.58 239.74 191.5 237.84 192.8 235.15 193.02 233.36 194.14 231.28 194.96 229.73 196.32 228.63 198.41 228.78 200.8 228.63 202.88 227.81 207.13 227.02 209.33 225.37 210.88 224.52 212.07 199.66 207.99 197.62 205.87 195.88 204.54 194.15 201.88 192.41 200.11 189.46 199.56 183.1 197.58 181.02 196.37 175.38 193.93 
M 178.69 178.86 183.4 177.38 185.46 176.99 187.99 176.95 189.9 176.38 192.03 175.34 196 173.76 198.57 173.27 202.19 173.15 211.53 168.34 213.58 167.69 215.52 167.51 
M 173.86 181.24 183.41 179.98 185.93 179.28 188.17 179.16 197.5 176.97 199.58 177.12 202.58 176.87 205.64 176.4 
M 174.05 182.51 178.99 182.52 183.76 182.15 190.82 180.91 198.06 179.99 203.01 180.19 205.87 179.93 207.44 179.55 218.9 178.5 221.39 177.62 225.58 176.74 227.93 175.45 230.14 175.26 
M 174.27 183.93 176.52 184.02 179.14 184.34 183.9 184.33 188.83 183.88 193.69 183.15 195.97 183.2 198.83 182.91 201.07 182.42 203.4 182.33 206.21 182.58 208.08 183.35 209.45 183.66 211.79 182.36 214.19 182.17 219.45 182.74 223.7 182.56 225.97 181.98 227.96 181.75 232.35 180.53 234.02 181.19 236.62 181.18 240.27 179.86 
M 179.15 185.98 181.39 186.41 186.03 186.07 188.73 186.19 193.73 185.64 196.19 185.5 198.72 185.68 203.26 185.47 205.53 185.18 208.93 186.35 210.86 186.33 213.61 186.58 216.62 186.54 222.65 187.95 224.71 186.61 226.08 185.42 228.22 184.97 233.58 186.49 235.5 186.33 
M 176.81 187.12 181.4 188.27 186.3 188.48 188.23 189.34 193.54 189.5 203.58 189.22 205.79 189.43 
M 176.93 188.65 186.28 190.7 188.21 191.69 190.56 192.26 192.88 192.2 195.41 193.07 197.81 193.63 200.46 193.51 203.18 192.79 
M 179.37 190.71 184.47 191.76 186.32 192.46 187.96 193.82 190.3 194.73 192.51 195.13 197.55 197.22 200.25 196.51 202.74 196.5 
M 176.77 191.76 184.19 193.66 188.18 195.91 195.11 198.88 197.81 199.5 200.25 199.83 202.92 200.72 207.89 201.02 210.3 202.07 214.1 204.67 216.67 205.11 219.61 205.24 221.46 205.06 223.38 205.9 
M 176.6 193.2 183.5 195.42 185.97 196.86 190.95 198.38 192.95 199.66 194.66 201.1 199.87 203.09 202.35 204.27 
M 230.42 229.75 233.2 232.94 236.32 237.81 238.12 240.16 247.26 266.3 247.15 268.73 247.29 273.96 246.84 276.15 245.43 277.37 244.67 279.26 236.03 280 229.12 279.7 227.12 279.87 226.02 278.62 222.1 272.45 220.89 270.49 219.37 267.47 217.44 265.78 211.46 260.92 207.02 257.69 205.71 257.05 203.76 257.82 201.44 256.89 198.76 255.57 192.92 227.16 192.3 224.86 188.04 213.8 
M 226.78 228.79 230.33 233.68 232.85 238.17 233.91 240.23 235.64 245.25 237.21 247.35 238.74 249 
M 223.14 227.83 226.2 233.09 229.37 237.85 230.58 239.96 231.64 242.59 231.59 244.49 232.25 246.82 233.58 248.59 237.46 251.96 238.66 253.96 238.53 256.07 
M 219.53 226.75 220.88 229.24 222.25 231.31 225.26 236.88 226.14 239.32 227.57 244.33 228.66 246.23 229.15 248.53 230.41 249.91 231.36 251.52 
M 215.94 225.61 217.38 228.26 220.2 235.84 221.37 238.46 222.87 240.84 223.5 242.95 224.68 244.74 225.33 247.36 226.18 249.75 227.64 251.87 228.24 254.33 230.4 258.02 231.5 262.92 232.62 265.09 
M 212.38 224.39 213.89 227.06 214.94 229.51 216.63 234.63 217.23 237.28 218.06 239.63 219.6 241.59 220.46 244.97 221.42 247.8 222.12 251.13 223.24 253.62 224.42 258.12 225.64 259.35 227.09 261.4 227.66 264.21 227.88 266.87 227.8 269.08 228.57 270.42 229.8 272.04 
M 208.88 222.99 210.4 225.8 211.72 231.05 214.55 237.48 215.26 239.74 215.7 244.99 217.91 249.41 218.17 252.12 218.78 254.44 
M 205.38 221.59 207.53 227.37 209.25 234.23 210.5 236.14 211.19 238.2 211.59 240.82 211.82 244.73 211.81 247.78 213.37 250.46 214.21 252.85 214.48 255.04 215.7 256.88 
M 201.96 220.01 202.97 223.33 203.55 225.98 205.75 230.47 206.13 232.8 205.72 235.05 205.56 237.44 206.36 239.95 207.25 242.11 207.38 246.13 207.63 248.61 
M 198.55 218.41 199.74 221.5 201.08 226.87 202.11 228.78 202.52 231.35 202.44 233.48 202.57 235.51 203.18 240.65 
M 195.12 216.85 196.36 220.05 196.85 222.43 198.6 227.62 198.76 229.95 199.23 232.63 198.99 235.85 199.64 238.32 199.85 241.08 199.79 244.65 200.11 247.44 202.95 254.62 
M 191.66 215.36 193.39 221.2 195.02 228.66 195.07 231.68 195.59 233.77 195.42 235.53 196.33 239.67 196.67 242.63 196.48 245.53 
M 349.94 199.96 355.43 205.61 354.96 206.19 348.25 202.08 
M 340.17 205.64 360.26 223.1 359.78 223.69 338.47 207.75 
M 330.31 211.12 351.2 230.44 350.71 231.01 328.53 213.17 
M 320.19 216.06 335.89 233.19 335.36 233.72 318.27 217.98 
M 309.59 219.9 322.4 235.77 321.84 236.27 307.56 221.7 
M 299.25 223.31 303.68 229.82 303.12 230.31 297.22 225.1 
M 354.29 205.78 354.23 209.48 354.61 213.07 355.66 216.49 358.25 221.36 
M 357.65 222.09 354.02 223.19 352.02 224.47 350.43 226.31 349.11 228.51 
M 348.49 229.23 343.56 228.69 340.39 229.01 337.32 230.02 334.32 231.48 
M 333.65 232.15 329.27 231.54 326.45 231.81 323.75 232.78 321.12 234.19 
M 320.41 234.82 316.9 232.64 313.24 230.9 309.37 229.81 303.24 229.17 
M 354.23 207.64 354.34 211.3 354.61 213.07 355.66 216.49 357.31 219.75 
M 356.39 222.39 354.02 223.19 352.02 224.47 351.17 225.33 349.75 227.38 
M 351.25 219.37 349.44 219.98 347.9 220.96 347.25 221.61 346.16 223.19 
M 346.12 216.34 344.85 216.76 343.78 217.45 342.57 219 
M 346.83 228.97 343.56 228.69 340.39 229.01 338.84 229.44 335.82 230.72 
M 341.58 225.61 339.07 225.4 336.64 225.64 335.45 225.97 333.13 226.95 
M 336.33 222.25 333.73 222.14 332.07 222.51 330.45 223.19 
M 332.18 231.86 329.27 231.54 327.84 231.59 325.09 232.22 322.43 233.45 
M 325.78 227.33 322.96 227.15 321.17 227.56 319.45 228.36 
M 318.67 233.7 315.1 231.69 313.24 230.9 309.37 229.81 305.31 229.3 
M 374.52 119.01 377.01 118.41 379.26 117.6 390.01 111.24 393.93 109.25 395.17 108.1 397.18 107.29 400.57 103.72 405.65 103.1 406.88 102.06 408.87 101.22 412.38 98.12 414.88 94.03 420.01 92.62 422.6 91.07 424.39 89.05 426.78 88.13 429.25 88.38 431.02 87.62 434.6 85.07 431.31 93.22 431.95 95.93 432.67 100.76 431.74 102.6 431.43 105.1 430.84 107.33 430.06 112.11 428.86 113.51 428.23 115.48 428.77 118.62 428.86 121.13 429.22 123.9 428.93 125.92 427.93 129.44 427.78 131.54 428.78 136.85 428.68 139.56 427.16 140.92 426.13 142.76 425.97 147.65 426.18 150.3 425.85 152.69 424.37 154.23 423.53 157.64 424.27 166.7 424.19 168.85 425.47 171.98 426.14 174.48 426.37 176.53 428.06 181.01 428.68 183.5 428.33 187.36 427.73 188.7 428.16 190.97 429.73 196.35 430.34 199.1 430.42 203.49 431.45 209.61 432.54 212.22 432.62 214.76 432.05 219.95 434.08 228.76 431.28 226.63 430.34 224.59 427.71 222.9 426.08 221.54 423.33 221.23 420.35 219.78 417.81 218.9 414.27 215.8 411.91 212.03 409.79 210.75 404.75 208.96 398.09 205.2 395.05 202.24 392.53 200.39 388.95 198.28 386.83 196.83 385.26 194.84 374.52 186.62 
M 374.52 122.39 377.2 121.69 383.09 119.28 384.98 118.21 387.2 117.53 390.16 116.26 394.61 114.05 396.03 112.86 399.31 112.51 403.93 109.49 406.7 108.36 
M 381.43 123.96 388.19 120.91 391 120.18 395.41 118.73 397.21 118.46 398.58 116.77 400.58 115.95 402.08 115.1 407.9 112.34 410.28 111.37 411.75 111.42 412.57 110.25 
M 374.52 129.15 377.39 129.09 379.89 128.5 381.85 127.87 390.88 124.16 398.28 121.45 400.45 121.41 403.6 120.23 405.98 119.01 408.57 117.28 410.49 116.23 411.59 114.77 413.78 114.19 415.29 113.4 417.71 113.44 420.29 113.95 423.92 113.5 425.82 112.62 427.9 112.14 
M 379.92 132.28 381.78 131.58 383.51 130.72 393.43 127.81 395.95 127.38 398.53 126.13 401.22 124.51 403.94 123.62 406 124.27 408.4 124.08 410.05 124.38 414.06 121.19 415.08 121.37 419.4 118.89 424.64 119.76 
M 374.52 135.91 379.8 135.9 381.94 135.49 384.17 134.79 386.3 134.43 389.29 133.53 396.28 131.96 401.97 130.09 403.71 129.21 
M 377.62 139.65 380.06 139.81 382.36 139.67 387.22 138.73 389.91 138.01 392.46 137.01 399.22 135.63 401.41 135 
M 374.52 142.67 377.58 142.91 380.07 142.83 382.65 143 387.43 142.64 392.63 141.43 395.07 141.15 399.28 141.49 401.45 140.75 406.46 139.84 409.38 139.11 411.26 139.34 
M 377.71 146.19 380.2 146.11 382.66 146.36 385.37 146.86 389.91 146.08 392.64 145.21 398.01 145.49 401.87 145.1 404.44 145.52 407.31 145.09 410.55 143.82 411.74 144.51 413.21 144.66 417.43 144.43 
M 374.52 149.43 382.74 150.88 385.14 151.1 389.82 150.43 391.77 149.62 394.48 149.75 399.87 150.46 406.77 150.49 409.31 149.44 411.81 149.35 413.8 149.08 
M 382.5 154.82 384.74 155.35 387.01 155.14 389.57 155.22 392.09 154.91 394.1 154.92 398.4 155.36 400.97 155.82 403.84 155.13 408.11 156.03 410.43 155.67 
M 377.47 157.13 382.39 158.09 384.81 157.94 387.13 158.57 397 160.42 399.66 159.72 402.15 159.39 404.25 160.49 406.1 161.23 408.34 160.66 410.34 160.61 
M 374.52 159.57 377.21 160.66 379.75 161.3 387.1 162.43 392.53 164.02 397.52 164.44 402.06 164.06 404 164.93 410.69 166.61 413.14 166.4 420.6 167.42 422.93 168.76 
M 382.23 165.14 384.96 165.7 389.93 167.25 393.02 167.64 395.6 168.24 396.98 167.94 399.08 168.45 401.06 169.02 403.35 170.42 406.53 171.76 412.05 172.35 414.75 172.95 
M 380.27 168.18 385.46 170.16 387.79 171.28 389.97 171.93 392.84 171.73 395.21 172.33 401.48 174.79 403.9 175.07 409.04 177.24 413.85 178.89 417.76 181.3 
M 382.42 172.88 384.57 173.75 389.18 176.08 391.83 176.73 396.79 179.22 400.46 179.49 403.66 180.32 408.14 182.74 410.13 183.45 413.75 184.19 418.2 184.69 
M 374.52 173.1 377.39 174.27 382.22 176.61 388.3 180.29 395.45 181.76 400.45 185.1 402.97 186.4 405.3 187.33 409.78 188.13 412.06 188.79 413.92 189.64 416.09 189.52 418.11 190.61 419.63 191.82 
M 374.52 176.48 379.51 179.05 381.96 180.47 384.17 182.04 386.61 183.24 388.44 183.86 392.69 184.55 397.26 188.34 399.58 189.67 401.62 190.48 404.39 190.85 406.62 191.83 410.6 193.97 412.28 195.32 413.47 195.93 415.29 197.21 418.63 197.05 422.45 197.41 425.12 198.64 
M 379.45 182.73 384.07 186.37 386.15 187.6 388.5 188.13 390.8 189.05 392.98 190.69 394.82 191.85 398.54 193.09 401.93 195.94 404.29 197.08 405.74 197.97 407.53 199.61 410.28 199.92 413.53 200.78 415.2 201.63 419.42 204.66 421.4 205.36 
M 379.3 186.4 381.59 188.48 388.08 192.47 394.39 196.69 398.64 200.41 400.79 201.55 402.67 202.15 
M 364.78 190.2 361.74 191.27 360.67 192.33 359.42 195.13 358.03 195.43 356.12 194.77 357.57 196.23 
M 98.73 150.64 99.7 147.84 100.99 145.18 103.39 142.26 122.02 123.43 131.13 116.1 135.83 112.65 140.88 109.59 150.01 104.88 154.1 103.21 157.78 102.1 160.77 101.5 162.56 101.38 166.19 106.78 167.62 112.32 168.71 117.89 169.78 123.46 170.46 129.06 170.79 134.69 170.63 140.36 170.95 146 171.21 157.29 171.78 162.9 172.92 168.46 173.62 179.72 175.33 190.9 175.42 196.55 174.59 202.27 171.08 208.24 161.25 208.18 153.92 207.5 147.57 206.05 141.66 204.13 136.06 201.63 130.78 198.43 125.82 194.57 120.92 190.17 116.55 185.82 113.54 181.97 
M 109.17 175.39 106.55 171.32 101.7 162.69 101.14 161.24 
M 152.14 151.92 152.06 153.48 152.41 157.19 152.35 160.61 152.51 163.76 153.44 166.77 154.71 169.93 155.78 173.53 156.36 177.66 154.97 182.59 143.55 183.84 139.02 183.93 134.51 183.57 129.97 182.47 125.53 180.37 121.3 177.22 
M 112.45 181.34 109.3 175.66 107.65 172.27 101.91 162.62 97.41 154.35 96.76 152.58 97.5 150.99 99.3 150.49 100.95 151.48 102.51 154.92 104.41 160.01 109.83 172.1 111.13 175.86 113.63 181.91 
M 111.77 182.12 104.14 179.94 96.91 178.1 87.91 175.49 86.21 174.74 85.39 173.09 86.16 171.39 88.03 170.85 112.48 181.35 
M 113.24 181.66 113.42 181.73 
M 130.37 151.07 127.26 146.71 125.73 141.57 125.95 136.21 127.9 131.22 131.36 127.13 135.97 124.38 141.21 123.28 146.53 123.95 151.35 126.3 155.14 130.09 157.49 134.91 158.16 140.23 157.06 145.47 154.31 150.08 150.22 153.54 145.23 155.49 139.87 155.71 134.73 154.18 130.37 151.07 
M 152.49 131.98 154.37 135.84 154.9 140.09 154.02 144.29 151.83 147.97 148.55 150.74 144.56 152.3 140.27 152.48 136.16 151.26 132.67 148.76 
M 136.71 143.59 135.47 141.85 134.86 139.79 134.95 137.65 135.73 135.65 137.11 134.02 138.95 132.92 141.05 132.48 143.18 132.75 145.11 133.69 146.62 135.2 147.56 137.13 147.83 139.26 147.39 141.36 146.29 143.2 144.65 144.58 142.66 145.36 140.51 145.45 138.46 144.84 136.71 143.59 
M 136.55 143.08 137.95 144.47 
M 134.94 139.43 140.94 145.43 
M 138.09 140.55 142.83 145.29 
M 140.24 140.66 144.3 144.72 
M 139.97 138.36 145.49 143.88 
M 142.55 138.9 146.5 142.85 
M 139.87 134.19 147.26 141.58 
M 143.65 135.94 147.68 139.97 
M 144.91 135.17 147.66 137.92 
M 115.44 184.4 118.55 187.51 
M 106.15 170.59 107.4 171.84 
M 98.98 149.86 100.06 150.94 
M 101.29 152.17 103.1 153.98 
M 100.28 146.64 104.41 150.77 
M 102.05 143.89 106.25 148.09 
M 104.15 141.47 108.53 145.85 
M 106.37 139.18 110.21 143.01 
M 108.62 136.9 112.02 140.3 
M 110.88 134.64 113.49 137.26 
M 113.15 132.39 117.67 136.91 
M 115.38 130.1 118.39 133.11 
M 117.59 127.8 120.15 130.35 
M 119.87 125.55 122.97 128.65 
M 122.16 123.32 124.42 125.58 
M 124.64 121.29 128.27 124.91 
M 127.14 119.26 130.78 122.9 
M 129.66 117.26 132.3 119.9 
M 132.22 115.3 135.18 118.26 
M 134.83 113.39 138.95 117.51 
M 137.56 111.6 141.98 116.02 
M 140.37 109.89 142.96 112.48 
M 143.29 108.29 147.39 112.39 
M 146.24 106.73 148.65 109.14 
M 149.28 105.24 152.02 107.98 
M 152.44 103.89 155.23 106.67 
M 155.78 102.7 159.52 106.44 
M 159.38 101.78 161.66 104.07 
M 132.33 180.32 131.65 179.57 130.73 179.05 129.72 178.68 128.57 178.7 127.81 179.34 126.85 180.9 126.1 181.28 
M 154.01 172.16 153.93 170.97 153.06 168.1 152.94 166.4 
M 133.73 157.85 132.33 155.59 130.19 154.33 129.45 153.72 128.86 152.89 127.75 150.43 126.68 149.1 
M 150.83 191.38 155.2 188.45 156.14 187.65 
M 167.84 203.18 167.35 203.02 166.58 203.05 163.8 203.79 161.68 203.41 
M 165.58 206.55 164.13 204.82 162.78 203.88 161.76 203.58 159.43 203.46 
M 122.75 131.9 121.47 131.52 120.85 131.59 120.27 131.95 119.22 133.02 118.32 132.77 
M 166.83 190.52 168.08 192.15 
M 127.17 133.07 126.51 132.62 125.32 131.09 124.62 130.53 122.83 129.67 
M 161.37 133.56 160.76 133.76 159.18 133.92 158.74 134.2 
M 153.14 203.65 152.47 203.98 152.3 204.31 152.31 207.14 
M 165.97 106.46 165.14 106.27 163.64 106.28 162.61 105.88 162.01 105.21 161.86 104.54 
M 111.68 174.8 114.09 176.91 115.42 178.97 116.36 178.78 116.97 178.85 
M 159.68 115.65 157.13 113.03 156.25 111.08 156.14 110.25 156.54 107.32 157.07 105.4 157.38 104.88 158.41 104.25 
M 139.33 123.16 139.14 123.72 
M 134.98 113.86 136.6 113.84 137.24 113.54 137.84 112.6 138.31 111.15 
M 160.98 123.86 161.9 123.03 162.27 122.36 162.71 120.95 162.62 119.71 162.27 118.6 161.6 117.41 159.86 114.77 158.98 113.84 
M 167.19 198.44 164.85 199.55 162.8 201.69 161.29 202.46 
M 111.18 172.05 110.38 172.45 110.07 172.87 
M 117.93 172.03 119.01 172.2 120.9 172 121.33 172.38 121.92 173.38 
M 124.09 161.53 126.5 163.44 127.66 163.64 128.38 163.45 
M 128.52 188.15 126.69 186.16 125.06 185.12 124.83 184.62 124.77 183.28 
M 172.39 168.97 171.68 168.3 170.06 167.41 169.04 167.15 166.64 166.95 
M 129.17 129.71 128.36 129.28 128.01 128.91 127.64 128.11 127.42 126.73 
M 126.68 192.33 126.77 190.86 
M 167.83 157.93 166.94 158.29 165.99 158.95 165.56 158.7 
M 115.85 161.48 115.26 161.63 114.53 161.54 112.86 161.11 110.62 159.31 109.29 158.71 108.22 158.57 107.28 158.76 
M 161.11 189.58 162.19 189.7 164.5 190.47 166.33 191.57 167.36 192.59 
M 170.64 140 169.6 139.99 169.09 138.67 
M 142.84 204.11 143.34 203.57 144.59 202.89 145.09 202.82 145.51 203.05 
M 108.48 158.15 107.36 158.59 107.17 158.85 
M 132.18 120.01 133.7 120.81 134.19 121.31 134.34 122.41 134.24 124.68 134.38 125.22 
M 149.85 122.77 147.18 122.2 145.81 121.44 145.07 121.25 144.23 121.53 143.12 122.83 
M 158.23 168.28 156.74 165.91 155.79 164.04 154 162.57 
M 167.18 189.15 168.38 189.11 168.62 189.39 168.63 189.75 
M 127.38 146.88 125.67 147.32 
M 119.22 187.83 120.57 187.11 123.51 184.92 124.26 183.96 124.53 182.89 
M 166.39 127.99 165.12 129.88 163.77 130.7 
M 127.91 124.89 129.13 123.39 129.55 123.14 131.44 122.36 132.05 122.31 132.52 122.46 
M 153.81 166.52 153.27 166.04 153.05 165.53 152.8 163.79 152.82 162.29 152.63 161.7 
M 123.87 143.59 123.18 144.62 123.02 145.29 122.6 149.1 122.37 150 122.08 150.39 120.39 151.64 
M 126.58 129.82 125.54 128.4 124.59 127.76 121.77 128.4 
M 126.73 163.05 127.83 163.49 129.72 163.3 130.2 163.07 
M 118.88 173.7 121.08 173.92 121.76 174.38 122.27 175.3 122.52 177.13 
M 104.18 141.48 104.15 141.47 
M 109.37 139.89 108.63 138.31 107.99 137.54 
M 157.44 143.63 159.29 143.69 161.83 144.36 
M 122.45 146.75 122.14 149.7 121.89 150.24 120.6 151.32 120.01 152.08 119.19 154.45 
M 169.48 165.33 166.3 163.43 
M 162.29 143.77 163.33 143.54 164.13 143.06 166.84 139.55 167.55 138.85 
M 132.78 114.88 136.53 114.42 137.2 114.01 137.63 113.48 
M 156.34 160.88 155.18 161.53 154.3 161.65 152.18 160.76 151.68 160.12 
M 155.72 179.16 156.28 178.04 156.66 176.59 156.8 174.17 156.22 172.06 154.82 169 
M 127.26 129.79 126.69 127.84 126.57 126.35 126.85 125.57 127.71 124.62 
M 114.29 182.71 112.46 184.23 108.58 186.59 107.78 187.23 107.11 187.98 106.62 188.86 106.34 189.83 106.26 190.87 106.71 192.95 107.64 194.97 109.86 198.91 106.13 193.2 105.66 192.11 105.39 190.94 105.34 189.71 105.56 188.48 106.05 187.32 106.77 186.29 107.64 185.41 111.2 182.66 112.69 181.11 
M 113.52 181.97 113.83 182.59 
M 110.91 178.55 110.86 178.8 111.04 178.76 
M 108.81 174.65 108.51 174.96 108.23 175.68 108.72 175.37 109.14 175.33 
M 106.86 170.91 106.08 171.59 105.6 172.57 106.28 171.99 107.36 171.76 
M 104.79 167.34 103.64 168.21 102.97 169.45 103.84 168.62 105.26 168.22 
M 102.62 163.85 101.2 164.84 100.35 166.34 101.4 165.25 103.14 164.69 
M 100.59 160.25 98.76 161.47 97.72 163.22 98.96 161.87 101.08 161.14 
M 98.61 156.64 96.32 158.09 95.09 160.11 96.52 158.5 99.1 157.55 
M 96.87 152.87 93.88 154.72 92.46 156.99 94.08 155.12 97.25 153.92 
M 113.37 181.87 114.21 182.15 
M 109.48 180.11 110.31 179.65 110.39 180.46 
M 105.89 178.47 106.38 177.83 107.12 177.4 106.8 177.98 106.8 178.92 
M 102.24 176.96 102.93 175.83 103.93 175.14 103.35 175.97 103.21 177.34 
M 98.64 175.38 99.47 173.83 100.75 172.88 99.9 173.97 99.6 175.83 
M 95 173.9 96.02 171.82 97.56 170.62 96.45 171.97 96 174.29 
M 91.44 172.24 92.57 169.82 94.37 168.36 93 169.97 92.4 172.71 
M 87.72 170.94 89.12 167.82 91.19 166.11 89.55 167.96 88.8 171.14 
M 92.1 176.73 99.85 182.31 103.97 184.89 106.7 186.38 
M 107.98 187.07 112.2 189.08 116.55 190.91 125.82 194.57 
M 112.18 188.04 112.6 187.16 
M 115.86 190.35 116.96 189.61 
M 163.13 101.14 168.55 106.56 
M 167.1 99.08 171.81 103.79 
M 171.06 97.01 178.58 104.53 
M 175.25 95.17 184.23 104.16 
M 179.44 93.34 184.89 98.79 
M 183.88 91.76 190.87 98.74 
M 188.35 90.2 196.63 98.48 
M 193.06 88.88 201.81 97.63 
M 197.82 87.61 204.88 94.67 
M 202.69 86.46 207.82 91.59 
M 207.75 85.49 213.14 90.88 
M 212.95 84.66 218.78 90.5 
M 218.22 83.91 224.81 90.49 
M 223.66 83.32 230.03 89.69 
M 229.48 83.11 235.66 89.3 
M 235.49 83.1 243.62 91.22 
M 241.36 82.94 249.77 91.35 
M 247 82.56 251.59 87.14 
M 253.05 82.58 257.81 87.33 
M 259.52 83.02 268.52 92.02 
M 266.21 83.68 274.31 91.79 
M 272.57 84.01 280.84 92.29 
M 279.01 84.43 284.65 90.07 
M 285.66 85.05 293.72 93.11 
M 292.47 85.84 298.92 92.28 
M 299.34 86.69 307.45 94.79 
M 306.05 87.36 314.46 95.77 
M 312.98 88.27 318.49 93.78 
M 321.59 90.85 329.54 98.8 
M 332.17 95.4 338.68 101.91 
M 342.96 100.16 351.46 108.66 
M 356.11 107.29 363.24 114.42 
M 372.65 117.81 379.11 124.27 
M 177.78 208.37 178.93 210.66 
M 175.95 194.16 177.12 196.51 
M 171.34 158.58 171.41 158.72 
M 172.08 160.06 172.76 161.41 
M 192.07 200.04 194.32 204.53 
M 171.03 152.68 175.56 161.73 
M 182.29 175.21 182.89 176.41 
M 197.63 205.88 197.79 206.2 
M 198.47 207.55 199.14 208.9 
M 204.53 219.68 205.51 221.65 
M 171.62 148.58 172.29 149.93 
M 172.96 151.27 177.68 160.71 
M 183.07 171.49 185.23 175.81 
M 205.98 217.31 208.81 222.96 
M 173.07 146.21 180.48 161.03 
M 185.19 170.46 187.88 175.83 
M 208.78 217.63 210.12 220.32 
M 210.8 221.67 212.1 224.28 
M 177.86 150.52 180.55 155.91 
M 186.62 168.04 187.96 170.73 
M 188.64 172.08 190.13 175.06 
M 208.85 212.51 209.53 213.85 
M 210.87 216.55 215.3 225.41 
M 179.26 148.05 183.3 156.13 
M 190.04 169.61 192.13 173.79 
M 210.09 209.7 212.28 214.08 
M 213.62 216.77 214.97 219.47 
M 215.64 220.82 218.44 226.4 
M 169.88 124.01 170.55 125.36 
M 171.23 126.71 171.9 128.06 
M 173.92 132.1 174.6 133.45 
M 192.79 169.83 194.13 172.51 
M 212.96 210.17 216.37 217 
M 217.05 218.35 217.72 219.69 
M 218.39 221.04 219.74 223.74 
M 168.24 115.45 169.26 117.5 
M 171.28 121.54 176.67 132.32 
M 195.54 170.06 196.17 171.32 
M 215.83 210.64 219.12 217.22 
M 220.47 219.92 221.14 221.27 
M 165.28 104.26 171.34 116.39 
M 172.69 119.09 178.75 131.22 
M 179.43 132.56 180.1 133.91 
M 190.88 155.47 194.25 162.21 
M 218.7 211.11 219.86 213.42 
M 221.88 217.46 223.23 220.16 
M 223.9 221.51 225.92 225.55 
M 168.05 104.52 169.39 107.22 
M 170.07 108.57 172.09 112.61 
M 172.76 113.96 173.44 115.31 
M 174.78 118 182.2 132.82 
M 191.63 151.69 197.69 163.82 
M 221.58 211.59 221.95 212.33 
M 222.62 213.68 228.01 224.46 
M 228.69 225.81 229.36 227.16 
M 170.81 104.78 173.51 110.17 
M 174.18 111.52 174.85 112.87 
M 177.55 118.26 182.27 127.69 
M 182.94 129.04 183.61 130.39 
M 193.72 150.6 199.11 161.38 
M 224.72 212.59 231.45 226.07 
M 179.64 117.17 183.69 125.26 
M 184.36 126.61 185.03 127.95 
M 189.08 136.04 190.42 138.73 
M 196.49 150.86 201.88 161.64 
M 226.14 210.16 230.18 218.24 
M 230.85 219.59 233.55 224.98 
M 171.99 96.6 173.68 99.97 
M 183.11 118.84 187.15 126.92 
M 189.85 132.31 192.55 137.7 
M 193.22 139.05 194.57 141.75 
M 197.94 148.49 203.33 159.27 
M 206.7 166 208.14 168.9 
M 228.26 209.13 235.67 223.95 
M 174.16 95.65 177.19 101.72 
M 187.3 121.93 187.97 123.28 
M 190.66 128.67 196.73 140.8 
M 202.12 151.58 203.47 154.27 
M 207.51 162.36 210.5 168.34 
M 231.09 209.53 237.16 221.65 
M 241.2 229.74 242.35 232.03 
M 176.32 94.7 179.35 100.77 
M 192.83 127.72 198.22 138.5 
M 198.89 139.85 199.56 141.2 
M 209 160.06 212.86 167.78 
M 228.7 199.46 229.21 200.49 
M 233.93 209.92 238.65 219.36 
M 243.36 228.79 245.24 232.55 
M 178.48 93.76 182.19 101.17 
M 194.31 125.42 194.99 126.77 
M 195.66 128.12 197.01 130.81 
M 197.68 132.16 201.05 138.9 
M 211.16 159.11 215.21 167.22 
M 229.75 196.3 231.37 199.54 
M 238.79 214.37 239.46 215.71 
M 246.2 229.19 248.07 232.93 
M 180.68 92.88 184.39 100.3 
M 197.19 125.9 202.58 136.68 
M 205.28 142.07 205.95 143.42 
M 212.01 155.55 217.57 166.66 
M 231.65 194.82 232.9 197.32 
M 238.29 208.1 238.97 209.45 
M 239.64 210.8 240.31 212.15 
M 249.75 231.01 250.72 232.96 
M 182.92 92.09 185.96 98.16 
M 200.1 126.46 200.78 127.8 
M 201.45 129.15 202.8 131.85 
M 206.17 138.59 210.21 146.67 
M 214.93 156.1 219.93 166.1 
M 239.86 205.97 243.9 214.05 
M 185.16 91.3 186.17 93.32 
M 209.08 139.14 213.13 147.23 
M 218.52 158.01 221.89 164.75 
M 240.08 201.13 240.75 202.48 
M 241.43 203.83 246.14 213.26 
M 192.46 100.62 193.13 101.97 
M 201.89 119.48 203.91 123.53 
M 205.26 126.22 206.61 128.92 
M 209.98 135.66 210.65 137 
M 211.33 138.35 215.37 146.44 
M 220.76 157.22 222.78 161.26 
M 242.99 201.69 248.38 212.47 
M 192.73 95.89 197.45 105.32 
M 202.84 116.1 208.23 126.88 
M 212.94 136.32 214.29 139.01 
M 214.97 140.36 217.66 145.75 
M 226.42 163.27 227.09 164.61 
M 245.96 202.35 250 210.43 
M 194.37 93.89 200.43 106.02 
M 203.8 112.76 211.89 128.93 
M 216.6 138.36 218.63 142.41 
M 228.06 161.27 230.04 165.23 
M 242.88 190.92 244.9 194.96 
M 248.27 201.7 251.64 208.44 
M 256.36 217.87 259.05 223.26 
M 196.68 93.25 202.75 105.37 
M 207.46 114.81 214.2 128.28 
M 231.72 163.32 232.39 164.67 
M 233.07 166.02 233.15 166.18 
M 243.85 187.58 245.87 191.62 
M 246.54 192.97 249.91 199.71 
M 251.26 202.4 252.61 205.1 
M 257.32 214.53 258.67 217.23 
M 259.35 218.57 262.04 223.96 
M 198.32 91.26 199 92.6 
M 199.67 93.95 204.39 103.38 
M 209.78 114.17 215.17 124.95 
M 234.71 164.03 235.38 165.37 
M 236.06 166.72 236.42 167.45 
M 245.49 185.59 252.23 199.06 
M 259.64 213.89 265.03 224.67 
M 200.68 90.7 203.38 96.09 
M 204.05 97.44 205.4 100.13 
M 212.81 114.96 214.83 119 
M 215.51 120.35 216.85 123.04 
M 218.88 127.09 219.55 128.43 
M 246.5 182.34 253.91 197.16 
M 254.59 198.51 255.26 199.86 
M 262 213.33 262.67 214.68 
M 263.35 216.03 267.39 224.11 
M 204.39 92.84 205.06 94.19 
M 219.89 123.84 224.6 133.27 
M 248.86 181.78 253.58 191.22 
M 254.25 192.56 256.95 197.95 
M 265.03 214.12 266.38 216.82 
M 268.4 220.86 269.07 222.21 
M 272.44 228.95 273.08 230.22 
M 220.9 120.58 226.29 131.37 
M 232.35 143.49 237.07 152.93 
M 251.89 182.57 256.61 192.01 
M 257.28 193.35 259.31 197.4 
M 260.65 200.09 263.35 205.48 
M 272.11 223 275.49 229.76 
M 221.27 116.06 225.99 125.5 
M 226.67 126.84 229.36 132.24 
M 233.4 140.32 236.1 145.71 
M 236.77 147.06 239.47 152.45 
M 254.29 182.1 254.96 183.44 
M 255.64 184.79 259.68 192.88 
M 260.36 194.22 261.03 195.57 
M 261.7 196.92 265.07 203.66 
M 273.83 221.18 278.29 230.1 
M 221.7 111.64 223.72 115.68 
M 224.39 117.03 225.74 119.72 
M 226.41 121.07 230.46 129.15 
M 235.85 139.94 242.59 153.41 
M 247.98 164.19 250 168.24 
M 257.41 183.06 258.08 184.41 
M 258.76 185.75 259.43 187.1 
M 260.1 188.45 260.78 189.8 
M 262.13 192.49 267.52 203.27 
M 275.6 219.44 280.37 228.97 
M 222.79 108.56 227.51 117.99 
M 228.18 119.34 230.88 124.73 
M 231.55 126.07 232.23 127.42 
M 236.94 136.85 243.68 150.33 
M 244.36 151.68 245.03 153.03 
M 248.4 159.76 254.46 171.89 
M 265.24 193.45 270.63 204.23 
M 278.05 219.06 282.77 228.51 
M 219.17 96.04 221.87 101.43 
M 224.56 106.82 231.3 120.3 
M 240.06 137.82 245.45 148.6 
M 246.13 149.95 246.8 151.29 
M 250.17 158.03 256.23 170.16 
M 267.69 193.07 271.73 201.15 
M 280.49 218.67 281.84 221.37 
M 282.51 222.72 283.86 225.41 
M 219.61 91.65 224.33 101.08 
M 227.03 106.47 232.42 117.25 
M 236.46 125.34 237.13 126.69 
M 238.48 129.38 239.15 130.73 
M 241.85 136.12 245.22 142.86 
M 245.89 144.21 247.91 148.25 
M 252.63 157.68 258.69 169.81 
M 272.17 196.76 272.84 198.11 
M 284.3 221.02 284.97 222.37 
M 221.4 89.95 226.79 100.73 
M 230.16 107.47 236.23 119.6 
M 237.57 122.3 242.29 131.73 
M 246.33 139.81 249.03 145.2 
M 249.7 146.55 251.72 150.6 
M 254.42 155.99 260.48 168.11 
M 263.18 173.5 263.85 174.85 
M 264.53 176.2 265.2 177.55 
M 265.87 178.89 266.55 180.24 
M 223.19 88.26 229.26 100.39 
M 231.95 105.78 232.62 107.12 
M 233.3 108.47 233.97 109.82 
M 234.65 111.17 235.99 113.86 
M 239.36 120.6 244.75 131.38 
M 248.8 139.47 254.19 150.25 
M 258.23 158.33 258.9 159.68 
M 259.58 161.03 260.92 163.72 
M 264.29 170.46 266.31 174.5 
M 266.99 175.85 269.68 181.24 
M 279.12 200.11 280.46 202.8 
M 281.14 204.15 281.81 205.5 
M 225.72 88.05 231.11 98.83 
M 235.16 106.91 236.5 109.61 
M 241.22 119.04 245.26 127.13 
M 245.94 128.48 247.29 131.17 
M 250.65 137.91 256.04 148.69 
M 266.83 170.25 270.87 178.34 
M 276.26 189.12 276.93 190.47 
M 280.3 197.2 285.02 206.64 
M 229.24 89.8 232.61 96.54 
M 244.74 120.8 248.78 128.89 
M 252.82 136.97 258.89 149.1 
M 269.67 170.66 271.01 173.36 
M 271.69 174.7 273.04 177.4 
M 273.71 178.75 274.38 180.09 
M 277.08 185.48 280.45 192.22 
M 282.47 196.27 287.19 205.7 
M 231.39 88.83 232.06 90.17 
M 240.15 106.35 242.84 111.74 
M 253.62 133.3 254.3 134.64 
M 255.64 137.34 261.03 148.12 
M 264.4 154.86 265.08 156.21 
M 265.75 157.55 266.42 158.9 
M 271.81 169.68 275.18 176.42 
M 278.55 183.16 281.92 189.9 
M 282.6 191.24 290.01 206.07 
M 240.27 101.32 244.99 110.76 
M 252.4 125.58 253.75 128.28 
M 257.12 135.01 260.49 141.75 
M 261.16 143.1 262.51 145.8 
M 264.53 149.84 268.57 157.92 
M 269.25 159.27 269.92 160.62 
M 280.03 180.83 285.42 191.61 
M 287.44 195.66 292.15 205.09 
M 241.75 99 243.77 103.04 
M 244.44 104.39 247.14 109.78 
M 251.85 119.21 257.92 131.34 
M 261.29 138.08 261.96 139.43 
M 263.31 142.12 263.98 143.47 
M 266 147.51 266.68 148.86 
M 267.35 150.21 271.39 158.29 
M 282.17 179.85 286.89 189.29 
M 288.91 193.33 289.59 194.68 
M 290.26 196.03 292.95 201.42 
M 232.44 75.11 233.79 77.81 
M 244.57 99.37 249.28 108.8 
M 254.67 119.58 258.72 127.67 
M 268.15 146.53 268.82 147.88 
M 269.5 149.23 273.54 157.31 
M 284.32 178.88 289.71 189.66 
M 293.08 196.39 293.75 197.74 
M 294.43 199.09 295.1 200.44 
M 304.53 219.3 305.3 220.84 
M 233.91 72.78 235.26 75.48 
M 235.93 76.83 237.28 79.52 
M 246.04 97.04 246.71 98.39 
M 247.39 99.74 250.08 105.13 
M 255.47 115.91 262.21 129.38 
M 271.64 148.25 275.69 156.34 
M 289.16 183.29 289.84 184.64 
M 304.66 214.28 306.68 218.33 
M 235.39 70.46 236.06 71.81 
M 236.73 73.15 239.43 78.54 
M 256.95 113.58 263.69 127.06 
M 267.73 135.14 268.4 136.49 
M 274.47 148.62 275.81 151.31 
M 288.62 176.92 289.29 178.27 
M 289.96 179.61 290.64 180.96 
M 306.13 211.96 310.29 220.27 
M 237.53 69.48 242.25 78.91 
M 260.44 115.3 266.51 127.43 
M 268.53 131.47 269.2 132.82 
M 269.88 134.17 272.57 139.56 
M 288.07 170.55 288.74 171.9 
M 289.42 173.25 292.11 178.64 
M 292.78 179.98 293.46 181.33 
M 308.28 210.98 312.58 219.57 
M 239.68 68.5 243.72 76.59 
M 263.94 117.02 266.63 122.41 
M 270 129.14 275.39 139.92 
M 276.07 141.27 276.74 142.62 
M 288.87 166.88 294.26 177.66 
M 294.93 179.01 295.61 180.35 
M 304.37 197.87 308.41 205.96 
M 310.43 210 311.78 212.7 
M 312.45 214.04 314.86 218.87 
M 242.5 68.87 245.87 75.61 
M 270.8 125.47 277.54 138.95 
M 278.21 140.29 278.89 141.64 
M 291.69 167.25 298.43 180.72 
M 305.84 195.55 310.56 204.98 
M 312.58 209.02 313.25 210.37 
M 313.92 211.72 314.6 213.06 
M 316.67 217.2 317.05 217.96 
M 259.47 97.54 260.15 98.89 
M 272.95 124.49 273.62 125.84 
M 274.3 127.19 280.36 139.32 
M 292.49 163.57 299.23 177.05 
M 307.31 193.22 313.38 205.35 
M 317.42 213.43 318.09 214.78 
M 258.25 89.82 261.62 96.56 
M 262.29 97.91 262.97 99.26 
M 275.77 124.86 282.51 138.34 
M 295.31 163.94 297.33 167.98 
M 298.01 169.33 302.05 177.42 
M 310.13 193.59 314.18 201.67 
M 259.73 87.5 264.44 96.93 
M 273.87 115.8 274.55 117.15 
M 277.92 123.88 280.61 129.27 
M 281.96 131.97 282.63 133.32 
M 283.31 134.66 283.98 136.01 
M 284.66 137.36 287.35 142.75 
M 294.09 156.23 294.76 157.57 
M 298.13 164.31 302.85 173.74 
M 304.87 177.79 310.26 188.57 
M 312.96 193.96 313.63 195.31 
M 315.65 199.35 316.32 200.7 
M 261.87 86.52 267.26 97.3 
M 274.67 112.12 279.39 121.56 
M 282.09 126.95 284.78 132.34 
M 285.46 133.69 290.85 144.47 
M 293.54 149.86 298.93 160.64 
M 301.63 166.03 302.3 167.38 
M 303.65 170.07 304.32 171.42 
M 306.34 175.46 313.08 188.94 
M 325.26 213.3 325.65 214.08 
M 264.69 86.89 268.74 94.97 
M 276.82 111.15 280.19 117.88 
M 280.87 119.23 282.21 121.93 
M 286.93 131.36 287.6 132.71 
M 288.28 134.05 292.32 142.14 
M 295.69 148.88 300.41 158.31 
M 307.82 173.14 315.23 187.96 
M 324.66 206.83 327.75 213 
M 249.32 50.87 250 52.22 
M 250.67 53.57 253.37 58.96 
M 266.17 84.56 266.84 85.91 
M 267.52 87.26 270.21 92.65 
M 276.27 104.78 284.36 120.95 
M 289.75 131.73 294.47 141.16 
M 297.16 146.55 303.9 160.03 
M 309.96 172.16 317.38 186.98 
M 318.72 189.68 319.4 191.02 
M 320.75 193.72 321.42 195.07 
M 326.81 205.85 329.85 211.93 
M 250.8 48.55 256.19 59.33 
M 265.62 78.19 266.29 79.54 
M 275.73 98.41 277.07 101.1 
M 281.12 109.19 286.51 119.97 
M 291.9 130.75 297.29 141.53 
M 299.98 146.92 300.66 148.27 
M 301.33 149.62 304.03 155.01 
M 312.79 172.53 314.81 176.57 
M 315.48 177.92 316.83 180.61 
M 317.5 181.96 323.57 194.09 
M 324.24 195.44 324.91 196.78 
M 328.28 203.52 330.3 207.56 
M 330.98 208.91 331.95 210.85 
M 252.94 47.57 253.62 48.92 
M 254.29 50.26 258.33 58.35 
M 265.75 73.17 267.77 77.22 
M 268.44 78.56 269.11 79.91 
M 277.2 96.08 279.9 101.47 
M 280.57 102.82 281.24 104.17 
M 281.92 105.52 282.59 106.86 
M 283.26 108.21 287.98 117.64 
M 294.05 129.77 294.72 131.12 
M 295.39 132.47 296.74 135.16 
M 298.09 137.86 298.76 139.21 
M 302.81 147.29 304.15 149.99 
M 314.93 171.55 315.61 172.9 
M 316.28 174.24 318.3 178.29 
M 318.98 179.63 319.65 180.98 
M 321 183.68 321.67 185.02 
M 323.02 187.72 327.06 195.8 
M 331.1 203.89 334.01 209.69 
M 258.33 53.07 260.02 56.44 
M 260.69 57.79 261.36 59.14 
M 266.75 69.92 269.45 75.31 
M 270.12 76.65 271.47 79.35 
M 278.21 92.83 284.95 106.3 
M 286.97 110.35 288.32 113.04 
M 288.99 114.39 289.66 115.74 
M 299.1 134.6 299.77 135.95 
M 317.96 172.33 319.31 175.03 
M 320.66 177.73 321.33 179.07 
M 323.35 183.12 329.42 195.24 
M 334.13 204.68 336.06 208.53 
M 269.38 69.89 274.1 79.32 
M 280.83 92.8 287.57 106.28 
M 288.24 107.62 288.92 108.97 
M 294.31 119.75 294.98 121.1 
M 312.5 156.14 313.85 158.83 
M 320.59 172.31 324.63 180.39 
M 325.98 183.09 331.37 193.87 
M 271.42 68.71 277.15 80.16 
M 283.21 92.29 289.28 104.42 
M 289.95 105.77 290.63 107.11 
M 296.02 117.89 297.36 120.59 
M 298.04 121.94 298.71 123.29 
M 312.86 151.58 317.58 161.02 
M 320.95 167.76 327.69 181.23 
M 329.03 183.93 330.38 186.62 
M 331.05 187.97 333.08 192.01 
M 275.05 70.68 278.75 78.09 
M 286.16 92.91 292.23 105.04 
M 296.27 113.13 301.66 123.91 
M 313.79 148.17 319.85 160.29 
M 320.53 161.64 321.2 162.99 
M 323.9 168.38 329.29 179.16 
M 331.98 184.55 333.33 187.25 
M 282.98 81.28 284.33 83.98 
M 285.01 85.33 286.35 88.02 
M 288.38 92.06 289.05 93.41 
M 291.74 98.8 292.42 100.15 
M 297.13 109.58 303.87 123.06 
M 316.67 148.66 323.41 162.14 
M 326.11 167.53 331.5 178.31 
M 285.47 80.98 289.17 88.39 
M 291.87 93.78 293.22 96.48 
M 299.96 109.95 305.35 120.73 
M 318.15 146.34 323.54 157.12 
M 324.21 158.47 324.89 159.81 
M 328.25 166.55 332.3 174.64 
M 341.06 192.16 342.4 194.85 
M 343.08 196.2 345.1 200.24 
M 289.06 82.89 292.09 88.96 
M 302.87 110.52 307.59 119.95 
M 321.07 146.9 325.11 154.99 
M 343.3 191.37 348.35 201.46 
M 293.22 85.93 294.23 87.95 
M 305.68 110.86 308.38 116.25 
M 314.44 128.38 317.14 133.77 
M 323.2 145.9 326.57 152.64 
M 338.7 176.9 339.37 178.24 
M 344.77 189.02 349.48 198.46 
M 315.24 124.7 318.61 131.44 
M 319.28 132.78 319.96 134.13 
M 339.5 173.21 343.54 181.3 
M 347.58 189.38 352.21 198.63 
M 306.59 102.13 309.96 108.87 
M 316.7 122.35 323.44 135.82 
M 341.63 172.21 346.35 181.64 
M 349.72 188.38 351.06 191.07 
M 351.74 192.42 354.3 197.55 
M 307.35 98.37 312.74 109.15 
M 318.8 121.28 325.54 134.75 
M 343.73 171.14 349.12 181.92 
M 308.1 94.6 314.17 106.73 
M 321.58 121.56 326.97 132.34 
M 345.16 168.72 347.86 174.11 
M 349.2 176.81 351.23 180.85 
M 310.89 94.9 314.93 102.99 
M 324.36 121.85 325.71 124.55 
M 326.38 125.9 327.73 128.59 
M 347.95 169.02 348.62 170.37 
M 349.29 171.71 350.64 174.41 
M 351.31 175.76 352.66 178.45 
M 313.71 95.28 315.73 99.32 
M 316.41 100.67 317.08 102.02 
M 317.76 103.37 318.43 104.71 
M 339.32 146.49 339.99 147.84 
M 340.67 149.18 343.36 154.58 
M 352.79 173.44 353.47 174.79 
M 315.87 94.31 317.21 97.01 
M 317.89 98.36 318.56 99.7 
M 319.23 101.05 319.91 102.4 
M 340.8 144.17 344.17 150.91 
M 344.84 152.26 345.51 153.61 
M 346.19 154.95 347.53 157.65 
M 341.67 140.64 347.73 152.77 
M 348.4 154.12 349.08 155.46 
M 344.2 140.44 351.61 155.26 
M 354.98 162 355.66 163.35 
M 367.11 186.26 367.79 187.6 
M 368.51 189.06 368.9 189.84 
M 322.14 91.05 325.18 97.11 
M 346.06 138.89 347.41 141.59 
M 348.09 142.93 353.48 153.71 
M 355.5 157.76 359.54 165.84 
M 368.3 183.36 370.95 188.66 
M 325.45 92.39 328.49 98.46 
M 339.27 120.02 340.61 122.72 
M 348.7 138.89 354.76 151.02 
M 356.79 155.06 357.46 156.41 
M 358.81 159.1 362.85 167.19 
M 370.26 182.01 373 187.49 
M 328.85 93.92 331.21 98.63 
M 338.62 113.46 341.32 118.85 
M 341.99 120.19 343.34 122.89 
M 350.75 137.71 351.42 139.06 
M 352.77 141.76 353.44 143.1 
M 354.12 144.45 355.47 147.15 
M 356.14 148.49 357.49 151.19 
M 359.51 155.23 364.9 166.01 
M 372.31 180.84 375.05 186.31 
M 332.25 95.44 333.93 98.8 
M 340 110.93 346.06 123.06 
M 354.82 140.58 355.49 141.93 
M 357.51 145.97 358.19 147.32 
M 361.56 154.06 366.27 163.49 
M 371.66 174.27 372.34 175.62 
M 375.71 182.36 377.08 185.09 
M 342.01 109.69 348.07 121.81 
M 364.92 155.5 366.27 158.2 
M 366.94 159.55 368.29 162.24 
M 371.66 168.98 375.7 177.07 
M 345.37 111.13 350.76 121.91 
M 354.13 128.65 358.17 136.74 
M 373.67 167.73 378.39 177.17 
M 348.79 112.69 352.15 119.43 
M 355.52 126.17 359.57 134.25 
M 360.24 135.6 360.91 136.95 
M 373.72 162.55 374.39 163.9 
M 375.06 165.25 379.78 174.68 
M 357.65 125.14 363.04 135.92 
M 376.51 162.87 382.62 175.08 
M 360.46 125.49 364.5 133.58 
M 373.94 152.45 375.28 155.14 
M 379.33 163.23 380 164.57 
M 380.67 165.92 383 170.57 
M 362.87 125.04 366.24 131.77 
M 373.65 146.6 379.04 157.38 
M 357.86 109.75 360.56 115.14 
M 374.71 143.44 380.1 154.22 
M 380.77 155.57 381.45 156.92 
M 360.7 110.15 363.73 116.22 
M 375.86 140.47 383 154.75 
M 364.57 112.61 366.92 117.33 
M 378.38 140.24 383 149.48 
M 380.91 140.03 383 144.2 
M 380.37 123.12 380.71 123.8 
M 381.38 125.15 383 128.38 
M 227.78 291.39 225.89 297.7 
M 227.78 291.39 230.48 291.39 231.29 291.7 231.62 292.6 231.44 293.2 230.57 294.1 229.58 294.39 226.88 294.39 
M 228.98 294.39 230.09 297.7 
M 234.08 291.39 232.19 297.7 
M 233.09 294.7 234.26 293.8 234.95 293.5 235.85 293.5 236.36 293.8 236.39 294.7 235.49 297.7 
M 239.48 291.39 239.69 291.7 240.08 291.39 239.87 291.1 239.48 291.39 
M 239.15 293.5 237.89 297.7 
M 241.55 293.5 240.29 297.7 
M 241.19 294.7 242.36 293.8 243.05 293.5 243.95 293.5 244.46 293.8 244.49 294.7 243.59 297.7 
M 247.58 291.39 247.79 291.7 248.18 291.39 247.97 291.1 247.58 291.39 
M 247.25 293.5 245.99 297.7 
M 249.65 293.5 248.39 297.7 
M 249.29 294.7 250.46 293.8 251.15 293.5 252.05 293.5 252.56 293.8 252.59 294.7 251.69 297.7 
M 252.59 294.7 253.76 293.8 254.45 293.5 255.35 293.5 255.86 293.8 255.89 294.7 254.99 297.7 
M 261.95 293.5 260.69 297.7 
M 261.68 294.39 261.26 293.8 260.75 293.5 259.85 293.5 259.15 293.8 258.38 294.39 257.81 295.3 257.63 295.89 257.65 296.8 258.08 297.39 258.59 297.7 259.49 297.7 260.18 297.39 260.96 296.8 
M 267.35 293.5 265.46 299.8 
M 267.08 294.39 267.86 293.8 268.55 293.5 269.45 293.5 269.95 293.8 270.38 294.39 270.4 295.3 270.23 295.89 269.65 296.8 268.88 297.39 268.19 297.7 267.29 297.7 266.77 297.39 266.36 296.8 
M 273.05 293.5 272.14 296.5 272.18 297.39 272.69 297.7 273.58 297.7 274.27 297.39 275.45 296.5 
M 276.35 293.5 275.08 297.7 
M 279.68 291.39 278.14 296.5 278.18 297.39 278.69 297.7 279.29 297.7 
M 278.14 293.5 280.25 293.5 
M 282.35 293.5 281.45 296.5 281.48 297.39 281.99 297.7 282.89 297.7 283.58 297.39 284.75 296.5 
M 285.64 293.5 284.39 297.7 
M 290.77 294.39 290.65 293.8 289.85 293.5 288.95 293.5 287.95 293.8 287.48 294.39 287.6 295 288.11 295.3 289.52 295.6 290.02 295.89 290.06 296.8 289.58 297.39 288.58 297.7 287.69 297.7 286.88 297.39 286.76 296.8 
M 292.37 297.1 291.98 297.39 292.19 297.7 292.58 297.39 292.37 297.1 
"/></svg>
