<svg xmlns="http://www.w3.org/2000/svg" width="520" height="320"><rect x="0" y="0" width="520" height="320" fill="floralwhite"/><rect x="10" y="10" width="500" height="300" stroke="black" stroke-width="1" fill="none"/><path stroke="black" stroke-width="1" fill="none" stroke-linecap="round" stroke-linejoin="round" d="
M 176.52 125.94 192.87 121.88 223.69 115.3 244.02 110 254.42 108.49 264.86 109.67 285.2 114.91 295.43 117.29 315.68 122.92 325.84 125.57 336.06 128.02 346.2 130.77 356.19 133.99 366.12 137.45 374.56 141.45 
M 374.56 215.04 373.68 216.48 364.43 221.47 354.35 224.42 343.97 225.99 333.47 226.4 322.96 226.26 312.46 226.39 301.97 227.02 291.47 227.21 280.98 226.57 239.15 222.6 228.72 221.33 218.39 219.42 208.17 217.01 197.84 215.1 184.45 213.38 
M 199.17 159.45 201.99 159.62 
M 249 161.63 250.62 161.45 255.82 159.8 258.54 159.22 261.56 158.89 267.74 159.06 279.71 160.7 
M 290.15 162.2 293.5 162.56 
M 296.79 162.84 299.99 163.02 
M 302.99 163.02 308.32 162.52 
M 310.93 162.29 313.67 162.24 
M 316.58 162.43 319.58 162.76 
M 322.49 163.01 326.74 163.24 330.01 163.81 331.93 164.37 
M 335.87 165.58 341.7 167.28 351.9 169.13 359.27 170.81 362.73 171.3 369.38 171.93 374.56 171.97 
M 183.74 137.8 183.13 138.67 
M 193.73 209.55 195.07 212.32 
M 191.06 143.32 189.38 145.85 
M 200.97 205.89 201.16 206.4 
M 204.47 214.31 205.46 216.51 
M 207.12 137.72 205.57 140.12 
M 204.13 142.66 201.87 146.45 200.96 147.58 
M 199.15 149.89 197.42 152.34 
M 195.68 154.83 192.54 158.76 
M 210.45 208.76 211.47 212.74 
M 213.36 217.63 213.65 218.31 
M 223.87 124.38 222.77 127.44 
M 219.72 132.55 218.84 133.69 217.35 136.22 216.75 137.61 
M 213.91 142.75 211.38 146.24 210.65 147.52 
M 209.19 150.11 207.62 152.62 
M 205.84 154.96 202.18 159.6 
M 218.66 209.17 219.66 211.78 
M 220.94 214.65 222.37 217.66 
M 223.56 220.13 223.68 220.4 
M 226.19 136.34 224.57 138.84 
M 221.65 144.06 217.1 151.73 
M 215.69 154.4 213.53 158.41 212.96 159.19 
M 231.52 217.09 232.85 220.08 
M 236.24 134.43 233.09 139.8 
M 230.76 145.84 230.26 147.42 228.94 150.26 228.1 151.49 
M 224.73 156.41 222.87 159.14 
M 239.62 213 239.9 213.69 
M 241.24 216.61 242.96 219.89 
M 244.36 222.47 244.72 223.14 
M 248.73 125.98 247.12 131.1 246.44 132.65 
M 240.62 144.32 239.38 147.39 
M 237.13 153.7 235.54 157.58 
M 242.9 189.77 243.6 192.04 
M 244.43 194.51 246.36 201.36 
M 247.54 205.78 248 207.85 
M 248.68 210.15 250.49 214.35 254.11 221.91 
M 254.24 135.33 251.92 139.73 250.55 142.81 247.52 150.84 
M 246.37 154.1 245.81 155.75 244.39 158.72 243.44 160.24 
M 252.11 187.39 252.8 189.75 
M 253.68 192.3 255.07 196.19 255.64 198.42 255.92 202.02 256.45 204.21 261.79 216.89 
M 263.98 222.01 264.44 222.98 
M 270.46 124.72 269.43 126.02 268.58 127.5 
M 260.78 142.7 259.36 145.83 
M 254.91 155 252.98 160.59 
M 256.53 171.73 257.55 174.45 
M 261.79 187.2 263.33 192.16 
M 263.95 194.49 265.48 200.27 266.48 202.97 271.11 214.28 274.8 222.24 
M 281.29 131.54 279.35 134.27 
M 277.26 136.84 274.09 140.63 272.44 143.61 270.94 146.75 269.07 149.52 264.83 154.55 262.02 158.85 
M 269.79 179.26 270.47 181.65 
M 271.02 183.93 271.52 186.15 
M 271.88 188.25 272.28 191.25 272.6 192.44 
M 275.04 198.32 276.37 201.37 
M 277.31 204.01 278.75 208.82 
M 279.72 211.45 281.07 214.45 
M 282.69 217.75 285.28 223.16 
M 287.09 142.05 285.93 143.22 283.37 145.33 281.07 147.71 278.28 151.96 
M 276.37 154.74 272.6 159.67 
M 281.81 184.72 283.1 190.31 286.07 200.93 
M 287.51 205.7 287.9 206.91 289.79 211.24 
M 291.38 214.47 295.1 221.73 
M 300.82 142.47 294.17 149.83 
M 291.97 152.33 286.24 158.41 283.75 161.33 
M 288.32 173.13 289.09 175.56 
M 291.92 185.11 292.69 188.42 293.47 190.89 297.02 201.11 297.94 203.67 300.02 208.15 
M 301.58 211.3 306.03 221.2 
M 317.94 133.28 316.45 136.3 
M 313.09 142.02 310.2 146.01 306.04 151.15 300.32 157.2 
M 298.03 159.64 294.95 162.7 
M 300.73 182.53 302.17 187.35 
M 302.96 189.83 306 197.88 
M 307.46 200.97 312.22 210.53 
M 313.59 213.46 316.8 221.28 
M 324.02 140.58 321.16 144.47 313.44 152.83 
M 311.26 155.32 304.96 162.91 
M 307.64 174.77 308.58 177.41 
M 309.25 179.8 309.67 181.94 
M 310.18 184.16 311.5 188.04 312.83 191.05 315.31 196.04 
M 317.01 199.37 327.04 220.4 
M 333.77 142.55 331.67 144.98 
M 329.37 147.21 324.34 151.3 
M 321.8 153.35 320.54 154.39 317.14 157.94 
M 314.81 160.69 313.55 162.21 
M 316.01 170.52 316.78 172.99 
M 317.54 175.45 318.28 177.89 
M 319.95 182.93 323.03 190.16 329.52 203.05 332.72 210.06 
M 334.23 213.06 339.53 222.86 
M 347.74 139.94 346.79 141.25 345.63 142.37 
M 343.26 144.56 337.25 150.03 332.01 154.03 327.06 158.38 324.86 160.83 323.14 163.06 
M 325.99 169.91 327.17 172.7 
M 329.03 177.77 330.07 180.42 
M 331.24 183.19 332.38 185.92 
M 333.47 188.6 335.36 192.83 342.88 207.85 350.44 221.91 
M 355.2 144.96 354.34 146.4 352.07 148.77 344.91 155.61 340.04 160.13 333.81 164.92 
M 342.57 183.33 344.81 188.54 
M 346.09 191.29 348.2 195.58 354.48 207.44 358.7 214.92 
M 360.94 218.64 362.28 220.82 
M 364.33 147.43 361.83 151.96 359.99 154.84 357.95 157.53 355.53 159.85 350.08 163.91 348.89 165.09 
M 346.83 167.19 345.97 168.11 
M 353.94 183.39 356.59 188.06 360.26 195.7 361.79 198.52 367.64 208.72 
M 369.27 211.53 372.69 217.02 
M 373.12 151.21 370.23 155.47 366.77 161.59 364.9 164.52 362.56 166.99 357.49 170.46 
M 361.87 176.75 363.87 179.52 
M 365.79 182.24 374.56 194.94 
M 232.14 114.77 231.81 113.25 
M 257.82 181.84 257.71 182.71 257.91 185.53 
M 347.21 201.59 346.33 201.14 345.49 201.13 341.33 202.47 
M 197 121.11 196.97 121.01 
M 313.45 128.76 310.96 128.42 309.08 128.86 308.69 129.14 
M 374.56 175.48 373.59 174.4 372.91 173.89 
M 306.63 221.21 305.71 219.97 305.51 218.39 302.98 212.7 
M 359.65 148.01 359.57 148.67 359.19 149.01 357.03 149.7 356.05 149.73 355.28 149.52 354.65 149.22 353.9 148.48 
M 363.29 166.07 364.93 165.78 365.78 165.14 366.3 164.12 366.05 163.76 365.36 163.84 
M 365.72 173.08 365.93 174.87 367.21 177.49 367.23 178.21 366.83 180.04 
M 312.51 135.97 313.2 132.56 313.16 132 312.93 131.69 312.55 131.52 310.46 131.06 309.85 130.58 
M 330.69 205.26 329.8 205.82 329.02 206.73 328.56 209.19 328.15 209.99 326.39 211.26 
M 330.59 201 333.14 199.75 334.1 199.5 336.22 199.78 337.31 200.11 338.64 200.93 340.1 201.27 
M 363.71 221.68 363.79 220.51 364.53 218.98 
M 188.56 126.01 188.49 125.01 188.65 123.68 189.53 122.68 
M 355.99 141.68 355.81 142.38 355.27 143.02 355.11 143.47 
M 246.75 191.05 247.7 191.87 249.15 192.27 250.9 193.05 
M 309.38 147.57 308.81 144.44 308.88 143.28 309.41 140.5 309.35 136.84 
M 265.78 189.71 266.95 188.51 267.66 187.26 268.51 185.22 270.18 183.47 270.96 181.77 
M 254.28 153.02 252.83 152.18 251.37 150.43 250.4 148.88 249.46 147.84 249.06 146.82 248.8 145.09 
M 355.73 199.46 354.51 198.73 353.41 197.39 351.55 194.27 350.85 192.64 350.31 191.89 349.72 191.38 348.55 190.85 
M 346.39 147.28 346 146.52 346.18 145.62 
M 280.28 169.94 278.75 170.57 277.45 170.97 277.21 170.88 
M 311.93 136.78 312.79 133.58 312.95 132.19 312.77 131.81 312.45 131.6 310.09 130.87 
M 319.79 196 319.75 196.96 319.45 197.55 318.22 198.96 317.11 199.62 316.94 200 316.96 200.73 
M 322.85 163.32 322.5 161.91 322.75 160.61 324.74 159.41 326.57 159.09 
M 357.59 182.99 358.37 181.86 358.61 181.04 358.8 179.31 358.73 178.34 358.37 177.58 357.8 177.03 355.77 175.63 354.87 175.37 
M 223.87 115.26 224.49 113.2 224.78 106.31 225.43 101.3 225.04 98.34 225.56 91.17 226.2 88.98 227.13 84.75 227.13 80.41 227.75 77.53 228.7 75.58 229.8 73.95 231.3 72.56 232.95 66.8 233.26 63.85 234.77 61.48 236.03 59.86 236.64 57.13 237.83 55.24 239.02 51.65 240.31 48.49 242.24 45.26 245.52 42.6 250.17 38.44 253 36.35 254.93 34.42 257.45 32.67 258.51 31.59 258.55 30 260.81 35.48 260.67 37.92 260.9 40.72 260.51 43.43 258.42 44.45 258.3 46.5 259.28 51.09 259.9 52.79 261.23 55.19 269.76 63.57 270.23 65.23 269.85 66.48 270.76 69.02 281.35 79.37 286.17 87 285.96 88.87 285.39 90.55 285.41 92.83 285.79 94.57 289.32 100.51 290.45 102.84 291.78 104.77 293.2 107.38 291.97 109.06 290.9 110.91 292.41 113.65 294.13 115.64 296.43 117.55 
M 294.87 117.14 294.87 117.14 
M 227.78 114.3 228.25 112.15 228.74 102.59 229.05 99.86 228.8 97.37 228.92 92.82 231.03 84.52 231.15 81.95 230.83 78.53 232.25 74.73 234.27 71.01 235.07 67.95 235.42 64.89 236.95 62.75 238.43 58.44 239.94 57.49 241.98 56.79 242.86 53.53 244.51 50.24 246.25 47.45 
M 231.69 113.35 232.07 111.39 232.08 106.76 232.58 104.31 232.73 101.83 232.84 99 232.58 94.48 233.58 90.37 233.74 86.38 234.12 83.27 233.51 80.34 233.74 77.78 234.31 74.98 234.87 72.88 235.92 71.5 237.03 69.06 237.4 66.18 238.81 64.04 240.01 60.74 240.68 59.73 244.54 57.56 246.27 55.21 247.35 52.27 
M 235.56 112.25 236 110.4 235.88 108.1 236.4 103.13 235.88 96.04 236.01 93.71 236.61 91.84 236.43 89.51 235.96 87.11 236.31 84.19 236.46 78.38 237.17 76.17 237.43 74.42 237.98 72.71 241.03 65.9 242.44 62.32 
M 239.43 111.14 239.82 109.42 239.99 106.98 239.36 100.01 239.29 97.68 239.69 94.97 239.76 92.75 241.39 84.76 240.45 82.26 240.52 79.72 
M 243.34 110.17 243.79 108.19 242.89 103.57 243.11 94.97 244.5 89.64 244.97 86.62 244.42 84.01 244.91 81.27 246.71 79.36 248.1 76.77 248.91 74.86 250.57 73.01 252.16 71.53 254.13 67.34 254.34 64.64 260.23 59.27 
M 247.24 109.2 247.5 107.09 247.38 104.94 247.85 97.75 247.58 95.54 247.65 90.38 248.74 88.81 250.41 84.44 251.9 81.84 254.07 79.38 255.13 77.51 256.15 75.31 256.76 73.22 260.47 70.93 
M 251.25 108.79 252.41 104.86 252.6 102.61 252.55 97.22 252.29 95.19 252.52 92.46 253.44 89.74 255.4 88.31 256.79 86.22 259.44 81.55 
M 255.25 108.41 256.36 106.59 256.79 104.63 257.46 99.76 257.64 97.01 258.72 94.38 260.05 91.75 260.63 89.33 263.05 88.07 266.15 85.4 268.51 83.19 270.13 81.02 
M 259.25 108.84 260.81 107.32 262.2 103.1 263.52 97.99 267.03 92.63 270.42 88.47 
M 263.25 109.3 264.91 107.57 266.45 104.07 267.07 101.86 270.72 96.37 272.72 94.86 275.35 91.65 277.44 89.92 283.2 86.82 
M 267.17 110.21 268.66 108.74 269.61 106.65 270.65 105.03 271.16 103.46 272.85 100.67 274.66 98.9 277.34 97.22 279.24 95.21 281.98 94.25 284.02 93.32 
M 271.09 111.12 272.31 109.59 275.31 104.2 277.25 102.75 279.2 100.67 283 99.21 
M 274.97 112.19 276.54 110.54 277.05 108.61 278.28 106.83 287.46 103.49 
M 278.85 113.27 280.25 112.34 281.44 110.46 
M 282.74 114.28 283.98 113.65 286.17 112.93 
M 286.64 115.28 286.64 115.28 
M 290.57 116.17 290.62 116.19 
M 187.66 165.11 211.12 156.64 211.42 157.39 187.83 167.56 
M 187.95 169.1 241.45 154.87 241.67 155.64 188.12 171.76 
M 188.16 173.22 257.62 161.82 257.76 162.62 188.24 175.9 
M 188.35 177.35 263.06 172.66 263.12 173.46 188.56 180.01 
M 188.68 181.51 261.73 184.29 261.71 185.1 188.91 184.17 
M 188.98 185.76 246.5 193.94 246.4 194.74 188.95 188.37 
M 188.93 189.96 246.53 204.15 246.35 204.94 188.87 192.61 
M 188.83 194.16 246.55 214.69 246.29 215.45 188.53 196.81 
M 188.24 199.23 210.75 210.33 210.42 211.06 187.88 201.6 
M 208.25 158.76 214.32 159.3 220.35 159.35 226.32 158.67 229.28 158.06 235.18 156.54 
M 235.45 157.51 238.25 159.72 241.23 161.48 244.47 162.55 246.19 162.83 249.75 163.12 
M 249.92 164.11 250.06 166.61 250.62 168.88 251.84 170.81 254.66 173.19 
M 254.73 174.2 253.43 176.24 252.6 178.34 252.51 180.54 253.48 183.98 
M 253.45 184.99 249.89 185.88 246.58 187.18 243.64 189.12 242.3 190.32 239.78 192.98 
M 239.66 193.99 238.66 195.9 238.15 197.8 238.38 199.69 239.83 202.5 
M 239.6 203.49 238.62 205.48 238.13 207.45 238.38 209.41 239.85 212.31 
M 239.53 213.27 232.59 211.25 229.1 210.4 222.04 209.22 214.88 208.77 207.65 208.8 
M 211.28 159.06 217.34 159.41 220.35 159.35 226.32 158.67 232.23 157.33 
M 236.84 158.65 239.71 160.68 241.23 161.48 244.47 162.55 247.96 163.01 
M 216.65 164.21 219.5 166.05 221.61 166.75 223.88 167.05 
M 249.96 165.38 250.27 167.78 250.62 168.88 251.84 170.81 253.64 172.43 
M 225.18 169.72 225.61 171.99 226.4 173.25 227.57 174.3 
M 254.05 175.22 252.93 177.28 252.46 179.43 252.51 180.54 253.07 182.82 
M 236.57 176.56 235.72 178.15 235.47 178.96 235.4 180.65 235.82 182.4 
M 219.1 177.91 218.5 179.01 218.25 180.16 218.58 181.97 
M 251.65 185.41 248.19 186.45 246.58 187.18 243.64 189.12 241.02 191.62 
M 226.28 184.99 222.98 186.14 221.07 187.4 219.37 189.03 
M 239.12 194.95 238.32 196.85 238.15 197.8 238.38 199.69 239.26 201.56 
M 218.14 192.32 217.5 194.17 217.65 195.4 218.22 196.62 
M 239.08 204.48 238.29 206.47 238.13 207.45 238.38 209.41 239.27 211.35 
M 218.11 199.64 217.49 201.57 217.65 202.84 218.23 204.1 
M 236.06 212.23 229.1 210.4 222.04 209.22 218.47 208.91 211.27 208.75 
M 239.65 222.66 245.63 229.53 247.6 232.11 249.46 233.24 262.34 255.08 260.92 260.58 261.41 265.67 261.27 268.32 260.62 270.98 259.43 273.08 258.62 275.42 256.74 279.82 254.38 280 248.13 275.59 245.74 273.58 237.9 265.89 229.58 258.78 228.83 261.26 228.78 263.63 226.66 262.69 223.53 258.7 206.07 230.48 205.26 227.12 204.55 222.93 203.37 219.19 200.2 215.43 
M 235.65 222.21 237.95 225.15 239.55 227.51 246.36 236.16 247.17 238.25 250.24 242.49 
M 231.65 221.76 236.65 229.12 238.34 231.3 239.93 233.97 244.56 239.85 245.49 242.13 246.93 244.71 247.92 247.39 
M 227.67 221.17 233.78 230.63 235.71 232.6 237.06 235.24 238.75 237.53 240.46 239.1 241.9 241.69 243.66 243.95 245.14 249.36 246.18 251.02 247.15 254.04 248.81 256.26 250.11 257.16 251.47 258.93 
M 223.69 220.58 227.93 228.48 230.94 232.31 232.01 234.68 233.45 236.33 237.36 242.92 239.29 245.83 240.7 249.37 242.55 251.92 243.03 254.23 243.34 256.81 244.04 258.96 245.29 260.6 248.17 263.63 250.22 268.29 
M 219.76 219.72 223.87 227.66 225.28 229.84 227.25 231.66 228.49 233.69 230.67 240.6 231.85 243.07 232.19 246.57 233.56 249.25 
M 215.83 218.86 219.17 224.23 221.57 228.83 222.6 231.26 224.08 233.53 225.32 240 226.87 242.54 227.47 244.35 228.29 245.93 
M 211.91 217.92 213.94 220.94 216.62 226.11 217.41 229.21 219.56 233.94 220.99 236.14 222.08 238.35 222.45 241.72 225.42 248.51 227.13 249.24 228.23 251.89 227.95 254.16 
M 208 216.98 209.67 220.08 211.7 225.77 213.5 228 214.89 230.59 215.83 232.82 216.6 235.32 218.18 238.3 219.11 239.27 
M 204.05 216.19 205.88 219.4 207.38 225.38 208.84 227.7 210.64 229.51 212.23 231.46 213.33 233.78 214.35 236.82 215.23 238.8 
M 350.09 225.32 352.8 229.6 357.43 237.93 358.24 248.32 358.01 250.44 358.2 255.35 357.62 257.92 355.18 258.87 351.54 262.06 349.52 260.92 348.21 259.67 346.15 258.22 338.98 255.59 337.68 255.24 335.6 254.11 333.63 255.35 330.85 254.01 328.46 251.28 316.25 235.84 314.58 233.46 313.27 230.21 310.65 226.44 
M 346.09 225.76 348.73 229.14 350.1 232.28 354.04 239.76 356.2 241.08 357.44 243.83 357.66 246.61 
M 342.09 226.19 345.84 231.29 349.04 236.7 350.56 241.05 354.98 247.72 355.91 250.41 
M 338.07 226.31 340.26 229.39 345.95 239.11 346.77 241.86 348.32 243.75 349.24 246.14 349.85 249.2 350.94 251.5 
M 334.04 226.41 336.06 229.15 336.96 231.75 338.08 234.11 342.97 241.55 344.44 246.4 346.01 249.38 347.88 253.51 
M 330.02 226.36 331.76 229.27 334.16 234.5 335.74 236.72 337.42 239.63 338.33 242.46 339.81 244.71 340.01 247.42 340.46 250.43 342.19 252.34 344.24 254.17 
M 326 226.31 327.56 229.38 328.35 231.93 329.44 234.72 331.04 238.13 333.5 240.42 335.22 243.22 335.1 245.26 336.1 247.78 
M 321.97 226.25 323.66 229.89 326.62 234.66 327.35 237.88 328.91 241.21 
M 317.95 226.22 320.11 229.72 321.35 232.61 322.68 235.13 325.78 239.65 326.63 242.65 328.24 245.15 
M 313.93 226.34 318.65 235.03 320.58 237.5 321.96 239.73 323.84 241.65 324.51 244.62 326.77 246.12 
M 373.76 140.4 376.55 139.55 378.73 138.19 383.15 136.08 385.52 134.76 387.5 133.42 389.45 132.81 391.9 131.37 395.85 128.26 397.41 126.8 399.62 126.21 402.64 124.75 406.43 122.12 408.46 120.43 412.62 117.77 415.6 117.11 417.16 115.66 419.84 114.87 421.62 113.43 425.71 110.74 427.99 108.48 430.42 106.87 431.2 106.72 437.03 102.92 435.59 112.91 435.79 115.38 436.64 118.49 436.68 120.8 435.75 122.86 434.67 127.82 433.54 131.8 433.94 134.48 434.01 136.83 433.69 138.78 431.87 142.97 431.43 145.59 431.24 150.7 430.94 153.09 429.57 157.81 428.45 159.74 428.61 164.97 430.53 175.69 430.68 182.8 430.58 185.23 429.84 187.1 429.38 189.25 430.19 192.07 431.17 194.74 431.54 197.05 432.85 202.25 433.16 206.96 432.6 208.77 431.84 210.34 432.59 215.39 432.35 217.3 432.26 222.2 431.78 224.24 432.38 227.09 433.79 230.14 434.17 232.15 434.87 234.49 434.53 236.78 434.43 239.34 434.54 242.12 434.23 244.4 434.78 246.3 436.52 250.92 437.35 262.9 434.35 261.22 432.36 259.68 431.07 257.13 428.9 255.08 427.06 252.97 425 251.93 422.72 251.45 420.82 250.41 418.91 248.64 414.23 245.65 413.06 244.43 411.95 242.85 408.36 240.91 406.3 238.91 403.7 237.82 400.2 234.93 395.35 233.44 393 231.74 392.02 229.81 389.76 228.05 387.91 226.29 385.8 224.65 383.22 223.33 380.79 221.8 373.76 216.44 
M 373.76 144.2 376.43 143.75 380.91 141.58 385.48 138.73 388.27 137.79 390.2 136.57 392.75 136.4 395.43 135.32 399.52 133.02 400.42 131.4 407.96 128.4 412.59 126.05 414.34 123.98 419.34 122.54 421.75 121.3 425.53 118.32 427.24 118.18 
M 376.61 148.01 379.16 146.91 381.55 145.62 383.67 145.29 385.97 144.56 388.18 143.17 393 140.89 395.17 140.11 400.25 138.72 402.37 137.26 404.45 136.73 406.18 135.66 
M 379.27 151.17 381.89 150.22 386.14 148.23 388.57 147.67 395.4 144.72 397.61 144.59 400.19 143.32 402.92 142.43 404.96 142.55 406.72 142.08 
M 382.19 154.41 384.36 153.76 386.85 153.29 389.56 151.95 391.92 151.8 393.98 151.35 395.95 150.55 398.13 149.3 405.48 147.74 407.41 146.75 412.21 145.82 414.81 144.74 418.11 143.98 421.16 142.61 
M 373.76 159.41 376.93 159.54 384.78 158.17 387.3 157.57 389.38 156.86 391.76 156.61 396.69 155.49 399 154.27 401.32 153.38 407.24 152.5 409.74 151.93 411.99 150.99 416.73 151.5 418.72 150.5 
M 379.91 162.81 387.23 162.02 389.31 160.83 392.08 160.23 397.57 159.82 402.45 159.94 404.58 159.14 406.71 158.8 409.25 158.06 412.22 158.09 416.6 156.34 418.73 155.12 421.25 155.12 424.86 153.89 427.72 153.75 430.32 153.37 
M 380.17 167.39 385.54 167.16 388.13 166.89 390.03 166.09 393.8 166.35 397.14 165.07 400.66 164.64 402.95 165.2 405.05 164.7 
M 380.16 171.47 388.04 171.67 390.24 171.43 394.42 171.36 397.36 170.29 406.08 168.78 408.62 169.11 410.94 170.52 413.37 170.03 414.25 168.47 419.01 167.66 424.81 168.99 
M 377.42 175.79 387.03 175.24 390.21 175.68 393.71 176.44 396.19 176.26 398.23 175.28 401.11 175.07 403.24 175.09 
M 373.76 178.42 376.99 179.38 379.7 179.79 384.24 180.23 390.67 180.44 393.47 180.83 401.69 180.76 404.43 181.43 
M 381.78 183.65 384.54 183.77 386.92 184.55 390.06 185.24 392.51 184.96 395.46 185.07 398 186.77 400.88 187.01 403.5 186.61 406.03 187.95 408.85 187.97 412.23 187.17 414.64 187.54 417.04 187.25 419.54 187.39 424.96 188.48 
M 373.76 186.02 379.26 187.47 384.53 188.12 387.18 188.79 398.24 190.45 400.2 191.62 405.58 193.78 407.81 193.69 410.03 194.63 412.73 195.21 416.32 194.66 418.92 195.06 
M 381.81 192.22 384.74 192.61 387.33 193.17 389.66 193.89 393.13 194.07 396.25 194.46 400.28 197.7 402.77 199.1 
M 376.75 195.19 379.11 195.89 384.28 196.81 389.57 198.43 392.15 199.68 396.38 200.74 400.76 203.24 403.4 204.18 405.65 204.3 407.7 205.2 410.83 205.92 413.91 205.88 
M 378.82 199.81 381.48 200.25 386.82 202.43 393.96 205.8 396.64 206.25 399.53 207.1 401.29 208.74 403.73 209.63 
M 373.76 201.23 376.41 202.97 381.24 204.9 389.13 208.46 391.47 208.99 395.95 211.23 399.08 213.27 410.12 217.38 412.44 217.61 416 217.45 418.44 219.41 420.53 220.85 
M 378.94 208.43 384.12 210.63 388.2 212.99 390.02 213.55 392.45 214.61 394.76 215.85 397.77 216.85 404 219.57 
M 379.15 212.43 381.66 213.7 383.45 215.31 385.83 216.48 388.26 217.94 390.31 218.82 392.42 219.95 394.95 221.84 402.86 225.4 405.59 226.45 407.43 227.95 
M 376.77 214.78 381.15 217.79 385.45 221.1 390.18 223.65 395.19 226.93 397.78 228.23 399.54 229.35 401.36 229.98 403 231.09 405.39 231.99 406.88 233.71 409.96 236.09 412.36 237.61 415.97 238.3 
M 364.42 219.53 362.86 220.01 360.01 221.42 357.26 224.2 357.98 223.66 
M 92.65 164.68 94.11 162.55 96.25 160.21 99.34 157.82 103.12 155.33 106.92 152.54 111.87 149.63 117.65 146.66 129.82 140.87 135.89 137.72 148.4 132.3 154.37 130.13 165.58 127.37 170.36 126.55 176.48 125.88 179.54 130.25 183.35 139.19 185.05 143.67 186.27 148.2 187.37 157.39 187.45 162.02 188.11 171.24 188.23 175.87 188.99 185.08 188.82 194.38 188.26 199.07 186.76 208.49 184.45 213.33 172.74 213.06 164.25 212.43 156.7 211.25 149.62 209.1 142.94 206.43 131.15 201.08 125.89 197.88 120.51 195.19 115.27 192 
M 113.27 190.57 105.77 184.95 102.5 181.63 99.74 178.42 97.16 175.21 95.91 173.24 
M 164.32 152.69 163.92 160.42 163.39 163.99 162.6 167.34 162.1 170.42 161.61 175.87 162.45 181.28 164.26 187.66 164.23 191.68 150.91 192.42 145.65 192.53 140.28 191.76 134.91 190.32 129.68 188.49 124.97 186.38 
M 112.9 190.16 107.97 184.92 99.21 176.77 95.13 172.35 90.92 168.15 90.69 166.18 92.21 164.67 94.27 164.72 95.76 166.18 99.13 170.98 102.86 175.83 110.67 184.88 115.51 191.79 
M 115.06 192.39 105.83 188.42 85 180.26 83.27 179.42 82.64 177.54 83.59 175.82 85.69 175.55 87.46 176.36 99.84 183.01 107.1 186.7 115.38 191.69 
M 130.24 161.5 129.3 157.97 129.57 154.32 131 150.96 133.45 148.25 136.65 146.48 140.24 145.84 143.85 146.41 147.08 148.11 149.58 150.78 151.08 154.11 151.42 157.75 150.56 161.3 148.59 164.37 145.73 166.65 142.29 167.87 138.64 167.9 135.17 166.75 132.26 164.54 130.24 161.5 
M 130.1 161.19 129.65 159.89 129.26 157.17 129.54 154.44 130.49 151.86 132.03 149.59 134.09 147.78 135.27 147.07 137.85 146.13 139.21 145.9 141.95 145.96 144.6 146.69 
M 131.59 160.57 130.96 158.31 130.87 157.14 131.12 154.78 
M 133.14 150.79 135 149.11 136.01 148.5 138.21 147.7 139.37 147.5 141.72 147.55 143.98 148.17 
M 133.07 159.95 132.56 158.08 132.48 157.1 132.7 155.1 
M 134.28 151.94 135.91 150.43 136.75 149.93 138.58 149.26 140.52 149.06 142.44 149.34 143.37 149.66 
M 134.56 159.34 134.09 157.07 134.29 155.37 
M 135.62 152.84 136.82 151.76 138.94 150.83 140.48 150.67 142.75 151.15 
M 136.31 158.76 135.93 157.35 136.12 155.71 
M 137.19 153.91 137.59 153.46 138.87 152.76 140.31 152.5 141.75 152.73 143.05 153.41 144.05 154.47 144.65 155.81 144.78 157.26 144.44 158.68 143.65 159.91 142.5 160.82 141.13 161.31 139.67 161.32 138.28 160.86 137.12 159.98 136.31 158.76 
M 136.14 155.71 136.04 155.91 
M 138.81 152.79 137.97 154.46 
M 137.23 155.95 136.14 158.13 
M 140.14 152.53 138.83 155.16 
M 138.35 156.11 136.72 159.38 
M 141.29 152.65 139.67 155.9 
M 139.53 156.18 137.49 160.26 
M 142.31 153.02 138.38 160.9 
M 143.23 153.6 139.41 161.24 
M 144.02 154.44 140.58 161.32 
M 144.6 155.7 141.93 161.02 
M 144.55 158.2 143.87 159.57 
M 96.64 174.39 101.33 179.08 
M 94.28 162.36 98.62 166.71 
M 96.64 159.9 101.42 164.67 
M 99.37 157.8 104.14 162.57 
M 102.29 155.89 105.33 158.92 
M 105.11 153.88 109.26 158.03 
M 107.98 151.92 110.52 154.46 
M 111.02 150.13 114.16 153.27 
M 114.17 148.45 116.76 151.04 
M 117.36 146.81 121.96 151.41 
M 120.62 145.24 124.9 149.53 
M 123.88 143.68 127.38 147.17 
M 127.16 142.13 129.88 144.84 
M 130.42 140.56 134.43 144.56 
M 133.6 138.91 136.2 141.5 
M 136.84 137.31 140.12 140.59 
M 140.22 135.87 144.54 140.18 
M 143.6 134.41 147.38 138.2 
M 146.95 132.94 151.71 137.7 
M 150.41 131.57 154.41 135.57 
M 153.95 130.28 158.5 134.83 
M 157.76 129.26 162.07 133.57 
M 161.63 128.3 166.17 132.84 
M 165.54 127.38 168.61 130.46 
M 169.66 126.67 173.88 130.89 
M 173.92 126.1 178.74 130.93 
M 176.61 188.69 176.26 190.55 175.35 192.52 175.01 194.09 174.77 194.39 
M 172.45 150.79 171.79 150.37 170.49 149.04 169.51 147.85 168.93 146.78 168.82 145.12 169.37 141.91 
M 184.11 181.04 186.29 179.92 186.4 179.62 
M 147.02 186.79 147.63 186 149.87 181.9 150.44 180.6 150.31 180.03 
M 157.97 189.46 158.19 188.96 158.28 187 158.88 183.75 159.53 181.73 159.58 180.46 
M 178.13 178.49 177.9 177.7 177.91 176.59 176.4 172.87 
M 143.16 181.03 141.46 179.82 141.24 179.48 141.16 178.35 140.92 177.94 140.65 177.82 
M 149.51 200.33 150.73 200.04 153.17 199.87 154.75 199.2 155.75 198.27 156.14 197.68 157.11 195.37 
M 131.05 192.38 132.42 190.2 134.43 188.88 135.99 187.18 136.47 186.89 
M 137.4 172.14 135.59 171.75 131.09 172.06 130.37 171.86 
M 121.72 156.58 120.64 155.07 120.28 153.43 121.54 149.44 122.23 148.46 
M 164 192.76 163.67 191.27 163.61 189.47 163.84 188.04 164.05 187.83 164.28 187.89 
M 177.41 195.16 176.52 195.14 175.54 195.52 174.66 194.97 
M 158 211.45 157.22 211.16 156.59 211.22 
M 126.73 191.02 125.95 192.32 124.01 193.87 123.87 194.26 
M 98.13 168.43 97.21 167.46 96.8 166.75 95.32 163.48 95.05 162.22 95.48 161.05 
M 128.67 187.67 129.63 188.78 130.53 189.31 
M 153.18 203.97 153.9 203.04 
M 175.65 167.32 172.62 166.58 171.73 166.56 170.52 167 169.72 167.87 169.01 168.99 168.96 169.91 168.59 170.91 
M 153.42 203.01 154.04 202.35 155.31 200.22 
M 126.75 186.95 127.23 186.15 128.6 185.15 130.02 185.11 131.05 185.52 
M 96.25 173.69 96.1 173.45 
M 148.63 175.31 147.51 176.16 145.81 176.71 144.85 177.59 
M 102.13 158.83 104.7 160.82 105.38 161.77 105.51 162.65 105.31 163.65 104.53 164.82 
M 159.14 175.43 156.85 172.82 154.32 171.09 153.03 170.02 151.02 167.62 
M 166.98 137.28 169.31 136.45 171.33 136.22 172.45 136.52 173.1 137.74 
M 171.06 139 171.07 139.72 170.87 139.97 
M 115.46 188.27 115.89 187.16 116.65 186.53 
M 174.76 160.09 174.19 161.11 173.21 161.37 
M 93.83 183.69 99.01 187.13 103.95 190.05 109.16 192.73 114.61 195.08 120.12 197.19 131.15 201.08 
M 177.14 125.72 185.49 134.07 
M 182.27 124.41 187.86 130 
M 187.44 123.15 196.67 132.38 
M 192.66 121.93 199.22 128.48 
M 197.96 120.78 204.08 126.91 
M 203.28 119.67 210.07 126.46 
M 208.62 118.57 214.8 124.75 
M 213.94 117.45 221.96 125.47 
M 219.23 116.3 225.15 122.22 
M 224.47 115.11 230.38 121.01 
M 229.65 113.85 238.4 122.59 
M 234.73 112.48 239.68 117.44 
M 239.74 111.06 247.64 118.96 
M 244.91 109.78 252.48 117.35 
M 250.42 108.86 258.86 117.29 
M 256.52 108.52 262.91 114.91 
M 263.88 109.44 273.11 118.67 
M 272.34 111.46 280.18 119.3 
M 281.2 113.88 290.59 123.27 
M 289.75 115.99 296.08 122.32 
M 298.23 118.03 304.58 124.39 
M 307.14 120.5 313.17 126.53 
M 316.12 123.04 324.13 131.06 
M 324.83 125.31 332.19 132.67 
M 333.28 127.33 338.21 132.25 
M 341.88 129.49 347.98 135.59 
M 351.11 132.28 358.25 139.42 
M 360.88 135.61 368.28 143.01 
M 371.07 139.36 375.99 144.28 
M 233.78 291.39 229.49 297.7 
M 233.78 291.39 234.29 297.7 
M 231.02 295.6 234.02 295.6 
M 237.05 293.5 235.79 297.7 
M 236.69 294.7 237.86 293.8 238.55 293.5 239.45 293.5 239.96 293.8 239.99 294.7 239.09 297.7 
M 239.99 294.7 241.16 293.8 241.85 293.5 242.75 293.5 243.26 293.8 243.29 294.7 242.39 297.7 
M 246.05 293.5 245.15 296.5 245.18 297.39 245.69 297.7 246.59 297.7 247.28 297.39 248.45 296.5 
M 249.35 293.5 248.09 297.7 
M 254.48 294.39 254.36 293.8 253.55 293.5 252.65 293.5 251.66 293.8 251.18 294.39 251.3 295 251.81 295.3 253.22 295.6 253.73 295.89 253.76 296.8 253.28 297.39 252.29 297.7 251.39 297.7 250.58 297.39 250.46 296.8 
M 262.27 291.39 261.68 291.39 260.99 291.7 260.41 292.6 258.89 297.7 
M 259.25 293.5 261.35 293.5 
M 266.75 293.5 265.49 297.7 
M 266.48 294.39 266.06 293.8 265.55 293.5 264.64 293.5 263.96 293.8 263.18 294.39 262.61 295.3 262.43 295.89 262.46 296.8 262.88 297.39 263.39 297.7 264.28 297.7 264.98 297.39 265.76 296.8 
M 273.08 291.39 271.19 297.7 
M 272.18 294.39 271.76 293.8 271.25 293.5 270.35 293.5 269.65 293.8 268.88 294.39 268.31 295.3 268.13 295.89 268.15 296.8 268.58 297.39 269.08 297.7 269.99 297.7 270.68 297.39 271.45 296.8 
M 276.05 293.5 275.36 293.8 274.58 294.39 274.01 295.3 273.83 295.89 273.86 296.8 274.27 297.39 274.79 297.7 275.69 297.7 276.38 297.39 277.15 296.8 277.73 295.89 277.9 295.3 277.88 294.39 277.45 293.8 276.95 293.5 276.05 293.5 
M 281.18 291.39 279.29 297.7 
M 286.25 293.5 284.99 297.7 
M 285.98 294.39 285.56 293.8 285.05 293.5 284.14 293.5 283.45 293.8 282.68 294.39 282.11 295.3 281.93 295.89 281.95 296.8 282.38 297.39 282.89 297.7 283.79 297.7 284.48 297.39 285.26 296.8 
M 287.87 297.1 287.48 297.39 287.69 297.7 288.08 297.39 287.87 297.1 
"/></svg>
