<svg xmlns="http://www.w3.org/2000/svg" width="520" height="320"><rect x="0" y="0" width="520" height="320" fill="floralwhite"/><rect x="10" y="10" width="500" height="300" stroke="black" stroke-width="1" fill="none"/><path stroke="black" stroke-width="1" fill="none" stroke-linecap="round" stroke-linejoin="round" d="
M 158.61 128.79 168.4 126.46 178.17 124.76 187.95 123.39 207.5 121.03 217.28 119.94 227.06 119.15 256.39 117.46 266.16 117.41 285.72 118.09 295.5 118.28 315.05 118.13 324.83 118.54 334.6 119.58 344.38 121.14 354.16 123.04 373.71 127.4 383.49 130.06 393.27 133.77 394.28 134.78 
M 394.28 169.11 393.27 169.71 383.49 171.73 354.16 175.85 344.38 177.03 324.83 179.04 315.05 180.45 298.55 183.4 
M 184.04 181.18 178.17 180.75 148.88 177.81 
M 159.61 130.47 160.65 130.04 162.22 128.72 162.87 127.77 
M 167.46 157.77 166.5 156.15 166.11 155.8 
M 168.5 132.64 169.69 132.11 171.21 130.75 172.2 129.21 172.2 128.26 171.21 126.72 170.51 126.09 
M 172.6 127.49 173.57 126.93 174.89 125.33 
M 177.97 146.95 179.19 146.43 180.76 145.08 181.77 143.56 181.77 142.61 180.76 141.08 179.19 139.74 177.97 139.21 
M 181.1 128.95 182 128.38 183.15 126.9 183.89 125.24 183.78 123.97 
M 185.7 135.87 186.85 135.3 188.32 133.83 189.27 132.16 189.27 131.13 188.32 129.46 186.85 127.99 185.7 127.42 
M 188.94 129.88 189.84 129.27 190.99 127.7 191.73 125.92 191.73 124.82 190.97 123.02 
M 197.49 131.78 198.46 131.1 199.69 129.36 200.49 127.39 200.49 126.17 199.69 124.2 198.46 122.46 198 122.14 
M 204.14 144 204.74 142.87 204.74 141.73 203.76 139.88 202.24 138.25 201.05 137.62 
M 199.1 124.24 200.18 123.54 201.59 121.72 
M 204.13 140.91 205.38 140.22 207 138.46 208.04 136.47 208.04 135.24 207 133.24 205.38 131.49 204.13 130.8 
M 206.36 134.02 207.3 133.28 208.51 131.36 209.28 129.19 209.28 127.85 208.51 125.68 207.3 123.77 206.36 123.02 
M 207.27 125.56 208.32 124.82 209.65 122.92 210.52 120.69 
M 214.33 142.59 215.89 140.66 216.84 138.54 216.84 137.23 215.89 135.11 214.42 133.24 213.27 132.51 
M 214.55 135.3 215.41 134.52 216.52 132.52 217.23 130.24 217.23 128.84 216.52 126.57 215.41 124.56 214.55 123.78 
M 215.02 126.27 216.03 125.51 217.32 123.56 218.16 121.35 218.12 119.88 
M 223.93 141.42 224.68 139.55 224.68 138.2 223.81 136.02 222.47 134.1 221.43 133.35 
M 222.2 135.82 223.05 135.03 224.13 133.01 224.83 130.71 224.83 129.29 224.13 126.99 223.05 124.97 222.2 124.18 
M 222.72 126.9 223.76 126.12 225.08 124.13 225.94 121.87 225.94 120.48 225.48 119.27 
M 230.08 136.54 230.97 135.74 232.1 133.71 232.83 131.41 232.83 129.99 232.1 127.69 230.97 125.66 230.08 124.87 
M 230.81 127.91 231.9 127.12 233.31 125.09 234.21 122.8 234.21 121.38 233.09 118.79 
M 240.49 139.4 239.71 137.46 238.33 135.51 237.25 134.75 
M 231.58 119.45 232.3 118.83 
M 238.37 137.61 239.3 136.83 240.49 134.82 241.26 132.54 241.26 131.13 240.49 128.85 239.3 126.84 238.37 126.05 
M 239.34 129.31 240.45 128.52 241.88 126.49 242.8 124.19 242.8 122.76 241.88 120.46 240.36 118.36 
M 248.15 138.8 246.69 136.74 245.59 135.99 
M 240.43 121.22 241.36 120.41 242.59 118.24 
M 247.46 138.55 247.87 138.2 249.03 136.22 249.78 133.98 249.78 132.6 249.03 130.36 247.87 128.38 246.97 127.61 
M 247.68 130.43 248.74 129.64 250.09 127.64 250.97 125.37 250.97 123.96 250.09 121.69 248.74 119.69 247.68 118.9 
M 257.08 141.68 256.33 139.82 254.96 137.9 253.89 137.15 
M 248.5 121.8 249.36 121.03 250.45 119.06 250.87 117.77 
M 264.54 145.32 265.01 144.11 265.01 142.75 264.17 140.54 262.85 138.6 261.83 137.84 
M 263.15 131.11 264.18 130.38 265.51 128.52 266.37 126.41 266.37 125.1 265.51 122.98 264.18 121.12 263.15 120.39 
M 264.31 122.36 265.24 121.71 266.43 120.06 267.19 118.19 267.19 117.44 
M 269.88 140.35 270.73 139.57 271.81 137.58 272.51 135.32 272.51 133.93 271.81 131.67 270.73 129.68 269.88 128.9 
M 271.23 131.76 272.31 131.07 273.68 129.3 274.56 127.29 274.56 126.05 273.68 124.04 272.31 122.27 271.23 121.58 
M 277.04 149.65 278 148.92 279.24 147.04 280.03 144.9 280.03 143.58 279.24 141.45 278 139.57 277.04 138.83 
M 273 123.68 273.96 123.06 275.18 121.49 275.97 119.71 275.97 118.61 275.58 117.71 
M 277.73 140.67 278.58 139.94 279.66 138.07 280.36 135.94 280.36 134.63 279.66 132.51 278.58 130.64 277.73 129.91 
M 283.74 158.56 284.47 157.86 285.41 156.06 286.01 154.02 286.01 152.76 285.41 150.72 284.47 148.92 283.74 148.21 
M 279.44 132.5 280.51 131.85 281.88 130.19 282.76 128.3 282.76 127.13 281.88 125.24 280.51 123.57 279.44 122.92 
M 288.42 165.42 289.3 164.77 290.41 163.09 291.14 161.2 291.14 160.03 290.41 158.13 289.3 156.46 288.42 155.81 
M 281.64 124.97 282.57 124.39 283.77 122.88 284.54 121.18 284.54 120.13 283.77 118.43 283.44 118.01 
M 285.38 140.7 286.21 140.03 287.26 138.3 287.95 136.35 287.95 135.14 287.26 133.19 286.21 131.47 285.38 130.79 
M 290.16 157.53 290.87 156.85 291.78 155.12 292.37 153.16 292.37 151.95 291.78 149.98 290.87 148.25 290.16 147.58 
M 297.17 180.37 296.34 179.17 295.54 178.6 
M 284.59 118.85 285.91 118.1 
M 287.47 133.07 288.5 132.46 289.83 130.89 290.68 129.12 290.68 128.02 289.83 126.24 288.5 124.67 287.47 124.06 
M 295.04 164.78 295.93 164.13 297.07 162.46 297.81 160.57 297.81 159.4 297.07 157.51 295.93 155.83 295.04 155.18 
M 289.96 125.95 290.85 125.39 291.98 123.95 292.71 122.32 292.71 121.32 291.98 119.69 290.74 118.19 
M 292.88 140.66 293.69 140.03 294.73 138.43 295.39 136.61 295.39 135.48 294.73 133.66 293.69 132.05 292.88 131.42 
M 292.85 119.78 293.89 119.25 294.86 118.26 
M 302.06 164.59 303.01 163.93 304.24 162.26 305.02 160.37 305.02 159.19 304.24 157.3 303.01 155.62 302.06 154.97 
M 297.78 126.41 298.61 125.87 299.66 124.5 300.34 122.94 300.34 121.97 299.66 120.42 298.61 119.04 297.78 118.51 
M 300.27 140.74 301.06 140.13 302.09 138.55 302.74 136.77 302.74 135.67 302.09 133.89 301.06 132.32 300.27 131.7 
M 307.46 172.54 308.29 171.89 309.34 170.23 310.03 168.35 310.03 167.18 309.34 165.3 308.29 163.64 307.46 162.99 
M 300.5 120.15 301.45 119.64 302.74 118.2 
M 302.67 133.65 303.63 133.07 304.85 131.58 305.64 129.9 305.64 128.86 304.85 127.18 303.63 125.69 302.67 125.11 
M 305.92 148.99 306.9 148.35 308.16 146.7 308.97 144.84 308.97 143.68 308.16 141.82 306.9 140.17 305.92 139.52 
M 309.63 164.96 310.64 164.3 311.92 162.63 312.75 160.74 312.75 159.56 311.92 157.67 310.64 156 309.63 155.34 
M 315.06 177.33 315.61 176.12 315.61 175.03 314.81 173.28 313.57 171.74 312.6 171.13 
M 305.08 126.52 305.86 125.98 306.86 124.6 307.51 123.03 307.51 122.06 306.86 120.49 305.86 119.11 305.08 118.57 
M 307.55 140.91 308.34 140.29 309.35 138.68 310 136.85 310 135.73 309.35 133.9 308.34 132.29 307.55 131.66 
M 315.2 172.96 316.04 172.33 317.12 170.71 317.81 168.88 317.81 167.74 317.12 165.91 316.04 164.29 315.2 163.65 
M 307.49 120 308.39 119.48 309.52 118.16 
M 317.44 165.56 318.45 164.91 319.75 163.24 320.58 161.36 320.58 160.19 319.75 158.31 318.45 156.64 317.44 155.99 
M 312.12 126.47 312.89 125.91 313.88 124.48 314.51 122.86 314.51 121.86 313.88 120.24 312.89 118.81 312.12 118.25 
M 314.77 141.09 315.56 140.44 316.56 138.77 317.21 136.88 317.21 135.71 316.56 133.82 315.56 132.15 314.77 131.5 
M 319.8 158.4 320.65 157.72 321.73 155.97 322.42 153.98 322.42 152.75 321.73 150.77 320.65 149.02 319.8 148.33 
M 314.34 119.74 315.25 119.2 316.09 118.18 
M 319.23 126.43 319.99 125.86 320.97 124.4 321.6 122.75 321.6 121.73 320.97 120.08 319.99 118.62 319.59 118.32 
M 321.33 119.51 322.23 118.97 322.65 118.45 
M 326.18 126.09 326.91 125.53 327.84 124.1 328.44 122.47 328.44 121.47 327.84 119.84 327.16 118.79 
M 328.74 140.56 329.43 139.92 330.32 138.26 330.9 136.38 330.9 135.22 330.32 133.35 329.43 131.69 328.74 131.04 
M 328.08 118.93 328.15 118.89 
M 330.52 132.64 331.33 132.05 332.38 130.54 333.06 128.83 333.06 127.77 332.38 126.07 331.33 124.56 330.52 123.97 
M 332.52 125.03 333.19 124.49 334.04 123.1 334.59 121.53 334.59 120.56 334.24 119.54 
M 334.62 138.86 335.26 138.25 336.08 136.7 336.61 134.94 336.61 133.86 336.08 132.1 335.26 130.55 334.62 129.94 
M 339.02 145.86 339.76 145.21 340.71 143.56 341.33 141.7 341.33 140.54 340.71 138.67 339.76 137.02 339.02 136.38 
M 338.13 123.26 338.74 122.73 339.53 121.37 339.84 120.41 
M 340.02 136.76 340.64 136.18 341.43 134.69 341.95 133.01 341.95 131.96 341.43 130.28 340.64 128.79 340.02 128.21 
M 341.62 128.97 342.34 128.4 343.27 126.95 343.87 125.3 343.87 124.29 343.27 122.64 342.34 121.19 341.74 120.72 
M 349.2 161.73 350.05 160.98 351.15 159.06 351.86 156.89 351.86 155.55 351.15 153.38 350.05 151.46 349.2 150.71 
M 346.36 126.62 347.08 126.02 347.98 124.48 348.57 122.73 348.57 121.96 
M 350.17 133.04 350.78 132.35 351.56 130.59 352.06 128.6 352.06 127.36 351.56 125.37 350.78 123.61 350.17 122.92 
M 356.02 151.95 356.81 151.13 357.82 149.03 358.47 146.64 358.47 145.17 357.82 142.79 356.81 140.68 356.02 139.86 
M 351.03 124.3 351.78 123.65 352.34 122.69 
M 355.54 131.71 356.24 130.94 357.13 128.96 357.7 126.73 357.7 125.34 357.29 123.71 
M 363.63 152.9 364.5 152.01 365.62 149.72 366.34 147.13 366.34 145.52 365.62 142.93 364.5 140.64 363.63 139.75 
M 362.64 131.97 363.57 131.14 364.77 129.03 365.55 126.65 365.55 125.51 
M 371.96 154.3 372.97 153.37 374.27 151.01 375.1 148.32 375.1 146.66 374.27 143.98 372.97 141.61 371.96 140.69 
M 372.4 134.79 373.67 133.94 375.3 131.79 376.35 129.34 376.35 128.12 
M 381.8 156.83 383 155.94 384.54 153.65 385.53 151.06 385.53 149.46 384.54 146.86 383 144.58 381.8 143.68 
M 375.65 128.15 375.95 128.01 
M 382.94 147.96 384.49 147.12 386.48 144.97 387.76 142.53 387.76 141.02 386.48 138.59 384.49 136.44 382.94 135.6 
M 178.17 124.76 178.17 124.76 
M 182.02 124.22 186.49 117.29 187.87 114.41 190.19 112.48 191.4 109.44 193.67 107.43 197.21 106.72 200.42 105.68 203.13 104.13 204.74 101.49 206.71 99.17 206.97 95.59 207.77 92.54 211.61 92.19 215.23 92.31 217.81 91.56 220.81 91.08 225.32 87.05 227.88 85.35 232.34 81.25 234.78 75.11 236.61 72.65 242.58 70.14 246.24 70.55 248.92 70.51 251.71 72 253.57 70 256.86 69.58 264.05 70.59 269.57 67.57 270.84 64.57 271.88 61.39 273.81 59.1 277.15 58.72 281.05 58.98 284.38 58.35 287.5 57.28 290.27 55.86 292.77 54.17 294.33 51.54 296.79 49.81 303.35 48.79 306.15 48.2 311.37 49.48 313.9 51.22 314.53 54.11 314.59 56.43 316.68 62.84 316.74 65.02 318.11 68.42 322.4 74.01 325.56 80.06 327.95 85.74 328.6 88.13 329.67 90.58 331.4 91.75 334.01 94.08 336.28 97.12 338.07 99.83 337.87 102.44 337.75 108.29 339.55 120.37 
M 334.6 119.58 334.6 119.58 
M 183.18 124.06 184.11 122.82 
M 188.19 123.36 190.24 120.39 191.52 119.58 
M 193.21 122.73 195.2 120.82 195.52 118.2 195.38 115.98 195.94 112.81 
M 198.23 122.11 199.98 120.22 200.45 117.29 201.76 112.44 
M 203.25 121.52 205.36 120.24 207.2 115.74 207.51 112.26 207.4 108.92 206.91 105.91 207.36 102.65 207.95 99.53 210.93 95.49 
M 208.28 120.94 210.55 119.53 212.62 112.46 212.07 108.88 
M 213.31 120.38 215.51 118.77 216.93 113.71 217.98 111.72 217.41 108.98 217.5 106.43 218.02 102.42 219.65 98.75 
M 218.34 119.86 220.29 118.18 221.27 115.6 222.11 113.16 222.31 110.57 222.71 108.34 223.51 105.63 
M 223.38 119.45 224.79 117.9 225.84 115.84 226.21 113.11 227.73 108.45 228.5 105.31 229.1 98.03 229.1 94.56 229.71 92.4 232.36 89.61 234.6 86.8 
M 228.42 119.06 229.71 117.52 231.47 112.62 232.33 109.71 233.58 106.75 234.01 103.69 233.75 100.95 235.28 97.98 235.53 94.64 235.03 92.39 235.74 90.34 237.37 87.61 236.58 85.36 
M 233.47 118.76 234.75 117.16 235.36 114.93 235.8 112.47 238.8 103.39 240.31 97.16 240.68 94.55 240.19 93.15 240.35 90.34 241.65 87.86 242.09 84.63 243.34 80.92 242.83 78.1 
M 238.52 118.47 239.98 116.82 242.66 109.17 243.93 106.45 244.24 103.4 245.58 96.94 246.45 93.77 246.51 91.4 246.91 88.99 246.56 85.24 
M 243.57 118.18 245.75 116.18 247.14 113.92 248.08 111.37 249.22 105.86 250.59 102.85 250.98 99.01 252.02 95.99 252.67 93.07 
M 248.62 117.9 250.71 116.08 252.66 110.76 254.12 103.27 254.47 99.41 256.53 90.09 257.19 84.54 260.36 81.64 260.67 80 262.28 76.9 
M 253.67 117.61 255.29 116.32 256.05 114.21 256.33 111.6 259.21 105.26 258.7 102.42 259.6 95.02 261.07 92.4 262.16 89.59 262.24 87.16 263.34 84.31 
M 258.72 117.45 260.34 115.8 261.32 113.32 263.95 105.48 264.59 102.61 265.9 99.97 266.49 97.69 267.87 95.52 269.46 92.25 271.04 87.86 272.76 84.73 273.36 81.76 273.8 76.52 
M 263.78 117.42 265.27 115.17 266.38 112.56 267.65 110.66 269.06 106.3 271.54 100.81 273.9 94.8 276.01 88.53 276.59 86.18 275.98 83.61 
M 268.84 117.5 270.49 115.25 273.09 110.76 274.17 104.3 275.3 101.68 276.58 99.87 278.53 97.56 279.58 94.75 279.65 92.85 280.69 89.08 281.35 85.31 282.21 83.34 282.64 80.13 283.64 77.86 284.13 75.46 287.23 69.1 289.1 66.11 290.13 63.43 290.28 61.53 289.26 59.79 
M 273.9 117.66 275.81 115.5 276.82 112.83 277.43 110.1 278.42 107.06 279.25 103.84 281.63 99.81 283.69 97.84 286.43 92.91 286.55 89.26 287.74 86.07 288.37 83.48 289.06 81.94 291.07 78.96 292.07 75.73 292.66 72.45 295.69 66.48 294.57 61.63 
M 278.95 117.84 280.68 115.71 283.38 110.06 284.51 107.33 286.97 103.12 287.41 100.9 287.51 98.39 288.5 95.62 291.28 91.96 292.47 89.07 292.79 86.76 
M 284 118.03 285.81 115.99 287.3 113.3 289.5 108.64 291.45 106 292.06 103.34 295.03 94.44 296.09 91.99 297.53 87.42 
M 289.06 118.16 291.03 116.05 293.16 111.14 296.77 106.24 297.63 103.04 299.12 100.07 299.61 96.91 300.8 93.93 301.64 92.76 301.5 90.15 304.55 82.33 305.37 79.59 306.95 76.66 307.89 73.18 
M 294.12 118.25 296.29 116.07 297.69 113.37 298.73 110.47 300.06 108.28 302.1 105.68 303.84 100.36 304.65 97.1 305.07 94.64 305.88 92.06 308.58 87.08 309.58 84.3 310.99 81.37 312.35 79.39 
M 299.18 118.24 301.17 116.22 303.94 111.42 305.13 108.64 305.46 105.61 306.51 103.22 308.41 95.26 310.07 91.14 311.87 88.59 313.61 86.74 314.82 83.76 316.47 81.63 316.46 79.12 
M 304.23 118.19 305.97 116.64 307.25 114.29 308.82 109.14 311.03 103.16 312.71 100.35 313.83 97.2 315.35 94.52 317.61 91.37 317.9 88.52 317.57 85.79 319.06 83.65 320.38 80.27 
M 309.29 118.16 311.22 116.75 313.79 111.52 314.63 108.99 315.18 105.67 316.46 103.54 319.62 100.53 
M 314.35 118.14 316.71 116.46 318.53 113.9 319.93 109.43 320.68 107.82 
M 319.4 118.32 321.9 116.49 325.2 111.81 328.91 109.19 
M 324.46 118.53 327.62 116.79 329.14 114.29 331.57 112.82 333.67 112.26 335.38 106.79 
M 329.49 119.04 333.01 117.73 335.22 115.84 335.94 113.45 
M 165.39 158.27 171.65 156.67 175.25 154.97 178.95 152.96 181.53 151.07 183.85 151.07 187.59 150.14 191.19 148.53 196.31 146.93 201.81 144.35 207.97 143.55 211.21 142.57 213.9 142.64 247.59 138.54 250.94 140.13 253.46 140.9 255.54 141.22 258.03 141.96 265.32 145.74 268.63 147.29 271.45 148.36 273.81 148.96 275.69 149.09 278.31 152.66 279.28 154.76 281.17 157.76 283.34 162.19 284.93 164.9 287.28 168.12 291.96 174.03 295.35 179.26 301.8 187.55 299.73 189.77 297.42 191.3 294.56 192.26 291.37 192.91 284.45 193.66 282.14 195.18 280.23 197.11 277.57 198.28 273.21 197.75 269.57 197.94 266.35 198.56 264 200.04 260.02 200.7 214.6 196.77 212.7 196.29 208.58 194.58 203.75 192.41 199.96 190.3 197.22 189.03 194.17 188.14 192.09 186.36 190.51 185.68 187.42 183.69 185.19 181.81 181.75 179.93 177.85 179.22 169.11 175.63 162.5 172.27 159.2 170.24 
M 165.76 160.33 172.3 158.95 175.56 158.53 179.07 157.59 182.5 157.05 185.25 156.85 191.81 155.45 201.04 150.98 203.79 150.99 206.67 150.8 209.52 149.87 212.21 148.46 214.8 147.6 218.56 145.36 221.93 144.61 226.09 144.88 230.46 142.89 234.46 142.45 237.97 142.87 
M 163.93 162.32 165.65 162.36 168.98 161.87 171.96 161.79 175.62 162.03 178.83 161.97 181.98 161.18 185.09 160.93 188.14 161.54 191.79 161.01 195.39 160.2 198.29 159.04 203.23 158.66 205.5 159.1 209.03 159.07 211.95 158.23 215.3 158.26 219.41 157.8 222.96 157 226.24 157.13 227.85 156.61 230.33 156.42 233.98 155.36 236.47 155.01 244.82 154.53 
M 165.78 164.52 168.94 164.81 178.5 166.47 181.49 166.24 184.04 165.78 187.03 166.05 190.82 165.85 196.81 167.56 200.16 167.6 203.21 167.24 206.86 167.3 209.98 167.63 213.43 166.8 217.39 165.63 222.84 165.99 224.2 166.56 226.41 167 229.63 166.19 233.51 165.78 238.31 167.46 242.1 167.63 
M 162.37 166.88 168.85 168.39 171.84 169.47 175.05 170.27 178.13 170.66 181.25 170.53 187.94 171.55 193.23 173.46 196.33 173.99 199.32 174.45 202.99 174.79 206.37 174.11 209.69 174.6 212.71 174.59 215.33 175.2 217.99 176.31 221 176.51 224.79 178.16 229.33 179.08 232.45 179.92 239.55 179.55 244.28 180.47 247.98 180.49 250.93 181.86 253.24 181.4 255.39 182.3 257.12 182.24 260.21 182.66 
M 165.73 170.88 168.67 172.2 171.87 173.41 177.72 174.88 181.15 175.91 184.47 176.3 186.88 176.85 192.68 179.76 198.3 181.14 201.68 182.21 205.36 183.55 209.51 185.41 212.09 185.73 214.28 186.94 217.19 186.07 220.44 186.87 222.98 187.89 227.18 190.29 229.73 192 232.99 193.05 235.16 193.93 238.58 194.69 241.68 195.6 244.89 195.76 246.91 196.57 249.38 198.07 252.13 198.99 
M 194.29 188.17 195.64 189.68 197.92 191.61 200.63 194.49 206.61 200.28 210.51 205.97 213.21 207.47 216.1 209.64 219.29 212.87 220.98 215.68 219.99 224.05 220.01 227.37 219.65 230.32 219.17 233.46 218.33 236.32 217.55 242.92 215.95 245.32 213.95 247.48 212.44 250.14 210.15 253.57 203.44 261.79 202.65 259.08 200.87 256.29 199.93 252.15 200.06 249.09 197.7 243.15 196.44 240.94 195.66 237.86 196.06 234.51 195 231.54 192.66 228.02 192.5 224.79 191.86 222.27 189.66 219.45 189 216.64 188.64 213.89 188.72 210.73 186.84 204.08 185.28 201.28 183.92 197.92 183.03 194.56 181.8 191.64 181 187.73 180.09 184.46 178.17 180.75 
M 189.01 184.71 193.22 190.58 195.16 192.27 197.11 194.4 201.97 200.55 
M 183.91 181.17 188.97 187.77 192.14 193.59 194.12 195.96 195.51 198.15 199.26 205.37 201.51 207.94 202.97 210.85 206.23 213.19 208.82 217.04 211.98 219.58 
M 181.9 181.02 184.54 184.94 186.08 187.86 187.09 191.18 190.85 197.24 192.04 199.99 193.8 202.54 196.78 208.51 202.22 213.44 203.76 217.38 205.43 219.91 206.8 223.17 207.54 226.12 209.01 228.67 
M 179.88 180.87 182.16 184.87 183.4 188.08 184.51 191.65 186.18 194.73 187.61 198.24 190.69 203.77 191.94 206.38 192.48 209.91 193.64 212.78 198.14 217.98 199.21 220.71 199.5 224.11 199.29 227.23 200.95 230.43 203.69 237.19 205.97 240.36 206.36 243.29 
M 373.71 173.12 377.01 177.36 379.82 180.08 382.64 182.27 385.79 184.99 387.42 187.44 387.12 200.51 384.78 202.46 383.38 205.35 381.14 207.41 378.31 208.86 375.72 210.51 371.84 215.02 370.24 217.68 367.11 218.21 363.68 217.42 361.33 217.74 359.31 218.59 357.79 221.34 357.94 224.53 350.8 230.22 344.37 230.17 341.46 229.31 338.13 227.18 333.24 224.68 327.87 221.43 325.75 220.35 324.3 219.95 317.23 216.92 312 215.61 308.62 213.88 305.93 212.92 297 199.61 295.91 197.36 294.27 195.68 292.06 192.77 
M 368.7 173.82 372.5 178.61 374.47 181.8 377.93 184.32 380.08 186.1 
M 363.69 174.53 367.79 178.98 376.91 191.01 
M 358.68 175.22 368.19 188.66 369.9 192.18 371.09 195.73 372.96 198.22 
M 353.67 175.91 356.05 179.76 358.11 182.27 359.85 184.89 361.89 188.47 364.44 191.89 366.19 195.16 367.42 200.02 368.98 202.29 372.8 205.33 
M 348.65 176.51 351.41 180.73 353.09 183.91 355.23 186.62 360.11 196.26 
M 343.63 177.11 346.12 181.45 348.38 184.84 352.06 190.94 356.05 196.66 357.04 199.1 359.26 201.58 
M 338.6 177.65 342.93 185.13 346.94 191.67 349.72 194.4 351.02 197.39 352.84 200.47 353.7 203.28 
M 333.57 178.18 335.87 181.68 337.57 185.31 339.81 188.16 343.86 195.57 346.67 198.6 347.51 201.43 348.64 203.66 349.51 207.02 
M 328.53 178.67 330.86 182.42 333.84 188.19 336.16 191.8 339 195.42 341.33 199.55 343.32 201.6 344.08 203.52 346.18 206.17 
M 323.51 179.23 326.06 182.97 329.5 188.83 331.56 191.49 334.45 194.79 338.03 200.41 341.74 205.31 343.53 207.94 343.91 211.45 344.42 214.42 345.73 218.13 347.51 220.82 
M 318.5 179.95 323.56 187.18 324.9 189.58 326.68 191.83 329.36 194.53 331.24 197.17 334.24 202.6 336.62 204.8 338.11 207.79 339.25 210.9 341.07 217.45 
M 313.5 180.74 320.81 190.62 322.46 193.55 324.57 195.97 326.3 198.53 327.49 200.71 329.53 203.22 330.51 206.74 333.23 208.8 335.81 212.64 336.36 215.69 336.29 217.32 338.22 220.65 341.15 224.73 344.42 226.15 
M 308.53 181.66 311.15 186.15 313.77 189.52 315.49 192.21 317.81 194.59 319.05 197.87 322.3 202.87 324.61 205.65 326.41 208.76 329.21 210.61 332.09 213.42 333.28 216.8 333.65 218.97 336.42 224.49 
M 303.55 182.56 308.58 190.42 310.86 193.39 313.48 196 315.65 198.85 317.5 204.82 320.5 210.28 
M 298.57 183.4 298.63 183.5 
M 301.52 187.85 303.57 190.24 305.87 194.01 308.23 197.18 309.86 200.41 311.71 202.22 313.02 204.64 
M 297.99 190.92 301.26 197.64 304.22 201.01 305.62 203.85 307.94 206.25 311.56 212.32 
M 294.26 192.33 295.38 193.85 296.76 197.18 299.29 200.76 
M 393.27 133.77 396.71 133.25 405.39 129.27 408.28 127.1 411.37 126.05 413.74 124.18 416.43 122.49 418.85 119.96 421.63 117.95 424.32 116.15 427.34 115.38 430 113.09 437.16 108.46 439.5 107.21 441.53 105.15 443.86 103.31 447.12 101.64 452.38 100.37 455.77 98.58 458.96 97.38 461.67 94.95 464.7 93.37 466.85 91.36 469.71 87.78 470.7 87.08 473.79 83.76 479.04 81.78 482.86 78.76 484.4 77.86 486.68 76.87 490 76.34 486.42 87.93 483.74 89.54 480.38 94.75 475.44 98.37 473.36 100.58 472.63 104.07 470.74 110.53 469.38 113.36 466.88 115.11 463.64 116.13 461.43 118.17 460.46 121.45 458.21 123.49 456.73 126.3 453.98 127.84 452.58 130.74 451.66 134.09 450.23 136.76 443.72 138.79 441.64 141.01 440.51 144.09 440.12 147.55 439.42 150.69 435.23 155 434.16 157.69 432.86 160.29 432.39 162.95 435.49 168.43 435.79 171.68 436.43 174.03 440.69 181.04 442.06 182.85 442.91 185.19 444.3 188.14 444.6 190.31 445.38 193.12 446.6 196.36 447.13 199.51 448.76 203.97 451.03 207.18 447.09 205.06 442.21 203.34 438.69 201.16 436.84 198.19 434.38 196.27 427.83 193.09 423.93 193.22 417.83 188.91 414.71 187.08 412.99 184.61 408.43 180.18 402.24 177.25 399.19 175.38 393.27 169.71 
M 399.77 134.07 406.14 131.89 409.12 129.76 411.73 128.43 414.61 127.53 416.89 126.17 420.09 123.63 425.66 120.29 428.67 118.81 434.02 115.58 436.05 114.05 438.26 113.59 440.41 112.79 446.18 108.6 448.67 107.64 452.3 105.57 454.58 104.78 456.79 103.69 
M 400.1 136.31 403.42 135.46 406.63 134.38 409.55 132.35 412.47 130.79 417.98 128.63 420.77 126.95 423.56 125.58 427.69 123.05 430.41 121.02 434.29 119.62 437.35 119.81 439.53 118.69 442.29 116.86 445.48 116.59 448.58 114.73 450.99 114.26 453.69 113.25 457.49 109.93 
M 403.89 137.86 407.21 136.96 413.03 134.07 415.77 132.33 418.54 130.98 421.12 129.45 423.65 129.66 427.98 127.17 430.39 125.98 438.5 124.91 441.41 124.17 444.08 122.81 447.41 121.46 451.01 120.82 
M 393.27 140.96 396.88 141.1 400.2 140.76 404.28 140.21 407.7 139.3 410.39 137.85 413.52 136.97 416.33 135.42 418.18 133.73 421.25 132.32 424.31 132.83 426.73 132.97 430.44 130.77 432.7 129.88 436.14 129.86 439.46 130.16 
M 393.27 142.75 396.94 143.14 400.26 142.65 404.45 142.36 410.57 140.76 413.84 140.25 416.07 138.67 421.67 135.55 424.74 135.91 428.24 137.18 432.55 136.9 435.76 135.69 438.73 134.21 441.39 134.07 
M 397.11 145.17 404.34 144.25 408.25 144.17 411.62 144.3 416.5 142.56 419.6 141.22 422.67 140.48 426.49 141.1 
M 397.45 147.07 400.8 147.15 404.72 146.81 408.82 146.9 412.1 147.45 415.15 146.02 417.8 145.17 
M 393.27 148.14 397.76 149.03 404.67 149.33 408.41 149.04 412.07 149.93 415.37 148.61 418.26 148.21 421.53 148.16 424.79 147.62 428.47 148.18 432.82 150.54 
M 404.87 151.69 411.71 152.38 415.29 152.41 419.49 151.4 422.82 151.69 
M 404.63 154.3 408.02 155.07 411.12 156.38 414.8 156.77 419.01 156.52 
M 397.75 155.39 404.42 156.79 411.24 159.2 414.42 160.12 418.73 160.01 
M 393.27 155.33 397.73 157.11 404.93 159.67 408.28 160.67 414.51 161.49 418.46 161.05 
M 405.38 162.05 415.39 163.58 417.13 163.4 419.37 163.85 
M 405.1 163.86 408.98 164.96 414.97 166.2 
M 400.63 164.45 404.86 165.87 408.8 166.84 412.01 168.65 416.55 170.15 418.6 170.66 421.43 171.74 425.33 175.18 
M 393.27 162.52 397.04 164.96 404.47 167.94 408.2 168.88 411.15 170.78 413.59 171.34 416.15 173.3 
M 393.27 164.32 397.15 166.71 403.7 170.05 410.41 172.52 413.17 173.19 415.9 175.25 417.93 177.95 420.65 180.18 424.25 182.26 
M 399.83 170.62 403.12 172.49 406.59 173.54 409.75 174 412.65 175.35 417.17 180.86 419.94 183.7 422.73 185.22 425.73 185.56 430.33 187.3 433.93 187.78 437.17 189.08 
M 396.66 170.87 399.57 173.03 402.52 174.87 405.39 175.62 409.11 176.93 411.8 179.08 413.94 181.11 415.95 183.83 418.86 186.15 
M 341.94 118.7 345.64 119.2 347.87 119.06 350.02 118.45 351.97 117.64 354.09 117.86 356.6 121.17 357.91 122.38 361.42 122.78 363.3 122.21 367 120.67 368.75 121.9 371.65 125.06 373.64 125.84 377.7 126.61 381.94 125.4 383.49 130.06 
M 48.08 130.85 50.64 130.71 58.97 130.96 71.44 129.49 87.34 129.6 105.06 129.36 113.02 129.83 121.52 130.11 137.65 129.42 158.61 128.81 160.42 131.83 160.97 134.62 162.4 140.27 164.05 145.97 164.5 148.74 166.35 154.47 165.87 157.06 164.87 159.54 164.08 162.07 159.86 169.27 158.25 171.64 156.5 173.97 154.39 176.23 148.88 177.81 135.04 177.57 115.77 175.98 107.34 174.63 99.55 172.5 92.56 170.4 86.22 167.77 79.97 164.16 69.08 157.51 63.95 154.13 
M 60.34 151.34 52.99 144.51 50.86 142.1 
M 135.34 140.24 135.89 142.69 135.98 144.99 134.53 146.9 129.19 151.59 128.07 152.86 127.62 154.37 127.79 156.02 128.44 157.8 128.93 159.81 126.67 161.63 117.56 162.15 104.31 162.24 97.76 161.76 91.35 160.44 85.43 158.91 80 156.7 
M 60.33 151.33 52.82 143.9 43.79 135.43 42.57 133.03 43.42 130.5 45.79 129.51 48 130.74 57.99 145.08 64.31 153.76 
M 62.3 153.97 54.39 150.54 43.11 146.31 31.6 140.37 30 138.25 30.34 135.8 32.49 134.71 34.87 135.59 43.63 141.72 54.16 147.55 64.15 153.63 
M 96.61 140.25 96 137.92 96.17 135.51 97.12 133.3 98.74 131.51 100.84 130.34 103.22 129.92 105.6 130.29 107.73 131.42 109.38 133.18 110.37 135.37 110.59 137.77 110.02 140.12 108.73 142.15 106.84 143.65 104.57 144.45 102.16 144.47 99.87 143.71 97.95 142.25 96.61 140.25 
M 96.53 140.04 96.04 138.3 96.01 136.49 96.42 134.72 96.78 133.89 97.8 132.39 99.16 131.2 100.77 130.37 101.64 130.11 102.53 129.96 104.35 130 106.09 130.48 
M 98.39 139.27 97.99 137.35 98.26 135.59 
M 99.74 133.31 100.87 132.53 102.1 132.08 103.4 131.94 105.32 132.35 
M 100.62 138.44 100.37 137.51 100.44 136.55 100.68 135.99 
M 101.54 134.91 102.31 134.48 103.26 134.31 104.21 134.46 105.07 134.91 105.73 135.61 106.12 136.49 106.21 137.45 105.98 138.39 105.46 139.2 104.71 139.8 103.8 140.13 102.84 140.13 101.92 139.83 101.16 139.25 100.62 138.44 
M 102.59 134.43 102.1 135.41 
M 101.85 135.92 100.61 138.4 
M 104.1 134.44 101.55 139.55 
M 105.27 135.13 102.78 140.12 
M 106.12 136.48 104.4 139.91 
M 50.11 133.69 50.94 134.52 
M 53.28 130.79 56.48 133.98 
M 59.47 130.91 63.67 135.1 
M 64.96 130.33 69.75 135.11 
M 70.34 129.63 73.87 133.16 
M 76.29 129.51 80.85 134.08 
M 82.4 129.56 87.24 134.4 
M 88.49 129.58 94.5 135.59 
M 94.43 129.45 97.67 132.69 
M 100.44 129.39 101.31 130.26 
M 106.57 129.45 111.26 134.14 
M 113.02 129.83 118.53 135.34 
M 119.29 130.03 124.71 135.45 
M 125.3 129.97 129.98 134.65 
M 131.15 129.75 136.32 134.92 
M 136.93 129.46 141.7 134.23 
M 142.85 129.32 148.78 135.24 
M 148.79 129.18 152.37 132.77 
M 154.66 128.99 158.73 133.05 
M 67.13 138.33 65.73 137.55 62.61 135.13 59.94 132.41 59.01 130.95 
M 151.5 140.43 151.07 139.37 150.98 138.16 151.07 136.97 151.57 135.79 152.67 134.54 153.43 133.92 156.72 132.36 157.54 131.64 
M 128.73 174 129.67 173.78 130.52 173.79 131.21 174.01 131.8 174.47 132.13 174.97 132.53 176.45 
M 75.83 141.44 75.78 140.73 76 140.36 76.38 140.27 76.77 140.62 
M 145.72 169.43 144.5 170.5 143.5 171.11 142.94 171.38 140.95 171.78 139.74 172.83 
M 97.41 164.52 98.32 162.93 98.7 161.4 98.71 160.7 97.93 158.37 96.78 157.25 
M 161.38 161.98 160.54 162.57 160.21 163.04 158.5 168.68 
M 122.66 166.88 122.39 165.69 121.87 164.77 120.66 163.81 119.6 163.7 116.02 164.48 
M 146.34 163.04 142.78 162.33 142.27 161.76 141.7 160.61 
M 82.05 133.01 79.88 131.97 78.31 131.01 77.34 130.68 75.2 130.34 73.21 129.5 
M 160.51 142.5 159.59 141.67 159.21 140.52 159.19 139.86 159.81 135.17 160.11 134.33 160.67 133.47 
M 155.45 164.16 154.97 165.34 154.27 166.21 153.45 166.91 151.87 167.81 150.19 169.89 149.15 170.63 
M 104.8 155.38 103.92 155.82 102.88 156.08 99.68 155.88 95.6 155.11 93.11 154.22 91.03 154.03 89.84 153.7 
M 110.11 139.76 110.68 138.98 111.15 137.84 111.04 136.93 110.42 135.94 
M 144.37 148.07 143.19 146.73 142.93 145.96 142.89 145.1 143.4 143.54 143.59 142.34 143.15 139.19 
M 84.25 140.18 80.55 141.84 78.72 142.34 77.65 142.38 77.08 141.82 
M 76.92 146.41 77.13 143.66 76.31 140.93 
M 148.97 172.41 146.7 174.77 146 176.22 145.48 177.75 
M 152.21 168.64 151.58 168.99 150.52 170.03 148.9 171.1 147.7 172.83 
M 163.39 162.9 163.18 162.2 162.8 161.72 161.85 161.45 161.05 161.66 160.05 162.47 159.68 163.02 159.01 164.86 
M 149.55 159.17 148.67 157.29 147.56 155.56 145.99 153.83 143.73 152.38 141.95 150.75 140.85 149.22 140.49 147.99 
M 157.18 139.73 157.6 136.57 157.97 135.8 160.61 132.79 
M 73.91 135.39 73.12 136.15 73.05 136.79 73.79 137.55 75.03 138.34 
M 163.97 145.69 163.98 147.31 164.39 149.62 164.33 150.52 163.99 151.24 163.45 151.72 161.73 152.8 
M 165.55 157.81 163.22 160 161.12 160.49 160.51 160.78 159.2 161.69 158.71 162.24 
M 148.14 138.65 148.21 137.3 147.87 135.47 147.83 134.29 148.27 132.38 148.94 130.95 
M 96.08 160.46 97.03 159.2 97.12 158.26 96.51 157.36 93.94 155.11 
M 112.83 130.06 112.66 129.8 
M 58.12 133.49 57.71 130.92 
M 149.32 144.55 149.32 141.76 148.44 139.73 148.49 137.15 148.12 135.29 
M 121.8 151.02 120.24 152.05 119.41 152.31 118.66 152.39 117.49 151.89 116.7 150.9 115.88 148.67 115.42 146.77 115.55 145.21 
M 150.67 162.23 149.28 163.15 148.44 163.35 147.13 163.08 144.49 162.03 
M 143.3 138.88 142.25 138.36 141.92 137.96 
M 74.84 132.17 73.65 131.8 71.44 131.61 70.45 131.34 69.54 130.57 68.96 129.81 
M 118.96 165.09 117.68 165.76 114.96 167.7 111.44 169.24 110.76 169.8 110.24 170.55 
M 83.79 150.3 82.76 150.66 79.57 151.13 78.97 151.5 78.02 152.82 77.52 154.3 
M 126.6 137.14 125.38 138.54 124.53 139.23 123.62 139.96 122.65 140.34 121.82 140.45 119.91 140.2 118.09 139.33 
M 143.93 132.09 143.6 130.68 143.2 130.04 
M 115.24 166.8 114.01 167.68 110.93 169.08 110.21 169.79 108.8 172.19 108.23 173.91 108.18 174.77 
M 128.38 139.1 128.16 139.88 127.81 140.24 124.12 141.92 121.84 142.41 119.64 143.09 119.2 143.07 118.85 142.66 
M 112.35 135.44 110.94 134.44 109.65 133.78 
M 103.87 130.02 103.57 129.68 
M 108.47 162.86 107.54 162.31 104.97 159.1 102.76 157.42 100.74 156.75 96.24 155.95 
M 142.98 149.78 142.19 148.89 141.74 148.05 141.03 146.51 140.87 145.83 141.04 144.69 142.7 141.86 142.75 140.68 
M 98.9 169.06 99.15 167.88 100.14 165.53 100.27 164.8 100.11 163.2 
M 54.72 140.03 54.45 139.14 54.5 138.22 56.23 132.35 56.47 130.88 
M 160.34 156.9 158.79 157.15 156.66 157.05 152.82 155.66 151.77 155.03 151.06 154.34 149.52 151.64 148.35 150.3 
M 156.75 136.33 157.14 135.49 158.51 134.28 160.48 132.12 
M 92.48 142.66 91.04 143.9 88.84 146.4 88.02 147.1 85.15 148.58 82.95 150.01 79.69 150.37 
M 146.81 146.3 145.66 145.01 144.53 143.14 143.65 139.85 143.24 138.9 
M 148.52 163.23 147.19 163.02 143.35 161.53 142.79 161 142.51 160.15 
M 65.67 131.83 64.27 130.4 
M 58.17 139.19 58.96 136.88 59.16 135.23 58.95 133.17 58.32 130.94 
M 68.15 132.55 65.89 130.21 
M 111.33 147.14 112.22 146.33 112.77 145.48 113.89 142.71 114.31 140.62 113.95 139.73 
M 127.38 136.26 128.29 136.4 129.99 137.78 132.86 139.11 
M 143.18 129.97 142.37 129.67 142.04 129.95 142.05 130.28 
M 151.42 136.86 151.65 136.16 152.08 135.54 153.32 134.17 156.56 132.57 157.45 131.88 158.24 131.06 158.83 130.03 158.9 129.29 
M 76.74 137.11 76.26 138.54 
M 130.55 157.45 129.11 157.7 127.94 157.72 126.87 158.03 124.1 159.82 121.66 160.58 
M 152.27 144.31 152.77 142.02 152.75 140.03 152.54 138.27 152.8 136.25 153.91 134.61 154.9 133.9 156.05 133.34 
M 116.77 166.01 114.24 167.74 111.25 169.03 110.51 169.65 109.05 172.02 108.43 173.69 108.35 174.46 
M 54.91 146.35 54.94 146.03 
M 83.41 144.31 80.29 146.45 79.39 146.59 78.64 146.46 78.15 146.18 77.87 145.78 77.57 143.97 77.07 142.43 
M 66.19 149.72 65.82 150.34 65.48 152.46 65.87 155.4 
M 101.09 130.3 100.97 129.38 
M 110.84 159.79 109.1 158.93 107.13 157.6 105.61 156.9 103.7 156.81 96.53 155.65 
M 162.43 159.74 160.2 160.66 158.45 162.06 157.81 163.12 156.66 165.98 155.99 166.8 154.69 167.69 
M 121.15 141.18 119.25 141.01 117.58 139.36 116.86 139.04 115.26 138.71 
M 82 159.86 81.09 160.24 79.48 162.07 78.29 163.12 
M 144.11 155.62 142.34 153.63 141.78 152.49 141.59 151.41 140.32 149.16 140.1 147.55 139.5 145.61 
M 65.18 155.32 62.68 157.43 61.26 158.27 57.13 160.23 52.11 163.28 51.1 164.18 50.31 165.27 49.7 166.5 49.31 167.81 49.19 169.18 49.34 170.54 49.78 171.85 50.49 173.07 51.41 174.17 54.76 177.16 55.95 178.06 58.54 179.58 62.65 181.51 65.51 182.54 62.61 181.61 58.36 179.96 55.61 178.59 53.08 176.84 50.68 174.91 49.57 173.76 48.66 172.41 48.02 170.88 47.72 169.24 47.76 167.58 48.12 165.95 48.76 164.41 49.65 162.98 50.82 161.77 53.36 159.87 55.94 158.14 61.03 155.14 63.03 153.18 
M 45.2 147.17 52.3 151.51 60.34 155.61 
M 63.28 156.98 79.97 164.16 
M 56.19 153.57 57.91 152.09 
M 63.67 156.67 63.71 157.16 
M 71.32 159.37 70.91 160.29 
M 160.7 133.28 163.14 135.71 
M 163.21 127.69 169.98 134.46 
M 169.82 126.21 178.42 134.81 
M 176.71 125.01 183.25 131.54 
M 183.77 123.98 190.81 131.02 
M 190.91 123.02 202.92 135.03 
M 198.11 122.12 205.16 129.18 
M 205.35 121.28 214.15 130.07 
M 212.63 120.46 220.88 128.71 
M 219.99 119.72 226.13 125.87 
M 227.48 119.12 239.14 130.78 
M 235.11 118.67 243.95 127.51 
M 242.77 118.23 251.26 126.72 
M 250.43 117.79 259.85 127.21 
M 258.17 117.45 268.3 127.57 
M 266.23 117.41 278.21 129.39 
M 274.59 117.68 286.64 129.73 
M 283 117.99 292.9 127.9 
M 291.29 118.2 300.19 127.09 
M 299.43 118.24 311.25 130.06 
M 307.45 118.17 316.09 126.81 
M 315.53 118.15 324.83 127.46 
M 323.98 118.51 330.84 125.37 
M 332.96 119.4 344.49 130.93 
M 342.49 120.84 349.17 127.52 
M 352.46 122.71 364.11 134.37 
M 362.72 124.88 370.1 132.26 
M 373.22 127.28 380.68 134.74 
M 384.44 130.42 390.87 136.85 
M 178.87 124.66 180.12 127.16 
M 182.69 123.18 183.13 124.07 
M 185.25 119.21 186.77 122.25 
M 187.64 114.88 191.01 121.62 
M 190.54 111.58 194.62 119.73 
M 193.22 107.83 200.24 121.87 
M 197.22 106.72 204.54 121.37 
M 201.52 106.22 208.58 120.33 
M 207.34 108.76 211.86 117.81 
M 206.76 98.5 215.36 115.69 
M 208.31 92.49 218.72 113.3 
M 214.99 96.75 222.23 111.22 
M 218.42 94.5 226.56 110.78 
M 229.28 116.21 230.64 118.93 
M 221.12 90.8 221.57 91.71 
M 222.48 93.51 230.62 109.8 
M 231.53 111.61 234.42 117.4 
M 224.72 88.89 239.48 118.41 
M 228.95 88.26 243.91 118.16 
M 232.07 85.39 244.74 110.72 
M 233.28 78.69 235.54 83.22 
M 236.44 85.03 248.21 108.55 
M 235.54 74.1 253.18 109.39 
M 238.86 71.64 257.4 108.74 
M 242.66 70.15 263.02 110.87 
M 247.41 70.53 247.86 71.44 
M 248.76 73.25 265.96 107.63 
M 252.35 71.31 257.32 81.27 
M 260.04 86.69 275.55 117.72 
M 256.08 69.68 260.16 77.82 
M 263.78 85.06 280.19 117.89 
M 260.91 70.23 263.17 74.75 
M 264.98 78.37 266.79 81.99 
M 268.6 85.61 284.82 118.05 
M 267.55 74.41 269.36 78.03 
M 271.17 81.65 289.43 118.16 
M 270.23 70.65 294.02 118.25 
M 271.2 63.48 298.57 118.24 
M 273.65 59.29 303.1 118.2 
M 277.95 58.78 303.73 110.35 
M 282.47 58.71 282.92 59.62 
M 286.54 66.85 312.18 118.15 
M 286.48 57.63 286.93 58.54 
M 289.64 63.97 316.77 118.22 
M 291.53 58.63 321.41 118.4 
M 293.36 53.18 306.48 79.42 
M 307.38 81.23 326.11 118.69 
M 296.37 50.1 304.97 67.29 
M 306.78 70.91 310.39 78.15 
M 311.3 79.96 313.11 83.58 
M 314.92 87.2 330.91 119.19 
M 300.48 49.22 306.36 60.98 
M 320.84 89.94 336.11 120.48 
M 304.68 48.51 318.7 76.56 
M 320.51 80.18 321.42 81.99 
M 322.32 83.8 323.23 85.61 
M 325.04 89.23 339.1 117.36 
M 309.47 49 316.69 63.43 
M 321.11 72.27 322.47 74.98 
M 323.37 76.79 324.28 78.6 
M 330.57 91.19 334.64 99.34 
M 335.55 101.15 337.83 105.7 
M 203.93 291.39 202.04 297.7 
M 203.93 291.39 204.44 297.7 
M 208.73 291.39 204.44 297.7 
M 208.73 291.39 206.84 297.7 
M 209.66 295.3 213.26 295.3 213.44 294.7 213.32 294.1 212.6 293.5 211.7 293.5 211.01 293.8 210.23 294.39 209.66 295.3 209.48 295.89 209.51 296.8 209.93 297.39 210.44 297.7 211.34 297.7 212.03 297.39 212.81 296.8 
M 215.9 293.5 214.01 299.8 
M 215.63 294.39 216.41 293.8 217.1 293.5 218 293.5 218.51 293.8 218.93 294.39 218.96 295.3 218.78 295.89 218.21 296.8 217.43 297.39 216.74 297.7 215.84 297.7 215.33 297.39 214.91 296.8 
M 222.23 291.39 220.34 297.7 
M 221.24 294.7 222.41 293.8 223.1 293.5 224 293.5 224.51 293.8 224.54 294.7 223.64 297.7 
M 226.7 293.5 227.24 297.7 
M 230.3 293.5 226.28 298.89 225.5 299.5 224.51 299.8 
M 232.1 293.5 230.84 297.7 
M 231.56 295.3 232.13 294.39 232.91 293.8 233.6 293.5 234.5 293.5 
M 239.3 293.5 238.04 297.7 
M 239.03 294.39 238.61 293.8 238.1 293.5 237.2 293.5 236.51 293.8 235.73 294.39 235.16 295.3 234.98 295.89 235.01 296.8 235.43 297.39 235.94 297.7 236.84 297.7 237.53 297.39 238.31 296.8 
M 241.7 293.5 240.44 297.7 
M 241.34 294.7 242.51 293.8 243.2 293.5 244.1 293.5 244.61 293.8 244.64 294.7 243.74 297.7 
M 244.64 294.7 245.81 293.8 246.5 293.5 247.4 293.5 247.91 293.8 247.94 294.7 247.04 297.7 
M 251.63 291.39 250.1 296.5 250.13 297.39 250.64 297.7 251.24 297.7 
M 250.1 293.5 252.2 293.5 
M 254.93 291.39 253.04 297.7 
M 253.94 294.7 255.11 293.8 255.8 293.5 256.7 293.5 257.21 293.8 257.24 294.7 256.34 297.7 
M 259.39 293.5 259.94 297.7 
M 263 293.5 258.98 298.89 258.2 299.5 257.21 299.8 
M 267.52 294.39 267.4 293.8 266.6 293.5 265.7 293.5 264.71 293.8 264.23 294.39 264.35 295 264.86 295.3 266.27 295.6 266.77 295.89 266.89 296.5 266.33 297.39 265.34 297.7 264.44 297.7 263.63 297.39 263.51 296.8 
M 275.63 294.39 275.51 293.8 274.7 293.5 273.8 293.5 272.81 293.8 272.33 294.39 272.45 295 272.95 295.3 274.37 295.6 274.88 295.89 274.9 296.8 274.43 297.39 273.44 297.7 272.54 297.7 271.73 297.39 271.61 296.8 
M 281.3 293.5 280.04 297.7 
M 281.02 294.39 280.61 293.8 280.1 293.5 279.2 293.5 278.51 293.8 277.73 294.39 277.15 295.3 276.98 295.89 277.01 296.8 277.43 297.39 277.94 297.7 278.83 297.7 279.52 297.39 280.31 296.8 
M 284.33 291.39 282.44 297.7 
M 285.26 295.3 288.86 295.3 289.04 294.7 288.92 294.1 288.2 293.5 287.3 293.5 286.61 293.8 285.83 294.39 285.26 295.3 285.08 295.89 285.11 296.8 285.52 297.39 286.04 297.7 286.94 297.7 287.63 297.39 288.4 296.8 
M 291.5 293.5 290.24 297.7 
M 291.14 294.7 292.31 293.8 293 293.5 293.89 293.5 294.4 293.8 294.44 294.7 293.54 297.7 
M 296.36 295.3 299.95 295.3 300.14 294.7 300.02 294.1 299.3 293.5 298.39 293.5 297.7 293.8 296.93 294.39 296.36 295.3 296.18 295.89 296.2 296.8 296.63 297.39 297.14 297.7 298.04 297.7 298.73 297.39 299.51 296.8 
M 303.52 291.39 302 296.5 302.02 297.39 302.54 297.7 303.14 297.7 
M 302 293.5 304.1 293.5 
M 306.2 293.5 305.3 296.5 305.33 297.39 305.83 297.7 306.74 297.7 307.43 297.39 308.6 296.5 
M 309.5 293.5 308.24 297.7 
M 314.63 294.39 314.51 293.8 313.7 293.5 312.8 293.5 311.81 293.8 311.33 294.39 311.45 295 311.95 295.3 313.37 295.6 313.88 295.89 313.9 296.8 313.43 297.39 312.44 297.7 311.54 297.7 310.73 297.39 310.61 296.8 
M 316.22 297.1 315.83 297.39 316.04 297.7 316.43 297.39 316.22 297.1 
"/></svg>
