<svg xmlns="http://www.w3.org/2000/svg" width="520" height="320"><rect x="0" y="0" width="520" height="320" fill="floralwhite"/><rect x="10" y="10" width="500" height="300" stroke="black" stroke-width="1" fill="none"/><path stroke="black" stroke-width="1" fill="none" stroke-linecap="round" stroke-linejoin="round" d="
M 139.05 118.65 148.84 115.52 168.43 109.8 178.23 106.49 188.02 103.77 197.82 101.8 207.61 100.16 227.2 97.62 236.99 97.09 246.79 97.22 256.58 98.42 266.38 99.82 276.17 100.93 285.97 102.97 295.76 105.36 305.56 108.08 325.15 114.53 334.94 117.99 354.53 124.46 384.83 135.03 
M 384.83 216.74 374.12 221.14 364.32 224.95 354.53 228.48 334.94 234.99 325.15 238.04 305.56 243.64 295.76 246.06 285.97 248.37 276.17 249.91 266.38 250.27 256.58 249.86 246.79 249.05 236.99 248.82 217.41 247.87 197.82 245.9 188.02 245.26 178.23 243.63 168.43 241.1 158.64 237.78 148.86 233.98 
M 384.83 167.73 377.52 167.47 370.72 166.98 367.56 166.56 355.15 164.39 348.4 163.49 331.5 161.56 313 159.84 300.32 157.84 281.94 154.47 
M 278.44 154 269.46 153.09 252.46 150.47 
M 248.77 150.1 237.98 149.86 
M 234.32 149.84 228.76 149.97 223.21 150.44 
M 219.63 150.77 213 151.48 
M 209.83 151.92 196.25 154.1 
M 192.65 154.7 182.05 156.52 
M 171.69 158.19 168.08 158.54 
M 164.43 158.84 153.67 159.35 
M 154.17 218.2 157.25 221.74 
M 167.67 228.71 169.91 232.02 
M 162.29 214.7 165.21 218.38 
M 167.73 214.84 170.4 218.53 
M 167.66 207.21 173.14 214.97 
M 155.74 176.15 159.46 182.51 161.52 186.48 
M 170.66 203.21 176.06 211.26 
M 181.18 218.68 186.61 225.61 
M 154.28 165.21 160.02 173.86 162.68 178.15 166.91 185.94 
M 177.13 204.48 179.04 207.37 
M 181.68 211.27 184.34 215.01 
M 189.97 222.11 192.93 225.5 
M 152.58 152.01 153.92 154.96 
M 156.18 159.36 157.4 161.51 167.01 176.12 
M 169.57 180.52 172.16 185.34 
M 183.51 205.65 184.7 207.32 
M 187.49 211.17 191.82 216.7 196.32 221.96 
M 199.31 225.34 202.19 228.61 
M 204.93 231.79 211.5 239.6 
M 144.2 125.86 145.88 128.25 150.11 135.67 154.96 146.12 
M 157.01 150.54 160.4 157.17 161.69 159.31 
M 164.36 163.53 171.24 174.06 173.84 178.39 177.3 184.7 
M 190.29 206.81 190.55 207.16 
M 193.51 210.98 199.55 218.29 
M 142.4 117.58 146.1 121.34 148.56 124.48 150.8 127.9 154.98 135.44 163.52 152.59 167.27 159.15 
M 172.67 167.69 179.24 178.43 182.31 184.05 
M 199.51 210.78 205.55 218.11 
M 208.45 221.61 211.23 225.03 
M 213.87 228.36 216.37 231.56 
M 146.84 116.16 148.79 118.07 151.27 120.97 153.52 124.13 155.68 127.57 160.03 135.21 166.59 147.95 172.8 158.98 
M 175.42 163.34 183.16 176.34 
M 185.51 180.85 186.89 183.64 
M 202.99 207.73 208.33 214.34 
M 216.86 225.02 219.44 228.39 
M 221.91 231.55 224.27 234.48 
M 151.46 114.74 154.13 117.66 156.37 120.61 158.53 123.82 162.89 131.06 166.08 137.1 
M 168.31 141.28 183.22 167.69 
M 185.63 172.17 190.1 181.39 
M 208.96 208.04 210.92 210.43 
M 216.86 217.82 219.69 221.5 
M 222.4 225.07 224.99 228.43 
M 227.47 231.56 229.86 234.47 
M 156.07 113.36 159.35 117.29 161.47 120.31 165.59 127.15 168.75 132.94 
M 173.36 141.13 179.65 152.01 187.05 165.66 188.16 167.98 
M 190.3 172.65 193.41 179.7 195.38 183.4 
M 214.6 207.93 216.39 210.11 
M 227.97 225.09 233.09 231.53 
M 160.61 112.04 164.36 116.96 166.33 120.06 174.65 134.87 184.9 152 189.88 161.27 192.07 165.99 195.9 175.54 197 177.85 
M 199.47 182.35 200.23 183.57 
M 221.84 209.83 227.94 217.68 
M 236.21 228.3 238.7 231.39 
M 165 110.78 167.2 113.69 169.12 116.63 177.22 130.88 187.73 147.51 190.39 152.05 194.05 159.09 
M 196.14 163.88 198.89 171.11 200.87 175.79 203.35 180.27 204.84 182.4 
M 225.28 207.09 227.39 209.73 
M 233.53 217.67 236.43 221.38 
M 169.25 109.53 171.9 113.24 179.98 127.03 182.38 130.84 190.63 143.14 193.36 147.54 197.16 154.45 
M 199.4 159.2 203.15 168.8 
M 205.21 173.47 206.33 175.77 209.09 180.15 210.8 182.45 
M 230.49 206.71 232.94 209.83 
M 241.91 221.22 244.59 224.58 
M 247.04 227.81 249.3 230.94 
M 173.36 108.14 176.66 112.92 183 123.29 193.68 138.9 198.96 147.55 201.4 152.12 203.65 156.83 207.39 166.4 209.53 171.07 212.13 175.59 213.61 177.76 
M 216.63 182.04 217.03 182.59 
M 235.27 206.05 244.4 217.56 
M 177.45 106.75 179.56 109.67 187.45 121.47 
M 190.06 125.15 196.84 134.77 199.47 138.86 201.99 143.09 205.46 149.78 
M 209.55 159.15 211.56 163.9 
M 213.88 168.58 215.15 170.9 218.02 175.4 223.15 182.93 
M 239.46 204.7 240.68 206.29 
M 267.55 239.75 269.74 241.71 
M 181.62 105.55 197.41 126.98 202.55 134.68 207.24 142.95 209.39 147.35 215.51 161.42 217.99 166.14 220.8 170.78 228.88 183.05 
M 244.45 204.22 248.93 209.97 
M 263.48 229.29 265.7 231.97 
M 185.83 104.38 197.84 119.64 201.85 125.04 
M 204.34 128.73 207.85 134.46 210.05 138.5 214.25 147.17 218.4 156.56 220.81 161.35 226.43 170.77 233.74 181.78 
M 254.19 209.36 256.91 212.83 
M 261.68 219.52 266.05 225.72 
M 270.68 231.29 273.03 233.83 
M 190.1 103.36 203.48 119.55 206.05 123.04 208.42 126.62 210.64 130.31 214.97 138.24 220.43 149.39 
M 225.16 158.95 229.23 166.11 232.13 170.72 239.46 181.49 
M 253.8 200.84 254.1 201.22 
M 264.38 215.38 266.54 218.76 
M 280.18 235.51 282.36 237.75 
M 194.49 102.47 200.98 109.75 206.26 116.01 208.79 119.32 211.16 122.75 215.57 130 220.08 138.07 224.82 147.03 229.58 156.62 233.61 163.74 
M 239.39 172.7 247.08 183.33 
M 259.66 199.81 259.88 200.09 
M 265.07 207.39 267.32 211.03 
M 269.44 214.62 271.57 218.08 
M 276.04 224.33 282.81 232.35 
M 198.93 101.61 203.87 106.84 209.01 112.61 211.51 115.73 216.14 122.44 225.6 138.03 235.35 156.73 238.03 161.39 240.85 165.88 245.27 172.21 
M 248.24 176.23 251.14 180.17 
M 268.11 202.76 272.44 210.36 
M 278.71 220.56 280.96 223.52 
M 203.5 100.85 211.84 109.41 214.32 112.32 219.02 118.75 226.24 129.74 228.67 133.73 231.08 137.97 237.27 149.7 
M 239.81 154.42 242.46 158.96 
M 248.18 167.49 256.71 179.38 
M 269.29 195.56 271.02 198.2 
M 275.3 206.1 277.24 209.9 
M 283.61 219.74 288.17 225.45 
M 208.16 100.08 214.77 106.43 219.69 112.08 224.48 118.66 229.26 125.8 231.63 129.52 235.21 135.72 
M 237.67 140.25 242.79 149.78 
M 245.42 154.33 248.16 158.67 
M 251.05 162.86 253.96 166.92 
M 264.89 182.51 267.89 186.31 
M 273.49 193.75 274.85 195.84 280.78 207.81 281.81 209.55 
M 283.94 212.87 286.21 215.94 
M 290.87 221.76 295.47 227.24 
M 213.03 99.43 217.76 103.68 222.77 108.98 225.23 112.01 230.01 118.62 236.82 129.25 246.86 147.45 249.62 152.01 252.47 156.29 259.64 166.42 
M 264.84 174.25 268.77 180.11 273.1 185.86 
M 277.31 192.09 280.31 197.98 
M 282.24 202.02 284.23 205.76 
M 291.16 215.13 293.52 218.01 
M 295.81 220.89 300.48 226.38 
M 217.94 98.77 223.32 103.56 225.88 106.17 228.41 109.08 233.2 115.37 238.56 123.56 
M 240.75 127.24 249.52 142.85 253.85 149.71 
M 256.81 154 265.24 166.04 
M 267.75 169.95 272.81 177.83 
M 278.12 185.74 279.62 188.19 
M 284.6 198.19 285.58 200.2 287.69 203.83 288.86 205.45 
M 291.27 208.56 293.73 211.48 
M 298.4 217.17 300.65 220.08 
M 222.84 98.16 226.37 101.19 229 103.72 231.61 106.53 236.45 112.55 240.6 118.61 248.2 131.66 
M 250.84 136.19 255.11 143.14 258.09 147.61 265.53 157.92 
M 268.24 161.88 270.77 165.79 
M 273.21 169.71 280.65 181.68 
M 289.17 198.2 290.25 200.06 293.88 204.99 
M 296.38 207.99 298.78 210.81 
M 313.11 228.12 315.68 230.87 
M 227.68 97.59 232.14 101.61 234.81 104.32 239.73 110.09 243.81 115.82 251.11 128.01 
M 253.71 132.32 260.86 143.44 269.78 155.81 272.49 159.78 276.21 165.68 
M 281.04 173.58 284.59 179.68 290.8 192.37 291.9 194.32 
M 296.69 201.52 301.62 207.54 
M 306 213.06 308.16 216 
M 320.53 231.16 321.74 232.67 
M 232.67 97.32 237.94 102.32 242.92 107.83 247.01 113.28 251.97 121.03 
M 254.27 124.77 260.88 135.21 265.17 141.54 
M 268.07 145.66 275.27 155.79 280.34 163.75 287.38 175.77 290.56 182.09 
M 292.61 186.34 294.75 190.5 
M 297.09 194.43 299.61 198.08 
M 308.94 209.95 311.01 212.78 
M 318.21 222.34 320.76 225.53 
M 237.46 97.09 241.01 100.38 243.53 102.96 245.93 105.58 250.17 110.78 254.23 116.49 263.97 131.56 268.06 137.59 
M 270.86 141.63 273.69 145.71 
M 276.51 149.8 283.14 159.96 289.01 170.03 
M 295.42 182.56 298.73 188.83 302.51 194.59 
M 307.63 201.33 309.9 204.26 
M 311.98 207.02 318.58 215.93 
M 242.53 97.16 246.39 100.81 251.04 105.7 255.4 110.78 257.56 113.64 281.95 150.02 
M 284.56 154.17 289.48 162.39 
M 291.74 166.47 293.91 170.57 
M 296.04 174.73 298.16 178.92 
M 305.25 191.05 310.41 198.06 
M 312.79 201.19 315 204.09 
M 331.36 226.49 332.97 228.85 
M 247.7 97.33 256.22 105.48 260.8 110.69 265.49 117.12 278.21 135.96 283.52 144.16 291.09 156.75 295.58 164.99 303.08 179.48 
M 305.36 183.51 306.55 185.5 310.4 191.1 
M 312.98 194.58 317.92 200.95 
M 320.23 203.89 324.79 209.94 
M 253.78 98.08 259.13 102.8 263.94 107.76 266.35 110.67 271.2 117.3 281.4 132.35 286.61 140.48 293.91 153.11 299.35 163.43 
M 301.47 167.56 303.65 171.72 
M 305.83 175.82 308.04 179.8 
M 318.11 194.3 320.68 197.53 
M 334.85 217.16 337.19 220.67 
M 260.47 98.98 264.55 102.53 267.04 105.01 269.54 107.8 274.52 114.13 279.53 121.27 287.26 132.88 293.43 143.17 
M 299.97 155.58 302.03 159.66 
M 306.32 167.89 308.57 171.99 
M 310.82 175.96 313.07 179.78 
M 320.7 190.6 323.35 193.94 
M 267.24 99.92 272.72 105.21 277.85 111.22 282.91 118.11 290.48 129.54 295.43 137.56 297.71 141.62 307.88 161.87 310.11 165.96 315.94 175.87 
M 318.28 179.65 320.73 183.31 
M 325.97 190.28 328.61 193.66 
M 333.68 200.58 336.06 204.08 
M 273.46 100.62 278.55 105.61 281.17 108.57 286.29 115.15 291.24 122.46 296.13 130.18 298.54 134.07 301.86 139.99 
M 305.8 147.97 307.68 151.95 
M 309.65 155.91 314.1 163.89 
M 321.25 175.72 326.05 183.08 
M 328.62 186.6 336.39 197.17 
M 341.19 204.36 343.44 207.9 
M 280.03 101.73 284.47 106.16 287.09 109.17 290.89 114.11 
M 293.34 117.63 303.85 134.45 307.97 142.2 311.68 150.07 313.7 153.98 320.88 165.69 327.71 177.42 331.31 182.86 
M 333.83 186.43 336.42 190 
M 286.93 103.2 290.41 106.8 292.98 109.84 295.45 113.09 300.09 120.05 309 134.71 317.01 150.1 320.6 155.76 
M 323.06 159.56 326.58 165.44 330.78 173.39 334.1 179.02 
M 351.52 204.99 353.84 208.66 
M 293.95 104.91 296.25 107.46 301.01 113.73 306.46 122.3 
M 308.6 125.83 314.04 134.9 317.12 140.62 
M 319.26 144.44 321.6 148.21 
M 324.11 151.89 327.83 157.41 330.06 161.25 333.97 169.23 337.07 175.06 
M 339.36 178.81 341.79 182.52 
M 344.29 186.24 346.8 190 
M 354.39 201.6 356.83 205.38 
M 300.67 106.72 304.14 111.13 308.46 117.57 323.53 142.83 331.31 153.61 333.5 157.29 341.25 172.97 344.68 178.69 
M 347.1 182.49 349.56 186.32 
M 357.15 198.04 359.68 201.87 
M 307.11 108.6 309.37 111.66 313.54 117.92 324.06 135.78 326.43 139.54 329.03 143.16 334.43 150.13 335.6 151.9 
M 341.62 163.07 345.53 170.93 
M 350.01 178.74 352.41 182.66 
M 359.84 194.36 362.37 198.16 
M 313.45 110.67 316.5 115.08 318.51 118.3 323.61 127.05 
M 328.05 134.49 331.8 140 337.28 146.91 340.97 152.07 
M 343.09 155.63 346.88 163.13 
M 319.54 112.68 329.81 129.52 333.39 135.02 
M 335.98 138.62 342.8 147.17 345.24 150.56 347.39 154.03 350.24 159.47 
M 352.12 163.27 357.09 173.27 362.76 183.35 
M 365.18 187.17 367.69 190.83 
M 325.21 114.56 332.84 126.47 337.71 133.63 340.32 137.22 348.31 147.44 351.62 152.54 
M 355.46 159.69 357.29 163.52 
M 363.23 175.72 366.64 181.8 367.86 183.69 
M 370.36 187.37 375.53 194.53 
M 378.03 198.31 380.43 202.26 
M 331.2 116.67 340.89 130.42 351.36 144.35 353.7 147.69 355.85 151.05 358.69 156.28 
M 360.39 159.97 362.97 165.85 366.02 172 
M 368.26 176.1 371.83 182.07 375.68 187.5 
M 337.81 118.95 349.38 134.27 356.73 144.58 358.89 147.91 360.82 151.28 363.28 156.58 
M 368.73 168.21 371.03 172.27 
M 373.48 176.3 377.2 182.14 384.83 193.23 
M 344.59 121.23 352.39 131.03 354.98 134.53 361.69 144.75 363.58 148.08 365.24 151.5 368.4 158.65 370.28 162.43 372.52 166.34 376.31 172.32 
M 378.81 176.28 381.23 180.15 
M 351.49 123.47 357.76 131.3 361.25 136.46 
M 363.34 139.83 366.22 144.8 370.32 153.35 
M 372.09 156.89 374.16 160.54 
M 383.99 176.12 384.83 177.49 
M 358.41 125.81 362.73 131.44 364.95 134.78 367.9 139.73 
M 369.72 143.02 374.02 151.45 375.97 154.91 384.22 168.09 
M 365.2 128.18 367.42 131.36 371.45 137.82 378.95 151.1 384.49 160.21 
M 371.53 130.39 378.01 140.59 382.94 148.99 
M 377.97 132.64 382.85 139.88 384.83 143.11 
M 141.31 117.93 139.94 119.86 
M 148.31 115.69 146.3 118.25 142.78 123.44 
M 155.3 113.59 151.69 117.85 149.29 121.12 145.05 127.73 
M 161.92 111.66 156.97 117.45 154.4 120.74 151.98 124.24 146.99 132.37 
M 167.73 110 159.51 120.41 156.95 123.91 154.52 127.64 148.7 137.25 
M 173.46 108.1 163.24 121.9 
M 160.76 125.5 150.71 141.75 
M 179.63 106.1 174.1 113.07 169.22 119.93 164.46 127.18 160.84 133.16 
M 158.26 137.39 151.53 148.37 
M 186.39 104.22 181.53 109.64 178.94 112.84 173.92 119.78 169.18 127.1 160.73 141.57 
M 158.03 146.06 153.16 154.01 
M 193.26 102.72 189.35 106.7 184.08 112.79 178.78 119.68 176.27 123.34 171.62 130.92 161.96 148.15 153.8 161.66 
M 200.11 101.42 197.26 104.11 192.14 109.69 186.78 116.14 181.32 123.29 178.77 127.04 176.42 130.89 170.92 141.21 
M 168.55 145.65 163.32 154.84 
M 160.69 159.31 155.7 167.67 
M 206.81 100.29 202.67 104.17 197.63 109.74 186.9 123.29 184.11 127.02 181.5 130.85 179.17 134.82 170.16 152.3 161.35 167.69 
M 158.89 171.78 155.79 176.73 
M 213.05 99.42 208.11 104.08 203.12 109.74 191.4 125.15 
M 188.56 128.93 184.53 134.8 182.16 138.9 175.55 152.09 169.38 163.43 
M 162.03 176.02 159.32 180.3 
M 219.34 98.6 216.15 101.34 213.58 103.86 208.55 109.57 190.36 134.8 187.75 138.9 185.32 143.13 176.04 161.13 170.14 171.92 
M 167.67 176.13 165.04 180.42 
M 154.9 196.3 154.72 196.58 
M 225.99 97.77 221.69 101.18 216.5 106.35 213.95 109.3 209.11 115.87 204.39 123.11 196.32 134.78 190.99 143.14 183.59 156.58 177.9 167.65 
M 175.6 171.96 173.2 176.23 
M 170.65 180.55 167.92 185 
M 156.57 202.93 154.16 206.96 
M 232.89 97.31 230.05 99.19 227.33 101.23 224.68 103.55 220.72 107.62 
M 218.1 110.63 214.31 115.56 211.93 119.13 200.73 136.77 
M 198.07 141 194.13 147.55 188.99 156.65 184.19 165.53 179.78 174.11 173.46 185.21 
M 159.86 207.04 153.36 218.19 
M 239.72 97.12 233.12 101.72 230.4 103.84 227.67 106.24 224.96 108.98 222.24 112.02 219.57 115.32 217.01 118.83 212.22 126.38 199.71 147.55 189.23 165.79 183.75 176.36 
M 168.16 203.15 163.29 210.99 
M 161.17 214.68 159.1 218.25 
M 245.56 97.2 233.43 106.72 230.64 109.22 227.85 112.07 222.33 118.67 219.69 122.29 214.77 130.05 203.79 149.8 
M 198.48 159.17 191.67 170.54 186.41 180.95 
M 173.73 203.56 171.37 207.29 
M 250.33 97.65 244.43 103.04 236.33 109.74 233.48 112.34 230.66 115.31 227.89 118.64 222.45 125.94 219.86 129.82 216.13 136.09 
M 213.69 140.48 205.09 156.82 195.2 173.16 
M 192.92 177.42 190.95 181.52 
M 254.77 98.2 247.17 105.65 239 112.74 236.14 115.47 234.73 117.03 
M 231.98 120.34 227.98 125.85 222.65 133.81 218.73 140.3 
M 216.18 144.84 208.65 159.17 
M 205.9 164.01 202.98 168.8 
M 200.12 173.45 196.45 180.04 194.93 183.38 
M 182.64 207.36 180.08 211.28 
M 174.97 218.64 170.35 225.47 
M 259.13 98.78 249.72 108.21 241.44 115.7 238.61 118.57 235.89 121.88 233.3 125.58 230.77 129.57 220.04 147.04 217.36 151.78 209.65 166.35 205.42 173.47 
M 202.75 178.03 199.91 183.55 
M 185.8 211.21 183.11 215.02 
M 180.42 218.68 177.81 222.21 
M 263.58 99.42 260.03 102.74 254.89 108.12 250.79 112.1 
M 247.97 114.69 243.73 118.71 241 121.79 238.43 125.33 237.21 127.31 
M 234.76 131.42 228.36 142.46 224.15 149.38 
M 213.65 168.59 205.95 182.39 
M 194.34 207.04 190.45 213.01 183.46 222.2 
M 268.32 100.04 265.47 102.51 254.66 113.57 248.82 119.06 246.03 122 243.46 125.34 242.26 127.25 
M 239.9 131.28 233.86 142.52 225.49 156.56 221.6 163.72 
M 216.8 173.15 211.74 182.36 
M 197.8 210.83 196.55 212.8 192.45 218.49 
M 273.57 100.64 268.4 105.03 257.22 116.69 251.33 122.57 249.95 124.16 
M 247.34 127.56 246.1 129.37 243.81 133.45 236.76 147.32 228.51 161.38 224.83 168.44 
M 222.52 173.06 217.45 182.61 
M 201.29 214.53 198.7 218.31 
M 278.84 101.49 274.11 105.29 271.34 107.87 268.55 110.72 258.47 121.77 
M 255.56 124.94 254.13 126.53 251.45 129.98 248.99 133.82 246.72 138.09 242.23 147.44 238.35 154.44 
M 235.65 159.09 231.74 166.1 223.56 181.91 
M 210.67 207.97 209.33 210.5 
M 207.13 214.37 204.75 218.13 
M 284.04 102.57 279.97 105.73 274.29 110.97 271.43 113.97 264.26 122.31 
M 261.38 125.69 257.17 130.8 254.56 134.48 252.14 138.5 245.25 152.11 237.55 166.01 229.19 181.88 
M 216.22 207.35 213.83 212.21 210.52 217.96 
M 289.2 103.76 283.04 108.75 277.24 114.31 271.42 120.8 261.7 133.32 
M 259.11 137.1 255.46 143.16 251.98 149.75 
M 249.58 154.22 239.66 172.7 
M 237.22 177.27 233.74 183.82 
M 213.8 221.51 211.31 225.03 
M 294.31 105 288.96 109.38 283.13 114.82 277.25 121.1 271.52 128.07 268.78 131.75 263.65 139.45 261.22 143.46 255.33 154.06 
M 252.9 158.44 250.45 162.93 
M 248.01 167.53 243.05 176.84 
M 223.77 213.76 221.63 217.72 
M 214.38 228.37 211.69 231.63 
M 299.21 106.32 291.93 112.67 286.09 118.43 283.15 121.58 277.36 128.35 274.57 131.93 270.63 137.64 
M 268.17 141.61 258.74 158.18 
M 248.95 176.15 244.92 183.66 
M 231.38 209.8 229.35 213.74 
M 303.89 107.62 300.44 110.71 294.81 116.15 286.12 125.43 280.45 132.28 277.7 135.93 273.85 141.7 
M 271.46 145.68 265.75 155.89 260.76 164.28 257.06 170.88 
M 254.65 175.41 250.57 183.24 
M 239.54 204.69 238.77 206.22 
M 236.86 210.01 232.78 217.69 
M 228.06 225.09 225.49 228.44 
M 308.27 108.98 300.37 116.79 294.74 122.89 286.32 132.78 280.82 140.02 275.87 147.77 271.36 155.79 263.81 168.17 261.32 172.5 257.77 179.25 
M 245.35 203.87 244.14 206.31 
M 236.09 221.41 233.67 225.03 
M 228.39 231.56 225.6 234.48 
M 312.45 110.35 305.69 117.33 300.25 123.48 289.31 136.88 285.2 142.33 
M 282.62 146.09 280.2 149.94 
M 277.92 153.85 274.45 159.77 269.31 167.85 265.5 174.21 
M 263.14 178.58 260.94 183.04 
M 251.36 202.21 249.46 205.98 
M 245.61 213.9 241.59 221.25 
M 236.71 228.28 235.4 229.95 231.2 234.46 
M 316.5 111.68 310.84 117.75 305.54 123.92 289.45 144.7 284.4 152.17 276.05 165.69 
M 270.9 173.86 267.34 180.23 266.32 182.38 
M 257.39 200.59 253.77 207.45 250.75 213.61 
M 248.86 217.4 245.83 222.83 244.67 224.59 
M 320.58 113.02 315.86 118.07 313.26 121.08 308.08 127.53 292.28 148.97 289.74 152.66 283.81 161.95 
M 281.39 165.73 275.05 175.7 272.7 179.87 269.51 186.48 
M 263.95 198 263.17 199.44 
M 260.6 204.12 255.89 212.97 
M 242.37 234.32 239.59 237.27 
M 324.73 114.39 318.24 121.44 315.68 124.51 311.9 129.47 
M 309.42 132.92 297.51 149.47 284.16 169.72 
M 281.68 173.6 279.22 177.62 
M 276.93 181.7 274.89 185.77 
M 270.55 195.02 268.74 198.49 
M 266.19 203.07 258.8 216.31 
M 256.69 220.26 252.44 227.52 
M 328.87 115.85 323.19 122.04 318.13 128.11 302.5 149.8 296.37 159.24 
M 291.62 166.46 289.25 170.06 
M 284.44 177.66 280.91 183.71 278.64 188.16 
M 276.63 192.39 273.88 197.97 
M 271.5 202.33 263.76 215.48 
M 259.27 223.4 257.13 227.04 
M 254.92 230.53 252.58 233.86 
M 333.06 117.32 325.63 125.64 323.1 128.67 310.14 146.14 304.79 153.84 297.68 165.22 291.79 174.2 
M 289.43 177.94 283.36 188.26 
M 282.54 189.83 282.49 189.94 
M 280.46 193.93 278.46 197.93 
M 276.31 202.02 273.95 206.23 
M 271.39 210.49 268.77 214.71 
M 259.57 229.91 257.32 233.31 
M 337.31 118.78 328.19 129.32 324.45 134.07 
M 321.99 137.35 312.37 150.08 309.67 153.95 307.15 157.84 300.17 169.4 296.62 174.81 
M 294.25 178.44 290.65 184.16 285.9 192.23 280.69 202.03 
M 341.65 120.24 330.88 133.07 322.08 144.59 
M 319.25 148.23 314.84 153.97 312.11 157.9 302.69 173.61 294.28 186.5 
M 291.82 190.4 288.23 196.33 285.01 202.09 
M 278.58 213.56 276.22 217.47 
M 346.07 121.71 341.8 127.12 333.74 136.79 326.44 146.49 317.61 157.8 313.57 163.9 
M 311.14 167.98 306.43 175.86 
M 304.04 179.58 291.96 198.15 
M 289.66 201.9 285.4 209.28 
M 278.78 220.56 276.48 224.26 
M 350.58 123.18 347.47 127.44 336.83 140.35 329.56 150.05 325.11 155.63 
M 322.03 159.61 317.69 165.82 311.43 175.96 
M 309.01 179.83 304.45 187.3 
M 302.14 190.94 299.72 194.54 
M 297.23 198.1 293.56 203.38 290.23 208.72 
M 285.91 216.01 283.67 219.74 
M 355.1 124.66 350.64 130.95 340.03 143.8 327.94 159.38 
M 324.88 163.49 320.52 169.79 316.59 175.86 
M 314.08 179.76 311.73 183.62 
M 309.56 187.42 307.41 191.11 
M 305.15 194.67 301.5 199.82 296.48 206.43 293.07 211.6 
M 281.76 229.63 279.49 232.88 
M 277.22 235.94 274.93 238.8 
M 359.46 126.18 356.13 131.22 353.69 134.47 343.14 147.19 335.02 157.29 329 165.34 324.63 171.63 
M 319.31 179.62 316.88 183.47 
M 314.64 187.3 312.52 191.05 
M 308.17 198.11 307 199.79 299.31 209.25 296.96 212.61 293.6 218 
M 288.99 225.3 285.49 230.48 282.05 235.21 
M 363.61 127.62 358.98 134.72 356.5 137.99 338.82 159.23 
M 335.84 163.14 331.42 169.33 323.36 181.36 315.49 194.47 
M 313.29 197.97 312.18 199.68 309.77 202.83 305.81 207.3 
M 303.22 210.38 300.79 213.66 
M 293.97 224.43 289.28 231.26 
M 367.49 128.98 363.84 134.8 361.55 138.15 357.91 142.99 
M 355.35 146.14 342.58 161.14 336.63 169.14 329.91 179.2 
M 327.48 183.02 322.91 190.47 
M 318.43 197.68 316.06 201.03 
M 313.55 204.13 310.92 207.06 
M 303.33 216.46 296.64 227.03 
M 371.17 130.26 366.22 138.12 361.63 144.75 356.56 151.08 347.83 161.24 341.89 169 336.36 177.03 328.18 190.17 
M 325.95 193.77 322.5 199.08 321.27 200.74 
M 316.05 206.89 310.71 212.79 
M 305.94 219.41 303.78 222.85 
M 374.73 131.51 368.45 141.39 363.85 148.09 358.86 154.54 350.1 165.11 344.35 172.91 339.13 180.71 328.92 197.09 
M 326.55 200.51 322.72 205.32 318.61 209.76 
M 310.91 219.1 308.72 222.38 
M 306.65 225.58 304.57 228.72 
M 378.31 132.76 370.53 144.68 365.82 151.52 352.46 169.08 347 176.77 343.23 182.49 
M 340.86 186.25 338.6 189.96 
M 334.15 197.11 329.34 203.75 
M 321.33 212.87 318.66 215.93 
M 381.84 133.99 375.08 144.35 356.28 171.25 
M 353.63 175.01 347.31 184.38 338.19 199 334.59 203.98 
M 332.06 207.11 329.47 210.16 
M 319.12 222.38 316.82 225.31 
M 384.83 136.14 379.89 143.84 369.67 158.69 362.55 169.74 353.84 182.73 
M 351.39 186.39 344.43 197.35 
M 342.14 200.89 337.27 207.47 
M 324.55 222.74 322.06 225.61 
M 384.83 143.17 374.45 158.63 368.55 168.2 
M 366.21 172.01 354.27 190.33 
M 351.91 193.95 349.59 197.57 
M 342.38 207.82 337.39 214.08 
M 334.93 217.16 332.47 220.23 
M 329.94 223.22 327.35 226.08 
M 384.83 150.46 379.59 158.42 368.87 176.13 
M 366.47 179.87 359.51 190.62 
M 357.19 194.27 354.87 197.91 
M 352.49 201.46 350.03 204.88 
M 384.83 158.17 378.88 168.25 
M 376.54 172.31 371.65 180.15 
M 369.25 183.78 364.67 190.79 
M 362.41 194.42 360.13 198.13 
M 355.32 205.27 352.73 208.57 
M 384.83 166.78 384.08 168.11 
M 381.79 172.2 378.25 178.29 369.87 190.88 
M 367.6 194.44 361.86 203.79 360.62 205.55 
M 358.07 208.97 355.43 212.21 
M 352.8 215.37 350.27 218.5 
M 384.83 175.71 382.24 180.11 
M 379.87 183.92 377.52 187.5 
M 375.18 190.97 371.68 196.26 368.21 201.95 
M 365.88 205.7 363.44 209.28 
M 360.87 212.64 358.22 215.85 
M 384.83 184.1 380.44 191.04 
M 378.14 194.58 371.12 205.82 
M 384.83 192.16 380.94 198.39 
M 384.83 200.36 379.2 210 
M 207.61 100.16 208.65 98.11 209.28 92.65 209.71 86.81 210.17 84.28 211.02 81.56 213.26 76 213.51 73.25 214.17 71.21 214.53 69.15 215.62 66.42 217.18 63.61 217.9 61.56 219.2 58.64 219.57 55.41 220.2 53.35 226.34 50.55 228.97 48.33 230.32 46 231.34 43.63 234.39 38.51 239.32 36.32 242.1 33.69 244.23 32.19 248 30 245.67 34.3 247.18 39.24 248.74 42.59 249.46 45.12 250.06 48 250.11 50.57 250.83 53 256.54 58.2 259.02 63.11 259.9 65.4 261.01 67.23 263.11 69.32 264.56 71.38 268.9 79.75 269.95 82.35 271.17 84.24 273.06 85.99 276.91 91.48 276.07 94.26 278.12 96.58 282.82 100.04 284.33 102.63 
M 285.97 102.97 285.97 102.97 
M 212.16 99.54 213.08 97.6 213.65 94.9 214.05 92.08 214.15 88.92 214.73 85.62 215.99 82.98 216.41 80.27 218.05 73.43 217.96 71.92 219.1 68.96 222.64 63.15 223.3 60.19 223.55 57.54 224.86 56.02 
M 216.72 98.93 217.96 94.43 218.61 88.24 219.09 85.27 219.7 83.04 220.31 76.68 222.43 70.76 224.72 67.62 226.66 62.76 227.76 60.57 234.03 55.62 236.12 53.69 239.75 48.45 
M 221.28 98.36 222.15 96.2 222.64 93.34 223.22 87.76 223.03 85.09 223.31 82.79 224.38 79.88 224.97 76.1 226.42 72.78 228.92 69.48 230.74 65.16 232.29 63.41 234.77 61.72 235.79 59.54 237.6 57.29 239.96 55.76 241.93 54.23 242.66 51.03 
M 225.84 97.79 226.83 95.84 227.47 93.58 228.06 85.02 228.6 82.58 229.68 79.63 230.98 77.02 232.15 73.99 233.17 71.07 233.27 69.42 237.31 66.22 238.02 65.23 
M 230.42 97.45 231.58 95.2 232.1 92.38 231.87 89.95 232.11 87.48 233.14 82.63 234.94 80.19 239.55 72.56 240.91 71.33 241.87 69.61 243.2 68.8 
M 235.01 97.2 235.79 94.79 236.46 92.01 237.2 87.26 238.93 82.67 240.86 80.7 244.23 76.26 245.33 74.47 247.78 72.22 248.48 70.66 
M 239.6 97.12 240.44 94.7 241.28 89.63 242.06 87.67 243.29 86.32 244.71 83.82 246.54 81.65 248.18 79.34 249.57 76.51 251.46 74.03 254.55 72.82 
M 244.19 97.19 244.83 95.03 244.86 92.37 245.67 89.96 247.36 87.77 249.8 83.35 252.09 81.31 254.62 78.22 
M 248.78 97.46 249.92 95.78 252.57 87.6 253.79 86.01 256.11 83.93 258.31 81.5 260.97 79.88 263.49 79.93 266.2 79.59 
M 253.34 98.02 254.52 96.43 255.2 94.03 256.42 91.7 258.43 90 
M 257.9 98.61 259.24 97.37 260.66 93.66 
M 262.45 99.26 263.7 98.53 264.01 96.6 265.33 95.33 269.16 93.56 
M 267 99.89 268.5 99.52 270.16 97.59 
M 271.56 100.41 273.62 100.15 
M 276.13 100.93 278.66 100.45 
M 280.63 101.86 280.64 101.86 
M 155.96 186.71 164.14 186.32 172.66 185.27 175.5 185.06 178.23 184.51 181.03 184.18 192.42 183.19 200.25 183.57 202.78 183.48 205.64 182.97 211.76 182.36 222.86 182.95 225.29 182.79 230.47 183.11 233.63 183.82 236.47 183.85 239.38 183.51 242.27 184.06 248.34 183.14 250.88 183.26 253.24 183.56 256.21 184.72 259.17 185.29 264.32 186.1 272.55 186.67 278.2 188.15 286.13 188.28 264.76 197.52 262.55 198.82 259.99 199.77 256.84 200.13 253.95 200.75 251.78 202.09 249.08 202.9 246.2 203.53 243.68 204.53 240.54 204.52 235.37 205.47 233.12 206.28 227.8 207.07 224.76 207.1 222.02 207.42 216.35 207.3 214.31 208.03 206 208.01 200.18 207.58 197.31 207.16 189.55 206.74 183.56 205.65 179.34 205.07 159.98 199.86 156.65 197.08 154.79 196.26 
M 155.98 188.32 161.29 188.5 164.04 188.27 169.58 188.52 175.38 187.93 180.88 187.77 183.66 188.04 190.07 188.24 195.59 188.3 198.62 188.09 203.98 188.73 208.83 188.56 211.3 188.8 214.38 189.36 225.65 189.78 228.99 191.05 232.11 191.51 234.32 192.21 237.31 192.73 242.88 194.01 
M 161.18 190.52 163.93 190.51 166.87 190.87 172.69 191.21 175.37 191.3 177.94 191.13 186.81 192.28 193.21 193.44 198.44 193.82 201.43 193.56 204.26 194.05 207.1 194.83 209.02 195.74 211.47 196.03 214.49 197.07 225.67 199.87 228.21 200.27 230.88 200.92 233.35 201.77 
M 161.16 192.47 163.98 192.78 166.91 193.45 172.68 194.24 175.46 194.84 183.67 195.6 186.42 196.45 
M 155.72 192.98 166.57 196.24 178.45 199.14 180.72 200.01 
M 158.77 195.76 161.15 197.06 166.52 199.52 
M 207.61 246.89 213.27 251.8 217.47 255.18 227.43 279.48 224.79 279.93 222.05 280 220.62 279.3 217.77 277.2 215.74 275.91 214.3 275.21 211.97 273.62 195.47 255.03 191.93 250.57 188.02 245.26 
M 203.04 246.42 205.77 249.43 210.73 254.24 213.4 256.48 215.22 258.98 216.46 261.98 218.98 266.2 219.35 267.83 
M 198.47 245.96 201.08 249.06 204.29 254.01 206.36 256.23 211.05 261.78 215.02 270.54 216.45 272.28 
M 193.89 245.64 199.72 254.64 201.58 257.05 203.59 258.74 207.27 265.95 208.92 269.55 
M 364.32 224.95 367.66 228.53 370.65 231.16 372.69 233.22 375.39 235.5 380.79 247.65 378.49 251.99 377.06 258.02 372.24 260.91 370.59 263.13 365.89 265.66 363.78 267.44 362.57 270.03 360.17 271.4 357.9 272.29 355.27 272.77 352.1 272.67 348.77 272.79 346.06 273.94 344.26 275.81 341.43 275.54 339.33 275.78 336.94 274.99 333.66 274.54 331.32 275.5 328.72 276.21 322.54 276.24 319.19 275.18 317.11 275.37 307.14 274.22 301.4 274.29 298.82 274.84 294.88 274.24 292.25 275.07 289.58 274.57 285.52 272.38 284.04 271.41 274.16 262.97 272.06 260.47 270.8 258.48 269.63 255.78 266.38 250.27 
M 360 226.5 363.16 230.08 368.34 234.33 372.35 240.21 374.24 241.52 375.53 243.12 
M 355.68 228.06 361.29 234.36 363.86 236.7 365.6 239.06 366.98 242.41 
M 351.33 229.56 354.15 232.98 356.8 235.58 359.2 237.6 361.36 239.97 362.97 242.75 365.41 245.76 367.52 247.96 370.49 249.96 373.47 252.57 374.27 254.84 
M 346.98 231.03 349.83 234.08 351.83 236.75 354.12 239.11 359.8 243.42 361.94 245.49 
M 342.62 232.48 345.6 235.65 347.43 238.16 349.87 240.27 353.7 244.39 356.16 246.6 362.24 250.83 363.41 254.39 365.32 258.44 365.9 259.31 366.87 262.22 
M 338.25 233.91 341.3 237.39 343.14 239.93 346.64 243.91 348.69 246.53 351.2 248.07 353.66 250.15 356.27 252.8 357.95 256.18 361.7 261.17 
M 333.88 235.32 341.16 243.43 342.91 245.97 344.52 247.92 349.09 251.38 351.17 254.1 
M 329.5 236.69 334.8 242.53 336.71 244.43 338.76 247.04 340.53 250.14 342.56 252.83 346.32 255.63 348.44 258.43 349.76 260.6 352.12 262.64 353.52 265.68 
M 325.11 238.05 328.58 241.62 330.8 244.26 336.52 250.43 338.33 253.75 
M 320.69 239.31 325.67 245.18 327.42 246.86 329.03 249.45 333.27 254.04 
M 316.27 240.57 324.37 250.84 326.36 252.93 328.05 255.64 330.8 258.38 335.01 263.71 338.64 266.1 
M 311.86 241.84 314.62 245.27 316.68 248.13 322.53 255.19 327.73 259.64 329.72 262.87 333.01 266.79 
M 307.44 243.1 310.39 246.09 315.2 251.64 316.82 254.59 318.86 256.52 323.57 259.51 325.13 262.79 327.61 266.06 
M 303 244.27 310.79 253.08 313.46 255.55 315.63 257.83 317.42 259.36 319.3 261.76 320.66 264.86 
M 298.54 245.38 305.7 254.55 307.68 256.69 312.75 261.32 314.15 263.64 315.94 265.92 317.79 269.83 319.17 273.56 
M 294.07 246.46 297.18 250.33 301.09 255.88 302.76 257.51 304.79 260.34 311.76 268.73 
M 289.6 247.52 292.62 251.16 295.49 253.86 297.39 256.74 298.86 259.5 300.57 262.13 302.13 263.85 303.96 266.27 306.97 268.69 
M 285.11 248.51 287.71 252.5 292.29 257.64 294.22 260.42 
M 280.57 249.22 283.48 252.93 286.2 255.06 289.92 259.99 291.87 263.66 294.2 270.03 295.81 272.23 
M 276.03 249.91 278.55 253.58 280.57 256.18 283 258.95 285.3 261.13 287.04 264.11 288.17 267.28 
M 271.44 250.09 282.17 266.27 
M 383.91 134.71 386.7 133.66 391.82 130.69 394.35 128.97 396.87 127.7 401.27 126 403.46 124.64 405.98 123.45 411.89 119.95 414.08 117.94 416.44 116.32 418.73 115.2 421.2 114.34 424.6 113.7 426.71 112.27 429.27 109.07 434.42 105.67 436.69 103.76 439.49 102 440.9 101.75 443.8 100.3 450.08 95.94 456.08 92.61 457.76 90.53 459.02 87.28 460.69 85.82 468.03 83.67 468.82 82.25 470.58 80.12 474.65 77.13 477.86 75.48 480.43 74.78 472.59 91.09 472.13 94.24 471.27 96.97 469.56 98.86 467.39 100.29 465.84 105.93 465.26 109.06 463.75 111.42 462.46 114.01 461.4 116.82 457.98 121.11 455.79 122.66 453.2 127.54 449.58 131.39 447.24 132.94 445.46 135.05 444.22 137.7 442.79 140.17 440.83 142.1 439.12 144.2 437.64 146.53 435.64 148.35 435 151.52 433.01 153.29 430.66 154.68 429.31 157.08 428.73 163.83 427.12 165.87 426.04 168.51 424.71 170.91 423.53 173.45 422.27 175.49 421.68 178.16 421.79 181.38 423.46 184.29 424.52 187.09 425.41 190.27 425.76 192.95 426.02 195.78 425.82 198.16 425.93 200.85 425.41 202.82 426.85 208.31 429.53 212.42 430.66 215.47 431.13 218.1 430.95 220.06 431.3 222.34 432.77 225.74 433.24 228.39 433.27 231.07 432.97 233.43 433.14 236.27 433.82 239.11 434.72 241.95 435.17 244.34 436.72 247.53 439.63 255.36 436.45 251.69 434.36 250.05 428.06 248.01 425.62 246.8 423.47 246.57 419.45 243.47 417.81 241.68 415.72 238.72 412.68 236.85 410.22 235 407.24 234.42 404.75 232.67 401.93 231.2 397.76 227.41 395.8 225.87 389.93 221.76 383.91 217.12 
M 386.91 138.36 389.72 137.21 392.23 135.38 394.95 133.75 397.36 132.53 399.86 131.95 404.31 129.26 410.31 126.83 412.96 125.16 418.19 123.17 420.2 122.03 425.75 120.46 427.4 118.33 429.96 116.26 432.34 114.81 434.63 113.01 436.28 112.11 438.33 110.53 441.26 108.91 447.41 106.7 450.56 105 453.03 103.44 455.24 102.53 457.94 101.5 460.3 101.56 462.07 100.16 464.76 95.81 466.69 93.71 
M 387.1 142.56 393.03 140.54 395.41 139.49 400.07 136.51 403.11 135.31 410.83 132.63 413.36 132.32 420.38 128.46 426.26 126.47 428.52 124.85 432.17 120.88 435.33 120.38 437.66 119.81 
M 387.43 146.37 398.58 143.61 400.65 142.15 405.9 140.54 409.4 139.26 412.16 138.71 417.54 136.76 422.05 134.7 424.75 133.92 426.56 132.18 428.9 130.64 
M 392.75 149.46 398.18 148.07 400.76 147.18 403.95 147.14 409.51 144.37 416.1 143.56 418.76 142.01 420.36 140.51 424.89 139.53 428.69 138.95 431.2 138.11 433.05 135.98 435.75 135.63 438.53 133.49 441.69 131.94 444.04 131.85 
M 387.32 155.54 396.09 153.16 398.9 152.71 401.13 152.06 403.82 152.22 413.59 148.47 420.95 146.3 422.96 145.09 425.28 144.3 432.66 146.44 436.11 146.41 
M 393.02 158.69 396.19 158.02 400.2 157.77 403.49 158.18 406.31 157.95 409.02 157.01 411.09 155.23 413.2 154.32 416.11 154.49 419.19 153.86 
M 383.91 163.56 387.32 164.18 390.88 163.81 394.13 163.09 400.32 163.1 403.32 163.8 406.44 163.59 
M 387.57 168.16 390.41 167.72 394.1 168.15 397.33 167.84 399.9 167.04 404.58 168.03 408.45 167.92 412.23 166.83 415.64 166.09 417.49 165.21 
M 391.38 172.82 394.6 172.36 397.72 172.46 400.68 172.81 403.46 172.76 
M 394.63 177.08 397.66 176.68 400.25 177.29 403.52 178.36 406.54 179.82 409.94 180.06 412.07 180.4 413.34 179.91 417.34 180.17 
M 383.91 180.04 388.46 181.95 395.4 183.18 398.35 184.03 400.45 183.38 405.76 184.29 
M 395.3 188.45 398.73 188.94 401.76 189.13 403.27 188.61 412.44 190.19 416.16 192.42 
M 391.82 191.31 397.75 192.57 400.45 193.62 402.73 193.77 404.72 194.43 408.25 195.02 410.75 195.87 
M 387.99 194.78 391.42 195.83 397.82 197.46 399.75 198.28 402.45 198.44 405.32 199.64 408.3 200.64 411.35 200.9 413.34 202.54 416.15 202.84 422.73 204.29 
M 391.53 199.77 394.14 201.24 397.23 202.18 400.13 202.66 403.38 203.92 406.66 205.46 409.46 206.24 410.48 205.92 413.17 207.53 416.09 208.69 418.7 209.41 421.65 210.75 424.22 212.46 
M 387.92 202.38 397.47 206.38 402.44 209.01 405.76 210.5 408.1 211.93 411.06 213.17 414.9 213.18 418.13 212.84 
M 387.47 206.57 393.9 210.23 396.75 211.65 401.48 214.98 403.16 216.94 406.04 218.28 412.91 219.39 416.72 221.22 419.28 221.73 423.18 225.94 
M 390.19 212.45 399.23 218.04 401.96 219.88 403.6 221.52 406.09 222.78 408.7 224.34 411.69 225.58 418.44 227.22 420.86 229 425.06 233.28 
M 393.03 219.17 398.81 223.2 400.5 225.12 402.75 227.13 405.27 228.68 408.32 230.22 414.51 230.46 
M 315.35 111.3 320.04 117.61 339.01 97.73 340.35 95.18 343.52 94.46 345.94 92.99 351.27 91.69 354.53 89.09 357.03 89.38 363.47 95.3 368.78 101.47 370.08 106.66 371.72 110.9 375.42 114.43 369.08 132.83 364.32 127.87 
M 319.71 112.74 322.52 111.95 324.67 109.68 326.34 106.83 330.68 102.74 332.69 101.6 
M 324.08 114.18 327.09 113.32 329.31 111.27 331.73 108.6 333 106.46 334.38 104.73 338.39 101.01 339.94 99.09 342.37 96.51 
M 328.42 115.69 331.5 114.37 333.39 112.37 335.75 110.59 338.48 106.67 340.78 103.97 341.58 102.46 343.97 100.25 346.47 97.57 
M 332.75 117.21 335.84 116.49 337.71 114.43 339.85 112.74 342.81 108.94 347.48 103.83 349.22 101.43 
M 337.09 118.71 339.82 117.48 342.1 115.83 343.86 113.74 345.6 111.37 347.5 109.53 350.04 107.74 352.22 105.17 354.91 100.35 356.76 99.03 360.1 95.65 
M 341.45 120.17 344.3 118.85 346.21 116.61 348.66 114.93 350.42 112.69 354.27 109.37 356.59 107.81 359.54 104.93 
M 345.81 121.63 349.46 120.14 351.42 117.92 358.86 111.22 362.73 108.6 366.48 103.71 
M 350.18 123.05 353.39 121.2 355.78 119.35 358.31 118.12 359.93 116.52 360.81 115.01 363.46 112.01 366.25 110.37 367.87 108.84 369.49 108.79 
M 354.55 124.47 357.74 122.87 360.13 120.92 362.72 119.28 365.22 116.96 367.39 115.26 
M 358.89 125.98 362.42 125.26 365.47 122.03 369 119.07 
M 55.95 190.05 56.11 189.44 57.86 185.96 63.67 177.43 71.01 167.47 74.26 161.4 77.95 155.58 83.58 150.71 97.65 141.51 117.5 129.59 128.83 123.22 133.43 121 139.05 118.73 143.53 124.39 146.2 130.27 148.43 136.2 151.47 148.16 153.19 154.13 153.61 160.21 155.39 172.28 155.93 178.35 156 190.57 154.68 196.8 153.44 215.24 152.61 221.42 151.21 227.66 148.86 233.92 136.25 233.28 127.11 232.04 119.14 230.54 111.99 228.76 105.41 226.87 92.57 223.89 87.06 222.07 81.74 219.37 
M 75.78 214.91 70.05 209.64 63.93 203.39 
M 124.66 194.73 126.51 204.27 126.67 209.25 112.2 209.24 106.6 209.12 101.15 208.75 90.19 207.33 84.91 206.32 
M 80.4 218.89 76.15 215.29 69.95 208.97 64.75 204.07 61.21 200.97 57.63 198.17 54.41 195.19 53.09 193.33 53.44 190.93 55.4 189.84 57.53 190.67 60.5 194.02 68.59 202.55 71.54 206.06 78.31 215.05 82.05 219.02 
M 81.73 219.86 74.55 220.61 63.35 221.15 51.9 221.37 42.5 221.35 40.24 220.34 39.56 218.11 40.84 216.22 43.23 215.87 61.51 217.93 75.02 218.84 81.73 218.91 
M 89.21 182.91 87.07 174.81 87.68 166.46 90.97 158.76 96.58 152.55 103.9 148.49 112.15 147.03 120.42 148.32 127.82 152.24 133.55 158.34 136.99 165.97 137.76 174.31 135.79 182.44 131.28 189.5 124.72 194.71 116.83 197.5 108.46 197.59 100.52 194.95 93.86 189.87 89.21 182.91 
M 88.9 182.19 87.88 179.21 87.23 176.13 86.97 172.99 87.1 169.84 87.62 166.73 88.52 163.71 89.79 160.82 91.4 158.11 93.33 155.62 95.56 153.4 98.05 151.46 100.76 149.85 103.64 148.58 106.67 147.68 109.77 147.16 112.92 147.03 116.07 147.29 119.15 147.94 122.13 148.96 
M 90.6 181.49 89.65 178.72 89.05 175.86 88.81 172.95 88.93 170.03 89.41 167.14 90.24 164.34 91.42 161.66 92.92 159.15 94.72 156.84 
M 95.54 156.02 96.78 154.77 99.09 152.98 101.6 151.48 104.28 150.31 107.08 149.47 109.96 148.99 112.89 148.87 115.8 149.11 118.66 149.71 121.43 150.66 
M 92.3 180.79 91.42 178.24 90.87 175.6 90.65 172.91 90.76 170.22 91.28 167.3 
M 96.93 157.21 98 156.15 100.12 154.49 102.44 153.11 104.91 152.03 107.49 151.26 110.15 150.82 112.85 150.71 115.54 150.93 118.17 151.48 120.72 152.36 
M 93.99 180.08 93.19 177.75 92.69 175.33 92.48 172.87 92.58 170.4 92.98 168.01 
M 98.29 158.45 99.21 157.53 101.16 156.01 103.28 154.75 105.54 153.76 107.91 153.05 110.34 152.65 112.81 152.54 115.27 152.75 117.69 153.25 120.02 154.06 
M 95.69 179.38 94.97 177.26 94.51 175.07 94.32 172.83 94.41 170.59 94.75 168.57 
M 99.65 159.68 102.2 157.53 104.12 156.38 106.17 155.48 108.32 154.84 110.53 154.47 112.77 154.38 115.01 154.57 117.2 155.03 119.32 155.75 
M 97.39 178.68 96.74 176.77 96.32 174.8 96.16 172.8 96.24 170.78 96.54 169 
M 100.95 160.98 103.23 159.05 104.96 158.02 106.81 157.21 108.74 156.63 110.72 156.3 112.73 156.22 114.74 156.39 116.71 156.8 118.61 157.45 
M 99.09 177.97 98.51 176.28 98.14 174.54 98 172.76 98.07 170.97 98.35 169.28 
M 102.24 162.28 104.27 160.56 105.8 159.65 107.44 158.93 109.15 158.42 110.91 158.13 112.7 158.06 114.48 158.2 116.22 158.57 117.91 159.15 
M 100.79 177.27 99.96 174.27 99.83 172.72 100.15 169.66 
M 103.58 163.54 105.31 162.08 106.65 161.28 109.57 160.21 112.66 159.89 114.21 160.02 117.21 160.85 
M 103.12 176.64 102.27 173.4 102.5 170.2 
M 105.42 165.21 106.07 164.49 109 162.87 112.3 162.29 115.61 162.81 118.57 164.37 120.86 166.81 122.23 169.86 122.54 173.2 121.75 176.45 119.95 179.28 117.33 181.36 114.17 182.48 110.82 182.51 107.65 181.45 104.98 179.42 103.12 176.64 
M 105.89 164.7 105.57 165.34 
M 103.07 170.33 102.39 171.69 
M 107.86 163.5 106.51 166.21 
M 104.29 170.66 102.49 174.25 
M 109.61 162.76 107.44 167.1 
M 105.42 171.15 102.97 176.05 
M 111.12 162.49 108.32 168.1 
M 106.56 171.61 103.65 177.43 
M 112.58 162.33 109.18 169.13 
M 107.75 172.01 104.44 178.62 
M 113.86 162.53 110.03 170.2 
M 109.03 172.19 105.3 179.66 
M 115.14 162.73 110.85 171.31 
M 110.41 172.19 106.29 180.42 
M 116.3 163.17 107.29 181.19 
M 117.39 163.75 108.41 181.71 
M 118.48 164.32 109.59 182.1 
M 119.39 165.25 110.77 182.49 
M 120.29 166.21 112.15 182.5 
M 121.1 167.35 113.54 182.48 
M 121.76 168.8 115.08 182.16 
M 122.29 170.48 116.75 181.56 
M 122.51 172.81 118.83 180.17 
M 57.64 186.4 62.39 191.15 
M 59.83 183.07 65.25 188.49 
M 62.06 179.79 66.35 184.08 
M 64.32 176.53 69.81 182.02 
M 66.61 173.32 70.1 176.8 
M 68.97 170.16 72.31 173.5 
M 71.28 166.96 75.38 171.05 
M 73.21 163.37 77.51 167.67 
M 75.23 159.88 79.47 164.12 
M 77.37 156.5 82.75 161.89 
M 80.1 153.72 83.33 156.95 
M 83.06 151.17 87.63 155.74 
M 86.32 148.92 90.97 153.57 
M 89.65 146.73 93.91 150.99 
M 92.99 144.55 98.45 150.02 
M 96.32 142.38 99.67 145.73 
M 99.74 140.28 103.3 143.84 
M 103.2 138.23 107.38 142.41 
M 106.63 136.15 111.61 141.13 
M 110.04 134.03 113 137 
M 113.48 131.96 117.12 135.61 
M 116.94 129.91 121.06 134.04 
M 120.45 127.91 124.59 132.05 
M 123.97 125.91 128.8 130.74 
M 127.51 123.95 130.75 127.19 
M 131.17 122.09 135.61 126.53 
M 134.96 120.37 139.79 125.19 
M 138.9 118.79 139.7 119.59 
M 104.04 210.45 105.13 209.83 105.57 209.29 108.55 204.9 111.01 200.22 112.55 199 
M 104.11 140.74 103.16 140.73 102.45 140.37 101.55 139.21 
M 128.23 199.47 127.81 197.09 127.25 195.86 125.9 193.77 
M 91.11 153.94 89.23 151.58 87.59 149.87 86.06 149.09 
M 135.41 210.82 135.91 210.3 137.28 209.41 137.52 208.98 
M 122.95 147.93 122.43 147.18 121.22 146.15 119.2 145.66 118.3 145.92 117.06 147.79 
M 137.78 161.03 137.93 160.47 138.99 158.6 141.96 155.21 
M 115.78 145.24 114.48 145.7 112.63 147.1 
M 132.42 221.06 133.42 223.43 133.79 225.03 133.56 227.02 132.52 228.81 132.22 229.07 
M 131.01 146.76 129.28 146.47 127.33 145.09 
M 63.2 179.09 61.86 180.08 
M 102.82 204.79 104.04 204.75 105.2 204.19 105.57 203.82 106.72 200.84 107.49 199.53 107.58 198.83 107.35 198.63 
M 95.14 206 96.26 206.18 98.27 207.04 99.81 206.52 
M 75.31 196.47 76.23 195.46 79.55 193.33 81.84 190.95 82.37 189.93 82.6 188.84 
M 83.36 187.68 82.93 187.21 81.55 186.34 79.26 185.74 77.19 184.96 76.51 184.9 75.56 185.07 74.91 185.56 
M 120.26 141.61 118.51 142.27 115.99 142.8 113.73 143.48 111.43 143.87 110.5 144.37 109.76 144.97 106.69 147.99 
M 84.28 179.02 83.38 180.3 82.68 180.93 80.24 181.86 
M 81.58 179.06 81.27 179.47 80.53 179.94 78.21 180.64 77.64 180.68 76.58 180.47 74.68 179.65 
M 91.83 157.55 90.8 156.42 90.17 155.25 88.27 152.99 86.89 151.8 85.06 151.2 
M 143.04 206.32 141.61 207.02 140.18 208.49 138.55 209.45 138.08 209.95 
M 133.26 153.9 134.12 153.21 134.21 152.99 134.09 152.85 
M 139.33 218.96 136.59 224.92 134.38 227.32 132.72 228.75 
M 136.13 191.18 135.39 189.68 134.42 188.65 132.14 188.16 
M 84.3 174.3 83.32 176.68 81.63 179.3 80.95 179.87 79.34 180.31 
M 146.9 211.93 148.16 212.08 149.72 211.66 151.25 210.48 152.63 208.46 152.62 208.06 
M 138.9 133.71 138.23 133.76 137.27 133.14 136.12 131.55 135.44 130.87 132.49 128.54 132.02 128 131.81 127.36 
M 78.96 174.8 77.87 175.24 77.87 175.92 77.54 176.61 
M 152.36 210.6 152.85 210.03 153.4 208.86 153.3 208.53 152.81 208.11 
M 148.6 136.83 147.22 137.99 146.91 139.41 
M 142.32 193.45 141.82 192.14 141.7 190.84 143.18 187.42 
M 83.48 176.7 81.51 179.62 80.8 180.03 78 180.76 
M 131.88 219.83 132.7 221.38 133.75 224.56 133.66 226.68 133.48 227.22 132.45 228.89 
M 75.16 174.7 74.2 174.45 
M 143.98 142.05 143.38 141.86 142.4 141.96 142.06 142.3 142.02 142.71 
M 80.53 217.36 80.93 217.19 
M 103.25 195.86 102.01 196.2 98.98 195.89 97.1 195.97 
M 131.12 135.59 130.87 136.18 131.12 138.14 
M 153.66 202.12 149.32 202.07 148.19 201.82 144.81 200.55 141.69 200.38 
M 110.87 222.88 112.1 222.83 112.91 223.09 113.35 223.64 113.09 224.2 
M 86.15 216.83 87.19 215 87.21 214.35 
M 84.73 175.6 84.22 177.8 82.64 180.65 81.89 181.15 
M 82.97 173.81 81.87 175.57 80.48 176.88 79.49 178.22 78.73 178.62 77.3 178.89 
M 102.05 145.07 102.09 142.8 101.79 141.22 101.19 139.42 
M 119.42 206.08 118.94 206.96 119.06 207.43 
M 152.75 167.71 148.39 167.86 147.87 168.16 147.33 169.14 147.19 169.91 147.54 170.12 
M 144.71 190.34 143.65 188.8 143.47 188.07 143.88 186.44 144.78 186.13 
M 94.43 154.93 94.38 153.75 94.66 152.65 97.26 148.2 98.8 143.87 99.4 142.81 
M 94.47 224.31 97.34 219.15 98.35 218.31 
M 126.59 229.39 127.05 228.22 127.98 226.9 128.94 225.97 129.37 225.76 130.31 225.7 131.36 225.86 132.2 226.46 132.77 227.37 
M 124.79 134.38 124.36 134.99 123.31 135.58 121.76 135.7 120.72 135.5 
M 101.99 149.55 102.29 148.46 102.14 143.03 
M 94.67 224.35 97.55 219.25 98.51 218.38 
M 126.07 145.64 125.87 145.14 125.31 144.88 123.91 144.95 120.19 144.72 
M 140.38 223.11 139.63 224.58 139.29 224.93 137.66 225.68 132.59 228.94 
M 147.53 233.34 149.13 229.78 149.76 227.95 150.07 225.8 149.55 224.67 
M 84.71 201.37 84.74 200.66 
M 81.77 219.34 82.55 220.15 
M 75.78 214.91 75.8 215.25 75.98 215.12 
M 72.93 211.9 72.74 213.14 73.16 212.66 73.52 212.52 
M 70.19 209.2 69.8 209.92 69.69 211.02 70.18 210.31 70.93 209.94 
M 67.42 206.6 66.81 207.58 66.63 208.9 67.2 207.97 68.21 207.39 
M 64.67 204 63.83 205.23 63.57 206.78 64.22 205.63 65.54 204.8 
M 61.82 201.54 60.85 202.89 60.51 204.67 61.24 203.29 62.66 202.33 
M 58.91 199.17 57.87 200.55 57.46 202.55 58.25 200.94 59.79 199.86 
M 56.01 196.77 54.89 198.2 54.4 200.43 55.27 198.6 56.82 197.47 
M 53.49 193.89 51.91 195.86 51.34 198.32 52.29 196.26 54.17 194.85 
M 81.73 219.48 82.83 219.5 
M 77.76 218.89 78.11 218.7 78.26 218.89 
M 73.55 218.73 74.32 217.92 74.37 218.34 74.65 218.82 
M 69.61 218.43 69.9 217.76 70.52 217.13 70.46 217.77 70.75 218.49 
M 65.66 218.19 65.99 217.18 66.72 216.35 66.54 217.19 66.86 218.26 
M 61.72 217.94 62.08 216.61 62.92 215.56 62.63 216.61 62.96 218.02 
M 57.85 217.46 58.17 216.03 59.12 214.78 58.72 216.04 59.02 217.6 
M 53.94 217.06 54.26 215.46 55.32 213.99 54.81 215.46 55.08 217.16 
M 50.05 216.61 50.35 214.88 51.52 213.21 50.9 214.89 51.16 216.75 
M 46.14 216.18 46.44 214.3 47.73 212.42 46.99 214.31 47.23 216.27 
M 42.2 216.02 42.52 213.73 43.93 211.64 43.08 213.74 43.31 215.88 
M 53.15 221.35 67.02 224.47 73.33 225.45 79.71 225.95 86.1 225.98 98.73 225.25 
M 63.44 221.67 63.08 221.18 
M 89.04 224.6 89.66 224.22 
M 141.47 117.88 147.6 124.01 
M 147.03 116.1 155.66 124.72 
M 152.67 114.38 163.43 125.14 
M 158.33 112.69 165.88 120.24 
M 164.05 111.06 173.56 120.57 
M 169.71 109.37 178.79 118.45 
M 175.2 107.51 184.4 116.71 
M 180.82 105.77 191.35 116.3 
M 186.57 104.18 194 111.6 
M 192.6 102.85 201.4 111.66 
M 198.74 101.65 207.88 110.78 
M 205.04 100.59 213.54 109.09 
M 211.44 99.64 217.22 105.42 
M 217.93 98.77 224.77 105.62 
M 224.47 97.96 231.15 104.64 
M 231.26 97.4 238.83 104.97 
M 238.31 97.11 243.91 102.7 
M 245.76 97.21 253.6 105.04 
M 254.01 98.1 261.01 105.1 
M 262.53 99.27 268.47 105.21 
M 270.95 100.34 279.64 109.02 
M 279.61 101.64 285.33 107.37 
M 289.03 103.71 295.8 110.48 
M 298.89 106.23 307.11 114.44 
M 309.34 109.33 320.07 120.06 
M 320.3 112.93 329.46 122.09 
M 331.49 116.77 339.79 125.07 
M 342.64 120.57 348.93 126.86 
M 353.58 124.15 364.16 134.74 
M 364.81 128.04 370.63 133.86 
M 376.12 131.99 382.72 138.59 
M 387.36 135.89 391.53 140.05 
M 222.68 291.39 220.79 297.7 
M 220.79 297.7 224.39 297.7 
M 227.15 293.5 226.25 296.5 226.28 297.39 226.79 297.7 227.69 297.7 228.38 297.39 229.55 296.5 
M 230.45 293.5 229.19 297.7 
M 232.85 293.5 231.59 297.7 
M 232.49 294.7 233.66 293.8 234.35 293.5 235.25 293.5 235.76 293.8 235.79 294.7 234.89 297.7 
M 239.75 293.5 239.06 293.8 238.28 294.39 237.71 295.3 237.53 295.89 237.56 296.8 237.98 297.39 238.49 297.7 239.39 297.7 240.08 297.39 240.86 296.8 241.43 295.89 241.61 295.3 241.58 294.39 241.16 293.8 240.65 293.5 239.75 293.5 
M 244.25 293.5 242.99 297.7 
M 243.71 295.3 244.28 294.39 245.06 293.8 245.75 293.5 246.65 293.5 
M 249.35 293.5 248.66 293.8 247.88 294.39 247.31 295.3 247.13 295.89 247.16 296.8 247.58 297.39 248.09 297.7 248.99 297.7 249.68 297.39 250.46 296.8 251.03 295.89 251.21 295.3 251.18 294.39 250.76 293.8 250.25 293.5 249.35 293.5 
M 256.58 294.39 256.46 293.8 255.65 293.5 254.75 293.5 253.76 293.8 253.28 294.39 253.4 295 253.91 295.3 255.32 295.6 255.83 295.89 255.86 296.8 255.38 297.39 254.39 297.7 253.49 297.7 252.68 297.39 252.56 296.8 
M 258.11 295.3 261.71 295.3 261.89 294.7 261.77 294.1 261.05 293.5 260.14 293.5 259.46 293.8 258.68 294.39 258.11 295.3 257.93 295.89 257.96 296.8 258.38 297.39 258.89 297.7 259.78 297.7 260.48 297.39 261.26 296.8 
M 264.35 293.5 263.09 297.7 
M 263.81 295.3 264.38 294.39 265.15 293.8 265.85 293.5 266.75 293.5 
M 270.64 293.5 271.19 297.7 
M 274.25 293.5 271.19 297.7 
M 279.35 293.5 278.08 297.7 
M 279.08 294.39 278.65 293.8 278.14 293.5 277.25 293.5 276.56 293.8 275.77 294.39 275.2 295.3 275.02 295.89 275.06 296.8 275.48 297.39 275.99 297.7 276.89 297.7 277.58 297.39 278.36 296.8 
M 281.75 293.5 280.49 297.7 
M 281.39 294.7 282.56 293.8 283.25 293.5 284.14 293.5 284.65 293.8 284.69 294.7 283.79 297.7 
M 287.45 293.5 286.55 296.5 286.58 297.39 287.08 297.7 287.99 297.7 288.68 297.39 289.85 296.5 
M 290.75 293.5 289.49 297.7 
M 295.88 294.39 295.76 293.8 294.95 293.5 294.05 293.5 293.06 293.8 292.58 294.39 292.7 295 293.2 295.3 294.62 295.6 295.13 295.89 295.15 296.8 294.68 297.39 293.69 297.7 292.79 297.7 291.98 297.39 291.86 296.8 
M 297.47 297.1 297.08 297.39 297.29 297.7 297.68 297.39 297.47 297.1 
"/></svg>
