<svg xmlns="http://www.w3.org/2000/svg" width="520" height="320"><rect x="0" y="0" width="520" height="320" fill="floralwhite"/><rect x="10" y="10" width="500" height="300" stroke="black" stroke-width="1" fill="none"/><path stroke="black" stroke-width="1" fill="none" stroke-linecap="round" stroke-linejoin="round" d="
M 214.16 114.13 219.47 110.82 224.78 108.01 230.1 105.91 235.41 104.62 246.04 104.43 251.36 103.84 261.99 103.39 267.3 103.59 272.62 104.89 283.25 106.68 288.56 108.47 299.19 112.61 304.5 114.93 325.76 125.49 347.02 137.5 
M 347.02 169.49 325.76 181.91 320.45 184.84 304.5 192.89 288.56 202.73 283.25 205.12 277.93 206.78 267.3 209.36 261.99 209.51 256.67 208.88 251.36 207.45 246.04 205.21 235.41 201.76 230.1 199.51 224.78 196.87 219.47 193.76 214.15 190.13 208.86 186.76 
M 339.74 144.88 332.52 143.22 321.36 140.32 309.4 137.65 305.96 137.05 
M 303.5 136.8 302.23 136.69 296.9 136.81 283.95 138.08 273.79 138.63 268.74 138.32 264.9 137.77 
M 262.34 137.5 259.79 137.35 
M 257.23 137.27 254.67 137.22 
M 252.11 137.15 244.44 136.57 
M 241.98 136.27 237.34 135.53 
M 232.81 134.74 230.49 134.49 
M 221.15 135.29 220.23 135.47 
M 212.94 177.77 215.77 181.61 
M 217.22 183.52 218.72 185.43 
M 213.09 172.2 219.2 180.61 
M 220.67 182.62 223.71 186.59 
M 225.3 188.49 226.95 190.29 
M 230.37 193.61 232.14 195.1 
M 214.08 168.03 215.06 169.39 
M 216.58 171.46 219.7 175.65 
M 221.16 177.75 224.05 181.97 
M 225.57 184.03 227.17 186.02 
M 230.59 189.75 232.38 191.48 
M 236.02 194.59 237.85 195.95 
M 218.28 168.38 219.95 170.55 
M 221.57 172.75 223.07 174.97 
M 225.9 179.39 227.41 181.56 
M 229.02 183.65 230.74 185.66 
M 232.53 187.58 236.2 191.07 
M 222.77 168.95 224.99 172.26 
M 226.39 174.57 227.79 176.88 
M 229.28 179.16 231.74 182.45 236.3 187.33 
M 249.62 198.03 251.58 199.38 
M 227.98 171.14 230.5 175.61 232.03 177.98 233.71 180.27 236.41 183.44 
M 238.25 185.33 241.04 187.86 245.88 191.77 
M 247.87 193.38 249.89 195.01 
M 251.91 196.6 253.92 198.08 
M 259.7 201.53 261.51 202.34 
M 232.69 173.12 235 176.91 
M 236.7 179.3 239.39 182.54 242.16 185.21 
M 244.05 186.82 245.99 188.41 
M 250.08 191.74 254.27 195.17 
M 218.27 146.83 219.08 147.78 
M 236.06 172.45 238.11 175.98 240.72 179.59 
M 242.52 181.67 244.35 183.49 
M 256.67 193.8 258.72 195.45 
M 260.66 196.96 264.24 199.49 
M 265.92 200.56 267.59 201.54 
M 218.68 143.19 221.95 146.6 
M 239.84 172.34 242.22 176.34 244.86 179.81 
M 248.54 183.52 250.5 185.21 
M 256.94 190.61 259.07 192.43 
M 266.4 198.36 268.05 199.56 
M 219.39 140.06 219.6 140.26 
M 221.74 142.26 224.9 145.39 
M 243.59 171.91 246.4 176.52 248.16 178.83 250.89 181.76 
M 252.84 183.57 257.09 187.26 
M 259.28 189.14 261.39 190.97 
M 220.17 136.92 224.47 140.78 227.88 144.17 
M 248.14 172.6 251.42 177.57 
M 253.19 179.71 255.09 181.7 
M 261.47 187.5 263.53 189.34 
M 265.43 191.09 267.16 192.78 
M 275.43 199.96 277.23 201.09 
M 220.28 133.01 220.91 133.6 
M 223.07 135.56 228.32 140.34 230.83 142.95 
M 249.74 167.89 253.02 173.82 255.48 177.35 
M 257.29 179.54 259.26 181.64 
M 261.36 183.68 263.47 185.66 
M 267.32 189.42 268.99 191.23 
M 219.98 128.71 224.91 133.27 
M 227.06 135.19 230.2 138.14 235.22 143.37 
M 250.29 161.61 251.92 164.34 
M 253.43 167.14 254.87 169.85 
M 256.33 172.41 257.86 174.83 
M 263.37 181.62 265.38 183.69 
M 267.3 185.71 270.72 189.61 
M 272.29 191.47 273.88 193.24 
M 219.09 123.8 223.53 128.23 229.99 134.11 240.17 144.3 
M 249.21 154.34 253.62 160.6 255.3 163.31 258.97 169.9 
M 260.41 172.34 261.96 174.74 
M 263.64 177.11 269.12 183.71 
M 272.49 187.89 275.74 191.77 
M 217.63 118.42 225.53 126.32 231.82 132.23 238.9 139.3 
M 241.11 141.39 246.77 146.7 249.7 149.91 
M 251.56 152.15 253.37 154.54 
M 255.15 157.1 258.62 162.43 
M 260.21 165.03 261.67 167.53 
M 264.52 172.33 266.03 174.68 
M 271.06 181.56 276.07 188.16 
M 215.84 113.08 219.86 117.15 225.66 122.53 232.7 129.48 
M 234.72 131.45 236.65 133.38 
M 238.58 135.33 241.67 138.35 245.2 141.44 
M 247.6 143.53 250.96 146.7 252.91 148.84 256.61 153.56 259.29 157.56 
M 261.04 160.24 265.08 166.44 269.96 174.56 
M 273.16 179.29 274.81 181.68 
M 276.48 184.04 278.19 186.31 
M 279.96 188.46 281.8 190.47 
M 283.67 192.38 285.58 194.24 
M 217.75 111.89 221.95 115.92 227.77 120.87 229.76 122.75 243.52 136.38 252.96 144.57 257.03 148.92 258.89 151.31 261.62 155.26 
M 263.4 157.94 268.42 165.35 
M 273.82 174.57 275.36 177.02 
M 219.57 110.76 224.03 114.77 232.01 121.21 237.2 126.31 
M 239.15 128.27 245.62 134.47 253.62 141.4 
M 255.97 143.53 258.18 145.73 
M 260.19 147.99 263.01 151.63 269.24 160.76 
M 272.44 165.47 276.27 172.38 
M 282.61 182.23 284.42 184.55 
M 221.5 109.74 226.17 113.61 234.29 119.76 246.98 131.81 
M 248.89 133.5 259.03 142.53 261.3 144.8 264.31 148.34 
M 266.09 150.82 267.83 153.43 
M 269.61 156.04 271.45 158.56 
M 274.93 163.34 277.66 167.98 
M 278.86 170.3 280.12 172.67 
M 281.54 175.11 283.13 177.6 
M 288.42 184.7 290.26 186.94 
M 223.46 108.71 235.49 117.42 
M 237.64 119.17 240.86 122.03 248.42 129.22 254.18 134.23 259.76 139.35 
M 262.08 141.61 264.32 143.97 
M 266.34 146.41 268.13 148.88 
M 271.57 153.95 273.45 156.44 
M 277.21 161.22 278.09 162.4 280.2 165.89 
M 283.95 172.87 287.05 177.76 
M 290.49 182.49 292.27 184.81 
M 225.56 107.7 234.69 113.63 238.82 116.64 243.04 120.22 250.63 127.36 255.37 131.47 
M 257.46 133.24 262.89 138.42 266.21 141.99 
M 268.25 144.46 274.37 153.15 278.35 157.88 281 161.35 
M 283.74 165.89 286.31 170.53 
M 294.3 182.56 296.11 185.01 
M 227.84 106.8 237.08 112.18 239.05 113.52 243.08 116.66 247.12 120.13 254.6 127.11 262.88 134.26 267.16 138.78 270.24 142.45 
M 272.11 144.93 276.43 151 282.12 157.84 284.5 161.21 
M 287.21 165.73 290.04 170.47 
M 291.56 172.91 293.11 175.34 
M 230.07 105.91 237.64 109.71 239.5 110.83 243.29 113.48 249.14 118.22 259.89 127.82 
M 261.98 129.58 265.14 132.39 268.31 135.65 
M 270.39 137.96 272.4 140.33 
M 274.3 142.74 281.36 151.99 
M 283.15 154.2 286.5 158.69 
M 290.87 165.58 292.36 167.98 
M 295.38 172.93 296.9 175.43 
M 232.65 105.29 238.27 107.65 241.9 109.64 247.43 113.41 254.14 118.85 
M 256.1 120.55 264.29 127.64 
M 266.37 129.47 270.57 133.61 
M 272.65 135.85 276.61 140.4 
M 280.25 144.97 281.96 147.18 
M 283.62 149.35 285.29 151.53 
M 291.74 160.78 294.8 165.54 
M 303.98 180.69 305.81 183.25 
M 235.01 104.72 237.11 105.36 240.73 106.76 246.08 109.58 251.59 113.27 258.45 118.67 
M 260.49 120.37 266.6 125.51 
M 270.74 129.29 277.97 136.86 282.68 142.36 
M 286.01 146.64 290.06 152.21 295.76 160.73 
M 298.87 165.62 300.32 168.14 
M 301.7 170.71 303.78 174.57 306.13 178.35 
M 307.9 180.85 309.8 183.33 
M 238.58 104.59 241.4 105.37 244.93 106.7 248.45 108.41 252.06 110.54 255.85 113.07 259.83 116.03 267.91 122.45 270.95 125.07 
M 273.01 126.99 279.27 133.35 
M 283.3 137.63 287.72 142.92 291.65 148.41 
M 294.89 153.3 298.25 158.33 
M 302.93 165.77 304.27 168.33 
M 308.5 176.01 310.21 178.48 
M 242.52 104.52 247.34 105.82 249.09 106.49 252.65 108.18 258.3 111.52 267.26 118.07 
M 269.26 119.59 271.27 121.16 
M 273.28 122.86 275.33 124.72 
M 277.42 126.71 286.76 136.16 290.32 140.37 292.65 143.6 
M 295.69 148.3 297.28 150.82 
M 308.14 168.55 309.5 171.12 
M 311.01 173.65 312.68 176.12 
M 246.79 104.35 249.76 104.97 253.3 106.18 258.85 108.92 262.72 111.34 270.64 116.97 274.64 119.97 277.76 122.59 
M 279.92 124.49 286.32 130.58 
M 288.31 132.63 290.23 134.72 
M 293.76 138.98 296.81 143.44 
M 301.27 150.99 302.93 153.58 
M 304.64 156.13 307.13 159.91 310.6 166.27 
M 250.57 103.93 253.99 104.6 257.63 105.84 259.49 106.67 263.26 108.73 269.1 112.54 277.1 118.12 281.44 121.47 286.92 126.28 
M 288.98 128.26 291.9 131.25 296.49 136.52 
M 298.16 138.71 298.94 139.82 300.97 143.43 
M 302.27 145.99 304.4 149.9 306.83 153.77 
M 255.66 103.65 258.34 104.24 260.17 104.83 262.02 105.58 265.76 107.46 273.5 112.28 282.96 118.73 
M 285.22 120.43 288.57 123.17 292.67 126.98 296.47 130.93 300.2 135.12 301.87 137.35 303.27 139.7 305.04 143.52 
M 309.05 151.34 310.62 153.94 
M 312.17 156.57 313.65 159.25 
M 319.77 169.58 321.54 172.04 
M 260.72 103.44 264.56 104.61 270.17 107.27 275.96 110.7 284.41 116.15 291.19 121.07 295.34 124.75 300.2 129.62 
M 302.06 131.67 303.83 133.81 
M 305.44 136.07 306.78 138.48 
M 310.08 146.25 311.4 148.84 
M 321.95 167.45 323.72 169.89 
M 266.37 103.55 270.81 105.17 276.47 108.05 286.89 114.42 292.55 118.21 
M 294.78 119.87 297.99 122.56 302.93 127.38 
M 304.76 129.4 307.31 132.59 309.48 136.1 
M 276.64 105.55 280.92 107.78 287.08 111.4 293.77 115.52 298.37 118.65 300.56 120.42 304.58 124.23 306.42 126.22 308.94 129.35 
M 310.47 131.54 312.53 135.03 315.2 141.35 
M 323.04 157.54 324.65 160.24 
M 326.33 162.78 328.1 165.23 
M 284.68 107.16 296.07 113.63 300.72 116.61 305.07 120.2 306.99 122.15 309.62 125.18 
M 312.67 129.44 314.03 131.7 
M 315.28 134.07 317.53 139.06 
M 319.8 144.18 322.37 149.54 
M 326.99 157.8 328.62 160.36 
M 301.35 113.55 305.16 116.31 309.22 120.13 310.95 122.14 314.04 126.31 317.36 131.91 
M 318.59 134.32 320.97 139.34 
M 324.85 147.26 327.97 152.78 
M 329.54 155.47 332.68 160.51 
M 311.39 118.39 312.93 120.16 315.98 124.31 319.44 129.76 
M 320.77 132.08 325.92 142.26 
M 327.4 144.98 330.63 150.5 
M 332.21 153.2 335.21 158.27 
M 317.09 121.25 320.1 125.45 
M 321.57 127.61 325.06 133.4 328.37 139.9 
M 329.88 142.62 331.52 145.38 
M 337.78 156.02 339.27 158.56 
M 322.62 123.94 324.51 126.53 327.41 131.09 331.49 138.8 335.62 145.69 
M 337.28 148.41 338.84 151.07 
M 341.79 156.26 343.35 158.89 
M 328.58 127.06 331.21 131.23 334.75 137.71 
M 336.32 140.45 341.27 148.62 
M 334.58 130.48 340.58 140.85 
M 345.34 148.84 346.57 150.88 
M 340.64 133.95 343.39 138.62 
M 346.87 137.41 346.95 137.54 
M 234.14 104.93 231.04 106 229.27 106.81 225.88 108.72 219.76 112.86 215.83 116.13 
M 240.15 104.57 237.21 105.36 235.41 106.02 233.6 106.83 230.06 108.83 223.57 113.4 220.69 115.77 217.68 118.58 
M 244.47 104.47 241.49 105.37 237.96 106.78 236.18 107.69 232.62 109.9 229.2 112.41 224.62 116.18 221.77 118.89 218.75 122.17 
M 248.89 104.12 243.95 105.97 238.74 108.61 235.23 110.98 229.46 115.74 
M 227.96 117.08 224.4 120.71 220.74 125.17 
M 252.95 103.77 248.12 105.77 244.68 107.57 241.27 109.64 237.86 112.15 232.23 117.27 
M 230.7 118.7 228.47 120.91 225.57 124.41 222.85 128.23 221.04 131.43 
M 256.58 103.61 252.32 105.45 248.84 107.4 245.45 109.6 242.13 112.08 240.53 113.49 236.63 117.43 
M 235.09 118.99 233.54 120.53 
M 231.98 122.08 229.65 124.61 228.24 126.41 225.69 130.21 223.9 133.37 
M 222.73 135.61 221.03 139.04 218.62 144.82 
M 260.44 103.45 256.62 105.09 253.93 106.6 
M 252.18 107.7 249.61 109.46 246.3 112.03 243.2 115.01 240.98 117.52 
M 239.5 119.24 232.41 126.71 230.99 128.44 229.11 131.2 
M 225.52 137.42 224.36 139.71 
M 223.28 142.07 221.22 146.9 
M 264.12 103.47 261 104.78 259.18 105.74 255.58 107.99 252.12 110.54 248.86 113.37 247.33 114.94 243.77 119.3 
M 242.33 121.14 240.06 123.84 234.44 129.63 
M 233.09 131.36 230.68 135.12 
M 228.25 139.29 225.3 145.23 
M 267.52 103.64 265.39 104.57 261.77 106.55 258.18 108.96 254.71 111.71 251.44 114.78 249.93 116.47 243.56 124.9 
M 241.95 126.69 237.77 130.77 236.33 132.45 235.09 134.25 229.69 143.42 
M 215.74 169.14 214.6 172.14 
M 213.35 175.14 211.99 178.1 
M 270.02 104.26 266.17 106.37 260.83 110.07 255.68 114.59 254.05 116.28 251.8 118.98 
M 250.39 120.88 246.91 125.77 245.33 127.61 240.26 132.64 238.25 135.33 
M 237.1 137.25 234.79 141.27 
M 216.65 174 213.97 179.83 
M 272.68 104.9 267 108.6 261.79 112.8 256.73 117.85 252.92 122.57 
M 251.5 124.55 249.33 127.44 245.22 131.84 
M 243.59 133.58 242.8 134.47 240.91 137.34 
M 237.51 143.4 237.08 144.09 
M 220.06 173.07 218.74 175.9 
M 275.75 105.4 271.41 108.39 267.93 111.18 264.5 114.21 261.15 117.66 255.49 124.3 
M 254 126.23 250.98 129.93 
M 249.39 131.72 247.01 134.44 245.59 136.38 244.35 138.37 241.21 144.18 
M 222.15 175.13 220.78 177.84 
M 278.91 105.93 274.06 109.49 267.23 115.63 263.9 119.22 253.58 131.53 
M 250.57 135.31 249.21 137.32 
M 248.01 139.37 245.23 144.58 243.85 146.73 
M 227.63 170.99 226.95 172.11 
M 224.1 177.23 221.41 182.46 
M 282.11 106.48 278.5 109.19 275.03 112.17 269.12 117.92 
M 267.47 119.78 261 127.77 
M 259.41 129.6 254.88 135.19 
M 253.49 137.23 249.43 144.58 248.12 146.7 246.34 149.15 
M 230.36 172.14 228.86 174.44 
M 227.41 176.91 226.06 179.38 
M 285.05 107.29 279.53 111.87 274.33 116.69 271.01 120.28 268.57 123.34 
M 266.97 125.46 258.48 136.17 255.35 141.39 
M 252.95 145.64 251.54 147.76 
M 249.98 149.91 248.36 152.08 
M 287.89 108.24 278.89 116.41 275.4 119.92 272.12 123.93 267.41 130.42 262.81 136.3 260.8 139.38 
M 259.58 141.47 256.42 146.75 254.13 149.96 
M 250.87 154.38 249.17 156.65 
M 238.12 172.1 238.04 172.2 
M 290.7 109.31 278.26 121.59 274.89 125.77 270.24 132.51 267.93 135.6 
M 266.43 137.63 265.06 139.67 
M 263.8 141.73 261.26 145.88 
M 251.62 159.19 249.26 162.41 
M 242.11 172.45 240.25 174.92 
M 236.91 179.33 235.43 181.4 
M 293.54 110.43 284.01 120.47 
M 282.16 122.42 279.43 125.54 277.73 127.78 268.54 141.13 264.68 147.27 260.77 152.67 
M 254.03 161.92 252.17 164.38 
M 250.22 167.05 249.86 167.55 
M 246.52 172.27 246.28 172.6 
M 244.4 175.19 242.62 177.53 
M 235.21 187.43 233.89 189.45 
M 296.48 111.56 282.39 127.55 278.96 132.23 270.49 144.74 
M 269.14 146.81 261.61 157.8 
M 256.32 164.73 254.37 167.22 
M 248.59 175.23 245.08 179.83 
M 243.42 181.72 241.85 183.5 
M 299.53 112.76 296.11 117.02 285.3 129.56 282.63 133.11 
M 280.94 135.52 279.29 137.94 
M 277.64 140.36 270.72 150.43 266.51 156.96 264.05 160.47 
M 258.48 167.43 255.48 171.17 252.69 175.09 
M 247.59 181.77 244.37 185.18 
M 242.9 186.89 241.52 188.7 
M 302.62 114.11 299.17 118.59 296.56 121.67 
M 294.72 123.79 288.09 131.54 283.65 137.6 
M 281.92 140.08 280.2 142.59 
M 278.5 145.09 274.41 150.89 271.12 156.23 
M 269.7 158.45 268.13 160.72 
M 255.02 177.37 253.39 179.69 
M 251.79 181.73 250.16 183.52 
M 305.72 115.54 302.11 120.33 294.57 128.93 290.76 133.54 283.51 143.45 278.4 151 274.35 157.65 271.38 162.04 262.7 172.35 
M 260.81 174.76 255.23 182.68 253.69 184.47 251.29 186.86 
M 249.71 188.42 245.3 193.48 
M 308.73 117.04 304.86 122.2 295.25 133.21 287.68 142.92 282.41 150.69 278.28 157.88 276.15 161.15 
M 274.52 163.32 272.69 165.49 
M 270.72 167.68 268.72 169.95 
M 264.91 174.71 263.18 177.12 
M 261.6 179.44 258.06 184.61 256.58 186.35 254.19 188.7 
M 311.6 118.5 307.43 124.16 299.88 132.88 290.89 143.73 
M 289.02 146.25 284.79 152.8 280.75 160.2 279.29 162.47 276.63 165.68 
M 274.67 167.79 272.66 169.96 
M 270.7 172.22 268 175.8 260.95 186.57 258.74 189.09 
M 314.3 119.88 309.81 126.21 302.45 135 294.05 144.68 292.16 147.15 289.53 151.02 
M 287.9 153.65 282.88 162.47 281.31 164.79 279.51 166.98 275.52 171.17 272.75 174.54 
M 271.09 176.91 265.63 185.67 
M 261.58 190.98 260.01 192.51 
M 253.36 198.08 251.74 199.39 
M 316.9 121.16 313.46 126.29 308.64 132.6 304.75 137.25 298.16 144.62 295.31 148.29 
M 291.81 153.36 290.15 155.95 
M 288.56 158.51 284.76 164.69 283.11 167.04 277.46 173.62 274.93 176.99 
M 273.37 179.29 271.89 181.56 
M 268.1 187.63 266.9 189.4 
M 265.61 191.09 264.19 192.71 
M 319.52 122.42 315.42 128.48 310.72 134.94 300.23 147.16 292.4 158.33 
M 290.7 160.81 289.04 163.26 
M 287.41 165.71 284.92 169.33 282.23 172.78 
M 278.77 177.29 269.75 190.43 266.56 194.3 
M 263.57 197.06 258.69 200.56 
M 322.21 123.73 312.49 137.44 306.22 144.84 302.38 149.8 297.33 157.08 291.96 164.35 286.9 171.72 277.95 184.16 
M 273.69 189.84 272.44 191.49 
M 271.24 193.02 270.04 194.47 
M 267.38 197.13 265.91 198.35 
M 324.95 125.08 315.86 137.7 308.08 147.49 302.24 156.02 
M 300.57 158.41 293.25 167.98 
M 289.87 172.92 288.23 175.36 
M 285.02 180.05 283.47 182.28 
M 278.82 188.38 277.32 190.15 
M 272.18 196.05 269.6 198.47 
M 266.68 200.58 263.63 202.32 
M 327.65 126.54 311.91 147.57 304.61 158.57 
M 302.9 160.92 296.29 169.24 290.47 177.77 
M 287.45 182.43 285.95 184.61 
M 284.43 186.68 282.08 189.57 278.29 193.61 
M 271.86 199.74 270.45 200.7 
M 330.38 128.06 315.64 147.67 306.84 161.1 
M 303.18 165.78 300.26 169.38 296.67 174.2 291.32 182.48 
M 289.91 184.73 287.75 187.88 285.44 190.69 
M 283.85 192.38 282.3 193.93 
M 278.12 197.82 276.85 198.94 
M 272.8 201.74 271.32 202.48 
M 333.15 129.65 320.94 145.54 317.58 150.35 315.16 154.16 
M 313.62 156.67 309.75 162.53 302.28 171.99 299.65 175.56 
M 298.05 177.91 292.35 187.03 
M 290.96 189.07 287.99 192.71 
M 283.46 197.05 282.04 198.21 
M 335.98 131.29 332 136.23 321.13 150.69 313.33 162.94 304.31 174.6 301.85 178.12 
M 298.95 182.81 296.21 187.32 
M 293.37 191.34 291.93 193.13 
M 338.98 133.01 336 136.48 328.83 146.42 325.98 149.98 
M 324.13 152.36 316.11 164.51 
M 314.5 166.7 306.49 177.16 304.9 179.51 302.79 183.07 
M 301.46 185.42 300.11 187.7 
M 342.2 134.83 338.26 139.3 331.19 149.28 325.45 156.43 320.63 163.8 315.04 171.48 
M 311.49 176.1 308.12 180.86 
M 306.66 183.28 305.32 185.69 
M 345.58 136.7 340.66 142.16 335.36 149.61 328.64 157.92 
M 326.88 160.33 323.71 165.17 
M 322.18 167.46 317.45 173.99 
M 312.28 180.93 310.71 183.34 
M 347.02 140.6 343 144.93 337.55 152.3 331.79 159.28 330.03 161.62 324.62 169.92 
M 323.09 172.15 321.54 174.34 
M 318.21 178.78 316.52 181.05 
M 347.02 145.63 345.23 147.59 339.65 154.89 334.1 161.77 331.71 165.27 
M 347.02 150.78 338.19 162.07 335.8 165.47 
M 347.02 156.46 341.48 163.62 
M 336.72 170.44 335.04 172.8 
M 347.02 162.32 342.41 168.63 
M 245.09 103.85 291.26 29.99 291.79 30.32 247.44 104.28 
M 254.34 103.14 281.75 52.98 282.3 53.27 256.62 103.61 
M 263.68 102.94 280.55 74.96 281.09 75.27 265.9 103.54 
M 272.86 104.54 280.28 93.1 280.82 93.4 274.99 105.28 
M 282.22 106.22 283.25 106.68 
M 287.31 37.79 284.73 41.98 282.49 46.3 280.78 50.85 279.01 58 
M 279.7 58.36 278.71 62.64 278.1 66.93 278.07 71.24 278.86 77.76 
M 279.54 78.14 278.74 81.72 278.32 85.3 278.46 88.88 279.54 94.24 
M 280.22 94.63 280.03 97.45 280.21 100.18 280.95 102.79 282.89 106.52 
M 286 39.87 283.55 44.12 282.49 46.3 280.78 50.85 279.54 55.59 
M 283.25 44.86 280.99 48.78 280.02 50.8 278.44 54.99 277.29 59.36 
M 280.5 49.86 277.54 55.29 276.1 59.13 275.05 63.13 
M 277.76 54.85 275.88 58.1 274.36 61.5 272.8 66.9 
M 275.01 59.84 272.59 64.27 271.42 67.4 270.56 70.67 
M 272.27 64.83 270.77 67.42 269.56 70.13 268.32 74.43 
M 269.52 69.82 267.65 73.25 266.74 75.68 266.07 78.2 
M 266.77 74.81 265.17 77.74 264.4 79.81 263.83 81.97 
M 264.03 79.8 262.35 83.08 261.58 85.74 
M 279.18 60.5 278.34 64.78 278.1 66.93 278.07 71.24 278.53 75.58 
M 276.49 66.53 275.78 70.21 275.57 72.06 275.54 75.77 275.94 79.5 
M 273.81 72.56 273.03 77.19 273.01 80.3 273.34 83.42 
M 271.12 78.59 270.64 81.08 270.44 83.57 270.75 87.34 
M 268.43 84.62 267.96 87.45 267.94 89.35 268.15 91.26 
M 279.12 79.93 278.47 83.51 278.32 85.3 278.46 88.88 279.11 92.45 
M 275.66 88.46 275.14 91.95 275.24 94.27 275.66 96.6 
M 218.27 146.99 234.67 140.57 234.92 141.14 218.15 149.13 
M 218.09 150.14 246.13 143.08 246.29 143.67 217.94 152.3 
M 217.85 153.23 251.97 149.38 252.05 150 217.55 155.38 
M 217.43 156.23 252.61 157.12 252.6 157.74 217.07 158.33 
M 216.94 159.07 255.46 165.34 255.37 165.96 216.44 161.16 
M 216.24 161.71 254.28 173.44 254.11 174.04 215.5 163.75 
M 215.21 164.59 234.84 174.16 234.59 174.73 214.52 166.67 
M 232.88 142.11 236.03 143.76 238.23 144.3 240.53 144.28 242.9 143.89 
M 243.11 144.64 243.67 146.35 244.49 147.8 245.72 148.84 248.18 149.81 
M 248.28 150.59 247.37 152.81 247.33 154.25 247.86 155.65 248.76 157.02 
M 248.76 157.8 248.58 159.61 248.76 161.29 249.47 162.76 251.34 164.67 
M 251.23 165.45 249.86 167.56 249.5 169.04 249.72 170.6 250.3 172.22 
M 250.09 172.97 246.24 172.21 242.4 171.84 238.56 172.03 232.82 173.17 
M 233.92 142.73 236.03 143.76 237.12 144.11 239.37 144.36 241.71 144.11 
M 243.37 145.52 244.03 147.12 245.05 148.37 245.72 148.84 247.31 149.54 
M 247.91 151.34 247.37 152.81 247.27 153.54 247.53 154.96 248.28 156.34 
M 248.65 158.72 248.61 160.47 248.76 161.29 249.47 162.76 250.66 164.06 
M 250.71 166.14 249.86 167.56 249.5 169.04 249.55 169.81 249.98 171.41 
M 237.91 164.34 237.2 165.73 237.16 166.73 237.44 167.76 
M 248.16 172.57 244.32 171.96 242.4 171.84 238.56 172.03 234.73 172.73 
M 235.41 201.76 238.19 206.14 239.56 209.99 240.41 211.58 241.57 212.98 242.6 215.04 243.05 216.87 245.93 221.83 248.74 224.64 250.33 226.84 251.27 228.68 252.49 230.35 252.14 232.23 252.49 233.63 253.87 234.93 254.76 236.92 255.94 240.26 254.16 249.66 252.67 250.74 251.83 252.48 250.75 253.97 250.23 256.03 249.48 257.86 248.41 259.42 244.91 261.19 243.87 262.79 242.55 264.1 238.07 267.54 237.05 269.15 235.47 270.21 232.52 274.56 221.78 280 222.03 278.71 221.97 277.28 221.38 276.3 222.24 274.36 222.36 272.35 223.84 267.01 224.01 265.39 223.68 263.36 224.1 261.5 224.27 255.26 224.03 253.05 225.89 249.57 226.49 247.93 225.61 242.27 225.96 240.07 226.51 238.21 227.27 236.69 226.83 234.76 227.78 229.18 227.74 227.34 228.72 223.2 229.14 219.67 229.41 213.49 229.77 211.7 230.05 207.78 230.32 201.79 230.1 199.51 
M 234.27 201.28 236.59 205.75 237.21 207.41 238.08 211.49 239.16 212.79 240.27 214.52 241.09 216.33 241.6 218.42 241.83 220.44 242.61 222.16 243.11 224.32 244.66 225.7 245.79 227.77 
M 233.12 200.79 235.44 207.28 236.15 210.92 236.71 212.48 237.69 214.08 238.63 216.37 239.04 217.99 240.17 223.72 240.27 225.74 241 227.91 241.41 229.86 242.32 231.41 242.31 233.24 242.88 239.15 244.39 241.58 245.41 244.07 245.55 245.55 245.26 247.44 245.5 249.47 246.49 251.76 247.84 253.45 
M 231.98 200.31 232.66 202.68 232.97 204.86 234.03 208.79 234.13 210.68 235.21 218.02 235.8 219.8 236.58 223.46 236.34 225.88 236.39 227.89 236.23 229.53 236.49 234.37 
M 230.83 199.82 231.34 202.19 231.4 204.24 232.11 210.31 231.95 212.24 232.04 214.3 231.88 215.92 231.9 221.69 231.59 223.67 231.78 227.7 232.03 229.02 231.99 231.41 231.71 233.83 232.04 235.63 231.84 237.65 231.2 239.66 231.99 245.17 231.68 250.47 231.94 252.05 233.68 254.73 233.7 259.09 233.05 261.45 232.93 263.74 
M 326.48 181.05 329.75 184.85 329.36 185.33 325.05 182.77 
M 318.3 185.49 325.57 192.99 325.16 193.46 316.82 187.17 
M 309.93 189.61 318.14 197.94 317.73 198.41 308.45 191.28 
M 301.74 194.09 310.98 202.55 310.59 203.04 300.34 195.84 
M 294.56 198.62 297.99 202.27 297.61 202.77 293.19 200.4 
M 328.92 185.07 327.32 186.27 326.05 187.65 325.27 189.32 324.84 192.24 
M 324.32 192.83 321.43 193.34 319.79 194.16 318.46 195.48 317.32 197.11 
M 316.8 197.69 314.89 197.9 313.17 198.43 311.75 199.44 310.05 201.71 
M 309.56 202.32 305.63 201.1 302.98 200.87 300.32 201.2 297.65 201.91 
M 323.32 192.94 321.43 193.34 319.79 194.16 319.09 194.76 317.87 196.27 
M 315.83 197.78 314 198.11 313.17 198.43 311.75 199.44 310.59 200.89 
M 347.02 137.5 349.2 137.15 354.37 134.52 356.01 133.19 359.18 131.36 362.76 128.91 364.41 128.53 366.22 127.49 367.05 126.01 368.32 124.85 369.59 123.98 371.14 124.15 372.89 123.15 375.53 122.1 376.36 121.13 378.12 119.55 380.33 117.9 381.64 116.68 383.98 116.4 389.02 120.21 392.01 124.08 392.32 125.61 392.94 127.51 392.48 129.14 392.43 131.19 391.97 134.75 392.02 136.77 392.56 139.3 392.05 141.03 391.17 142.6 389.91 143.77 387.72 146.6 387.39 148.8 386.89 150.8 385.93 152.23 385.29 153.98 384.54 159.5 385.24 161.75 385.26 163.29 385.76 164.15 387.64 165.18 389.32 167.01 390.41 169.24 390.84 170.82 392.51 174.78 393.28 177.55 394.26 179.5 394.78 181 394.48 182.28 394.39 183.81 394.82 185.85 393.61 189.75 390 190.92 388.74 191.81 384.34 194.16 381.92 191.83 377.17 191.26 375.24 190.57 374.18 189.46 372.79 188.65 370.98 187.03 367.17 184.41 366.1 183.41 361.92 180.28 350.82 173.03 347.02 169.49 
M 351.1 138.55 354.65 136.68 356.42 135.99 362.31 133.02 365.14 131.34 368.73 129.83 372.87 126.7 373.64 126.43 375.25 125.13 377.13 124.82 379.84 123.92 382.01 122.91 383.67 121.79 386.13 120.91 
M 351.18 140.77 354.64 139.17 360.66 136.97 362.14 136.1 364.24 135.38 366.06 134.21 367.68 133.44 369.74 133.22 373.04 130.86 376.1 129.89 380.43 129.12 
M 347.02 143.2 349.33 143.27 353 142.48 354.47 141.61 364.95 138.29 367.58 136.31 369.48 135.62 371.74 135.65 373.71 135.44 375.45 135 377.04 133.9 386.3 131.64 388.23 130.37 
M 347.02 145.1 349.32 145.12 353.43 144.43 356.66 143.6 358.54 143.58 360.98 143 362.95 142.25 369.05 141.18 370.77 140.21 372.72 139.6 376.52 139.14 377.87 138.28 
M 349.4 147.04 353.77 146.85 355.73 146.62 359.42 145.71 361.28 145.54 365.65 144.71 370.38 144.85 371.96 144.31 373.37 143.11 375.25 142.17 377.28 141.99 
M 347.02 148.9 349.44 149.13 356.23 149.32 358.23 149.24 359.44 148.66 363.13 148.13 365.5 148.13 367.63 147.34 369.99 146.88 371.85 147.41 
M 347.02 150.8 351.69 151.61 354.05 151.65 356.11 151.27 358.05 151.32 359.54 151.62 361.01 151.31 368.02 150.73 369.96 150.11 372.6 150.48 374.03 150.34 376.58 150.76 379.23 150.67 382.23 151.44 384.58 151.28 
M 349.42 153.49 351.53 153.74 355.86 153.53 359.56 154.23 363.13 154.33 365.87 154.15 
M 353.78 155.99 355.92 156.13 359.87 157.14 363.23 156.91 365.83 157.51 
M 347.02 156.51 349.17 157.47 351.64 158.11 356.3 159.01 359.95 159.48 362.35 159.53 366.1 160.33 369.58 160.58 371.63 161.1 378.17 162.17 379.68 163.16 380.68 163.16 
M 351.53 160.18 356.18 160.96 359.98 162.17 362.17 162.31 366.23 163.28 369.1 163.59 371.13 164.82 373.15 165.6 375.07 165.55 379.09 166.72 380.06 167.5 381.85 167.97 383.74 167.69 385.72 166.62 388.15 166.13 
M 347.02 160.31 349.37 161.55 353.38 162.79 355.55 163.73 359.47 164.79 361.9 164.9 364.02 165.3 365.42 165.98 366.54 166.8 367.96 167.55 372.44 168.76 374.06 169.86 375.97 170.47 378.11 170.81 379.78 171.31 382.19 171.1 384.29 171.6 
M 347.02 162.21 353.08 165.08 354.94 166.55 356.89 167.1 358.96 167.09 361.33 167.56 363.52 168.21 364.98 168.97 366.33 170.1 369.42 170.84 371.26 172.08 377.39 174.83 
M 349.31 165.3 353 167.29 354.72 168.8 356.53 169.59 358.59 169.84 362.28 170.68 363.82 171.87 365.23 172.66 367.27 173.28 369.09 174.09 371.14 175.61 373.42 176.79 375.26 178.01 377.08 178.9 
M 347.02 166.01 351.17 168.5 354.44 171.02 361.46 173.6 363.3 174.86 366.76 176.3 369.12 178.1 370.97 179 373.02 179.68 376.28 181.47 379.11 184.25 381.24 184.91 382.61 186.02 384.62 187.29 387.19 187.8 388.76 188.46 390.72 189.71 392.15 190.4 
M 347.02 167.91 354.52 173.28 357.81 175.13 359.47 175.87 361.4 177.52 366.6 180.79 368.18 180.85 372.01 183.44 376.14 186.96 
M 334.89 174.12 332.72 175.36 331.82 176.22 330.42 178.64 331.08 178.75 
M 136.35 141.15 137.75 140.29 142.68 137.96 145.75 136.14 150.09 134.67 160.59 130.36 171.96 124.83 177.53 122.5 182.78 120.53 188.45 118.8 194.26 117.26 204.61 115.21 208.92 114.55 214.15 114.12 217.57 118.23 218.75 122.16 220.18 129.95 220.3 133.8 220.14 137.63 218.98 141.38 218.36 145.18 217.91 152.83 216.7 160.43 214.11 167.92 210.53 183.03 208.86 186.75 199.28 186.64 192.54 186.13 186.47 185.31 180.97 183.92 175.85 181.82 171.06 179.39 161.84 173.81 
M 161.4 173.5 158.14 171.19 154.9 168.19 149.19 161.28 143.36 155.04 141.02 151.89 139.68 149.64 
M 198.48 136.69 197.16 143.14 196.29 146.17 193.84 151.47 192.44 153.83 191.63 155.99 191.44 158.12 191.72 160.28 192.97 165.35 193.04 168.52 178.05 169.67 173.84 169.38 169.66 168.3 165.62 166.66 161.56 164.38 
M 160.44 172.5 155.15 167.15 150.33 161.26 140.87 150.96 134.7 143.92 134.46 142.4 135.54 141.14 137.09 141.15 138.16 142.21 141.79 147.29 151.45 159.5 155.76 165.77 162.26 173.47 
M 161.86 173.95 153.19 170.33 146.25 166.93 143.48 165.73 139.23 163.55 132.14 160.35 125.51 156.38 125.17 154.96 126.05 153.76 127.63 153.67 130.32 155.16 137.9 160.03 147.63 165.4 155.59 170.08 162.16 173.39 
M 170.28 146.35 168.54 143.91 167.68 141.03 167.81 138.03 168.9 135.23 170.84 132.94 173.42 131.41 176.35 130.79 179.33 131.16 182.03 132.48 184.15 134.6 185.47 137.3 185.84 140.28 185.22 143.22 183.69 145.8 181.4 147.74 178.6 148.83 175.6 148.95 172.73 148.09 170.28 146.35 
M 182.67 135.66 183.72 137.82 184.02 140.2 183.53 142.55 182.3 144.62 180.46 146.17 178.23 147.04 175.83 147.14 173.53 146.46 171.57 145.06 
M 173.69 142.01 172.99 141.04 172.64 139.89 172.69 138.69 173.13 137.57 173.91 136.65 174.94 136.04 176.11 135.79 177.3 135.94 178.38 136.47 179.23 137.32 179.76 138.4 179.91 139.59 179.66 140.76 179.05 141.79 178.13 142.57 177.01 143.01 175.81 143.06 174.66 142.71 173.69 142.01 
M 173.05 140.11 175.99 143.05 
M 173.83 139.21 177.46 142.83 
M 175.53 139.23 178.53 142.23 
M 174.45 136.47 179.32 141.34 
M 175.9 136.24 179.79 140.14 
M 177.99 136.65 179.76 138.43 
M 139.78 149.79 140.2 150.22 
M 137.74 140.3 141.28 143.84 
M 140.3 139.13 143.94 142.77 
M 142.79 137.89 145.6 140.71 
M 145.13 136.51 148.17 139.54 
M 147.8 135.45 150.03 137.67 
M 150.57 134.48 153.1 137.02 
M 153.24 133.43 155.42 135.61 
M 155.9 132.36 159.04 135.5 
M 158.51 131.24 161 133.73 
M 161.11 130.11 163.93 132.94 
M 163.65 128.92 166.81 132.08 
M 166.19 127.74 169.57 131.11 
M 168.67 126.49 172.04 129.85 
M 171.15 125.24 174.81 128.9 
M 173.73 124.09 176.12 126.48 
M 176.36 122.99 178.39 125.02 
M 179.04 121.94 182.11 125 
M 181.75 120.92 185.46 124.63 
M 184.55 119.99 187.2 122.65 
M 187.4 119.12 190.24 121.95 
M 190.32 118.3 193.08 121.07 
M 193.27 117.53 196.6 120.86 
M 196.32 116.84 198.33 118.86 
M 199.41 116.2 202.53 119.33 
M 202.53 115.6 205.32 118.38 
M 205.7 115.04 209.22 118.56 
M 208.94 114.55 210.97 116.58 
M 212.31 114.2 215.13 117.01 
M 167.95 161.7 169.12 161.88 169.71 162.28 171.23 164.45 
M 158.39 140.29 159.36 138.79 159.37 138.6 159.16 138.58 
M 198.65 158.84 198.42 157.74 198.04 156.93 196.17 154.38 
M 197.43 159.05 196.08 156.04 195.17 154.97 194.63 154.67 
M 184.48 184.81 185.33 184.42 187.04 182.1 189.01 180.97 
M 167.7 140.61 165.97 139.27 164.55 138.75 164.1 138.29 
M 203.49 175.75 202.61 174.05 202.42 173.02 201.28 172.26 199.43 170.19 
M 194.64 170.15 193.75 171.17 193.72 171.54 193.95 171.76 
M 165.83 145.87 166.62 145.89 167.69 145.52 169.08 144.67 
M 198.31 150.48 196.64 151.91 196.29 152.59 196.56 153.05 
M 190.39 164.03 189.51 164.04 188.68 163.68 186.46 161.46 
M 154.9 163.01 157.7 160.81 158.01 160.1 158.21 158.12 158.51 157.57 
M 173.11 128.3 171.41 126.68 169.62 126.01 
M 209.58 163.54 209.9 159.8 209.58 158.57 209.51 157.43 208.82 155.38 208.86 154.86 
M 167.76 139.13 166.19 138.66 165.29 138.75 164.52 138.65 164.15 138.39 
M 195.97 184.36 196 183.61 
M 218.3 146.34 216.43 142.72 215.95 141.37 215.18 140.79 
M 204.68 118.48 205.05 119.08 205.68 120.91 206.05 121.37 206.65 121.64 
M 198.86 164.4 197.54 164.29 196.5 164.61 193.45 166.41 190.82 168.66 
M 182.91 153.62 183.65 152.56 183.71 151.88 183.53 150.45 182.57 147.67 
M 206.24 146.31 201.14 146.98 199.73 147.65 
M 215.39 127.26 215.59 125.69 216.14 124.73 217.45 123.75 218.99 123.31 
M 185.8 129.98 184.87 130.05 183.83 130.56 182.35 131.8 
M 192.76 119.4 192.6 118.48 192.69 117.68 
M 150.58 143.15 148.17 139.81 147.32 139.08 146.68 139.14 145.81 139.76 145.27 140.37 
M 210.78 124.29 212.14 123.16 213.22 122.56 214.22 122.26 214.52 121.83 
M 175.67 162.84 179.12 162.66 179.36 162.84 179.57 163.65 
M 204.73 115.19 206.23 116.86 206.7 118.38 206.6 119.37 
M 206.16 178.45 205.65 176.95 205.71 174.65 205.9 174.28 207 173.61 
M 160.12 150.57 161.2 149.95 162.51 149.74 163.2 149.87 
M 184.72 134.78 185.24 135.88 185.99 136.53 186.6 137.33 
M 184.56 184.83 185.21 184.55 185.69 184.08 186.9 182.25 189.26 180.76 190.07 179.73 
M 192.36 128.65 189.7 128.14 187.01 128.6 
M 171.66 160.33 172.04 157.29 171.31 156.07 170.67 155.58 
M 215.94 133.56 216.48 133.4 
M 205.7 135.07 202.11 134.95 201.44 134.73 200.62 134.28 197.27 131.83 195.65 130.27 
M 206.56 176.69 206.34 175.85 206.4 175.14 207.22 174.05 207.61 173.07 
M 167.89 137.81 165.68 138.52 
M 202.28 168.33 200.58 169.21 200.12 169.2 198.23 168.61 197.19 168.61 196.22 168.89 
M 217.05 158.43 216.39 158.16 215.3 156.74 
M 180.75 128.66 179.39 129.73 178.28 129.92 176.91 129.65 175.62 129.08 173.79 127.97 
M 135.98 162.11 147.48 169.71 152.79 172.76 158.35 175.46 164.13 177.74 175.85 181.82 
M 175.85 181.82 175.85 181.82 
M 218.55 121.51 219.56 122.51 
M 215.38 113.37 221.94 119.92 
M 218.44 111.46 223.72 116.73 
M 221.63 109.67 227.13 115.17 
M 224.9 107.96 231.61 114.68 
M 228.46 106.55 233.61 111.71 
M 232.26 105.38 237.88 111 
M 236.46 104.61 240.27 108.42 
M 241.37 104.55 245.11 108.29 
M 246.2 104.41 250.81 109.02 
M 250.68 103.92 257.55 110.79 
M 255.4 103.66 260.92 109.18 
M 260.17 103.46 264.14 107.43 
M 265.19 103.51 270.04 108.36 
M 271.19 104.54 275.54 108.89 
M 277.27 105.65 283.85 112.23 
M 283.29 106.69 290.36 113.77 
M 290.99 109.43 295.57 114.01 
M 299.12 112.58 305.47 118.93 
M 308.37 116.86 314.23 122.72 
M 318.33 121.84 322.83 126.35 
M 328.41 126.96 332.82 131.36 
M 340.04 133.61 344.84 138.41 
M 214.28 184.38 214.84 185.49 
M 215.86 183.18 216.97 185.4 
M 220.13 183.01 220.68 184.12 
M 222.25 182.91 222.81 184.03 
M 223.83 181.71 224.94 183.93 
M 227.07 183.84 227.62 184.95 
M 234.67 190.35 235.23 191.46 
M 232.92 182.49 235.14 186.93 
M 236.25 189.16 237.36 191.38 
M 241.81 200.28 242.37 201.39 
M 234.51 181.33 237.29 186.89 
M 241.74 195.79 242.85 198.01 
M 218.42 144.8 219.77 147.5 
M 236.69 181.34 238.92 185.79 
M 218.96 141.52 221.58 146.75 
M 235.53 174.67 236.65 176.9 
M 239.43 182.45 239.98 183.57 
M 254.32 207.89 254.52 208.3 
M 222.12 139.15 223.79 142.49 
M 238.56 172.03 239.36 173.62 
M 247.69 190.29 248.81 192.51 
M 256.66 208.22 257.01 208.92 
M 223.21 136.97 225.99 142.53 
M 240.65 171.86 241.55 173.66 
M 248.78 188.11 250.45 191.45 
M 225.41 137.02 227.63 141.46 
M 228.74 143.69 228.79 143.79 
M 215.67 113.19 215.95 113.74 
M 217.61 117.08 218.17 118.19 
M 218.73 119.3 219.28 120.41 
M 220.95 123.75 222.06 125.97 
M 226.51 134.87 228.73 139.31 
M 245.11 172.06 245.41 172.67 
M 220.38 118.27 223.72 124.94 
M 227.05 131.61 227.61 132.72 
M 228.17 133.83 229.83 137.17 
M 222.6 118.34 226.49 126.13 
M 227.6 128.35 228.16 129.46 
M 228.71 130.57 231.49 136.13 
M 233.16 139.47 235.1 143.35 
M 255.39 183.94 256.51 186.16 
M 261.51 196.17 262.62 198.39 
M 223.74 116.29 228.75 126.29 
M 230.97 130.74 235.97 140.75 
M 236.53 141.86 237.71 144.21 
M 249.66 168.12 249.87 168.54 
M 257.1 182.99 257.65 184.1 
M 226.58 117.6 230.47 125.38 
M 231.02 126.5 231.58 127.61 
M 233.8 132.06 238.25 140.95 
M 239.36 143.17 239.93 144.32 
M 250.79 166.03 252.7 169.85 
M 253.81 172.08 254.37 173.19 
M 228.3 116.69 233.86 127.81 
M 236.08 132.26 239.97 140.04 
M 248.86 157.83 254.42 168.95 
M 255.53 171.17 256.65 173.39 
M 272.77 205.63 273.83 207.77 
M 225.91 107.56 226.19 108.12 
M 230.08 115.9 232.3 120.35 
M 232.86 121.46 235.08 125.91 
M 237.86 131.47 241.75 139.25 
M 244.53 144.81 246.8 149.34 
M 250.64 157.04 255.65 167.04 
M 256.2 168.15 257.31 170.38 
M 257.87 171.49 258.43 172.6 
M 260.65 177.05 261.76 179.27 
M 227.72 106.85 228.56 108.51 
M 234.12 119.63 237.45 126.3 
M 239.12 129.64 244.12 139.64 
M 247.46 146.31 248.01 147.42 
M 251.9 155.21 256.91 165.21 
M 259.13 169.66 260.24 171.88 
M 229.54 106.13 230.93 108.91 
M 232.04 111.13 233.71 114.46 
M 236.49 120.02 245.94 138.92 
M 249.83 146.7 250.38 147.82 
M 255.39 157.82 258.17 163.38 
M 263.72 174.5 264.28 175.61 
M 231.44 105.58 235.61 113.92 
M 237.83 118.37 240.06 122.81 
M 240.61 123.92 248.4 139.49 
M 251.17 145.05 253.95 150.61 
M 256.73 156.17 259.51 161.72 
M 264.52 171.73 265.63 173.95 
M 233.38 105.11 238.66 115.67 
M 239.22 116.79 241.44 121.23 
M 243.11 124.57 250.89 140.13 
M 252.56 143.47 256.45 151.25 
M 258.67 155.7 261.45 161.26 
M 265.9 170.15 267.57 173.49 
M 236.16 106.31 243.38 120.77 
M 246.16 126.32 258.95 151.89 
M 260.62 155.23 263.4 160.79 
M 266.73 167.46 269.51 173.02 
M 275.07 184.13 276.18 186.36 
M 237.75 105.16 244.98 119.61 
M 250.54 130.73 259.99 149.63 
M 262.77 155.19 264.99 159.63 
M 268.88 167.41 271.66 172.97 
M 276.67 182.98 277.78 185.2 
M 239.92 105.13 241.59 108.47 
M 243.25 111.8 247.7 120.7 
M 251.04 127.37 252.7 130.7 
M 253.26 131.81 258.82 142.93 
M 259.37 144.04 260.49 146.27 
M 267.16 159.61 267.71 160.72 
M 271.6 168.5 272.16 169.61 
M 288.34 201.98 288.68 202.65 
M 241.8 104.54 243.19 107.32 
M 244.85 110.65 249.86 120.66 
M 253.19 127.33 256.53 134 
M 257.64 136.22 259.31 139.56 
M 262.08 145.12 262.64 146.23 
M 275.43 171.8 275.98 172.91 
M 284.88 190.7 285.43 191.81 
M 243.94 104.48 252 120.6 
M 255.34 127.27 258.67 133.94 
M 259.23 135.06 260.9 138.39 
M 271.46 159.51 272.02 160.63 
M 272.57 161.74 273.68 163.96 
M 277.02 170.63 278.69 173.97 
M 284.8 186.2 287.58 191.76 
M 246.92 106.09 253.59 119.43 
M 254.15 120.55 255.82 123.88 
M 256.93 126.1 263.04 138.33 
M 273.05 158.35 275.27 162.79 
M 278.61 169.46 280.28 172.8 
M 280.83 173.91 281.39 175.02 
M 282.5 177.24 284.72 181.69 
M 286.95 186.14 288.61 189.47 
M 249.18 106.25 255.29 118.48 
M 255.85 119.59 267.52 142.94 
M 280.86 169.62 282.53 172.96 
M 284.2 176.29 285.87 179.63 
M 289.2 186.3 289.76 187.41 
M 290.31 188.52 293.65 195.19 
M 252.61 108.76 255.94 115.43 
M 256.5 116.54 269.28 142.11 
M 269.84 143.22 270.39 144.33 
M 283.18 169.9 287.63 178.8 
M 288.18 179.91 288.74 181.02 
M 291.52 186.58 295.41 194.36 
M 253.81 106.81 269.93 139.05 
M 270.49 140.16 271.04 141.28 
M 273.26 145.72 274.93 149.06 
M 276.6 152.39 277.71 154.62 
M 284.94 169.07 287.72 174.63 
M 294.94 189.08 297.17 193.53 
M 255.57 105.98 270.02 134.89 
M 270.58 136 271.13 137.11 
M 272.24 139.33 273.36 141.56 
M 275.02 144.89 276.69 148.23 
M 278.36 151.56 278.91 152.67 
M 279.47 153.79 281.14 157.12 
M 287.81 170.46 288.92 172.69 
M 297.26 189.36 299.48 193.81 
M 253.44 97.37 254.55 99.59 
M 256.22 102.93 257.88 106.26 
M 258.44 107.37 259 108.48 
M 260.11 110.71 271.22 132.94 
M 274.56 139.61 277.34 145.17 
M 280.12 150.73 281.23 152.95 
M 281.79 154.07 282.9 156.29 
M 284.01 158.51 284.57 159.62 
M 289.57 169.63 290.68 171.85 
M 299.02 188.53 301.24 192.98 
M 254.08 94.31 256.86 99.87 
M 257.42 100.98 273.54 133.22 
M 274.1 134.33 274.65 135.45 
M 275.76 137.67 276.32 138.78 
M 282.43 151.01 285.77 157.68 
M 286.32 158.79 286.88 159.9 
M 301.33 188.81 301.89 189.92 
M 255.01 91.81 264.18 110.16 
M 264.74 111.27 274.74 131.28 
M 275.3 132.39 277.52 136.84 
M 284.19 150.18 285.3 152.4 
M 286.42 154.63 286.97 155.74 
M 256.21 89.87 272.06 121.55 
M 273.72 124.89 278.17 133.78 
M 285.95 149.35 289.29 156.02 
M 304.85 187.15 305.41 188.26 
M 259.92 92.93 268.26 109.61 
M 268.81 110.72 273.26 119.61 
M 276.04 125.17 278.26 129.62 
M 283.27 139.62 286.04 145.18 
M 287.71 148.52 291.6 156.3 
M 258.62 85.98 258.9 86.54 
M 260.01 88.76 264.46 97.66 
M 268.35 105.44 269.46 107.66 
M 270.02 108.77 275.02 118.78 
M 275.57 119.89 278.91 126.56 
M 279.47 127.67 280.02 128.79 
M 283.91 136.57 287.8 144.35 
M 290.58 149.91 291.14 151.02 
M 291.69 152.13 293.92 156.58 
M 297.25 163.25 299.48 167.7 
M 306.15 181.04 307.26 183.26 
M 259.82 84.04 262.88 90.15 
M 264.55 93.49 265.66 95.71 
M 271.22 106.83 281.78 127.95 
M 283.45 131.29 289.56 143.52 
M 293.45 151.3 294.57 153.52 
M 298.46 161.31 301.79 167.98 
M 261.03 82.1 264.09 88.21 
M 264.64 89.32 265.2 90.43 
M 272.98 106 291.88 143.8 
M 294.66 149.36 296.33 152.69 
M 297.99 156.03 298.55 157.14 
M 300.22 160.47 303 166.03 
M 262.23 80.15 267.51 90.71 
M 268.07 91.83 269.18 94.05 
M 270.29 96.27 271.4 98.5 
M 271.96 99.61 273.07 101.83 
M 275.85 107.39 276.96 109.61 
M 277.52 110.73 304.2 164.09 
M 263.43 78.21 272.61 96.55 
M 273.72 98.78 278.72 108.78 
M 279.83 111.01 282.61 116.57 
M 284.28 119.9 286.5 124.35 
M 287.06 125.46 289.84 131.02 
M 290.39 132.13 300.4 152.14 
M 300.96 153.25 301.51 154.36 
M 302.07 155.48 305.96 163.26 
M 313.19 177.71 314.3 179.93 
M 264.64 76.27 266.03 79.05 
M 268.25 83.49 276.03 99.06 
M 277.15 101.28 282.15 111.29 
M 286.04 119.07 287.71 122.4 
M 288.82 124.63 302.72 152.42 
M 305.49 157.98 307.16 161.31 
M 314.94 176.88 316.06 179.1 
M 265.84 74.32 267.23 77.1 
M 270.01 82.66 277.24 97.11 
M 277.79 98.23 280.82 104.27 
M 281.9 106.44 283.85 110.34 
M 291.63 125.9 303.86 150.36 
M 307.19 157.03 309.42 161.48 
M 267.05 72.38 280.07 98.44 
M 284.39 107.06 284.66 107.62 
M 285.22 108.73 285.78 109.84 
M 288.56 115.4 289.67 117.62 
M 291.89 122.07 293 124.29 
M 293.56 125.41 304.12 146.53 
M 304.68 147.64 305.79 149.86 
M 309.12 156.53 310.23 158.76 
M 319.68 177.66 320.24 178.77 
M 268.25 70.44 278.49 90.92 
M 287 107.94 288.39 110.72 
M 290.62 115.17 291.73 117.39 
M 295.06 124.06 305.07 144.07 
M 305.62 145.19 307.29 148.52 
M 311.18 156.3 312.29 158.53 
M 321.19 176.32 321.74 177.43 
M 269.73 69.05 278.38 86.36 
M 289.66 108.9 293.27 116.13 
M 293.82 117.24 294.38 118.35 
M 294.94 119.46 295.49 120.57 
M 296.05 121.68 308.83 147.25 
M 322.73 175.05 323.84 177.27 
M 272.6 70.44 278.16 81.56 
M 278.65 82.55 278.87 82.98 
M 292.36 109.97 294.87 114.97 
M 296.53 118.3 301.54 128.31 
M 302.09 129.42 310.43 146.1 
M 323.21 171.67 323.77 172.78 
M 324.88 175 325.44 176.11 
M 326.55 178.34 327.11 179.45 
M 271.86 64.61 272.14 65.16 
M 272.69 66.27 275.47 71.83 
M 276.03 72.95 278.31 77.51 
M 295.07 111.02 303.68 128.25 
M 304.24 129.36 311.46 143.82 
M 312.02 144.93 313.13 147.15 
M 323.69 168.27 324.25 169.39 
M 328.14 177.17 328.7 178.28 
M 273.06 62.66 278.06 72.65 
M 297.76 112.06 300.26 117.06 
M 301.37 119.28 305.82 128.18 
M 308.04 132.62 314.71 145.96 
M 315.83 148.19 316.38 149.3 
M 274.27 60.72 278.14 68.47 
M 300.5 113.18 301.89 115.96 
M 303.55 119.29 304.66 121.52 
M 305.22 122.63 307.44 127.08 
M 309.67 131.52 311.89 135.97 
M 313 138.19 318.56 149.31 
M 329.68 171.55 330.23 172.66 
M 331.9 175.99 332.78 177.75 
M 275.47 58.78 278.62 65.07 
M 303.28 114.4 303.56 114.95 
M 304.67 117.18 310.23 128.29 
M 310.78 129.41 314.12 136.08 
M 314.68 137.19 318.57 144.97 
M 319.12 146.08 321.35 150.53 
M 333.02 173.88 334.46 176.77 
M 276.67 56.83 278.06 59.61 
M 306.96 117.41 311.97 127.42 
M 313.63 130.75 323.08 149.65 
M 335.31 174.11 336.15 175.78 
M 277.88 54.89 279.42 57.98 
M 309.03 117.19 314.31 127.75 
M 316.53 132.2 326.54 152.21 
M 327.65 154.43 329.32 157.77 
M 334.32 167.77 335.99 171.11 
M 279.08 52.95 280.12 55.03 
M 311.94 118.67 315 124.79 
M 319.45 133.68 320.56 135.9 
M 321.11 137.01 321.67 138.13 
M 324.45 143.69 327.79 150.36 
M 328.34 151.47 331.68 158.14 
M 336.68 168.14 337.23 169.26 
M 280.28 51 280.93 52.29 
M 314.87 120.17 317.37 125.17 
M 321.26 132.95 323.48 137.4 
M 325.71 141.85 327.37 145.18 
M 330.15 150.74 334.04 158.52 
M 335.71 161.86 338.49 167.42 
M 281.49 49.06 281.84 49.76 
M 318.57 123.23 319.13 124.34 
M 320.24 126.56 320.8 127.67 
M 321.35 128.79 325.24 136.57 
M 326.91 139.9 328.02 142.13 
M 332.47 151.02 334.69 155.47 
M 339.14 164.36 340.81 167.7 
M 282.69 47.12 282.85 47.43 
M 324.22 130.17 328.67 139.07 
M 334.78 151.29 336.45 154.63 
M 338.67 159.08 339.78 161.3 
M 340.34 162.41 340.89 163.52 
M 342.01 165.75 342.56 166.86 
M 323.77 124.92 324.88 127.15 
M 325.99 129.37 328.22 133.82 
M 329.88 137.15 331 139.37 
M 337.11 151.6 337.67 152.72 
M 340.45 158.27 341.56 160.5 
M 343.78 164.94 344.89 167.17 
M 326.4 125.84 328.91 130.84 
M 331.68 136.4 332.24 137.51 
M 332.8 138.63 333.35 139.74 
M 333.91 140.85 334.46 141.96 
M 336.69 146.41 337.24 147.52 
M 337.8 148.63 340.58 154.19 
M 342.25 157.53 343.91 160.86 
M 329.42 127.52 331.36 131.41 
M 331.92 132.52 336.92 142.53 
M 338.03 144.75 343.04 154.76 
M 344.15 156.98 346.37 161.43 
M 332.46 129.24 347.02 158.38 
M 335.52 131.03 344.69 149.37 
M 346.83 153.65 347.02 154.03 
M 338.57 132.78 340.52 136.67 
M 341.07 137.78 346.08 147.78 
M 343 137.29 346.82 144.92 
M 344.9 136.73 347.02 140.98 
M 231.26 292.3 230.84 291.7 230.03 291.39 228.83 291.39 227.84 291.7 227.06 292.3 226.88 292.89 227.21 293.8 229.85 295 230.18 295.89 229.91 296.8 229.13 297.39 228.14 297.7 226.94 297.7 226.13 297.39 225.71 296.8 
M 232.16 295.3 235.76 295.3 235.94 294.7 235.82 294.1 235.1 293.5 234.2 293.5 233.51 293.8 232.73 294.39 232.16 295.3 231.98 295.89 232.01 296.8 232.43 297.39 232.94 297.7 233.84 297.7 234.53 297.39 235.31 296.8 
M 239.03 291.39 237.14 297.7 
M 244.1 293.5 242.84 297.7 
M 243.83 294.39 243.41 293.8 242.9 293.5 242 293.5 241.31 293.8 240.53 294.39 239.96 295.3 239.78 295.89 239.81 296.8 240.23 297.39 240.74 297.7 241.64 297.7 242.33 297.39 243.11 296.8 
M 247.13 291.39 245.24 297.7 
M 252.2 293.5 250.94 297.7 
M 251.93 294.39 251.51 293.8 251 293.5 250.1 293.5 249.41 293.8 248.63 294.39 248.06 295.3 247.88 295.89 247.91 296.8 248.33 297.39 248.84 297.7 249.74 297.7 250.43 297.39 251.21 296.8 
M 258.52 291.39 257 296.5 257.02 297.39 257.53 297.7 258.14 297.7 
M 257 293.5 259.1 293.5 
M 261.2 293.5 259.94 297.7 
M 260.65 295.3 261.23 294.39 262.01 293.8 262.7 293.5 263.6 293.5 
M 265.43 291.39 265.64 291.7 266.02 291.39 265.82 291.1 265.43 291.39 
M 265.1 293.5 263.84 297.7 
M 270.52 294.39 270.11 293.8 269.6 293.5 268.7 293.5 268.01 293.8 267.23 294.39 266.65 295.3 266.48 295.89 266.51 296.8 266.93 297.39 267.44 297.7 268.33 297.7 269.02 297.39 269.81 296.8 
M 274.1 293.5 273.4 293.8 272.63 294.39 272.06 295.3 271.88 295.89 271.9 296.8 272.33 297.39 272.83 297.7 273.74 297.7 274.43 297.39 275.2 296.8 275.77 295.89 275.95 295.3 275.93 294.39 275.51 293.8 275 293.5 274.1 293.5 
M 278.6 293.5 277.33 297.7 
M 278.06 295.3 278.63 294.39 279.4 293.8 280.1 293.5 281 293.5 
M 282.5 293.5 281.6 296.5 281.63 297.39 282.14 297.7 283.03 297.7 283.73 297.39 284.89 296.5 
M 285.8 293.5 284.53 297.7 
M 290.93 294.39 290.81 293.8 290 293.5 289.1 293.5 288.11 293.8 287.63 294.39 287.75 295 288.26 295.3 289.66 295.6 290.18 295.89 290.2 296.8 289.73 297.39 288.74 297.7 287.83 297.7 287.02 297.39 286.9 296.8 
M 292.52 297.1 292.13 297.39 292.33 297.7 292.73 297.39 292.52 297.1 
"/></svg>
