<svg xmlns="http://www.w3.org/2000/svg" width="520" height="320"><rect x="0" y="0" width="520" height="320" fill="floralwhite"/><rect x="10" y="10" width="500" height="300" stroke="black" stroke-width="1" fill="none"/><path stroke="black" stroke-width="1" fill="none" stroke-linecap="round" stroke-linejoin="round" d="
M 144.27 123.11 175.77 118.45 196.81 114.03 217.86 110.94 228.38 109.94 249.43 108.81 259.95 108.72 270.48 108.91 281 110.03 312.57 115.11 333.62 119.26 375.71 126.47 417.81 135.28 
M 417.81 170.97 386.24 179.26 365.19 184.53 354.66 186.95 344.14 188.75 333.62 190.24 302.05 194.05 291.52 194.65 286.77 194.7 
M 182.29 192.69 175.77 192.29 165.24 190.28 154.76 187.76 
M 144.36 123.28 144.59 123.06 
M 149.37 126.06 150.33 125.78 151.57 125.07 152.37 124.27 152.37 123.77 151.57 122.96 150.25 122.23 
M 150.77 131.99 151.5 131.26 151.5 130.73 150.65 129.87 149.59 129.26 
M 153.37 123.3 154.12 123.03 155.09 122.31 155.71 121.43 
M 152.69 130.56 153.52 130.27 154.58 129.51 155.27 128.65 155.27 128.12 154.58 127.26 153.52 126.5 152.69 126.2 
M 153.4 137.05 154.41 135.98 154.41 135.44 153.7 134.58 152.59 133.81 151.73 133.51 
M 156.51 127.6 157.42 127.31 158.6 126.55 159.36 125.7 159.36 125.17 158.6 124.32 157.42 123.56 156.51 123.27 
M 155.86 135.05 156.83 134.75 158.07 133.98 158.87 133.11 158.87 132.57 158.07 131.7 156.83 130.93 155.86 130.63 
M 155.14 141.94 156.7 141.09 157.49 140.25 157.49 139.73 156.7 138.88 155.48 138.14 154.52 137.84 
M 160.09 124.42 160.81 124.13 161.74 123.38 162.33 122.53 162.33 122 161.74 121.15 161.15 120.67 
M 159.87 132.12 160.63 131.81 161.59 131.02 162.22 130.12 162.22 129.56 161.59 128.67 160.63 127.87 159.87 127.56 
M 159.17 139.61 159.95 139.32 160.95 138.56 161.59 137.69 161.59 137.16 160.95 136.3 159.95 135.54 159.17 135.25 
M 157.11 146.09 157.87 145.81 158.84 145.1 159.46 144.3 159.46 143.8 158.84 143 157.87 142.3 157.11 142.02 
M 163.48 121.24 164.31 120.96 165.52 120.05 
M 163.22 128.66 164.07 128.36 165.16 127.58 165.87 126.7 165.87 126.15 165.16 125.27 164.07 124.49 163.22 124.19 
M 162.81 136.32 163.69 136.01 164.81 135.23 165.53 134.34 165.53 133.8 164.81 132.91 163.69 132.13 162.81 131.82 
M 161.49 143.34 162.37 143.06 163.5 142.32 164.23 141.49 164.23 140.97 163.5 140.14 162.37 139.4 161.49 139.12 
M 158.83 149.45 159.69 149.17 160.79 148.46 161.5 147.66 161.5 147.16 160.79 146.36 159.69 145.65 158.83 145.37 
M 166.51 125.16 167.2 124.86 168.08 124.09 168.64 123.23 168.64 122.69 168.08 121.82 167.2 121.06 166.51 120.76 
M 166.39 132.95 167.07 132.64 167.95 131.83 168.52 130.92 168.52 130.36 167.95 129.44 167.07 128.64 166.39 128.32 
M 165.83 140.58 166.52 140.28 167.41 139.51 167.99 138.64 167.99 138.1 167.41 137.23 166.52 136.46 165.83 136.16 
M 163.84 147.1 164.55 146.82 165.46 146.11 166.05 145.32 166.05 144.82 165.46 144.02 164.55 143.32 163.84 143.04 
M 160.44 152.68 161.16 152.4 162.07 151.7 162.67 150.9 162.67 150.4 162.07 149.6 161.16 148.89 160.44 148.62 
M 159.39 158.15 159.92 157.37 159.92 156.83 159.01 155.7 
M 156.15 173.13 156.5 172.54 156.5 171.92 156.29 171.57 
M 155.85 182.19 156.19 181.5 156.19 180.77 155.85 180.1 
M 169.68 121.78 170.47 121.49 171.47 120.75 172.12 119.91 172.12 119.39 171.86 119.06 
M 169.5 129.24 170.3 128.93 171.32 128.15 171.99 127.26 171.99 126.71 171.32 125.82 170.3 125.04 169.5 124.73 
M 169.13 136.92 169.92 136.62 170.95 135.83 171.61 134.94 171.61 134.38 170.95 133.49 169.92 132.7 169.13 132.4 
M 167.9 144.06 168.71 143.77 169.75 143.03 170.42 142.19 170.42 141.66 169.75 140.82 168.71 140.08 167.9 139.79 
M 165.34 150.25 166.18 149.97 167.25 149.25 167.95 148.45 167.95 147.95 167.25 147.14 166.18 146.43 165.34 146.15 
M 162.39 156.46 163.26 156.17 164.36 155.43 165.08 154.59 165.08 154.07 164.36 153.24 163.26 152.5 162.39 152.21 
M 160.11 163.56 161 163.25 162.14 162.46 162.87 161.56 162.87 161.01 162.14 160.11 161 159.32 160.11 159.01 
M 158.49 171.4 159.41 171.07 159.98 170.65 
M 159.98 167.25 159.41 166.84 158.49 166.51 
M 157.65 180.09 158.58 179.72 159.98 178.47 
M 159.98 176.25 158.58 175 157.65 174.62 
M 160.43 185.71 159.15 184.4 158.26 183.99 
M 172.66 125.59 173.31 125.29 174.15 124.52 174.69 123.66 174.69 123.12 174.15 122.25 173.31 121.48 172.66 121.18 
M 172.43 133.26 173.08 132.94 173.9 132.14 174.44 131.24 174.44 130.68 173.9 129.77 173.08 128.97 172.43 128.66 
M 171.86 140.91 172.49 140.61 173.31 139.83 173.83 138.95 173.83 138.41 173.31 137.53 172.49 136.75 171.86 136.45 
M 170.08 147.65 170.74 147.37 171.58 146.65 172.12 145.84 172.12 145.33 171.58 144.52 170.74 143.8 170.08 143.52 
M 167.01 153.55 167.71 153.27 168.62 152.56 169.2 151.74 169.2 151.24 168.62 150.43 167.71 149.71 167.01 149.43 
M 164.42 160.31 165.17 160.01 166.12 159.24 166.73 158.36 166.73 157.82 166.12 156.95 165.17 156.18 164.42 155.88 
M 165.06 165.25 164.44 164.35 163.42 163.53 162.62 163.2 
M 160.98 185.3 161.8 184.91 162.85 183.91 163.23 183.28 
M 175.47 121.96 176.19 121.66 177.12 120.88 177.71 119.99 177.71 119.44 176.74 118.24 
M 175.46 129.49 176.22 129.18 177.2 128.39 177.83 127.5 177.83 126.95 177.2 126.05 176.22 125.26 175.46 124.95 
M 175.01 137.08 175.77 136.78 176.74 135.99 177.36 135.1 177.36 134.55 176.74 133.66 175.77 132.88 175.01 132.57 
M 173.84 144.3 174.6 144.01 175.57 143.26 176.2 142.4 176.2 141.88 175.57 141.02 174.6 140.27 173.84 139.98 
M 171.59 150.83 172.4 150.54 173.43 149.81 174.1 148.98 174.1 148.47 173.43 147.64 172.4 146.91 171.59 146.63 
M 169 157.41 169.87 157.11 170.98 156.35 171.7 155.49 171.7 154.95 170.98 154.09 169.87 153.33 169 153.03 
M 167.07 164.88 168 164.56 169.2 163.74 169.98 162.81 169.98 162.23 169.2 161.3 168 160.48 167.07 160.16 
M 167.72 187.2 166.25 185.87 165.29 185.47 
M 177.96 118.1 178.29 117.9 
M 178.49 125.79 179.11 125.48 179.9 124.68 180.4 123.77 180.4 123.21 179.9 122.3 179.11 121.5 178.49 121.19 
M 178.25 133.33 178.88 133.02 179.69 132.23 180.21 131.33 180.21 130.78 179.69 129.88 178.88 129.09 178.25 128.78 
M 177.52 140.84 178.13 140.54 178.91 139.76 179.41 138.88 179.41 138.34 178.91 137.46 178.13 136.69 177.52 136.39 
M 175.91 147.82 176.54 147.53 177.34 146.79 177.86 145.95 177.86 145.43 177.34 144.59 176.54 143.85 175.91 143.56 
M 173.38 154.28 174.07 153.99 174.96 153.24 175.53 152.4 175.53 151.88 174.96 151.03 174.07 150.29 173.38 150 
M 171.2 161.48 171.95 161.16 172.91 160.35 173.53 159.43 173.53 158.87 172.91 157.95 171.95 157.14 171.2 156.82 
M 180.65 121.69 181.32 121.34 182.17 120.47 182.72 119.48 182.72 118.87 182.17 117.88 181.51 117.21 
M 181.19 129.58 181.92 129.26 182.87 128.44 183.48 127.51 183.48 126.94 182.87 126.01 181.92 125.19 181.19 124.87 
M 180.71 137.05 181.46 136.74 182.41 135.96 183.02 135.07 183.02 134.52 182.41 133.64 181.46 132.85 180.71 132.55 
M 179.53 144.3 180.27 144 181.23 143.24 181.84 142.37 181.84 141.84 181.23 140.97 180.27 140.21 179.53 139.91 
M 177.65 151.25 178.45 150.95 179.47 150.19 180.12 149.33 180.12 148.8 179.47 147.94 178.45 147.18 177.65 146.88 
M 175.59 158.39 176.46 158.07 177.58 157.27 178.29 156.36 178.29 155.8 177.58 154.89 176.46 154.09 175.59 153.78 
M 177.21 163.68 176.42 162.67 175.19 161.8 174.23 161.45 
M 183.99 125.83 184.58 125.48 185.33 124.59 185.82 123.58 185.82 122.96 185.33 121.95 184.58 121.06 183.99 120.71 
M 184.01 133.38 184.64 133.07 185.44 132.27 185.96 131.37 185.96 130.81 185.44 129.91 184.64 129.12 184.01 128.81 
M 183.07 140.66 183.68 140.35 184.46 139.58 184.97 138.71 184.97 138.17 184.46 137.29 183.68 136.52 183.07 136.22 
M 181.62 147.89 182.26 147.59 183.06 146.82 183.59 145.95 183.59 145.41 183.06 144.54 182.26 143.77 181.62 143.47 
M 179.7 155 180.4 154.69 181.29 153.91 181.87 153.02 181.87 152.47 181.29 151.58 180.4 150.79 179.7 150.49 
M 178.07 162.79 178.83 162.45 179.81 161.58 180.44 160.6 180.44 160 179.81 159.02 178.83 158.15 178.07 157.81 
M 185.41 121.08 186.06 120.69 186.88 119.69 187.42 118.56 187.42 117.85 186.88 116.72 186.41 116.15 
M 186.78 129.62 187.51 129.27 188.44 128.4 189.05 127.4 189.05 126.79 188.44 125.8 187.51 124.92 186.78 124.58 
M 186.42 137.06 187.17 136.75 188.14 135.96 188.76 135.06 188.76 134.51 188.14 133.61 187.17 132.82 186.42 132.51 
M 185.25 144.34 186.01 144.04 186.99 143.26 187.62 142.38 187.62 141.83 186.99 140.95 186.01 140.17 185.25 139.87 
M 183.74 151.72 184.55 151.41 185.59 150.61 186.26 149.71 186.26 149.15 185.59 148.25 184.55 147.46 183.74 147.15 
M 182.23 159.45 183.12 159.12 184.25 158.27 184.98 157.31 184.98 156.71 184.25 155.75 183.12 154.9 182.23 154.57 
M 182.3 163.13 181.47 162.82 
M 189.31 125.74 189.9 125.35 190.64 124.35 191.13 123.22 191.13 122.52 190.64 121.38 189.9 120.38 189.31 119.99 
M 189.81 133.52 190.44 133.2 191.25 132.38 191.77 131.45 191.77 130.88 191.25 129.95 190.44 129.14 189.81 128.82 
M 188.8 140.67 189.43 140.37 190.24 139.6 190.77 138.72 190.77 138.17 190.24 137.29 189.43 136.52 188.8 136.21 
M 187.53 148.15 188.19 147.84 189.03 147.04 189.57 146.14 189.57 145.58 189.03 144.68 188.19 143.89 187.53 143.58 
M 186.74 162.96 187.44 161.87 187.44 161.22 186.8 160.18 185.81 159.27 185.04 158.91 
M 190.27 120.52 190.95 120.09 191.82 118.98 192.38 117.73 192.38 116.96 191.82 115.71 191.37 115.14 
M 192.36 129.64 193.09 129.27 194.03 128.34 194.64 127.28 194.64 126.63 194.03 125.57 193.09 124.64 192.36 124.27 
M 191.19 144.6 191.97 144.29 192.96 143.5 193.61 142.59 193.61 142.04 192.96 141.13 191.97 140.34 191.19 140.03 
M 190 152.35 190.83 152.03 191.89 151.2 192.58 150.26 192.58 149.68 191.89 148.74 190.83 147.91 190 147.59 
M 194.7 125.6 195.31 125.18 196.08 124.11 196.57 122.91 196.57 122.16 196.08 120.95 195.31 119.88 194.7 119.47 
M 194.74 140.94 195.39 140.63 196.21 139.84 196.74 138.95 196.74 138.39 196.21 137.5 195.39 136.7 194.74 136.4 
M 192.69 156.79 193.41 156.45 194.34 155.58 194.94 154.59 194.94 153.98 194.34 153 193.41 152.13 192.69 151.79 
M 195.66 120.29 196.39 119.85 197.33 118.7 197.93 117.4 197.93 116.6 197.33 115.3 196.33 114.12 
M 198.02 129.64 198.76 129.27 199.71 128.31 200.33 127.22 200.33 126.55 199.71 125.46 198.76 124.5 198.02 124.13 
M 198.08 137.37 198.84 137.05 199.81 136.22 200.43 135.29 200.43 134.71 199.81 133.77 198.84 132.95 198.08 132.62 
M 196.63 115.03 197.27 114.55 197.72 113.89 
M 200.38 125.55 201 125.14 201.8 124.07 202.32 122.86 202.32 122.11 201.8 120.9 201 119.83 200.38 119.42 
M 201.48 120.37 202.24 119.93 203.22 118.79 203.85 117.51 203.85 116.71 203.22 115.42 202.24 114.28 201.48 113.84 
M 203.86 137.46 204.62 137.14 205.59 136.3 206.21 135.35 206.21 134.77 205.59 133.82 204.62 132.98 203.86 132.66 
M 204.87 161.07 205.25 160.49 205.25 159.82 204.53 158.75 203.42 157.8 202.54 157.43 
M 202.75 115.36 203.39 114.89 204.22 113.68 204.54 112.85 
M 206.18 125.56 206.8 125.15 207.6 124.11 208.11 122.92 208.11 122.19 207.6 121.01 206.8 119.97 206.18 119.56 
M 207.31 120.44 208.04 120 208.98 118.88 209.58 117.61 209.58 116.82 208.98 115.54 208.04 114.42 207.31 113.98 
M 209.48 129.65 210.22 129.27 211.17 128.32 211.78 127.24 211.78 126.57 211.17 125.5 210.22 124.54 209.48 124.17 
M 209.13 145.59 209.91 145.25 210.91 144.38 211.56 143.4 211.56 142.79 210.91 141.8 209.91 140.93 209.13 140.59 
M 208.96 154.43 209.77 154.07 210.8 153.14 211.47 152.08 211.47 151.43 210.8 150.38 209.77 149.44 208.96 149.08 
M 211.61 160.92 211.61 160.59 210.93 159.5 209.86 158.54 209.03 158.16 
M 212.67 120.15 213.33 119.7 214.17 118.55 214.72 117.25 214.72 116.44 214.17 115.14 213.33 113.98 212.67 113.54 
M 215.06 129.58 215.77 129.19 216.67 128.21 217.26 127.1 217.26 126.42 216.67 125.31 215.77 124.33 215.06 123.95 
M 215.49 137.74 216.24 137.4 217.21 136.53 217.83 135.54 217.83 134.93 217.21 133.94 216.24 133.07 215.49 132.73 
M 213.29 114.61 213.78 114.12 214.41 112.86 214.82 111.37 
M 218.52 133.88 219.12 133.52 219.9 132.61 220.39 131.58 220.39 130.94 219.9 129.91 219.12 129 218.52 128.65 
M 218.02 150.39 218.69 150.03 219.54 149.11 220.08 148.07 220.08 147.42 219.54 146.38 218.69 145.46 218.02 145.11 
M 218.2 159.67 218.85 159.3 219.69 158.34 220.23 157.25 220.23 156.57 219.69 155.49 218.85 154.52 218.2 154.15 
M 217.17 119.17 217.76 118.69 218.51 117.45 219 116.06 219 115.19 218.51 113.79 217.76 112.56 217.17 112.08 
M 221.52 124.22 221.99 123.75 222.6 122.53 222.99 121.15 222.99 120.3 222.6 118.92 221.99 117.7 221.52 117.23 
M 223.92 133.8 224.47 133.41 225.18 132.41 225.64 131.28 225.64 130.58 225.18 129.45 224.47 128.45 223.92 128.06 
M 224.11 150.74 224.76 150.39 225.6 149.47 226.14 148.43 226.14 147.79 225.6 146.75 224.76 145.83 224.11 145.47 
M 220.56 117.17 221.12 116.64 221.83 115.29 222.28 113.76 222.28 112.81 221.83 111.28 221.47 110.6 
M 224.72 128.37 225.31 127.91 226.07 126.73 226.56 125.39 226.56 124.56 226.07 123.22 225.31 122.04 224.72 121.57 
M 227.06 146.52 227.8 146.15 228.75 145.23 229.36 144.18 229.36 143.53 228.75 142.48 227.8 141.55 227.06 141.19 
M 227.06 155.38 227.83 155.02 228.8 154.08 229.43 153.02 229.43 152.37 228.8 151.31 227.83 150.37 227.06 150.01 
M 228.6 133.16 229.09 132.72 229.72 131.58 230.13 130.29 230.13 129.5 229.72 128.21 229.09 127.07 228.6 126.63 
M 229.86 142.21 230.43 141.84 231.16 140.87 231.63 139.78 231.63 139.11 231.16 138.01 230.43 137.05 229.86 136.67 
M 230.01 150.96 230.63 150.59 231.42 149.66 231.93 148.61 231.93 147.96 231.42 146.9 230.63 145.97 230.01 145.61 
M 231.49 158.52 231.95 157.59 231.95 156.93 231.43 155.86 230.62 154.91 229.99 154.54 
M 222.93 114.12 223.48 113.55 224.19 112.09 224.65 110.29 
M 228.24 126.6 228.8 126.08 229.51 124.75 229.96 123.23 229.96 122.3 229.51 120.79 228.8 119.45 228.24 118.93 
M 231.37 137.15 231.98 136.72 232.75 135.6 233.25 134.34 233.25 133.56 232.75 132.29 231.98 131.18 231.37 130.74 
M 232.51 146.41 233.19 146.02 234.06 145.04 234.62 143.92 234.62 143.23 234.06 142.12 233.19 141.13 232.51 140.75 
M 232.8 155.44 233.53 155.07 234.46 154.12 235.06 153.04 235.06 152.37 234.46 151.29 233.53 150.34 232.8 149.97 
M 227.19 119.33 227.64 118.73 228.23 117.2 228.6 115.47 228.6 114.4 228.23 112.67 227.64 111.15 227.19 110.55 
M 232.33 131.62 232.78 131.11 233.35 129.82 233.73 128.35 233.73 127.44 233.35 125.97 232.78 124.67 232.33 124.16 
M 234.69 141.62 235.2 141.21 235.85 140.14 236.27 138.93 236.27 138.18 235.85 136.98 235.2 135.91 234.69 135.49 
M 235.48 150.84 236.05 150.46 236.78 149.48 237.25 148.37 237.25 147.69 236.78 146.58 236.05 145.6 235.48 145.22 
M 237.31 158.23 237.61 157.58 237.61 156.91 237.1 155.83 236.32 154.87 235.71 154.49 
M 231 124 231.54 123.43 232.23 121.96 232.68 120.31 232.68 119.28 232.23 117.63 231.54 116.16 231 115.59 
M 235.26 135.69 235.82 135.21 236.54 133.96 237 132.55 237 131.68 236.54 130.26 235.82 129.02 235.26 128.53 
M 237.34 145.77 237.96 145.35 238.76 144.28 239.27 143.06 239.27 142.31 238.76 141.09 237.96 140.02 237.34 139.6 
M 238.22 155.28 238.91 154.89 239.8 153.89 240.37 152.76 240.37 152.06 239.8 150.93 238.91 149.92 238.22 149.53 
M 229.21 115.81 229.66 115.19 230.24 113.59 230.61 111.79 230.44 109.82 
M 235.28 129.23 235.73 128.67 236.29 127.24 236.65 125.62 236.65 124.62 236.29 123 235.73 121.56 235.28 121.01 
M 238.75 140.3 239.21 139.84 239.81 138.65 240.19 137.3 240.19 136.47 239.81 135.12 239.21 133.93 238.75 133.47 
M 240.45 150.33 240.97 149.92 241.65 148.85 242.08 147.65 242.08 146.9 241.65 145.7 240.97 144.63 240.45 144.22 
M 242.83 158.08 243.1 157.43 243.1 156.73 242.62 155.6 241.86 154.6 241.26 154.2 
M 233.54 120.96 234.07 120.37 234.75 118.85 235.19 117.13 235.19 116.06 234.75 114.35 234.07 112.83 233.54 112.24 
M 238.55 133.57 239.09 133.04 239.78 131.68 240.22 130.15 240.22 129.2 239.78 127.66 239.09 126.3 238.55 125.77 
M 241.6 144.61 242.17 144.15 242.91 142.97 243.39 141.63 243.39 140.8 242.91 139.46 242.17 138.28 241.6 137.81 
M 243.31 154.86 243.96 154.44 244.79 153.36 245.32 152.14 245.32 151.39 244.79 150.17 243.96 149.09 243.31 148.67 
M 231.73 112.46 232.17 111.86 232.88 109.67 
M 237.92 126.33 238.36 125.74 238.93 124.24 239.29 122.55 239.29 121.5 238.93 119.8 238.36 118.31 237.92 117.72 
M 242.25 138.42 242.7 137.91 243.28 136.6 243.64 135.12 243.64 134.2 243.28 132.72 242.7 131.42 242.25 130.91 
M 244.93 149.4 245.42 148.94 246.04 147.77 246.45 146.44 246.45 145.62 246.04 144.29 245.42 143.12 244.93 142.66 
M 247.88 158.18 248.31 157.05 248.31 156.3 247.85 155.08 247.14 154.01 246.58 153.59 
M 236.32 117.92 236.86 117.34 237.55 115.85 237.99 114.17 237.99 113.13 237.55 111.45 236.86 109.97 236.38 109.45 
M 241.55 131.02 242.08 130.47 242.77 129.05 243.21 127.44 243.21 126.44 242.77 124.83 242.08 123.41 241.55 122.86 
M 245.38 142.97 245.94 142.47 246.65 141.18 247.11 139.72 247.11 138.82 246.65 137.36 245.94 136.08 245.38 135.58 
M 247.95 154.06 248.56 153.6 249.34 152.43 249.84 151.1 249.84 150.27 249.34 148.94 248.56 147.77 247.95 147.31 
M 235.08 109.67 235.2 109.52 
M 240.56 123.21 241.01 122.63 241.57 121.14 241.94 119.46 241.94 118.42 241.57 116.74 241.01 115.25 240.56 114.67 
M 245.46 136.14 245.91 135.6 246.48 134.2 246.85 132.63 246.85 131.65 246.48 130.07 245.91 128.68 245.46 128.14 
M 248.88 147.91 249.35 147.42 249.95 146.14 250.33 144.7 250.33 143.81 249.95 142.37 249.35 141.09 248.88 140.6 
M 252.12 158.34 252.59 157.52 253.01 156.19 253.01 155.36 252.59 154.03 251.92 152.85 251.4 152.39 
M 239.64 115.24 240.19 114.69 240.91 113.3 241.37 111.73 241.37 110.75 240.92 109.2 
M 244.65 128.44 245.19 127.88 245.88 126.44 246.33 124.81 246.33 123.8 245.88 122.18 245.19 120.74 244.65 120.18 
M 248.98 141.05 249.54 140.52 250.25 139.16 250.71 137.62 250.71 136.66 250.25 135.12 249.54 133.76 248.98 133.23 
M 252.21 152.86 252.8 152.36 253.56 151.1 254.05 149.66 254.05 148.77 253.56 147.34 252.8 146.07 252.21 145.57 
M 255.16 157.82 254.63 157.48 
M 243.68 120.46 244.14 119.9 244.72 118.46 245.1 116.83 245.1 115.83 244.72 114.2 244.14 112.76 243.68 112.2 
M 248.88 133.96 249.34 133.4 249.94 131.96 250.32 130.33 250.32 129.32 249.94 127.69 249.34 126.26 248.88 125.69 
M 252.7 146.19 253.18 145.67 253.79 144.33 254.19 142.81 254.19 141.87 253.79 140.36 253.18 139.02 252.7 138.5 
M 256.35 157.69 257.02 156.4 257.44 154.94 257.44 154.04 257.02 152.59 256.36 151.31 255.85 150.8 
M 243.58 113.21 244.18 112.7 244.93 111.39 245.42 109.92 245.42 108.99 
M 248.3 126.36 248.88 125.8 249.63 124.36 250.11 122.74 250.11 121.73 249.63 120.1 248.88 118.66 248.3 118.1 
M 252.91 139.38 253.51 138.83 254.28 137.43 254.78 135.84 254.78 134.85 254.28 133.26 253.51 131.86 252.91 131.31 
M 256.54 151.66 257.17 151.14 257.97 149.8 258.49 148.29 258.49 147.35 257.97 145.83 257.17 144.49 256.54 143.97 
M 260.77 157.6 260.37 157.05 259.68 156.58 
M 247.61 118.58 248.11 118.03 248.76 116.62 249.17 115.02 249.17 114.04 248.76 112.44 248.11 111.04 247.61 110.49 
M 253.02 132.46 253.54 131.88 254.21 130.42 254.64 128.76 254.64 127.73 254.21 126.07 253.54 124.6 253.02 124.03 
M 257.05 144.92 257.59 144.38 258.28 143.01 258.73 141.45 258.73 140.49 258.28 138.93 257.59 137.56 257.05 137.02 
M 260.55 157.36 261.11 156.83 261.84 155.48 262.3 153.94 262.3 152.99 261.84 151.45 261.11 150.09 260.55 149.57 
M 248.11 111.94 248.74 111.44 249.55 110.16 250.04 108.8 
M 252.8 125.18 253.44 124.61 254.26 123.16 254.78 121.51 254.78 120.5 254.26 118.85 253.44 117.4 252.8 116.83 
M 257.65 138.49 258.32 137.93 259.18 136.49 259.74 134.86 259.74 133.86 259.18 132.23 258.32 130.79 257.65 130.23 
M 261.53 151.05 262.24 150.52 263.15 149.14 263.73 147.57 263.73 146.61 263.15 145.05 262.24 143.67 261.53 143.13 
M 266.74 157.86 265.8 156.6 265.06 156.11 
M 252.44 117.74 252.98 117.18 253.68 115.75 254.13 114.13 254.13 113.13 253.68 111.51 252.98 110.08 252.44 109.52 
M 258.12 131.93 258.68 131.35 259.41 129.85 259.88 128.14 259.88 127.09 259.41 125.39 258.68 123.89 258.12 123.3 
M 262.41 144.65 263.02 144.1 263.81 142.7 264.31 141.1 264.31 140.12 263.81 138.53 263.02 137.12 262.41 136.57 
M 266.13 157.29 266.77 156.75 267.59 155.37 268.12 153.8 268.12 152.84 267.59 151.27 266.77 149.89 266.13 149.35 
M 253.03 111.16 253.7 110.66 254.56 109.37 254.79 108.76 
M 257.85 124.6 258.53 124.02 259.4 122.54 259.97 120.86 259.97 119.82 259.4 118.14 258.53 116.65 257.85 116.07 
M 263.04 138.29 263.77 137.71 264.7 136.23 265.3 134.55 265.3 133.51 264.7 131.83 263.77 130.35 263.04 129.77 
M 267.29 151.17 268.07 150.62 269.07 149.21 269.72 147.61 269.72 146.63 269.07 145.03 268.07 143.62 267.29 143.07 
M 257.47 117.09 258.04 116.52 258.77 115.08 259.24 113.44 259.24 112.43 258.77 110.8 258.04 109.35 257.47 108.79 
M 263.38 131.63 263.97 131.02 264.72 129.46 265.21 127.7 265.21 126.61 264.72 124.84 263.97 123.29 263.38 122.68 
M 268.26 144.95 268.92 144.38 269.76 142.91 270.31 141.25 270.31 140.22 269.76 138.56 268.92 137.09 268.26 136.51 
M 258.32 110.72 259.06 110.21 260.09 108.72 
M 263.17 124.28 263.91 123.69 264.85 122.17 265.46 120.46 265.46 119.4 264.85 117.68 263.91 116.17 263.17 115.58 
M 268.77 138.47 269.56 137.87 270.56 136.32 271.21 134.58 271.21 133.49 270.56 131.74 269.56 130.2 268.77 129.6 
M 273.51 151.75 274.35 151.19 275.42 149.75 276.11 148.12 276.11 147.12 275.42 145.49 274.35 144.05 273.51 143.49 
M 262.89 116.77 263.54 116.21 264.36 114.77 264.9 113.14 264.9 112.13 264.36 110.51 263.54 109.07 263.21 108.78 
M 268.93 131.62 269.59 130.99 270.42 129.38 270.96 127.55 270.96 126.42 270.42 124.59 269.59 122.98 268.93 122.35 
M 264.32 110.96 265.18 110.47 266.46 108.84 
M 269.11 124.54 269.96 123.94 271.05 122.41 271.75 120.68 271.75 119.61 271.05 117.87 269.96 116.35 269.11 115.75 
M 275 139.1 275.87 138.48 276.98 136.89 277.7 135.1 277.7 133.99 276.98 132.19 275.87 130.61 275 129.99 
M 269.28 117.4 270.06 116.85 271.06 115.42 271.7 113.8 271.7 112.8 271.06 111.18 270.06 109.76 269.28 109.2 
M 275.31 132.35 276.08 131.71 277.06 130.07 277.7 128.22 277.7 127.07 277.06 125.22 276.08 123.58 275.31 122.94 
M 281.25 146.74 282.01 146.14 282.99 144.58 283.63 142.82 283.63 141.73 282.99 139.97 282.01 138.42 281.25 137.81 
M 271.37 112.29 272.38 111.8 273.67 110.52 274.35 109.32 
M 286.8 153.46 287.69 152.92 288.84 151.53 289.58 149.96 289.58 148.98 288.84 147.41 287.69 146.02 286.8 145.48 
M 276.96 119.34 277.87 118.78 279.05 117.36 279.81 115.76 279.81 114.76 279.05 113.15 277.87 111.74 276.96 111.18 
M 282.81 134.01 283.7 133.39 284.83 131.79 285.57 129.98 285.57 128.86 284.83 127.04 283.7 125.44 282.81 124.82 
M 279.29 114.6 280.38 114.09 281.76 112.77 282.66 111.29 282.62 110.31 
M 284.08 127.98 285.2 127.39 286.63 125.9 287.55 124.2 287.55 123.15 286.63 121.46 285.2 119.96 284.08 119.38 
M 289.49 141.88 290.52 141.3 291.84 139.8 292.69 138.12 292.69 137.07 291.84 135.38 290.52 133.89 289.49 133.31 
M 285.49 122.23 286.47 121.67 287.72 120.22 288.53 118.59 288.53 117.57 287.72 115.94 286.47 114.49 285.49 113.93 
M 287.34 117.2 288.4 116.65 289.76 115.25 290.63 113.66 290.63 112.67 290.02 111.57 
M 292.47 130.59 293.59 130.01 295.03 128.54 295.95 126.87 295.95 125.83 295.03 124.16 293.59 122.69 292.47 122.11 
M 300.31 154.9 301.17 154.44 302.28 153.27 302.99 151.95 302.99 151.13 302.28 149.8 301.17 148.63 300.31 148.18 
M 288.56 111.7 288.99 111.39 
M 299.29 138.56 300.18 138 301.31 136.58 302.05 134.96 302.05 133.96 301.31 132.35 300.18 130.92 299.29 130.37 
M 294.93 119.43 295.9 118.83 297.14 117.3 297.94 115.57 297.94 114.5 297.09 112.7 
M 300.51 132.87 301.54 132.3 302.86 130.84 303.7 129.19 303.7 128.16 302.86 126.51 301.54 125.05 300.51 124.48 
M 295.22 113.2 295.95 112.52 
M 301.92 127.58 302.74 126.97 303.79 125.4 304.47 123.62 304.47 122.52 303.79 120.75 302.74 119.18 301.92 118.57 
M 309.43 150.77 310.12 150.34 311 149.23 311.57 147.97 311.57 147.19 311 145.93 310.12 144.81 309.43 144.38 
M 311.06 159.15 311.52 158.62 312.03 157.58 312.03 156.93 311.52 155.88 310.73 154.96 310.11 154.6 
M 301.82 120.88 302.67 120.24 303.77 118.62 304.47 116.77 304.47 115.63 303.74 113.74 
M 307.72 134.33 308.6 133.76 309.73 132.31 310.47 130.67 310.47 129.65 309.73 128.01 308.6 126.56 307.72 125.99 
M 311.28 145.67 312.11 145.2 313.18 144 313.86 142.64 313.86 141.8 313.18 140.44 312.11 139.24 311.28 138.77 
M 312.69 155.33 313.46 154.95 314.45 153.95 315.08 152.82 315.08 152.13 314.45 151 313.46 150.01 312.69 149.62 
M 313.26 159.26 312.19 158.62 
M 301.37 113.96 301.85 113.45 
M 308.76 128.78 309.44 128.16 310.31 126.56 310.87 124.75 310.87 123.63 310.31 121.82 309.44 120.22 308.76 119.59 
M 313.38 140.83 314.05 140.32 314.9 139.03 315.45 137.57 315.45 136.66 314.9 135.2 314.05 133.91 313.38 133.41 
M 315.49 150.95 316.13 150.54 316.95 149.48 317.47 148.28 317.47 147.54 316.95 146.34 316.13 145.29 315.49 144.88 
M 316.45 159.27 317.15 158.47 317.66 157.47 317.66 156.85 317.15 155.84 316.36 154.96 315.74 154.61 
M 307.89 121.32 308.63 120.67 309.58 119.01 310.19 117.13 310.19 115.97 309.77 114.68 
M 313.88 134.75 314.61 134.19 315.56 132.74 316.16 131.1 316.16 130.09 315.56 128.45 314.61 127.01 313.88 126.44 
M 317.27 145.87 318.01 145.41 318.95 144.23 319.56 142.9 319.56 142.07 318.95 140.74 318.01 139.56 317.27 139.1 
M 318.47 155.33 319.22 154.95 320.17 153.97 320.79 152.87 320.79 152.19 320.17 151.09 319.22 150.11 318.47 149.73 
M 319.05 159.31 318.53 158.85 317.79 158.52 
M 314.36 128.65 314.91 128.03 315.61 126.43 316.06 124.63 316.06 123.51 315.61 121.7 314.91 120.11 314.36 119.49 
M 319.01 140.75 319.57 140.24 320.28 138.95 320.75 137.48 320.75 136.57 320.28 135.1 319.57 133.8 319.01 133.29 
M 321.19 150.95 321.79 150.53 322.56 149.47 323.05 148.27 323.05 147.52 322.56 146.32 321.79 145.25 321.19 144.84 
M 321.72 159.57 322.09 159.36 322.89 158.47 323.41 157.47 323.41 156.85 322.89 155.84 322.09 154.95 321.47 154.61 
M 313.08 120.59 313.73 119.97 314.56 118.38 315.09 116.57 315.09 115.59 
M 318.84 134 319.45 133.43 320.23 131.98 320.74 130.34 320.74 129.32 320.23 127.68 319.45 126.23 318.84 125.67 
M 322.54 145.54 323.2 145.06 324.04 143.84 324.58 142.46 324.58 141.61 324.04 140.23 323.2 139.01 322.54 138.54 
M 324.11 155.32 324.83 154.93 325.75 153.93 326.35 152.79 326.35 152.09 325.75 150.95 324.83 149.95 324.11 149.56 
M 325.62 160.21 325.31 159.75 324.34 158.9 323.58 158.57 
M 317.02 188.43 316.36 187.86 315.62 187.55 
M 318.52 126.91 318.98 126.31 319.57 124.77 319.95 123.04 319.95 121.96 319.57 120.22 318.98 118.68 318.52 118.08 
M 323.46 139.69 323.93 139.15 324.54 137.78 324.93 136.22 324.93 135.26 324.54 133.71 323.93 132.34 323.46 131.8 
M 326.51 150.78 327.07 150.33 327.77 149.19 328.23 147.89 328.23 147.09 327.77 145.79 327.07 144.65 326.51 144.2 
M 327.26 159.87 327.89 159.51 328.69 158.59 329.21 157.55 329.21 156.91 328.69 155.87 327.89 154.95 327.26 154.59 
M 319.24 188.2 319.66 187.98 320.4 187.18 320.88 186.28 320.79 185.55 
M 317.41 118.74 318 118.18 318.9 116.3 
M 322.53 131.98 323.08 131.41 323.78 129.96 324.23 128.31 324.23 127.29 323.78 125.64 323.08 124.19 322.53 123.62 
M 326.98 144.56 327.57 144.04 328.33 142.71 328.82 141.21 328.82 140.28 328.33 138.78 327.57 137.45 326.98 136.93 
M 329.52 155.26 330.21 154.83 331.09 153.74 331.67 152.51 331.67 151.75 331.09 150.51 330.21 149.42 329.52 149 
M 330.96 162.7 331.87 161.48 331.87 160.87 331.23 159.88 330.24 159.01 329.47 158.66 
M 322.28 187.9 321.32 187.39 
M 321.49 123.82 321.93 123.26 322.49 121.84 322.86 120.24 322.86 119.24 322.21 116.93 
M 326.66 137.49 327.1 136.91 327.67 135.42 328.04 133.74 328.04 132.69 327.67 131.01 327.1 129.52 326.66 128.94 
M 331.27 150.27 331.77 149.76 332.42 148.45 332.84 146.98 332.84 146.06 332.42 144.59 331.77 143.28 331.27 142.77 
M 333.03 160.12 333.64 159.73 334.44 158.74 334.95 157.62 334.95 156.92 334.44 155.8 333.64 154.81 333.03 154.42 
M 332.2 163.17 331.84 163 
M 325.09 187.6 325.79 186.85 326.29 185.89 326.29 185.3 325.6 184.14 
M 325.36 129.06 325.9 128.5 326.58 127.05 327.02 125.41 327.02 124.4 326.58 122.76 325.9 121.31 325.36 120.74 
M 330.66 142.93 331.22 142.35 331.94 140.88 332.4 139.21 332.4 138.18 331.94 136.51 331.22 135.04 330.66 134.46 
M 334.6 155.01 335.26 154.53 336.11 153.31 336.66 151.92 336.66 151.06 336.11 149.67 335.26 148.45 334.6 147.97 
M 336.84 163.03 337.77 161.69 337.77 161.04 337.14 159.99 336.15 159.06 335.39 158.7 
M 328.21 184.29 328.99 183.97 329.85 183.26 
M 324.1 120.31 324.54 119.81 325.35 117.56 
M 329.21 134.63 329.66 134 330.22 132.41 330.59 130.6 330.59 129.48 330.22 127.67 329.66 126.07 329.21 125.45 
M 335.48 149.32 335.96 148.74 336.58 147.23 336.98 145.53 336.98 144.48 336.58 142.78 335.96 141.28 335.48 140.69 
M 338.63 160.33 339.23 159.9 339.99 158.8 340.48 157.54 340.48 156.77 339.99 155.52 339.23 154.41 338.63 153.98 
M 331.95 186.87 332.42 186.05 332.42 185.43 331.85 184.43 330.96 183.54 330.26 183.19 
M 328.28 126.2 328.82 125.64 329.51 124.21 329.95 122.59 329.95 121.59 329.51 119.96 328.82 118.53 328.5 118.21 
M 334.15 141.05 334.7 140.43 335.42 138.83 335.88 137.02 335.88 135.9 335.42 134.09 334.7 132.49 334.15 131.87 
M 339.41 154.51 340.05 153.98 340.87 152.61 341.39 151.05 341.39 150.09 340.87 148.54 340.05 147.17 339.41 146.63 
M 342.02 163.92 342.93 162.97 343.55 161.83 343.55 161.12 342.93 159.98 341.97 158.97 341.22 158.58 
M 334.5 184.89 335.38 184.57 336.5 183.74 337.22 182.81 337.22 182.23 336.24 181.11 
M 332.35 132.17 332.8 131.53 333.37 129.88 333.74 128.02 333.74 126.86 333.37 125 332.8 123.35 332.35 122.71 
M 339.56 148.1 340.04 147.45 340.65 145.8 341.04 143.94 341.04 142.78 340.65 140.91 340.04 139.26 339.56 138.62 
M 343.97 160.3 344.54 159.82 345.27 158.59 345.74 157.2 345.74 156.34 345.27 154.95 344.54 153.72 343.97 153.24 
M 345 164.16 344.22 163.69 
M 338.7 181.46 339.47 181.16 340.45 180.4 341.08 179.54 341.08 179 340.61 178.35 
M 339.15 185.99 338.84 185.51 337.85 184.61 337.07 184.27 
M 331.82 123.95 332.38 123.4 333.1 121.99 333.56 120.4 333.51 119.24 
M 337.89 139.28 338.45 138.63 339.17 136.95 339.63 135.06 339.63 133.89 339.17 131.99 338.45 130.32 337.89 129.67 
M 344.06 153.78 344.68 153.2 345.48 151.71 345.99 150.02 345.99 148.97 345.48 147.28 344.68 145.79 344.06 145.2 
M 347.77 163.89 348.51 163.02 349.1 161.77 349.1 161 348.51 159.75 347.58 158.65 346.85 158.22 
M 343.76 179.02 344.66 178.72 345.82 177.96 346.56 177.09 346.49 176.47 
M 342.87 185.52 343.62 185.01 344.39 184.07 344.39 183.49 343.62 182.55 342.42 181.72 341.48 181.4 
M 336.01 130.12 336.47 129.48 337.06 127.83 337.44 125.95 337.44 124.8 337.06 122.93 336.47 121.27 336.01 120.63 
M 343.64 146.73 344.12 146.05 344.74 144.3 345.13 142.33 345.13 141.1 344.74 139.13 344.12 137.38 343.64 136.7 
M 349.05 159.99 349.6 159.47 350.31 158.12 350.76 156.6 350.76 155.66 350.31 154.13 349.6 152.79 349.05 152.26 
M 348.59 176.39 349.31 176.09 350.31 175.2 
M 345.85 182.93 346.63 182.62 347.64 181.85 348.29 180.97 348.29 180.42 347.64 179.54 346.63 178.76 345.85 178.46 
M 335.82 122.11 336.41 121.58 337.26 119.89 
M 341.83 137.6 342.4 136.93 343.13 135.22 343.61 133.28 343.61 132.09 343.13 130.15 342.4 128.44 341.83 127.77 
M 348.61 152.89 349.23 152.27 350.02 150.68 350.53 148.88 350.53 147.77 350.02 145.97 349.23 144.38 348.61 143.76 
M 350.6 180.23 351.49 179.92 352.63 179.12 353.36 178.22 353.36 177.66 352.63 176.76 351.49 175.96 350.6 175.65 
M 351.04 184.3 349.56 183.13 348.62 182.81 
M 339.9 128.23 340.38 127.59 341 125.96 341.39 124.11 341.39 122.97 340.76 120.5 
M 347.76 145.33 348.25 144.62 348.87 142.8 349.27 140.74 349.27 139.47 348.87 137.41 348.25 135.6 347.76 134.89 
M 353.8 183.88 354.63 183.2 355.27 182.29 355.27 181.73 354.63 180.83 353.65 180.03 352.89 179.71 
M 340.23 120.63 340.46 120.44 
M 345.98 136.06 346.58 135.39 347.34 133.67 347.84 131.72 347.84 130.51 347.34 128.56 346.58 126.84 345.98 126.17 
M 344.22 126.69 344.74 126.08 345.4 124.49 345.82 122.69 345.77 121.36 
M 352.06 144 352.56 143.28 353.2 141.43 353.62 139.33 353.62 138.03 353.2 135.93 352.56 134.07 352.06 133.35 
M 358.87 158.87 359.4 158.28 360.09 156.75 360.53 155.03 360.53 153.96 360.09 152.23 359.4 150.7 358.87 150.11 
M 349.1 125.65 349.68 125.05 350.42 123.54 350.78 122.22 
M 354.78 125.32 355.48 124.77 356.43 123.17 
M 368.42 157.16 368.93 156.54 369.59 154.95 370.01 153.15 370.01 152.04 369.59 150.24 368.93 148.65 368.42 148.03 
M 361.25 133.58 362.06 132.98 363.1 131.46 363.77 129.74 363.77 128.67 363.1 126.95 362.06 125.43 361.25 124.84 
M 372.39 162.37 373.01 161.82 373.8 160.4 374.3 158.8 374.3 157.81 373.8 156.2 373.01 154.79 372.39 154.24 
M 361.74 126.15 362.57 125.65 363.63 124.35 
M 367.78 133.88 368.68 133.35 369.83 132.01 370.57 130.48 370.57 129.54 369.83 128.02 368.68 126.67 367.78 126.14 
M 369.53 127.77 370.41 127.34 371.55 126.22 371.8 125.77 
M 372.89 140.58 373.57 140.04 374.43 138.66 374.99 137.1 374.99 136.13 374.43 134.57 373.57 133.19 372.89 132.65 
M 381.25 159.61 381.89 159.08 382.7 157.73 383.23 156.19 383.23 155.23 382.7 153.69 381.89 152.34 381.25 151.8 
M 379.31 140.71 380.04 140.25 380.96 139.06 381.56 137.73 381.56 136.9 380.96 135.56 380.04 134.38 379.31 133.92 
M 381.99 135.8 382.96 135.39 384.19 134.34 384.98 133.15 384.98 132.42 384.19 131.23 382.96 130.19 381.99 129.78 
M 385.1 131.38 385.95 131.02 387.03 130.08 387.73 129.01 
M 386.08 141.43 386.84 141.02 387.82 139.95 388.45 138.73 388.45 137.98 387.82 136.77 386.84 135.7 386.08 135.29 
M 387.73 152.43 388.4 151.96 389.25 150.77 389.8 149.42 389.8 148.59 389.25 147.24 388.4 146.05 387.73 145.58 
M 390.31 164.61 390.91 164.09 391.68 162.76 392.17 161.25 392.17 160.31 391.68 158.81 390.91 157.48 390.31 156.96 
M 390.28 147.35 391.16 146.92 392.28 145.82 393.01 144.58 393.01 143.81 392.28 142.57 391.16 141.47 390.28 141.04 
M 392.59 133.06 393.41 132.7 394.46 131.8 395.14 130.78 395.14 130.56 
M 393.11 142.57 393.89 142.18 394.89 141.17 395.53 140.03 395.53 139.32 394.89 138.17 393.89 137.16 393.11 136.77 
M 401.38 173.16 400.87 171.62 400.08 170.35 399.47 169.85 
M 398.4 159.05 399.24 158.6 400.32 157.43 401.01 156.1 401.01 155.28 400.32 153.96 399.24 152.79 398.4 152.33 
M 400.82 170.95 401.6 170.46 402.59 169.21 403.24 167.79 403.24 166.91 402.59 165.49 401.6 164.24 400.82 163.75 
M 399.85 134.57 400.64 134.22 401.63 133.33 402.28 132.32 402.28 132.05 
M 400.16 143.81 400.92 143.43 401.9 142.45 402.53 141.34 402.53 140.65 401.9 139.54 400.92 138.56 400.16 138.18 
M 400.92 153.83 401.65 153.41 402.59 152.34 403.2 151.12 403.2 150.37 402.59 149.16 401.65 148.09 400.92 147.67 
M 402.37 164.89 403.06 164.41 403.93 163.2 404.5 161.82 404.5 160.97 403.93 159.59 403.06 158.37 402.37 157.9 
M 406.79 171.87 405.92 170.52 405.28 170.03 
M 403.41 139.72 404.3 139.36 405.45 138.43 406.19 137.37 406.19 136.72 405.45 135.66 404.3 134.73 403.41 134.36 
M 403.89 149.29 404.77 148.89 405.89 147.87 406.62 146.72 406.62 146.01 405.89 144.86 404.77 143.84 403.89 143.44 
M 404.89 159.69 405.73 159.25 406.81 158.13 407.51 156.85 407.51 156.06 406.81 154.78 405.73 153.65 404.89 153.21 
M 406.9 171.2 407.7 170.72 408.72 169.51 409.38 168.14 409.38 167.29 408.72 165.92 407.7 164.71 406.9 164.23 
M 406.69 135.68 407.42 135.34 408.34 134.44 408.94 133.43 
M 406.93 144.83 407.65 144.45 408.57 143.48 409.16 142.39 409.16 141.71 408.57 140.61 407.65 139.64 406.93 139.26 
M 407.56 154.68 408.27 154.27 409.18 153.22 409.76 152.04 409.76 151.3 409.18 150.12 408.27 149.07 407.56 148.66 
M 408.7 165.38 409.38 164.92 410.26 163.75 410.82 162.42 410.82 161.59 410.26 160.26 409.38 159.08 408.7 158.63 
M 411.67 170.68 411.26 170.38 
M 409.97 140.56 410.81 140.19 411.89 139.26 412.59 138.21 412.59 137.56 411.89 136.5 410.81 135.57 409.97 135.21 
M 410.4 150.04 411.23 149.65 412.3 148.64 412.99 147.51 412.99 146.8 412.3 145.66 411.23 144.66 410.4 144.26 
M 411.25 160.27 412.07 159.84 413.12 158.74 413.79 157.49 413.79 156.71 413.12 155.46 412.07 154.36 411.25 153.93 
M 414.78 169.92 415.48 168.53 415.48 167.7 414.82 166.36 413.81 165.18 413.02 164.72 
M 413.01 136.29 413.7 135.94 414.8 134.66 
M 413.25 145.43 413.93 145.05 414.81 144.08 415.37 142.99 415.37 142.31 414.81 141.21 413.93 140.24 413.25 139.86 
M 413.86 155.23 414.53 154.83 415.39 153.79 415.94 152.61 415.94 151.89 415.39 150.71 414.53 149.67 413.86 149.27 
M 414.89 165.79 415.55 165.34 416.39 164.19 416.94 162.88 416.94 162.06 416.39 160.76 415.55 159.6 414.89 159.15 
M 416.25 141.1 417.09 140.74 417.81 140.12 
M 417.81 136.76 417.09 136.14 416.25 135.78 
M 416.6 150.49 417.4 150.1 417.81 149.71 
M 417.81 145.54 417.4 145.15 416.6 144.76 
M 417.35 160.61 417.81 160.36 
M 417.81 154.59 417.35 154.34 
M 173.94 118.49 175.77 118.45 
M 188.82 115.27 190.47 79.27 191.49 79.28 192.46 114.91 
M 203.82 112.57 208.53 58.67 209.54 58.73 207.47 112.4 
M 218.91 110.44 228.07 48.09 229.07 48.21 222.57 110.49 
M 234.09 109.15 247.68 43.26 248.68 43.44 237.75 109.37 
M 249.31 108.36 266.43 43.75 267.42 43.99 252.96 108.78 
M 264.56 108.26 283.72 54.44 284.69 54.75 268.19 108.87 
M 279.79 109.37 302.18 61.82 303.11 62.23 283.3 110.42 
M 294.84 111.78 315.6 73.39 316.5 73.85 298.34 112.9 
M 309.89 114.08 324.92 88.99 325.81 89.48 313.37 115.26 
M 332.04 118.34 333.62 119.26 
M 176.49 118.29 180.71 111.01 182.68 107.22 184.45 103.36 185.99 99.41 187.31 95.37 188.43 91.25 190.31 82.87 
M 191.59 82.89 196.23 79.56 198.4 77.77 200.41 75.83 202.24 73.74 203.89 71.49 205.38 69.1 208.06 64.06 
M 209.33 64.14 213.92 63.1 216.12 62.4 218.21 61.52 220.19 60.43 222.06 59.13 223.82 57.64 227.15 54.32 
M 228.42 54.48 232.72 54.71 234.83 54.64 236.88 54.35 238.87 53.84 240.8 53.09 242.67 52.14 246.33 49.84 
M 247.58 50.08 251.38 51.41 253.28 51.88 255.18 52.14 257.09 52.15 258.99 51.92 260.9 51.49 264.72 50.21 
M 265.96 50.52 268.82 53.71 270.36 55.13 271.99 56.37 273.75 57.41 275.64 58.23 277.63 58.88 281.81 59.82 
M 283.02 60.22 286.32 62.85 288.04 63.98 289.84 64.91 291.72 65.62 293.68 66.1 295.72 66.38 299.94 66.58 
M 301.11 67.09 303.04 70.35 304.14 71.83 305.36 73.15 306.74 74.27 308.27 75.21 309.94 75.99 313.52 77.23 
M 314.66 77.81 315.51 81.55 316.1 83.32 316.87 84.97 317.84 86.49 319.02 87.88 320.37 89.16 323.42 91.5 
M 324.54 92.11 325.19 98.47 325.71 101.58 326.43 104.64 327.37 107.62 328.55 110.53 329.93 113.37 333.07 118.94 
M 193.94 81.25 198.4 77.77 200.41 75.83 202.24 73.74 203.89 71.49 206.75 66.61 
M 194.92 88.89 198.34 86.22 201.28 83.13 202.55 81.4 204.74 77.66 
M 195.9 96.52 198.28 94.67 199.35 93.64 201.21 91.32 202.73 88.71 
M 211.65 63.65 216.12 62.4 218.21 61.52 220.19 60.43 222.06 59.13 225.51 56.02 
M 211.86 70.38 215.71 69.3 217.51 68.55 219.21 67.61 220.81 66.49 223.78 63.81 
M 212.07 77.1 215.3 76.2 216.8 75.57 219.57 73.84 222.05 71.6 
M 212.29 83.82 214.88 83.1 217.25 81.95 218.33 81.2 220.33 79.39 
M 212.5 90.54 214.47 89.99 216.26 89.13 218.6 87.19 
M 230.58 54.64 234.83 54.64 236.88 54.35 238.87 53.84 240.8 53.09 244.51 51.03 
M 230.32 61.11 234.07 61.1 235.88 60.86 237.63 60.4 239.34 59.74 242.62 57.92 
M 230.05 67.57 233.3 67.57 236.4 66.96 237.88 66.39 240.73 64.81 
M 229.78 74.04 232.54 74.04 235.17 73.52 236.42 73.03 238.84 71.7 
M 229.52 80.51 231.78 80.51 232.88 80.36 234.97 79.68 236.95 78.58 
M 229.25 86.98 231.87 86.86 233.51 86.33 235.05 85.47 
M 249.48 50.79 253.28 51.88 255.18 52.14 257.09 52.15 258.99 51.92 262.81 50.89 
M 248.78 57.59 252.14 58.56 253.82 58.79 255.5 58.8 257.18 58.6 260.56 57.69 
M 248.08 64.4 251 65.24 252.45 65.44 255.38 65.27 258.3 64.48 
M 247.38 71.21 249.85 71.92 252.33 72.1 253.57 71.95 256.05 71.28 
M 246.68 78.02 248.71 78.6 249.72 78.74 251.76 78.62 253.79 78.07 
M 245.98 84.83 248.36 85.39 249.95 85.3 251.54 84.87 
M 267.37 52.15 270.36 55.13 271.99 56.37 273.75 57.41 275.64 58.23 279.7 59.38 
M 266.16 60.08 268.72 62.65 270.13 63.72 271.65 64.6 273.26 65.31 276.76 66.3 
M 264.94 68.01 267.09 70.16 268.27 71.06 270.89 72.4 273.82 73.22 
M 263.73 75.95 265.46 77.68 266.41 78.4 268.52 79.48 270.87 80.15 
M 262.51 83.88 264.54 85.74 266.15 86.56 267.93 87.07 
M 284.66 61.58 288.04 63.98 289.84 64.91 291.72 65.62 293.68 66.1 297.82 66.52 
M 283.15 68.28 286.06 70.35 287.6 71.15 289.22 71.76 290.91 72.17 294.46 72.53 
M 281.64 74.99 284.08 76.72 285.37 77.39 288.14 78.25 291.11 78.55 
M 280.13 81.69 282.09 83.09 283.14 83.63 285.36 84.32 287.76 84.56 
M 278.62 88.4 280.11 89.46 281.73 90.18 284.41 90.57 
M 302.05 68.75 304.14 71.83 305.36 73.15 306.74 74.27 308.27 75.21 311.7 76.64 
M 299.76 76.21 301.48 78.75 303.63 80.76 304.89 81.54 307.72 82.72 
M 297.47 83.67 298.82 85.67 300.52 87.25 301.51 87.86 303.74 88.79 
M 295.18 91.12 296.17 92.58 297.41 93.74 299.76 94.87 
M 315.05 79.7 316.1 83.32 316.87 84.97 317.84 86.49 319.02 87.88 321.86 90.35 
M 311.18 91.63 311.86 93.98 312.36 95.05 313.76 96.95 315.6 98.55 
M 159.98 165.44 163.32 165.42 166.39 165.12 172.52 164.38 175.84 163.81 182.36 163.13 185.36 163.08 194.69 162.34 197.25 161.58 206.03 161.02 209.36 161.16 219.51 160.08 225.52 159.26 228.24 158.62 230.79 158.61 234 158.22 239.92 158.33 242.72 158.08 245.74 158.05 252.7 158.35 255.57 157.73 258.43 157.58 265.02 157.74 272.15 158.32 280.25 157.43 283.07 157.48 285.95 158.36 288.89 158.5 292.32 158.95 295.31 158.88 298.11 158.62 300.4 158.15 303.79 157.92 307.17 158.24 311.16 159.18 314.59 159.32 318.03 159.22 323.77 159.8 326.46 160.4 331.96 163.19 335.64 162.85 342.44 164 345.37 164.18 347.77 163.89 350.47 163.12 353.69 163.25 360.26 164.12 363.15 163.57 367.46 165.08 349.65 175.59 346.51 176.46 343.74 177.71 340.41 178.39 338.23 180.22 335.46 181.46 329.43 183.4 323.11 184.65 320.39 185.71 317.41 186.51 314.69 187.57 312.23 188.89 309.44 189.87 306.33 190.53 302.73 190.7 299.59 191.33 294.22 193.42 290.73 193.53 287.84 194.23 285.34 195.33 282.59 196.17 279.71 196.89 273.69 197.88 270.67 198.24 267.35 198.3 264.28 198.6 255.42 199.7 252.31 199.74 249.49 200.08 246.3 200.04 243.41 200.31 240.88 200.86 233.99 199.22 221.73 197.47 218.69 197.37 213.49 198.05 207.26 197.7 203.89 197.03 200.38 196.07 197.27 195.5 194.76 195.54 187.83 194.69 169.94 188.22 166.79 185.58 164.21 183.8 159.98 181.56 
M 159.98 166.96 163.27 167.06 169.53 166.91 176.1 166.18 182.5 165.73 191.83 165.32 200.62 164.59 206.44 164.75 216.13 164.36 225.19 163.36 231.87 163.57 234.95 163.19 243.15 163.29 253.07 164.25 256.18 164.1 261.84 164.42 264.69 164.77 268.21 164.7 274.36 164.87 278.2 165.14 281.57 164.98 284.63 165.24 290.23 166.95 293.03 167.54 296.34 167.78 298.5 167.56 300.95 167.97 308.08 168.28 311.69 167.57 314.63 168.05 317.62 169.14 324.7 170 327.1 170.45 331.08 171.51 334.53 171.97 
M 163.29 168.69 169.62 168.97 172.82 168.69 179.39 168.58 191.74 167.91 194.91 168.03 200.82 167.58 203.93 167.77 209.68 168.55 213.04 168.61 216.19 168.52 218.77 168.17 221.81 167.99 225.41 168.03 229.16 167.78 232.64 168.27 235.21 167.95 237.86 168.41 246.73 169.1 250.19 169.52 256.08 170.52 258.85 170.57 262.09 170.88 268.08 171.92 271.57 171.89 274.2 172.34 277.57 172.58 
M 163.34 170.33 169.68 170.94 172.88 170.81 179.48 171.21 185.37 170.99 188.44 170.59 197.97 170.86 201.04 170.52 209.78 172.34 213.14 172.65 218.76 172.27 221.91 172.53 225.5 173.05 231.53 173.24 234.28 174.13 240.81 174.44 246.92 175.24 249.55 176.07 252.43 176.65 255.72 176.68 
M 166.42 172.38 169.65 172.9 173 172.93 179.55 173.64 185.57 173.68 188.63 173.36 200.99 174.49 210.39 176.27 213.26 176.49 216.18 176.38 219.21 176.49 222.53 176.84 228.22 178.48 231.12 178.79 234.18 179.55 
M 166.42 174.2 169.6 174.82 182.54 176.15 185.47 176.34 188.75 176.34 197.47 177.65 203.75 178.91 212.9 180.34 219.65 180.91 222.58 181.34 227.76 183.45 230.64 184.31 237.6 185.99 240.85 186.05 243.95 186.69 249.91 189.17 
M 159.98 174.57 169.63 176.71 176.16 177.5 179.46 178.17 182.48 178.48 185.49 178.9 188.54 179.54 191.62 179.86 197.19 180.97 200.52 182.23 203.55 182.58 206.3 183.52 215.76 185.43 221.96 186.25 230.13 189.45 236.91 191.68 
M 159.98 176.09 169.57 178.52 179.34 180.13 182.34 180.82 185.09 181.68 188.32 182.38 191.55 182.72 194.24 183.88 203.5 186.65 206.66 187.99 209.42 188.83 215.62 190.46 218.85 190.98 221.25 191.61 
M 169.54 180.38 179.18 182.51 182.2 183.38 185.13 184.72 188.22 185.81 191.18 186.26 197.67 188.73 200.61 189.39 203.65 190.55 209.1 194.13 218.1 197.07 220.16 197.02 
M 169.09 182.33 175.71 184.03 178.89 185.22 181.69 186.51 
M 159.98 180.65 166.54 183.39 168.81 184.63 172.14 186.1 
M 222.38 197.56 228.46 204.4 231.46 206.69 249.91 236.19 252.16 242.94 252.73 245.76 253.86 249.14 254.49 252.02 253 257.71 251.75 260.29 248.93 261.04 246.28 261.02 243.05 260.41 239.71 257.79 230.41 249.24 222.95 245.78 220.1 244.13 217.45 242.28 213.77 240.18 205.3 234.08 203.76 233.21 183.29 206.61 182.16 203.51 180.14 200.02 177.98 196.76 175.77 192.29 
M 216.48 197.64 218.3 199.58 221.76 204.98 224.95 207.22 227.9 210.24 230.03 213.5 231.05 215.71 235.48 221.68 238.62 223.6 
M 211.09 197.94 213.2 200.27 215.08 202.84 217.87 207.38 220.21 209.65 222.81 212.96 226.71 218.76 229.41 221.86 232.2 224.45 235.03 227.91 236.3 230.43 236.81 232.55 
M 205.78 197.41 212.33 206.05 215.51 210.61 216.81 213.63 218.48 216.78 225.24 223.84 227.69 227.43 229.6 230.53 229.97 233.05 231.48 236.31 233.7 238.26 234.62 241.38 239.51 246.92 241.83 249.15 
M 200.33 196.06 205.24 203.1 206.91 206.35 208.52 208.76 209.33 210.73 212.63 216.45 214.74 219.48 217.63 222.09 220.58 224.05 222.22 226.88 224.09 229.29 225.08 231.27 228.94 237.28 230.57 243.41 232.06 245.25 
M 194.49 195.51 200.1 202.96 203.89 208.88 204.4 211.03 206.94 216.86 209.48 219.68 211.81 223.22 
M 188.57 194.79 191.86 200.01 193.63 203.44 195.97 206.9 198.37 209.13 199.26 211.26 199.73 213.78 203.12 219.51 205.32 221.84 210.35 228.41 214.22 235.74 214.5 238.2 217.95 243.1 
M 182.41 192.73 186.47 200.56 188.54 203.64 192.49 210.51 194.4 211.76 196.17 213.86 
M 365.19 184.53 373.77 193.53 379.15 200.16 368.94 200.84 366.25 201.41 363.51 202.26 357.71 204.64 352.96 208.12 349.82 209.12 347.64 211.21 346.24 213.99 345.9 217.74 345.15 220.94 343.81 223.84 341.62 225.82 338.6 226.97 335.18 227.85 332.14 228.89 329.56 230.58 327.46 232.77 325.96 235.54 324.77 242.62 323.46 245.44 321.68 247.86 319.29 249.72 314.26 253.05 309.78 253.7 310.49 260.51 308.71 256.59 305.36 251.95 304.22 250.07 303.19 247.24 302.6 243.55 302.65 242.23 299.62 236.62 298.54 233.43 297.11 230.24 290.24 216.9 289.66 214.01 288.73 211.09 287.98 207.64 285.16 201.43 283.27 198.08 282.06 196.3 
M 360.25 185.66 364.94 189.93 368.47 194.2 370.85 198.59 
M 355.3 186.8 359.54 191.98 363.06 195.28 365.31 198.31 
M 350.31 187.69 356.37 196.95 359.36 200.67 362.4 202.07 
M 345.31 188.55 351.46 197.48 
M 340.3 189.29 343.21 193.36 345.12 197.38 
M 335.28 190.01 338.14 194.42 339.77 197.46 341.65 201.9 343.62 205.08 346.32 208.12 348.06 210.42 
M 330.25 190.66 333.89 194.51 336.06 197.69 338.06 201.11 339.58 204.79 
M 325.21 191.28 328.78 195.57 330.97 198.63 333.75 202.07 335.32 205.64 339.08 211.31 
M 320.18 191.87 322.57 196.97 325.1 199.43 329.08 204.55 331.93 207.85 333.72 211.25 
M 315.14 192.46 318.15 197.15 321.93 202.23 323.28 205.32 327.71 211.3 
M 310.1 193.06 313.38 196.86 316.6 204.11 319.97 208.81 324.75 216.49 326.05 219.61 331.28 227.26 
M 305.07 193.68 308.1 197.62 310.21 201.03 311.88 204.91 313.85 208.29 315.67 210.75 317.13 212.42 318.5 214.68 320.9 220.18 325.03 224.88 327.44 228 
M 300.02 194.16 302.11 198 307.05 204.82 308.83 208.38 309.75 211.02 313.86 214.23 316.94 222.18 317.47 226.65 318.87 229.72 
M 294.96 194.45 297.26 198.08 299.05 201.53 301.37 205.11 303.21 208.53 304.24 211.78 307.14 217.17 308.33 220.13 
M 289.89 194.67 292.77 198.36 296.48 204.51 298 208.1 298.56 211.81 300.08 214.53 300.94 217.06 304.18 223.81 305.01 226.16 306.46 229.41 309.19 232.21 310.31 239.01 312.64 243.2 
M 285.24 195.35 287.38 198.56 289.12 201.53 292.4 207.58 293.59 210.3 293.72 214.02 294.55 216.8 298.7 223.54 300.83 229.88 302.76 233.42 304.24 237.14 306.51 239.73 
M 417.81 135.28 420.13 133.43 424.8 128.54 429.46 124.16 431.57 122.47 433.76 120.06 436.31 117.87 438.88 116.02 441.1 114.11 443.78 111.33 445.83 109.72 448.53 108.56 451.11 106.75 454 105.31 457.69 103.72 459.16 102.25 462.25 101.25 465 99.85 467.86 99.25 471.67 99.16 474.09 99.85 476.99 98.38 481.28 97.14 484.2 96.03 486.03 95.73 490 100.8 489.92 104.26 488.13 106 488.01 108.38 489.03 111.91 488.24 114.13 487.67 116.67 488.26 120.5 486.44 122.81 484.9 125.55 482.47 127.38 479.65 128.85 478.93 132.42 474.1 136.18 471.87 138.24 466.22 141.14 465.15 144.31 462.67 146.07 459.53 146.9 457.14 148.49 452.9 152.22 449.35 152.66 447.42 154.88 445.17 156.8 443.77 159.49 446.87 160.59 448.93 160.09 450.95 160.56 458.41 168.17 466.28 173.06 470.48 175.01 473.8 176.79 475.98 177.42 482.39 186.43 483.1 188.7 483.15 190.53 483.74 192.82 485.36 196.1 486.61 199.28 487.33 202.09 487.71 211.48 488.05 213.24 486.91 217.28 484.57 217.73 480.89 219.19 478.36 218.85 476.47 216.74 472.38 215.15 468.7 214.84 465.47 214.36 459.86 212.15 456.85 210.62 454.9 207.44 452.02 205.08 449.12 203.17 446.58 202.1 438.77 194.91 435.59 193.57 433.06 190.92 430.51 188.68 426.48 183.38 422.5 177.22 417.81 170.97 
M 422.61 133.01 425.3 130.23 432.94 124.06 434.72 122.2 440.46 118.5 442.75 116.78 446.7 112.43 449.81 111.03 453.03 110.09 455.49 108.34 459.36 108.02 461.49 107.61 463.93 105.55 467.74 104.39 
M 423.09 134.72 425.73 132.01 428.3 129.96 430.91 128.32 433.69 126.13 435.45 124.35 438.44 122.51 441.58 121.37 444.17 120.06 447.9 117.26 450.98 114.71 454.22 114.55 460.87 112.89 465.06 112.39 
M 426.16 134.08 429.11 132.1 431.63 130.84 434.16 128.69 437.2 126.81 439.57 124.95 444.96 123.01 449.08 120.38 455.16 118.17 458.95 118.43 462.35 118.04 
M 421.31 140 424.09 138.48 426.7 136.34 429.67 134.39 432 133.37 435.02 131.41 438.76 129.93 441 127.69 443.62 126.71 448.2 124.61 451.55 124.12 454.41 123.2 456.47 122.14 
M 421.68 141.6 424.6 140.32 430.15 136.88 432.46 135.81 435.94 133.69 439.76 132.42 442.24 130.8 444.95 129.93 447.8 128.5 450.22 127.67 453.39 126.93 456.18 126.68 458.43 125.78 461.22 125.38 464.8 125.3 468.46 124.96 471.6 124.35 474.56 123.2 482.82 123 
M 427.97 140.78 430.46 139.48 433.18 138.44 437.29 136.54 440.82 135.32 449.39 131.9 
M 428.22 143.02 434.3 140.57 437.83 139.48 441.71 139.18 451.35 136.63 452.48 135.05 455.6 134.63 459.52 135.02 462.59 134.18 464.71 133.28 
M 428.33 145.12 431.72 144.21 435.38 142.67 442.6 143.2 445.42 142.97 
M 417.81 148.1 421.72 148.47 425.24 148.12 435.72 145.49 439.82 145.74 443.29 146.41 445.83 146.67 449.06 145.81 451.71 144.24 454.74 144.01 
M 429.1 149.73 433.1 148.9 437.18 148.98 440.74 149.38 443.6 149.43 446.13 149.14 449.28 149.64 453.12 148.46 456.17 149.19 
M 425.68 151.98 429.58 152.5 434.59 152.36 438.33 152.68 
M 430.89 155.57 436.34 156.16 
M 426.01 156.66 430.69 158.12 436.14 159.06 439.83 160.16 
M 421.88 157.41 425.64 158.51 429.46 160.03 433.94 161.2 441.38 161.97 444.32 161.18 446.84 159.22 
M 417.81 156.65 421.74 158.95 425.22 160.34 428.41 161.89 435.75 163.67 439.99 164.4 443.56 164.43 447.08 163.17 450.39 164.69 
M 428.08 163.92 431.7 164.54 434.97 165.96 438.45 166.49 442.43 167.55 446.89 168.02 449.91 168.88 452.92 170.56 456.73 171.47 
M 427.87 165.77 431.4 166.88 434.49 168.25 449.08 172.45 450.75 173.21 454.23 174.21 457.31 174.56 
M 427.16 167.7 430.8 168.94 434.09 170.46 436.48 171.98 440.21 172.81 444.4 174.35 447.27 175.15 
M 421.21 165.37 424.2 167.51 430.25 171.3 433.67 172.12 436.3 173.62 445.45 178.01 448.1 180.14 450.41 181.52 453.73 182.58 
M 426.62 171.09 429.76 173.05 433.08 174.13 435.63 176.29 438.64 178 441.57 179.35 444.23 180.94 446.9 183.25 449.72 184.75 453.06 185.53 457.13 186.96 460.8 187.38 461.99 187.94 464.16 187.58 467.91 188.74 473 189.49 477.31 189.83 479.88 190.64 
M 417.81 165.2 420.98 168.11 423.8 170.43 426.25 172.91 429.33 175.16 432.24 176.65 434.76 178.63 438.24 180.77 440.8 181.89 443.38 183.44 448.95 188.17 456.26 189.67 458.58 191.31 460.41 191.54 462.88 191.2 466.26 193.88 471.46 195.18 
M 420.87 169.59 423.56 171.99 428.76 177.24 430.88 179.07 437.11 183.68 439.84 184.66 443.17 186.38 445.29 188.39 448.86 190.95 454.76 192.97 457.18 194.75 
M 423.2 173.6 428.21 179.32 430.34 181.32 432.74 183.91 441.27 189.09 447.88 193.8 450.41 195.36 453.58 197.09 456 197.99 458.15 199.56 461.41 202.44 464.9 203.42 
M 425.23 178.53 427.43 181.46 431.63 186.2 434.69 188.43 437.34 190.66 439.96 192.05 442.63 194.27 445.59 197.06 448.38 199.29 451.7 200.32 454.35 201.44 458.11 203.65 460.22 206.25 462.69 208.65 465.06 209.44 467.92 209.83 
M 365.19 124.6 371.14 128.71 389.08 97.56 395.47 97.7 398.39 97.49 400.17 100.19 400.88 103.38 401.58 108.63 390.87 134.14 386.24 128.7 
M 370.18 125.49 373.76 123.98 375.76 122.29 377.37 120.07 378.52 117.46 380.38 114.88 380.65 112 382 108.15 382.88 104.94 384.26 102.21 
M 375.17 126.37 378.27 125.31 380.97 120.69 382.38 119.14 383.28 115.85 385.87 113.33 387.85 109.58 389.93 107.74 392.11 106.45 393.73 104.49 394.77 102.19 
M 380.14 127.41 382.56 126.28 386.56 122.34 388.64 120.63 391.1 117.94 393.52 115.76 395.68 113.43 397.71 112.2 
M 48.73 154.07 49.42 153.53 52.07 152.17 60.62 148.49 66.14 146.31 72.3 144.18 79.05 142.15 86 139.82 98.89 134.65 106.28 132.5 122.14 128.9 142.41 123.84 144.27 123.21 147.94 126 149.57 129.22 150.98 132.49 154.41 138.91 155.22 142.27 156.26 145.6 157.57 148.88 159 155.63 159.53 159.03 158.98 162.61 157.14 166.4 156.43 170.01 155.86 177.09 155.84 184.08 154.75 187.79 140.34 187.79 129.95 187.47 104.64 185.79 97.72 184.62 84.94 181.4 78.55 178.88 
M 76.1 177.72 73.27 176.38 68.11 173.61 58.33 167.98 54.64 165.14 52.73 163.15 
M 128.06 141.47 128.97 144.27 128.97 147.09 128.6 149.81 128.05 152.36 126.71 154.83 124.71 157.26 124.14 159.43 124.48 161.52 125.4 163.59 128.51 168.18 129.73 171.2 113.45 171.95 93.96 172.5 88.06 171.84 82.52 170.55 
M 77.23 178.44 61.46 168.28 59.2 167.12 52.77 163.17 46.48 159.05 44.7 157.35 44.82 155.02 46.77 153.63 49.39 154.21 55.45 158.65 59.1 161.87 74.95 174.84 78.94 178.32 
M 78.71 179.23 69.55 181.61 64.57 182.64 48.64 186.54 34.24 189.29 31.79 189.17 30 187.26 30.23 184.79 32.38 183.44 37.53 182.8 42.16 182.71 46.98 182.35 52.61 181.68 63.31 180.1 68.25 179.65 78.58 178.25 
M 88.96 161.41 86.08 157.37 84.66 152.62 84.86 147.66 86.67 143.03 89.88 139.25 94.14 136.7 99 135.69 103.92 136.3 108.38 138.48 111.89 141.99 114.07 146.45 114.69 151.37 113.67 156.23 111.13 160.49 107.34 163.7 102.71 165.51 97.76 165.71 93 164.3 88.96 161.41 
M 109.44 143.74 111.18 147.31 111.67 151.25 110.86 155.13 108.82 158.55 105.79 161.11 102.1 162.56 98.13 162.72 94.32 161.59 91.09 159.28 
M 94.6 154.25 93.44 152.64 92.88 150.74 92.96 148.75 93.68 146.9 94.96 145.39 96.67 144.37 98.61 143.96 100.58 144.21 102.36 145.08 103.77 146.49 104.64 148.27 104.89 150.24 104.48 152.18 103.46 153.89 101.95 155.17 100.1 155.89 98.11 155.97 96.21 155.41 94.6 154.25 
M 93.04 150.66 98.34 155.96 
M 94.5 149.38 100.75 155.64 
M 95.76 147.91 102.53 154.68 
M 95.92 145.33 103.84 153.25 
M 99.1 145.77 104.66 151.33 
M 100.28 144.21 104.68 148.61 
M 49.6 153.44 52.99 156.83 
M 53.7 151.45 58.04 155.79 
M 57.96 149.62 61.45 153.11 
M 62.26 147.84 67.37 152.94 
M 66.64 146.13 71.6 151.1 
M 71.16 144.57 76.8 150.21 
M 75.81 143.13 81.56 148.88 
M 80.45 141.68 83.82 145.05 
M 85 140.15 87.23 142.38 
M 89.39 138.46 90.07 139.13 
M 93.74 136.71 93.88 136.86 
M 98.08 134.97 98.83 135.72 
M 102.73 133.53 106.52 137.33 
M 107.51 132.23 113 137.72 
M 112.5 131.14 117.98 136.62 
M 117.45 130 121.35 133.9 
M 122.38 128.84 126.47 132.93 
M 127.24 127.62 132.83 133.21 
M 132.11 126.4 137.06 131.36 
M 136.99 125.2 141.37 129.58 
M 141.86 123.98 146.68 128.8 
M 84.94 168.58 84.37 169.63 83.64 170.28 81.39 171.31 80.79 172.13 80.76 172.79 
M 81.62 179.98 83.15 179.18 
M 80.48 151.83 81.23 151.46 81.51 151.14 81.33 149.94 
M 120 177.68 119.44 176.86 118.88 176.44 118.2 176.06 116.79 175.74 115.69 175.13 114 172.28 
M 146.85 181.76 148.03 179.51 150 176.64 150.22 175.98 150.82 170.07 
M 65.58 172.03 63.76 171.13 
M 61.82 170.01 59.97 168.36 58.9 166.94 
M 94.03 167.08 92.85 165.54 92.58 165.78 
M 88.44 171.68 87.15 171.01 85.87 170.63 85.05 170.66 83.97 171.03 
M 116.1 136.65 116.28 138.24 115.97 139.83 116.24 141.42 
M 88.12 141.31 87.17 140.77 
M 153.88 172.48 153 169.91 152.99 168.53 153.71 166.12 153.58 165.15 152.51 163.01 152.43 161.9 152.58 161.05 
M 87.33 168.32 86.72 169.45 86.11 170.03 84.29 170.78 82.12 171.36 
M 130.98 172.83 132.72 169.46 132.62 168.87 
M 54.43 164.92 54.68 164.32 
M 83.81 148.14 81.92 146.68 81.49 146.1 81.48 145.44 81.99 142.35 81.98 141.17 
M 121.78 130.77 122.57 130.75 123.93 130.41 124.95 130.52 125.2 130.36 
M 146.59 167.43 148.2 165.49 149.09 164.71 150.04 164.22 151.62 163.83 152 163.57 152.3 162.89 152.6 160.92 
M 132.63 126.31 133.49 127.68 134.26 128.56 134.01 129.21 
M 54.22 157.58 53.79 156.71 52.63 155.45 52.18 155.29 50.91 155.28 
M 156.37 166.44 155.29 164.58 154.56 163.86 153.27 162.99 152.75 162.23 152.65 161.49 153.17 159.24 153.08 158.1 
M 143.27 151.77 141.45 151.33 139.25 151.04 134.32 149.42 
M 134.13 145.73 133.99 148.37 133.55 148.8 133.13 148.94 132.02 148.91 
M 107.83 178.89 106.78 179.45 105.66 179.73 102.93 178.78 100.72 177.47 99.82 177.23 
M 82.15 168.05 81.59 169.45 79.78 171.47 
M 80.27 151.84 81.13 151.4 81.44 151.06 81.48 150.58 81.22 149.63 
M 112.09 177.91 112.79 179.53 112.53 181.16 112.3 181.68 111.27 182.67 109.75 183.45 
M 158.59 155.45 158.05 154.93 157.78 154.4 157.77 153.84 158.36 152.42 
M 146.07 133.67 145.16 134.6 143.47 135.65 139.72 136.97 139.25 137.58 138.83 139.05 
M 140.65 173.9 142.97 173.84 144.54 173.3 145.51 172.5 146.12 171.68 146.34 170.37 
M 118.35 165.34 116.4 165.22 114.38 165.55 111.6 166.94 111.07 167.6 
M 64.2 150.34 63.73 150.17 63.14 149.62 62.01 147.94 
M 139.67 160.07 136.56 161.16 135.47 161.3 133.12 161.07 131.72 159.88 130.22 157.61 128.88 156.15 
M 83.36 158.96 83.3 159.46 83.48 160.01 85.27 162.87 86.59 165.51 86.88 166.4 
M 148.07 173.11 147.21 172.39 146.82 169.51 147.1 168.28 148.09 166.54 
M 126.32 181.75 126.9 180.11 127.51 175.81 128.52 173.74 130.04 172.02 130.9 170.19 131 169.63 
M 129.95 149.46 127.25 147.45 126.87 147.01 126.18 145.44 125.21 144.11 123.65 142.85 122.25 142.2 
M 144.33 125.7 143.44 126.48 142.37 127.07 140.14 127.53 139.22 127.41 136.37 125.85 135.42 125.96 134.72 126.65 
M 155.86 178.21 154.4 177.6 153.35 176.62 152.62 174.14 151.94 170.5 
M 108.64 168.73 108.78 168.15 109.52 166.99 111.6 165.63 
M 111.21 160.36 113.68 158.72 114.9 158.46 116.73 158.5 
M 149.41 138.55 147.27 138.5 146.3 138.33 144.56 137.71 143.52 137.66 141.93 137.85 141.17 138.29 140.85 138.82 
M 111.48 166.73 110.8 168.01 
M 128.63 174.43 130.07 172.54 131.24 170.15 131.33 169.64 130.95 167.3 130.99 166.16 
M 56.1 166.26 56.42 165.41 
M 59.21 161.96 60.07 160.95 
M 121.66 138.36 121.69 138.93 121.12 139.39 
M 69.98 188.84 69.37 191.66 69.36 194.41 69.92 197.17 70.84 199.94 74.26 208.46 75.04 211.54 75.43 214.69 75.41 217.89 74.82 221.07 73.51 224.04 71.64 226.65 69.31 228.81 64.2 232.21 61.85 234.04 59.7 236.11 57.76 238.39 56.08 240.86 54.68 243.52 53.54 246.31 52.65 249.19 50.8 258.12 49.99 261.06 47.8 266.73 49.88 261.03 50.59 258.07 52.13 249.06 52.92 246.1 53.99 243.21 55.32 240.43 56.97 237.81 58.89 235.38 61.05 233.15 63.43 231.16 68.34 227.64 70.4 225.59 71.99 223.2 73.05 220.56 73.46 217.74 73.38 214.85 72.91 211.98 72.1 209.19 68.41 200.89 67.31 197.92 66.56 194.74 66.44 191.4 67 188.25 
M 67.11 197.1 66.52 198.24 64.62 200.87 62.35 203.17 59.8 205.11 51.89 209.57 49.79 211.45 48.31 213.79 47.6 216.48 47.67 219.33 48.26 222.19 49.18 225.02 52.54 233.51 54.37 239.36 54.83 241.46 
M 55.09 242.74 55.53 245.38 55.8 248.44 55.84 260.62 56.69 266.64 55.73 260.62 55.26 248.47 54.55 243.84 
M 54.29 242.57 53.53 239.59 51.52 233.89 47.86 225.53 46.79 222.61 46.05 219.54 45.87 216.31 46.6 213.08 48.28 210.22 50.63 207.94 53.28 206.18 58.44 203.14 60.67 201.32 62.6 199.22 64.19 196.86 65.4 194.29 66.22 191.59 66.62 188.69 
M 70 189.49 69.73 190 
M 49.36 225.45 50.45 227.28 52.24 229.69 58.04 236.46 
M 58.7 237.29 60.06 239.03 61.69 241.64 63.1 244.36 66.55 252.83 67.86 255.57 70.99 260.78 67.77 255.62 66.35 252.92 62.62 244.6 61.13 241.98 59.44 239.48 58.15 237.93 
M 57.49 237.15 51.48 230.63 
M 48.09 226.03 46.27 222.6 45.39 219.51 45.29 216.23 46.17 213.04 47.95 210.25 50.34 208.07 57.78 202.81 59.94 200.87 61.82 198.69 63.38 196.28 66.46 189.82 
M 67.2 188.29 67.28 188.13 
M 78.6 178.81 79.76 179.66 
M 74.69 176.77 74.88 177.64 75.52 177.33 
M 70.92 174.37 70.71 175.24 70.83 176.22 71.2 175.59 72.07 175.05 
M 67.24 172.03 66.71 173.41 66.77 174.8 67.21 173.77 68.42 172.79 
M 63.6 169.67 62.72 171.59 62.72 173.38 63.21 171.95 64.82 170.48 
M 59.89 167.48 58.73 169.77 58.66 171.96 59.22 170.13 61.21 168.15 
M 56.19 165.26 54.73 167.95 54.61 170.55 55.23 168.3 57.41 166.03 
M 52.51 163 50.74 166.12 50.55 169.13 51.23 166.48 53.74 163.76 
M 48.92 160.59 46.75 164.3 46.5 167.71 47.24 164.66 50.15 161.41 
M 45.42 158.04 42.75 162.48 42.44 166.29 43.25 162.84 46.53 159.08 
M 78.69 179.1 79.94 178.9 
M 74.64 178.79 74.82 178.77 
M 69.95 179.39 70.58 178.32 70.67 178.9 70.91 179.25 
M 65.62 179.92 65.78 178.94 66.4 177.95 66.38 178.85 66.87 179.79 
M 61.37 180.36 61.5 178.89 62.22 177.57 62.1 178.79 62.68 180.19 
M 57.13 180.98 57.21 178.83 58.04 177.2 57.81 178.74 58.56 180.77 
M 52.9 181.64 52.92 178.78 53.86 176.83 53.53 178.69 54.42 181.39 
M 48.69 182.15 48.64 178.73 49.68 176.46 49.24 178.63 50.26 181.97 
M 44.48 182.58 44.35 178.67 45.5 176.09 44.95 178.58 46.06 182.44 
M 40.26 182.75 40.07 178.62 41.32 175.72 40.67 178.52 41.81 182.72 
M 36.03 182.96 35.78 178.56 37.14 175.35 36.38 178.47 37.51 182.8 
M 31.84 183.77 31.5 178.51 32.96 174.98 32.1 178.41 33.32 183.3 
M 43.33 187.56 54.07 188.67 61.21 188.92 68.53 188.79 75.93 188.18 83.2 187.24 97.72 184.62 
M 56.65 188.43 55.56 188.72 
M 73.63 185.65 73.39 185.55 73.05 185.81 72.6 186.82 72.98 187.25 73.53 187.26 
M 53.05 185.76 51.08 186.72 49.76 187.56 49.06 188.21 
M 149.05 122.4 156.17 129.53 
M 156.13 121.37 166.32 131.56 
M 163.25 120.37 174.14 131.27 
M 170.29 119.3 182.35 131.37 
M 177.23 118.13 184.83 125.73 
M 183.9 116.69 194.13 126.91 
M 190.62 115.29 197.66 122.33 
M 197.38 113.94 208.56 125.12 
M 204.42 112.87 216.31 124.75 
M 211.5 111.83 220.13 120.46 
M 218.65 110.86 228.52 120.74 
M 226.06 110.16 236.34 120.44 
M 233.63 109.62 245.73 121.71 
M 241.31 109.18 249.05 116.92 
M 249.07 108.83 257.62 117.38 
M 257.1 108.75 265.35 116.99 
M 265.29 108.82 273.82 117.35 
M 273.85 109.27 281.03 116.45 
M 283.08 110.39 290.82 118.12 
M 292.84 112.03 299.25 118.44 
M 302.47 113.55 308.66 119.74 
M 312.08 115.04 320.76 123.72 
M 322.05 116.9 333.28 128.13 
M 332.24 118.98 342.46 129.19 
M 342.11 120.73 349.86 128.47 
M 351.91 122.41 362.35 132.86 
M 361.63 124.02 373.12 135.51 
M 371.43 125.71 382.96 137.23 
M 381.54 127.7 391.79 137.95 
M 391.82 129.86 398.41 136.46 
M 402.07 132 409.82 139.76 
M 412.32 134.14 417.3 139.12 
M 177.07 117.31 177.46 118.09 
M 179.53 113.09 181.59 117.21 
M 181.9 108.71 185.71 116.33 
M 184.13 104.04 189.84 115.46 
M 186.14 98.94 191.13 108.91 
M 187.88 93.28 190.15 97.82 
M 234.28 103.93 237.03 109.43 
M 233.62 93.47 241.5 109.23 
M 233.53 84.17 245.96 109.03 
M 233.12 74.22 250.42 108.82 
M 231.86 62.56 254.98 108.81 
M 232.49 54.7 259.55 108.82 
M 236.88 54.35 264.12 108.83 
M 240.81 53.08 268.79 109.05 
M 244.38 51.11 273.03 108.4 
M 248.63 50.47 272.67 98.55 
M 253.94 51.97 273.45 90.98 
M 258.51 51.98 269.85 74.66 
M 262.57 50.97 266.65 59.13 
M 310.12 109.56 312.96 115.23 
M 310.55 101.28 318.02 116.22 
M 309.07 89.19 323.08 117.2 
M 308.05 78.02 328.13 118.19 
M 311.97 76.73 327.31 107.42 
M 333.07 118.94 333.19 119.18 
M 324.1 91.87 324.61 92.9 
M 221.78 292.89 221.66 292.3 221.24 291.7 220.73 291.39 219.53 291.39 218.84 291.7 218.06 292.3 217.58 292.89 217.01 293.8 216.56 295.3 216.71 296.8 217.13 297.39 217.63 297.7 218.84 297.7 219.53 297.39 220.31 296.8 220.79 296.2 
M 227 293.5 225.74 297.7 
M 226.73 294.39 226.31 293.8 225.8 293.5 224.9 293.5 224.21 293.8 223.43 294.39 222.86 295.3 222.68 295.89 222.71 296.8 223.13 297.39 223.64 297.7 224.54 297.7 225.23 297.39 226.01 296.8 
M 233.33 291.39 231.44 297.7 
M 232.43 294.39 232.01 293.8 231.5 293.5 230.6 293.5 229.91 293.8 229.13 294.39 228.56 295.3 228.38 295.89 228.41 296.8 228.83 297.39 229.34 297.7 230.24 297.7 230.93 297.39 231.71 296.8 
M 235.1 293.5 234.2 296.5 234.23 297.39 234.74 297.7 235.64 297.7 236.33 297.39 237.5 296.5 
M 238.4 293.5 237.14 297.7 
M 243.53 294.39 243.41 293.8 242.6 293.5 241.7 293.5 240.71 293.8 240.23 294.39 240.35 295 240.86 295.3 242.27 295.6 242.78 295.89 242.81 296.8 242.33 297.39 241.34 297.7 240.44 297.7 239.63 297.39 239.51 296.8 
M 251.63 294.39 251.51 293.8 250.7 293.5 249.8 293.5 248.81 293.8 248.33 294.39 248.45 295 248.96 295.3 250.37 295.6 250.88 295.89 250.91 296.8 250.43 297.39 249.44 297.7 248.54 297.7 247.73 297.39 247.61 296.8 
M 254.93 291.39 253.4 296.5 253.43 297.39 253.94 297.7 254.54 297.7 
M 253.4 293.5 255.5 293.5 
M 257.6 293.5 256.34 297.7 
M 257.06 295.3 257.63 294.39 258.4 293.8 259.1 293.5 260 293.5 
M 261.83 291.39 262.03 291.7 262.43 291.39 262.22 291.1 261.83 291.39 
M 261.5 293.5 260.24 297.7 
M 267.2 293.5 265.94 297.7 
M 266.93 294.39 266.51 293.8 266 293.5 265.1 293.5 264.4 293.8 263.63 294.39 263.06 295.3 262.88 295.89 262.9 296.8 263.33 297.39 263.84 297.7 264.74 297.7 265.43 297.39 266.2 296.8 
M 269.6 293.5 268.33 297.7 
M 269.24 294.7 270.4 293.8 271.1 293.5 272 293.5 272.51 293.8 272.54 294.7 271.64 297.7 
M 274.45 295.3 278.06 295.3 278.24 294.7 278.12 294.1 277.39 293.5 276.5 293.5 275.81 293.8 275.02 294.39 274.45 295.3 274.27 295.89 274.31 296.8 274.73 297.39 275.24 297.7 276.14 297.7 276.83 297.39 277.61 296.8 
M 284 293.5 282.74 297.7 
M 283.73 294.39 283.31 293.8 282.8 293.5 281.89 293.5 281.2 293.8 280.43 294.39 279.86 295.3 279.68 295.89 279.7 296.8 280.13 297.39 280.64 297.7 281.54 297.7 282.23 297.39 283.01 296.8 
M 290.33 291.39 288.44 297.7 
M 289.43 294.39 289.01 293.8 288.5 293.5 287.6 293.5 286.9 293.8 286.13 294.39 285.56 295.3 285.38 295.89 285.4 296.8 285.83 297.39 286.33 297.7 287.24 297.7 287.93 297.39 288.7 296.8 
M 292.1 293.5 291.2 296.5 291.23 297.39 291.74 297.7 292.64 297.7 293.33 297.39 294.5 296.5 
M 295.39 293.5 294.14 297.7 
M 300.52 294.39 300.4 293.8 299.6 293.5 298.7 293.5 297.7 293.8 297.23 294.39 297.35 295 297.86 295.3 299.27 295.6 299.77 295.89 299.81 296.8 299.33 297.39 298.33 297.7 297.44 297.7 296.63 297.39 296.51 296.8 
M 302.12 297.1 301.73 297.39 301.94 297.7 302.33 297.39 302.12 297.1 
"/></svg>
