<svg xmlns="http://www.w3.org/2000/svg" width="520" height="320"><rect x="0" y="0" width="520" height="320" fill="floralwhite"/><rect x="10" y="10" width="500" height="300" stroke="black" stroke-width="1" fill="none"/><path stroke="black" stroke-width="1" fill="none" stroke-linecap="round" stroke-linejoin="round" d="
M 157.31 130.99 175.71 121.31 203.35 106.12 212.56 102.15 221.77 99.31 230.99 97.08 249.42 94.61 258.63 94.62 277.06 96.93 286.27 97.76 295.48 100.9 304.7 105.94 313.91 111.77 323.13 118.25 341.55 130.37 359.98 144.57 369.19 150.61 378.41 156.21 396.84 166.82 
M 396.84 193.8 387.62 199.82 359.98 217.11 350.77 223.23 341.55 228.91 332.34 233.57 323.13 237.95 313.91 241.16 304.7 244.1 295.48 246.7 286.27 248.18 277.06 249.98 267.84 250.59 249.42 249.69 240.2 248.62 230.99 248.77 221.77 249.96 212.56 250.06 203.35 249.58 194.13 247.87 184.92 245.03 175.71 240.85 166.44 235.67 
M 160.71 134.19 161.93 133.22 162.5 132.3 162.5 131.73 161.93 130.8 161.04 129.99 160.35 129.67 
M 163.59 130.77 164.35 130.47 165.33 129.7 165.96 128.82 165.96 128.28 165.33 127.4 164.81 126.99 
M 164.12 139 164.58 138.81 165.67 137.94 166.37 136.96 166.37 136.35 165.67 135.36 164.58 134.49 163.74 134.15 
M 166.67 145.94 167.06 145.47 167.06 144.87 166 143.73 
M 166.6 126.92 167.2 126.64 167.96 125.92 168.45 125.07 
M 166.47 135.06 167.1 134.72 167.91 133.83 168.43 132.84 168.43 132.22 167.91 131.22 167.1 130.34 166.47 130 
M 168.32 152.72 169.7 151.71 170.35 150.74 170.35 150.15 169.7 149.18 168.7 148.33 167.92 148 
M 169.22 130.9 169.96 130.59 170.9 129.78 171.51 128.86 171.51 128.3 170.9 127.38 169.96 126.57 169.22 126.25 
M 169.79 139.77 170.57 139.41 171.55 138.48 172.19 137.43 172.19 136.78 171.55 135.73 170.57 134.81 169.79 134.45 
M 170.68 148.84 171.49 148.49 172.52 147.58 173.19 146.55 173.19 145.91 172.52 144.88 171.49 143.97 170.68 143.61 
M 170.44 156.73 171.27 156.42 172.35 155.62 173.04 154.73 173.04 154.17 172.35 153.27 171.27 152.48 170.44 152.17 
M 170.24 161.44 170.63 160.99 170.63 160.51 169.81 159.64 
M 171.88 126.63 172.48 126.35 173.25 125.62 173.74 124.79 173.74 124.28 173.25 123.45 172.66 122.89 
M 171.93 135.01 172.56 134.65 173.37 133.74 173.89 132.71 173.89 132.08 173.37 131.05 172.56 130.14 171.93 129.79 
M 173.27 144.64 173.89 144.26 174.68 143.28 175.19 142.18 175.19 141.49 174.68 140.39 173.89 139.41 173.27 139.03 
M 174.04 153.48 174.64 153.13 175.4 152.26 175.9 151.27 175.9 150.65 175.4 149.66 174.64 148.78 174.04 148.44 
M 173.02 160.6 173.62 160.32 174.38 159.6 174.87 158.78 174.87 158.27 174.38 157.45 173.62 156.72 173.02 156.44 
M 170.84 164.13 171.1 163.74 171.1 163.28 170.47 162.42 
M 175.35 123.46 176.07 123.19 177 122.49 177.59 121.71 177.59 121.22 177.09 120.56 
M 174.86 131 175.65 130.67 176.67 129.85 177.32 128.91 177.32 128.33 176.67 127.39 175.65 126.56 174.86 126.24 
M 175.51 139.87 176.3 139.51 177.3 138.59 177.95 137.55 177.95 136.9 177.3 135.86 176.3 134.94 175.51 134.58 
M 176.25 148.76 176.95 148.41 177.86 147.52 178.44 146.5 178.44 145.88 177.86 144.86 176.95 143.97 176.25 143.62 
M 173.48 162.54 174.13 162.27 174.96 161.58 175.5 160.8 175.5 160.31 174.96 159.53 174.13 158.85 173.48 158.58 
M 171.2 166.01 171.54 165.54 171.54 165.06 170.85 164.18 
M 178.49 119.94 179.06 119.68 179.59 119.21 
M 177.62 126.9 178.3 126.6 179.18 125.83 179.74 124.95 179.74 124.4 179.18 123.52 178.3 122.75 177.62 122.45 
M 178.01 135.44 178.74 135.09 179.68 134.2 180.28 133.18 180.28 132.55 179.68 131.54 178.74 130.64 178.01 130.29 
M 174.09 164.65 174.6 164.39 175.25 163.73 175.67 162.98 175.67 162.52 175.25 161.78 174.6 161.12 174.09 160.86 
M 171.57 167.94 171.73 167.68 171.73 167.17 171.27 166.41 
M 181.08 123.78 181.87 123.48 182.88 122.72 183.54 121.86 183.54 121.33 182.88 120.47 181.87 119.71 181.08 119.41 
M 181.3 131.9 182.2 131.57 183.34 130.72 184.09 129.75 184.09 129.15 183.34 128.19 182.2 127.34 181.3 127.01 
M 181.74 140.31 182.6 139.98 183.69 139.12 184.39 138.15 184.39 137.55 183.69 136.58 182.6 135.73 181.74 135.39 
M 180.06 155 180.63 154.71 181.36 153.98 181.82 153.14 181.82 152.62 181.36 151.79 180.63 151.05 180.06 150.76 
M 177.71 161.19 178.28 160.92 179.01 160.22 179.48 159.44 179.48 158.95 179.01 158.17 178.28 157.48 177.71 157.21 
M 172.37 183.46 173.07 183.08 174.07 182.02 174.71 180.81 174.71 180.06 174.07 178.85 173.07 177.79 172.29 177.37 
M 183.85 119.96 184.48 119.67 185.28 118.93 185.79 118.1 185.79 117.58 184.86 116.35 
M 184.34 128.3 185.11 127.96 186.09 127.09 186.72 126.1 186.72 125.49 186.09 124.5 185.11 123.63 184.34 123.29 
M 185.23 136.95 186.03 136.62 187.07 135.76 187.73 134.78 187.73 134.17 187.07 133.2 186.03 132.34 185.23 132 
M 184.9 144.43 185.57 144.14 186.43 143.38 186.98 142.52 186.98 141.99 186.43 141.14 185.57 140.38 184.9 140.08 
M 180.94 157.28 181.37 157 181.94 156.3 182.3 155.5 182.3 155 181.94 154.2 181.37 153.5 180.94 153.22 
M 178.28 163.33 178.76 163.06 179.38 162.37 179.78 161.59 179.78 161.1 179.38 160.32 178.76 159.63 178.28 159.36 
M 175.27 169.39 175.86 169.09 176.62 168.33 177.11 167.48 177.11 166.94 176.62 166.09 175.86 165.33 175.27 165.03 
M 174.2 177.94 174.83 177.55 175.64 176.55 176.16 175.42 176.16 174.72 175.64 173.59 174.83 172.59 174.2 172.2 
M 178.02 216.92 179.42 216.57 181.21 215.68 182.36 214.66 182.36 214.04 181.21 213.02 179.42 212.13 178.02 211.78 
M 187.25 116.88 188.03 116.61 189.02 115.92 189.67 115.13 189.67 114.64 189.13 113.99 
M 187.4 124.74 188.27 124.41 189.38 123.57 190.1 122.61 190.1 122.02 189.38 121.07 188.27 120.22 187.4 119.89 
M 188.38 133.44 189.32 133.1 190.52 132.22 191.29 131.23 191.29 130.62 190.52 129.63 189.32 128.76 188.38 128.42 
M 188.43 141.17 189.31 140.86 190.43 140.09 191.15 139.21 191.15 138.66 190.43 137.78 189.31 137 188.43 136.7 
M 186.51 147.25 187.21 146.98 188.1 146.28 188.68 145.5 188.68 145.01 188.1 144.22 187.21 143.53 186.51 143.26 
M 181.5 159.45 182.07 159.17 182.81 158.46 183.29 157.64 183.29 157.14 182.81 156.33 182.07 155.61 181.5 155.33 
M 179.21 166.08 179.87 165.78 180.71 165.03 181.26 164.17 181.26 163.64 180.71 162.79 179.87 162.03 179.21 161.74 
M 177.56 173.75 178.31 173.4 179.27 172.5 179.88 171.48 179.88 170.85 179.27 169.84 178.31 168.94 177.56 168.59 
M 178.2 183.91 178.99 183.48 179.99 182.38 180.64 181.13 180.64 180.36 179.99 179.11 178.99 178.01 178.2 177.58 
M 183.21 215.2 184.56 214.81 186.29 213.82 187.4 212.67 
M 190.37 113.44 191.05 113.2 192.13 112.33 
M 189.95 120.7 190.68 120.38 191.6 119.56 192.2 118.62 192.2 118.05 191.6 117.11 190.68 116.29 189.95 115.97 
M 191.46 130 192.24 129.63 193.24 128.69 193.88 127.63 193.88 126.97 193.24 125.91 192.24 124.97 191.46 124.6 
M 192.5 138.5 193.26 138.18 194.25 137.36 194.88 136.43 194.88 135.85 194.25 134.92 193.26 134.09 192.5 133.77 
M 191.11 144.78 191.78 144.52 192.63 143.85 193.18 143.1 193.18 142.63 192.63 141.87 191.78 141.2 191.11 140.94 
M 187.08 149.07 187.59 148.82 188.25 148.17 188.67 147.44 188.67 146.99 188.25 146.26 187.59 145.62 187.08 145.36 
M 184.25 155.03 184.73 154.75 185.34 154.04 185.73 153.23 185.73 152.73 185.34 151.92 184.73 151.21 184.25 150.93 
M 182.53 162.18 183.05 161.88 183.72 161.13 184.15 160.27 184.15 159.73 183.72 158.87 183.05 158.12 182.53 157.82 
M 180.74 169.42 181.35 169.1 182.13 168.29 182.64 167.37 182.64 166.8 182.13 165.88 181.35 165.06 180.74 164.75 
M 182.29 189.98 182.97 189.51 183.84 188.3 184.4 186.93 184.4 186.08 183.84 184.71 182.97 183.5 182.29 183.03 
M 194.66 111.48 195.54 111.26 196.65 110.68 197.37 110.02 197.24 109.49 
M 193.63 117.76 194.54 117.47 195.7 116.75 196.45 115.92 196.45 115.41 195.7 114.59 194.54 113.87 193.63 113.58 
M 194.2 126.02 195.11 125.68 196.28 124.81 197.03 123.81 197.03 123.2 196.28 122.21 195.11 121.33 194.2 120.99 
M 195.36 134.79 196.25 134.45 197.38 133.58 198.11 132.61 198.11 132 197.38 131.02 196.25 130.15 195.36 129.82 
M 194.96 141.96 195.78 141.68 196.82 140.95 197.5 140.12 197.5 139.6 196.82 138.77 195.78 138.04 194.96 137.76 
M 191.86 146.88 192.57 146.63 193.48 145.97 194.07 145.24 194.07 144.78 193.48 144.04 192.57 143.39 191.86 143.13 
M 188.08 151.67 188.72 151.41 189.54 150.72 190.06 149.95 190.06 149.48 189.54 148.71 188.72 148.02 188.08 147.76 
M 185.83 158.28 186.48 157.99 187.31 157.24 187.85 156.39 187.85 155.86 187.31 155.02 186.48 154.27 185.83 153.97 
M 183.36 174.07 184.15 173.7 185.17 172.76 185.82 171.69 185.82 171.04 185.17 169.97 184.15 169.03 183.36 168.66 
M 184.3 184.51 185.14 184.07 186.2 182.93 186.89 181.64 186.89 180.84 186.2 179.56 185.14 178.42 184.3 177.98 
M 195.77 241.28 194.34 240.8 
M 198.8 109.38 199.55 109.16 200.51 108.62 201.12 108 201.12 107.62 200.95 107.44 
M 197.23 114.75 198.05 114.5 199.09 113.86 199.76 113.14 199.76 112.7 199.09 111.98 198.05 111.34 197.23 111.09 
M 196.98 122.13 197.79 121.81 198.82 120.98 199.48 120.05 199.48 119.47 198.82 118.53 197.79 117.7 196.98 117.38 
M 198.41 131.27 199.14 130.91 200.07 129.99 200.67 128.96 200.67 128.32 200.07 127.28 199.14 126.37 198.41 126.01 
M 199.1 139.38 199.76 139.08 200.61 138.29 201.16 137.41 201.16 136.86 200.61 135.97 199.76 135.19 199.1 134.88 
M 197.15 145.19 197.77 144.93 198.56 144.28 199.07 143.54 199.07 143.08 198.56 142.34 197.77 141.68 197.15 141.43 
M 192.1 148.49 192.67 148.24 193.41 147.6 193.88 146.87 193.88 146.42 193.41 145.69 192.67 145.05 192.1 144.79 
M 188.89 154.1 189.46 153.82 190.18 153.09 190.65 152.27 190.65 151.77 190.18 150.95 189.46 150.23 188.89 149.94 
M 187.63 161.81 188.24 161.5 189.01 160.7 189.51 159.79 189.51 159.22 189.01 158.31 188.24 157.51 187.63 157.2 
M 189.57 190.24 190.38 189.17 190.98 187.75 190.98 186.88 190.38 185.46 189.44 184.21 188.71 183.73 
M 202.78 107.5 203.64 107.28 204.74 106.72 205.45 106.07 205.45 105.68 205.1 105.36 
M 201.69 112.99 202.64 112.75 203.85 112.14 204.64 111.45 204.64 111.03 203.85 110.34 202.64 109.73 201.69 109.49 
M 200.89 119.37 201.87 119.09 203.12 118.37 203.93 117.56 203.93 117.06 203.12 116.25 201.87 115.53 200.89 115.26 
M 201.13 127.2 202.03 126.88 203.18 126.05 203.92 125.12 203.92 124.54 203.18 123.6 202.03 122.78 201.13 122.46 
M 201.71 135.37 202.49 135.06 203.49 134.25 204.14 133.33 204.14 132.76 203.49 131.85 202.49 131.04 201.71 130.72 
M 200.83 142.15 201.55 141.87 202.46 141.17 203.04 140.37 203.04 139.88 202.46 139.08 201.55 138.38 200.83 138.11 
M 197.32 146.72 198.01 146.47 198.9 145.82 199.48 145.09 199.48 144.64 198.9 143.91 198.01 143.26 197.32 143.01 
M 193.28 151.29 193.98 151.02 194.89 150.33 195.47 149.55 195.47 149.07 194.89 148.29 193.98 147.6 193.28 147.34 
M 191.17 158.11 191.92 157.81 192.87 157.03 193.48 156.15 193.48 155.6 192.87 154.72 191.92 153.95 191.17 153.64 
M 190.85 185.53 191.74 185.07 192.89 183.91 193.63 182.59 193.63 181.77 192.89 180.46 191.74 179.29 190.85 178.84 
M 206.4 105.27 207.08 105.04 207.95 104.46 208.37 103.96 
M 205.83 110.96 206.58 110.72 207.55 110.12 208.18 109.44 208.18 109.02 207.55 108.34 206.58 107.74 205.83 107.5 
M 204.92 116.86 205.76 116.61 206.83 115.96 207.53 115.22 207.53 114.77 206.83 114.03 205.76 113.39 204.92 113.13 
M 204.72 131.67 205.37 131.35 206.21 130.54 206.75 129.63 206.75 129.06 206.21 128.14 205.37 127.33 204.72 127.02 
M 204.64 139.18 205.19 138.89 205.9 138.16 206.36 137.33 206.36 136.81 205.9 135.98 205.19 135.25 204.64 134.96 
M 197.57 148.37 198.16 148.11 198.91 147.47 199.4 146.74 199.4 146.29 198.91 145.56 198.16 144.91 197.57 144.66 
M 194.54 154.21 195.17 153.92 195.97 153.17 196.49 152.33 196.49 151.81 195.97 150.97 195.17 150.23 194.54 149.94 
M 201.55 215.79 202.23 215.32 203.09 214.1 203.59 212.89 
M 209.31 108.58 210.14 108.34 211.21 107.72 211.9 107.02 211.9 106.58 211.21 105.88 210.14 105.26 209.31 105.02 
M 208.86 114.65 209.77 114.39 210.94 113.75 211.7 113.02 211.7 112.57 210.94 111.84 209.77 111.2 208.86 110.95 
M 208.25 121.03 209.19 120.76 210.39 120.08 211.17 119.3 211.17 118.82 210.39 118.05 209.19 117.36 208.25 117.1 
M 207.22 135.04 207.91 134.76 208.8 134.03 209.36 133.21 209.36 132.7 208.8 131.88 207.91 131.15 207.22 130.87 
M 205.77 141.4 206.39 141.14 207.18 140.46 207.69 139.7 207.69 139.23 207.18 138.47 206.39 137.8 205.77 137.53 
M 202.44 146.24 203.1 145.99 203.94 145.35 204.48 144.62 204.48 144.17 203.94 143.44 203.1 142.79 202.44 142.54 
M 198.86 151.32 199.58 151.04 200.51 150.34 201.11 149.54 201.11 149.04 200.51 148.24 199.58 147.54 198.86 147.26 
M 196.66 167.12 197.53 166.78 198.63 165.88 199.35 164.88 199.35 164.25 198.63 163.24 197.53 162.35 196.66 162 
M 196.51 176.17 197.43 175.78 198.6 174.78 199.36 173.65 199.36 172.95 198.6 171.82 197.43 170.83 196.51 170.44 
M 197.8 186.88 198.72 186.42 199.9 185.26 200.65 183.93 200.65 183.12 199.9 181.8 198.72 180.63 197.8 180.17 
M 212.5 105.9 213.15 105.65 213.98 105.02 214.52 104.3 214.52 103.86 213.98 103.14 213.15 102.51 212.5 102.26 
M 212.5 112.19 213.2 111.93 214.09 111.27 214.66 110.53 214.66 110.07 214.09 109.32 213.2 108.67 212.5 108.41 
M 212.2 118.58 212.95 118.32 213.91 117.65 214.52 116.9 214.52 116.43 213.91 115.67 212.95 115.01 212.2 114.75 
M 210.4 131.4 211 131.13 211.77 130.44 212.26 129.67 212.26 129.18 211.77 128.4 211 127.72 210.4 127.45 
M 209.15 137.93 209.64 137.66 210.26 136.99 210.67 136.22 210.67 135.75 210.26 134.99 209.64 134.31 209.15 134.05 
M 200.4 154.57 201.03 154.26 201.83 153.48 202.36 152.6 202.36 152.05 201.83 151.16 201.03 150.38 200.4 150.08 
M 200.05 163.3 200.74 162.95 201.62 162.05 202.2 161.03 202.2 160.4 201.62 159.38 200.74 158.48 200.05 158.13 
M 213.91 242.63 213.91 242.34 213.37 241.26 212.53 240.31 211.87 239.94 
M 215.26 102.98 216.01 102.74 216.96 102.11 217.58 101.4 217.58 100.96 217.33 100.68 
M 215.46 109.24 216.24 108.98 217.24 108.33 217.89 107.58 217.89 107.12 217.24 106.38 216.24 105.72 215.46 105.46 
M 215.42 115.68 216.24 115.42 217.29 114.75 217.97 113.99 217.97 113.52 217.29 112.76 216.24 112.09 215.42 111.82 
M 214.98 122.1 215.82 121.84 216.9 121.18 217.59 120.43 217.59 119.96 216.9 119.21 215.82 118.54 214.98 118.28 
M 212.13 134.14 212.78 133.89 213.62 133.24 214.16 132.5 214.16 132.04 213.62 131.3 212.78 130.65 212.13 130.4 
M 210.06 140.03 210.65 139.78 211.41 139.13 211.9 138.39 211.9 137.93 211.41 137.2 210.65 136.55 210.06 136.29 
M 207.22 145.46 207.86 145.21 208.68 144.55 209.21 143.81 209.21 143.35 208.68 142.6 207.86 141.95 207.22 141.69 
M 204.4 151.34 205.11 151.06 206.03 150.32 206.62 149.49 206.62 148.97 206.03 148.14 205.11 147.41 204.4 147.12 
M 203.22 159.19 203.99 158.86 204.98 157.99 205.61 157.02 205.61 156.41 204.98 155.43 203.99 154.57 203.22 154.23 
M 204.68 188.11 205.55 187.66 206.66 186.51 207.38 185.21 207.38 184.4 206.66 183.1 205.55 181.95 204.68 181.5 
M 218.32 106.19 218.94 105.93 219.74 105.28 220.25 104.53 220.25 104.07 219.74 103.33 218.94 102.67 218.32 102.42 
M 218.53 112.68 219.16 112.41 219.98 111.73 220.5 110.96 220.5 110.48 219.98 109.71 219.16 109.03 218.53 108.77 
M 218.47 119.29 219.12 119.03 219.96 118.35 220.5 117.57 220.5 117.1 219.96 116.32 219.12 115.64 218.47 115.38 
M 217.8 125.59 218.46 125.34 219.3 124.7 219.84 123.98 219.84 123.53 219.3 122.8 218.46 122.16 217.8 121.91 
M 215.75 130.93 216.33 130.69 217.07 130.08 217.55 129.39 217.55 128.96 217.07 128.27 216.33 127.66 215.75 127.42 
M 213.25 136.32 213.75 136.07 214.39 135.44 214.8 134.72 214.8 134.27 214.39 133.55 213.75 132.92 213.25 132.67 
M 211 142.24 211.5 141.98 212.14 141.33 212.56 140.59 212.56 140.13 212.14 139.39 211.5 138.74 211 138.49 
M 208.15 147.85 208.71 147.59 209.44 146.9 209.91 146.13 209.91 145.65 209.44 144.87 208.71 144.19 208.15 143.92 
M 206.14 154.83 206.75 154.51 207.52 153.69 208.02 152.76 208.02 152.18 207.52 151.25 206.75 150.43 206.14 150.11 
M 206.28 164.08 206.93 163.71 207.75 162.76 208.28 161.68 208.28 161.01 207.75 159.94 206.93 158.98 206.28 158.61 
M 220.88 103.04 221.59 102.79 222.51 102.15 223.11 101.42 223.11 100.97 222.51 100.24 221.24 99.48 
M 221.23 109.45 221.97 109.19 222.91 108.51 223.51 107.75 223.51 107.28 222.91 106.52 221.97 105.85 221.23 105.59 
M 221.33 116.02 222.08 115.75 223.03 115.07 223.65 114.3 223.65 113.82 223.03 113.04 222.08 112.36 221.33 112.09 
M 220.98 122.48 221.73 122.22 222.69 121.56 223.32 120.81 223.32 120.35 222.69 119.61 221.73 118.95 220.98 118.69 
M 219.52 128.18 220.25 127.94 221.18 127.32 221.78 126.62 221.78 126.19 221.18 125.49 220.25 124.88 219.52 124.64 
M 217.01 133.32 217.69 133.08 218.57 132.46 219.13 131.77 219.13 131.33 218.57 130.64 217.69 130.02 217.01 129.78 
M 214.51 138.87 215.17 138.62 216.01 137.97 216.55 137.24 216.55 136.79 216.01 136.06 215.17 135.42 214.51 135.17 
M 212.07 144.76 212.74 144.5 213.59 143.82 214.14 143.06 214.14 142.59 213.59 141.82 212.74 141.15 212.07 140.88 
M 209.79 151.21 210.48 150.91 211.37 150.15 211.95 149.29 211.95 148.76 211.37 147.89 210.48 147.13 209.79 146.83 
M 208.95 159.42 209.67 159.07 210.59 158.18 211.18 157.16 211.18 156.53 210.59 155.52 209.67 154.62 208.95 154.27 
M 209.36 168.82 210.11 168.45 211.07 167.48 211.69 166.39 211.69 165.71 211.07 164.62 210.11 163.65 209.36 163.27 
M 223.37 99.84 223.95 99.59 224.98 98.54 
M 223.9 106.2 224.5 105.94 225.26 105.27 225.75 104.52 225.75 104.05 225.26 103.3 224.5 102.63 223.9 102.37 
M 224.17 112.73 224.77 112.46 225.54 111.78 226.04 111 226.04 110.52 225.54 109.75 224.77 109.06 224.17 108.79 
M 223.49 125.65 224.09 125.4 224.85 124.77 225.35 124.06 225.35 123.62 224.85 122.9 224.09 122.27 223.49 122.03 
M 221.04 130.56 221.64 130.33 222.4 129.74 222.89 129.08 222.89 128.66 222.4 128 221.64 127.41 221.04 127.18 
M 218.01 135.46 218.61 135.21 219.37 134.59 219.87 133.88 219.87 133.44 219.37 132.73 218.61 132.11 218.01 131.87 
M 215.79 141.46 216.37 141.2 217.12 140.54 217.61 139.79 217.61 139.32 217.12 138.57 216.37 137.91 215.79 137.65 
M 213.34 147.5 213.91 147.22 214.64 146.52 215.11 145.73 215.11 145.24 214.64 144.45 213.91 143.74 213.34 143.47 
M 211.52 154.66 212.09 154.33 212.82 153.49 213.29 152.54 213.29 151.96 212.82 151 212.09 150.17 211.52 149.84 
M 212.74 183.05 213.36 182.63 214.15 181.56 214.67 180.36 214.67 179.61 214.15 178.4 213.36 177.33 212.74 176.92 
M 218.18 214.96 218.82 214.58 219.64 213.59 219.9 213.04 
M 226.26 102.86 226.95 102.61 227.82 101.95 228.39 101.21 228.39 100.75 227.82 100.01 226.95 99.36 226.26 99.1 
M 226.72 109.36 227.42 109.1 228.31 108.42 228.89 107.65 228.89 107.17 228.31 106.4 227.42 105.72 226.72 105.45 
M 226.87 115.96 227.57 115.7 228.48 115.01 229.06 114.23 229.06 113.75 228.48 112.98 227.57 112.29 226.87 112.03 
M 226.5 122.4 227.21 122.14 228.11 121.48 228.69 120.74 228.69 120.28 228.11 119.54 227.21 118.88 226.5 118.62 
M 225.01 128.07 225.74 127.83 226.66 127.22 227.26 126.52 227.26 126.09 226.66 125.39 225.74 124.78 225.01 124.54 
M 222.48 133.18 223.24 132.94 224.23 132.32 224.86 131.63 224.86 131.2 224.23 130.51 223.24 129.9 222.48 129.66 
M 219.91 138.66 220.69 138.41 221.68 137.77 222.33 137.05 222.33 136.6 221.68 135.87 220.69 135.23 219.91 134.98 
M 217.36 144.45 218.09 144.19 219.02 143.52 219.62 142.76 219.62 142.28 219.02 141.52 218.09 140.85 217.36 140.59 
M 215.02 150.84 215.7 150.55 216.57 149.78 217.13 148.92 217.13 148.39 216.57 147.53 215.7 146.76 215.02 146.47 
M 214.71 168.63 215.39 168.24 216.26 167.26 216.82 166.15 216.82 165.46 216.26 164.35 215.39 163.36 214.71 162.98 
M 215.3 178.29 216.02 177.88 216.94 176.83 217.54 175.65 217.54 174.91 216.94 173.73 216.02 172.68 215.3 172.27 
M 217.3 188.75 218.6 187.42 219.27 186.1 219.27 185.28 218.6 183.96 217.58 182.79 216.78 182.34 
M 228.56 99.46 229.1 99.21 229.8 98.57 230.25 97.84 230.18 97.27 
M 229.21 105.95 229.78 105.68 230.49 105 230.96 104.24 230.96 103.76 230.49 102.99 229.78 102.31 229.21 102.05 
M 229.59 112.57 230.16 112.3 230.9 111.61 231.37 110.82 231.37 110.34 230.9 109.56 230.16 108.87 229.59 108.6 
M 229.56 119.18 230.13 118.91 230.87 118.23 231.34 117.46 231.34 116.98 230.87 116.21 230.13 115.53 229.56 115.27 
M 228.82 125.39 229.39 125.15 230.12 124.51 230.59 123.79 230.59 123.35 230.12 122.63 229.39 121.99 228.82 121.74 
M 226.71 130.68 227.35 130.45 228.17 129.84 228.7 129.15 228.7 128.73 228.17 128.04 227.35 127.44 226.71 127.2 
M 224.15 136 224.87 135.76 225.79 135.13 226.39 134.42 226.39 133.98 225.79 133.27 224.87 132.64 224.15 132.39 
M 221.7 141.72 222.39 141.46 223.27 140.82 223.83 140.09 223.83 139.64 223.27 138.92 222.39 138.27 221.7 138.02 
M 218.63 147.12 219.21 146.85 219.95 146.18 220.43 145.41 220.43 144.93 219.95 144.16 219.21 143.49 218.63 143.22 
M 216.59 154.1 217.13 153.77 217.83 152.95 218.28 152.01 218.28 151.43 217.83 150.49 217.13 149.66 216.59 149.34 
M 218.33 183.24 218.96 182.79 219.78 181.66 220.31 180.37 220.31 179.57 219.78 178.28 218.96 177.15 218.33 176.7 
M 221.95 188.66 221.16 188.13 
M 231.32 102.37 231.97 102.11 232.8 101.44 233.34 100.68 233.34 100.21 232.8 99.45 231.97 98.78 231.32 98.52 
M 231.92 108.99 232.58 108.72 233.44 108.03 233.98 107.25 233.98 106.76 233.44 105.98 232.58 105.29 231.92 105.02 
M 232.12 115.63 232.8 115.36 233.66 114.67 234.21 113.89 234.21 113.41 233.66 112.63 232.8 111.95 232.12 111.68 
M 231.75 122.07 232.43 121.81 233.29 121.15 233.85 120.39 233.85 119.92 233.29 119.17 232.43 118.5 231.75 118.24 
M 230.57 128.11 231.3 127.86 232.23 127.21 232.83 126.48 232.83 126.03 232.23 125.3 231.3 124.66 230.57 124.4 
M 228.69 133.85 229.52 133.61 230.59 132.97 231.27 132.25 231.27 131.8 230.59 131.08 229.52 130.44 228.69 130.19 
M 226.33 139.46 227.19 139.21 228.3 138.57 229.02 137.85 229.02 137.41 228.3 136.69 227.19 136.05 226.33 135.81 
M 223.16 144.58 223.93 144.33 224.92 143.68 225.56 142.95 225.56 142.49 224.92 141.76 223.93 141.11 223.16 140.85 
M 220.18 150.34 220.85 150.05 221.71 149.31 222.27 148.47 222.27 147.95 221.71 147.11 220.85 146.37 220.18 146.08 
M 219.14 158.42 219.79 158.07 220.62 157.17 221.15 156.15 221.15 155.53 220.62 154.51 219.79 153.61 219.14 153.26 
M 219.67 168.07 220.33 167.68 221.17 166.67 221.72 165.52 221.72 164.81 221.17 163.67 220.33 162.66 219.67 162.26 
M 220.74 178.36 221.48 177.92 222.43 176.79 223.04 175.52 223.04 174.73 222.43 173.45 221.48 172.32 220.74 171.88 
M 224.83 188.6 225.85 186.86 225.85 185.98 225.12 184.56 223.99 183.31 223.11 182.82 
M 233.34 98.7 233.86 98.44 234.53 97.78 234.96 97.04 234.92 96.51 
M 234.17 105.36 234.71 105.09 235.39 104.39 235.83 103.6 235.83 103.11 235.39 102.32 234.71 101.62 234.17 101.35 
M 234.7 112.1 235.25 111.83 235.95 111.13 236.4 110.34 236.4 109.85 235.95 109.06 235.25 108.36 234.7 108.09 
M 234.65 118.68 235.2 118.41 235.9 117.73 236.36 116.96 236.36 116.48 235.9 115.71 235.2 115.02 234.65 114.76 
M 233.97 125.05 234.54 124.79 235.26 124.12 235.72 123.36 235.72 122.89 235.26 122.13 234.54 121.46 233.97 121.2 
M 232.76 131.3 233.42 131.04 234.26 130.38 234.8 129.62 234.8 129.15 234.26 128.4 233.42 127.73 232.76 127.47 
M 231.13 137.43 231.89 137.18 232.86 136.53 233.48 135.8 233.48 135.34 232.86 134.61 231.89 133.96 231.13 133.71 
M 228.33 142.68 229.05 142.44 229.97 141.81 230.56 141.11 230.56 140.67 229.97 139.96 229.05 139.34 228.33 139.1 
M 224 146.82 224.58 146.57 225.33 145.91 225.81 145.18 225.81 144.72 225.33 143.98 224.58 143.33 224 143.07 
M 222.6 172.83 223.17 172.41 223.9 171.33 224.37 170.1 224.37 169.34 223.9 168.11 223.17 167.03 222.6 166.6 
M 236.11 101.6 236.75 101.33 237.56 100.65 238.09 99.87 238.09 99.39 237.56 98.62 236.75 97.93 236.11 97.67 
M 236.85 108.37 237.51 108.09 238.34 107.39 238.88 106.59 238.88 106.1 238.34 105.3 237.51 104.6 236.85 104.32 
M 237.13 115.06 237.79 114.79 238.64 114.09 239.18 113.31 239.18 112.82 238.64 112.03 237.79 111.34 237.13 111.06 
M 236.83 121.63 237.5 121.36 238.36 120.67 238.92 119.88 238.92 119.4 238.36 118.61 237.5 117.92 236.83 117.65 
M 236.16 128.25 236.89 127.98 237.83 127.28 238.43 126.49 238.43 126 237.83 125.21 236.89 124.52 236.16 124.24 
M 235.13 134.82 235.95 134.55 237.01 133.87 237.69 133.1 237.69 132.62 237.01 131.85 235.95 131.17 235.13 130.91 
M 233.03 140.58 233.88 140.33 234.97 139.68 235.67 138.95 235.67 138.5 234.97 137.77 233.88 137.13 233.03 136.88 
M 225.3 149.83 225.97 149.55 226.83 148.82 227.39 147.99 227.39 147.48 226.83 146.66 225.97 145.93 225.3 145.64 
M 226.58 178.93 227.39 178.45 228.44 177.2 229.11 175.79 229.11 174.92 228.44 173.51 227.39 172.26 226.58 171.77 
M 237.97 97.77 238.5 97.51 239.18 96.84 239.62 95.83 
M 238.94 104.58 239.48 104.3 240.17 103.59 240.62 102.78 240.62 102.28 240.17 101.47 239.48 100.76 238.94 100.48 
M 239.6 111.43 240.15 111.16 240.86 110.45 241.31 109.65 241.31 109.15 240.86 108.35 240.15 107.65 239.6 107.37 
M 239.57 118.03 240.12 117.76 240.84 117.06 241.29 116.28 241.29 115.79 240.84 115.01 240.12 114.31 239.57 114.04 
M 239.12 124.75 239.7 124.47 240.44 123.75 240.91 122.93 240.91 122.43 240.44 121.61 239.7 120.89 239.12 120.61 
M 238.78 131.91 239.42 131.63 240.24 130.89 240.76 130.06 240.76 129.54 240.24 128.71 239.42 127.98 238.78 127.69 
M 237.86 138.62 238.55 138.36 239.43 137.69 240 136.92 240 136.45 239.43 135.69 238.55 135.02 237.86 134.76 
M 234.8 143.58 235.47 143.33 236.32 142.7 236.87 141.98 236.87 141.54 236.32 140.82 235.47 140.19 234.8 139.94 
M 229.33 146.56 229.91 146.31 230.65 145.65 231.13 144.91 231.13 144.45 230.65 143.71 229.91 143.05 229.33 142.8 
M 226.37 152.6 226.91 152.28 227.61 151.49 228.07 150.58 228.07 150.02 227.61 149.12 226.91 148.32 226.37 148.01 
M 238.55 209.88 239.34 209.46 240.35 208.4 240.8 207.56 
M 240.66 241.03 239.85 239.86 239.31 239.5 
M 240.96 100.9 241.63 100.62 242.49 99.93 243.05 99.14 243.05 98.65 242.49 97.86 241.63 97.16 240.96 96.89 
M 241.83 107.78 242.51 107.5 243.39 106.79 243.95 105.98 243.95 105.47 243.39 104.66 242.51 103.95 241.83 103.67 
M 242.19 114.55 242.88 114.28 243.77 113.57 244.34 112.77 244.34 112.27 243.77 111.48 242.88 110.77 242.19 110.49 
M 242.01 121.28 242.72 121 243.62 120.29 244.2 119.47 244.2 118.97 243.62 118.16 242.72 117.45 242.01 117.17 
M 241.74 128.35 242.46 128.06 243.4 127.32 244 126.48 244 125.97 243.4 125.13 242.46 124.39 241.74 124.1 
M 241.22 135.39 241.97 135.11 242.94 134.4 243.57 133.6 243.57 133.1 242.94 132.29 241.97 131.58 241.22 131.31 
M 239.23 141.21 239.99 140.96 240.97 140.3 241.59 139.56 241.59 139.1 240.97 138.36 239.99 137.7 239.23 137.44 
M 230.45 149.4 231.16 149.11 232.07 148.38 232.66 147.54 232.66 147.03 232.07 146.2 231.16 145.46 230.45 145.18 
M 229.14 157.32 229.87 156.96 230.8 156.03 231.4 154.97 231.4 154.32 230.8 153.27 229.87 152.33 229.14 151.97 
M 230.34 167.95 231.13 167.5 232.14 166.34 232.79 165.04 232.79 164.23 232.14 162.92 231.13 161.77 230.34 161.32 
M 241.5 239.91 242.17 239.56 243.02 238.66 243.57 237.64 243.57 237.01 243.02 235.99 242.17 235.09 241.5 234.74 
M 242.94 97.16 243.52 96.89 244.26 96.22 244.74 95.45 244.74 95.19 
M 244 104.08 244.59 103.8 245.34 103.07 245.83 102.25 245.83 101.74 245.34 100.92 244.59 100.19 244 99.91 
M 244.77 111.03 245.37 110.75 246.13 110.03 246.62 109.22 246.62 108.72 246.13 107.91 245.37 107.19 244.77 106.91 
M 244.81 117.71 245.42 117.44 246.2 116.73 246.7 115.93 246.7 115.43 246.2 114.63 245.42 113.93 244.81 113.65 
M 244.54 124.63 245.15 124.34 245.94 123.6 246.44 122.76 246.44 122.24 245.94 121.4 245.15 120.65 244.54 120.36 
M 244.5 132.1 245.1 131.8 245.87 131.04 246.37 130.19 246.37 129.66 245.87 128.8 245.1 128.04 244.5 127.74 
M 243.74 138.92 244.33 138.65 245.08 137.98 245.57 137.21 245.57 136.74 245.08 135.97 244.33 135.29 243.74 135.03 
M 240.54 143.74 241.13 143.49 241.88 142.85 242.36 142.12 242.36 141.67 241.88 140.94 241.13 140.3 240.54 140.05 
M 234.6 146.26 235.21 146 236 145.33 236.51 144.58 236.51 144.11 236 143.36 235.21 142.7 234.6 142.44 
M 231.48 152.18 232.12 151.86 232.94 151.04 233.46 150.11 233.46 149.53 232.94 148.6 232.12 147.78 231.48 147.46 
M 232.15 162.36 232.81 161.93 233.66 160.84 234.21 159.6 234.21 158.84 233.66 157.6 232.81 156.51 232.15 156.08 
M 238.62 187.7 239.45 187.12 240.51 185.64 241.19 183.96 241.19 182.92 240.51 181.24 239.45 179.76 238.62 179.18 
M 246.31 100.67 247.05 100.39 247.99 99.69 248.6 98.89 248.6 98.4 247.99 97.6 247.05 96.89 246.31 96.62 
M 247.26 107.64 248 107.35 248.96 106.63 249.57 105.81 249.57 105.3 248.96 104.48 248 103.75 247.26 103.47 
M 247.71 114.5 248.47 114.22 249.43 113.51 250.06 112.7 250.06 112.19 249.43 111.38 248.47 110.67 247.71 110.39 
M 247.61 121.28 248.37 121 249.34 120.28 249.97 119.47 249.97 118.97 249.34 118.15 248.37 117.43 247.61 117.15 
M 246.67 135.21 247.35 134.94 248.22 134.24 248.78 133.44 248.78 132.95 248.22 132.16 247.35 131.46 246.67 131.18 
M 244.61 140.97 245.28 140.72 246.13 140.07 246.68 139.33 246.68 138.88 246.13 138.14 245.28 137.49 244.61 137.24 
M 240.33 144.94 241.07 144.68 242.02 144.04 242.63 143.31 242.63 142.86 242.02 142.12 241.07 141.48 240.33 141.23 
M 236.18 149.56 237.02 149.27 238.1 148.52 238.79 147.68 238.79 147.16 238.1 146.32 237.02 145.58 236.18 145.29 
M 235.09 157.77 235.96 157.39 237.07 156.42 237.79 155.33 237.79 154.65 237.07 153.56 235.96 152.59 235.09 152.21 
M 247.75 206.45 248.61 206 248.98 205.61 
M 248.6 97.23 249.24 96.96 250.07 96.28 250.6 95.51 250.6 95.03 250.31 94.61 
M 249.71 104.2 250.36 103.92 251.19 103.19 251.72 102.36 251.72 101.84 251.19 101.01 250.36 100.28 249.71 100 
M 250.55 111.24 251.2 110.96 252.04 110.23 252.57 109.4 252.57 108.89 252.04 108.07 251.2 107.34 250.55 107.06 
M 250.71 118.01 251.37 117.74 252.22 117.03 252.77 116.23 252.77 115.73 252.22 114.93 251.37 114.22 250.71 113.94 
M 249.83 131.7 250.4 131.42 251.13 130.71 251.6 129.9 251.6 129.4 251.13 128.59 250.4 127.88 249.83 127.6 
M 248.61 138.14 249.12 137.88 249.77 137.22 250.19 136.48 250.19 136.02 249.77 135.27 249.12 134.61 248.61 134.35 
M 245.54 143.09 246.08 142.85 246.78 142.23 247.22 141.52 247.22 141.08 246.78 140.38 246.08 139.76 245.54 139.51 
M 240.64 146.66 241.36 146.41 242.3 145.75 242.9 145.01 242.9 144.55 242.3 143.81 241.36 143.16 240.64 142.9 
M 238.01 153.14 238.83 152.81 239.87 151.98 240.55 151.03 240.55 150.45 239.87 149.5 238.83 148.67 238.01 148.34 
M 238.71 163.4 239.5 162.97 240.5 161.84 241.15 160.57 241.15 159.79 240.5 158.52 239.5 157.4 238.71 156.96 
M 247.06 188.52 247.85 187.4 248.52 185.74 248.52 184.71 247.85 183.05 246.82 181.58 246.01 181.01 
M 251.61 211.46 252.27 211.08 253.11 210.11 253.66 209.01 253.66 208.33 253.11 207.23 252.27 206.26 251.61 205.88 
M 248.73 234.39 249.25 234.06 249.91 233.22 250.33 232.27 250.33 231.69 249.91 230.74 249.25 229.9 248.73 229.57 
M 252.24 101 253.03 100.73 254.05 100.02 254.7 99.22 254.7 98.72 254.05 97.92 253.03 97.21 252.24 96.93 
M 253.22 108.01 254.01 107.73 255.03 106.99 255.68 106.17 255.68 105.65 255.03 104.83 254.01 104.1 253.22 103.81 
M 253.74 114.94 254.54 114.66 255.56 113.94 256.22 113.12 256.22 112.62 255.56 111.81 254.54 111.09 253.74 110.81 
M 253.63 121.65 254.43 121.38 255.45 120.68 256.11 119.89 256.11 119.4 255.45 118.6 254.43 117.9 253.63 117.63 
M 252.91 128.16 253.65 127.9 254.6 127.21 255.22 126.44 255.22 125.96 254.6 125.19 253.65 124.5 252.91 124.24 
M 249.34 140.09 249.97 139.83 250.79 139.19 251.32 138.46 251.32 138.01 250.79 137.28 249.97 136.64 249.34 136.39 
M 243.14 150.94 244.14 150.65 245.43 149.89 246.26 149.04 246.26 148.51 245.43 147.65 244.14 146.9 243.14 146.6 
M 242.27 159.33 243.3 158.95 244.62 157.99 245.47 156.9 245.47 156.22 244.62 155.13 243.3 154.16 242.27 153.79 
M 254.77 97.8 255.44 97.54 256.31 96.85 256.86 96.07 256.86 95.59 256.05 94.62 
M 255.88 104.77 256.55 104.49 257.42 103.75 257.97 102.92 257.97 102.41 257.42 101.58 256.55 100.85 255.88 100.56 
M 256.73 111.83 257.4 111.54 258.26 110.81 258.81 109.98 258.81 109.47 258.26 108.64 257.4 107.91 256.73 107.62 
M 256.98 118.67 257.65 118.39 258.52 117.69 259.08 116.89 259.08 116.39 258.52 115.59 257.65 114.88 256.98 114.61 
M 256.48 125.14 257.15 124.88 258.01 124.22 258.56 123.46 258.56 122.99 258.01 122.24 257.15 121.57 256.48 121.31 
M 254.98 131.03 255.56 130.78 256.31 130.15 256.79 129.43 256.79 128.98 256.31 128.26 255.56 127.62 254.98 127.37 
M 252.8 136.68 253.3 136.43 253.95 135.79 254.36 135.07 254.36 134.62 253.95 133.9 253.3 133.26 252.8 133.01 
M 247.8 148.36 248.65 148.08 249.72 147.38 250.42 146.59 250.42 146.1 249.72 145.3 248.65 144.6 247.8 144.33 
M 246.11 155.62 247.07 155.29 248.29 154.46 249.08 153.52 249.08 152.93 248.29 151.99 247.07 151.16 246.11 150.83 
M 246.24 165.16 247.12 164.74 248.24 163.67 248.97 162.46 248.97 161.72 248.24 160.51 247.12 159.44 246.24 159.02 
M 253.21 233.25 253.72 232.93 254.37 232.09 254.8 231.15 254.8 230.57 254.37 229.62 253.72 228.79 253.21 228.47 
M 257.39 94.95 258.29 94.62 
M 258.41 101.57 259.21 101.3 260.24 100.59 260.9 99.79 260.9 99.29 260.24 98.49 259.21 97.78 258.41 97.5 
M 259.38 108.57 260.17 108.28 261.19 107.55 261.85 106.72 261.85 106.21 261.19 105.38 260.17 104.65 259.38 104.37 
M 259.91 115.51 260.71 115.23 261.73 114.51 262.39 113.69 262.39 113.19 261.73 112.38 260.71 111.66 259.91 111.38 
M 259.8 122.16 260.6 121.9 261.62 121.21 262.28 120.44 262.28 119.96 261.62 119.19 260.6 118.51 259.8 118.24 
M 258.65 128.17 259.42 127.92 260.4 127.28 261.04 126.56 261.04 126.11 260.4 125.39 259.42 124.75 258.65 124.51 
M 256.46 133.61 257.17 133.37 258.08 132.73 258.67 132.02 258.67 131.58 258.08 130.86 257.17 130.23 256.46 129.98 
M 254.21 139.46 254.93 139.2 255.87 138.52 256.47 137.75 256.47 137.27 255.87 136.5 254.93 135.83 254.21 135.56 
M 251.07 153.38 252.17 153.07 253.58 152.28 254.49 151.37 254.49 150.81 253.58 149.91 252.17 149.11 251.07 148.8 
M 250.35 161.71 251.47 161.35 252.9 160.41 253.82 159.35 253.82 158.7 252.9 157.64 251.47 156.7 250.35 156.34 
M 251.35 172.17 252.39 171.72 253.72 170.55 254.57 169.23 254.57 168.41 253.72 167.09 252.39 165.92 251.35 165.46 
M 260.96 98.39 261.61 98.12 262.45 97.44 263 96.66 263 96.18 262.07 95.09 
M 262.05 105.33 262.71 105.04 263.55 104.31 264.09 103.49 264.09 102.98 263.55 102.15 262.71 101.43 262.05 101.14 
M 262.85 112.34 263.5 112.05 264.33 111.32 264.87 110.5 264.87 109.98 264.33 109.16 263.5 108.43 262.85 108.14 
M 263.11 119.2 263.76 118.92 264.6 118.22 265.13 117.41 265.13 116.92 264.6 116.12 263.76 115.41 263.11 115.13 
M 262.63 125.64 263.3 125.39 264.15 124.74 264.7 124.01 264.7 123.55 264.15 122.82 263.3 122.17 262.63 121.92 
M 260.51 130.85 261.16 130.62 261.99 130.02 262.53 129.35 262.53 128.93 261.99 128.25 261.16 127.65 260.51 127.42 
M 257.56 135.88 258.19 135.63 259 134.98 259.52 134.24 259.52 133.78 259 133.04 258.19 132.39 257.56 132.14 
M 256.08 142.85 256.79 142.55 257.71 141.78 258.3 140.91 258.3 140.37 257.71 139.5 256.79 138.73 256.08 138.43 
M 255.64 150.91 256.53 150.59 257.67 149.77 258.41 148.85 258.41 148.27 257.67 147.35 256.53 146.53 255.64 146.21 
M 254.74 158.65 255.71 158.32 256.96 157.49 257.76 156.54 257.76 155.95 256.96 155 255.71 154.16 254.74 153.84 
M 254.3 167.41 255.22 167.02 256.4 166.02 257.17 164.89 257.17 164.19 256.4 163.06 255.22 162.06 254.3 161.67 
M 256.14 178.86 256.99 178.37 258.07 177.1 258.77 175.67 258.77 174.79 258.07 173.35 256.99 172.09 256.14 171.59 
M 259.85 225.36 260.45 225.09 261.21 224.38 261.7 223.57 261.7 223.08 261.21 222.27 260.45 221.56 259.85 221.29 
M 257.92 232.4 258.48 232.07 259.21 231.23 259.67 230.27 259.67 229.68 259.21 228.73 258.48 227.88 257.92 227.55 
M 263.39 95.38 263.62 95.3 
M 264.44 102 265.21 101.72 266.19 101.01 266.82 100.21 266.82 99.71 266.19 98.91 265.21 98.2 264.44 97.93 
M 265.39 108.97 266.15 108.68 267.14 107.95 267.77 107.13 267.77 106.62 267.14 105.79 266.15 105.06 265.39 104.78 
M 265.9 115.89 266.67 115.61 267.65 114.89 268.28 114.08 268.28 113.57 267.65 112.76 266.67 112.04 265.9 111.76 
M 265.84 122.6 266.61 122.34 267.6 121.65 268.24 120.88 268.24 120.4 267.6 119.62 266.61 118.94 265.84 118.67 
M 264.67 128.56 265.46 128.32 266.49 127.69 267.15 126.97 267.15 126.53 266.49 125.81 265.46 125.18 264.67 124.94 
M 262.29 133.85 263.12 133.61 264.19 132.97 264.88 132.25 264.88 131.8 264.19 131.08 263.12 130.44 262.29 130.19 
M 260.3 140.11 261.2 139.82 262.35 139.09 263.09 138.26 263.09 137.75 262.35 136.91 261.2 136.18 260.3 135.89 
M 259.66 147.96 260.67 147.64 261.97 146.82 262.81 145.89 262.81 145.31 261.97 144.38 260.67 143.56 259.66 143.24 
M 258.63 164.32 259.77 163.96 261.23 163.05 262.16 162.02 262.16 161.38 261.23 160.35 259.77 159.43 258.63 159.08 
M 261.71 186.03 262.69 185.54 263.94 184.3 264.75 182.89 264.75 182.01 263.94 180.6 262.69 179.35 261.71 178.87 
M 261.72 228.91 262.46 228.6 263.42 227.83 264.03 226.95 264.03 226.41 263.42 225.53 262.46 224.76 261.72 224.46 
M 266.82 98.67 267.43 98.4 268.23 97.7 268.74 96.92 268.74 96.43 268.41 95.93 
M 267.94 105.62 268.57 105.33 269.36 104.6 269.88 103.78 269.88 103.27 269.36 102.44 268.57 101.71 267.94 101.43 
M 268.7 112.58 269.33 112.3 270.13 111.57 270.64 110.75 270.64 110.24 270.13 109.42 269.33 108.69 268.7 108.41 
M 268.94 119.46 269.57 119.18 270.37 118.46 270.88 117.65 270.88 117.15 270.37 116.34 269.57 115.62 268.94 115.34 
M 268.66 126.11 269.3 125.85 270.12 125.19 270.65 124.43 270.65 123.97 270.12 123.21 269.3 122.54 268.66 122.28 
M 266.86 131.65 267.57 131.41 268.47 130.79 269.06 130.1 269.06 129.67 268.47 128.97 267.57 128.36 266.86 128.12 
M 264.23 137.03 265.02 136.77 266.03 136.08 266.68 135.31 266.68 134.83 266.03 134.05 265.02 133.37 264.23 133.1 
M 263.34 144.68 264.2 144.35 265.3 143.52 266.01 142.59 266.01 142 265.3 141.06 264.2 140.23 263.34 139.91 
M 263.6 153.4 264.5 153.06 265.66 152.2 266.41 151.21 266.41 150.6 265.66 149.62 264.5 148.75 263.6 148.41 
M 263.03 161.35 263.97 161.02 265.18 160.18 265.95 159.22 265.95 158.62 265.18 157.66 263.97 156.82 263.03 156.49 
M 268.32 219.66 268.96 219.36 269.78 218.58 270.3 217.71 270.3 217.16 269.78 216.29 268.96 215.51 268.32 215.21 
M 265.61 225.5 266.28 225.22 267.13 224.52 267.68 223.73 267.68 223.24 267.13 222.45 266.28 221.74 265.61 221.47 
M 270.15 102.13 270.88 101.85 271.82 101.14 272.42 100.33 272.42 99.82 271.82 99.02 270.88 98.3 270.15 98.02 
M 271.12 109.11 271.86 108.82 272.8 108.09 273.4 107.26 273.4 106.75 272.8 105.93 271.86 105.2 271.12 104.91 
M 271.64 116.04 272.37 115.76 273.32 115.03 273.93 114.21 273.93 113.71 273.32 112.89 272.37 112.16 271.64 111.88 
M 271.66 122.87 272.4 122.6 273.36 121.9 273.98 121.1 273.98 120.61 273.36 119.81 272.4 119.11 271.66 118.84 
M 270.84 129.23 271.64 128.97 272.66 128.3 273.33 127.55 273.33 127.08 272.66 126.33 271.64 125.67 270.84 125.41 
M 269.06 135.13 269.97 134.87 271.13 134.19 271.88 133.43 271.88 132.95 271.13 132.19 269.97 131.51 269.06 131.24 
M 267.47 150.25 268.52 149.92 269.88 149.06 270.75 148.09 270.75 147.49 269.88 146.52 268.52 145.66 267.47 145.33 
M 266.93 166.99 268.05 166.64 269.49 165.73 270.42 164.69 270.42 164.06 269.49 163.02 268.05 162.11 266.93 161.76 
M 267.31 176.56 268.42 176.16 269.84 175.11 270.76 173.92 270.76 173.19 269.84 172 268.42 170.96 267.31 170.55 
M 270.06 222.9 270.85 222.61 271.87 221.86 272.53 221.01 272.53 220.49 271.87 219.64 270.85 218.89 270.06 218.6 
M 272.33 98.62 272.92 98.34 273.68 97.64 274.16 96.84 274.16 96.6 
M 273.53 105.62 274.12 105.33 274.89 104.6 275.38 103.77 275.38 103.25 274.89 102.42 274.12 101.69 273.53 101.4 
M 274.32 112.61 274.92 112.32 275.69 111.59 276.19 110.77 276.19 110.25 275.69 109.43 274.92 108.7 274.32 108.41 
M 274.58 119.52 275.19 119.24 275.97 118.51 276.47 117.69 276.47 117.18 275.97 116.36 275.19 115.64 274.58 115.35 
M 274.44 126.4 275.07 126.13 275.86 125.43 276.38 124.63 276.38 124.14 275.86 123.34 275.07 122.64 274.44 122.37 
M 273.38 132.74 274.09 132.47 274.98 131.8 275.56 131.04 275.56 130.56 274.98 129.8 274.09 129.13 273.38 128.86 
M 271.78 139.12 272.61 138.83 273.67 138.1 274.35 137.26 274.35 136.75 273.67 135.92 272.61 135.18 271.78 134.89 
M 271.33 147.11 272.21 146.78 273.34 145.93 274.07 144.96 274.07 144.37 273.34 143.4 272.21 142.55 271.33 142.22 
M 271 172.77 271.95 172.4 273.17 171.44 273.95 170.35 273.95 169.67 273.17 168.58 271.95 167.62 271 167.25 
M 272.06 226.39 272.77 226.11 273.69 225.39 274.28 224.58 274.28 224.07 273.69 223.26 272.77 222.54 272.06 222.26 
M 275.6 102 276.3 101.72 277.2 100.99 277.77 100.17 277.77 99.66 277.2 98.84 276.3 98.12 275.6 97.83 
M 276.63 109.03 277.34 108.74 278.25 108.01 278.84 107.17 278.84 106.66 278.25 105.82 277.34 105.08 276.63 104.8 
M 277.2 116.02 277.92 115.74 278.84 115.01 279.43 114.18 279.43 113.66 278.84 112.83 277.92 112.1 277.2 111.82 
M 277.31 122.99 278.04 122.71 278.98 121.98 279.59 121.16 279.59 120.66 278.98 119.83 278.04 119.11 277.31 118.83 
M 276.9 129.83 277.68 129.55 278.68 128.83 279.33 128.02 279.33 127.52 278.68 126.71 277.68 126 276.9 125.72 
M 275.97 136.6 276.85 136.32 277.99 135.58 278.73 134.74 278.73 134.23 277.99 133.39 276.85 132.65 275.97 132.37 
M 275.07 169.55 276.12 169.19 277.46 168.27 278.33 167.23 278.33 166.58 277.46 165.54 276.12 164.61 275.07 164.25 
M 276.36 188.83 277.28 188.43 278.46 187.4 279.22 186.24 279.22 185.52 278.46 184.36 277.28 183.33 276.36 182.93 
M 274.36 230.31 275.22 230.01 276.32 229.25 277.03 228.38 277.03 227.85 276.32 226.98 275.22 226.22 274.36 225.92 
M 277.62 98.35 278.2 98.07 279.07 97.11 
M 278.9 105.41 279.48 105.12 280.22 104.38 280.7 103.54 280.7 103.02 280.22 102.17 279.48 101.43 278.9 101.14 
M 279.77 112.48 280.36 112.2 281.12 111.46 281.6 110.62 281.6 110.1 281.12 109.26 280.36 108.53 279.77 108.24 
M 280.12 119.49 280.72 119.2 281.49 118.47 281.98 117.63 281.98 117.12 281.49 116.28 280.72 115.55 280.12 115.26 
M 280.1 126.56 280.71 126.27 281.5 125.53 282 124.7 282 124.18 281.5 123.35 280.71 122.61 280.1 122.32 
M 279.66 133.61 280.33 133.32 281.19 132.57 281.74 131.73 281.74 131.21 281.19 130.37 280.33 129.62 279.66 129.33 
M 278.97 149.18 279.77 148.85 280.79 147.98 281.45 147 281.45 146.39 280.79 145.41 279.77 144.54 278.97 144.2 
M 278.97 166.22 279.78 165.86 280.82 164.96 281.49 163.95 281.49 163.32 280.82 162.3 279.78 161.4 278.97 161.05 
M 276.79 234.25 277.52 233.95 278.45 233.17 279.05 232.3 279.05 231.76 278.45 230.88 277.52 230.11 276.79 229.81 
M 280.9 101.74 281.59 101.45 282.48 100.71 283.06 99.88 283.06 99.36 282.48 98.53 281.59 97.79 280.9 97.5 
M 282.01 108.84 282.72 108.55 283.62 107.81 284.21 106.96 284.21 106.44 283.62 105.59 282.72 104.85 282.01 104.55 
M 282.67 115.93 283.39 115.64 284.31 114.9 284.9 114.06 284.9 113.54 284.31 112.69 283.39 111.95 282.67 111.66 
M 282.89 123.03 283.62 122.74 284.56 122 285.16 121.15 285.16 120.63 284.56 119.79 283.62 119.04 282.89 118.75 
M 282.79 130.24 283.55 129.95 284.53 129.19 285.15 128.33 285.15 127.8 284.53 126.94 283.55 126.18 282.79 125.88 
M 282.49 137.67 283.31 137.36 284.37 136.57 285.06 135.68 285.06 135.12 284.37 134.23 283.31 133.44 282.49 133.13 
M 282.32 145.6 283.19 145.28 284.32 144.43 285.04 143.48 285.04 142.89 284.32 141.94 283.19 141.1 282.32 140.77 
M 282.4 154.02 283.28 153.68 284.41 152.81 285.14 151.81 285.14 151.2 284.41 150.2 283.28 149.33 282.4 148.98 
M 282.42 162.55 283.3 162.21 284.43 161.31 285.16 160.3 285.16 159.67 284.43 158.66 283.3 157.77 282.42 157.42 
M 282.6 180.35 283.47 179.98 284.59 179.03 285.31 177.96 285.31 177.29 284.59 176.22 283.47 175.27 282.6 174.9 
M 282.86 98.02 283.65 97.53 
M 284.21 105.16 284.8 104.87 285.55 104.11 286.03 103.26 286.03 102.73 285.55 101.88 284.8 101.12 284.21 100.83 
M 285.17 112.32 285.77 112.03 286.53 111.28 287.02 110.43 287.02 109.9 286.53 109.05 285.77 108.3 285.17 108.01 
M 285.63 119.43 286.23 119.14 287.01 118.39 287.5 117.55 287.5 117.02 287.01 116.17 286.23 115.43 285.63 115.14 
M 285.73 126.66 286.34 126.36 287.13 125.6 287.64 124.74 287.64 124.2 287.13 123.34 286.34 122.58 285.73 122.28 
M 285.66 134.14 286.3 133.83 287.13 133.04 287.66 132.15 287.66 131.59 287.13 130.7 286.3 129.91 285.66 129.6 
M 285.59 141.99 286.27 141.66 287.14 140.83 287.7 139.89 287.7 139.31 287.14 138.37 286.27 137.54 285.59 137.21 
M 285.68 150.3 286.36 149.96 287.23 149.09 287.8 148.1 287.8 147.49 287.23 146.51 286.36 145.64 285.68 145.3 
M 285.78 158.81 286.45 158.47 287.3 157.58 287.85 156.58 287.85 155.95 287.3 154.95 286.45 154.06 285.78 153.72 
M 285.73 167.38 286.41 167.03 287.28 166.13 287.84 165.1 287.84 164.47 287.28 163.44 286.41 162.54 285.73 162.18 
M 285.87 211.97 286.47 211.61 287.25 210.69 287.75 209.65 287.75 209 287.25 207.96 286.47 207.05 285.87 206.69 
M 285.68 220.47 286.28 220.14 287.05 219.28 287.55 218.3 287.55 217.69 287.05 216.72 286.28 215.85 285.68 215.52 
M 286.24 101.51 286.94 101.22 287.83 100.47 288.4 99.63 288.4 99.1 287.86 98.3 
M 288.19 115.87 288.91 115.58 289.84 114.83 290.43 113.98 290.43 113.45 289.84 112.6 288.91 111.84 288.19 111.55 
M 288.5 123.07 289.23 122.78 290.17 122.02 290.77 121.16 290.77 120.63 290.17 119.77 289.23 119.01 288.5 118.71 
M 288.56 130.47 289.3 130.17 290.26 129.39 290.88 128.5 290.88 127.96 290.26 127.07 289.3 126.29 288.56 125.99 
M 288.54 138.19 289.31 137.87 290.29 137.06 290.93 136.13 290.93 135.56 290.29 134.64 289.31 133.83 288.54 133.51 
M 288.54 146.24 289.32 145.91 290.31 145.06 290.95 144.11 290.95 143.51 290.31 142.56 289.32 141.71 288.54 141.38 
M 288.55 163.08 289.29 162.73 290.25 161.84 290.86 160.83 290.86 160.2 290.25 159.19 289.29 158.29 288.55 157.94 
M 289.67 105.05 290.26 104.76 291.01 103.99 291.5 103.12 291.5 102.59 291.01 101.72 290.26 100.96 289.67 100.66 
M 290.72 112.29 291.32 111.99 292.09 111.23 292.58 110.38 292.58 109.84 292.09 108.99 291.32 108.23 290.72 107.93 
M 291.23 119.45 291.84 119.16 292.62 118.4 293.12 117.55 293.12 117.02 292.62 116.17 291.84 115.41 291.23 115.12 
M 291.39 126.75 292.01 126.45 292.79 125.68 293.3 124.8 293.3 124.26 292.79 123.39 292.01 122.62 291.39 122.32 
M 291.44 134.35 292.06 134.03 292.85 133.23 293.37 132.33 293.37 131.76 292.85 130.86 292.06 130.06 291.44 129.74 
M 291.47 142.27 292.09 141.94 292.88 141.11 293.39 140.17 293.39 139.59 292.88 138.65 292.09 137.82 291.47 137.49 
M 291.44 150.41 292.04 150.08 292.81 149.23 293.3 148.26 293.3 147.66 292.81 146.7 292.04 145.85 291.44 145.52 
M 291.31 158.72 291.88 158.38 292.61 157.5 293.07 156.5 293.07 155.89 292.61 154.89 291.88 154.01 291.31 153.67 
M 291.36 167.41 291.93 167.06 292.67 166.15 293.14 165.13 293.14 164.49 292.67 163.47 291.93 162.56 291.36 162.21 
M 291.33 185.06 291.92 184.69 292.69 183.76 293.18 182.7 293.18 182.05 292.69 180.99 291.92 180.05 291.33 179.69 
M 291.45 194.13 292.06 193.76 292.84 192.82 293.34 191.75 293.34 191.09 292.84 190.03 292.06 189.09 291.45 188.72 
M 291.39 211.86 291.98 211.51 292.73 210.6 293.22 209.57 293.22 208.93 292.73 207.9 291.98 206.99 291.39 206.64 
M 291.55 101.28 292.23 100.98 293.17 100.11 
M 292.9 108.6 293.6 108.3 294.51 107.53 295.09 106.66 295.09 106.12 294.51 105.24 293.6 104.47 292.9 104.17 
M 293.75 115.86 294.47 115.56 295.39 114.8 295.99 113.94 295.99 113.4 295.39 112.54 294.47 111.78 293.75 111.48 
M 294.12 123.11 294.85 122.81 295.78 122.05 296.39 121.18 296.39 120.65 295.78 119.78 294.85 119.02 294.12 118.72 
M 294.23 130.56 294.97 130.25 295.91 129.47 296.52 128.58 296.52 128.03 295.91 127.14 294.97 126.36 294.23 126.05 
M 293.89 154.24 294.56 153.91 295.43 153.05 295.98 152.09 295.98 151.49 295.43 150.52 294.56 149.67 293.89 149.34 
M 294 180.52 294.71 180.16 295.62 179.22 296.2 178.15 296.2 177.49 295.62 176.43 294.71 175.49 294 175.12 
M 294.17 189.59 294.9 189.22 295.83 188.28 296.43 187.21 296.43 186.55 295.83 185.49 294.9 184.54 294.17 184.18 
M 294.22 198.54 294.94 198.18 295.85 197.25 296.45 196.2 296.45 195.54 295.85 194.49 294.94 193.56 294.22 193.2 
M 294.99 104.84 295.56 104.54 296.29 103.75 296.76 102.85 296.76 102.3 296.16 101.26 
M 296.22 112.23 296.81 111.93 297.56 111.15 298.05 110.28 298.05 109.74 297.56 108.86 296.81 108.09 296.22 107.78 
M 296.82 119.46 297.42 119.16 298.19 118.4 298.69 117.54 298.69 117 298.19 116.14 297.42 115.38 296.82 115.08 
M 297.03 126.79 297.64 126.48 298.42 125.71 298.92 124.84 298.92 124.29 298.42 123.42 297.64 122.65 297.03 122.34 
M 297.07 134.36 297.68 134.05 298.46 133.26 298.97 132.36 298.97 131.8 298.46 130.9 297.68 130.1 297.07 129.79 
M 296.98 142.12 297.58 141.8 298.33 141 298.82 140.08 298.82 139.51 298.33 138.6 297.58 137.79 296.98 137.47 
M 296.64 149.91 297.19 149.59 297.9 148.77 298.36 147.84 298.36 147.27 297.9 146.34 297.19 145.52 296.64 145.21 
M 296.26 166.76 296.79 166.4 297.48 165.48 297.92 164.44 297.92 163.79 297.48 162.75 296.79 161.83 296.26 161.47 
M 296.89 202.84 297.47 202.49 298.21 201.57 298.69 200.54 298.69 199.9 298.21 198.87 297.47 197.96 296.89 197.6 
M 298.22 108.4 298.91 108.09 299.8 107.29 300.37 106.39 300.37 105.83 299.8 104.93 298.91 104.13 298.22 103.82 
M 299.24 115.79 299.95 115.49 300.86 114.71 301.45 113.83 301.45 113.29 300.86 112.41 299.95 111.63 299.24 111.33 
M 299.7 123.11 300.43 122.81 301.36 122.04 301.96 121.17 301.96 120.63 301.36 119.75 300.43 118.98 299.7 118.68 
M 299.84 130.56 300.57 130.26 301.51 129.47 302.11 128.59 302.11 128.04 301.51 127.15 300.57 126.37 299.84 126.07 
M 299.76 138.14 300.48 137.83 301.39 137.04 301.99 136.15 301.99 135.59 301.39 134.69 300.48 133.9 299.76 133.59 
M 298.91 171.08 299.58 170.71 300.43 169.75 300.99 168.67 300.99 168 300.43 166.91 299.58 165.96 298.91 165.59 
M 296.08 238.28 296.73 237.96 297.56 237.13 298.09 236.2 298.09 235.62 297.56 234.68 296.73 233.85 296.08 233.53 
M 300.09 104.44 300.88 103.85 
M 301.58 112.07 302.17 111.76 302.92 110.96 303.4 110.06 303.4 109.5 302.92 108.59 302.17 107.79 301.58 107.48 
M 302.33 119.41 302.93 119.11 303.7 118.34 304.19 117.46 304.19 116.92 303.7 116.04 302.93 115.26 302.33 114.96 
M 302.62 126.79 303.23 126.49 304.01 125.71 304.51 124.83 304.51 124.29 304.01 123.41 303.23 122.63 302.62 122.33 
M 302.65 134.3 303.25 134 304.03 133.21 304.53 132.33 304.53 131.78 304.03 130.89 303.25 130.11 302.65 129.8 
M 302.33 141.79 302.92 141.48 303.67 140.7 304.15 139.82 304.15 139.27 303.67 138.39 302.92 137.61 302.33 137.31 
M 301.62 149.21 302.18 148.9 302.89 148.12 303.34 147.22 303.34 146.67 302.89 145.78 302.18 144.99 301.62 144.68 
M 300.89 157.04 301.43 156.7 302.11 155.85 302.55 154.88 302.55 154.28 302.11 153.31 301.43 152.45 300.89 152.12 
M 301.05 166.05 301.59 165.68 302.29 164.73 302.73 163.65 302.73 162.98 302.29 161.9 301.59 160.95 301.05 160.57 
M 302.55 185.18 303.16 184.8 303.96 183.83 304.47 182.73 304.47 182.05 303.96 180.95 303.16 179.98 302.55 179.61 
M 301.61 210.75 302.16 210.41 302.85 209.55 303.3 208.57 303.3 207.97 302.85 207 302.16 206.14 301.61 205.8 
M 303.46 108.12 304.16 107.8 305.05 106.97 305.41 106.39 
M 304.68 115.69 305.39 115.38 306.31 114.58 306.9 113.68 306.9 113.12 306.31 112.22 305.39 111.43 304.68 111.12 
M 305.25 123.09 305.98 122.78 306.91 122 307.51 121.12 307.51 120.58 306.91 119.69 305.98 118.91 305.25 118.61 
M 305.42 130.53 306.15 130.23 307.09 129.45 307.69 128.57 307.69 128.02 307.09 127.14 306.15 126.37 305.42 126.06 
M 305.23 137.96 305.94 137.66 306.86 136.88 307.45 136.01 307.45 135.47 306.86 134.59 305.94 133.82 305.23 133.51 
M 304.61 145.3 305.3 145 306.19 144.22 306.76 143.35 306.76 142.8 306.19 141.93 305.3 141.15 304.61 140.85 
M 303.49 161.28 304.16 160.93 305.01 160.02 305.56 158.99 305.56 158.35 305.01 157.31 304.16 156.4 303.49 156.05 
M 304.08 170.75 304.77 170.37 305.66 169.37 306.23 168.25 306.23 167.56 305.66 166.43 304.77 165.44 304.08 165.05 
M 306.96 111.91 307.55 111.59 308.31 110.77 308.8 109.84 308.8 109.26 308.08 108.08 
M 307.84 119.35 308.44 119.05 309.21 118.26 309.71 117.37 309.71 116.82 309.21 115.93 308.44 115.14 307.84 114.83 
M 308.21 126.79 308.82 126.49 309.6 125.71 310.1 124.82 310.1 124.28 309.6 123.39 308.82 122.61 308.21 122.31 
M 308.22 134.24 308.82 133.94 309.6 133.17 310.1 132.29 310.1 131.75 309.6 130.88 308.82 130.1 308.22 129.8 
M 307.71 141.5 308.3 141.21 309.06 140.45 309.55 139.59 309.55 139.06 309.06 138.2 308.3 137.44 307.71 137.14 
M 306.76 148.7 307.33 148.4 308.07 147.62 308.55 146.75 308.55 146.21 308.07 145.34 307.33 144.56 306.76 144.26 
M 305.9 156.44 306.47 156.11 307.2 155.26 307.68 154.29 307.68 153.69 307.2 152.73 306.47 151.87 305.9 151.54 
M 306.12 165.6 306.69 165.22 307.43 164.24 307.91 163.13 307.91 162.44 307.43 161.33 306.69 160.35 306.12 159.96 
M 310.18 115.62 310.91 115.3 311.84 114.5 312.45 113.58 312.45 113.02 311.84 112.11 310.91 111.3 310.18 110.99 
M 310.82 123.07 311.55 122.76 312.49 121.98 313.09 121.09 313.09 120.54 312.49 119.65 311.55 118.87 310.82 118.56 
M 311.01 130.51 311.74 130.21 312.68 129.43 313.28 128.55 313.28 128.01 312.68 127.13 311.74 126.36 311.01 126.06 
M 310.75 137.85 311.47 137.55 312.4 136.79 313 135.92 313 135.39 312.4 134.52 311.47 133.76 310.75 133.46 
M 309.99 145.05 310.7 144.75 311.62 143.99 312.22 143.12 312.22 142.59 311.62 141.72 310.7 140.96 309.99 140.66 
M 309.06 152.51 309.78 152.19 310.69 151.38 311.28 150.46 311.28 149.89 310.69 148.97 309.78 148.16 309.06 147.84 
M 308.75 160.97 309.46 160.61 310.38 159.69 310.98 158.65 310.98 158 310.38 156.96 309.46 156.04 308.75 155.68 
M 309.49 170.62 310.22 170.23 311.15 169.22 311.75 168.07 311.75 167.36 311.15 166.22 310.22 165.21 309.49 164.81 
M 310.87 189.42 311.6 189.06 312.53 188.15 313.13 187.1 313.13 186.46 312.53 185.42 311.6 184.5 310.87 184.14 
M 313.42 119.34 314.03 119.03 314.82 118.24 315.33 117.35 315.33 116.79 314.82 115.9 314.03 115.11 313.42 114.8 
M 313.81 126.79 314.42 126.49 315.2 125.71 315.71 124.82 315.71 124.27 315.2 123.39 314.42 122.61 313.81 122.3 
M 313.81 134.22 314.42 133.92 315.2 133.15 315.7 132.28 315.7 131.74 315.2 130.87 314.42 130.1 313.81 129.8 
M 313.25 141.43 313.86 141.13 314.64 140.38 315.14 139.53 315.14 139 314.64 138.14 313.86 137.39 313.25 137.1 
M 312.24 148.57 312.85 148.27 313.63 147.5 314.14 146.63 314.14 146.09 313.63 145.22 312.85 144.45 312.24 144.15 
M 311.37 156.31 311.99 155.98 312.78 155.12 313.3 154.16 313.3 153.56 312.78 152.59 311.99 151.74 311.37 151.4 
M 312.62 201.62 313.22 201.29 313.98 200.43 314.48 199.45 314.48 198.85 313.98 197.87 313.22 197.01 312.62 196.68 
M 315.87 115.69 316.62 115.38 317.69 114.43 
M 316.46 123.1 317.2 122.79 318.15 122.02 318.76 121.13 318.76 120.59 318.15 119.7 317.2 118.92 316.46 118.62 
M 316.62 130.51 317.35 130.21 318.29 129.43 318.89 128.56 318.89 128.02 318.29 127.14 317.35 126.37 316.62 126.07 
M 316.34 137.84 317.07 137.54 318.01 136.78 318.62 135.92 318.62 135.38 318.01 134.52 317.07 133.75 316.34 133.45 
M 315.59 145.07 316.34 144.77 317.29 144 317.9 143.13 317.9 142.59 317.29 141.73 316.34 140.96 315.59 140.66 
M 314.73 152.58 315.49 152.26 316.46 151.45 317.09 150.52 317.09 149.95 316.46 149.02 315.49 148.21 314.73 147.89 
M 314.46 161.09 315.24 160.73 316.22 159.8 316.86 158.76 316.86 158.11 316.22 157.07 315.24 156.15 314.46 155.79 
M 315.2 170.72 315.96 170.33 316.94 169.32 317.57 168.18 317.57 167.47 316.94 166.33 315.96 165.32 315.2 164.93 
M 316.23 180.5 316.97 180.12 317.93 179.12 318.54 178 318.54 177.3 317.93 176.18 316.97 175.19 316.23 174.8 
M 319.18 119.46 319.81 119.16 320.61 118.38 321.13 117.5 321.02 116.77 
M 319.45 126.8 320.06 126.5 320.85 125.73 321.35 124.86 321.35 124.32 320.85 123.44 320.06 122.67 319.45 122.37 
M 319.4 134.22 320.01 133.92 320.79 133.15 321.29 132.28 321.29 131.74 320.79 130.86 320.01 130.09 319.4 129.79 
M 318.9 141.5 319.52 141.2 320.31 140.44 320.82 139.58 320.82 139.05 320.31 138.18 319.52 137.42 318.9 137.12 
M 317.31 156.68 317.98 156.35 318.83 155.48 319.38 154.5 319.38 153.9 318.83 152.92 317.98 152.06 317.31 151.72 
M 317.57 165.84 318.23 165.46 319.09 164.48 319.64 163.37 319.64 162.68 319.09 161.58 318.23 160.6 317.57 160.21 
M 318.69 175.82 319.33 175.42 320.14 174.4 320.67 173.24 320.67 172.53 320.14 171.37 319.33 170.35 318.69 169.95 
M 319.46 185.24 320.07 184.87 320.85 183.92 321.36 182.84 321.36 182.18 320.85 181.1 320.07 180.15 319.46 179.78 
M 322.17 123.16 322.91 122.86 323.86 122.1 324.47 121.23 324.47 120.69 323.86 119.82 322.91 119.06 322.17 118.76 
M 322.23 130.51 322.97 130.21 323.9 129.44 324.51 128.57 324.51 128.03 323.9 127.16 322.97 126.39 322.23 126.09 
M 320.7 152.99 321.49 152.67 322.5 151.83 323.15 150.89 323.15 150.31 322.5 149.36 321.49 148.53 320.7 148.21 
M 320.56 161.58 321.37 161.22 322.41 160.3 323.07 159.26 323.07 158.61 322.41 157.57 321.37 156.65 320.56 156.29 
M 321.17 171.03 321.96 170.64 322.96 169.66 323.61 168.54 323.61 167.85 322.96 166.73 321.96 165.74 321.17 165.36 
M 322.07 189.38 322.8 189.03 323.74 188.12 324.35 187.1 324.35 186.46 323.74 185.44 322.8 184.53 322.07 184.18 
M 320.66 205.69 321.4 205.36 322.35 204.51 322.97 203.56 322.97 202.96 322.35 202 321.4 201.16 320.66 200.82 
M 324.96 119.59 325.09 119.53 
M 325.08 126.8 325.69 126.5 326.47 125.74 326.97 124.88 326.97 124.34 326.47 123.48 325.69 122.72 325.08 122.42 
M 325 134.23 325.61 133.93 326.4 133.16 326.9 132.28 326.9 131.73 326.4 130.86 325.61 130.08 325 129.78 
M 323.92 149.16 324.57 148.84 325.4 148.04 325.94 147.13 325.94 146.56 325.4 145.65 324.57 144.84 323.92 144.53 
M 323.55 157.37 324.24 157.02 325.11 156.14 325.67 155.15 325.67 154.53 325.11 153.54 324.24 152.66 323.55 152.31 
M 323.82 166.43 324.5 166.06 325.37 165.1 325.93 164.01 325.93 163.34 325.37 162.25 324.5 161.29 323.82 160.92 
M 324.6 176.02 325.24 175.64 326.06 174.65 326.58 173.53 326.58 172.84 326.06 171.72 325.24 170.74 324.6 170.35 
M 327.83 123.2 328.57 122.91 329.33 122.29 
M 327.85 130.53 328.58 130.23 329.52 129.46 330.12 128.59 330.12 128.05 329.52 127.18 328.58 126.41 327.85 126.11 
M 327.67 138.03 328.42 137.72 329.37 136.94 329.98 136.05 329.98 135.5 329.37 134.62 328.42 133.84 327.67 133.53 
M 327.22 145.59 327.99 145.28 328.98 144.48 329.61 143.57 329.61 143.01 328.98 142.1 327.99 141.3 327.22 140.99 
M 326.8 153.55 327.6 153.22 328.62 152.36 329.28 151.4 329.28 150.8 328.62 149.84 327.6 148.99 326.8 148.66 
M 327.22 171.4 328.01 171.03 329.01 170.07 329.66 168.98 329.66 168.31 329.01 167.22 328.01 166.26 327.22 165.89 
M 327.7 180.65 328.45 180.27 329.4 179.32 330.02 178.25 330.02 177.58 329.4 176.51 328.45 175.56 327.7 175.19 
M 326.44 205.89 327.22 205.56 328.22 204.71 328.86 203.74 328.86 203.14 328.22 202.18 327.22 201.32 326.44 200.99 
M 324.26 221.24 325.06 220.93 326.07 220.14 326.73 219.24 326.73 218.68 326.07 217.78 325.06 216.99 324.26 216.68 
M 330.67 126.8 331.28 126.5 332.06 125.74 332.56 124.88 332.56 124.39 
M 330.64 134.3 331.25 133.99 332.04 133.21 332.55 132.32 332.55 131.77 332.04 130.88 331.25 130.1 330.64 129.79 
M 330.42 141.91 331.05 141.6 331.85 140.81 332.37 139.91 332.37 139.35 331.85 138.45 331.05 137.65 330.42 137.34 
M 329.93 149.63 330.59 149.31 331.42 148.48 331.96 147.54 331.96 146.96 331.42 146.02 330.59 145.19 329.93 144.87 
M 330.02 166.97 330.69 166.6 331.54 165.67 332.08 164.6 332.08 163.94 331.54 162.88 330.69 161.94 330.02 161.58 
M 330.45 176.18 331.08 175.81 331.89 174.85 332.41 173.77 332.41 173.11 331.89 172.03 331.08 171.07 330.45 170.7 
M 329.73 201.95 330.39 201.61 331.23 200.75 331.77 199.76 331.77 199.15 331.23 198.17 330.39 197.3 329.73 196.96 
M 333.46 130.56 334.19 130.26 335.13 129.48 335.73 128.6 335.73 128.06 335.13 127.18 334.19 126.4 333.46 126.1 
M 333.38 138.18 334.13 137.87 335.08 137.07 335.69 136.17 335.69 135.61 335.08 134.71 334.13 133.91 333.38 133.6 
M 332.87 154.05 333.66 153.71 334.66 152.85 335.31 151.87 335.31 151.27 334.66 150.29 333.66 149.43 332.87 149.09 
M 332.91 162.69 333.7 162.34 334.71 161.43 335.36 160.4 335.36 159.76 334.71 158.73 333.7 157.82 332.91 157.47 
M 333.16 171.67 333.93 171.31 334.91 170.37 335.54 169.31 335.54 168.65 334.91 167.59 333.93 166.66 333.16 166.29 
M 333.4 180.7 334.14 180.34 335.09 179.4 335.7 178.34 335.7 177.69 335.09 176.63 334.14 175.69 333.4 175.33 
M 333.05 198.06 333.82 197.71 334.8 196.82 335.44 195.81 335.44 195.18 334.8 194.17 333.82 193.28 333.05 192.94 
M 336.28 134.36 336.88 134.05 337.66 133.26 338.16 132.36 338.16 131.8 337.66 130.9 336.88 130.11 336.28 129.8 
M 336.2 142.14 336.82 141.83 337.62 141.01 338.14 140.1 338.14 139.53 337.62 138.61 336.82 137.79 336.2 137.48 
M 335.91 150.04 336.55 149.71 337.37 148.87 337.9 147.92 337.9 147.33 337.37 146.38 336.55 145.53 335.91 145.21 
M 335.85 158.48 336.49 158.13 337.33 157.24 337.86 156.24 337.86 155.61 337.33 154.61 336.49 153.72 335.85 153.37 
M 335.99 167.29 336.63 166.93 337.45 166.01 337.98 164.97 337.98 164.32 337.45 163.28 336.63 162.35 335.99 161.99 
M 336.19 176.26 336.81 175.89 337.6 174.96 338.12 173.9 338.12 173.25 337.6 172.19 336.81 171.26 336.19 170.89 
M 339.02 130.55 339.74 130.24 340.45 129.64 
M 339.04 138.27 339.78 137.96 340.71 137.15 341.32 136.23 341.32 135.66 340.71 134.75 339.78 133.94 339.04 133.62 
M 338.93 146.18 339.68 145.86 340.64 145.03 341.26 144.08 341.26 143.5 340.64 142.56 339.68 141.72 338.93 141.4 
M 338.8 154.39 339.56 154.05 340.54 153.18 341.17 152.2 341.17 151.59 340.54 150.61 339.56 149.74 338.8 149.4 
M 338.83 162.99 339.6 162.64 340.57 161.73 341.2 160.71 341.2 160.08 340.57 159.06 339.6 158.16 338.83 157.8 
M 338.96 171.83 339.71 171.47 340.67 170.54 341.29 169.5 341.29 168.85 340.67 167.81 339.71 166.88 338.96 166.52 
M 339.05 180.73 339.79 180.37 340.73 179.44 341.34 178.39 341.34 177.74 340.73 176.69 339.79 175.76 339.05 175.4 
M 338.24 215.34 339.07 215.01 340.13 214.17 340.81 213.22 340.81 212.63 340.13 211.68 339.07 210.84 338.24 210.51 
M 336.88 226.07 336.12 225.5 335.3 225.19 
M 341.82 134.33 342.42 134.02 343.19 133.21 343.68 132.3 343.68 132.03 
M 341.87 142.26 342.49 141.93 343.27 141.11 343.78 140.17 343.78 139.59 343.27 138.66 342.49 137.83 341.87 137.51 
M 341.74 150.3 342.36 149.96 343.17 149.11 343.68 148.15 343.68 147.55 343.17 146.59 342.36 145.74 341.74 145.41 
M 341.79 167.46 342.41 167.1 343.21 166.19 343.73 165.16 343.73 164.52 343.21 163.48 342.41 162.57 341.79 162.22 
M 341.86 176.3 342.47 175.94 343.26 175.01 343.77 173.97 343.77 173.32 343.26 172.28 342.47 171.35 341.86 170.99 
M 341.87 194.12 342.48 193.76 343.27 192.82 343.78 191.77 343.78 191.11 343.27 190.06 342.48 189.13 341.87 188.76 
M 341.49 224.01 341.03 223.36 340.11 222.62 339.4 222.33 
M 344.62 138.28 345.34 137.96 346.27 137.14 346.87 136.21 346.87 135.63 346.27 134.7 345.34 133.88 344.62 133.56 
M 344.58 154.57 345.32 154.23 346.28 153.36 346.9 152.38 346.9 151.77 346.28 150.78 345.32 149.91 344.58 149.57 
M 344.65 171.89 345.39 171.54 346.33 170.62 346.94 169.58 346.94 168.94 346.33 167.91 345.39 166.99 344.65 166.63 
M 344.62 198.53 345.34 198.17 346.27 197.24 346.86 196.19 346.86 195.54 346.27 194.49 345.34 193.56 344.62 193.2 
M 344.57 207.4 345.29 207.04 346.22 206.12 346.82 205.08 346.82 204.43 346.22 203.39 345.29 202.47 344.57 202.11 
M 347.47 142.28 348.07 141.96 348.85 141.12 349.35 140.17 349.35 139.58 348.85 138.63 348.07 137.8 347.47 137.47 
M 347.44 150.41 348.05 150.08 348.84 149.22 349.35 148.25 349.35 147.65 348.84 146.68 348.05 145.82 347.44 145.48 
M 347.43 158.85 348.04 158.5 348.84 157.61 349.34 156.61 349.34 155.99 348.84 154.99 348.04 154.1 347.43 153.76 
M 347.46 167.51 348.08 167.16 348.86 166.25 349.37 165.23 349.37 164.59 348.86 163.57 348.08 162.66 347.46 162.31 
M 347.48 176.3 348.09 175.94 348.87 175.03 349.37 173.98 349.37 173.34 348.87 172.3 348.09 171.38 347.48 171.02 
M 347.47 185.18 348.08 184.82 348.86 183.89 349.36 182.84 349.36 182.19 348.86 181.14 348.08 180.21 347.47 179.85 
M 350.15 138.24 351.05 137.76 
M 350.25 146.36 350.99 146.02 351.92 145.17 352.53 144.21 352.53 143.62 351.92 142.65 350.99 141.8 350.25 141.47 
M 350.25 154.65 350.98 154.31 351.93 153.44 352.54 152.45 352.54 151.84 351.93 150.85 350.98 149.98 350.25 149.64 
M 350.27 171.91 351 171.55 351.94 170.64 352.55 169.61 352.55 168.97 351.94 167.94 351 167.02 350.27 166.67 
M 350.01 198.28 350.72 197.93 351.62 197.01 352.2 195.98 352.2 195.34 351.62 194.31 350.72 193.4 350.01 193.04 
M 353.04 142.28 353.65 141.95 354.43 141.1 354.71 140.55 
M 353.07 150.45 353.68 150.12 354.46 149.26 354.96 148.28 354.96 147.68 354.46 146.7 353.68 145.84 353.07 145.51 
M 353.08 167.52 353.69 167.17 354.47 166.26 354.97 165.24 354.97 164.61 354.47 163.58 353.69 162.68 353.08 162.33 
M 353.07 176.29 353.68 175.94 354.46 175.02 354.96 173.98 354.96 173.33 354.46 172.29 353.68 171.38 353.07 171.02 
M 353 193.95 353.61 193.6 354.38 192.7 354.88 191.69 354.88 191.06 354.38 190.05 353.61 189.15 353 188.8 
M 355.85 146.37 356.58 146.03 357.52 145.18 358.12 144.21 358.12 143.61 357.57 142.73 
M 355.98 141.52 355.85 141.46 
M 355.87 154.67 356.6 154.33 357.53 153.45 358.14 152.47 358.14 151.85 357.53 150.86 356.6 149.99 355.87 149.65 
M 355.88 171.91 356.61 171.55 357.54 170.64 358.14 169.61 358.14 168.97 357.54 167.94 356.61 167.03 355.88 166.67 
M 355.87 180.73 356.6 180.37 357.54 179.45 358.14 178.41 358.14 177.76 357.54 176.72 356.6 175.8 355.87 175.44 
M 358.67 150.46 359.28 150.12 360.05 149.26 360.55 148.28 360.55 147.68 360.05 146.7 359.28 145.84 358.67 145.51 
M 358.68 176.3 359.28 175.94 360.06 175.02 360.56 173.98 360.56 173.34 360.06 172.3 359.28 171.38 358.68 171.02 
M 358.68 185.17 359.28 184.81 360.06 183.89 360.56 182.84 360.56 182.2 360.06 181.15 359.28 180.23 358.68 179.87 
M 361.45 146.35 362.18 146.01 
M 361.44 154.64 362.17 154.3 363.09 153.43 363.68 152.44 363.68 151.83 363.09 150.84 362.17 149.97 361.44 149.63 
M 361.45 163.19 362.18 162.84 363.11 161.94 363.7 160.93 363.7 160.3 363.11 159.29 362.18 158.39 361.45 158.04 
M 361.46 180.71 362.17 180.35 363.09 179.43 363.69 178.39 363.69 177.75 363.09 176.71 362.17 175.79 361.46 175.43 
M 361.38 189.49 362.09 189.14 363.01 188.23 363.61 187.2 363.61 186.56 363.01 185.54 362.09 184.63 361.38 184.28 
M 360.73 206.82 361.49 206.45 362.48 205.51 363.11 204.45 363.11 203.79 362.48 202.72 361.49 201.78 360.73 201.42 
M 364.21 150.39 364.81 150.05 365.57 149.2 365.93 148.47 
M 364.23 158.85 364.83 158.5 365.59 157.61 366.09 156.61 366.09 155.99 365.59 154.99 364.83 154.1 364.23 153.76 
M 364.22 185.1 364.81 184.74 365.56 183.82 366.04 182.78 366.04 182.14 365.56 181.1 364.81 180.18 364.22 179.82 
M 366.92 154.52 367.62 154.18 368.52 153.31 369.1 152.32 369.1 151.71 368.52 150.72 367.62 149.85 366.92 149.51 
M 366.97 163.1 367.68 162.75 368.58 161.86 369.17 160.84 369.17 160.21 368.58 159.2 367.68 158.3 366.97 157.95 
M 366.88 180.53 367.57 180.17 368.46 179.25 369.03 178.21 369.03 177.57 368.46 176.53 367.57 175.62 366.88 175.26 
M 366.82 189.38 367.52 189.02 368.42 188.09 369 187.05 369 186.4 368.42 185.35 367.52 184.43 366.82 184.07 
M 366.75 198.27 367.5 197.91 368.46 196.98 369.08 195.92 369.08 195.27 368.46 194.21 367.5 193.28 366.75 192.92 
M 366.78 207.27 367.55 206.9 368.54 205.96 369.18 204.89 369.18 204.23 368.54 203.17 367.55 202.23 366.78 201.86 
M 369.6 175.98 370.16 175.63 370.89 174.72 371.35 173.7 371.35 173.06 370.89 172.04 370.16 171.13 369.6 170.78 
M 372.19 154.2 372.86 153.86 373.49 153.22 
M 372.31 162.85 373 162.5 373.87 161.6 374.44 160.59 374.44 159.96 373.87 158.95 373 158.05 372.31 157.7 
M 372.46 198.45 373.2 198.08 374.14 197.12 374.75 196.04 374.75 195.37 374.14 194.28 373.2 193.33 372.46 192.95 
M 374.9 158.37 375.46 158.02 376.17 157.11 376.63 156.09 376.63 155.46 376.42 155 
M 374.44 184.23 375 183.85 375.71 182.9 376.17 181.82 376.17 181.15 375.71 180.08 375 179.12 374.44 178.75 
M 379.84 157.72 380.38 157.35 
M 379.88 166.28 380.4 165.93 381.07 165.04 381.5 164.04 381.5 163.42 381.07 162.41 380.4 161.53 379.88 161.18 
M 382.79 200.67 382.83 199.95 382.33 198.91 381.55 198 380.95 197.64 
M 384.4 165.17 384.89 164.83 385.53 163.95 385.93 162.96 385.93 162.35 385.53 161.36 384.89 160.48 384.4 160.14 
M 383.99 173.64 384.48 173.28 385.1 172.36 385.5 171.31 385.5 170.66 385.1 169.61 384.48 168.69 383.99 168.33 
M 384.49 183.35 385 182.94 385.66 181.89 386.09 180.7 386.09 179.97 385.66 178.78 385 177.74 384.49 177.33 
M 386.35 177.86 386.94 177.47 387.69 176.46 388.17 175.33 388.17 174.63 387.69 173.49 386.94 172.49 386.35 172.1 
M 388.06 172.15 388.53 171.78 389.14 170.85 389.52 169.79 389.52 169.14 389.14 168.08 388.53 167.15 388.06 166.79 
M 388.86 182.3 389.35 181.86 389.97 180.76 390.37 179.51 390.37 178.73 389.97 177.48 389.35 176.37 388.86 175.94 
M 390.49 176.48 391.06 176.07 391.79 175.05 392.27 173.88 392.27 173.16 391.79 171.99 391.06 170.96 390.49 170.56 
M 392.05 170.53 392.52 170.16 393.13 169.23 393.53 168.18 393.53 167.53 393.13 166.48 392.52 165.55 392.05 165.19 
M 392.97 180.93 393.45 180.49 394.07 179.34 394.47 178.04 394.47 177.23 394.07 175.93 393.45 174.78 392.97 174.33 
M 394.63 165.77 394.82 165.67 
M 394.66 175.09 395.26 174.68 396.04 173.64 396.55 172.46 396.55 171.73 396.04 170.55 395.26 169.51 394.66 169.1 
M 396.84 179.7 396.63 179.55 
M 396.34 169.21 396.84 168.87 
M 238.78 95.01 273.92 30 274.71 30.41 242.11 95.51 
M 252.09 93.86 272.43 58.19 273.21 58.6 255.29 94.62 
M 265.4 94.94 274.44 81.18 275.21 81.62 268.46 95.94 
M 284.83 97.07 286.28 97.77 
M 271.4 37.01 270.03 42.47 269.2 47.94 269.09 50.69 269.19 53.44 269.47 56.21 270.39 61.75 
M 271.38 62.28 270.72 66.91 270.6 71.48 270.84 73.73 271.28 75.96 271.92 78.17 273.53 82.56 
M 274.51 83.11 276.11 87.02 278.13 90.59 279.38 92.19 280.8 93.67 282.36 95.02 285.76 97.52 
M 270.68 39.74 269.52 45.2 269.2 47.94 269.09 50.69 269.19 53.44 269.9 58.98 
M 266.51 49.44 265.56 53.94 265.29 56.21 265.28 60.75 265.86 65.31 
M 262.34 59.14 261.59 62.69 261.31 66.26 261.37 68.05 261.83 71.65 
M 258.17 68.85 257.47 72.74 257.46 75.36 257.8 77.99 
M 271.02 64.6 270.57 69.2 270.6 71.48 270.84 73.73 271.28 75.96 272.69 80.37 
M 172.95 192 183.32 191.03 196.51 189.26 202.52 188.75 205.41 189 208.18 188.7 211.06 188.6 216.45 188.79 227.02 188.54 231.92 187.65 237.19 188.11 240.41 188.93 245.44 188.92 247.59 188.4 256.18 189.01 258.94 188.65 261.79 188.92 264.56 190.03 269.79 190.18 272.31 190.6 274.9 190.82 277.91 191.71 280.15 191.84 271.23 198.08 266.35 200.2 263.28 200.63 256.32 204.05 242.64 206.98 235.1 209.12 232.31 209.71 229.78 210.57 227.42 211.6 225.03 212.3 222.44 212.75 217.04 213.43 214.31 213.5 209.13 213.25 206.27 212.86 203.68 212.87 201.25 213.35 196.08 213.99 193.13 213.74 187.63 212.7 183.73 212.33 173.33 209.6 171.44 208.65 
M 175.08 193.55 177.93 193.23 186.21 192.74 188.79 192.22 191.62 192.34 196.56 191.65 199.25 191.69 202.17 191.52 205.27 191.94 207.95 191.99 210.81 191.74 213.65 191.88 216.73 192.25 219.26 191.94 224.28 192.16 226.68 192.56 236.95 193.47 245.54 193.69 250.55 194.27 253.19 195.01 262.3 196.25 265.02 196.92 268.15 197.44 
M 172.96 195.27 180.93 194.88 183.66 194.96 189.36 194.48 191.96 194.82 194.37 194.87 199.33 194.44 208.12 195.08 210.45 194.9 221.96 195.95 224.29 196.39 227.12 196.42 229.14 196.73 231.82 198.15 236.89 198.77 239.72 198.88 
M 172.9 196.96 175.36 196.81 189.85 196.87 192.17 197.29 194.48 197.5 199.25 197.37 202.2 197.65 205.52 198.29 213.69 199.27 219.45 200.23 222.1 200.83 226.82 202.28 229.67 202.32 234.75 203.12 237.47 204.08 239.84 204.44 
M 175.4 198.55 186.71 199.23 202.77 201.12 208.02 202.11 210.62 202.86 213.4 203.9 
M 172.61 200.2 175.29 200.37 189.32 202.31 199.35 204.76 202.17 204.89 210.87 206.6 213.51 207.9 216.43 209.69 221.58 211.21 
M 172.47 201.79 183.3 203.8 186.2 204.47 189.03 204.57 196.16 207.89 199.08 208.58 201.74 208.69 204.76 209.48 207.58 210 
M 172.51 203.42 180.42 205.34 186.06 207.07 188.75 207.44 191.6 208.85 
M 172.09 204.78 183.2 208.85 
M 171.89 206.37 172.62 206.59 
M 184.92 245.03 188.41 248.69 190.28 251.87 193.21 258.13 195.09 261.18 197.73 263.73 198.83 267.03 197.2 271.15 191.22 272.62 186.41 274.99 183.33 275.14 180.39 275.53 178.27 277.18 176.7 279.05 175.02 280 175.38 279.05 175.51 276.61 176.95 273.87 176.17 271.01 175.53 267.66 174.78 265.32 176.03 260.05 176.56 256.59 177.23 248.09 176.73 245 175.71 240.85 
M 183.3 244.3 186.45 247.65 188.16 251.17 189.08 254.34 191.88 261.1 193.43 263.05 194.69 265.69 
M 181.68 243.56 184.36 247.19 186.16 250.34 187.05 254.28 187.99 256.93 
M 180.06 242.83 183.6 249.61 184.74 253.03 185.53 256.18 
M 178.44 242.09 179.96 246.39 180.63 248.98 182.08 251.57 182.75 254.36 181.68 258.35 
M 176.82 241.36 178.88 248.36 178.99 250.95 179.56 253.23 179.3 257.65 178.54 260.57 178.46 263.42 177.48 265.98 178.09 268.87 177.95 272.1 
M 369.19 211.39 374.73 215.64 380.88 217.36 376.73 223.99 375.76 226.76 368.99 227.02 366.72 228.37 362.92 231.9 357.98 238.01 357.18 240.97 351.4 246.33 349.24 247.94 348.06 250.52 346.66 252.8 345.66 255.39 343.39 259.81 341.92 261.87 339.95 263.32 337.55 264.7 335.91 266.59 336.41 269.24 337.1 271.09 331.65 273.78 327.01 270.75 324.12 267.73 322.91 265.66 321.16 264.21 319.05 261.52 318.54 258.85 315.69 257.19 313.91 254.54 307.87 247.08 304.7 244.1 
M 365.41 213.73 371.07 218.39 
M 361.63 216.08 366.88 221.19 
M 357.9 218.49 362.59 222.92 
M 354.19 220.96 357.68 224.53 
M 350.48 223.41 355.2 226.31 357.51 228.57 
M 346.69 225.74 351.87 228.71 355.43 231 
M 342.91 228.08 347.55 231.66 350.69 234.45 
M 339 230.2 343.46 233.91 345.4 236.33 348.75 238.24 
M 335.03 232.21 342.62 238.31 344.35 240.76 
M 331.04 234.19 335.43 237.41 338.12 240.52 
M 327.03 236.1 331.22 239.22 334.14 241.76 336.31 244.3 338.13 246.09 339.78 247.4 341.96 249.64 
M 323 238 327.31 241.07 329.71 244 331.77 245.89 334.02 248.68 336.83 251.01 
M 318.8 239.46 322.71 242.35 325.45 244.96 329.14 250.15 331.46 252.88 333.71 254.43 335.97 256.89 
M 314.6 240.92 318.04 244.05 320.72 246.79 322.01 249.53 325.74 254.62 327.97 256.9 330.41 258.55 332.79 260.97 
M 310.37 242.29 313.87 245.35 316.35 248.42 317.64 250.92 321.4 255.49 321.93 257.45 324.15 259.61 326.73 262.65 
M 396.84 166.82 399.18 165.26 402.75 160.67 404.82 158.31 407.14 156.69 409.46 154.26 411.67 152.34 416.83 149.96 420.35 147.36 421.51 145.66 423.98 144.74 425.54 142.94 431.13 141.33 435.49 139.02 437.83 137.3 441.76 135.41 445.6 134.31 448.19 134.49 450.83 132.79 453.7 131.93 455.56 133.18 454 136.18 455.05 139.04 456.04 143.74 455.78 146.62 455.04 149.01 454.71 151.75 454.74 154.74 454.39 157.51 452.01 158.85 450.12 160.68 449.16 163.45 447.75 165.81 444.18 169.71 435.45 171.7 433.58 173.54 432.72 176.34 432.07 179.46 430.16 181.01 427.88 182.18 424.92 182.68 421.55 182.57 418.11 181.9 415.53 182.08 417.6 184.22 425.28 188.15 429.79 190.68 432.49 192.47 433.8 192.87 435.86 194.03 444.11 199.52 446.15 201.59 447.63 205.22 449.79 208.34 452.57 211.33 453.95 213.13 453.49 215.55 454.68 218.94 456.42 222.08 457.68 227.19 457.39 229.65 455.81 234.82 452.83 234.65 446.52 233.68 443.31 234.26 439.96 233.35 438.05 231.89 436.3 229.51 433.73 229.07 431.58 226.48 427.64 224.58 425.2 222.69 423.11 222.33 421.85 221.81 419.32 220.34 416.22 218.84 413.45 216.75 411.82 214.19 410.59 211.52 408.02 208.77 406.56 206.63 404.65 204.49 401.39 199.18 396.84 193.8 
M 401.15 164.99 405.53 160.37 412.6 154.85 414.88 153.92 417.51 153.16 420.17 151.62 421.92 151.05 425.65 147.69 428.16 147.69 433.62 146.33 
M 401.53 166.81 404.16 164.88 408.47 160.73 410.85 159.05 415.61 156.46 417.65 156.43 420.81 155.16 423.56 153.68 425.72 152.94 427.87 150.83 430.89 150.06 432.97 150.33 437.86 148.8 439.67 148.72 444.21 145.37 447.22 144.93 
M 401.93 168.73 407.32 165.18 409.59 162.79 411.61 161.6 415.92 159.43 418.34 158.4 421.45 157.48 427.27 156.02 429.86 155.63 432.51 154.66 
M 404.84 169.26 410.81 165.33 412.99 164.15 415.12 163.46 419.42 161.34 423.17 160.77 426.79 160.55 429.1 160.66 431.15 159.57 433.55 159.7 436.5 159.1 439.17 159.4 441.83 157.99 444.81 157.63 449.33 159.02 
M 396.84 173.51 399.94 173.45 402.77 172.65 411.96 168 414.03 167.25 418.81 166.22 421.1 165.17 428.01 164.12 430.59 164.5 
M 406.21 173.15 414.76 169.86 419.64 169.86 422.58 169.48 425.89 168.59 429.8 168.28 432.87 168.44 
M 406.85 175.12 409.71 174.37 412.5 173.38 415.7 173.07 420.3 173.53 
M 400.63 177.73 410.08 177.41 416.6 176.96 421.91 178.1 424.94 177.79 429.23 178.31 
M 407.37 179.84 410.02 180.13 416.88 180.5 419.98 180.88 
M 400.97 182.66 404.24 183.45 407.63 185.11 410.96 185.61 
M 396.84 182.89 404.17 185.54 407.43 187.39 410.32 188.3 413.5 188.37 415.57 189.02 418.3 189.27 422.17 190.22 
M 406.91 189.25 409.97 190.42 415.31 191.57 421.26 194.37 
M 396.84 185.56 406.15 191.07 409.25 192.56 412.39 193.32 415.65 194.7 418.05 195.99 420.05 197.7 423.01 198.35 425.81 198.23 428.07 198.78 
M 402.93 191.29 408.51 194.63 411.31 195.71 419.04 200.8 422.25 202.01 424.49 201.8 428.94 203.03 431.57 204.21 434.45 204.51 439.46 204.12 
M 402.62 192.97 405.07 194.79 412.76 199.81 418.02 204.05 420.68 204.98 422.58 206.47 424.67 207.25 427.26 206.65 429.82 207.51 
M 402.23 194.41 407.3 198.83 411.46 201.71 413.96 203.93 416.98 206.01 419.68 208.34 424.32 210.13 428.99 210.97 432.43 212.89 434.44 214.83 436.64 216.24 439.23 216.67 
M 396.84 190.92 399.55 193.79 401.99 195.81 406.61 200.46 410.51 203.41 415.43 209.4 418.48 211.53 420.42 212.64 425.51 213.35 428.89 214.41 
M 401.69 197.45 403.79 199.95 405.5 202.37 407.5 204 409.38 206.49 414.12 211.87 415.95 214.28 417.67 215.92 420.55 216.6 423.68 217.57 426.18 218.67 427.79 220.17 
M 359.98 144.57 366.26 142.16 370 140.12 371.99 139.22 378.62 137.17 381.18 136.84 384.17 136.99 387.4 138.46 390.01 141.16 391.23 144.28 390.89 147.17 389.32 149.37 381.22 154.74 378.41 156.21 
M 367.21 145.23 370 143.67 371.99 142.78 377.48 141.03 
M 379.9 140.56 381.18 140.4 384.17 140.54 387.4 142.02 388.71 143.37 
M 71.55 186.26 72.79 184.25 74.91 181.59 77.67 178.48 80.89 175.18 90.06 167.16 103.39 157.53 124.48 143.86 130.31 140.36 136.05 137.23 141.79 134.87 147.09 133 151.67 131.72 155.29 131.06 157.28 130.97 162.71 136.08 165.29 141.4 166.94 146.81 170.65 163.15 171.7 168.61 172.04 174.13 172.1 179.68 172.95 190.71 172.96 196.26 172.46 201.86 171.76 207.47 170.2 213.16 168.35 218.88 167.5 224.51 167.51 230.06 166.42 235.77 153.35 235.67 143.71 235.15 135 234.23 127.24 232.9 120.14 231.21 113.84 229.36 108.43 227.16 103.45 224.49 98.54 221.51 93.94 217.9 89.74 213.72 81.43 206.56 78.61 202.76 75.76 198.14 
M 147.31 166.07 147.4 170.82 145.63 183.96 143.51 191.32 142.15 197.5 141.81 200.61 142.77 203.96 144.62 207.71 145.58 212.22 136.68 212.73 123.78 213.74 117.78 213.83 111.97 213.41 106.64 212.48 102 210.79 
M 88.83 212.82 86.56 210.49 80.68 203.54 72.99 195.13 68.66 189.92 68.37 187.74 69.92 186.2 72.13 186.28 73.72 187.78 87.16 208.72 90.48 213.26 
M 90.1 213.96 89.98 213.96 
M 87.76 213.93 78.62 213.57 65.32 212.53 63.19 211.81 62.31 209.76 63.31 207.74 65.48 207.08 70 208 82.95 211.6 88.77 212.81 
M 88.84 212.83 90.18 213.07 
M 112.99 189.93 109.38 184.88 107.6 178.92 107.86 172.71 110.12 166.92 114.14 162.17 119.48 158.99 125.56 157.71 131.73 158.48 137.31 161.21 141.71 165.61 144.44 171.19 145.21 177.36 143.93 183.45 140.75 188.79 136.01 192.8 130.22 195.06 124.01 195.32 118.05 193.55 112.99 189.93 
M 138.64 167.8 140.82 172.27 141.44 177.21 140.42 182.07 137.87 186.35 134.07 189.56 129.44 191.37 124.47 191.57 119.71 190.15 115.66 187.26 
M 120.33 181.26 118.89 179.23 118.18 176.85 118.28 174.36 119.19 172.05 120.79 170.15 122.93 168.88 125.36 168.37 127.83 168.67 130.06 169.77 131.82 171.53 132.91 173.76 133.22 176.23 132.71 178.66 131.44 180.8 129.54 182.4 127.22 183.31 124.74 183.41 122.36 182.7 120.33 181.26 
M 119.88 180.31 122.07 182.49 
M 119.09 177.11 125.36 183.38 
M 119.99 175.61 127.56 183.18 
M 120.98 174.2 129.28 182.5 
M 124.16 174.98 130.65 181.47 
M 122.96 171.38 131.79 180.21 
M 123.96 169.97 132.69 178.7 
M 125.5 169.11 133.12 176.73 
M 129.47 170.68 132.97 174.17 
M 72.78 184.27 75.65 187.14 
M 75.16 181.31 78.16 184.31 
M 77.67 178.48 81.63 182.45 
M 80.31 175.78 83.51 178.98 
M 83.11 173.25 87.12 177.26 
M 85.96 170.76 90.11 174.91 
M 88.8 168.26 92.64 172.1 
M 91.79 165.91 95.5 169.62 
M 94.9 163.68 99.33 168.12 
M 98 161.44 103.01 166.45 
M 101.09 159.2 104.88 162.99 
M 104.23 156.99 106.92 159.69 
M 107.48 154.9 111.32 158.74 
M 110.72 152.81 114.51 156.6 
M 113.96 150.71 117.18 153.93 
M 117.2 148.61 121.93 153.34 
M 120.43 146.51 124.11 150.18 
M 123.66 144.4 127.62 148.35 
M 126.97 142.37 129.85 145.25 
M 130.31 140.36 133.49 143.55 
M 133.76 138.48 137.27 141.99 
M 137.32 136.7 141.31 140.69 
M 141.1 135.15 144.49 138.54 
M 145.02 133.73 149.52 138.22 
M 149.08 132.44 154.36 137.73 
M 153.38 131.41 156.98 135 
M 151.38 215.59 153 213.12 153.3 212.07 153.29 211.15 152.61 208.41 151.35 205.25 149.48 202.68 
M 122.73 158.31 122.42 156.12 122.09 155.56 121.07 154.45 119.86 153.82 119.19 153.81 118.48 154.03 116.76 155.05 115.29 155.33 
M 168.27 153.08 168.32 152.71 
M 127.54 221.05 124.65 219.93 
M 141.95 191.6 141.85 192.51 141.17 194.45 140.6 195.53 139.83 196.02 139.07 196.25 138.47 196.13 138.03 195.81 
M 147.76 134.55 148.95 134.87 150.01 135.42 150.57 135.86 152.36 138.43 152.7 138.77 153.66 139.22 
M 140.12 155.39 139.54 155.64 139.51 156.15 
M 147.11 205.87 146.52 205.58 144.76 205.68 139.84 207.38 139.03 207.21 138.52 206.58 
M 172.32 197.42 171.54 196.3 169.63 194.36 168.76 194.09 167.94 194.28 
M 157.38 186.16 158.1 185.95 159 185.37 159.2 184.72 158.67 183.99 
M 117.14 200.73 116.38 199.25 115.74 196.92 115.55 195.29 114.87 194.33 
M 92.03 170.64 91.38 172.29 90.35 174.05 89.78 174.4 88.5 174.62 
M 96.2 166.1 96.14 166.62 95.33 167.81 92.39 170.87 
M 168.16 153.44 168.28 152.52 
M 162.72 167.81 163.09 167.69 163.37 167.14 
M 146.11 215.75 146.78 214.85 147.66 212.87 147.79 211.94 147.64 211.66 147.06 211.42 144.95 211.39 
M 168 210.61 167.83 212.03 167.99 212.34 168.35 212.57 
M 140.89 188.55 140.75 190.2 
M 149.54 185.68 151.7 185 157.05 184.11 157.71 183.53 
M 157.27 203.68 156.97 204.15 155.96 205 155.43 205.17 154.8 205.08 153.32 204.07 151.84 201.77 151.65 201.07 
M 111.2 216.69 110.53 216.44 109.75 215.75 108.97 214.62 108.33 213.29 107.89 212.79 106.46 212.32 104.59 212.09 103.43 211.62 
M 130 145.52 129.8 145.82 129.47 145.93 128.4 145.58 126.3 143.56 125.91 143 
M 149.73 181.35 150.83 182.11 153.86 182.96 155.98 183.34 156.85 183.35 157.39 183.16 
M 161.57 143.03 161.04 144.17 160.61 145.65 159.37 147.69 158.49 148.72 
M 138.83 157.84 139.42 157.79 139.96 157.21 140.02 156.35 139.61 156.1 
M 143.14 233.43 142.4 234.14 141.56 234.65 140.42 234.61 140.13 234.42 139.73 233.76 139.6 232.18 
M 170.68 168.99 171.52 167.67 
M 99.38 160.44 100.21 159.84 
M 93.14 167.83 91.56 169.88 91.1 170.94 90.39 173.52 89.57 174.25 
M 134.17 149.47 133.16 151.22 131.47 153.52 131.02 154.42 130.32 154.98 
M 166.12 173.64 167.12 173.43 168.52 172.57 169.55 171.67 170.55 170.52 171.71 168.77 
M 124.4 157.96 121.74 150.1 
M 118.65 223.13 118.79 225.31 118.62 226.35 118.24 227.36 117.08 228.7 
M 114.8 227.07 114.58 227.65 113.68 228.75 113.54 229.24 
M 141.61 144.97 140.24 144.48 139.39 144.36 138.45 144.38 137.64 144.64 137.23 145 136.79 146.04 136.36 148.18 
M 166.78 184.55 167.37 184.23 167.76 184.22 168.75 184.94 
M 88.15 177.38 88.66 177.02 88.84 176.02 88.58 175.4 88 175.23 
M 134.27 209.96 132.69 209.76 131.1 209.17 130.29 208.62 130.2 208.2 
M 138.31 147.12 137.74 147.27 136.86 147.98 136.62 148.49 136.67 149.08 
M 168.81 189.37 170.23 192.14 170.36 192.89 170.08 193.3 168.93 193.76 
M 151.41 233.76 151.09 232.99 150.5 232.52 
M 168.62 180.31 170.96 181.17 171.27 180.88 171.74 179.7 
M 158.1 189.82 159.49 189.49 160.13 189.18 161.47 188.13 164.18 186.91 164.75 186.81 165.28 186.95 
M 158.44 195.59 160.3 194.13 161.84 193.23 
M 105.17 162.41 105.26 164.68 105.61 165.83 106.8 166.75 108.3 167.39 
M 131.01 231.86 132.35 230.22 133.16 229.51 135.58 228.65 
M 74.79 182.86 74.43 182.2 
M 156.1 132.4 157.71 134.41 159.56 137.28 159.71 137.78 159.46 139.43 
M 170.69 211.04 169.9 212.26 168.66 212.53 
M 125.95 230.37 125.9 228.62 127.02 224.63 
M 112.02 204.74 111.36 204.62 110.4 205.03 107.72 206.71 105.15 208.62 
M 159.22 167.22 158.29 168.37 158.22 168.95 158.58 169.61 159.76 170.83 
M 139.89 190.57 140.52 192.25 140.47 193.59 140.02 195.09 139.59 195.46 139.14 195.58 
M 137.35 140.84 136.25 141.29 135.9 141.64 135.77 142.05 136.51 143.86 136.8 145.05 136.58 146.55 
M 133.61 200.58 133.02 200.05 130.29 199.27 129.88 198.56 129.45 197.02 
M 81.75 200.02 81.76 200.27 
M 81.97 200.59 83.58 201.8 86.17 204.79 
M 153.02 178.41 155.68 179.31 156.47 179.73 
M 141.42 202.93 140.97 203.86 140.52 204.24 139.83 204.3 138.54 203.85 
M 161.05 181.19 158.98 181.6 157.84 181.39 157.57 181.72 
M 172.08 183.61 172.39 183.74 
M 165.62 204.07 166.67 205.47 167.86 208.78 167.55 210.94 167.68 211.89 
M 146 207.15 145.44 207.12 144.2 207.84 141.68 208.91 140.89 209.11 140.17 209.01 139.12 208.55 138.51 207.85 137.86 206.38 
M 134.01 158.19 134.28 159.73 
M 159.34 135.74 160.01 137.42 160.01 138.58 159.68 140.42 158.82 142.27 158.39 143.97 
M 89.75 187.48 91.6 185.61 92.32 183.72 93.74 182.42 
M 153.06 174.84 153.82 173.61 154.98 172.86 
M 90.12 210.46 93.2 208.43 94.38 208.06 94.98 208.11 96.35 208.84 97.81 210.03 98.81 211.38 
M 103.66 194.58 102.2 194.62 98.1 194 95.29 194.17 
M 94.5 178.93 99.65 180.23 105.07 180.67 106.63 181.49 
M 90.68 214.67 89.79 215.46 89.18 216.33 88.76 217.34 88.52 218.47 88.49 220.91 89.16 224.71 89.9 227.18 92.09 232.03 93.35 235.86 94.33 238.31 95.76 240.53 97.56 242.5 95.67 240.61 94.03 238.48 92.8 236.07 91.25 232.41 88.62 227.74 87.18 223.86 86.35 219.74 86.32 218.27 86.51 216.76 86.99 215.26 87.8 213.87 88.8 212.78 
M 89.71 213.68 90.27 214.44 
M 85.84 209.61 85.63 210.65 86.48 210.38 
M 82.44 205.6 81.77 206.5 81.52 207.57 82.09 206.93 83.22 206.52 
M 79.02 201.71 77.87 202.99 77.4 204.5 78.19 203.42 79.86 202.63 
M 75.54 197.9 73.97 199.49 73.29 201.42 74.29 199.91 76.37 198.8 
M 72.08 194.06 70.06 195.98 69.18 198.35 70.38 196.41 72.86 194.99 
M 68.78 190.07 66.16 192.48 65.07 195.27 66.48 192.9 69.58 191.04 
M 90.12 213.78 90.62 213.85 
M 84.57 211.93 85.3 211.32 85.32 212.08 
M 79.58 210.64 79.93 209.8 80.86 208.91 80.46 209.88 80.56 210.9 
M 74.72 209.23 75.16 207.86 76.42 206.5 75.68 207.94 75.72 209.5 
M 69.82 207.96 70.38 205.92 71.98 204.09 70.91 206 70.87 208.22 
M 64.78 207.29 65.61 203.98 67.54 201.69 66.14 204.06 66 207.17 
M 70.97 213 77.4 215.78 86.33 219.02 
M 88.44 219.75 94.88 221.92 103.45 224.49 
M 99.5 223.34 99.99 223.2 
M 96.88 222.53 97.47 222.26 
M 164.87 140.54 165.56 141.23 
M 160.65 129.2 167.09 135.64 
M 165.29 126.73 170.93 132.36 
M 169.97 124.28 177.42 131.73 
M 174.66 121.85 180.26 127.45 
M 179.29 119.37 189.35 129.43 
M 183.91 116.87 194.06 127.02 
M 188.49 114.34 194.81 120.65 
M 193.08 111.8 203.48 122.21 
M 197.66 109.27 204.64 116.24 
M 202.24 106.73 212.06 116.56 
M 207.12 104.49 217.29 114.66 
M 212.1 102.35 217.47 107.72 
M 217.5 100.63 227.03 110.16 
M 223 99.02 230.36 106.38 
M 228.73 97.63 237.26 106.16 
M 234.75 96.54 242.54 104.33 
M 240.98 95.65 249.92 104.58 
M 247.32 94.87 255.87 103.42 
M 254.19 94.61 263.06 103.49 
M 261.73 95.04 271.84 105.15 
M 269.91 96.11 275.44 101.63 
M 277.93 97.01 286.6 105.67 
M 285.76 97.72 295.67 107.62 
M 296.75 101.59 303.54 108.38 
M 314.38 112.1 320.21 117.93 
M 336.22 126.83 341.99 132.6 
M 363.18 146.66 369.43 152.91 
M 381.83 158.19 390.69 167.06 
M 240.71 94.78 241.15 95.67 
M 242.78 90.9 245 95.34 
M 244.84 87.02 248.43 94.2 
M 248.09 85.52 252.68 94.68 
M 250.95 83.23 256.78 94.89 
M 251.03 75.37 260.96 95.24 
M 253.09 71.49 253.49 72.28 
M 254.28 73.87 264.68 94.68 
M 255.15 67.6 268.28 93.86 
M 269.01 95.33 269.35 95.99 
M 258.41 66.11 273.35 95.99 
M 262.86 67 266.04 73.37 
M 266.84 74.96 271.61 84.51 
M 261.34 55.95 264.12 61.52 
M 264.92 63.12 270.67 74.62 
M 279.54 92.36 279.94 93.15 
M 263.4 52.07 270.74 66.76 
M 286.24 97.75 286.24 97.76 
M 268.25 53.76 269.48 56.22 
M 267.92 45.1 269.23 47.71 
M 269.59 40.42 270.22 41.68 
M 227.78 292.89 227.66 292.3 227.24 291.7 226.73 291.39 225.53 291.39 224.84 291.7 224.06 292.3 223.58 292.89 223.01 293.8 222.56 295.3 222.71 296.8 223.13 297.39 223.64 297.7 224.84 297.7 225.53 297.39 226.31 296.8 226.79 296.2 
M 233 293.5 231.74 297.7 
M 232.73 294.39 232.31 293.8 231.8 293.5 230.9 293.5 230.21 293.8 229.43 294.39 228.86 295.3 228.68 295.89 228.71 296.8 229.13 297.39 229.64 297.7 230.54 297.7 231.23 297.39 232.01 296.8 
M 236.33 291.39 234.8 296.5 234.83 297.39 235.34 297.7 235.94 297.7 
M 234.8 293.5 236.9 293.5 
M 238.16 295.3 241.76 295.3 241.94 294.7 241.82 294.1 241.1 293.5 240.2 293.5 239.51 293.8 238.73 294.39 238.16 295.3 237.98 295.89 238.01 296.8 238.43 297.39 238.94 297.7 239.84 297.7 240.53 297.39 241.31 296.8 
M 244.4 293.5 243.14 297.7 
M 244.04 294.7 245.21 293.8 245.9 293.5 246.8 293.5 247.31 293.8 247.34 294.7 246.44 297.7 
M 247.34 294.7 248.51 293.8 249.2 293.5 250.1 293.5 250.61 293.8 250.64 294.7 249.74 297.7 
M 253.73 291.39 253.94 291.7 254.33 291.39 254.12 291.1 253.73 291.39 
M 253.4 293.5 252.14 297.7 
M 258.52 294.39 258.4 293.8 257.6 293.5 256.7 293.5 255.71 293.8 255.23 294.39 255.35 295 255.86 295.3 257.27 295.6 257.77 295.89 257.81 296.8 257.33 297.39 256.34 297.7 255.44 297.7 254.63 297.39 254.51 296.8 
M 263.89 293.5 262.64 297.7 
M 263.53 294.7 264.71 293.8 265.39 293.5 266.3 293.5 266.81 293.8 266.83 294.7 265.94 297.7 
M 266.83 294.7 268.01 293.8 268.7 293.5 269.6 293.5 270.11 293.8 270.14 294.7 269.24 297.7 
M 276.2 293.5 274.94 297.7 
M 275.93 294.39 275.51 293.8 275 293.5 274.1 293.5 273.4 293.8 272.63 294.39 272.06 295.3 271.88 295.89 271.9 296.8 272.33 297.39 272.83 297.7 273.74 297.7 274.43 297.39 275.2 296.8 
M 278.6 293.5 277.33 297.7 
M 278.06 295.3 278.63 294.39 279.4 293.8 280.1 293.5 281 293.5 
M 283.43 291.39 281.89 296.5 281.93 297.39 282.44 297.7 283.04 297.7 
M 281.89 293.5 284 293.5 
M 286.1 293.5 285.2 296.5 285.23 297.39 285.74 297.7 286.64 297.7 287.33 297.39 288.5 296.5 
M 289.39 293.5 288.14 297.7 
M 294.52 294.39 294.4 293.8 293.6 293.5 292.7 293.5 291.7 293.8 291.23 294.39 291.35 295 291.86 295.3 293.27 295.6 293.77 295.89 293.81 296.8 293.33 297.39 292.33 297.7 291.44 297.7 290.63 297.39 290.51 296.8 
M 296.12 297.1 295.73 297.39 295.94 297.7 296.33 297.39 296.12 297.1 
"/></svg>
