<svg xmlns="http://www.w3.org/2000/svg" width="520" height="320"><rect x="0" y="0" width="520" height="320" fill="floralwhite"/><rect x="10" y="10" width="500" height="300" stroke="black" stroke-width="1" fill="none"/><path stroke="black" stroke-width="1" fill="none" stroke-linecap="round" stroke-linejoin="round" d="
M 141.13 135.79 150.22 131.9 159.36 129.01 168.5 125.66 186.78 116.54 205.06 109.64 214.2 106.35 223.34 103.68 232.48 101.27 241.62 101.13 259.9 104.32 269.04 106.37 278.18 109.85 287.32 114.02 305.6 121.79 314.74 126.75 323.88 132.24 333.02 138.13 342.16 143.7 360.44 152.8 378.72 162.82 
M 378.72 180.98 369.58 187.33 360.44 193.31 351.3 198.59 342.16 203.44 333.02 207.88 314.74 215.69 305.6 218.83 296.46 220.58 287.32 222.6 278.18 225.18 269.04 226.09 250.76 223.62 241.62 222.95 232.48 223.21 223.34 225.17 214.2 226.37 195.92 226.2 186.78 225.79 177.64 223.57 168.5 220.66 159.36 217.37 150.27 213.53 
M 144.98 138.55 143.26 134.88 
M 146.53 140.27 148.29 139.5 151.63 136.56 153.79 133.24 153.79 131.18 153.57 130.84 
M 151.06 157.25 152.14 156.13 154.25 152.25 154.25 149.85 152.14 145.98 148.85 142.56 147.15 141.67 
M 153.54 151.48 155.81 150.2 158.71 146.91 160.58 143.18 160.58 140.88 158.71 137.15 155.81 133.86 153.54 132.58 
M 151.43 139.72 157.45 139.54 
M 151.26 141.87 156.75 142.14 
M 151.19 144.19 157.17 145.22 
M 155.36 169.82 158.01 166.44 159.71 162.63 159.71 160.28 158.01 156.47 155.38 153.1 153.5 151.9 
M 151.88 159.25 156.69 158.92 
M 152.72 161.61 156.29 161.51 
M 153.62 164.13 156.73 164.75 
M 156.08 184.62 157.14 181.83 157.14 179.33 156.03 176.41 
M 159.91 141.64 162.25 140.6 165.55 137.66 167.68 134.33 167.68 132.27 165.55 128.94 163.81 127.38 
M 157.61 131.62 163.84 130.69 
M 157.13 133 163.78 133.42 
M 157.47 135.27 163.79 135.5 
M 160.13 161.48 162.65 160.19 165.87 156.89 167.94 153.15 167.94 150.83 165.87 147.09 162.65 143.79 160.13 142.5 
M 157.78 150.11 163.99 148.79 
M 157.89 151.77 163.75 151.67 
M 157.54 154.21 163.77 155.12 
M 158.91 181.08 161.35 179.74 164.46 176.28 166.47 172.37 166.47 169.95 164.46 166.03 161.35 162.58 159.1 161.33 
M 156.17 168.72 163.24 168.04 
M 156.88 170.84 162.76 171.23 
M 156.86 173 162.37 173.82 
M 163.95 186.51 160.66 182.46 158.24 181.02 
M 166.92 131.91 168.23 131.3 171.02 128.69 172.82 125.73 172.82 123.9 172.62 123.57 
M 166.01 126.58 170.01 127.02 
M 167.2 151.81 169.1 150.65 171.72 147.42 173.41 143.77 173.41 141.51 171.72 137.86 169.1 134.64 167.05 133.38 
M 165.39 141.15 170.08 139.7 
M 165.41 142.59 170.65 142.9 
M 164.79 144.43 169.94 145.11 
M 166.6 171.4 168.62 170.1 171.21 166.77 172.88 163 172.88 160.67 171.21 156.9 168.62 153.57 167.2 152.66 
M 164.3 160.18 169.4 158.78 
M 164.71 162.01 169.85 161.62 
M 165.08 163.36 170.09 164.86 
M 169.16 186.25 171.13 182 171.13 179.51 169.34 175.49 166.56 171.94 165.75 171.42 
M 162.15 178.97 168.13 177.82 
M 162.58 180.88 167.5 181.17 
M 162.43 182.7 167.61 183.66 
M 173.22 125.36 175.71 124.5 178.9 122.31 180.95 119.82 180.95 119.4 
M 173.24 142.26 175.73 141.14 178.92 138.25 180.97 134.98 180.97 132.96 178.92 129.69 175.73 126.8 173.24 125.68 
M 173.22 161.64 175.64 160.36 178.73 157.07 180.73 153.35 180.73 151.04 178.73 147.32 175.64 144.03 173.22 142.74 
M 172.37 181.82 174.9 180.45 178.14 176.93 180.22 172.96 180.22 170.49 178.14 166.51 174.9 163 172.37 161.63 
M 176.13 185.03 174.67 183.43 172.06 182 
M 180.24 133.16 182.07 132.26 184.74 129.68 186.47 126.75 186.47 124.93 184.74 122 182.07 119.41 181.49 119.13 
M 180.02 151.47 181.86 150.34 184.4 147.21 186.04 143.68 186.04 141.49 184.4 137.96 181.86 134.83 180.24 133.84 
M 179.47 171.63 181.36 170.36 183.93 166.88 185.59 162.93 185.59 160.49 183.93 156.55 181.36 153.07 180.02 152.16 
M 185.97 184.08 186.06 181.3 184.22 177.12 181.38 173.43 179.47 172.2 
M 186.2 125.64 188.57 124.76 191.6 122.5 193.56 119.94 193.56 118.36 191.6 115.8 190.65 115.09 
M 186.34 142.44 188.76 141.32 191.86 138.44 193.86 135.19 193.86 133.17 191.86 129.92 188.76 127.04 186.34 125.92 
M 186.08 161.74 188.49 160.44 191.58 157.11 193.58 153.34 193.58 151.01 191.58 147.24 188.49 143.92 186.08 142.62 
M 185.96 182.77 188.44 181.37 191.62 177.76 193.67 173.68 193.67 171.15 191.62 167.06 188.44 163.46 185.96 162.05 
M 187.42 183.96 186.1 183.21 
M 192.86 117.36 193.87 116.94 196.24 114.98 197.78 112.76 197.78 112.41 
M 193.14 133.3 194.87 132.41 197.43 129.76 199.08 126.76 199.08 124.91 197.43 121.91 194.87 119.26 192.86 118.23 
M 192.86 151.35 194.63 150.27 197.19 147.13 198.84 143.57 198.84 141.36 197.19 137.81 194.63 134.66 193.14 133.76 
M 192.93 171.86 194.52 170.79 197.14 167.23 198.83 163.19 198.83 160.7 197.14 156.66 194.52 153.1 192.86 151.98 
M 190.06 159.59 196.02 158.78 
M 190.74 161.93 196.05 162.31 
M 190.16 164.23 195.71 165.06 
M 199.05 183.04 199.05 182.1 197.4 177.92 194.85 174.22 192.93 172.83 
M 191.21 181.19 196.47 180.05 
M 190.84 183.08 194.3 183.29 
M 198.59 125.54 200.91 124.61 203.89 122.22 205.8 119.51 205.8 117.84 203.89 115.13 200.91 112.74 198.96 111.96 
M 196.72 117.73 202.28 116.28 
M 196.03 119.01 201.96 119 
M 196.41 120.27 202.29 120.72 
M 199.21 142.6 201.61 141.45 204.68 138.52 206.66 135.2 206.66 133.15 204.68 129.83 201.61 126.9 199.21 125.75 
M 197.01 132.21 203.49 131.61 
M 196.44 134.06 203.05 134.07 
M 196.61 136.23 203.15 136.95 
M 199.11 161.91 201.54 160.61 204.64 157.27 206.65 153.49 206.65 151.15 204.64 147.37 201.54 144.04 199.11 142.74 
M 197.16 150.39 203.3 149.62 
M 196.38 152 202.8 152.17 
M 196.87 154.35 202.95 155.48 
M 198.95 182.81 201.34 181.41 204.4 177.83 206.37 173.77 206.37 171.26 204.4 167.2 201.34 163.62 198.95 162.22 
M 196.85 170.54 202.78 169.06 
M 196.61 172.36 203.2 172.35 
M 196.24 174.9 203.12 175.2 
M 205.12 116.64 205.66 116.4 208.1 114.21 209.67 111.73 209.67 110.19 208.53 108.39 
M 206.99 108.94 207.24 108.89 
M 202.21 110.72 206.85 111.11 
M 201.47 112.51 207.25 112.96 
M 205.95 133.65 207.72 132.69 210.25 129.93 211.88 126.8 211.88 124.86 210.25 121.74 207.72 118.98 205.74 117.9 
M 203.85 124.26 209.29 123.21 
M 203.85 125.88 209.35 125.84 
M 203.96 127.6 208.8 128.66 
M 205.93 151.49 207.62 150.45 210.2 147.28 211.86 143.68 211.86 141.46 210.2 137.86 207.62 134.69 205.95 133.65 
M 203.48 140.84 208.95 139.5 
M 203.82 142.42 209.19 142.47 
M 203.66 144.61 209.11 145.37 
M 205.72 172.28 207.76 170.93 210.36 167.46 212.04 163.53 212.04 161.1 210.36 157.17 207.76 153.7 205.93 152.48 
M 203.54 160.61 209.06 159.67 
M 203.64 162.44 209.24 162.73 
M 203.43 164.23 208.8 165.39 
M 210.61 182.29 210.61 181.15 209.05 177.07 206.62 173.46 205.66 172.75 
M 203.24 180.66 207.35 179.51 
M 202.94 182.75 205.05 182.72 
M 209.4 110.77 211.79 110.14 214.86 108.52 216.83 106.69 216.83 105.58 
M 211.89 107.18 212.98 107.15 
M 211.3 125.26 213.42 124.39 216.42 121.93 218.35 119.16 218.35 117.44 216.42 114.66 213.42 112.2 211.08 111.25 
M 209.16 116.87 214.93 116.46 
M 209.13 117.93 214.68 118.49 
M 208.39 120 214.63 120.17 
M 212.05 142.7 214.43 141.53 217.47 138.56 219.43 135.18 219.43 133.1 217.47 129.72 214.43 126.75 212.05 125.58 
M 209.45 132.35 215.67 131.14 
M 209.44 134.02 215.89 133.98 
M 210.15 135.8 215.45 136.27 
M 212.12 161.99 214.54 160.7 217.63 157.38 219.62 153.62 219.62 151.29 217.63 147.53 214.54 144.21 212.12 142.92 
M 209.93 150.85 216.07 149.41 
M 209.54 152.65 215.68 152.08 
M 209.67 154 216.28 155.17 
M 211.89 182.21 213.95 181.02 216.99 177.5 218.95 173.51 218.95 171.04 216.99 167.05 213.95 163.53 211.57 162.15 
M 208.85 170.11 215.29 169.47 
M 209.52 172.33 215.49 172.16 
M 209.55 173.97 215.81 175.55 
M 217.66 116.36 218.51 116.02 221.08 113.93 222.74 111.57 222.74 110.1 221.08 107.74 218.51 105.65 217.71 105.33 
M 218.73 133.3 220.25 132.44 222.7 129.67 224.28 126.53 224.28 124.58 222.7 121.44 220.25 118.67 218.33 117.59 
M 218.91 151.56 220.54 150.55 223.11 147.35 224.77 143.72 224.77 141.48 223.11 137.86 220.54 134.66 218.73 133.53 
M 218.63 172.21 220.62 170.87 223.17 167.43 224.81 163.54 224.81 161.14 223.17 157.25 220.62 153.81 218.91 152.66 
M 223.42 182.34 223.42 180.76 221.76 176.71 219.2 173.13 218.25 172.46 
M 222.82 110.94 225.24 110.36 228.34 108.87 230.34 107.18 230.34 106.13 228.34 104.44 225.55 103.1 
M 223.71 124.87 225.98 123.94 228.9 121.57 230.79 118.87 230.79 117.21 228.9 114.51 225.98 112.14 223.7 111.21 
M 224.68 142.51 226.95 141.34 229.86 138.34 231.74 134.95 231.74 132.84 229.86 129.45 226.95 126.45 224.68 125.28 
M 225.01 162.05 227.35 160.75 230.35 157.41 232.28 153.63 232.28 151.29 230.35 147.51 227.35 144.17 225.01 142.87 
M 224.42 182.37 226.82 180.99 229.9 177.47 231.89 173.47 231.89 171 229.9 167.01 226.82 163.49 224.42 162.11 
M 229.68 105.7 231.67 105.33 234.23 104.39 235.88 103.32 235.88 102.66 234.23 101.6 233.31 101.26 
M 230.11 116.3 231.5 115.75 233.94 113.86 235.5 111.72 235.5 110.39 233.94 108.25 231.5 106.36 229.63 105.63 
M 231.07 132.2 232.13 131.56 234.42 128.8 235.9 125.68 235.9 123.75 234.42 120.62 232.13 117.86 230.34 116.78 
M 231.59 152.04 233.38 150.82 235.77 147.55 237.31 143.85 237.31 141.57 235.77 137.87 233.38 134.61 231.51 133.33 
M 231.35 172.12 233.29 170.77 235.78 167.31 237.39 163.4 237.39 160.98 235.78 157.06 233.29 153.61 231.59 152.42 
M 236.96 182.37 236.96 181.14 235.24 177.03 232.57 173.4 231.18 172.45 
M 235.3 110.28 237.49 109.74 240.31 108.34 242.12 106.75 242.12 105.77 240.31 104.19 237.49 102.79 235.3 102.24 
M 233.07 105.86 238.53 104.93 
M 233.42 106.42 239.25 106.01 
M 233.26 106.77 238.64 107.5 
M 235.48 123.6 237.62 122.7 240.35 120.39 242.12 117.78 242.12 116.17 240.35 113.56 237.62 111.26 235.48 110.36 
M 233.47 115.45 238.77 115.38 
M 233.65 116.8 238.69 117.33 
M 233.72 118.2 239.34 119.02 
M 236.76 141.2 238.48 140.25 241.21 137.21 242.97 133.78 242.97 131.65 241.21 128.21 238.48 125.18 236.34 123.99 
M 237.21 161.72 239.46 160.37 242.35 156.92 244.21 153.02 244.21 150.6 242.35 146.69 239.46 143.24 237.21 141.9 
M 237.94 182.39 239.79 181.31 242.89 177.69 244.89 173.58 244.89 171.04 242.89 166.94 239.79 163.31 237.37 161.9 
M 241.08 104.22 242.79 103.86 244.98 102.93 246.33 101.93 
M 239.82 101.49 243.02 101.37 
M 239.44 102.36 243.72 102.12 
M 241.25 114.55 242.54 114.01 244.73 112.17 246.14 110.09 246.14 108.8 244.73 106.71 242.54 104.87 240.82 104.15 
M 239.16 108.75 243.37 108.25 
M 238.72 109.62 243.29 109.76 
M 239.62 110.36 243.69 110.67 
M 242.34 129.8 242.87 129.47 245.08 126.74 246.5 123.65 246.5 121.74 245.08 118.65 242.87 115.93 241.49 115.07 
M 239.24 121.14 243.73 119.96 
M 239.58 123.02 244.04 123.06 
M 239.94 123.87 244.36 124.89 
M 243.54 149.57 244.09 149.15 246.31 145.76 247.74 141.92 247.74 139.54 246.31 135.7 244.09 132.31 242.36 130.99 
M 240.53 139.01 244.9 137.78 
M 240.41 141.08 245.25 140.63 
M 240.63 142.95 244.96 143.76 
M 244.18 171.78 245.59 170.75 248.11 167.06 249.73 162.89 249.73 160.31 248.11 156.13 245.59 152.45 243.62 151.01 
M 241.94 159.91 246.67 157.99 
M 241.51 161.62 246.59 161.99 
M 242.06 163.97 246.62 164.47 
M 250.41 181.56 248.77 177.52 246.1 173.8 244.18 172.46 
M 241.87 180.72 247.1 180.2 
M 246.13 108.31 248.09 107.76 250.6 106.35 252.22 104.76 252.22 103.78 251.19 102.76 
M 244.63 103.84 249.52 102.71 
M 244.69 104.56 249.56 104.18 
M 244.04 104.63 249.04 105.07 
M 246.36 121.69 248.43 120.79 251.08 118.47 252.79 115.85 252.79 114.22 251.08 111.6 248.43 109.28 246.36 108.38 
M 244 113.28 250.03 112.62 
M 244.65 114.71 249.65 115.3 
M 244.2 116.07 249.5 116.8 
M 247.31 139.82 249.54 138.6 252.39 135.48 254.22 131.95 254.22 129.76 252.39 126.23 249.54 123.11 247.31 121.89 
M 245 129.23 251.06 128.12 
M 245.26 130.88 250.85 130.49 
M 245.07 132.2 250.8 133.19 
M 249.15 161.16 251.4 159.81 254.42 156.17 256.37 152.06 256.37 149.51 254.42 145.4 251.4 141.77 249.04 140.35 
M 246.65 148.73 252.48 147.73 
M 246.78 151.23 252.72 151.04 
M 246.77 152.64 252.84 153.55 
M 252.88 181.69 255.92 178.01 257.92 173.76 257.92 171.14 255.92 166.89 252.82 163.14 250.39 161.67 
M 247.82 170.52 254.02 168.8 
M 247.76 172.77 254.5 172.43 
M 247.72 174.72 254.15 175.76 
M 251.7 112.38 252.88 111.83 254.92 109.92 256.24 107.75 256.24 106.42 254.92 104.25 253.83 103.23 
M 251.42 105.75 253.9 105.24 
M 249.65 107.03 253.94 106.8 
M 249.99 108.13 253.87 109.05 
M 253.57 128.13 254.06 127.84 256.45 125.05 257.99 121.89 257.99 119.94 256.45 116.78 254.06 113.99 252.2 112.9 
M 250.65 119.49 255.53 118.66 
M 250.13 120.46 255.29 121.1 
M 250.31 122.22 255.53 123 
M 255.67 147.9 258.32 144.38 260.05 140.33 260.05 137.82 258.32 133.77 255.63 130.2 253.57 128.82 
M 251.26 136.71 256.53 135.57 
M 251.58 139.45 257 138.95 
M 251.53 140.73 256.48 142.38 
M 257.21 172.48 258.72 171.37 261.36 167.5 263.06 163.11 263.06 160.39 261.36 156 258.72 152.12 256.66 150.61 
M 254.47 159.87 259.63 158.47 
M 254.85 161.76 259.67 161.54 
M 255.07 164.04 259.83 164.92 
M 263.4 182.15 261.77 177.9 259.24 174.18 257.26 172.73 
M 255.07 181.37 260.51 180.29 
M 255.72 105.19 257.1 104.7 258.12 104 
M 257.24 120.7 259.32 119.67 261.98 117.02 263.69 114.02 263.69 112.16 261.98 109.15 259.32 106.5 257.24 105.47 
M 254.77 111.9 260.65 111.09 
M 255.03 113.03 260.93 113.13 
M 255.46 115.05 260.37 115.25 
M 259.95 140.26 262.4 138.95 265.54 135.6 267.56 131.8 267.56 129.45 265.54 125.65 262.4 122.3 259.95 120.99 
M 257.73 128.78 263.51 128.19 
M 257.14 131 263.69 130.38 
M 257.71 132.55 264.14 133.17 
M 262.34 161.74 264.88 160.3 268.13 156.64 270.23 152.48 270.23 149.91 268.13 145.76 264.88 142.09 262.34 140.66 
M 259.64 149.02 266.62 148.42 
M 259.7 151.62 266.31 150.86 
M 260.29 153.35 266.22 154.39 
M 265.08 182.13 265.76 181.72 268.82 178.03 270.79 173.84 270.79 171.25 268.82 167.07 265.76 163.38 263.37 161.94 
M 261.17 169.97 267.48 169.26 
M 261.31 172.34 267.35 172.48 
M 260.82 175.04 266.79 175.73 
M 267.69 207.92 267.66 207.89 
M 262.1 109.56 263.98 107.19 264.78 105.41 
M 266.84 129.39 269.39 125.91 270.98 122.06 270.98 119.67 269.39 115.81 266.94 112.41 265.02 111.08 
M 269.48 151.84 271.33 150.69 274.26 147.04 276.15 142.92 276.15 140.36 274.26 136.24 271.33 132.59 269.05 131.17 
M 270.13 172.6 272.14 171.2 274.73 167.63 276.39 163.58 276.39 161.07 274.73 157.02 272.14 153.44 270.13 152.04 
M 275.36 183.23 275.36 181.45 273.78 177.37 271.34 173.76 269.43 172.36 
M 274.15 207.99 274.68 206.66 
M 268.07 120.13 270.1 118.9 272.7 115.76 274.38 112.2 274.38 110 273.46 108.05 
M 273.41 141.68 275.8 140.26 278.87 136.6 280.85 132.46 280.85 129.9 278.87 125.77 275.8 122.11 273.41 120.69 
M 276.12 162.43 278.62 161.02 281.83 157.42 283.89 153.34 283.89 150.81 281.83 146.73 278.62 143.13 276.12 141.72 
M 275.99 182.53 278.35 181.14 281.38 177.58 283.33 173.54 283.33 171.04 281.38 167.01 278.35 163.45 275.99 162.06 
M 276.71 183.34 275.61 182.68 
M 280.35 207.51 278.83 205.8 
M 269.99 108.35 271.5 107.3 
M 279.76 127.19 280.71 125.51 282.12 121.17 282.12 118.48 280.71 114.14 278.53 110.3 277.89 109.74 
M 283.15 152.81 284.8 151.66 287.46 147.94 289.18 143.71 289.18 141.1 287.46 136.88 284.8 133.15 282.72 131.69 
M 282.63 171.86 284.55 170.53 287.06 167.06 288.67 163.14 288.67 160.71 287.06 156.79 284.55 153.32 283.7 152.73 
M 287.53 184.66 288.01 183.47 288.01 180.95 286.35 176.87 283.79 173.26 281.79 171.86 
M 287.23 206.33 287.92 204.58 287.92 202.79 
M 278.33 118.14 280.56 116.84 283.41 113.5 283.91 112.46 
M 288.57 139.08 290.74 136.2 292.67 131.73 292.67 128.96 290.74 124.49 287.76 120.54 285.42 119 
M 289.11 162.78 291.52 161.34 294.61 157.65 296.61 153.47 296.61 150.88 294.61 146.7 291.52 143.01 289.11 141.57 
M 286.9 150.26 293.04 149.14 
M 287.16 152.33 293.24 152.18 
M 287.05 153.91 292.65 155.63 
M 288.72 182.33 291.11 180.94 294.18 177.4 296.15 173.39 296.15 170.91 294.18 166.9 291.11 163.36 288.72 161.97 
M 286.11 170.23 292.62 169.32 
M 286.19 172.05 292.44 172.24 
M 286.57 173.86 292.37 175.19 
M 288.36 203.17 289.66 202.41 
M 291.68 185.05 290.75 183.97 288.36 182.57 
M 291.68 205.77 290.87 204.85 288.49 203.52 
M 286.32 128.43 288.29 126.82 290.82 122.67 292.45 117.98 292.45 116.18 
M 284.63 114.2 286.57 113.67 
M 284.29 116.48 289.19 116.77 
M 284.8 118.46 289.16 120.33 
M 295.89 154.3 297.84 152.76 300.43 148.68 302.1 144.06 302.1 141.2 300.43 136.58 297.84 132.5 295.82 130.9 
M 293.61 140.12 299.19 138.73 
M 294.13 142.66 298.79 142.36 
M 294.09 144.64 299.43 146.24 
M 295.3 171.77 297.29 170.41 299.84 166.92 301.49 162.97 301.49 160.53 299.84 156.58 297.3 153.11 
M 293.06 159.49 298.89 158.54 
M 293.26 162.01 298.89 161.51 
M 293.59 163.93 298.26 165 
M 300.93 185.33 301.49 183.98 301.49 181.45 299.81 177.36 297.22 173.75 295.19 172.34 
M 293.26 180.75 298.7 179.15 
M 293.18 182.27 298.26 183.02 
M 293.15 184.35 294.4 184.7 
M 300.7 204.76 300.82 204.47 300.82 202.01 299.77 199.46 
M 292.62 201.65 297.83 200.52 
M 292.32 203.13 297.66 203.63 
M 292.74 205.25 294.37 205.44 
M 291.86 117.46 293.66 116.69 
M 301.5 138.94 303.95 136 306.07 131.53 306.07 128.76 303.95 124.28 300.66 120.33 298.09 118.79 
M 295.46 128.05 302.05 127.08 
M 295.88 130.12 302.17 130.36 
M 297.54 132.52 302.16 133.13 
M 302.02 162.9 304.43 161.44 307.51 157.72 309.5 153.51 309.5 150.9 307.51 146.69 304.43 142.97 302.02 141.52 
M 299.28 150.33 305.98 148.58 
M 299.39 151.82 306.25 152.14 
M 300.07 154.75 305.52 155.84 
M 301.65 182.39 304.04 181.01 307.1 177.46 309.07 173.45 309.07 170.96 307.1 166.95 304.04 163.41 301.65 162.02 
M 299.12 169.84 305.82 168.74 
M 299.63 172.25 305.59 172.56 
M 299.68 174.29 305.84 175.59 
M 301.3 203.21 303.67 201.81 306.7 198.23 307.12 197.39 
M 305.69 186.43 303.67 184.05 301.3 182.65 
M 303.14 204.52 301.32 203.51 
M 301.52 129.53 304.08 128.07 307.37 124.33 307.99 123.09 
M 298.76 120.71 305.26 121.93 
M 308.79 153.6 310.7 152.16 313.26 148.32 314.91 143.98 314.91 141.29 313.26 136.94 310.7 133.1 308.7 131.61 
M 307.21 140.66 311.49 139.06 
M 306.63 142.59 311.81 142.87 
M 306.37 145.19 311.71 146.26 
M 308.24 171.8 310.26 170.44 312.84 166.97 314.51 163.03 314.51 160.6 312.84 156.67 310.26 153.19 308.24 151.84 
M 306.06 159.98 311.1 158.79 
M 306.08 162.12 311.17 161.59 
M 305.85 164.23 311.5 164.42 
M 312.77 186.61 313.86 183.8 313.86 181.28 312.27 177.2 309.81 173.59 307.89 172.19 
M 306.48 180.88 311.22 179.6 
M 305.83 182.87 310.97 182.46 
M 306.48 184.8 310.87 185.75 
M 313.58 202.6 313.58 201.97 311.96 197.93 310.51 195.86 
M 305.63 201.36 310.69 200.24 
M 305.82 203.48 310.48 202.87 
M 312.62 141.78 315.32 140.42 318.78 136.92 321.01 132.97 321.01 130.52 
M 314.94 162.4 317.36 161.02 320.45 157.49 322.44 153.49 322.44 151.02 320.45 147.02 317.36 143.48 314.94 142.11 
M 314.32 182.08 316.67 180.71 319.69 177.21 321.63 173.23 321.63 170.77 319.69 166.8 316.67 163.29 314.32 161.92 
M 314.62 202.38 316.05 201.49 318.96 197.89 320.84 193.81 320.81 191.22 
M 318.64 186.8 316.05 183.59 313.78 182.19 
M 320.21 130.8 320.92 130.46 
M 321.56 152.41 323.56 151.08 326.11 147.67 327.75 143.81 327.75 141.41 326.11 137.55 323.56 134.14 321.56 132.81 
M 321.26 171.74 323.3 170.41 325.9 167.01 327.58 163.15 327.58 160.76 325.9 156.91 323.3 153.5 321.26 152.17 
M 319.9 191.9 320.82 191.22 
M 323.66 187.7 324.15 186.96 325.69 182.94 325.69 180.45 324.15 176.43 321.76 172.88 320.93 172.26 
M 324.86 199.57 324.02 197.23 321.67 193.54 319.84 192.1 
M 326.78 142 329.34 140.78 332.48 137.78 
M 327.9 162.03 330.31 160.71 333.4 157.34 335.4 153.51 335.4 151.15 333.4 147.32 330.31 143.95 327.9 142.63 
M 326.85 181.5 329.23 180.16 332.27 176.74 334.22 172.86 334.22 170.46 332.27 166.59 329.23 163.16 326.85 161.83 
M 329.65 198.31 330.8 196.88 332.67 192.8 332.67 190.28 330.8 186.21 327.9 182.61 325.63 181.21 
M 334.68 151.94 336.36 150.84 338.9 147.5 340.54 143.71 340.54 142.71 
M 332.64 140.33 335.72 139.77 
M 332.16 142.2 337.29 142.18 
M 332.45 144.76 337.69 145.45 
M 334.41 171.82 336.44 170.51 339.04 167.17 340.72 163.38 340.72 161.04 339.04 157.26 336.44 153.91 334.68 152.79 
M 332.52 160.29 337.78 159.47 
M 332.24 162.35 337.75 162.59 
M 332.01 164.03 337.6 165.21 
M 332 190.42 333.82 189.2 336.36 185.81 337.99 181.97 337.99 179.59 336.36 175.75 333.82 172.36 331.84 171.04 
M 335.64 196.58 335.22 195.42 332.82 191.66 332 191.02 
M 340.83 162.02 343.23 160.71 346.3 157.36 348.28 153.56 348.28 151.21 346.3 147.41 343.53 144.38 
M 338.68 150.22 344.35 149.26 
M 338.95 152.11 344.32 151.94 
M 338.26 154.75 344.64 155.13 
M 339.76 181.4 342.22 180.08 345.37 176.7 347.41 172.87 347.41 170.51 345.37 166.68 342.22 163.3 340.12 162.18 
M 337.61 170.05 343.82 169.13 
M 337.68 171.29 343.96 171.57 
M 337.7 173.98 343.83 174.52 
M 345.19 193.34 345.72 192.29 345.72 189.8 343.67 185.78 340.48 182.23 337.99 180.84 
M 336.02 188.78 341.68 188.37 
M 335.33 190.66 341.93 190.63 
M 335.64 193.03 342.4 194.37 
M 347.14 151.99 349.11 150.69 351.06 148.13 
M 347.42 172.12 349.41 170.79 351.97 167.39 353.61 163.54 353.61 161.15 351.97 157.3 349.41 153.9 347.42 152.57 
M 345.12 160.79 350.23 159.68 
M 345.06 161.95 350.24 162.48 
M 345.82 164.19 350.5 165.57 
M 345.37 191.12 347.57 189.8 350.39 186.43 352.2 182.6 352.2 180.24 350.39 176.41 347.57 173.04 345.37 171.72 
M 343.25 179.46 348.61 178.95 
M 342.98 181.48 349.31 181.72 
M 343.04 183.2 348.85 184.22 
M 346.76 192.75 346.06 191.84 343.82 190.4 
M 353.61 162.02 355.94 160.69 358.93 157.31 360.86 153.47 360.86 153.03 
M 353.23 182.29 355.69 180.93 358.85 177.44 360.89 173.49 360.89 171.04 358.85 167.09 355.69 163.6 353.23 162.23 
M 358.74 187.94 358.25 187.05 354.85 183.49 352.19 182.1 
M 360.07 172.36 361.98 170.97 364.41 167.41 365.98 163.37 365.98 160.88 364.41 156.84 362.36 153.84 
M 366.64 184.29 366.64 181.9 364.89 177.8 362.17 174.17 360.05 172.76 
M 365.87 161.49 368.07 160.16 369.91 157.93 
M 366.14 182.77 368.44 181.34 371.38 177.7 373.27 173.57 373.27 171.02 371.38 166.9 368.44 163.25 366.14 161.83 
M 367.6 183.83 366.32 183.09 
M 371.84 171.43 373.64 170.02 375.95 166.4 377.44 162.11 
M 370.18 159.12 371.46 158.79 
M 369.86 161.22 375.04 160.97 
M 370.18 162.78 374.92 164.35 
M 377.36 178.94 376.77 177.26 374.43 173.48 372.6 172.01 
M 370.76 180.46 375.14 180 
M 378.72 163.1 378.72 163.1 
M 375.74 169.38 378.72 169.14 
M 375.49 170.77 378.72 170.89 
M 375.4 173.06 378.72 173.48 
M 153.57 130.84 153.57 130.84 
M 153.5 210.69 152.39 208.43 
M 154.52 211.09 156.45 208.06 157.67 204.72 
M 166.67 215.31 167.07 214.5 167.07 212 165.08 207.96 163.72 206.38 
M 169.33 216.14 168.97 215.67 166.98 214.36 
M 170.08 213.39 176.97 213.52 
M 170.87 215.18 177.03 216.42 
M 181.49 119.13 181.49 119.13 
M 193.01 214.35 194.76 213.13 195.57 212 
M 197.64 220.52 197.07 219.35 194.53 216.35 193.01 215.45 
M 198.96 111.96 198.96 111.96 
M 197.02 212.43 197.54 212.29 
M 197.01 213.73 203.14 213.95 
M 197.08 215.63 202.61 216.36 
M 208.53 108.39 208.53 108.39 
M 205.58 213.63 206.29 213.11 
M 216.83 105.58 216.83 105.58 
M 209.21 216.05 215.36 216.69 
M 217.71 105.33 217.71 105.33 
M 218.33 213.39 219.02 212.9 
M 222.97 219.14 220.53 216.19 218.51 214.96 
M 225.55 103.1 225.55 103.1 
M 230.86 217.46 232.12 215.03 232.12 212.64 231.8 212.03 
M 231.41 213.94 232.98 212.88 233.65 211.95 
M 244.03 217.05 245.04 215.11 245.04 212.78 244.77 212.26 
M 246.66 217.25 245.63 215.99 244.33 215.2 
M 248.21 213.87 254.11 213.56 
M 248.12 215.77 254 216.67 
M 261.19 213.73 267 213.91 
M 260.4 215.62 266.48 216.65 
M 264.78 105.41 264.78 105.41 
M 269.39 213.93 271.31 212.55 273.76 209 274.15 207.99 
M 274.63 219.68 274.17 218.71 271.54 215.5 269.48 214.24 
M 273.46 108.05 273.46 108.05 
M 281.17 218.68 283.19 214.75 283.19 212.36 281.23 208.49 280.35 207.51 
M 281.83 213.69 283.79 212.28 286.3 208.67 287.23 206.33 
M 286.05 217.48 284.55 215.54 282.58 214.26 
M 286.39 213.1 292.41 212.94 
M 285.84 215.53 292.32 215.84 
M 295.17 212.98 296.62 211.98 299.17 208.46 300.7 204.76 
M 294.37 205.44 298.11 205.85 
M 299.24 210.98 305 210.51 
M 313.78 202.9 314.62 202.38 
M 325.63 201.88 327.9 200.47 329.65 198.31 
M 330.11 205.47 328.93 204.05 326.62 202.66 
M 336.56 202.87 336.77 202.31 336.77 199.67 335.64 196.58 
M 329.57 198.91 334.04 197.84 
M 329.5 200.67 333.88 200.58 
M 329.14 203.42 333.25 204.29 
M 337.99 201.25 340.48 199.86 343.67 196.31 345.19 193.34 
M 351.06 148.13 351.06 148.13 
M 349.54 196.92 348.92 195.52 346.76 192.75 
M 364.75 188.72 366.64 184.29 
M 369.82 185.69 368.8 184.51 367.6 183.83 
M 377.44 162.11 377.44 162.11 
M 371.46 158.79 371.46 158.79 
M 377.94 180.57 377.36 178.94 
M 370.67 182.6 374.71 182.61 
M 378.72 163.1 377.73 162.6 
M 177.64 121.02 177.64 121.02 
M 181.56 119.1 182.54 102.13 182.12 98.86 182.95 93.96 183 90.41 184.04 87.67 185.91 85.75 187.22 83.29 188.12 80.47 189.37 78.02 191.09 76.05 192.64 73.91 194.05 68.15 194.91 65.43 196.38 63.1 198.92 61.76 200.65 59.62 201.37 56.58 203.67 51.34 208.15 48.22 210.14 46.37 213.83 42.34 215.21 39.86 216.01 36.8 217.14 34.05 218.86 31.9 224.48 30 227.17 30.44 230.41 31.96 235.6 33.71 237.82 33.55 243.32 34.04 247.27 35.48 252.7 36.22 259.2 35.72 261.81 35.85 264.66 35.52 268.27 35.95 271.15 35.64 273.39 35.22 276.23 35.85 278.12 35.53 280.44 35.6 286.98 37.31 292.28 35.65 295.56 36.05 302.38 38.43 305.45 39.82 307.77 40.48 311.1 42.27 316.89 44.97 318.33 45.97 319.35 48.1 321.02 52.44 322.23 61.44 322.12 64.29 321.64 66.76 320.66 68.73 320.23 71.01 321.3 74.13 322.96 77.53 325.69 81.48 324.96 84.59 326.32 89.53 327.84 92.77 328.68 95.64 329.03 98.06 330.4 104 331.44 107.72 330.49 109.89 328.43 112.05 320.83 130.41 
M 314.74 126.75 314.74 126.75 
M 181.76 119 182.45 117.91 182.63 116.18 183.54 112.73 183.47 110.62 
M 185.88 116.98 186.55 115.98 186.63 114.36 187.04 112.18 186.85 107.33 186 104.5 
M 190.14 115.28 190.89 113.66 191.2 111.82 190.98 107 190.64 104.08 190.69 100.84 190.03 98.73 188.48 97.4 189.1 95.37 
M 194.44 113.67 194.91 111.7 194.76 109.62 194.84 107.54 194.44 105.09 195.16 102.58 195.29 100.01 194.84 97.11 194.23 94.85 
M 198.73 112.05 199 110.19 198.78 107.98 199.14 103.5 198.84 100.33 198.88 95.86 199.25 92.47 198.16 88.89 198.34 85.66 197.97 82.57 195.97 76.98 
M 203.01 110.42 203.41 108.1 203.31 105.69 203.55 103.46 203.26 100.78 203.37 98.02 203.21 95.32 203.25 92.88 203.49 90.69 203.3 87.78 203.51 85.75 203.14 84.22 202.72 81.35 201.18 77.8 200.15 74.77 200.24 71.91 200.92 70.5 202.54 68.64 203.16 65.83 201.96 63.56 
M 207.31 108.83 208.09 104.2 208.02 101.73 208.44 96.62 207.48 90.98 207.69 85.45 207.31 82.6 207.37 80.33 206.71 78.73 206.82 76.78 
M 211.63 107.28 212.6 105.41 212.67 103.06 212.5 100.1 212.9 95.41 211.98 90.46 212.1 87.47 211.73 82.42 212.01 75.8 211.88 73.13 211.09 70.51 
M 215.98 105.83 216.88 103.9 217.32 101.58 217.29 99.01 217.59 97.14 216.01 91.91 215.62 89.83 215.17 83.39 215.6 80.9 215.67 78.59 214.46 77.4 214.57 74.96 215.21 71.71 215.48 68.35 214.78 65.57 
M 220.39 104.54 221 102.41 221.43 100.03 221.39 97.24 220.96 94.81 220.86 92.45 221.17 90.06 220.55 87.94 220.51 85.04 219.65 77.17 220.48 75.58 220.36 73.05 220.47 69.76 
M 224.8 103.29 225.45 101.16 225.87 98.86 225.77 96.08 225.46 93.86 225.83 91.68 225.87 89.32 225.31 86.44 225.74 83.31 225.39 80.36 225.66 77.3 226.01 75.39 225.53 73.21 225.1 69.99 225.59 64.11 226.22 61.86 227.24 56.23 226.51 50.36 
M 229.23 102.13 229.96 100.22 230.78 95.42 231.42 93 231.56 90.74 230.99 87.6 230.98 84.34 231.43 80.88 231.5 79.04 232.39 77.25 232.74 75.04 232.86 72.47 231.93 67.8 231.94 65.69 234.58 59.58 234.96 56.52 234.71 53.35 235.71 48.72 235.47 42.17 
M 233.74 101.25 234.66 99.34 235.28 97.02 236.41 94.58 237.09 92.68 238.31 86.71 238 83.85 239.46 78.59 241.69 72.8 241.64 68.49 242.6 66.83 243.18 63.89 243.12 61.17 242.71 59 243 57.21 242.92 54.54 243.39 51.76 244.63 48.09 
M 238.32 101.18 239.58 99.14 242.51 92.5 244.22 87.27 246.35 82.11 246.68 78.9 247.55 76.03 250.87 68.75 250.85 65.76 251.65 63.55 252.09 60.49 251.97 58.13 252.53 56.22 253.23 52.75 
M 242.91 101.35 244.62 99.66 246.03 97.46 247.25 95.12 248.15 92.83 250.91 87.04 251.78 84.51 257.03 75.95 257.83 73.95 258.28 70.96 259.17 67.96 260.26 65.84 262.57 60.22 263.23 57.81 265.16 52.84 265.75 50.05 267.09 47.11 268.64 44.82 269.93 41.94 
M 247.43 102.12 249.67 100.56 251.2 98.43 252.36 95.59 256.35 88.67 257.65 86.78 259.87 81.9 260.69 80.49 262.4 78.52 264.9 76.27 265.88 73.92 266.56 70.51 267.03 67.29 267.22 64.5 268.29 61.29 269.69 58.83 
M 251.95 102.9 254.27 101.29 255.65 99.46 256.78 97.24 259.87 92.43 261.08 89.89 262.92 87.83 263.34 85.44 264.25 82.92 265.74 80.7 266.48 77.54 267.57 75.3 268.35 72.44 269.61 68.93 270.94 66.35 272.56 64.74 273.56 62.4 276.38 58.03 277.36 55.92 
M 256.46 103.7 258.02 102.37 259.4 100.36 260.71 98.09 264.51 93 265.78 90.51 267.49 86.08 269.93 78.4 272.77 72.35 274.74 70.46 275.63 67.67 277.86 66.33 279.83 64.59 
M 260.97 104.56 262.52 103.05 265.13 99.04 267.17 96.74 270.82 89.14 274.9 82.49 277.07 80.45 278.58 77.58 280.61 74.71 281.97 72.25 283.98 70.26 285.03 67.61 287.27 63.42 287.51 58.67 288.34 55.49 289.2 53.5 291.33 50.8 
M 265.44 105.56 267.39 104.05 270.31 100.35 272.72 95.21 275.72 90.29 279 86.57 281.28 84.34 282.88 81.96 283.91 79.4 285.83 76.69 287.36 73.54 287.74 71.15 293.57 66.25 294.08 63.8 294.43 60.9 295.47 58.49 297.36 57.07 298.12 53.47 298.33 49.83 299.5 46.77 301.44 44.22 305.52 41.96 
M 269.89 106.69 272.14 105.22 273.55 103 276.97 98.6 280.38 94.98 283.79 90.51 285.41 88.93 286.6 86.89 286.77 84.56 289.71 79.12 291.89 76.72 293.51 73.59 295.54 71.7 297.79 70.45 298.5 68.27 299.44 66.54 
M 274.18 108.32 276.5 106.72 280.19 102.1 282.12 100.44 283.68 98.56 284.99 96.48 286.98 95.26 289.62 94.27 291.19 91.85 292.02 88.63 293.44 86.62 295.03 85.47 299.99 80.69 302.77 75.63 305.67 72.34 311.07 68.2 312.84 65.56 313.43 62.39 314.97 59.3 317.3 53.69 
M 278.46 109.97 280.87 108.35 284.52 104.46 286.63 102.75 287.7 101.47 291.8 97.3 293.86 95.01 294.98 92.31 296.75 90.04 301.03 87.44 301.77 84.95 303.42 81.89 305.98 78.87 307.7 77.56 310.09 77.39 312.1 75.72 
M 282.63 111.88 285.14 110.26 289.15 106.28 293.66 103.12 295.76 100.89 297.57 98.65 299.95 97.24 301.38 95.4 302.69 93.16 304.86 91.23 306.77 89.04 309.17 83.38 311.86 81.3 316.19 78.94 317.08 77.15 
M 286.8 113.78 291.73 110.48 294.21 109.05 295.96 107.01 298.54 104.73 302.58 100.3 304.36 98.98 305.56 97.18 307.43 95.5 
M 291.02 115.58 293.82 113.99 297.59 110.52 299.46 108.59 302.12 106.62 304.32 103.93 306.32 102.45 307.49 100.68 310.87 96.92 312.39 94.22 314.77 91.69 315.91 89.8 318.86 87.84 321.7 85.36 323.71 83.24 
M 295.25 117.37 298.42 116.19 300.29 113.89 305.74 108.97 307.78 106.21 311.28 102.76 312.16 100.89 314.28 98.11 316.23 96.46 317.84 94.1 320.09 91.88 323.1 90.55 324.49 89.11 
M 299.46 119.16 302.71 117.72 304.81 116.11 306.08 114.23 307.88 112.38 310.36 111.15 312.48 108.67 314.52 107.05 315.55 105.03 
M 303.68 120.97 306.8 120.1 309.23 118.28 311.32 116.19 316.04 113.71 318.8 112.5 319.82 110.62 320.33 108.36 322.12 105.54 325 103.8 328.03 102.85 
M 307.8 122.99 310.64 122.17 313.11 120.47 315.49 119.56 320.25 116.4 321.48 114.42 325.36 109.05 327.71 107.73 
M 311.83 125.17 315.56 125.06 318.3 123.72 320.27 122.48 
M 155.61 187.16 161.34 186.63 169.1 186.26 171.95 185.9 178.23 184.59 189.01 183.82 191.47 183.43 204.95 182.74 207.91 182.29 216.33 182.09 224.23 182.37 230.28 182.2 238.9 182.41 241.99 182.08 247.39 181.94 250.34 181.56 253.03 181.7 255.68 181.52 257.92 181.68 260.02 182.47 262.99 182.15 266.17 182.12 272.84 182.78 275.09 183.2 277.7 183.43 286.2 184.64 288.82 184.69 291.82 185.07 294.4 184.7 296.62 184.67 302.28 185.59 305.35 186.4 308.27 186.71 316.5 186.63 322.22 187.04 324.15 187.92 327.88 188.03 303.96 198.81 295.18 200.29 292.95 201.49 290.31 202.27 287.5 202.88 282.54 204.77 279.78 205.44 277.3 206.38 268.67 207.56 263.66 209.09 260.89 209.6 253.42 211.93 250.69 212.34 244.96 212.23 242.51 212.58 236.66 212.35 233.43 211.92 230.79 212.1 225.94 212.86 220.55 213.01 214.51 212.53 211.86 212.65 209.58 213.14 204.1 213.2 200.83 212.62 195.34 211.97 192.92 211.97 184.63 210.95 181.79 210.54 178.67 209.84 174.8 209.42 153.19 203.49 
M 155.04 189.47 161.54 189.16 166.55 189.36 169.27 189.25 172.1 189.02 175.12 188.51 183.91 187.9 189.12 188.02 191.92 187.77 194.85 188.11 202.89 188.04 205.31 187.83 211.39 188.2 217.09 188.09 219.49 188.32 221.99 188.82 224.66 188.71 227.34 189.12 236.86 189.68 240.05 190.26 242.68 190.29 248.17 190.97 258.28 191.94 260.96 192.43 267.23 193.08 269.68 193.73 272.41 194.08 275.26 194.17 281.44 195.21 283.78 195.38 286.06 196.3 288.63 197.61 291.59 198.16 
M 154.43 191.63 161.5 191.85 169.42 191.87 175.34 191.64 177.78 191.87 183.55 191.96 186.65 192.47 189.54 192.44 197.64 193.48 200.51 193.53 205.47 194.12 208.42 194.33 211.58 194.26 214.38 194.43 222.31 195.9 224.93 195.88 227.83 196.56 233.68 196.65 236.36 197.37 239.21 198.39 245.33 200.03 247.41 199.94 249.8 200.11 251.98 200.61 254.98 201.69 257.72 202.32 261.01 202.24 263.61 203.03 
M 154.05 193.81 158.59 194.41 161.42 194.6 170.01 194.5 175.4 195.07 177.52 195.55 183.62 196.35 186.8 197.16 192.59 197.79 205.94 200.29 208.97 200.63 211.13 200.61 
M 153.79 195.95 161.14 197.33 164.37 197.49 170.48 197.48 175.36 198.97 177.32 199.31 189.42 202.33 
M 153.6 198.24 155.02 198.8 161.08 200.26 164.12 200.58 170.27 201.54 172.73 202.3 174.7 203.2 177.38 204.01 180.01 205.08 185.75 207.94 188.6 208.65 191.21 209.62 193.67 209.83 196.76 210.88 
M 153.43 200.57 155.38 201.54 158.23 202.68 160.89 203.5 166.06 205.73 169.08 207.25 171.57 208.75 
M 214.2 226.37 225.72 235.93 237.94 253.03 238.1 255.78 239.49 262.37 239.4 264.94 238.37 267.36 237.65 270.1 234.98 271.32 232.67 272.85 231.17 275.21 229.89 277.82 228.17 280 224.79 278.42 222.22 276.94 218.41 275.34 213.83 272.95 210.96 271.11 200.81 262.29 197.85 260 194.39 256.98 184.18 235.4 183.38 232.62 177.64 223.57 
M 209.62 226.31 218.2 233.9 225.21 242.19 
M 205.03 226.24 207.43 228.98 217.13 238.18 219.18 240.67 221.84 245.07 224.46 246.78 226.12 248.86 
M 200.44 226.22 202.85 228.97 209.03 237.1 213.54 241.35 216.52 243.02 217.63 244.26 219.18 246.65 222.3 252.36 223.48 255.22 225.36 257.25 227.78 259.44 230.49 260.83 
M 195.86 226.2 198.54 229.53 200.31 232.01 201.59 234.57 205.13 239.95 208.82 243.96 212.22 248.31 215.27 250.81 217.5 254.63 218.86 258.01 222.2 261.39 224.41 262.83 225.14 264.26 
M 191.28 225.99 193.56 229.17 195.79 231.72 197.58 234.44 198.73 237.13 201.55 242.39 202.87 244.42 204.99 246.52 206.79 248.88 211.28 258.23 213.31 260.47 215.17 263.09 215.61 265.03 218.48 268.76 219.48 271.58 
M 186.69 225.77 189.01 228.79 190.3 231.91 193.94 238.69 194.92 241.26 195.9 243.3 197.6 245.94 198.34 248.1 200.7 250.56 202.16 253.8 
M 182.24 224.69 184.37 227.98 185.5 231.35 186.95 234.92 188.81 238.61 190.51 244.11 
M 333.02 207.88 337.72 212.37 340.49 214.77 344.08 217.06 349.91 227.71 347.79 232.36 347.24 235.19 346.47 237.88 340.94 243.21 339.51 245.66 337.44 247.26 335.86 249.27 333.19 250.02 330.17 250.41 327.58 251.35 325.66 253.02 323.41 254.41 320.18 254.38 316.67 253.48 313.22 252.36 311.08 252.29 305.8 251.21 300.82 251.25 297.76 250.57 292.49 248.69 290.54 248.7 287.89 248 285.51 247.58 283.53 246.63 277.01 238.43 273.06 230.48 269.04 226.09 
M 328.79 209.67 332.49 213.08 335.59 215.32 338.2 216.89 339.73 219.47 342.02 222.12 
M 324.57 211.46 330.94 216.8 333.35 218.23 335.94 220.1 
M 320.36 213.27 323.89 216.36 326.53 219.12 330.83 222.48 333.08 225.22 336.29 228.11 
M 316.15 215.09 321.86 220.85 324.72 223.05 328.82 227.09 331.47 228.88 333.97 231.51 336.46 234.46 337.86 236.57 
M 311.85 216.69 314.85 220.04 317.42 222.17 319.68 224.76 322.75 228.83 327.54 233.52 330.39 236.04 332.92 238.69 333.81 240.99 
M 307.51 218.17 310.65 221.21 312.5 224.15 314.73 226.65 318.21 231.99 321.03 234.62 323.3 237.11 325.44 239.55 326.54 241.31 
M 303.07 219.32 305.62 222.42 308.85 227.49 313.72 233.21 314.85 236.86 
M 298.56 220.18 301.05 223.94 303.1 226.31 304.25 228.53 305.83 230.99 308.66 233.98 310.51 237.24 313.27 243.35 314.89 244.69 
M 294.07 221.11 297.03 224.97 299.78 227.94 302.88 232.2 304.34 234.84 306.51 238.29 309.13 241.63 312.74 246.69 
M 289.59 222.1 295.21 228.39 298.97 232.89 300.11 234.6 301.46 237.4 304.03 240.3 
M 285.14 223.21 291.21 229.45 297 238.01 299.38 240.55 302.24 242.8 303.59 246.01 305.93 247.86 
M 280.73 224.46 284.2 227.87 286.51 230.85 293.54 237.48 294.26 240.26 
M 276.23 225.37 279.5 228.89 283.89 235.31 285.28 238.19 
M 271.67 225.83 274.53 229.64 276.74 232.96 278.23 236.44 
M 378.72 162.82 384.58 160.77 389.03 158.68 396.63 153.86 400.93 151.71 403.72 149.86 406.67 148.69 408.83 146.74 414.1 144.68 415.78 142.69 417.61 141.48 421.31 138.53 423.99 137.13 426.84 136.21 429.63 134.96 431.9 133 434.18 130.37 436.21 128.38 438.9 127.26 442.62 124.93 444.38 122.52 448.62 120.15 452.3 117.65 470.45 121.56 479 130.49 478.81 138.58 479.37 141.9 478.65 144.47 476.95 146.59 475.4 148.86 473.61 150.89 470.87 155.79 466.59 159.25 461.76 162.13 459.73 163.96 457.53 165.62 456.06 168 454.81 170.5 453.25 172.66 452.37 175.4 451.87 177.52 451.98 180.23 452.3 183.16 453.22 185.74 464.02 197.19 476.71 208.13 477.15 211.05 476.63 213.34 475.61 215.11 475.72 218.03 476.35 222.1 474.87 224.5 473.06 226.57 470.67 228.07 468.97 230.26 467.44 231.62 454.17 234.69 450.44 230.73 447.64 228.12 446.01 226.97 442 224.95 440.83 223.44 435.84 219.87 433.64 218.51 430 216.83 424.64 213.71 421.72 212.8 416.17 210.07 414.73 207.38 413.21 205.17 411.87 203.73 409.26 202.48 406.27 200.44 400.22 197.18 398.24 194.86 396.4 193.36 394.34 192.15 387.51 187.12 381.88 183.56 378.72 180.98 
M 378.72 164.3 387.33 161.96 389.8 160.88 392.07 159.52 397.33 156.81 405.68 152.9 411.36 150.44 413.5 149.29 415.72 148.49 418.55 147.01 421.18 145.92 424.42 142.85 429.22 141.06 
M 387.69 163.82 392.88 162.24 395.31 160.91 400.89 159.33 406.91 157.21 409.33 155.9 411.91 154.76 416.16 153.4 419.16 153.07 421.16 151.9 424.25 150.39 427.22 148.57 429.29 147.68 431.44 147.27 434.12 147.65 437.07 146.79 441.83 142.77 445.35 142.23 448.96 140.81 452.12 139.22 453.43 138.37 454.32 137.28 457.62 136.26 461.12 134.44 
M 384.89 166.81 393.75 165.2 396.16 164.13 398.62 163.37 401.48 162.75 404.1 162.78 406.78 161.77 415.53 159.16 417.47 158.37 420.13 158.4 423.56 158.08 425.93 156.69 428.46 155.49 431.28 154.58 433.3 153.54 435.6 152.88 438.17 152.4 441.26 151.2 444.13 151.61 447.45 150.9 450.77 149.13 454.75 147.76 460.77 144.86 463.64 145.08 
M 388.01 168.96 391.06 168.66 393.76 168.05 396.89 167.71 399.54 166.5 402.09 166.71 404.75 166.44 410.13 165.05 414.29 164.61 417.51 164.03 420.89 163.68 425.73 163.42 428.06 162.75 430.55 162.37 433.28 161.54 
M 388.11 171.07 391.15 171.3 394.24 171.02 397.5 170.12 403.23 170.2 405.5 170.76 408.58 170.63 411.27 169.94 413.95 169.65 417.04 168.87 420.71 168.52 423.78 168.44 426.46 169.45 429.5 169.59 432.89 168.9 435.24 167.16 437.9 166.09 441.24 166.75 444.5 168.61 
M 382.15 172.48 385.02 172.42 388.15 173.11 394.8 173.62 398.41 172.77 401.75 172.49 404.02 173.72 406.61 174.7 408.74 174.71 411.83 174.27 413.43 173.14 415.84 173.47 
M 388.33 175.69 391.36 176.3 401.38 175.99 406.36 177.32 407.85 178.89 410.92 178.78 413.56 178.25 417.36 178.73 420.83 179.52 422.91 180.44 425.69 180.75 434.83 183.04 437.5 183.2 440.87 183.74 441.92 182.41 
M 384.92 177.06 393.95 179.37 397.13 179.42 402.45 180.6 404.47 181.23 406.75 182.23 409.74 182.77 413.54 183.01 417.8 184.06 421.17 185.18 423.7 185.66 427.87 187.25 430.82 187.78 433.47 188.79 438.27 191.45 441.87 191.1 444.76 189.9 448.02 189.91 453.57 191.8 
M 378.72 176.13 382.08 177.84 384.97 179.1 391.08 181.08 394.08 181.71 396.5 182.44 398.7 183.46 401.64 184.25 403.9 185.5 406.65 186.54 409.71 187.53 413 188.23 420.32 191.64 423.7 192.15 427.6 192.04 430.8 192.91 434.57 196.13 437.52 197.72 440.32 198.15 443.14 198.39 446.08 199.26 451.72 201.92 454.63 202.46 457.23 203.93 459.26 204 460.57 204.54 
M 384.82 181.02 396.01 185.67 397.84 187 400.52 188.31 403.23 189.13 405.79 190.17 408.78 190.84 413.52 194.13 415.73 195.94 418.19 197.05 421.52 197.29 424.42 198.2 426.77 199.63 429.63 200.95 432.41 203.32 435.52 204.4 443.81 208.2 
M 387.65 184.51 390.29 185.86 395.38 189.08 399.77 191.4 401.82 192.89 404.46 194.37 407.55 195.23 410.36 196.52 412 198.23 414.34 199.39 416.86 201 422.05 204.8 424.59 205.92 427.67 207.98 429.96 209.03 432.19 210.33 
M 358.89 191.76 355.43 193.32 354.34 194.81 353.56 196.4 352.97 198.2 351.31 199.05 349.44 198.68 347.84 198.57 346.02 198.78 342.76 200.48 341.88 201.99 341.38 203.61 342.16 203.44 
M 54.23 144.11 55.28 143.55 57.31 142.79 63.07 140.84 67.36 139.59 72.58 138.38 78.59 137.62 93.09 137.58 113.27 138.1 119.62 137.69 141.13 135.82 146.13 139.36 147.87 143.3 148.94 147.32 150.32 155.45 151.94 159.41 154.79 167.37 155.73 171.4 156.03 175.51 156.02 179.66 156.23 183.78 155.45 188.02 154.24 192.31 153.72 196.52 153.07 204.88 152.25 209.13 150.27 213.46 137.06 212.67 127.76 211.07 119.39 209.05 103.26 204.41 95.63 201.46 88.43 197.62 81.97 193.57 76.41 189.48 71.49 185.04 
M 70.67 184.2 66.56 179.99 62.38 174.39 59.8 168.85 56.17 157.56 
M 127.86 152.64 128.88 156.04 129.07 159.29 128.4 162.36 126.46 167.82 124.04 172.83 124.09 175.43 125.02 178.36 126.37 181.64 127.51 185.37 127.84 189.59 118.98 190.01 112.79 189.81 106.82 189.23 100.4 188.21 93.94 187.03 87.43 184.94 81.2 181.73 
M 69.68 182.09 62.74 169.1 59.14 163.09 51.5 148.77 50.64 146.75 51.48 144.52 53.62 143.78 55.73 144.93 64.66 166.38 66.96 172.46 69.79 178.79 71.98 184.84 
M 71.22 185.33 67.82 182.19 60.99 176.62 53.35 171.13 42.22 162.41 40.62 160.67 40.79 158.25 42.54 156.68 44.73 157.09 52.9 165.35 63.03 175.09 69.19 181.51 71.89 184.69 
M 83.53 176.54 79.62 171.06 77.7 164.61 77.98 157.88 80.43 151.61 84.78 146.48 90.56 143.03 97.15 141.65 103.83 142.48 109.88 145.44 114.64 150.2 117.59 156.25 118.42 162.93 117.04 169.51 113.6 175.3 108.46 179.65 102.19 182.09 95.46 182.37 89.01 180.45 83.53 176.54 
M 111.31 152.57 113.67 157.41 114.34 162.76 113.23 168.03 110.48 172.65 106.37 176.13 101.35 178.09 95.97 178.31 90.81 176.78 86.43 173.65 
M 91.52 167.18 89.96 164.98 89.19 162.4 89.3 159.71 90.28 157.21 92.02 155.15 94.33 153.77 96.97 153.22 99.64 153.55 102.06 154.74 103.96 156.64 105.14 159.06 105.48 161.73 104.93 164.37 103.55 166.68 101.49 168.42 98.98 169.4 96.29 169.51 93.71 168.74 91.52 167.18 
M 91.43 166.8 92.53 167.89 
M 92.04 164.93 96.61 169.5 
M 90.54 160.95 98.98 169.4 
M 94.98 162.91 100.77 168.7 
M 96.45 161.91 102.29 167.75 
M 97.43 160.41 103.6 166.58 
M 99.59 160.1 104.53 165.03 
M 100.58 158.61 105.17 163.2 
M 98.23 153.78 105.38 160.93 
M 102.45 155.52 104.34 157.42 
M 60.8 171 65.6 175.8 
M 57.67 162.37 60.21 164.91 
M 55.34 143.52 59.27 147.46 
M 59.42 142.1 62.69 145.38 
M 63.53 140.71 68.74 145.92 
M 67.81 139.48 70.92 142.59 
M 72.28 138.45 77.74 143.92 
M 77.13 137.8 81.4 142.07 
M 82.41 137.57 87.3 142.47 
M 87.89 137.55 91.5 141.16 
M 93.44 137.59 96.24 140.4 
M 99.07 137.72 102.42 141.08 
M 104.75 137.9 108.76 141.91 
M 110.39 138.04 115.36 143.01 
M 115.8 137.94 119.1 141.24 
M 120.94 137.57 125.14 141.77 
M 125.98 137.12 131.36 142.5 
M 131.02 136.65 134.96 140.59 
M 136.11 136.23 140.69 140.82 
M 141.37 135.99 145.29 139.91 
M 136.84 159.74 137.4 160.2 137.61 160.67 137.49 161.62 137.23 162.19 
M 123.47 196.74 120.36 198.21 117.85 200.35 117.14 200.71 114.96 201.31 113.66 202.03 
M 121.6 208.21 121.92 207.04 121.89 205.96 121.26 204.95 120.19 203.92 119.57 203.43 118.38 202.87 117.03 202.67 115.88 202.84 
M 110.74 181.82 112.56 178.21 114.61 176.45 115.11 174.37 115.22 173.36 115.08 172.8 
M 95.64 190.03 97.47 189.11 
M 138.39 152.9 137.26 151.58 136.23 149.55 
M 92.89 190.63 94.31 190.84 96.34 189.86 
M 83.72 137.57 83.73 137.56 
M 143.27 146.51 143.34 145.85 143.21 145.48 141.7 143.86 
M 95.79 198.16 96.17 196.25 96.05 195.86 95.43 195.21 93.83 194.44 93.63 193.97 93.72 193.66 
M 92.47 184.89 91.96 184.69 91.24 184.08 90.58 183.87 87.91 183.95 86.75 184.22 
M 65.68 153.81 68.68 152.21 71.45 150.47 72.19 150.32 73.38 150.58 75.19 152.22 
M 149.7 152.17 149.68 155.31 149.93 156.71 150.27 157.13 
M 143.44 194.29 144.26 193.65 144.68 192.74 144.83 189.82 144.59 187.27 144.28 186.26 143.62 184.96 142.94 184.26 
M 125.07 182.62 124.86 180.63 124.57 179.66 
M 83.34 148.17 83.25 147.67 82.93 147.25 82.42 147.02 81.8 147.02 
M 101.18 142.15 99.89 140.67 99.27 140.52 98.69 140.77 
M 104.56 185.25 104.03 183.74 103.03 181.76 
M 81.39 149.56 81.93 149.84 
M 147.11 180.19 146.97 176.07 146.69 175.33 145.68 173.88 
M 67.97 158.78 68.83 159.06 69.31 159.64 68.96 161.4 68.91 162.57 
M 89.63 198.26 88.48 196.2 88.16 195.3 88.26 194.95 88.86 194.32 
M 86.01 138.18 86.33 137.54 
M 122.22 209.1 122.83 206.66 122.82 206.12 122.42 205.12 121.62 204.26 119.78 203 119.09 202.65 117.64 202.35 
M 71.86 169.68 71.43 170.53 69.81 171.37 68.72 171.55 67.1 171.17 
M 109.42 180.17 110.32 178.38 111.08 177.42 
M 148.29 177.33 148.73 176.27 149.3 175.62 150.3 175.19 151.47 174.96 152.43 174.32 
M 87.87 141.01 86.47 140.42 86.46 140.02 87.05 139.34 
M 67.57 162.74 67.78 165.45 67.56 166.16 66.94 166.45 65.51 166.19 64.64 166.34 
M 103.6 142.45 102.52 141.52 100.46 140.34 99.26 140.18 
M 147.96 166.55 149.28 166.41 151.12 165.72 151.92 165.21 153.28 163.17 
M 67.43 161.89 67.78 165.52 67.7 165.94 67.14 166.42 65.43 166.19 64.64 166.34 
M 103.28 185.82 101.77 182.11 
M 67.6 154.22 70.4 152.58 71.94 151.33 72.53 151.05 73.13 150.98 73.71 151.13 75.11 152.25 75.48 152.85 
M 77.82 161.85 71.43 164.77 70.18 165.96 69.69 166.8 
M 144.15 153.71 143.84 154.59 143.35 154.99 141.13 154.97 
M 144.14 178.29 143.06 177.4 142.51 177.16 142.24 177.4 142.14 178.39 
M 147.79 208.05 147.43 209.85 145.96 213.2 
M 147.28 209.29 147.19 210 145.9 213.2 
M 131.86 172.8 130.79 171.43 129.98 170.96 
M 121.31 161.44 120.75 160.94 119.79 160.5 118.09 160.22 
M 124.72 147.68 124.34 148.67 124.34 149.1 124.75 150.1 125.44 150.19 127.38 149.59 
M 130.41 184.51 130.33 185.06 130.69 185.74 133.03 188.3 134.96 191.26 135.28 192.67 
M 132.78 179.29 129.61 179.29 128.32 178.87 127.76 178.9 126.32 179.57 125.66 179.7 
M 88.49 191.98 90.75 193 91.88 192.54 92.88 192.38 
M 139.23 174.18 138.53 174.56 136.93 175.85 135.93 176.35 
M 107.12 190.08 105.33 187.82 104.18 185.43 103.6 183.79 102.6 181.93 
M 69.33 181.35 66.85 179.46 65.8 178.98 
M 86.28 144.09 83.12 142.64 81.51 142.15 80.38 142.11 79.07 142.58 
M 101 198.66 99.83 200.75 99.14 200.86 98.28 200.43 
M 112 178.12 114.26 176.31 114.56 175.8 114.84 174.28 114.85 173.2 
M 120.68 160.01 118.01 159.63 
M 144.43 211.92 144.59 213.12 
M 55.82 172.85 61.57 178.63 66.51 182.92 71.71 186.92 77.08 190.66 88.43 197.62 
M 143.31 134.86 153.41 144.96 
M 148.44 132.66 158.37 142.58 
M 153.87 130.75 164.2 141.07 
M 159.45 128.98 170.13 139.67 
M 164.82 127.01 173.25 135.45 
M 170.03 124.89 177.92 132.78 
M 174.89 122.41 183.31 130.83 
M 179.79 119.97 188.47 128.65 
M 184.71 117.55 194.6 127.44 
M 189.87 115.38 196.53 122.03 
M 195.21 113.38 202.75 120.92 
M 200.53 111.36 208.48 119.3 
M 205.86 109.35 214.18 117.67 
M 211.26 107.41 221.08 117.23 
M 216.78 105.6 224.2 113.01 
M 222.46 103.94 230.66 112.13 
M 228.25 102.39 237.3 111.43 
M 234.44 101.24 241.98 108.78 
M 241.68 101.14 250.92 110.38 
M 250.52 102.64 256.36 108.48 
M 259.46 104.24 267.15 111.93 
M 268.89 106.34 276.23 113.68 
M 281.05 111.16 287.37 117.48 
M 294.13 116.89 304.5 127.27 
M 307.27 122.7 316 131.43 
M 324.65 132.74 332.97 141.06 
M 343.74 144.49 351.07 151.82 
M 358.35 151.76 365.64 159.05 
M 374.28 160.36 378.43 164.51 
M 178.51 120.59 179.07 121.69 
M 181.59 118.49 181.83 118.97 
M 182.01 111.08 185.15 117.34 
M 182.44 103.68 188.56 115.91 
M 182.62 95.77 192.02 114.58 
M 183.46 89.2 195.49 113.27 
M 185.88 85.78 198.96 111.96 
M 187.82 81.41 200.54 106.85 
M 189.93 77.38 201.01 99.53 
M 192.45 74.17 201.07 91.4 
M 193.9 68.81 197.6 76.2 
M 223.66 95.29 227.32 102.63 
M 222.91 85.55 231.03 101.78 
M 214.46 60.38 234.88 101.23 
M 211.5 46.2 239 101.2 
M 213.74 42.44 243.22 101.4 
M 215.68 38.06 245.63 97.96 
M 217.55 33.54 245.03 88.51 
M 220.55 31.29 243.94 78.06 
M 224.09 30.12 241.73 65.4 
M 228.76 31.19 239.83 53.34 
M 265.44 104.55 266.01 105.71 
M 233.88 33.19 239.22 43.86 
M 265.47 96.37 270.81 107.04 
M 238.21 33.58 240.26 37.68 
M 265.69 88.55 275.91 108.99 
M 265.9 80.71 281.14 111.2 
M 265.07 70.78 285.58 111.81 
M 263.76 59.92 285.91 104.23 
M 263.73 51.59 285.88 95.9 
M 263.63 43.14 286.6 89.09 
M 264.39 36.42 286.55 80.72 
M 303.78 115.18 307.64 122.91 
M 268.28 35.94 286.75 72.87 
M 304.8 108.97 313.29 125.96 
M 272.16 35.45 286.52 64.16 
M 305.39 101.91 319.78 130.68 
M 276.47 35.81 286.73 56.32 
M 306.42 95.71 322.17 127.19 
M 280.5 35.62 287.48 49.56 
M 306.35 87.3 324.03 122.68 
M 285.27 36.89 287.32 40.99 
M 307.01 80.37 325.9 118.16 
M 306.92 71.94 327.77 113.64 
M 308.13 66.09 329.62 109.07 
M 308.65 58.88 329.23 100.05 
M 309.57 52.48 325.2 83.74 
M 309.75 44.57 321.24 67.56 
M 313.18 43.18 322.2 61.22 
M 213.53 291.39 211.63 297.7 
M 213.53 291.39 214.04 297.7 
M 218.33 291.39 214.04 297.7 
M 218.33 291.39 216.44 297.7 
M 219.26 295.3 222.86 295.3 223.04 294.7 222.92 294.1 222.2 293.5 221.3 293.5 220.61 293.8 219.83 294.39 219.26 295.3 219.08 295.89 219.11 296.8 219.53 297.39 220.04 297.7 220.94 297.7 221.63 297.39 222.41 296.8 
M 228.53 294.39 228.11 293.8 227.6 293.5 226.7 293.5 226.01 293.8 225.23 294.39 224.66 295.3 224.48 295.89 224.51 296.8 224.93 297.39 225.44 297.7 226.34 297.7 227.03 297.39 227.81 296.8 
M 230.06 295.3 233.66 295.3 233.84 294.7 233.72 294.1 233 293.5 232.1 293.5 231.41 293.8 230.63 294.39 230.06 295.3 229.88 295.89 229.91 296.8 230.33 297.39 230.84 297.7 231.74 297.7 232.43 297.39 233.21 296.8 
M 236.3 293.5 235.04 297.7 
M 235.94 294.7 237.11 293.8 237.8 293.5 238.7 293.5 239.21 293.8 239.24 294.7 238.34 297.7 
M 242.93 291.39 241.4 296.5 241.43 297.39 241.94 297.7 242.54 297.7 
M 241.4 293.5 243.5 293.5 
M 245.6 293.5 244.34 297.7 
M 245.24 294.7 246.41 293.8 247.1 293.5 248 293.5 248.51 293.8 248.54 294.7 247.64 297.7 
M 254.6 293.5 253.34 297.7 
M 254.33 294.39 253.91 293.8 253.4 293.5 252.5 293.5 251.81 293.8 251.03 294.39 250.46 295.3 250.28 295.89 250.31 296.8 250.73 297.39 251.24 297.7 252.14 297.7 252.83 297.39 253.61 296.8 
M 260.93 291.39 259.03 297.7 
M 260.02 294.39 259.61 293.8 259.1 293.5 258.2 293.5 257.51 293.8 256.73 294.39 256.15 295.3 255.98 295.89 256.01 296.8 256.43 297.39 256.94 297.7 257.84 297.7 258.52 297.39 259.31 296.8 
M 266 293.5 264.74 297.7 
M 265.73 294.39 265.31 293.8 264.8 293.5 263.89 293.5 263.21 293.8 262.43 294.39 261.86 295.3 261.68 295.89 261.71 296.8 262.13 297.39 262.64 297.7 263.53 297.7 264.23 297.39 265.01 296.8 
M 272.6 293.5 271.9 293.8 271.13 294.39 270.56 295.3 270.38 295.89 270.4 296.8 270.83 297.39 271.33 297.7 272.24 297.7 272.93 297.39 273.7 296.8 274.27 295.89 274.45 295.3 274.43 294.39 274.01 293.8 273.5 293.5 272.6 293.5 
M 277.1 293.5 275.83 297.7 
M 276.74 294.7 277.9 293.8 278.6 293.5 279.5 293.5 280.01 293.8 280.04 294.7 279.14 297.7 
M 280.04 294.7 281.2 293.8 281.89 293.5 282.8 293.5 283.31 293.8 283.33 294.7 282.44 297.7 
M 289.39 293.5 288.14 297.7 
M 289.13 294.39 288.7 293.8 288.2 293.5 287.3 293.5 286.61 293.8 285.83 294.39 285.26 295.3 285.08 295.89 285.11 296.8 285.52 297.39 286.04 297.7 286.94 297.7 287.63 297.39 288.4 296.8 
M 292.43 291.39 290.54 297.7 
M 294.52 291.39 294.74 291.7 295.13 291.39 294.91 291.1 294.52 291.39 
M 294.2 293.5 292.94 297.7 
M 296.6 293.5 295.7 296.5 295.73 297.39 296.24 297.7 297.14 297.7 297.83 297.39 299 296.5 
M 299.89 293.5 298.64 297.7 
M 305.02 294.39 304.9 293.8 304.1 293.5 303.2 293.5 302.2 293.8 301.73 294.39 301.85 295 302.36 295.3 303.77 295.6 304.27 295.89 304.31 296.8 303.83 297.39 302.83 297.7 301.94 297.7 301.13 297.39 301.01 296.8 
M 306.62 297.1 306.23 297.39 306.44 297.7 306.83 297.39 306.62 297.1 
"/></svg>
