<svg xmlns="http://www.w3.org/2000/svg" width="520" height="320"><rect x="0" y="0" width="520" height="320" fill="floralwhite"/><rect x="10" y="10" width="500" height="300" stroke="black" stroke-width="1" fill="none"/><path stroke="black" stroke-width="1" fill="none" stroke-linecap="round" stroke-linejoin="round" d="
M 133.66 81.58 144.73 80.08 155.84 78.32 178.08 73.53 189.2 71.56 200.32 70.29 233.68 67.78 244.79 67.76 267.03 69.28 278.15 70.36 289.27 71.03 300.39 72.09 322.63 75.58 344.86 79.29 355.98 81.65 367.1 84.53 389.34 91.58 411.58 98.9 
M 411.58 167.76 389.34 174.89 378.22 178.15 355.98 184.31 333.75 190.15 322.63 192.75 311.51 194.85 300.39 196.34 278.15 197.13 267.03 196.93 244.79 196.08 233.68 196.17 222.56 197.09 211.44 197.76 200.32 198 189.2 197.76 178.08 196.86 166.96 194.92 133.61 188.36 122.6 185.63 
M 411.18 122.45 396.05 120.81 388.52 119.77 377.4 117.53 366.07 114.63 358.47 113.22 354.71 112.77 347.29 112.39 336.1 112.25 332.26 112.06 302.39 109.48 
M 298.89 109.21 295.47 108.94 
M 292.03 108.66 279.15 107.56 269.35 106.16 
M 265.36 105.61 243.81 103.17 239.82 103.09 231.73 103.18 218.4 104.95 
M 152.96 113.27 148.58 113.95 
M 128.38 177.38 128.44 177.43 
M 131.55 179.7 134.57 181.95 
M 136.69 169.81 139.54 172.58 
M 142.22 175.37 144.83 178.16 
M 132.21 158.86 133.96 160.33 
M 137.28 163.21 138.91 164.64 143.18 169.06 
M 134.64 153.27 142.52 160.81 143.96 162.36 
M 149.29 168.6 154.44 174.55 
M 157.14 177.41 159.91 180.13 
M 147.68 158.38 147.74 158.44 
M 150.4 161.73 152.92 165.02 
M 155.46 168.17 158.12 171.16 
M 160.89 174.05 165.2 178.25 168.15 180.88 172.59 184.41 
M 157.54 162.24 159.3 164.52 
M 164.77 170.62 170.6 176.33 
M 173.55 179.05 176.46 181.61 
M 174.48 173.04 177.35 175.92 
M 188.04 185.72 190.44 187.51 
M 192.76 189.01 195.07 190.25 
M 134.83 112.36 136.75 115.48 
M 138.98 119.1 139.18 119.42 
M 175.6 166.81 178.29 169.76 
M 181.04 172.77 183.75 175.7 
M 186.41 178.47 190.23 182.22 193.8 185.36 
M 135.32 102.68 140.47 109.45 145.36 116.74 
M 181.99 166.48 184.66 169.59 
M 189.91 175.46 194.88 180.7 
M 135.31 94.29 142.37 102.14 145.1 105.46 151.47 114.1 
M 190.88 169.36 195.99 175.19 
M 134.81 85.85 149.58 101.69 152.26 104.87 157.36 111.55 
M 195.08 166.79 199.64 172.1 
M 202.19 175.03 204.72 177.83 
M 137.71 81.03 145.21 89.21 156.78 101.13 159.4 104.22 163.1 109.07 
M 203.35 168.98 209.88 176.5 212.51 179.24 216.52 182.88 
M 144.22 80.15 152.55 89.08 161.2 97.58 163.96 100.49 166.51 103.54 168.79 106.6 
M 212.43 172.13 217.76 177.91 
M 225.83 184.85 228.52 186.68 
M 150.65 79.14 157.14 86.01 168.39 96.88 171.04 99.75 173.48 102.81 175.68 105.96 
M 206.38 157.46 210.84 162.76 
M 221.59 175.11 224.27 177.8 
M 157.05 78.06 164.49 85.57 172.8 93.25 175.46 95.99 177.96 98.96 181.44 103.87 
M 209.31 152.87 212.13 156.31 
M 214.78 159.53 220.01 166.02 
M 222.67 169.13 228.01 174.87 
M 235.93 182.24 238.61 184.27 
M 246.96 189.03 248.57 189.75 
M 163.29 76.71 169.25 82.33 177.29 89.55 179.89 92.2 182.36 95.11 184.72 98.28 189.36 105.39 
M 213 148.46 216.4 152.75 
M 218.96 156.03 226.43 165.83 
M 231.65 171.76 236.87 177.29 
M 242.27 182.03 247.96 185.93 
M 250.89 187.63 253.85 189.18 
M 169.69 75.32 179.29 83.45 181.86 85.82 184.34 88.42 186.72 91.3 189.04 94.45 192.55 99.6 
M 194.9 103.26 195.69 104.53 
M 218.11 145.19 222.21 150.56 231.47 163.93 237.77 171.7 
M 243.13 177.28 245.96 179.75 
M 248.88 182.02 251.88 184.14 
M 176.31 73.9 181.52 77.9 186.4 82.25 188.75 84.8 191.01 87.65 194.47 92.45 
M 196.84 95.86 201.76 103.36 
M 222.89 141.25 225.61 144.92 
M 227.94 148.31 230.11 151.74 
M 234.3 158.69 237.58 163.88 240 167.22 242.61 170.4 246.79 174.76 
M 183.15 72.63 186.28 74.9 188.59 76.83 190.83 79.01 193.04 81.52 197.56 87.43 205.92 99.41 
M 226.98 136.59 232.44 144.41 
M 234.55 147.87 240.52 158.67 
M 256.69 177.56 259.67 180.05 
M 189.77 71.49 193.06 74.1 195.19 76.22 199.58 81.47 208.88 94.15 211.26 97.58 214.1 102.09 
M 231.49 132.73 238.03 142.31 242.08 149.39 244.93 155.03 
M 249.19 162.53 250.38 164.34 251.77 166.02 
M 254.64 169.22 257.63 172.12 
M 260.63 174.84 263.56 177.48 
M 266.41 180.11 269.2 182.72 
M 196.22 70.76 199.57 73.83 201.73 76.24 206.16 81.88 213 91 217.67 97.57 224.02 107.77 
M 239.12 133.33 242.6 138.57 247.75 147.5 
M 253.79 159 254.9 160.89 257.41 164.34 260.21 167.46 270.35 177.4 
M 202.24 70.15 206.08 74.02 208.28 76.62 219.41 91 226.6 101.09 232.06 109.84 
M 236.16 116.88 240.35 124 243.91 129.51 
M 246.23 133.1 249.47 138.45 254.61 147.59 
M 256.59 151.44 258.55 155.27 
M 208.18 69.71 210.34 71.87 214.76 76.91 224.75 89.51 
M 227.13 92.58 229.57 95.82 
M 232.05 99.24 238.19 108.47 251.22 129.39 
M 253.37 133.07 259.41 144.06 
M 261.3 147.79 264.05 153.41 266.15 156.96 268.59 160.3 272.69 165.06 
M 275.51 168.24 281.1 174.86 
M 283.98 178.17 288.52 182.97 293.36 187.3 
M 213.99 69.3 216.75 71.99 221.17 76.94 236.32 95.9 
M 238.85 99.29 241.35 102.86 
M 243.8 106.56 246.28 110.32 
M 248.84 114.12 252.75 119.87 256.26 125.68 
M 260.37 133.25 267.38 148.01 
M 269.29 151.64 271.48 155.15 
M 276.65 161.91 285.08 172.1 
M 300.66 188.06 302.59 189.61 
M 219.88 68.88 223.2 72.03 227.68 76.99 241.87 94.48 244.34 97.76 251.79 108.54 258.62 118.06 
M 261.07 121.98 262.21 123.96 265.08 129.76 
M 266.76 133.53 268.31 137.25 
M 273.34 148.32 275.5 151.9 
M 277.96 155.43 280.6 158.93 
M 283.35 162.43 289.03 169.36 
M 225.78 68.42 229.8 72.17 234.29 77.14 246.16 91.69 249.75 96.46 
M 252.12 99.81 255.83 105.11 264.2 116.38 266.63 120.29 267.64 122.26 
M 269.52 126.18 274.12 137.63 
M 275.69 141.38 276.53 143.25 279.66 148.79 
M 284.64 156.08 288.74 161.43 293.02 166.65 
M 298.93 173.55 302.03 176.96 
M 231.66 67.95 234.17 70.13 238.73 74.8 246.91 84.57 
M 249.32 87.53 252.87 92.07 259.91 101.87 268.1 112.87 270.61 116.7 271.68 118.64 
M 273.66 122.55 277.01 130.42 
M 278.55 134.3 280.17 138.13 
M 291.46 156.98 294.23 160.5 
M 302.93 170.73 305.94 174.18 
M 237.82 67.78 240.83 70.36 245.4 75.11 250.16 80.54 256.12 87.89 
M 260.66 93.98 267.98 104 
M 270.64 107.65 274.47 113.27 276.66 117.07 278.6 120.95 283.07 130.97 
M 286.54 138.93 289.54 144.86 293.1 150.66 
M 301.2 161.23 304.07 164.58 
M 244.11 67.76 247.29 70.6 249.58 72.93 256.96 80.85 261.69 86.69 274.74 104.41 
M 279.55 111.83 282.65 117.53 285.56 123.54 
M 287.44 127.7 291.99 138.05 294.06 142.05 297.53 147.88 
M 300.02 151.59 301.3 153.39 305.39 158.47 
M 313.84 169.26 316.72 173.05 
M 250.4 68.14 261.06 78.33 263.61 81.09 265.97 83.98 280.18 102.93 282.57 106.63 285.79 112.27 
M 287.77 116.15 293.47 128.82 
M 295.41 133.06 298.53 139.16 300.82 143.02 304.47 148.57 
M 307.03 152.11 309.71 155.57 
M 312.45 159.11 315.19 162.87 
M 317.94 166.81 320.76 170.76 
M 256.31 68.55 264.85 75.92 268.77 79.89 
M 271.11 82.7 276.66 90.04 282.96 97.89 
M 287.78 105.01 288.88 106.88 291.82 112.71 
M 293.69 116.85 298.58 127.85 300.69 132.06 304.11 137.96 
M 306.53 141.68 309.01 145.28 
M 262.47 68.97 268.46 73.6 271.17 76.01 273.7 78.59 279.35 85.6 
M 281.71 88.51 288.18 96.15 290.65 99.51 292.84 103.11 294.82 106.91 299.62 117.55 
M 301.68 122.11 304.99 128.65 307.37 132.63 312.39 140.01 321.52 152.54 
M 326.84 160.73 330.91 167.16 332.35 169.18 
M 269.48 69.52 274.69 73.53 277.26 75.92 279.69 78.49 291.99 92.69 294.44 95.86 296.67 99.24 297.68 101.06 
M 299.67 104.86 307.01 120.36 309.41 124.78 313.26 130.7 
M 315.88 134.4 327.45 150.99 331.45 157.3 
M 334.12 161.69 336.84 166.02 
M 339.65 170.14 341.08 172.13 345.5 177.54 
M 277.14 70.26 280.86 73.27 283.36 75.65 288.27 80.81 295.77 89.23 298.19 92.27 300.45 95.47 302.57 98.93 305.68 104.77 
M 307.86 109.08 310.19 113.64 
M 312.66 118.21 313.94 120.46 318.02 126.53 
M 320.75 130.33 324.63 135.98 330.63 145.77 
M 333.23 149.8 335.95 153.96 
M 341.32 162.7 344.02 166.99 
M 284.63 70.75 287.13 72.87 292.22 77.68 297.13 82.98 300.79 87.31 
M 303.15 90.34 306.52 95.2 308.72 98.8 317.13 113.87 
M 319.86 118.19 325.5 126.13 
M 328.16 130.07 330.6 134.11 
M 332.88 138.26 335.17 142.45 
M 340.28 150.78 343.02 155.02 
M 345.7 159.38 348.33 163.73 
M 350.93 167.96 353.54 172.01 
M 292.25 71.31 296.13 74.71 298.58 77.14 303.41 82.51 308.2 88.5 312.86 95.22 322.83 112.09 327.09 118.21 
M 332.63 126.14 335.1 130.38 
M 339.69 139.11 344.53 147.64 
M 300.16 72.06 302.52 74.27 307.17 79.31 309.61 82.21 314.5 88.49 319.42 95.63 327.03 108.37 331.16 114.52 
M 333.97 118.45 336.71 122.47 
M 339.31 126.77 344.08 135.79 
M 346.39 140.2 348.77 144.47 
M 353.88 152.84 356.49 157.07 
M 308.11 73.26 311 76.38 315.84 82.15 320.93 88.76 323.47 92.39 328.55 100.37 333.63 108.88 341.9 121 345.85 127.8 
M 348.29 132.44 352.97 141.26 
M 355.34 145.43 357.78 149.56 
M 360.29 153.75 362.79 158.04 
M 315.49 74.42 322.16 82.31 327.32 89.18 332.39 96.79 339.93 108.99 346.9 119.49 
M 349.69 124.13 361.68 146.26 
M 363.99 150.46 368.91 159.07 
M 371.48 163.39 374.15 167.61 
M 322.6 75.57 328.39 82.58 332.21 87.76 
M 334.73 91.38 350.35 115.34 
M 353.25 120.04 356.07 124.87 
M 361.13 134.17 367.77 147.14 
M 370.02 151.4 372.46 155.74 
M 380.64 168.71 382.59 171.59 
M 329.48 76.69 334.37 82.83 342.05 93.24 347.04 100.52 350.92 106.53 
M 353.71 110.91 358.13 118.04 362.41 125.43 
M 364.99 130.24 369.55 139.36 
M 376.11 152.32 378.69 156.71 
M 336.1 77.79 343.03 86.26 348.2 93.06 353.13 100.3 357.14 106.59 
M 362.98 116.13 365.9 121.14 
M 373.46 135.6 375.64 140.11 
M 382.49 153.19 385.3 157.71 
M 343.18 79.01 349.3 86.2 351.9 89.53 358.1 98.5 
M 360.72 102.63 367.89 114.43 373.52 124.36 384.09 145.13 
M 350.89 80.57 355.54 86.15 358.09 89.53 363.15 96.93 371.42 110.47 378.37 122.57 
M 383.45 132.03 385.85 136.62 
M 388.21 141.11 390.66 145.63 
M 399.08 159.55 401.99 163.94 
M 358.57 82.32 364.38 89.77 368.3 95.64 
M 370.95 99.91 381.91 118.37 
M 384.59 123.02 387.22 127.62 
M 394.74 141.25 397.3 145.94 
M 399.98 150.7 402.76 155.35 
M 366.37 84.34 370.81 90.25 373.46 94.29 382.73 109.73 
M 385.44 114.24 390.9 123.22 
M 393.59 127.63 396.2 132.06 
M 398.72 136.59 401.24 141.27 
M 403.79 146.04 406.4 150.77 
M 374.39 86.81 377.24 90.9 379.88 95.07 391.73 114.67 
M 394.49 119 397.28 123.27 
M 400.01 127.55 402.63 131.95 
M 405.12 136.54 410.06 146.05 
M 381.93 89.2 387.43 97.94 
M 390.01 102.2 392.63 106.48 
M 395.31 110.75 398.05 114.97 
M 400.86 119.13 403.67 123.28 
M 389.11 91.51 401.66 111 
M 410 123.27 411.47 125.57 
M 396.34 93.85 405.32 106.97 
M 408.06 110.94 410.51 114.42 
M 404.31 96.47 406.22 99.08 
M 140.74 80.62 137.26 83.22 134.68 85.38 
M 150.3 79.2 144.66 83.33 141.16 86.2 135.32 91.64 
M 160 77.42 152.06 83.31 145.17 89.21 138.78 95.54 135.22 99.49 
M 169.77 75.31 163.09 80.2 159.44 83.09 154.21 87.57 
M 150.88 90.63 146.07 95.37 142.93 98.72 135.36 107.35 
M 178.75 73.41 174.24 76.64 170.49 79.56 166.81 82.59 159.85 88.75 153.35 95.06 145.31 103.71 
M 141.92 107.52 134.63 115.71 
M 186.72 72 181.63 75.58 177.94 78.49 170.65 84.88 160.62 94.58 149.08 106.92 
M 145.53 110.88 137.95 119.22 
M 193.87 71.02 188.72 74.57 185.19 77.31 181.62 80.37 174.56 87.09 163 99 
M 156.24 106.27 152.75 110.18 
M 201.04 70.23 195.34 73.94 192 76.44 188.64 79.27 185.25 82.43 175.06 92.92 161.62 107.48 158.61 111.01 
M 208.27 69.71 198.53 76.16 195.21 78.71 191.95 81.59 185.4 88.27 168.82 106.59 
M 215.58 69.18 201.77 78.83 198.49 81.43 195.24 84.34 192.02 87.57 188.82 91.08 175.68 105.96 
M 136.07 153.83 133.97 156.86 
M 222.93 68.66 217.96 71.99 206.71 80.54 
M 203.44 83.15 198.58 87.44 195.38 90.71 182.09 105.85 
M 141.09 155.79 134.59 165.27 130.39 170.87 
M 230.98 68 227.68 69.92 221.22 74.4 211.6 82.21 205.17 87.7 201.99 90.74 198.81 94.07 190.7 103.35 
M 238.55 67.77 231.06 72.2 224.48 76.96 218.01 82.3 210.13 89.44 
M 207.01 92.52 202.3 97.57 196.45 104.4 
M 150.76 159.58 149.12 161.82 
M 245.31 67.8 237.74 72.42 234.39 74.65 231.05 77.05 224.47 82.32 218.1 87.99 215.01 91 208.91 97.58 204.6 102.71 
M 152.65 165.03 149.99 168.55 
M 251.08 68.19 241.08 74.9 236.04 78.52 
M 232.7 81.09 227.79 85.16 221.46 91 218.38 94.17 212.9 100.56 
M 160.03 163.21 158.99 164.54 
M 153.52 171.5 150.97 174.78 
M 256.7 68.58 241.09 80.07 234.44 85.33 231.19 88.11 224.88 94.15 221.8 97.54 217.21 103.2 
M 164.77 165.07 159.91 171.01 
M 262.41 68.96 258.3 72.23 
M 255.62 74.41 249.54 79.18 
M 246.24 81.73 237.94 88.35 231.52 94.18 228.38 97.49 225.27 101.11 221.07 106.45 
M 169.59 166.96 166.64 170.47 
M 161.03 177.09 158.32 180.26 
M 268.24 69.39 257.84 78.21 244.77 88.71 238.3 94.34 235.11 97.51 231.93 101.02 225.89 108.43 
M 170.64 173.28 165.01 179.71 
M 273.78 69.93 261.45 81.02 248.28 91.81 245.07 94.63 241.92 97.67 238.75 101.02 233.84 106.67 
M 169.07 182.15 166.21 184.95 
M 279.18 70.42 267.95 81.21 261.65 86.69 254.98 92.19 250.14 96.48 
M 247 99.57 242.31 104.69 236.02 111.93 
M 189.1 166.12 186.38 169.54 
M 173.13 184.38 170.28 186.92 
M 284.66 70.75 282.03 73.2 271.2 84.12 255.1 98.33 252 101.47 248.96 104.83 236.58 118.93 
M 177.1 186.39 174.3 188.63 
M 290.18 71.12 285.55 75.51 274.36 87.07 261.71 98.67 258.57 101.8 254.08 106.83 
M 251.05 110.39 246.11 116.07 240.54 122.06 
M 226.5 137.72 221.89 142.86 
M 220.78 144.08 219.5 145.48 
M 216.03 149.3 212.74 152.94 
M 209.68 156.34 203.43 163.49 
M 199.95 167.65 198.78 169.06 
M 193.55 175.29 191 178.25 
M 295.65 71.64 291.95 75.03 277.62 90.04 268.44 98.99 263.77 103.76 
M 257.92 110.58 253.33 116.04 249.82 119.88 242.16 127.72 236.8 133.44 
M 233.43 137.22 230.09 141 
M 223.18 148.69 213.42 159.51 
M 210.55 162.74 201.02 173.59 194.41 180.73 
M 301.07 72.19 298.38 74.54 295.48 77.4 278.23 96.18 269.03 105.78 260.39 116.21 257.12 119.92 240.31 136.87 
M 236.85 140.59 223.29 155.76 
M 220.1 159.37 217.11 162.76 
M 214.28 165.97 211.53 169.06 
M 208.77 172.08 205.98 175.02 
M 200.43 180.51 195.2 185.28 
M 306.16 72.96 301.79 76.89 298.92 79.89 281.88 99.52 272.76 109.56 264.05 120.17 258.71 125.74 
M 247.25 136.68 243.61 140.33 
M 229.86 155.35 226.66 159.07 
M 218 169.16 215.25 172.18 
M 201.15 185.07 198.5 187.05 
M 311.08 73.71 308.01 76.5 305.15 79.43 302.36 82.58 296.74 89.16 285.4 103.11 274.76 115.12 
M 268.78 122.31 267.18 124.17 261.86 129.63 
M 258.07 133.17 252.29 138.46 246.76 143.85 
M 243.16 147.54 239.62 151.3 
M 236.22 155.05 233.02 158.72 
M 224.43 169.08 220.36 173.71 216.15 177.91 
M 204.68 186.96 201.92 188.62 
M 316.09 74.52 311.31 79.15 302.95 88.73 297.32 95.68 288.63 106.87 283.95 112.13 
M 280.84 115.55 277.79 119.02 
M 274.74 122.62 269.94 128.11 266.5 131.68 261.07 136.91 
M 257.34 140.38 253.59 143.88 
M 249.85 147.5 242.57 154.99 
M 239.24 158.64 233.4 165.5 
M 230.75 168.75 228.11 171.94 
M 211.24 186.95 209.79 187.84 205.53 189.99 
M 321.31 75.36 317.51 79.12 306.25 91.81 300.42 99.03 296.05 104.93 
M 293.08 108.82 288.51 114.31 275.8 128.45 269.01 135.47 256.74 147.66 
M 249.14 155.1 245.59 158.77 
M 242.37 162.27 239.49 165.56 
M 234.32 171.7 231.75 174.68 
M 217.95 186.91 215.05 188.58 
M 326.67 76.23 312.54 91.75 306.45 98.81 303.41 102.72 297.41 110.97 294.4 114.87 291.34 118.49 281.76 128.93 269.76 140.96 
M 266.5 144.38 259.7 151.52 
M 252.33 158.98 248.87 162.51 
M 245.78 165.82 237.9 174.59 
M 332.01 77.1 324.71 85.65 312.84 98.89 309.66 102.71 297.24 119.38 292.64 124.69 
M 289.5 128.06 273.92 143.05 265.99 151.62 
M 259.23 158.99 249.57 169.14 
M 241.57 177.29 236.41 182.23 
M 228.37 188.35 225.6 189.84 
M 337.21 77.98 328.3 89.24 316.29 103.09 313.04 107.06 303.38 120.12 300.24 124.06 295.54 129.24 
M 292.31 132.47 281.87 141.94 
M 275.22 148.46 269.07 155.18 
M 265.94 158.73 259.6 165.86 
M 250.83 174.89 248.08 177.38 
M 245.41 179.76 242.77 182.04 
M 240.13 184.21 237.48 186.25 
M 342.51 78.89 329.09 96.55 319.88 107.64 314.99 113.84 
M 311.67 118.23 306.69 124.7 303.43 128.52 300.2 131.99 295.26 136.79 
M 288.39 142.88 281.69 149 
M 278.54 152.12 275.52 155.3 
M 272.56 158.56 269.59 161.93 
M 263.62 168.74 260.7 171.95 
M 252.2 179.88 245.31 185.05 241.24 187.75 
M 347.85 79.92 339.16 91.48 
M 336.6 95.1 331.19 102.62 
M 328.25 106.44 311.98 126.78 
M 308.55 130.72 303.5 136.11 298.48 140.94 
M 291.69 146.99 283.65 154.31 279.21 158.83 
M 270.57 168.28 267.67 171.51 
M 250.71 185.97 247.88 187.59 
M 353.17 81.05 343.99 93.19 337.46 102.89 
M 334.74 106.88 330.56 112.6 327.64 116.3 317.61 128.56 310.47 136.4 301.93 144.88 
M 292.01 153.84 285.94 159.5 
M 277.35 168.31 274.5 171.35 
M 271.61 174.42 268.72 177.36 
M 257.6 186.26 256.22 187.08 251.92 189.1 
M 358.4 82.27 350.15 93.01 346.15 98.67 
M 343.56 102.73 337.08 112.92 331.62 120.21 325.14 128.13 321.53 132.23 316.01 138.09 
M 312.42 141.77 303.81 150.27 295.82 157.56 
M 292.79 160.34 288.38 164.56 275.46 177.5 
M 264.23 186.73 261.51 188.25 
M 363.67 83.64 353.59 96.52 350.91 100.35 348.34 104.48 343.41 113.02 340.91 116.95 335.42 124.28 328.9 132.05 321.54 139.8 312.63 148.82 
M 305.95 155.31 299.74 161.1 
M 290.91 169.57 288.05 172.41 
M 285.18 175.24 280.82 179.36 276.46 183.12 
M 369.07 85.15 359.82 96.67 357.09 100.34 354.48 104.34 347.26 117.34 344.75 121.32 342.01 125.06 339.01 128.76 332.35 136.21 319.91 148.86 
M 316.47 152.34 309.85 158.8 
M 306.75 161.7 303.74 164.54 
M 300.77 167.41 297.85 170.29 
M 292.14 176 289.28 178.74 
M 374.54 86.85 363.44 100.84 360.78 104.66 358.28 108.8 351.14 122.08 348.5 126.1 345.57 129.85 342.44 133.47 337.41 138.79 
M 333.96 142.3 318.62 157.88 310.7 165.41 
M 304.85 170.91 301.99 173.81 
M 380.09 88.61 369.93 101.76 367.24 105.49 364.68 109.46 362.26 113.71 357.51 122.7 354.91 127.02 352.04 130.99 348.99 134.65 344.15 139.84 
M 340.83 143.24 320.81 163.69 
M 317.63 166.7 311.75 171.99 
M 306.2 177.36 303.48 180.15 
M 385.59 90.38 376.4 102.73 371.15 110.43 368.66 114.54 361.28 127.63 358.46 131.79 355.45 135.66 352.35 139.24 347.6 144.3 
M 341.3 150.92 334.83 157.76 
M 328.01 164.8 321.57 170.91 
M 318.62 173.48 315.82 175.93 
M 390.99 92.12 382.73 103.47 377.56 111.34 373.79 117.54 
M 371.31 121.81 367.51 128.27 364.75 132.44 361.82 136.36 355.74 143.58 346.71 153.65 338.67 162.34 
M 320.06 179.74 317.4 182.05 
M 396.31 93.84 386.39 107.97 383.83 111.95 374.94 126.8 
M 369.46 135.12 363.56 142.6 
M 360.6 146.1 357.7 149.54 
M 354.85 152.97 351.96 156.41 
M 348.93 159.88 342.54 166.8 
M 336.12 173.18 330.05 178.57 
M 401.57 95.55 390.1 112.47 379.77 129.52 375.57 135.82 
M 372.63 139.74 357.06 159.11 349.52 167.77 
M 343.36 174.08 337.38 179.52 
M 406.74 97.29 396.41 112.87 383.19 134.29 380.26 138.48 372.76 147.85 
M 369.94 151.38 363.35 160.09 359.08 165.32 
M 350.31 174.99 347.42 177.78 
M 411.58 99.21 400.21 117.08 393.73 127.65 
M 390.94 132.16 386.55 138.86 385.01 140.92 
M 381.94 144.89 376.03 152.29 
M 373.36 155.88 370.78 159.39 
M 362.59 169.65 359.73 172.9 
M 411.58 109.11 394.47 136.64 
M 391.48 141.16 389.96 143.37 385.35 149.39 
M 379.63 156.83 377.02 160.43 
M 411.58 119.25 400.93 136.55 
M 398.02 141.24 395.06 145.81 
M 392.08 150.11 383.56 161.47 
M 411.58 129.59 400.23 148.38 397.42 152.86 393.23 158.9 
M 384.86 169.49 382.81 171.86 
M 411.58 139.87 402.68 155.34 
M 400.07 159.61 398.76 161.66 394.54 167.32 
M 411.58 150.64 405.3 161.9 403.99 163.99 
M 411.58 161.62 410.57 163.37 
M 154.14 78.29 155.85 78.32 
M 168.01 75.27 169.7 60.17 170.64 60.2 171.39 74.96 
M 181.93 72.43 184.87 47.75 185.82 47.82 185.34 72.24 
M 196 70.37 201.37 38.41 202.31 38.53 199.41 70.39 
M 210.15 69.17 216.78 36.33 217.72 36.48 213.56 69.33 
M 224.31 68.1 231.81 34.07 232.74 34.24 227.73 68.27 
M 238.51 67.36 247.67 35.41 248.59 35.64 241.9 67.77 
M 252.71 67.91 261.4 44.12 262.31 44.4 256.06 68.53 
M 266.88 68.88 274.65 49.53 275.55 49.83 270.21 69.59 
M 281.02 70.08 288.56 51.76 289.46 52.06 284.37 70.74 
M 295.18 71.15 303.01 53.59 303.9 53.92 298.5 71.91 
M 309.27 73.02 316.07 60 316.94 60.36 312.53 73.95 
M 321.07 74.9 322.63 75.58 
M 156.71 78.14 160.3 75.39 162.09 73.8 163.72 72.09 165.18 70.24 167.58 66.14 169.53 61.68 
M 170.72 61.72 174.58 60.1 176.39 59.15 178.07 58.04 179.61 56.77 182.27 53.71 184.58 50.22 
M 185.77 50.3 189.72 49.42 191.61 48.82 193.4 48.05 195.07 47.09 198.09 44.59 200.84 41.61 
M 202.02 41.76 205.33 42.49 208.57 42.65 210.13 42.41 211.67 41.95 213.17 41.29 216.12 39.61 
M 217.3 39.81 220.56 40.49 222.16 40.65 223.72 40.61 225.25 40.35 228.2 39.19 231.06 37.48 
M 232.23 37.69 235.38 39.11 238.57 39.96 240.18 40.06 241.81 39.94 243.45 39.62 246.76 38.61 
M 247.91 38.9 250.09 41.63 251.27 42.83 252.56 43.87 253.96 44.71 257.1 45.85 260.53 46.5 
M 261.67 46.85 263.95 49.01 265.16 49.92 266.44 50.65 267.79 51.16 270.73 51.58 273.88 51.47 
M 275.01 51.84 277.69 53.44 279.05 54.05 280.44 54.47 281.87 54.66 284.8 54.41 287.81 53.59 
M 288.94 53.97 291.76 55.49 293.2 56.06 294.65 56.44 296.13 56.59 299.15 56.25 302.23 55.35 
M 303.35 55.76 305.51 58.1 307.92 59.92 309.26 60.53 310.69 60.94 312.2 61.17 315.39 61.3 
M 316.49 61.76 316.6 65.24 317.25 68.51 317.87 70.02 318.7 71.44 319.71 72.79 322.08 75.34 
M 172.67 60.94 176.39 59.15 178.07 58.04 179.61 56.77 181 55.31 183.45 52 
M 187.76 49.9 191.61 48.82 193.4 48.05 195.07 47.09 196.63 45.93 199.48 43.13 
M 188.78 57.48 191.28 56.78 192.44 56.28 194.54 54.9 196.4 53.09 
M 203.68 42.16 206.97 42.67 208.57 42.65 210.13 42.41 211.67 41.95 214.65 40.49 
M 203.93 48.66 206.45 49.05 207.68 49.04 210.05 48.5 212.34 47.38 
M 204.18 55.16 206.79 55.42 208.44 55.05 210.03 54.27 
M 218.93 40.19 222.16 40.65 223.72 40.61 225.25 40.35 226.74 39.87 229.64 38.37 
M 218.93 46.89 221.4 47.24 222.6 47.22 224.92 46.65 227.13 45.5 
M 218.92 53.6 221.48 53.82 223.09 53.43 224.63 52.63 
M 233.8 38.44 236.97 39.63 238.57 39.96 240.18 40.06 241.81 39.94 245.1 39.15 
M 233.63 45.36 236.06 46.27 237.29 46.52 239.77 46.51 242.29 45.9 
M 233.46 52.28 236 53.09 237.73 53.08 239.49 52.66 
M 248.98 40.29 251.27 42.83 252.56 43.87 253.96 44.71 255.48 45.37 258.8 46.21 
M 248.38 50.02 249.87 51.67 251.61 52.9 252.6 53.32 254.76 53.87 
M 262.8 47.97 265.16 49.92 266.44 50.65 267.79 51.16 269.23 51.46 272.29 51.56 
M 262.31 55.3 263.85 56.57 264.68 57.04 266.49 57.57 268.48 57.63 
M 276.34 52.68 279.05 54.05 280.44 54.47 281.87 54.66 283.32 54.63 286.3 54.04 
M 276.07 58.75 277.83 59.64 278.74 59.91 280.6 60.02 282.54 59.63 
M 290.35 54.77 293.2 56.06 294.65 56.44 296.13 56.59 297.63 56.52 300.68 55.84 
M 290.12 60.52 291.98 61.35 292.92 61.6 294.86 61.65 296.84 61.21 
M 304.41 56.97 306.67 59.1 307.92 59.92 309.26 60.53 310.69 60.94 313.78 61.27 
M 133.66 120.03 174.58 102.86 174.97 103.73 133.56 123.49 
M 133.54 124.56 222.61 97.64 222.89 98.54 133.2 128.09 
M 133.06 129.12 247.8 108.18 247.98 109.11 132.6 132.58 
M 132.48 133.53 253.66 125.59 253.73 126.54 132.06 136.9 
M 131.97 137.8 232.31 143.01 232.27 143.96 131.65 141.11 
M 131.57 141.94 216.75 156.49 216.6 157.43 131.27 145.25 
M 131.2 145.98 211.95 169.64 211.7 170.55 131.35 149.46 
M 131.5 150.33 175.66 169.53 175.3 170.41 132.07 154.03 
M 170.36 105.93 180.01 105.93 189.6 105.37 194.35 104.76 199.07 103.94 203.77 102.92 213.12 100.51 
M 213.47 101.64 217.99 104.72 222.72 107.26 225.2 108.23 227.77 108.99 230.4 109.57 235.81 110.37 
M 236.03 111.54 236.01 115.24 236.52 118.75 237.08 120.41 237.86 121.99 238.82 123.5 241.1 126.42 
M 241.19 127.6 236.16 129.95 231.48 132.74 229.34 134.39 227.33 136.22 225.45 138.21 221.91 142.47 
M 221.86 143.66 217.99 145.24 214.49 147.25 212.94 148.51 211.53 149.94 210.25 151.52 207.92 154.98 
M 207.74 156.16 205.68 158.19 204.16 160.42 203.7 161.64 203.46 162.95 203.4 164.32 203.62 167.2 
M 203.3 168.35 196.15 166.94 188.98 166.11 185.39 166.01 181.79 166.14 178.19 166.47 170.97 167.5 
M 175.19 105.97 184.82 105.75 189.6 105.37 194.35 104.76 199.07 103.94 208.45 101.75 
M 215.72 103.22 220.32 106.08 222.72 107.26 225.2 108.23 227.77 108.99 233.09 110 
M 195.3 109.43 198.83 111.63 200.66 112.53 204.53 113.86 208.61 114.63 
M 174.87 115.64 178.61 117.8 181.3 118.72 184.14 119.26 
M 235.98 113.4 236.17 117.03 236.52 118.75 237.08 120.41 237.86 121.99 239.93 124.97 
M 210.83 118.12 210.98 120.9 211.24 122.22 212.27 124.7 213.85 126.99 
M 185.68 122.84 185.97 125.7 186.68 127.42 187.78 129.01 
M 238.65 128.74 233.76 131.26 231.48 132.74 229.34 134.39 227.33 136.22 223.65 140.31 
M 212.88 130.77 209.13 132.7 207.38 133.83 204.2 136.5 201.38 139.63 
M 187.11 132.79 184.5 134.13 182.14 135.8 179.1 138.96 
M 219.9 144.42 216.18 146.17 214.49 147.25 212.94 148.51 211.53 149.94 209.06 153.22 
M 187.8 143.29 185.38 144.43 184.29 145.13 182.36 146.88 180.76 149.01 
M 206.67 157.16 204.83 159.27 204.16 160.42 203.7 161.64 203.46 162.95 203.47 165.75 
M 179.21 152.9 178.01 154.27 177.57 155.01 177.11 156.66 177.12 158.48 
M 199.73 167.61 192.57 166.43 188.98 166.11 185.39 166.01 181.79 166.14 174.58 166.94 
M 178.08 196.86 180.82 199.62 182.9 202.01 185.59 203.79 188.01 206.47 190.86 209.12 193.02 211.52 195.63 217.17 198.3 219.71 205.96 225.26 210.27 231.19 210.08 237 209.38 239.99 207.87 242.19 205.58 247.43 203.66 249.3 201.46 254.89 197.48 258.93 196.53 261.82 195.18 263.88 194.8 266.91 194.01 269.75 185.65 275.92 185.31 273.67 185.95 270.76 184.81 268.4 182.97 262.53 182.47 258.65 181.61 255.23 180.14 252.37 178.13 249.98 177.8 247.56 179.2 245.04 179.3 243.22 178.95 239.95 178.08 236.36 176.74 233.84 175.74 231.51 175.39 228.44 174.25 225.57 172.63 220.37 171.45 217.68 171.49 214.78 171.33 211.96 169.26 202.42 168.32 198.95 166.96 194.92 
M 176.22 196.54 178.82 199.37 180.73 201.85 185.51 206.58 187.9 209.84 189.92 211.78 191.58 214.16 192.61 217 195.26 220.85 197.8 223.42 198.95 225.08 200.89 225.85 
M 174.35 196.21 182.58 206.99 186.74 213.15 187.88 214.61 188.49 217 189.83 220.12 191.82 223.44 192.95 225.7 195.44 228.64 198.09 230.76 199.9 232.98 202.09 238.41 206.87 242.67 
M 172.49 195.89 179.54 207.41 181.93 210.7 183.36 213 185.83 217.98 187.14 220.08 187.35 223.97 190.57 230.19 
M 170.63 195.56 172.63 199.4 175.21 204.92 178.33 210.4 179.52 213.04 179.97 214.95 181.68 217.89 183 220.68 183.69 224.85 184.6 228.28 186.77 231.3 187.55 234.33 187.75 237.5 188.75 240.23 189.44 243 190.01 244.39 
M 168.76 195.24 173.82 208.24 175.23 210.76 176.38 216.04 177.83 218.8 178.64 221.68 179.08 225.33 179.8 228.57 181.3 231.67 184.13 236.87 185.59 241.7 185.15 244.09 
M 378.22 178.15 383.91 181.93 386.56 184.77 389.07 189.12 384.92 193.94 381.97 198.47 382.18 202.53 381.68 206 380.27 208.49 378.62 210.78 376.74 212.91 374.55 214.72 371.89 216.06 368.61 216.62 365.61 216.58 360.47 218.75 358.43 219.97 352.31 220.49 346.45 222.45 344.35 224.05 342.02 224.65 339.26 224.44 336.47 223.65 334.05 223.24 328.76 221.99 326.54 221.75 322.65 219.86 319.1 219.14 313.69 219.78 310.59 219.63 305.01 219.86 303.39 220.62 297.56 221.28 288.46 221.97 285.09 220.91 279.86 218.96 277.22 219.42 275 218.54 272.78 217.07 265.27 210.92 262.42 205.51 259.84 201.28 255.91 196.51 
M 373.67 179.43 378.45 183.34 380.71 185.69 
M 369.12 180.71 372.68 184.08 374.91 186.63 376.75 189.17 378.66 191.37 
M 364.56 181.97 368.22 184.69 370.76 186.99 372.39 189.65 376.03 193.98 377.75 197.05 380.48 198.8 
M 359.99 183.22 363.41 186.84 367.95 190.79 370.41 193.18 
M 355.43 184.46 359.5 188.54 361.67 191.49 363.9 193.39 368.21 197.61 370.47 200.35 373.17 202.63 374.18 205.71 375.55 208.41 
M 350.85 185.66 354.35 189.07 359.19 195.28 361.55 197.5 363.37 200.45 364.43 202.98 367.04 205.04 368.99 207.63 369.56 210.33 371.58 213.11 
M 346.28 186.87 349.91 190.11 352.3 192.65 354.2 195.95 356.23 198.82 357.6 201.72 361.69 206.87 364.21 208.76 366.51 211.45 
M 341.7 188.07 347.11 194.21 348.63 197.65 350.36 200.59 352.39 203.3 355.18 205.69 
M 337.13 189.27 339.55 192.17 341.96 194.71 344.25 198.14 345.92 201.53 347.44 204.07 
M 332.54 190.44 335.18 193.28 337.77 195.54 340.2 198.95 342.34 201.14 344.48 204.04 345.27 207.5 347.74 210.45 350.96 213.34 
M 327.94 191.51 333.21 197.13 336.15 200.49 338.4 203.41 339.89 204.87 342.02 210.07 
M 323.33 192.59 326.32 196.14 328.78 198.54 331.26 201.8 333.28 203.82 338.96 210.4 339.13 214.12 341.18 217.62 343.26 220.63 
M 318.69 193.49 321.6 197.96 324.11 200.82 326.43 202.93 327.77 205.04 331.94 209.05 333.99 211.64 334.82 215.68 336.71 219.45 338.97 222 
M 314.04 194.37 317.15 198.38 320.93 205.55 322.15 208.4 323.53 210.64 326.52 212.78 
M 309.37 195.14 313.05 198.14 315.6 201.73 317.12 205 318.13 208.74 319.76 211.31 320.95 214.13 322.22 216.32 324.95 218.5 
M 304.68 195.77 308 199.56 313.28 204.7 315.23 207.72 316.57 210.59 
M 299.99 196.36 302.5 200.59 304.65 203.6 309.4 209.64 
M 295.26 196.56 301.82 207.6 
M 290.54 196.76 293.47 201.77 295.62 204.84 297.13 207.41 297.8 210.42 299.23 213.48 300.85 216.02 301.39 218.95 
M 285.81 196.91 288.77 201.22 290.17 204.74 291.9 207.78 292.78 212.26 294.88 215.52 296.2 219.39 
M 281.08 197.05 283.62 200.41 285.35 204.2 286.28 207.86 288.12 210.67 290.89 216.68 291.81 220.06 
M 276.35 197.1 278.69 200.63 280.45 203.74 281.89 207.4 
M 271.62 197.01 273.24 200.79 275.07 203.99 276.69 207.32 278.37 211.23 
M 266.89 196.93 270.46 204.46 
M 262.17 196.75 266.59 205.04 268.43 207.14 269.94 209.47 
M 411.58 98.9 414.15 97.17 418.33 92.9 419.68 90.53 421.48 88.02 423.66 85.92 428.96 79 431.24 76.8 434.39 75.98 436.49 73.89 439.27 72.19 442.46 70.69 444.85 69.26 447.4 66.44 452.19 63.63 453.66 62.53 460.18 62.48 468.53 60.54 470.91 60.31 473.88 59.49 477.71 57.47 482.94 55.68 487.49 54.79 489.72 60.96 489.41 63.29 489.56 66.08 489.31 68.78 490 72.43 489.99 75.67 488.37 77.93 486.95 80.39 485.85 83.17 484.47 85.68 482.77 87.87 480.11 92.61 479.13 95.08 478.9 101.69 478.3 104.51 477.08 107.04 474.82 108.79 471.87 113.85 469.37 115.17 466.54 116.16 463.16 116.6 461.74 119.19 459.33 120.78 455.38 124.84 453.76 127.19 451.76 129.16 450.07 131.46 448.37 133.44 445.2 133.95 442.5 134.83 439.64 135.06 436.49 134.98 433.59 135.17 436.27 137.87 438.72 139.98 444.18 143.83 447.8 146.7 451.19 148.34 453.25 148.57 455.57 149.06 458.06 150.54 468.59 161.94 471.99 166.17 476.54 170.36 478.73 173.11 480.87 176.35 482.42 179.03 484.04 183.38 484.94 185.36 486.47 187.92 487.21 189.7 488.66 192.18 489.57 198.18 489.6 201.15 489.9 204.57 489.68 207.46 489.99 210.67 489.49 215.46 489.45 220.76 485.5 218.95 480.59 218.49 477.45 217.51 472.76 215.35 469.48 214.77 463.91 212.22 460.93 211.27 458.47 210.02 452.27 208.77 449.32 207.71 446.63 206.15 443.74 204.77 439.44 201.43 436.87 198.16 432.68 193.28 431.58 191.08 428.86 188.15 425.86 186.74 423.52 184.71 421.37 182.09 419.91 179.09 418.06 176.33 415.53 173.55 411.58 167.76 
M 411.58 101.57 414.12 100.09 416.68 97.97 420.53 93.73 421.98 91.43 426.11 87.63 430.18 82.84 435.51 80.01 437.58 77.56 439.6 75.62 442.54 75.54 446.51 73.9 449.78 71.8 452.23 69.39 454.75 68.75 459.74 69.18 462.61 68.23 468.16 67.66 473.67 65.75 
M 419.18 98.94 420.86 96.83 422.8 94.83 424.76 93.05 427.09 91.25 428.94 89.16 431.36 87.47 433.4 85.69 436.17 83.89 438.94 81.59 441.77 80 443.66 80.32 446.02 79.49 452.15 76.35 455.5 74.36 460.68 74.54 466.15 71.59 468.72 72.37 470.76 71.99 475.4 72.4 
M 416.75 104.17 423.42 98.34 426.1 97.03 428.18 95.24 430.05 92.63 432.34 90.89 435.44 89.91 437.82 89.39 439.93 87.31 442.74 85.55 445.91 85.01 449.98 83.87 452.55 82.44 455.74 81.16 462.03 80.42 467.28 78.64 471.98 77.46 
M 411.58 109.57 414.74 108.6 417.18 107.36 424.38 102.14 427.75 100.79 430.21 99.45 432.35 97.18 434.5 95.63 436.88 95.18 440.93 94.12 444.36 92.1 451.38 87.17 453.9 86.87 455.44 87.39 458.17 86.53 465.4 85.95 467.47 85.08 473.09 84.09 478.79 82.87 485.37 80.3 
M 420.43 108.91 423.06 107.07 425.64 105.74 431.81 103.78 438.29 99.98 442.73 98.53 445.88 96.45 449.39 94.46 452.51 92.2 455.97 91.68 457.92 92.64 460.7 92.71 466.08 91.83 470.01 91.82 
M 417.69 113.16 421.02 111.77 426.8 108.92 429.24 107.49 431.83 106.38 437.09 105.39 439.61 104.29 441.53 102.68 443.99 101.96 449.56 101.57 453.02 99.77 456.02 99.45 462.43 97.63 465.13 98 
M 411.58 117.57 414.97 117.15 417.81 116.15 420.98 114.62 424.72 113.64 427.62 112.24 429.69 110.48 431.97 109.18 433.74 108.48 440.03 107.93 445 107.03 
M 411.58 120.24 415.27 120.03 418.2 119.29 421.51 118.16 425.14 117.38 430.45 115.08 432.13 113.37 434.87 112.34 437.72 112.79 440.62 113.77 443.09 114.41 446.15 113.54 
M 422 121.75 425.52 121.76 431.41 120.12 432.96 119.2 435.25 118.64 438.41 118.51 441.7 118.85 443.88 119.67 447.66 120.02 450.4 118.42 454.14 117.18 
M 418.81 124.75 422.32 125.1 425.79 125.84 428.85 125.68 431.25 124.76 436.7 124.14 439.47 124.4 
M 411.58 128.24 415.96 128.54 418.94 128.4 422.13 128.77 426.12 128.85 429.15 128.84 432.35 128.58 434.69 128.96 438.13 129.82 440.73 129.88 447.96 131.14 
M 416.04 131.95 419.06 132.11 422.27 132 425.85 131.26 
M 411.58 133.58 416.33 135.69 419.36 136.31 422.4 135.89 426.4 134.77 430.06 134.45 
M 416.15 137.96 422.41 139.72 426.12 139.7 431.44 140.34 
M 419.44 141.95 422.47 143.33 428.79 144.79 431.52 145.59 
M 411.58 141.58 416.17 142.97 419.56 144.41 422.66 146.12 425.1 147.73 434.15 150.41 436.55 151.47 439.4 151.66 442.09 152.16 
M 416.08 145.95 419.33 147.24 422.01 149.21 424.23 151.62 427.6 153.01 430.34 153.1 432.39 153.86 437.94 155.12 441.46 155.01 
M 421.04 152.47 423.79 154.78 426.15 155.89 428.24 155.87 431.18 156.33 436.8 157.87 440.89 158.8 444.59 160.46 448.38 160.62 450.84 161.07 453.17 162.68 454.81 163.25 
M 411.58 149.58 415.01 151.68 417.9 153.74 420.39 155.99 422.95 157.9 425.49 159.39 427.72 159.59 430.76 160.31 433.96 162.52 436.94 163.01 444.95 164.93 449.98 166.88 451.99 168.31 
M 417.52 156.68 422.63 160.84 430.87 165.1 433.95 167.51 437.14 168.58 440.66 169.32 443.95 170.6 446.39 171.83 451.65 173.88 454.39 175.56 457.27 175.98 463.5 176.25 
M 420.13 161.5 424.42 164.97 430.67 169.24 433.38 171.39 436.61 172.53 439.51 174.15 443.23 177.12 446.74 177.84 450 179.11 453.97 179.81 458.71 181.83 462.27 182.62 
M 417.35 162.83 419.94 164.6 421.53 166.34 427.02 170.32 435.55 177.1 439.28 180.65 444.41 182.68 448.19 184.4 455.21 186.21 457.34 186.13 463.08 188.49 466.39 189.03 468.79 190.69 470.98 192.51 474.19 194.1 477.05 192.79 
M 419.6 167.98 424.61 171.45 428.91 176.08 432.08 179.21 434.6 181.39 436.17 182.29 437.94 184.18 439.42 185.5 442.88 186.91 446.26 187.81 449.97 189.2 452.49 190.66 
M 418.96 170.79 421.59 172.67 424.08 174.9 426 177.35 428.25 179.65 430.65 182.7 433.13 184.52 435.74 185.39 437.22 186.92 439.9 188.39 442.43 190.09 444.34 192.25 455.32 198.46 459.65 198.82 463.26 198.9 465.72 201.42 467.29 203.47 468.52 206.24 470.73 207.09 
M 411.58 165.58 416.29 171.32 420.86 175.91 426.67 183.95 429.63 186.03 432.79 187.52 434.7 189.6 435.76 191.27 437.7 193.51 440.57 195.71 443.2 198.24 445.39 199.91 447.01 201.57 449.93 202.87 457.66 205.03 
M 367.1 84.53 373.79 84.57 380.01 84.14 386.02 83.5 388.89 83.05 391.55 82.38 398.64 79.5 401.16 79.05 403.35 79.87 404.51 81.67 404.54 84.17 403.58 86.9 401.82 89.13 399.47 90.23 396.92 90.95 394.1 91.42 391.08 91.68 389.34 91.58 
M 384.52 87.45 388.89 86.84 391.55 86.17 398.64 83.28 401.16 82.84 403.35 83.66 403.79 84.34 
M 39.49 144.7 45 141.09 54.73 132.77 60.34 128.43 66.13 124.46 73.14 120 80.03 114.21 86.45 108.02 93.46 102.07 99.95 96.98 112.82 89.5 118.77 86.66 124.01 84.32 128.45 82.59 131.87 81.67 133.65 81.54 135.2 87.29 135.36 92.85 135.18 98.36 135.36 109.46 134.38 114.89 133.62 120.35 133.51 125.87 132.07 136.79 131.04 147.76 132.05 153.4 132.22 158.96 131.32 164.4 130.63 169.86 129.36 175.26 126.91 180.54 122.59 185.64 105.65 185.66 99.08 185.3 92.87 184.56 86.86 183.35 80.88 181.48 75.11 179.19 69.86 176.69 64.98 173.89 
M 61.4 171.45 57.49 168.34 52.76 163.85 
M 109.21 155.34 109.61 158.12 109.42 161.35 107.64 165.17 101.39 165.73 91.85 167.35 86.98 167.87 81.95 167.8 76.8 166.83 71.8 165.07 
M 63.51 173.41 57.8 168.07 52.39 163.55 45.31 157.17 41.71 154.15 36.71 149.11 35.85 146.89 36.97 144.91 39.07 144.4 40.95 145.74 43.97 149.52 59.66 167.15 65.2 173.68 
M 64.88 174.45 57.91 174.7 34.59 176.86 32.32 176.93 30.31 175.56 30 173.1 31.63 171.31 34.07 171.06 38.83 171.41 43.57 172.05 53.01 172.5 64.86 173.55 
M 85.11 143.44 83.32 136.66 83.83 129.67 86.59 123.21 91.29 118.01 97.42 114.61 104.33 113.38 111.26 114.47 117.46 117.75 122.27 122.86 125.15 129.25 125.8 136.24 124.14 143.06 120.36 148.97 114.87 153.33 108.26 155.67 101.24 155.74 94.59 153.53 89.01 149.28 85.11 143.44 
M 84.86 142.85 84 140.35 83.46 137.76 83.24 135.13 83.35 132.49 83.78 129.89 84.54 127.36 85.6 124.94 86.95 122.67 88.57 120.59 90.44 118.72 92.52 117.1 94.79 115.74 97.21 114.68 99.74 113.93 102.34 113.5 104.98 113.39 107.62 113.6 110.2 114.15 112.7 115 
M 86.6 142.12 85.82 139.85 85.33 137.49 85.13 135.09 85.23 132.69 85.96 129.19 
M 86.11 128.67 87.28 125.8 88.51 123.74 89.99 121.84 91.69 120.14 93.59 118.66 95.66 117.43 97.86 116.46 100.17 115.77 102.54 115.38 104.94 115.28 107.34 115.48 109.7 115.97 111.97 116.75 
M 88.35 141.4 87.65 139.34 87.2 137.22 87.02 135.05 87.11 132.88 87.72 129.89 
M 92.37 122.13 94.66 120.22 96.52 119.11 98.51 118.24 100.59 117.62 102.74 117.26 104.91 117.17 107.07 117.35 109.2 117.79 111.25 118.5 
M 90.1 140.67 89.47 138.84 89.07 136.94 88.91 135.01 88.99 133.08 89.48 130.59 
M 93.61 123.56 95.72 121.78 97.39 120.79 99.16 120.01 101.02 119.46 102.93 119.14 104.87 119.06 106.8 119.22 108.69 119.62 110.53 120.25 
M 91.85 139.95 91.3 138.34 90.95 136.67 90.81 134.98 90.88 133.27 91.24 131.3 
M 95.05 124.79 96.79 123.35 98.25 122.47 99.81 121.79 101.45 121.3 103.13 121.02 104.83 120.95 106.52 121.09 108.19 121.44 109.8 122 
M 93.6 139.23 92.82 136.4 92.7 134.94 93.01 132 
M 96.44 126.07 97.86 124.91 99.12 124.16 101.87 123.15 104.79 122.84 106.25 122.97 109.08 123.74 
M 96.77 138.19 96.06 135.48 96.24 132.98 
M 98.84 128.47 99.24 128.02 101.7 126.66 104.46 126.17 107.23 126.6 109.71 127.91 111.63 129.96 112.78 132.52 113.04 135.31 112.38 138.04 110.87 140.4 108.67 142.15 106.03 143.08 103.22 143.11 100.56 142.23 98.33 140.53 96.77 138.19 
M 100.43 127.36 99.51 129.19 
M 97.43 133.35 96.16 135.89 
M 102.25 126.56 100.42 130.21 
M 98.59 133.88 96.65 137.74 
M 103.8 126.28 101.33 131.22 
M 99.74 134.42 97.39 139.11 
M 105.22 126.29 102.24 132.25 
M 100.99 134.75 98.2 140.33 
M 106.54 126.49 103.15 133.27 
M 102.26 135.04 99.19 141.18 
M 107.76 126.88 104.13 134.15 
M 103.61 135.18 100.22 141.97 
M 108.88 127.48 105.14 134.96 
M 105.01 135.23 101.37 142.5 
M 109.95 128.17 102.59 142.9 
M 110.88 129.16 103.91 143.11 
M 111.76 130.24 105.33 143.09 
M 112.43 131.73 106.91 142.77 
M 112.89 133.65 108.64 142.16 
M 112.63 137.01 111.16 139.94 
M 41.11 143.57 45.82 148.29 
M 44.57 141.36 49.2 145.99 
M 47.67 138.79 52.79 143.9 
M 50.73 136.17 55.6 141.04 
M 53.8 133.56 59.43 139.2 
M 56.96 131.04 60.32 134.4 
M 60.16 128.57 64.96 133.37 
M 63.52 126.25 68.91 131.64 
M 66.91 123.96 72.53 129.58 
M 70.38 121.76 74.6 125.98 
M 73.77 119.47 78.92 124.62 
M 76.85 116.88 80.85 120.88 
M 79.94 114.29 84.72 119.07 
M 82.83 111.51 87.56 116.23 
M 85.72 108.72 90.88 113.88 
M 88.75 106.07 93.51 110.83 
M 91.82 103.46 94.77 106.41 
M 94.94 100.91 98.19 104.16 
M 98.12 98.41 103.13 103.42 
M 101.49 96.1 105.06 99.68 
M 105.11 94.05 108.8 97.74 
M 108.7 91.96 111.89 95.15 
M 112.26 89.84 117.25 94.83 
M 116.05 87.96 120.09 92 
M 119.91 86.15 123.84 90.07 
M 123.84 84.4 128.95 89.5 
M 127.92 82.8 132.83 87.71 
M 132.43 81.63 133.7 82.9 
M 110.67 96.82 109.15 97.54 108.17 97.64 105.4 96.35 103.76 94.81 
M 46.2 143.11 48.13 140.7 48.33 139.62 48.1 139.25 47.77 139.15 
M 52.37 140.64 49.43 137.28 
M 75.19 118.28 76.9 119.65 77.32 120.19 78.58 123.12 
M 91.41 110.29 92.48 114.56 92.62 117.27 
M 59.68 144.21 58.4 144.39 55.42 144.05 53.3 143.3 
M 120.71 170.74 118.77 172.43 117.4 174.47 114.88 176.82 
M 67.88 135.44 69.69 134.49 71.18 133.03 72.22 131.57 73.42 128.42 73.84 127.7 74.26 127.22 74.99 127.08 
M 68.41 164.37 69.65 164.07 70.36 163.51 
M 126.93 170.26 124.76 169.38 124 169.5 123.19 169.98 119.34 173.15 117.86 175.12 117.08 175.55 
M 91.8 152.34 91.27 151.63 90.53 151.45 
M 51.34 152.69 51.14 150.35 50.59 149.23 49.74 148.46 
M 73.29 119.87 73.54 120.77 73.53 121.76 
M 82.48 154.1 84.86 154.82 88.78 154.92 
M 101.33 156.86 100.56 156.56 100.32 155.44 
M 47.5 152.85 47.61 153.6 47.84 153.9 48.62 154.22 49.5 154.29 50.65 153.87 50.97 153.3 51.11 152.47 
M 125.12 124.75 125 122.35 124.43 120.26 123.13 118.01 122.16 116.95 121.46 115.23 
M 69.22 159.67 68.01 159.99 67.67 160.4 67.46 161.02 
M 53.89 157.12 52.13 158.73 
M 113.97 91.33 114.3 92.09 114.34 92.83 113.59 96.24 113.22 96.8 111.65 98.02 
M 104.58 113.15 103.74 111.46 103.32 110.09 103.21 107.51 102.74 106.71 101.31 105.57 
M 115.39 116.65 115.27 115.92 114.75 115.03 113.93 114.35 113.02 114.18 
M 72.74 133.52 73.63 129.95 74.39 128.07 74.79 127.52 75.56 127.27 78.37 127.27 
M 85.19 144.78 84.35 143.62 83.12 140.14 82.71 139.51 
M 66.41 169.41 67.4 169.85 68.49 169.99 72.22 168.98 73.65 168.84 
M 86.89 176.19 84.86 175.56 84.57 175.67 84.31 176.05 
M 108.05 178.41 107.59 177.84 107.66 177.57 107.96 177.37 
M 127.21 105.47 125.87 105 123.51 103.48 119.92 102.42 116.8 101.85 115.93 101.56 
M 132.06 123.35 131.42 121.74 130.12 120.32 128.68 119.76 126.97 117.96 125.03 116.9 
M 106.17 173.78 105.07 173.77 104.24 173.13 102.96 171.8 101.31 169.35 100.16 167.02 97.98 163.93 
M 108.99 167.43 108.1 167.37 105.79 166.14 104.93 165.44 103.18 163.76 100.25 160.41 98.99 158.52 
M 63.64 160.31 65 160.9 66.37 162.23 66.54 162.7 66.64 164.03 
M 102.87 113.64 102.28 111.62 101.88 108.4 100.99 106.82 
M 65.02 173.85 65.93 174.77 
M 61.16 171.22 61.22 171.68 61.5 171.54 
M 57.46 167.79 57.22 168.33 57.18 169.27 57.62 168.74 58.22 168.48 
M 53.79 164.72 53.3 165.55 53.14 166.86 53.7 165.96 54.63 165.42 
M 50.18 161.59 49.37 162.78 49.09 164.45 49.77 163.18 51.02 162.35 
M 46.65 158.36 45.45 160 45.05 162.04 45.85 160.4 47.56 159.17 
M 43.03 155.27 41.52 157.22 41.01 159.63 41.92 157.62 43.98 156.06 
M 39.55 152.02 37.6 154.44 36.96 157.22 38 154.84 40.45 152.91 
M 36.42 148.35 33.68 151.66 32.92 154.81 34.08 152.06 37.16 149.57 
M 64.87 174.09 66.21 174.1 
M 60.34 173.12 60.83 172.72 60.94 173.17 
M 55.49 172.72 55.7 172.13 56.39 171.35 56.26 172.14 56.48 172.77 
M 50.77 172.36 51.05 171.15 51.95 169.98 51.62 171.16 51.91 172.43 
M 46.04 172.23 46.41 170.18 47.52 168.61 46.98 170.18 47.33 172.28 
M 41.4 171.73 41.76 169.2 43.08 167.24 42.33 169.2 42.69 171.92 
M 36.76 171.2 37.12 168.22 38.64 165.86 37.69 168.22 38.03 171.33 
M 32.06 171.26 32.48 167.24 34.2 164.49 33.04 167.24 33.41 171.12 
M 40.12 176.33 48.92 178.92 54.16 180.09 59.29 180.86 64.46 181.21 80.88 181.48 
M 70.93 179.91 70.26 179.94 69.72 179.72 
M 70.36 180.36 69.62 180.09 69.31 179.66 
M 54.18 177.91 53.6 178.66 52.42 179.7 
M 46.74 177.22 47.46 177.4 47.94 177.24 48.36 176.84 48.41 176.38 
M 134.23 83.69 143.19 92.65 
M 138.97 80.86 146.37 88.26 
M 145.62 79.94 151.44 85.76 
M 152.15 78.91 158.13 84.88 
M 158.55 77.74 165.19 84.38 
M 164.77 76.39 175.29 86.91 
M 171 75.04 180.53 84.58 
M 177.23 73.71 184.57 81.05 
M 183.63 72.54 191.89 80.8 
M 190.11 71.45 196.53 77.87 
M 196.9 70.68 204.62 78.39 
M 203.83 70.03 210.82 77.03 
M 210.88 69.52 220.07 78.7 
M 217.95 69.01 225.7 76.77 
M 224.99 68.49 234.07 77.56 
M 231.99 67.92 238.78 74.71 
M 239.41 67.77 246.25 74.61 
M 247.13 67.92 253.02 73.81 
M 255.25 68.48 262.21 75.43 
M 263.37 69.03 269.21 74.87 
M 271.64 69.73 279.79 77.88 
M 279.95 70.47 287.36 77.88 
M 288 70.95 298.34 81.29 
M 296.32 71.7 306.94 82.32 
M 304.97 72.78 313.39 81.2 
M 313.93 74.17 320.77 81.02 
M 322.96 75.63 331.05 83.73 
M 331.99 77.1 343.26 88.36 
M 341.11 78.65 348.47 86 
M 350.52 80.49 358.71 88.68 
M 360.39 82.79 370.34 92.74 
M 370.88 85.71 378.65 93.48 
M 381.93 89.2 392.09 99.35 
M 393.11 92.8 403.56 103.26 
M 404.36 96.49 410.58 102.71 
M 216.98 291.39 215.08 297.7 
M 216.98 291.39 219.67 291.39 220.49 291.7 220.7 292 220.82 292.6 220.64 293.2 220.16 293.8 219.77 294.1 218.78 294.39 
M 216.07 294.39 218.78 294.39 219.58 294.7 219.92 295.6 219.64 296.5 218.78 297.39 217.79 297.7 215.08 297.7 
M 225.95 293.5 224.69 297.7 
M 225.68 294.39 225.26 293.8 224.75 293.5 223.85 293.5 223.16 293.8 222.38 294.39 221.81 295.3 221.63 295.89 221.66 296.8 222.08 297.39 222.58 297.7 223.49 297.7 224.18 297.39 224.96 296.8 
M 228.35 293.5 227.08 297.7 
M 227.99 294.7 229.16 293.8 229.85 293.5 230.75 293.5 231.26 293.8 231.29 294.7 230.39 297.7 
M 231.29 294.7 232.46 293.8 233.15 293.5 234.05 293.5 234.56 293.8 234.58 294.7 233.69 297.7 
M 237.68 291.39 237.89 291.7 238.27 291.39 238.07 291.1 237.68 291.39 
M 237.35 293.5 236.08 297.7 
M 242.77 294.39 242.36 293.8 241.85 293.5 240.95 293.5 240.26 293.8 239.48 294.39 238.91 295.3 238.73 295.89 238.76 296.8 239.18 297.39 239.69 297.7 240.58 297.7 241.27 297.39 242.06 296.8 
M 245.77 291.39 243.89 297.7 
M 244.79 294.7 245.96 293.8 246.65 293.5 247.55 293.5 248.06 293.8 248.08 294.7 247.19 297.7 
M 250.85 293.5 248.96 299.8 
M 250.58 294.39 251.36 293.8 252.05 293.5 252.95 293.5 253.46 293.8 253.88 294.39 253.9 295.3 253.73 295.89 253.15 296.8 252.38 297.39 251.69 297.7 250.79 297.7 250.27 297.39 249.86 296.8 
M 257.75 293.5 257.05 293.8 256.27 294.39 255.71 295.3 255.52 295.89 255.55 296.8 255.98 297.39 256.49 297.7 257.39 297.7 258.08 297.39 258.86 296.8 259.43 295.89 259.61 295.3 259.58 294.39 259.15 293.8 258.64 293.5 257.75 293.5 
M 262.88 291.39 260.99 297.7 
M 264.64 293.5 263.75 296.5 263.77 297.39 264.28 297.7 265.19 297.7 265.88 297.39 267.05 296.5 
M 267.95 293.5 266.69 297.7 
M 273.08 294.39 272.95 293.8 272.14 293.5 271.25 293.5 270.26 293.8 269.77 294.39 269.89 295 270.4 295.3 271.82 295.6 272.33 295.89 272.36 296.8 271.88 297.39 270.89 297.7 269.99 297.7 269.18 297.39 269.06 296.8 
M 278.45 293.5 277.19 297.7 
M 278.08 294.7 279.26 293.8 279.95 293.5 280.84 293.5 281.36 293.8 281.39 294.7 280.49 297.7 
M 283.31 295.3 286.9 295.3 287.08 294.7 286.96 294.1 286.25 293.5 285.34 293.5 284.65 293.8 283.88 294.39 283.31 295.3 283.13 295.89 283.15 296.8 283.58 297.39 284.08 297.7 284.99 297.7 285.67 297.39 286.45 296.8 
M 290.48 291.39 288.95 296.5 288.98 297.39 289.49 297.7 290.08 297.7 
M 288.95 293.5 291.04 293.5 
M 293.14 293.5 292.25 296.5 292.27 297.39 292.78 297.7 293.69 297.7 294.38 297.39 295.54 296.5 
M 296.45 293.5 295.19 297.7 
M 301.58 294.39 301.45 293.8 300.64 293.5 299.75 293.5 298.76 293.8 298.27 294.39 298.39 295 298.9 295.3 300.32 295.6 300.83 295.89 300.86 296.8 300.38 297.39 299.39 297.7 298.49 297.7 297.68 297.39 297.56 296.8 
M 303.16 297.1 302.77 297.39 302.99 297.7 303.38 297.39 303.16 297.1 
"/></svg>
