<svg xmlns="http://www.w3.org/2000/svg" width="520" height="320"><rect x="0" y="0" width="520" height="320" fill="floralwhite"/><rect x="10" y="10" width="500" height="300" stroke="black" stroke-width="1" fill="none"/><path stroke="black" stroke-width="1" fill="none" stroke-linecap="round" stroke-linejoin="round" d="
M 147.16 127.66 153.51 125.42 173.41 119.82 193.02 113.24 202.88 110.15 212.83 107.33 222.92 105.05 233.12 103.4 243.4 102.25 253.73 101.9 264.06 102.26 274.38 102.96 284.58 104.66 324.9 113.84 334.61 117.41 353.46 125.91 397.11 147.09 
M 397.11 192.88 380.51 201.87 371.33 206.63 362.05 211.18 352.64 215.47 343.16 219.58 333.58 223.47 323.74 226.65 313.68 229.03 303.53 231.02 293.31 232.56 282.98 233.14 272.65 232.75 262.32 233.24 252.02 234.08 241.68 234.25 231.35 234.71 221.04 235.46 210.7 235.36 200.42 234.27 190.25 232.41 180.32 229.52 170.71 225.72 156.94 219.28 
M 186.9 164.12 188.83 163.84 190.47 163.27 
M 196.8 160.64 198.46 160.05 203.98 158.84 
M 214.11 155.64 218.8 153.79 222.32 153.04 224.22 152.85 
M 231.58 152.02 239.85 150.81 243.27 150.71 252.22 151.51 
M 255.73 151.93 262.67 152.93 
M 265.85 153.29 270.28 153.57 273.44 154.21 278.68 155.78 
M 282.14 156.77 283.82 157.21 286.81 157.69 299.34 159.27 310.51 161.08 314.2 161.42 328.54 162.16 336.35 163.18 341.73 163.43 
M 345.1 163.38 348.53 163.36 
M 352.11 163.48 368.63 164.37 372.5 164.75 385.22 167.06 397.11 167.86 
M 162.38 139.78 158.87 143.81 156.79 146.68 155.17 149.94 154.46 151.74 
M 159.38 202.2 161.73 208.9 
M 162.86 212.25 163.86 215.47 
M 183.41 119.42 181.17 122.43 
M 177.4 129.09 175.8 132.68 
M 162.77 154.72 161.37 158.11 
M 158.93 163.97 158.54 164.78 
M 170.34 206.8 171.27 210.05 
M 172.2 213.32 173.2 216.68 
M 181.91 138.26 180.2 141.62 
M 178.61 145.07 177.13 148.58 
M 171.98 158.13 170.28 162.29 
M 177.9 200.99 178.15 203.18 
M 178.72 206.15 179.69 209.52 
M 201.21 116.62 198.13 123.57 
M 192.24 137.88 190.2 140.89 
M 183.69 159.28 183.11 161.15 182.36 162.74 
M 188.64 206.13 189.55 209.5 
M 191.68 216.61 192.84 220.31 
M 194.09 224.12 195.25 227.84 
M 206.29 126.62 204.82 130.13 
M 203.6 133.91 203.05 135.86 201.65 139.49 200.7 141.06 
M 198.81 144.2 197.87 145.78 196.28 149.21 194.86 152.81 192.38 162.57 
M 197.2 196.22 197.6 199.28 
M 197.96 202.18 198.34 205.07 
M 201.55 215.81 203.82 223.27 
M 205.24 229.35 205.42 230.22 
M 213.48 129.45 212.73 131.16 211.55 134.95 210.08 143.49 208.82 147.25 207.03 150.5 204.15 155.18 
M 205.49 177.1 205.76 178.71 205.8 181.45 205.41 185.09 
M 205.57 187.93 207.75 200.65 
M 208.61 204.07 209.72 207.7 
M 211.82 214.86 213.64 221.9 
M 231.86 103.61 230 109.54 
M 221.41 134.11 219.35 139.46 216.78 146.9 215.98 148.62 
M 214.33 152.02 212.87 155.09 
M 214.84 179.83 215.18 182.96 
M 215.46 186.01 215.69 188.98 
M 216.01 192.01 216.6 195.28 
M 217.59 198.9 219.58 204.77 221.08 210.06 
M 221.66 213.17 222.13 216.23 
M 225.58 227.7 226.3 229.83 
M 237.72 115.23 236.57 118.64 
M 235.41 122.08 234.38 125.72 
M 233.32 129.38 232.74 131.17 231.12 134.36 227.54 140.55 225.38 145.84 
M 222.83 161.55 223.48 167.96 
M 224.47 177.58 224.98 180.93 
M 225.48 184.25 226.25 190.58 
M 227.72 197.45 228.9 201.28 
M 230.2 205.17 231.74 210.54 232.22 214.9 
M 234.1 225.25 234.63 227.58 
M 243.73 125.15 242.56 128.59 
M 241.26 131.96 239.88 135.3 
M 238.42 138.63 232.26 151.91 
M 234 169.77 234.31 173.02 
M 234.82 176.44 237.02 185.84 237.93 195.11 238.53 198.43 241.15 208.93 242.14 216.49 
M 242.63 219.69 242.93 221.35 244.55 227.5 
M 258.01 117.79 253.65 126.71 
M 252.16 129.73 250.7 132.84 
M 249.31 136.06 245.86 144.38 244.12 147.44 241.83 150.67 
M 246.15 177.12 247.1 180.97 
M 248.14 187.74 248.32 190.73 
M 248.51 196.44 249.09 201.06 250.83 208.06 251.77 212.94 
M 254.82 226.42 255.29 227.82 
M 267.91 120.41 267.04 121.72 266.33 123.19 
M 265.01 126.24 263.19 131.03 261.77 134.07 256.17 144.42 
M 254.52 147.44 252.93 150.21 
M 253.33 162.95 253.68 166.24 
M 254.72 173.12 255.42 176.72 
M 256.33 180.49 257.83 186.25 258.05 187.86 
M 257.76 193.11 257.5 194.21 257.27 196.69 257.49 198.24 
M 258.13 201.55 259.69 208.35 
M 260.4 211.71 262.46 219.14 
M 263.75 223.18 265.31 227.89 
M 283.89 112.55 282.21 115.43 
M 280.48 118.21 278.64 120.81 
M 273.19 132.88 272.69 134.57 271.94 136.03 
M 270.33 138.85 267.73 142.96 265.29 147.31 
M 265.3 177.48 266.26 181.25 
M 267.99 191.26 267.28 197.29 267.39 200.05 267.78 203.09 268.52 206.44 271.41 217.31 272.73 221.36 273.71 223.72 
M 275.55 228.03 276.41 229.99 
M 287.1 128.32 286.3 129.72 283.42 133.43 
M 280.11 138.92 277.85 143.29 275.28 147.41 
M 273.53 150.14 271.14 153.66 
M 273.73 168.91 275.55 178.98 
M 276.27 182.41 277.1 187.26 277.62 191.77 
M 278.05 194.83 278.63 200.65 
M 278.92 203.54 279.75 208.27 281.69 215.45 287.96 230.63 
M 299.25 130.33 298.5 131.84 296.62 134.45 293.22 137.72 
M 291.01 139.96 289.95 141.12 288.07 143.67 284.65 149.13 283.9 150.61 
M 282.13 154.3 281.1 156.51 
M 284.06 174.14 284.66 177.36 
M 285.36 180.65 287.32 191.57 288.34 196.4 
M 288.87 199.45 289.72 206.63 290.14 208.32 
M 291.32 212.04 294.85 220.76 
M 296.54 225.08 298.8 231.02 
M 313.59 123.98 311.62 126.85 
M 306.76 135.98 305.97 137.49 304.12 140.2 296.61 148.46 
M 294.62 150.95 292.69 153.49 
M 294.31 178.72 295.24 182.11 
M 296.67 188.41 299.71 201.18 
M 300.6 204.52 302.87 211.71 
M 304.13 215.45 307.55 225.2 308.72 229.04 
M 320.09 132.75 316.56 138.72 
M 314.75 141.61 312.88 144.4 
M 310.77 146.92 308.44 149.19 
M 303.8 153.69 300.64 157.34 299.26 159.26 
M 302.02 170.36 304.94 180.3 
M 305.7 183.38 306.38 186.39 
M 307.26 189.59 311.53 203.22 
M 312.76 206.82 313.95 210.39 
M 316.23 217.49 317.42 221.13 
M 318.52 224.9 319.05 226.86 
M 331.69 133.21 329.32 138.13 327.56 141.21 325.58 144.04 323.4 146.63 322.21 147.82 
M 319.79 150.14 316.23 153.66 310.05 161.02 
M 316.58 184.35 317.6 188.74 318.53 191.92 323.01 204.41 
M 324.05 207.77 328.15 221.47 
M 340.35 136.08 337.38 142.98 
M 335.95 146.45 335.2 148.14 333.36 151.16 332.25 152.47 
M 329.81 154.86 328.47 155.93 325.38 157.63 322.54 159.55 320.56 161.68 
M 324.17 175.07 325.14 179.31 325.71 180.97 
M 326.94 184.4 330.56 193.56 332.47 198.83 
M 333.37 201.99 334.85 209.18 335.64 212.28 336.99 215.95 338.57 219.58 
M 348.03 142.9 343.67 151.02 341.7 153.99 339.37 156.59 336.71 158.83 331.16 162.47 
M 332.81 169.41 334.13 173.92 335.87 178.87 
M 337.41 182.56 340.2 188.6 342.53 194.21 
M 343.67 197.55 344.66 200.75 
M 345.66 203.98 349.04 214.63 
M 356.61 145.75 355.71 147.41 349.21 156.07 346.9 158.77 342 163.46 
M 346.17 176.97 349.9 184.93 
M 351.49 188.65 353.55 193.94 356.31 202.11 
M 358.62 208.79 359.91 212.16 
M 368.65 141.86 367.28 145.66 
M 365.88 149.41 365.1 151.22 362.85 154.12 357.26 158.78 352 163.47 
M 356.9 177.53 363.61 192.62 
M 365.03 196.16 369.44 207.55 
M 377.09 144.75 370.2 156.13 367.81 158.95 362.61 164.04 
M 367.08 175.45 372.23 185.66 374.74 192.28 379.03 202.64 
M 382.27 155.18 378.89 159.71 376.35 162.42 373.59 164.9 
M 377.67 173.75 383.35 186.25 387.73 194.57 388.97 197.34 
M 316.46 186.19 317.07 185.61 317.72 185.41 319.16 185.32 320.13 185.6 
M 202.98 223.64 203.41 224.3 204.9 224.96 208.02 225.46 209.62 225.5 
M 307.18 179.57 308.83 179.87 309.3 180.43 309.49 181.76 308.77 183.84 
M 161.08 177.52 160.23 177.14 157.02 174.76 
M 262.94 186.58 263.14 185.43 263.77 184.28 267.86 180.31 268.44 179.51 268.93 178.62 269.63 175.38 
M 191.1 133.7 190.24 132.33 190.26 129.97 189.98 128.24 
M 258.22 139.97 257.92 139.32 255.98 136.74 254.25 134.83 253.73 133.44 
M 288.28 148.52 288.74 147.41 289.11 145.11 
M 289.88 157.11 290.98 152.62 292.19 150.09 292.49 148.59 
M 325.84 129.36 326.22 128.53 326.07 125.38 326.67 122.2 326.64 121.46 326.31 120.47 
M 230.88 215.21 232.16 215.01 232.92 215.2 233.29 215.56 
M 286.72 205.56 287.79 203.5 289.28 202.19 290.03 201.96 
M 252.38 207.52 251.46 205.76 251.4 204.17 
M 350.53 126.63 350.59 126.07 351.09 125.96 
M 242.37 171.57 242.77 171.33 242.98 170.88 
M 323.19 134.7 324.26 134.5 325 134.62 325.7 134.98 325.98 135.59 
M 253.62 219.95 254.48 218.18 255.48 215.05 255.52 214.51 254.95 212.16 253.95 211.35 
M 240.41 105.77 241.36 105.68 242.22 105.03 243.23 103.51 243.78 102.24 
M 361.77 196.74 360.64 197.21 359.54 196.99 358.94 196.61 358.01 195.5 357.07 194.76 
M 238.44 134.6 238.2 132.51 237.59 131.08 236.66 130.2 235.44 129.47 234.93 128.79 234.75 127.94 234.9 126.08 
M 227.35 225.58 226.28 226.01 225.8 226 224.77 225.46 224.22 224.87 223.1 221.59 223.28 220 223.84 218.89 
M 248.61 212.59 248.31 211.47 247.63 210.64 246.57 210.1 245.8 209.97 245.52 210.07 
M 213.58 158.79 211.75 158.51 210.72 158.66 209.76 158.6 207.82 158.21 207.47 158.34 206.06 160.72 
M 390.12 196 390.71 196.39 
M 256.85 118.93 254.39 117.48 252.81 116.85 252.52 116.95 251.93 117.58 
M 203.04 197.33 202.52 196.81 
M 346.93 156.12 349.87 157.79 350.49 158.5 
M 207.69 167.04 208.19 168.03 208.13 168.89 
M 275.03 188.58 274.76 188 274.97 186.7 274.8 186.02 274.16 185.47 272.56 184.91 
M 301.11 186.43 299.08 186.74 
M 165.4 121.79 167 121.67 
M 178.2 117.92 177.53 96.29 178.42 96.21 181.34 117.24 
M 190.84 113.56 189.22 78.72 190.1 78.65 194 112.92 
M 203.61 109.51 203.27 68.72 204.17 68.69 206.79 108.97 
M 216.53 105.94 219.62 50.13 220.52 50.16 219.74 105.68 
M 229.7 103.47 237.69 45.25 238.57 45.36 232.93 103.43 
M 243.01 101.81 256.3 43.72 257.17 43.9 246.25 101.98 
M 256.43 101.48 277.84 36.11 278.69 36.37 259.6 102.03 
M 269.82 102.13 300.45 30 301.28 30.33 272.98 102.86 
M 283.12 103.92 320.45 33.99 321.24 34.4 286.18 104.97 
M 296.21 106.77 328.06 54.11 328.83 54.56 299.22 107.96 
M 309.25 109.76 331.92 73.78 332.69 74.24 312.26 110.95 
M 322.34 112.65 340.71 87.95 341.44 88.46 325.32 113.94 
M 335.17 117.12 336.43 118.12 
M 167.67 121.48 170.84 116.93 172.32 114.51 173.63 112.02 174.75 109.45 176.42 104.05 177.6 98.45 
M 178.72 98.35 182.04 95.4 184.92 92.14 186.11 90.35 187.11 88.44 187.97 86.42 189.38 82.2 
M 190.5 82.11 194.02 80.97 197.22 79.4 198.65 78.36 199.95 77.15 201.14 75.8 203.31 72.8 
M 204.43 72.76 208.6 69.73 212.37 66.34 214.02 64.44 215.52 62.41 216.87 60.26 219.31 55.71 
M 220.44 55.75 224.41 55.82 226.34 55.68 228.23 55.36 230.06 54.84 233.55 53.22 236.89 51.07 
M 238 51.2 241.89 51.97 245.72 52.21 247.6 52.02 249.47 51.63 251.31 51.04 254.97 49.53 
M 256.07 49.76 260.82 49.26 263.14 48.84 265.39 48.25 267.57 47.46 271.73 45.3 275.7 42.64 
M 276.77 42.98 281.66 42.8 284.06 42.54 286.41 42.1 288.7 41.46 293.12 39.59 297.39 37.21 
M 298.43 37.63 302.29 39.5 306.24 40.85 308.27 41.22 310.34 41.38 312.45 41.36 316.72 40.98 
M 317.71 41.5 318.24 45.9 319.27 50.1 320.06 52.08 321.06 53.99 322.22 55.83 324.88 59.38 
M 325.85 59.94 325.57 64.06 325.82 68.07 326.25 70 326.88 71.9 327.69 73.75 329.65 77.38 
M 330.62 77.95 331.5 81.36 332.82 84.46 333.74 85.85 334.83 87.12 336.08 88.28 338.87 90.42 
M 339.8 91.06 337.81 96.83 337 99.74 336.36 102.68 335.94 105.65 335.7 111.67 335.99 117.77 
M 180.41 96.9 183.56 93.82 184.92 92.14 186.11 90.35 187.11 88.44 188.7 84.33 
M 182.41 103.44 184.46 101.45 185.34 100.36 186.77 97.95 187.8 95.28 
M 192.28 81.57 195.68 80.26 197.22 79.4 198.65 78.36 199.95 77.15 202.24 74.33 
M 193.81 88.54 196.41 87.53 197.6 86.87 199.68 85.15 201.45 82.99 
M 195.33 95.51 197.97 94.35 199.42 93.15 200.65 91.65 
M 206.54 71.27 210.55 68.09 212.37 66.34 214.02 64.44 215.52 62.41 218.12 58.01 
M 207.44 77.65 210.75 75.03 212.25 73.58 214.84 70.34 216.99 66.71 
M 208.34 84.03 210.95 81.96 212.12 80.82 214.17 78.27 215.86 75.41 
M 209.24 90.41 212 88.07 213.5 86.2 214.73 84.11 
M 222.43 55.82 226.34 55.68 228.23 55.36 230.06 54.84 231.83 54.12 235.23 52.18 
M 222.7 61.54 226.15 61.41 229.43 60.67 231 60.03 234 58.32 
M 222.96 67.25 225.96 67.15 228.81 66.51 230.17 65.95 232.77 64.46 
M 223.23 72.97 225.77 72.88 228.19 72.34 229.34 71.87 231.55 70.61 
M 223.5 78.69 225.58 78.61 227.56 78.17 230.32 76.75 
M 223.76 84.41 226.18 84.22 227.68 83.7 229.09 82.89 
M 239.95 51.63 243.81 52.18 245.72 52.21 247.6 52.02 249.47 51.63 253.14 50.32 
M 239.71 57.61 243.13 58.1 244.81 58.12 248.12 57.61 251.37 56.46 
M 239.48 63.59 242.44 64.02 243.9 64.04 246.78 63.59 249.6 62.59 
M 239.25 69.57 241.76 69.93 243 69.95 245.43 69.57 247.82 68.73 
M 239.01 75.55 242.09 75.86 244.09 75.55 246.05 74.86 
M 238.78 81.53 241.18 81.78 242.74 81.53 244.28 80.99 
M 258.46 49.54 263.14 48.84 265.39 48.25 267.57 47.46 269.68 46.47 273.73 44.01 
M 257.62 55.67 261.75 55.05 263.74 54.52 267.53 52.95 271.11 50.78 
M 256.78 61.79 260.37 61.25 262.1 60.8 265.39 59.44 268.49 57.55 
M 255.94 67.92 258.99 67.46 261.87 66.56 263.24 65.92 265.87 64.32 
M 255.1 74.04 258.8 73.35 261.09 72.4 263.25 71.09 
M 254.27 80.17 257.16 79.63 258.94 78.89 260.63 77.86 
M 279.23 42.92 284.06 42.54 286.41 42.1 288.7 41.46 290.93 40.62 295.26 38.44 
M 277.77 48.86 282.12 48.52 284.23 48.13 288.3 46.79 292.2 44.83 
M 276.31 54.81 280.18 54.5 283.89 53.64 285.67 52.96 289.14 51.22 
M 274.85 60.75 278.23 60.48 281.48 59.73 283.04 59.14 286.07 57.61 
M 273.39 66.69 276.29 66.46 279.07 65.81 280.41 65.31 283.01 64 
M 271.93 72.63 274.35 72.44 276.67 71.9 279.95 70.39 
M 270.47 78.57 272.4 78.42 274.26 77.99 276.89 76.78 
M 300.35 38.6 304.25 40.27 306.24 40.85 308.27 41.22 310.34 41.38 314.57 41.21 
M 298.39 44.3 301.94 45.82 305.62 46.69 307.51 46.84 311.37 46.68 
M 296.43 50 299.64 51.37 302.96 52.15 304.67 52.29 308.16 52.14 
M 294.47 55.69 297.34 56.92 300.31 57.62 301.83 57.74 304.95 57.61 
M 292.5 61.39 295.04 62.47 296.33 62.84 299 63.19 301.75 63.08 
M 290.54 67.08 292.73 68.02 295 68.55 298.54 68.55 
M 288.58 72.78 290.43 73.57 292.34 74.02 295.33 74.01 
M 286.62 78.47 288.9 79.34 290.49 79.55 292.13 79.48 
M 317.94 43.71 318.67 48.03 319.27 50.1 320.06 52.08 321.06 53.99 323.52 57.62 
M 314.81 50.99 315.45 54.81 315.98 56.63 317.56 60.07 319.73 63.28 
M 311.67 58.27 312.23 61.58 313.3 64.69 314.06 66.15 315.94 68.93 
M 308.54 65.55 309.01 68.36 309.4 69.7 310.56 72.23 312.16 74.59 
M 305.4 72.83 305.79 75.14 306.53 77.3 308.37 80.25 
M 302.27 80.11 302.57 81.91 303.15 83.6 304.59 85.91 
M 325.68 62.01 325.61 66.08 325.82 68.07 326.25 70 326.88 71.9 328.63 75.57 
M 321.9 70.25 321.85 73.61 322.02 75.24 322.89 78.4 324.34 81.44 
M 318.13 78.48 318.08 81.13 318.22 82.42 318.91 84.91 320.05 87.3 
M 314.35 86.72 314.42 89.6 314.92 91.42 315.76 93.16 
M 331.03 79.67 332.08 82.96 332.82 84.46 333.74 85.85 334.83 87.12 337.44 89.37 
M 327.79 87.23 328.6 89.75 329.16 90.9 330.71 92.94 332.71 94.67 
M 324.55 94.79 325.51 97.35 326.58 98.76 327.97 99.96 
M 160.52 163.85 179.63 158.05 179.94 158.89 161.63 166.87 
M 160.67 167.37 187.94 161.49 188.17 162.35 161.48 170.48 
M 160.83 170.91 194.21 166.86 194.35 167.74 161.32 174.08 
M 160.98 174.46 200.04 173.42 200.09 174.31 161.17 177.66 
M 161.14 178.02 202.33 180.94 202.29 181.83 161.01 181.23 
M 161.3 181.6 207.56 189.36 207.43 190.24 160.85 184.78 
M 161.46 185.2 202.47 196.44 202.26 197.31 160.69 188.32 
M 161.61 188.81 191.28 200.51 190.99 201.35 160.54 191.84 
M 161.76 192.65 179.32 202.15 178.94 202.96 160.39 195.55 
M 178.11 159.69 179.32 161.3 180.71 162.41 181.5 162.68 182.36 162.74 185.22 162.08 
M 185.5 163.17 186 164.99 186.82 166.38 187.42 166.84 188.14 167.13 190.87 167.26 
M 191.05 168.37 191.36 170.32 192.06 171.9 192.62 172.47 193.34 172.89 196.13 173.52 
M 196.2 174.64 195.56 176.34 195.43 177.87 195.65 178.54 196.08 179.14 198.21 180.64 
M 198.16 181.77 198.28 183.94 198.49 184.92 198.84 185.8 199.37 186.56 200.93 187.73 202.93 188.58 
M 202.77 189.7 200.89 190.24 199.43 191.11 198.94 191.74 198.62 192.49 198.37 195.32 
M 198.1 196.41 195.6 195.96 193.25 196.03 192.16 196.35 191.14 196.88 190.16 197.59 188.32 199.34 
M 187.94 200.4 185.55 199.43 183.19 199 182.04 199.09 180.9 199.4 179.78 199.88 177.57 201.2 
M 191.18 169.37 191.64 171.18 192.06 171.9 192.62 172.47 193.34 172.89 195.14 173.38 
M 195.84 175.5 195.4 177.13 195.43 177.87 195.65 178.54 196.08 179.14 197.41 180.17 
M 198.19 182.87 198.49 184.92 198.84 185.8 199.37 186.56 200.08 187.2 201.9 188.18 
M 201.8 189.94 200.09 190.62 199.43 191.11 198.94 191.74 198.62 192.49 198.38 194.32 
M 196.84 196.15 194.4 195.91 193.25 196.03 192.16 196.35 191.14 196.88 189.23 198.43 
M 216.83 235.76 220.87 239.98 223.88 241.38 226.58 244.71 230.19 254.99 229.48 257.11 229.03 262.31 226.08 266.73 224.35 268.62 223.53 271.1 222.61 276.88 220.08 278.06 217.23 278.91 214.61 280 212.95 278.04 209.31 271.74 206.96 268.49 204.12 263.88 201.5 260.29 193.35 244.25 192.24 240.13 190.3 236.01 186.93 231.71 
M 212.38 235.47 218.66 241.27 220.35 243.66 224.1 246.96 
M 207.93 235.18 211.07 238.48 215.45 244.29 217.5 246.64 219.8 248.82 221.1 250.76 
M 203.51 234.67 206.09 238.32 207.69 241.43 209.55 244.6 212.21 246.76 214.14 249.88 216.27 252.22 219.37 256.99 
M 199.08 234.09 201.3 237.82 203.7 243.69 205.54 246.28 208.02 248.85 211.44 255.16 213.36 256.64 214.25 258.21 
M 194.69 233.34 196.67 236.93 198.9 243.11 204.12 250.9 205.01 253.89 206.12 255.71 207.96 259.72 208.95 262.86 210.97 266.43 211.45 269.78 213.15 272.52 
M 190.33 232.43 192.53 236.42 193.91 239.54 194.61 241.94 196.09 244.93 197.6 247.15 200.11 252.88 
M 357.46 212.69 360.14 216.78 359.53 217.44 355.26 215.03 
M 345.2 218.02 348.2 222.53 347.58 223.17 342.97 220.33 
M 332.86 223.06 336.62 228.93 335.96 229.53 330.48 225.22 
M 320.1 226.89 324.95 235.16 324.24 235.7 317.55 228.84 
M 307.08 229.76 313.41 241.43 312.66 241.92 304.4 231.53 
M 293.94 231.91 301.26 248.37 300.47 248.78 291.1 233.4 
M 278.1 232.15 286.53 254.43 285.71 254.78 275.16 233.43 
M 359.1 217.19 356.15 217.23 354.75 217.41 353.42 217.76 352.18 218.3 349.93 219.94 347.9 222.08 
M 347.12 222.89 344.19 223.07 342.8 223.32 341.5 223.74 340.29 224.35 338.15 226.1 336.25 228.34 
M 335.41 229.1 332.49 229.23 329.79 229.84 328.57 230.42 327.45 231.2 326.4 232.14 324.46 234.33 
M 323.57 235.02 320.67 235.15 318 235.77 316.8 236.35 315.7 237.12 314.67 238.06 312.77 240.26 
M 311.84 240.88 308.8 241.16 306 241.92 304.75 242.57 303.59 243.4 302.51 244.41 300.52 246.72 
M 299.53 247.25 296.07 247.27 292.78 247.79 291.25 248.34 289.78 249.09 288.38 250.02 285.68 252.2 
M 322.1 235.05 319.3 235.38 318 235.77 316.8 236.35 315.7 237.12 313.71 239.13 
M 310.3 240.99 307.36 241.46 306 241.92 304.75 242.57 303.59 243.4 301.5 245.53 
M 297.79 247.22 294.39 247.44 292.78 247.79 291.25 248.34 289.78 249.09 287.02 251.08 
M 293.16 242.15 290.96 242.29 289.91 242.52 287.96 243.36 286.16 244.65 
M 396.22 146.71 399.95 146.31 407.82 142.77 410.07 141.48 414.44 138.6 420 136.09 422.19 134.37 425.21 132.54 431.57 131.36 435.89 133.51 437.95 133.81 444.07 135.95 446.23 136.11 451.07 139.51 453.88 141.15 460.08 145.38 461.83 147.56 463.3 149.92 464.31 153.93 465.03 155.99 468.81 163.67 470.83 166.93 471.49 169.64 470.89 172.08 469.83 173.96 468.48 175.5 467.91 177.81 467.73 184.33 466.32 189.85 464.52 195.17 463.06 197.35 461.31 199.33 458.57 200.36 457.56 203.11 456.05 205.35 454.37 207.41 451.78 208.59 449.81 210.16 445.2 212.69 443.62 214.77 433.84 216.43 428.2 218.05 425.93 216.18 424.15 212.91 421.22 212.13 416.6 210 414.91 207.34 412.92 204.8 410.45 203.1 407.83 201.97 402.28 199 396.22 193.4 
M 396.22 149.04 399.69 148.56 402.72 147.65 405.52 146.33 411.01 144.54 413.09 142.7 415.21 141.44 417.96 141.23 420.51 140.84 422.23 139.19 427.6 137.27 430.84 135.17 433.08 134.96 
M 396.22 151.38 399.51 151.45 405.19 149.3 407.77 148.65 410.65 147.64 413.2 146.14 418.31 144.71 
M 396.22 153.71 399.57 153.86 402.49 153.13 405.3 152.2 410.29 151.05 413.23 149.12 415.81 147.78 418.69 147.86 421.81 146.81 425.13 144.59 427.89 143.16 429.38 142.62 431.96 142.33 434.08 143.06 
M 396.22 156.05 399.73 156.03 402.53 155.68 405.37 154.93 407.9 154.93 410.81 154.54 413.58 152.37 416.19 151.17 418.25 150.58 421.79 150.22 424.74 149.45 427.48 146.99 430.8 145.89 433.24 145.77 435.82 146.67 437.92 146.83 440.6 145.47 445.4 142.5 448.38 141.88 
M 405.93 157.76 411.33 156.89 413.86 155.97 416.32 154.31 418.56 153.17 421.27 152.45 423.56 152.47 426.64 151.85 429.68 150.95 432.84 151.49 436.22 150.6 
M 396.22 160.72 399.61 160.87 402.78 160.54 405.93 160.42 419.6 158.14 421.75 156.47 424.2 155.92 426.7 156.11 429.28 155.78 431.89 155.9 439.6 153.45 441.73 153.51 
M 402.71 163.12 408.74 162.85 414.22 162.02 418.53 162.14 421.47 161.46 424.52 161.34 427.36 160.57 430.76 160.48 434.3 160.09 436.77 159.77 439.35 159.12 442.5 159.51 447.56 159.1 450.15 158.75 452.92 157.81 
M 399.85 165.86 408.55 166.09 411.53 165.61 413.88 164.91 418.56 165.33 424.49 165.45 427.61 164.51 430.56 164.91 438.04 163.96 443.35 163.5 445.67 164.22 448.19 163.82 450.32 164.62 454.03 164.35 457.34 163.8 
M 403.01 168.77 405.74 169.03 411.38 168.42 414.25 167.89 422.43 167.84 426.88 168.78 430.2 168.36 436.3 167.94 439.15 168.03 441.76 167.92 444.79 168.61 454 169.68 
M 406.11 171.83 411.32 171.54 418.05 170.53 420.58 170.74 422.7 172.01 424.48 172.43 426.41 172.17 428.97 172.46 432.02 173.19 434.82 173.65 438.07 173.55 442.25 173.02 447.86 172.92 454.65 173.8 457.09 173.54 459.33 173.9 
M 396.22 172.39 399.98 173.42 405.73 174.25 411.06 174.59 417.2 175.29 422.34 176.38 424.95 176.52 428.29 177.11 430.34 177.81 432.45 178.15 435.71 178.13 438.44 178.82 
M 405.45 177.02 410.7 177.94 413.52 179.25 416.59 180.43 419.31 180.78 428.83 181.04 430.84 182.71 432.78 183.68 442 185.47 444.83 184.79 448.03 184.78 450.05 183.58 452.74 183.51 458.92 185.29 461.26 184.97 
M 396.22 177.06 399.61 178.49 402.41 179.48 405.04 179.94 407.79 179.96 410.46 181.01 413.32 182.68 416.22 183.57 419.24 183.84 425.35 185.47 428.27 185.66 430.41 186.33 433.28 187.82 
M 402.44 182.26 405.28 182.93 410.08 184.78 413.31 185.58 416.83 186.26 419.43 186.42 424.77 189.44 428.1 190.16 430.82 190.97 433.56 190.9 435.98 192.44 438.59 193.41 
M 399.71 183.55 407.4 186.98 410.41 188.11 413.31 188.41 416.15 189.17 419.25 190.34 421.56 191.72 424.82 193.05 
M 404.94 188.38 410.41 191.11 418.35 193.63 421.33 195.03 428.35 200.16 434.49 201.16 437.01 201.15 439 202.41 441.57 202.94 444.24 204.64 
M 402.44 189.79 405.11 191.19 407.67 192.79 410.52 193.85 412.99 195.07 415.52 195.53 417.95 196.59 420.42 198.11 423.27 200.2 
M 405.05 194.07 407.72 196.05 410.68 197.43 415.03 199.09 417.39 200.39 420.07 202.31 422.88 204.72 425.03 206.24 427.18 207.46 
M 405.02 197.7 408.2 199.09 410.79 200.74 415.28 202.82 417.02 205.64 421.92 208.6 
M 384.28 196.84 380.93 198.32 379.67 199.57 378.84 201.09 378.17 202.76 376.8 203.81 373.44 203.26 371.63 203.42 368.43 205.01 365.99 207.57 365.1 208.92 366.32 209.17 
M 68.69 157.43 74.82 153.45 78.82 151.23 83.67 149.52 88.96 147.29 94.43 144.28 99.69 141.64 111.75 137.4 117.92 135.43 133.37 130.83 147.11 127.57 149.71 132.13 151.46 136.83 152.81 141.57 153.81 146.35 154.35 151.18 155.33 155.97 155.57 160.83 156.46 165.62 157.07 175.33 158.6 184.94 158.84 189.81 159.72 194.6 158.63 204.5 158.44 209.41 158.02 214.34 156.94 219.23 144.35 218.27 134.88 216.77 126.44 214.88 118.98 212.85 112.08 210.33 105.93 207.3 100.16 203.72 89.78 195.37 84.5 190.05 
M 82.19 187.25 80.71 185.47 77.69 181.09 75.62 177.55 
M 133.9 153.66 134.52 157.8 133.57 169.07 133.61 172.21 133.45 175.29 134.2 178.09 134.28 180.85 134.61 183.85 137.02 191.01 137.89 195.28 129.29 195.36 122.66 195.19 116.44 194.76 110.61 194.11 104.93 192.81 99.69 190.7 94.7 187.72 
M 83.36 189.24 81.78 186.58 77.2 179.77 73.07 174.03 68.56 166.35 64.84 160.86 65.03 158.55 67.04 157.11 69.25 157.54 70.34 159.51 74 167.73 79.23 177.96 83.73 187.32 84.8 189.91 
M 84.24 190.52 75.65 188.5 68.91 187.38 60.46 185.62 56.4 184.42 50.02 182.81 48.5 181.13 48.87 179.04 50.76 177.87 52.96 178.44 65.11 183.13 71.47 185.23 78.05 187.19 84.55 189.68 
M 100.88 161.58 99.91 157.91 100.19 154.13 101.68 150.64 104.22 147.82 107.54 145.98 111.27 145.32 115.02 145.91 118.38 147.68 120.98 150.45 122.53 153.91 122.89 157.69 121.99 161.37 119.95 164.57 116.98 166.93 113.4 168.2 109.61 168.24 106 167.04 102.99 164.74 100.88 161.58 
M 100.74 161.26 99.98 158.51 99.92 155.66 100.57 152.88 101.14 151.57 102.75 149.22 103.76 148.21 106.11 146.6 108.79 145.62 110.2 145.38 113.05 145.44 115.8 146.2 
M 102.39 160.58 102 159.44 101.65 157.05 101.92 154.58 
M 104.1 150.38 105.89 148.8 106.93 148.19 109.19 147.36 110.38 147.16 112.79 147.21 115.12 147.85 
M 104.03 159.9 103.71 158.96 103.43 157.01 103.69 154.87 
M 105.35 151.68 106.9 150.28 107.75 149.77 109.59 149.09 111.55 148.89 113.5 149.17 114.44 149.49 
M 107.19 158.74 106.8 157.28 106.88 156.14 
M 107.8 154.04 108.52 153.24 109.85 152.5 111.34 152.24 112.84 152.47 114.18 153.18 115.22 154.29 115.85 155.67 115.99 157.18 115.63 158.66 114.81 159.94 113.62 160.88 112.19 161.39 110.68 161.4 109.24 160.93 108.03 160.01 107.19 158.74 
M 108.03 153.78 107.87 154.11 
M 110.02 152.47 108.8 154.91 
M 107.99 156.54 107.08 158.36 
M 111.47 152.26 109.69 155.81 
M 109.15 156.9 107.78 159.63 
M 112.71 152.45 110.49 156.88 
M 110.36 157.14 108.68 160.5 
M 113.79 152.97 109.73 161.09 
M 114.73 153.76 110.91 161.4 
M 115.5 154.9 112.27 161.36 
M 115.94 156.69 113.99 160.59 
M 78.1 181.69 79.02 182.61 
M 69.44 156.98 74.54 162.08 
M 72.71 154.9 77.06 159.24 
M 75.97 152.81 80.87 157.71 
M 79.5 150.99 84.38 155.87 
M 83.46 149.6 86.52 152.66 
M 87.23 148.02 92.21 153 
M 90.83 146.27 95.9 151.34 
M 94.27 144.36 98.36 148.45 
M 97.83 142.57 102.29 147.03 
M 101.58 140.97 105.88 145.28 
M 105.52 139.57 109.28 143.32 
M 109.49 138.18 112.59 141.28 
M 113.5 136.84 117.7 141.04 
M 117.55 135.55 121.84 139.83 
M 121.69 134.34 125.42 138.06 
M 125.78 133.08 130.67 137.96 
M 129.87 131.82 132.92 134.86 
M 134.06 130.66 139.34 135.93 
M 138.34 129.59 142.08 133.32 
M 142.65 128.54 145.67 131.57 
M 147.03 127.58 147.21 127.76 
M 141.67 158.5 141.49 157.62 141.88 157.08 
M 89.57 195.08 89.07 192.59 87.67 189.88 86.83 189.06 85.77 188.59 84.7 188.39 
M 98.36 154.39 98.57 148.56 97.86 145.93 96.66 143.16 
M 104.31 172.04 105.17 171.4 105.45 171.01 106.8 167.3 
M 149.06 184.04 147.83 184.51 146.45 184.75 145.76 184.64 144.81 184.1 
M 122.63 135.36 122.37 134.14 
M 153.02 148.75 152 147.88 151.95 147.38 152.49 145.55 152.93 145.14 153.5 144.87 
M 154.03 158.09 152.42 155.69 151.77 155.01 148.98 153.7 147.59 152.33 146.67 151.7 
M 149.68 212.23 150.62 212.57 150.57 213.47 
M 139.24 187.47 137.99 184.61 137.65 183.39 137.85 182.33 138.09 182.12 138.49 182.08 
M 126.96 169.51 126.48 169.52 126.2 169.87 126.13 171.59 125.74 173.08 
M 131.06 174.9 132.8 175.9 134.12 177.62 134.94 179.16 
M 106.28 146.68 106.39 145.72 107 144.62 107.98 143.36 108.04 142.64 
M 88.37 179.89 88.04 178.26 87.59 177.64 
M 92.83 176.18 94.66 178.07 96.79 179.16 99.02 181.1 99.5 181.28 
M 103.3 167.64 104.01 166.33 104.71 166.05 
M 97.51 159.41 97.32 156.38 98.32 150.01 98.39 148.39 
M 147.38 157.76 147 156.8 146.32 155.81 146.25 155.42 146.48 154.53 
M 138.9 153.22 140.48 150.17 143.27 146.38 144.86 144.78 146.07 144.1 
M 133.3 138.47 135.31 139.49 137.61 139.53 139.09 140.31 139.8 140.3 
M 121.41 196.59 121.58 194.48 121.8 194.04 122.58 192.99 125.93 189.79 126.72 188.29 126.89 186.55 
M 108.57 186.37 109.31 188.2 109.88 189.01 110.42 190.29 110.31 190.88 109.33 191.75 
M 92.23 187.53 91.3 186.02 90.52 185.41 89.38 184.84 88.47 183.92 87.09 181.57 86.49 180.93 
M 125.07 187.64 126.71 184.16 126.39 182.53 126.54 181.73 127.03 180.82 127.53 180.32 
M 138.1 151.76 138.72 151.04 140.1 148.88 143.59 145.48 144.73 144.6 145.99 143.97 
M 145.89 141.31 149.73 141.65 151.3 141.13 
M 131.71 213.59 130.19 212 129.5 210.12 129.65 208.53 130.4 206.77 130.95 205.99 
M 125.35 141.06 125.47 139.53 125.78 138.38 125.88 136.02 
M 154.59 152.39 151.44 151.67 149.92 150.82 149.4 150.16 149.14 148.61 
M 101.9 185.93 102.59 184.61 102.68 183.91 101.36 180.95 
M 82.32 153.64 84.06 153.07 85.69 151.68 87.12 150.78 
M 109.23 145.69 109.5 144.12 109.09 143.27 
M 143.29 130.56 143.34 129.64 143.13 128.43 
M 114.88 170.67 113.55 168.14 
M 129.79 134.65 129.63 131.89 
M 86.63 172.32 85.84 171.74 82.29 169.98 80.22 169.57 77.85 168.51 76.25 168.27 
M 140 146.01 141.79 145.42 145.32 143.77 147.97 143.15 
M 79.03 151.16 80.02 151.45 82.18 151.33 83.41 150.77 85.02 149.31 
M 154 187.23 153.2 188.87 152.36 190.18 152.38 190.78 152.86 191.02 
M 85.56 191.16 84.71 190.31 
M 131.87 158.16 134.32 160.3 135.05 161.26 136.44 162.48 136.58 162.96 136.36 163.47 
M 135.81 212.67 134.12 211.18 133.81 210.68 133.6 209.77 133.71 208.81 134.85 206.92 
M 86.84 171.81 84.55 169.44 83.69 168.76 82.76 168.27 80.91 168.02 76.06 168.08 
M 120.52 207.57 121.14 208.75 122.81 209.29 123.69 209.34 124.39 209.17 124.93 208.71 125.22 208.09 
M 76.09 154.57 80.02 155.33 81.02 155.29 81.78 154.95 
M 78.83 154.29 80.47 154.48 81.62 154.41 84.05 153.58 
M 106.01 202.71 104.62 202.66 100.38 201.37 97.25 201.4 
M 76.97 171.8 76.06 171.89 
M 151.64 203.1 151.99 205.09 153.13 207.11 
M 110.79 198.42 108.79 198.58 106.91 198.41 105.89 198.08 105.01 197.34 104.64 196.7 104.31 194.16 
M 100.4 153.63 99.57 150.99 99.15 148.69 98.48 147.55 
M 101.94 179.46 101.05 179.04 100.7 179.09 100.27 179.49 100.31 179.81 
M 131.71 208.15 132.04 206.59 132.31 206.08 135.43 201.96 135.77 201.35 136.27 199.74 
M 157.71 211.98 156 213.54 154.45 213.95 153.85 214.24 152.55 215.4 151.58 215.65 
M 128.82 139.07 128.33 138.95 127.86 138.62 127.41 137.73 
M 76.63 158.63 77.84 158.94 78.79 159.4 80.21 160.54 80.61 160.51 81.13 160.23 
M 157.32 177.16 155.79 175.79 153.81 174.43 153.02 173.57 151.74 171.58 151.25 170.48 151.15 168.55 
M 144.58 154.77 144.94 154.22 144.96 152.79 145.3 150.67 
M 127.13 189.92 127.46 189.35 127.69 187.91 127.46 183.88 126.71 182.17 126.98 181.23 
M 137.38 202.44 137.51 201.91 137.48 200.46 137.29 198.81 136.93 197.56 136.37 196.86 136.04 196.72 134.49 196.66 
M 152.52 156.12 151.35 154.9 149.74 154.28 148.43 153.4 147.5 152.32 146.55 151.69 145.89 150.92 
M 153.73 183.82 154.24 183.33 154.22 182.67 
M 138.42 145.24 139.58 144.96 141.23 145.25 141.82 145.16 145.38 143.68 146.92 143.33 
M 100.12 169.05 99.97 167.62 100.27 165.16 101.41 162.37 
M 110.19 138.02 110.15 137.95 
M 71.08 157.86 71.28 157.14 71.6 156.94 74.44 157.85 
M 150.41 215.76 150.4 216.86 150.66 217.04 151.07 217 
M 131.94 208.57 132.45 206.61 133.77 204.46 135.11 202.93 135.74 201.8 136.31 200.27 
M 116.74 181.89 116.84 181.2 117.54 180.1 117.91 179.08 
M 157.12 184.34 157.04 185.29 157.28 185.93 157.86 186.37 158.68 186.64 
M 84.56 190.02 85.17 191.12 
M 80.98 185.45 80.89 185.98 81.28 185.88 
M 77.61 180.42 77.36 180.71 77.03 181.63 77.62 181.17 78.04 181.1 
M 74.19 175.59 73.73 176.01 73.18 177.27 73.99 176.47 74.69 176.27 
M 71.01 170.57 70.1 171.3 69.32 172.91 70.36 171.77 71.49 171.38 
M 67.97 165.48 66.48 166.6 65.47 168.55 66.74 167.07 68.56 166.37 
M 64.88 160.44 62.85 161.9 61.62 164.19 63.11 162.37 65.26 161.49 
M 84.35 190.23 85.6 190.59 
M 79.37 187.7 79.64 187.59 79.62 187.79 
M 73.38 185.81 73.71 185.35 74.53 184.83 74.22 185.5 74.26 186.07 
M 67.73 183.95 68.32 182.89 69.43 182.07 68.84 183.04 68.78 184.3 
M 62.17 182.01 62.94 180.43 64.32 179.31 63.45 180.58 63.26 182.43 
M 56.72 179.86 57.55 177.98 59.22 176.55 58.07 178.12 57.76 180.29 
M 51.14 177.97 52.16 175.52 54.11 173.79 52.68 175.66 52.26 178.25 
M 57.76 184.88 66.64 190.03 77.43 195.38 82.89 197.84 88.56 200.01 100.16 203.72 
M 64.71 188.94 64.36 188.28 
M 148.62 130.22 152.12 133.72 
M 151.58 126.05 160.7 135.17 
M 156.96 124.3 167.57 134.91 
M 162.61 122.81 169.07 129.28 
M 168.24 121.31 175.52 128.59 
M 173.77 119.71 180.06 125.99 
M 179.19 118 185.59 124.39 
M 184.45 116.13 191.52 123.19 
M 189.77 114.31 196.5 121.03 
M 195.13 112.54 205.75 123.15 
M 200.57 110.85 207.93 118.2 
M 206.05 109.19 216.63 119.77 
M 211.65 107.65 218.71 114.72 
M 217.29 106.16 225.03 113.9 
M 223.25 104.99 229.65 111.39 
M 229.32 103.93 235.7 110.31 
M 235.58 103.06 242.12 109.6 
M 242.04 102.38 250.78 111.13 
M 248.71 101.92 258.05 111.27 
M 255.81 101.89 261.33 107.41 
M 263.27 102.22 269.75 108.7 
M 270.89 102.71 280.01 111.82 
M 278.88 103.56 285.61 110.3 
M 287.77 105.32 297.69 115.24 
M 297.03 107.45 305.5 115.91 
M 306.34 109.63 314.21 117.5 
M 315.52 111.67 323.53 119.68 
M 324.8 113.82 330.34 119.35 
M 336.11 118 342.67 124.56 
M 349.19 123.94 358.65 133.41 
M 362.69 130.31 368.58 136.2 
M 376.58 137.06 382.55 143.04 
M 390.59 143.94 398.9 152.26 
M 404.24 150.46 405.73 151.95 
M 161.13 198.15 163.52 202.93 
M 162.84 195.34 166.03 201.72 
M 166.52 196.44 167.75 198.92 
M 169.35 202.11 170.94 205.3 
M 156.92 164.77 157.72 166.36 
M 159.31 169.55 160.11 171.15 
M 189.02 222.73 190.62 225.92 
M 191.41 227.52 194.28 233.26 
M 153.71 145.87 155.73 149.91 
M 191.62 221.68 197.27 232.98 
M 147.58 127.36 158.34 148.9 
M 163.93 160.06 165.79 163.79 
M 183.41 199.03 184.66 201.53 
M 150.26 126.49 157.84 141.64 
M 158.63 143.23 168.47 162.9 
M 188.14 202.25 190.53 207.03 
M 152.94 125.61 154.14 128 
M 155.73 131.19 170.09 159.9 
M 191.62 202.96 194.81 209.34 
M 156.02 125.53 156.82 127.12 
M 158.42 130.31 160.81 135.1 
M 161.61 136.69 171.97 157.43 
M 195.1 203.68 197.49 208.47 
M 207.06 227.61 209.45 232.39 
M 210.4 234.28 210.95 235.38 
M 166.72 140.68 167.51 142.27 
M 168.31 143.87 174.69 156.63 
M 198.62 204.47 201.01 209.26 
M 208.98 225.21 211.37 229.99 
M 212.97 233.18 214.17 235.59 
M 161.5 124.01 165.49 131.98 
M 171.07 143.14 176.65 154.31 
M 202.17 205.35 203.77 208.54 
M 210.15 221.3 214.13 229.27 
M 214.93 230.87 215.73 232.46 
M 163.86 122.49 169.05 132.85 
M 174.63 144.02 180.21 155.18 
M 201.74 198.25 202.54 199.84 
M 212.11 218.98 216.1 226.96 
M 166.62 121.77 171.81 132.13 
M 177.39 143.3 182.97 154.46 
M 201.31 191.15 203.71 195.93 
M 215.67 219.86 218.86 226.23 
M 169.36 120.99 172.15 126.57 
M 177.73 137.74 187.3 156.87 
M 201.65 185.58 208.03 198.34 
M 218.4 219.08 222.39 227.05 
M 171.36 118.76 174.95 125.94 
M 179.74 135.51 190.9 157.84 
M 204.46 184.95 211.63 199.3 
M 220.41 216.85 222.8 221.63 
M 173.03 115.85 175.82 121.43 
M 176.62 123.03 178.21 126.22 
M 180.6 131 187.78 145.36 
M 189.38 148.55 194.96 159.71 
M 195.76 161.31 198.15 166.09 
M 208.51 186.83 214.1 197.99 
M 214.89 199.58 215.69 201.18 
M 220.48 210.75 221.27 212.34 
M 223.67 217.13 225.26 220.32 
M 230.84 231.48 232.41 234.62 
M 174.53 112.62 178.92 121.39 
M 182.11 127.77 190.88 145.32 
M 192.48 148.51 195.67 154.89 
M 197.26 158.08 201.25 166.05 
M 210.82 185.19 214.01 191.57 
M 222.78 209.11 231.55 226.66 
M 233.15 229.85 234.88 233.32 
M 175.81 108.94 183.39 124.09 
M 184.19 125.69 191.36 140.04 
M 200.93 159.18 201.73 160.78 
M 203.33 163.97 204.92 167.16 
M 214.49 186.3 220.87 199.05 
M 230.44 218.19 231.24 219.79 
M 233.63 224.57 234.43 226.17 
M 176.86 104.78 184.43 119.94 
M 185.23 121.53 194 139.07 
M 205.17 161.4 205.96 163 
M 216.33 183.73 222.71 196.49 
M 223.51 198.09 225.1 201.28 
M 232.28 215.63 236.27 223.61 
M 240.25 231.58 241.12 233.32 
M 178.12 101.08 199.26 143.34 
M 205.64 156.1 207.23 159.29 
M 218.4 181.62 222.38 189.6 
M 225.57 195.98 226.37 197.57 
M 238.33 221.5 239.93 224.69 
M 242.32 229.47 244.11 233.05 
M 180.47 99.52 190.43 119.46 
M 191.23 121.05 201.6 141.79 
M 207.98 154.55 210.37 159.33 
M 213.56 165.71 216.75 172.09 
M 221.54 181.66 223.13 184.85 
M 235.09 208.77 235.89 210.37 
M 236.69 211.96 239.08 216.75 
M 244.66 227.91 245.46 229.51 
M 182.58 97.51 193.35 119.04 
M 194.15 120.64 200.53 133.4 
M 202.12 136.59 204.51 141.37 
M 205.31 142.97 206.9 146.16 
M 207.7 147.75 213.28 158.92 
M 217.27 166.89 218.07 168.49 
M 231.63 195.6 232.42 197.2 
M 238.01 208.36 241.99 216.34 
M 245.98 224.31 247.58 227.5 
M 184.57 95.25 203.31 132.73 
M 204.11 134.33 215.27 156.66 
M 233.62 193.34 235.21 196.53 
M 241.59 209.29 247.97 222.05 
M 250.36 226.83 251.16 228.43 
M 186.35 92.56 217.85 155.56 
M 229.01 177.89 229.81 179.49 
M 245.76 211.39 249.75 219.36 
M 187.86 89.35 189.85 93.33 
M 193.84 101.31 220.96 155.54 
M 224.15 161.92 226.54 166.7 
M 231.32 176.27 232.92 179.46 
M 248.87 211.36 252.06 217.74 
M 189.13 85.65 192.72 92.83 
M 196.71 100.8 217.44 142.27 
M 219.84 147.06 223.03 153.44 
M 226.22 159.82 227.81 163.01 
M 191.65 84.44 197.63 96.4 
M 204.81 110.76 217.57 136.27 
M 222.35 145.84 224.74 150.63 
M 228.73 158.6 232.72 166.58 
M 264.62 230.38 265.82 232.79 
M 194.31 83.52 196.3 87.51 
M 198.7 92.29 200.29 95.48 
M 205.87 106.65 219.43 133.76 
M 223.42 141.74 226.61 148.12 
M 232.19 159.28 235.38 165.66 
M 240.96 176.82 243.35 181.61 
M 260.9 216.7 261.7 218.29 
M 196.82 82.3 199.61 87.88 
M 200.41 89.47 202 92.66 
M 209.98 108.61 221.94 132.54 
M 222.74 134.13 223.53 135.73 
M 225.13 138.92 228.32 145.3 
M 234.7 158.06 235.49 159.65 
M 243.47 175.6 246.66 181.98 
M 263.41 215.47 264.2 217.07 
M 199.1 80.62 205.08 92.58 
M 213.05 108.53 216.24 114.91 
M 217.84 118.1 225.02 132.45 
M 228.21 138.83 232.19 146.81 
M 236.18 154.78 238.57 159.57 
M 240.17 162.76 241.76 165.95 
M 246.55 175.51 249.74 181.89 
M 201.14 78.46 207.92 92.02 
M 215.1 106.37 216.69 109.56 
M 221.48 119.13 227.86 131.89 
M 231.84 139.87 233.44 143.06 
M 237.43 151.03 238.22 152.63 
M 239.82 155.82 240.62 157.41 
M 254.17 184.53 257.36 190.91 
M 203.39 76.72 209.77 89.48 
M 211.37 92.67 212.17 94.27 
M 216.15 102.24 219.34 108.62 
M 224.13 118.19 230.51 130.95 
M 257.62 185.18 258.42 186.77 
M 259.22 188.37 260.01 189.96 
M 205.89 75.48 211.47 86.65 
M 213.87 91.43 214.66 93.03 
M 217.85 99.41 225.03 113.76 
M 225.83 115.35 234.6 132.9 
M 260.12 183.94 260.92 185.53 
M 261.72 187.13 264.9 193.51 
M 279.26 222.21 281.65 227 
M 208.18 73.81 214.56 86.57 
M 221.74 100.93 237.69 132.83 
M 241.67 140.8 244.07 145.58 
M 264.8 187.05 265.6 188.65 
M 281.55 220.55 283.94 225.33 
M 285.53 228.52 287.87 233.19 
M 211.2 73.62 215.19 81.59 
M 222.37 95.95 242.3 135.82 
M 243.9 139.01 247.89 146.99 
M 284.57 220.35 290.82 232.85 
M 214.93 74.82 217.32 79.61 
M 225.29 95.56 234.06 113.1 
M 238.05 121.08 252.41 149.78 
M 287.49 219.96 289.09 223.15 
M 289.89 224.75 293.77 232.51 
M 214.12 66.98 214.52 67.78 
M 217.71 74.16 220.11 78.94 
M 224.89 88.51 225.69 90.11 
M 227.28 93.3 236.05 110.84 
M 240.84 120.41 257.59 153.9 
M 291.08 220.89 291.88 222.49 
M 293.47 225.68 296.72 232.17 
M 215.95 64.39 221.93 76.36 
M 223.53 79.55 234.69 101.87 
M 237.88 108.25 238.68 109.85 
M 243.46 119.42 266.59 165.67 
M 268.98 170.46 269.78 172.05 
M 217.64 61.54 240.37 106.99 
M 244.36 114.97 260.31 146.87 
M 261.9 150.06 273.87 173.98 
M 219.25 58.51 261.12 142.24 
M 264.31 148.62 276.27 172.55 
M 222.36 58.49 241.9 97.57 
M 244.29 102.35 262.63 139.04 
M 267.42 148.61 268.22 150.2 
M 269.01 151.8 278.58 170.93 
M 225.45 58.42 244.98 97.49 
M 248.17 103.87 252.96 113.44 
M 255.35 118.23 261.73 130.99 
M 269.7 146.94 270.5 148.53 
M 271.3 150.13 279.27 166.07 
M 287.25 182.02 288.84 185.21 
M 290.44 188.4 291.24 190 
M 228.36 58 247.9 97.08 
M 248.69 98.67 255.07 111.43 
M 259.06 119.41 264.64 130.57 
M 267.83 136.95 279 159.28 
M 291.76 184.8 292.55 186.39 
M 231.04 57.12 245.79 86.62 
M 248.18 91.41 258.55 112.14 
M 260.14 115.33 274.5 144.04 
M 275.3 145.64 276.89 148.83 
M 284.87 164.77 285.66 166.37 
M 295.23 185.51 296.03 187.1 
M 316.12 227.29 316.68 228.4 
M 233.54 55.89 247.5 83.8 
M 248.3 85.4 278.6 146 
M 280.2 149.19 280.99 150.79 
M 285.78 160.36 288.97 166.74 
M 318.47 225.75 319.45 227.71 
M 235.92 54.4 237.11 56.79 
M 238.71 59.98 241.9 66.36 
M 248.28 79.12 253.86 90.28 
M 257.05 96.66 259.44 101.45 
M 263.43 109.42 269.81 122.18 
M 270.61 123.77 284.96 152.48 
M 287.35 157.27 290.54 163.65 
M 303.3 189.17 305.7 193.95 
M 318.45 219.47 319.25 221.07 
M 238.87 54.07 239.27 54.86 
M 240.07 56.46 244.06 64.43 
M 252.83 81.98 255.22 86.76 
M 257.61 91.55 261.6 99.52 
M 266.39 109.09 273.56 123.45 
M 275.16 126.64 286.32 148.97 
M 290.31 156.94 293.5 163.32 
M 304.66 185.65 308.65 193.62 
M 242.31 54.69 245.1 60.28 
M 247.49 65.06 248.29 66.66 
M 250.68 71.44 252.28 74.63 
M 255.47 81.01 258.66 87.39 
M 261.05 92.17 265.04 100.15 
M 268.23 106.53 281.78 133.64 
M 282.58 135.24 288.16 146.4 
M 292.95 155.97 296.93 163.95 
M 307.3 184.68 309.69 189.47 
M 312.09 194.25 313.68 197.44 
M 245.52 54.88 247.52 58.87 
M 250.71 65.25 255.49 74.82 
M 258.68 81.2 261.87 87.58 
M 266.65 97.15 284.2 132.23 
M 285.79 135.42 288.98 141.8 
M 296.16 156.16 300.95 165.73 
M 306.53 176.89 312.11 188.06 
M 313.7 191.25 314.5 192.84 
M 248.46 54.51 250.45 58.5 
M 253.64 64.88 291.12 139.84 
M 299.1 155.79 299.9 157.39 
M 303.09 163.77 303.88 165.36 
M 307.87 173.34 313.45 184.5 
M 251.2 53.75 252.4 56.15 
M 257.18 65.72 279.51 110.37 
M 280.31 111.97 296.26 143.87 
M 303.43 158.22 307.42 166.2 
M 309.81 170.98 315.4 182.15 
M 331.34 214.04 332.94 217.23 
M 333.74 218.83 335.69 222.73 
M 253.8 52.71 255 55.11 
M 255.79 56.7 256.59 58.3 
M 258.98 63.08 280.52 106.14 
M 284.5 114.12 290.88 126.88 
M 291.68 128.47 298.86 142.83 
M 300.45 146.02 301.25 147.61 
M 305.24 155.59 311.62 168.35 
M 312.41 169.94 317.2 179.51 
M 333.15 211.41 338.28 221.67 
M 256.75 52.37 259.54 57.96 
M 261.93 62.74 281.87 102.61 
M 286.66 112.18 301.01 140.89 
M 303.4 145.68 304.2 147.27 
M 305.79 150.46 308.98 156.84 
M 309.78 158.44 314.57 168.01 
M 316.96 172.79 319.35 177.58 
M 324.14 187.15 324.93 188.74 
M 325.73 190.33 326.53 191.93 
M 259.72 52.07 260.91 54.46 
M 263.31 59.24 277.66 87.95 
M 280.05 92.74 285.63 103.9 
M 288.82 110.28 311.95 156.53 
M 312.75 158.13 315.14 162.91 
M 319.93 172.48 320.72 174.08 
M 326.31 185.24 328.7 190.03 
M 330.29 193.22 332.68 198 
M 269.39 65.17 272.58 71.55 
M 273.38 73.14 279.76 85.9 
M 282.95 92.28 289.32 105.04 
M 291.72 109.83 296.5 119.39 
M 297.3 120.99 312.45 151.29 
M 333.19 192.76 336.38 199.14 
M 272.17 64.48 272.96 66.08 
M 276.15 72.46 281.74 83.62 
M 284.93 90 292.1 104.35 
M 293.7 107.54 297.68 115.52 
M 298.48 117.11 299.28 118.71 
M 300.87 121.9 314.43 149.01 
M 336.76 193.67 339.15 198.46 
M 269.21 52.32 270 53.92 
M 277.18 68.27 285.16 84.22 
M 285.95 85.81 298.71 111.33 
M 308.28 130.47 317.05 148.02 
M 322.64 159.18 324.23 162.37 
M 325.03 163.97 327.42 168.75 
M 340.18 194.27 343.37 200.65 
M 270.5 48.67 273.29 54.26 
M 276.48 60.64 302 111.67 
M 305.19 118.05 307.59 122.84 
M 311.57 130.81 319.55 146.76 
M 324.33 156.33 331.51 170.69 
M 342.67 193.02 345.86 199.4 
M 352.24 212.16 353.68 215.02 
M 272.9 47.22 275.69 52.8 
M 278.88 59.18 298.02 97.46 
M 299.61 100.65 310.78 122.98 
M 314.76 130.95 315.56 132.55 
M 316.36 134.14 322.74 146.9 
M 329.12 159.66 329.92 161.26 
M 331.51 164.45 333.11 167.64 
M 343.47 188.37 346.66 194.75 
M 354.64 210.7 356.24 213.91 
M 275.23 45.64 277.22 49.63 
M 281.21 57.61 299.55 94.29 
M 303.54 102.26 314.7 124.59 
M 318.69 132.57 325.87 146.92 
M 343.41 182.01 345.8 186.79 
M 348.2 191.58 348.99 193.17 
M 357.77 210.72 358.77 212.72 
M 278.34 45.62 281.13 51.2 
M 283.52 55.98 303.46 95.86 
M 305.05 99.05 315.42 119.78 
M 320.2 129.35 329.77 148.49 
M 339.34 167.63 340.14 169.22 
M 343.33 175.6 350.51 189.96 
M 360.89 210.71 361.3 211.54 
M 281.39 45.49 298.54 79.78 
M 300.13 82.97 316.88 116.46 
M 322.46 127.63 333.63 149.95 
M 341.6 165.9 342.4 167.5 
M 346.39 175.47 354.36 191.42 
M 362.33 207.37 363.82 210.35 
M 284.35 45.16 299.1 74.67 
M 303.09 82.64 307.88 92.21 
M 308.67 93.81 319.84 116.14 
M 323.03 122.52 330.2 136.87 
M 331 138.46 339.77 156.01 
M 346.15 168.77 346.95 170.36 
M 350.14 176.74 358.12 192.69 
M 362.9 202.26 363.7 203.86 
M 366.02 208.5 366.35 209.16 
M 287.17 44.56 289.96 50.15 
M 293.15 56.53 307.51 85.24 
M 312.29 94.81 321.06 112.35 
M 325.05 120.32 333.03 136.27 
M 334.62 139.46 343.39 157.01 
M 352.96 176.15 357.75 185.72 
M 364.93 200.07 368.84 207.89 
M 296.64 57.26 310.99 85.96 
M 311.79 87.56 325.35 114.67 
M 326.14 116.27 335.71 135.41 
M 337.31 138.6 338.9 141.79 
M 342.89 149.76 347.68 159.33 
M 356.45 176.88 359.64 183.26 
M 360.44 184.85 363.63 191.23 
M 369.21 202.39 370.01 203.99 
M 300 57.74 300.8 59.34 
M 301.6 60.93 336.69 131.11 
M 337.48 132.71 339.88 137.49 
M 346.26 150.25 348.65 155.04 
M 349.45 156.63 351.84 161.41 
M 358.22 174.17 365.4 188.53 
M 366.19 190.12 367.79 193.31 
M 302.48 56.46 342.35 136.2 
M 347.94 147.37 351.13 153.75 
M 360.7 172.89 364.68 180.86 
M 367.87 187.24 369.47 190.43 
M 300.12 45.5 300.92 47.09 
M 303.31 51.88 332.82 110.89 
M 333.62 112.49 335.78 116.83 
M 336.43 118.12 344.81 134.87 
M 350.39 146.04 352.78 150.82 
M 355.97 157.2 359.16 163.58 
M 363.95 173.15 365.54 176.34 
M 367.93 181.12 369.53 184.31 
M 370.33 185.91 371.12 187.5 
M 377.5 200.26 378.77 202.79 
M 304.16 47.33 335.78 110.57 
M 340.47 119.96 356.02 151.06 
M 357.62 154.25 360.81 160.63 
M 367.19 173.39 367.99 174.99 
M 373.57 186.15 374.37 187.75 
M 380.79 200.6 381.23 201.48 
M 306.42 45.62 314.4 61.57 
M 319.98 72.73 336.35 105.47 
M 344.51 121.8 345.71 124.19 
M 346.51 125.79 357.67 148.12 
M 375.22 183.21 377.61 187.99 
M 383.25 199.27 383.7 200.17 
M 308.7 43.93 318.67 63.87 
M 323.45 73.44 337.34 101.21 
M 348.56 123.65 360.12 146.78 
M 371.29 169.11 372.09 170.7 
M 311.88 44.04 318.66 57.6 
M 320.25 60.79 326.35 72.99 
M 329.98 80.25 331.03 82.34 
M 335.83 91.96 338.53 97.35 
M 352.61 125.52 363.38 147.05 
M 366.57 153.43 369.76 159.81 
M 372.15 164.59 375.34 170.97 
M 314.9 43.85 319.14 52.33 
M 322.24 58.53 325.64 65.34 
M 356.67 127.39 365.84 145.74 
M 368.24 150.52 370.63 155.3 
M 375.41 164.87 377.01 168.06 
M 380.99 176.04 382.59 179.23 
M 390.62 195.29 391.07 196.2 
M 364.38 136.57 367.57 142.94 
M 370.76 149.32 374.75 157.3 
M 382.72 173.25 383.52 174.84 
M 365.31 132.18 369.29 140.15 
M 373.28 148.13 378.07 157.7 
M 383.65 168.86 386.04 173.65 
M 369.03 133.39 371.02 137.37 
M 376.61 148.54 379.8 154.92 
M 385.38 166.08 389.37 174.06 
M 373.16 135.4 374.35 137.79 
M 378.34 145.76 380.73 150.55 
M 382.33 153.74 383.92 156.93 
M 388.71 166.5 391.9 172.88 
M 379.28 141.4 383.26 149.37 
M 392.04 166.92 400.01 182.87 
M 381.82 140.24 384.21 145.02 
M 399.36 175.33 402.55 181.71 
M 401.9 174.17 406.19 182.74 
M 406.08 151.32 406.19 151.53 
M 221.03 291.39 219.13 297.7 
M 225.23 291.39 223.34 297.7 
M 220.13 294.39 224.33 294.39 
M 226.16 295.3 229.76 295.3 229.94 294.7 229.82 294.1 229.1 293.5 228.2 293.5 227.51 293.8 226.73 294.39 226.16 295.3 225.98 295.89 226.01 296.8 226.43 297.39 226.94 297.7 227.84 297.7 228.53 297.39 229.31 296.8 
M 232.4 293.5 231.14 297.7 
M 231.86 295.3 232.43 294.39 233.21 293.8 233.9 293.5 234.8 293.5 
M 236.3 293.5 235.4 296.5 235.43 297.39 235.94 297.7 236.84 297.7 237.53 297.39 238.7 296.5 
M 239.6 293.5 238.34 297.7 
M 244.73 294.39 244.61 293.8 243.8 293.5 242.9 293.5 241.91 293.8 241.43 294.39 241.55 295 242.06 295.3 243.47 295.6 243.98 295.89 244.01 296.8 243.53 297.39 242.54 297.7 241.64 297.7 240.83 297.39 240.71 296.8 
M 250.73 291.39 248.84 297.7 
M 249.74 294.7 250.91 293.8 251.6 293.5 252.5 293.5 253.01 293.8 253.04 294.7 252.14 297.7 
M 255.2 293.5 255.74 297.7 
M 258.8 293.5 254.78 298.89 254 299.5 253.01 299.8 
M 260.6 293.5 258.71 299.8 
M 260.33 294.39 261.11 293.8 261.8 293.5 262.7 293.5 263.21 293.8 263.63 294.39 263.65 295.3 263.48 295.89 262.9 296.8 262.13 297.39 261.44 297.7 260.53 297.7 260.02 297.39 259.61 296.8 
M 266.3 293.5 264.4 299.8 
M 266.02 294.39 266.81 293.8 267.5 293.5 268.39 293.5 268.9 293.8 269.33 294.39 269.36 295.3 269.18 295.89 268.61 296.8 267.83 297.39 267.14 297.7 266.24 297.7 265.73 297.39 265.31 296.8 
M 271.15 295.3 274.76 295.3 274.94 294.7 274.82 294.1 274.1 293.5 273.2 293.5 272.51 293.8 271.73 294.39 271.15 295.3 270.98 295.89 271.01 296.8 271.43 297.39 271.94 297.7 272.83 297.7 273.52 297.39 274.31 296.8 
M 280.43 294.39 280.01 293.8 279.5 293.5 278.6 293.5 277.9 293.8 277.13 294.39 276.56 295.3 276.38 295.89 276.4 296.8 276.83 297.39 277.33 297.7 278.24 297.7 278.93 297.39 279.7 296.8 
M 282.8 293.5 281.89 296.5 281.93 297.39 282.44 297.7 283.33 297.7 284.02 297.39 285.2 296.5 
M 286.1 293.5 284.83 297.7 
M 288.5 293.5 287.24 297.7 
M 288.14 294.7 289.31 293.8 290 293.5 290.89 293.5 291.4 293.8 291.44 294.7 290.54 297.7 
M 297.5 293.5 296.24 297.7 
M 297.23 294.39 296.81 293.8 296.3 293.5 295.39 293.5 294.7 293.8 293.93 294.39 293.36 295.3 293.18 295.89 293.2 296.8 293.63 297.39 294.14 297.7 295.04 297.7 295.73 297.39 296.51 296.8 
M 299.12 297.1 298.73 297.39 298.94 297.7 299.33 297.39 299.12 297.1 
"/></svg>
